<?xml version="1.0" encoding="UTF-8" standalone="no"?>
<!DOCTYPE svg PUBLIC "-//W3C//DTD SVG 1.1//EN"
 "http://www.w3.org/Graphics/SVG/1.1/DTD/svg11.dtd">
<!-- Generated by graphviz version 9.0.0 (0)
 -->
<!-- Title: grafo_materias Pages: 1 -->
<svg width="1173pt" height="537pt"
 viewBox="0.00 0.00 1173.30 537.00" xmlns="http://www.w3.org/2000/svg" xmlns:xlink="http://www.w3.org/1999/xlink">
<g id="graph0" class="graph" transform="scale(1 1) rotate(0) translate(4 533)">
<title>grafo_materias</title>
<polygon fill="none" stroke="none" points="-4,4 -4,-533 1169.3,-533 1169.3,4 -4,4"/>
<g id="clust1" class="cluster">
<title>cluster_everything</title>
<polygon fill="none" stroke="none" points="8,-8 8,-521 1157.3,-521 1157.3,-8 8,-8"/>
</g>
<g id="clust2" class="cluster">
<title>cluster_header</title>
<polygon fill="none" stroke="none" points="24.6,-461 24.6,-513 1146.33,-513 1146.33,-461 24.6,-461"/>
</g>
<g id="clust3" class="cluster">
<title>cluster_0</title>
<polygon fill="none" stroke="none" points="16,-16 16,-387 150,-387 150,-16 16,-16"/>
</g>
<g id="clust4" class="cluster">
<title>cluster_1</title>
<polygon fill="none" stroke="none" points="170,-28 170,-368 294.25,-368 294.25,-28 170,-28"/>
</g>
<g id="clust5" class="cluster">
<title>cluster_2</title>
<polygon fill="none" stroke="none" points="314.25,-93 314.25,-328 434,-328 434,-93 314.25,-93"/>
</g>
<g id="clust6" class="cluster">
<title>cluster_3</title>
<polygon fill="none" stroke="none" points="454,-159 454,-453 581.25,-453 581.25,-159 454,-159"/>
</g>
<g id="clust7" class="cluster">
<title>cluster_4</title>
<polygon fill="none" stroke="none" points="601.25,-48 601.25,-419 724,-419 724,-48 601.25,-48"/>
</g>
<g id="clust8" class="cluster">
<title>cluster_5</title>
<polygon fill="none" stroke="none" points="744,-40 744,-379 869.75,-379 869.75,-40 744,-40"/>
</g>
<g id="clust9" class="cluster">
<title>cluster_6</title>
<polygon fill="none" stroke="none" points="889.75,-137 889.75,-388 1006.55,-388 1006.55,-137 889.75,-137"/>
</g>
<g id="clust10" class="cluster">
<title>cluster_7</title>
<polygon fill="none" stroke="none" points="1026.55,-48 1026.55,-298 1149.3,-298 1149.3,-48 1026.55,-48"/>
</g>
<!-- Fase 01 -->
<g id="node1" class="node">
<title>Fase 01</title>
<polygon fill="lightgrey" stroke="black" points="133.4,-505 32.6,-505 32.6,-469 133.4,-469 133.4,-505"/>
<text text-anchor="middle" x="83" y="-481.57" font-family="Arial" font-size="14.00">Fase 01</text>
</g>
<!-- Fase 02 -->
<g id="node2" class="node">
<title>Fase 02</title>
<polygon fill="lightgrey" stroke="black" points="282.52,-505 181.72,-505 181.72,-469 282.52,-469 282.52,-505"/>
<text text-anchor="middle" x="232.12" y="-481.57" font-family="Arial" font-size="14.00">Fase 02</text>
</g>
<!-- Fase 01&#45;&gt;Fase 02 -->
<!-- Fase 03 -->
<g id="node3" class="node">
<title>Fase 03</title>
<polygon fill="lightgrey" stroke="black" points="424.52,-505 323.73,-505 323.73,-469 424.52,-469 424.52,-505"/>
<text text-anchor="middle" x="374.12" y="-481.57" font-family="Arial" font-size="14.00">Fase 03</text>
</g>
<!-- Fase 02&#45;&gt;Fase 03 -->
<!-- Fase 04 -->
<g id="node4" class="node">
<title>Fase 04</title>
<polygon fill="lightgrey" stroke="black" points="568.02,-505 467.23,-505 467.23,-469 568.02,-469 568.02,-505"/>
<text text-anchor="middle" x="517.62" y="-481.57" font-family="Arial" font-size="14.00">Fase 04</text>
</g>
<!-- Fase 03&#45;&gt;Fase 04 -->
<!-- Fase 05 -->
<g id="node5" class="node">
<title>Fase 05</title>
<polygon fill="lightgrey" stroke="black" points="713.02,-505 612.23,-505 612.23,-469 713.02,-469 713.02,-505"/>
<text text-anchor="middle" x="662.62" y="-481.57" font-family="Arial" font-size="14.00">Fase 05</text>
</g>
<!-- Fase 04&#45;&gt;Fase 05 -->
<!-- Fase 06 -->
<g id="node6" class="node">
<title>Fase 06</title>
<polygon fill="lightgrey" stroke="black" points="857.27,-505 756.48,-505 756.48,-469 857.27,-469 857.27,-505"/>
<text text-anchor="middle" x="806.88" y="-481.57" font-family="Arial" font-size="14.00">Fase 06</text>
</g>
<!-- Fase 05&#45;&gt;Fase 06 -->
<!-- Fase 07 -->
<g id="node7" class="node">
<title>Fase 07</title>
<polygon fill="lightgrey" stroke="black" points="998.55,-505 897.75,-505 897.75,-469 998.55,-469 998.55,-505"/>
<text text-anchor="middle" x="948.15" y="-481.57" font-family="Arial" font-size="14.00">Fase 07</text>
</g>
<!-- Fase 06&#45;&gt;Fase 07 -->
<!-- Fase 08 -->
<g id="node8" class="node">
<title>Fase 08</title>
<polygon fill="lightgrey" stroke="black" points="1138.33,-505 1037.52,-505 1037.52,-469 1138.33,-469 1138.33,-505"/>
<text text-anchor="middle" x="1087.92" y="-481.57" font-family="Arial" font-size="14.00">Fase 08</text>
</g>
<!-- Fase 07&#45;&gt;Fase 08 -->
<!-- MTM3400 -->
<g id="node9" class="node">
<title>MTM3400</title>
<g id="a_node9"><a xlink:title="Conjuntos, funções, construção dos números inteiros e racionais, números reais, funções reais de um a variável real, funções elementares, progressões aritméticas e geométricas.">
<polygon fill="#8dd3c7" stroke="#8dd3c7" points="133.4,-184.62 32.6,-184.62 32.6,-113.38 133.4,-113.38 133.4,-184.62"/>
<text text-anchor="middle" x="83" y="-167.32" font-family="Arial" font-size="14.00">MTM3400</text>
<text text-anchor="middle" x="83" y="-135.57" font-family="Arial" font-size="14.00">Introdução ao</text>
<text text-anchor="middle" x="83" y="-119.83" font-family="Arial" font-size="14.00">Cálculo</text>
</a>
</g>
</g>
<!-- FSC5101 -->
<g id="node13" class="node">
<title>FSC5101</title>
<g id="a_node13"><a xlink:title="Introdução aos conceitos fundamentais da cinemática, dinâmica e estática. Leis de conservação da energia e do momento linear.">
<polygon fill="#80b1d3" stroke="#80b1d3" points="282.52,-91.75 181.72,-91.75 181.72,-36.25 282.52,-36.25 282.52,-91.75"/>
<text text-anchor="middle" x="232.12" y="-74.45" font-family="Arial" font-size="14.00">FSC5101</text>
<text text-anchor="middle" x="232.12" y="-42.7" font-family="Arial" font-size="14.00">Física I</text>
</a>
</g>
</g>
<!-- MTM3400&#45;&gt;FSC5101 -->
<g id="edge8" class="edge">
<title>MTM3400&#45;&gt;FSC5101</title>
<path fill="none" stroke="#80b1d3" stroke-width="2" d="M133.68,-123.85C145.29,-123.85 154.3,-123.85 154.3,-123.85 154.3,-123.85 154.3,-54.75 154.3,-54.75 154.3,-54.75 179.02,-54.75 179.02,-54.75"/>
<polygon fill="#80b1d3" stroke="#80b1d3" stroke-width="2" points="180.52,-52.25 180.52,-57.25 179.52,-57.25 179.52,-52.25 180.52,-52.25"/>
<polyline fill="none" stroke="#80b1d3" stroke-width="2" points="181.02,-54.75 178.52,-54.75"/>
</g>
<!-- MTM3400&#45;&gt;FSC5101 -->
<!-- MTM3401 -->
<g id="node14" class="node">
<title>MTM3401</title>
<g id="a_node14"><a xlink:title="Sequências de números reais. Limites e continuidade de funções de uma variável. Derivação de funções de uma variável real. Integração de funções de uma variável real.">
<polygon fill="#8dd3c7" stroke="#8dd3c7" points="282.52,-165.75 181.72,-165.75 181.72,-110.25 282.52,-110.25 282.52,-165.75"/>
<text text-anchor="middle" x="232.12" y="-148.45" font-family="Arial" font-size="14.00">MTM3401</text>
<text text-anchor="middle" x="232.12" y="-116.7" font-family="Arial" font-size="14.00">Cálculo I</text>
</a>
</g>
</g>
<!-- MTM3400&#45;&gt;MTM3401 -->
<g id="edge9" class="edge">
<title>MTM3400&#45;&gt;MTM3401</title>
<path fill="none" stroke="#8dd3c7" stroke-width="2" d="M133.49,-144.8C133.49,-144.8 178.94,-144.8 178.94,-144.8"/>
<polygon fill="#8dd3c7" stroke="#8dd3c7" stroke-width="2" points="180.44,-142.3 180.44,-147.3 179.44,-147.3 179.44,-142.3 180.44,-142.3"/>
<polyline fill="none" stroke="#8dd3c7" stroke-width="2" points="180.94,-144.8 178.44,-144.8"/>
</g>
<!-- MTM3400&#45;&gt;MTM3401 -->
<!-- MTM3421 -->
<g id="node15" class="node">
<title>MTM3421</title>
<g id="a_node15"><a xlink:title="&#45;Matrizes, sistemas de equações lineares, decomposição PA=LU, determinantes, desenvolvimento de Laplace, regra de Cramer, método de Gauss&#45;Jordan. Espaços vetoriais sobre o corpo dos números reais, subespaços vetoriais, base e dimensão, transformações lineares, teorema da dimensão, matrizes de uma transformação linear, espaços duais.">
<polygon fill="#8dd3c7" stroke="#8dd3c7" points="284,-359.62 180.25,-359.62 180.25,-288.38 284,-288.38 284,-359.62"/>
<text text-anchor="middle" x="232.12" y="-342.32" font-family="Arial" font-size="14.00">MTM3421</text>
<text text-anchor="middle" x="232.12" y="-310.57" font-family="Arial" font-size="14.00">Álgebra Linear</text>
<text text-anchor="middle" x="232.12" y="-294.82" font-family="Arial" font-size="14.00">I</text>
</a>
</g>
</g>
<!-- MTM3400&#45;&gt;MTM3421 -->
<!-- MTM3510 -->
<g id="node16" class="node">
<title>MTM3510</title>
<g id="a_node16"><a xlink:title="Análise Combinatória: princípio fundamental da contagem, arranjo, permutação e combinação. Binômio de Newton e polinômio de Leibniz. Introdução à Teoria de Probabilidade: espaço amostral, adição e multiplicação de probabilidades.">
<polygon fill="#8dd3c7" stroke="#8dd3c7" points="286.25,-270.5 178,-270.5 178,-183.5 286.25,-183.5 286.25,-270.5"/>
<text text-anchor="middle" x="232.12" y="-253.2" font-family="Arial" font-size="14.00">MTM3510</text>
<text text-anchor="middle" x="232.12" y="-221.45" font-family="Arial" font-size="14.00">Introdução à</text>
<text text-anchor="middle" x="232.12" y="-205.7" font-family="Arial" font-size="14.00">Combinatória e</text>
<text text-anchor="middle" x="232.12" y="-189.95" font-family="Arial" font-size="14.00">Probabilidade</text>
</a>
</g>
</g>
<!-- MTM3400&#45;&gt;MTM3510 -->
<!-- MTM3411 -->
<g id="node10" class="node">
<title>MTM3411</title>
<g id="a_node10"><a xlink:title="Estratégia de resolução de problemas: resolução por árvores, algoritmos, equações, construções geométricas. Problemas olímpicos, Raciocínio dedutivo: conectivos, condicionais, quantificadores, regras de inferência, deduções. Problemas lógicos. Prática como componente curricular.">
<polygon fill="#8dd3c7" stroke="#8dd3c7" points="134.5,-289.5 31.5,-289.5 31.5,-202.5 134.5,-202.5 134.5,-289.5"/>
<text text-anchor="middle" x="83" y="-272.2" font-family="Arial" font-size="14.00">MTM3411</text>
<text text-anchor="middle" x="83" y="-240.45" font-family="Arial" font-size="14.00">Laboratório de</text>
<text text-anchor="middle" x="83" y="-224.7" font-family="Arial" font-size="14.00">Matemática I</text>
<text text-anchor="middle" x="83" y="-208.95" font-family="Arial" font-size="14.00">(PCC 72h&#45;a)*</text>
</a>
</g>
</g>
<!-- MTM3411&#45;&gt;MTM3510 -->
<g id="edge11" class="edge">
<title>MTM3411&#45;&gt;MTM3510</title>
<path fill="none" stroke="#8dd3c7" stroke-width="2" d="M134.74,-236.5C134.74,-236.5 175.19,-236.5 175.19,-236.5"/>
<polygon fill="#8dd3c7" stroke="#8dd3c7" stroke-width="2" points="176.69,-234 176.69,-239 175.69,-239 175.69,-234 176.69,-234"/>
<polyline fill="none" stroke="#8dd3c7" stroke-width="2" points="177.19,-236.5 174.69,-236.5"/>
</g>
<!-- MTM3450 -->
<g id="node11" class="node">
<title>MTM3450</title>
<g id="a_node11"><a xlink:title="Conjunto dos números naturais: operações, ordem, divisibilidade, princípios de indução e boa ordem, números primos e sistemas de numeração. Conjunto dos números inteiros: operações, ordem, divisibilidade, equações diofantinas lineares, números primos e congruências. Conjunto dos números racionais: operações, ordem e representação decimal.">
<polygon fill="#8dd3c7" stroke="#8dd3c7" points="142,-95.62 24,-95.62 24,-24.38 142,-24.38 142,-95.62"/>
<text text-anchor="middle" x="83" y="-78.33" font-family="Arial" font-size="14.00">MTM3450</text>
<text text-anchor="middle" x="83" y="-46.58" font-family="Arial" font-size="14.00">Fundamentos de</text>
<text text-anchor="middle" x="83" y="-30.82" font-family="Arial" font-size="14.00">Aritmética</text>
</a>
</g>
</g>
<!-- MTM3451 -->
<g id="node23" class="node">
<title>MTM3451</title>
<g id="a_node23"><a xlink:title="Anéis, subanéis, homomorfismos entre anéis, ideais, anéis quocientes. Teoremas do isomorfismo. Domínios e corpos. Corpos de frações. Anéis de inteiros módulo n. Congruências lineares. Teorema chinês dos restos. Corpo dos números comp lexos. Anéis de polinômios. Divisibilidade, fatoração única e máximo divisor comum em domínios.">
<polygon fill="#8dd3c7" stroke="#8dd3c7" points="568.02,-296.75 467.23,-296.75 467.23,-241.25 568.02,-241.25 568.02,-296.75"/>
<text text-anchor="middle" x="517.62" y="-279.45" font-family="Arial" font-size="14.00">MTM3451</text>
<text text-anchor="middle" x="517.62" y="-247.7" font-family="Arial" font-size="14.00">Álgebra I</text>
</a>
</g>
</g>
<!-- MTM3450&#45;&gt;MTM3451 -->
<g id="edge21" class="edge">
<title>MTM3450&#45;&gt;MTM3451</title>
<path fill="none" stroke="#8dd3c7" stroke-width="2" d="M142.4,-32.29C206.13,-32.29 298.3,-32.29 298.3,-32.29 298.3,-32.29 298.3,-244.81 298.3,-244.81 298.3,-244.81 464.26,-244.81 464.26,-244.81"/>
<polygon fill="#8dd3c7" stroke="#8dd3c7" stroke-width="2" points="465.76,-242.31 465.76,-247.31 464.76,-247.31 464.76,-242.31 465.76,-242.31"/>
<polyline fill="none" stroke="#8dd3c7" stroke-width="2" points="466.26,-244.81 463.76,-244.81"/>
</g>
<!-- MTM3452 -->
<g id="node24" class="node">
<title>MTM3452</title>
<g id="a_node24"><a xlink:title="Grupos, subgrupos, classes laterais, Teorema de Lagrange, subgrupos normais, grupos quociente, homomorfismos entre grupos, Teorema de Cayley, teoremas do isomorfismo, grupos Sn, Teorema de Cauchy.">
<polygon fill="#8dd3c7" stroke="#8dd3c7" points="713.02,-111.75 612.23,-111.75 612.23,-56.25 713.02,-56.25 713.02,-111.75"/>
<text text-anchor="middle" x="662.62" y="-94.45" font-family="Arial" font-size="14.00">MTM3452</text>
<text text-anchor="middle" x="662.62" y="-62.7" font-family="Arial" font-size="14.00">Álgebra II</text>
</a>
</g>
</g>
<!-- MTM3450&#45;&gt;MTM3452 -->
<g id="edge22" class="edge">
<title>MTM3450&#45;&gt;MTM3452</title>
<path fill="none" stroke="#8dd3c7" stroke-width="2" d="M142.38,-28.33C290.27,-28.33 663.3,-28.33 663.3,-28.33 663.3,-28.33 663.3,-53.34 663.3,-53.34"/>
<polygon fill="#8dd3c7" stroke="#8dd3c7" stroke-width="2" points="665.8,-54.84 660.8,-54.84 660.8,-53.84 665.8,-53.84 665.8,-54.84"/>
<polyline fill="none" stroke="#8dd3c7" stroke-width="2" points="663.3,-55.34 663.3,-52.84"/>
</g>
<!-- MTM3475 -->
<g id="node12" class="node">
<title>MTM3475</title>
<g id="a_node12"><a xlink:title="Álgebra vetorial. Estudo da reta e do plano. Curvas planas. Superfícies.">
<polygon fill="#8dd3c7" stroke="#8dd3c7" points="133.4,-378.62 32.6,-378.62 32.6,-307.38 133.4,-307.38 133.4,-378.62"/>
<text text-anchor="middle" x="83" y="-361.32" font-family="Arial" font-size="14.00">MTM3475</text>
<text text-anchor="middle" x="83" y="-329.57" font-family="Arial" font-size="14.00">Geometria</text>
<text text-anchor="middle" x="83" y="-313.82" font-family="Arial" font-size="14.00">Analítica</text>
</a>
</g>
</g>
<!-- MTM3475&#45;&gt;MTM3421 -->
<g id="edge10" class="edge">
<title>MTM3475&#45;&gt;MTM3421</title>
<path fill="none" stroke="#8dd3c7" stroke-width="2" d="M133.49,-342.21C133.49,-342.21 177.41,-342.21 177.41,-342.21"/>
<polygon fill="#8dd3c7" stroke="#8dd3c7" stroke-width="2" points="178.91,-339.71 178.91,-344.71 177.91,-344.71 177.91,-339.71 178.91,-339.71"/>
<polyline fill="none" stroke="#8dd3c7" stroke-width="2" points="179.41,-342.21 176.91,-342.21"/>
</g>
<!-- MTM3402 -->
<g id="node18" class="node">
<title>MTM3402</title>
<g id="a_node18"><a xlink:title="Técnicas de integração. Aplicações de integral. Séries numéricas e de potências. Funções reais de várias variáveis: limite, continuidade e diferenciação.">
<polygon fill="#8dd3c7" stroke="#8dd3c7" points="424.52,-230.75 323.73,-230.75 323.73,-175.25 424.52,-175.25 424.52,-230.75"/>
<text text-anchor="middle" x="374.12" y="-213.45" font-family="Arial" font-size="14.00">MTM3402</text>
<text text-anchor="middle" x="374.12" y="-181.7" font-family="Arial" font-size="14.00">Cálculo II</text>
</a>
</g>
</g>
<!-- MTM3475&#45;&gt;MTM3402 -->
<g id="edge15" class="edge">
<title>MTM3475&#45;&gt;MTM3402</title>
<path fill="none" stroke="#8dd3c7" stroke-width="2" d="M133.74,-324.79C135.97,-324.79 137.3,-324.79 137.3,-324.79 137.3,-324.79 137.3,-177.31 137.3,-177.31 137.3,-177.31 320.82,-177.31 320.82,-177.31"/>
<polygon fill="#8dd3c7" stroke="#8dd3c7" stroke-width="2" points="322.32,-174.81 322.32,-179.81 321.32,-179.81 321.32,-174.81 322.32,-174.81"/>
<polyline fill="none" stroke="#8dd3c7" stroke-width="2" points="322.82,-177.31 320.32,-177.31"/>
</g>
<!-- FSC5002 -->
<g id="node17" class="node">
<title>FSC5002</title>
<g id="a_node17"><a xlink:title="Estudo da Cinemática e Dinâmica da rotação de corpos rígidos. Oscilações e ondas Mecânicas(som). Estática e Dinãmica dos Fluídos. Noções sobre temperatura, calor, princípios da Termodiâmica e teoria cinética dos gases.">
<polygon fill="#80b1d3" stroke="#80b1d3" points="424.52,-156.75 323.73,-156.75 323.73,-101.25 424.52,-101.25 424.52,-156.75"/>
<text text-anchor="middle" x="374.12" y="-139.45" font-family="Arial" font-size="14.00">FSC5002</text>
<text text-anchor="middle" x="374.12" y="-107.7" font-family="Arial" font-size="14.00">Física II</text>
</a>
</g>
</g>
<!-- FSC5101&#45;&gt;FSC5002 -->
<g id="edge12" class="edge">
<title>FSC5101&#45;&gt;FSC5002</title>
<path fill="none" stroke="#80b1d3" stroke-width="2" d="M232.3,-92.08C232.3,-99.63 232.3,-105.75 232.3,-105.75 232.3,-105.75 320.82,-105.75 320.82,-105.75"/>
<polygon fill="#80b1d3" stroke="#80b1d3" stroke-width="2" points="322.32,-103.25 322.32,-108.25 321.32,-108.25 321.32,-103.25 322.32,-103.25"/>
<polyline fill="none" stroke="#80b1d3" stroke-width="2" points="322.82,-105.75 320.32,-105.75"/>
</g>
<!-- MTM3401&#45;&gt;FSC5002 -->
<g id="edge13" class="edge">
<title>MTM3401&#45;&gt;FSC5002</title>
<path fill="none" stroke="#80b1d3" stroke-width="2" d="M282.99,-125.75C282.99,-125.75 321.12,-125.75 321.12,-125.75"/>
<polygon fill="#80b1d3" stroke="#80b1d3" stroke-width="2" points="322.62,-123.25 322.62,-128.25 321.62,-128.25 321.62,-123.25 322.62,-123.25"/>
<polyline fill="none" stroke="#80b1d3" stroke-width="2" points="323.12,-125.75 320.62,-125.75"/>
</g>
<!-- MTM3401&#45;&gt;MTM3402 -->
<g id="edge14" class="edge">
<title>MTM3401&#45;&gt;MTM3402</title>
<path fill="none" stroke="#8dd3c7" stroke-width="2" d="M282.72,-162.75C317.82,-162.75 358.3,-162.75 358.3,-162.75 358.3,-162.75 358.3,-172.55 358.3,-172.55"/>
<polygon fill="#8dd3c7" stroke="#8dd3c7" stroke-width="2" points="360.8,-174.05 355.8,-174.04 355.8,-173.04 360.8,-173.05 360.8,-174.05"/>
<polyline fill="none" stroke="#8dd3c7" stroke-width="2" points="358.3,-174.55 358.3,-172.05"/>
</g>
<!-- MTM3422 -->
<g id="node19" class="node">
<title>MTM3422</title>
<g id="a_node19"><a xlink:title="Espaços vetoriais sobre C, espaços com produto interno, Gram&#45;Schmidt e a decomposição QR, método dos mínimos quadrados, Teorema de representação de Riesz. Operadores especiais em espaços com produto interno: operadores unitários e isometrias, 23 operadores auto&#45;adjuntos. Autovalores e autovetores, operadores e matrizes diagonalizáveis, Teorema de Cayley&#45;Hamilton, forma canônica de Jordan. Teorema de Schur, Teorema espectral, decomposição em valores singulares.">
<polygon fill="#8dd3c7" stroke="#8dd3c7" points="426,-319.62 322.25,-319.62 322.25,-248.38 426,-248.38 426,-319.62"/>
<text text-anchor="middle" x="374.12" y="-302.32" font-family="Arial" font-size="14.00">MTM3422</text>
<text text-anchor="middle" x="374.12" y="-270.57" font-family="Arial" font-size="14.00">Álgebra Linear</text>
<text text-anchor="middle" x="374.12" y="-254.82" font-family="Arial" font-size="14.00">II</text>
</a>
</g>
</g>
<!-- MTM3421&#45;&gt;MTM3422 -->
<g id="edge16" class="edge">
<title>MTM3421&#45;&gt;MTM3422</title>
<path fill="none" stroke="#8dd3c7" stroke-width="2" d="M284.19,-304C284.19,-304 319.56,-304 319.56,-304"/>
<polygon fill="#8dd3c7" stroke="#8dd3c7" stroke-width="2" points="321.06,-301.5 321.06,-306.5 320.06,-306.5 320.06,-301.5 321.06,-301.5"/>
<polyline fill="none" stroke="#8dd3c7" stroke-width="2" points="321.56,-304 319.06,-304"/>
</g>
<!-- MTM3510&#45;&gt;FSC5002 -->
<!-- MTM3510&#45;&gt;MTM3402 -->
<!-- MTM3510&#45;&gt;MTM3422 -->
<!-- FSC5113 -->
<g id="node20" class="node">
<title>FSC5113</title>
<g id="a_node20"><a xlink:title="Análise dos principais fenômenos da eletricidade e magnetismo abrangendo o estudo de campo elétrico, potencial elétrico, capacitor, corrente elétrica, força eletromotriz, campo magnético e indução eletromagnética.">
<polygon fill="#80b1d3" stroke="#80b1d3" points="568.02,-222.75 467.23,-222.75 467.23,-167.25 568.02,-167.25 568.02,-222.75"/>
<text text-anchor="middle" x="517.62" y="-205.45" font-family="Arial" font-size="14.00">FSC5113</text>
<text text-anchor="middle" x="517.62" y="-173.7" font-family="Arial" font-size="14.00">Física III</text>
</a>
</g>
</g>
<!-- FSC5002&#45;&gt;FSC5113 -->
<g id="edge17" class="edge">
<title>FSC5002&#45;&gt;FSC5113</title>
<path fill="none" stroke="#80b1d3" stroke-width="2" d="M391.3,-156.95C391.3,-164.8 391.3,-171.25 391.3,-171.25 391.3,-171.25 464.47,-171.25 464.47,-171.25"/>
<polygon fill="#80b1d3" stroke="#80b1d3" stroke-width="2" points="465.97,-168.75 465.97,-173.75 464.97,-173.75 464.97,-168.75 465.97,-168.75"/>
<polyline fill="none" stroke="#80b1d3" stroke-width="2" points="466.47,-171.25 463.97,-171.25"/>
</g>
<!-- MTM3402&#45;&gt;FSC5113 -->
<g id="edge18" class="edge">
<title>MTM3402&#45;&gt;FSC5113</title>
<path fill="none" stroke="#80b1d3" stroke-width="2" d="M424.72,-188.82C424.72,-188.82 464.51,-188.82 464.51,-188.82"/>
<polygon fill="#80b1d3" stroke="#80b1d3" stroke-width="2" points="466.01,-186.32 466.01,-191.32 465.01,-191.32 465.01,-186.32 466.01,-186.32"/>
<polyline fill="none" stroke="#80b1d3" stroke-width="2" points="466.51,-188.82 464.01,-188.82"/>
</g>
<!-- MTM3403 -->
<g id="node21" class="node">
<title>MTM3403</title>
<g id="a_node21"><a xlink:title="Funções vetoriais: curvas e caminhos, derivadas direcionais, diferenciação. Máximos e mínimos em funções de várias variáveis. Integrais múltiplas: definição, teorema de Fubini, mudança de variáveis, integrais duplas e triplas e regiões mais gerais, aplicações. Integrais de linha e superfície: definições, campos conservativos, teoremas de Green, Gauss e Stokes.">
<polygon fill="#8dd3c7" stroke="#8dd3c7" points="568.02,-444.75 467.23,-444.75 467.23,-389.25 568.02,-389.25 568.02,-444.75"/>
<text text-anchor="middle" x="517.62" y="-427.45" font-family="Arial" font-size="14.00">MTM3403</text>
<text text-anchor="middle" x="517.62" y="-395.7" font-family="Arial" font-size="14.00">Cálculo III</text>
</a>
</g>
</g>
<!-- MTM3402&#45;&gt;MTM3403 -->
<g id="edge19" class="edge">
<title>MTM3402&#45;&gt;MTM3403</title>
<path fill="none" stroke="#8dd3c7" stroke-width="2" d="M424.75,-209.18C435.82,-209.18 444.3,-209.18 444.3,-209.18 444.3,-209.18 444.3,-407.75 444.3,-407.75 444.3,-407.75 464.6,-407.75 464.6,-407.75"/>
<polygon fill="#8dd3c7" stroke="#8dd3c7" stroke-width="2" points="466.1,-405.25 466.1,-410.25 465.1,-410.25 465.1,-405.25 466.1,-405.25"/>
<polyline fill="none" stroke="#8dd3c7" stroke-width="2" points="466.6,-407.75 464.1,-407.75"/>
</g>
<!-- MTM3430 -->
<g id="node22" class="node">
<title>MTM3430</title>
<g id="a_node22"><a xlink:title="Números reais. Noções topológicas na reta. Sequências e séries numéricas do ponto de vista da análise. Formalização dos conceitos de limites, continuidade e diferenciação para funções reais de uma variável.">
<polygon fill="#8dd3c7" stroke="#8dd3c7" points="573.25,-370.75 462,-370.75 462,-315.25 573.25,-315.25 573.25,-370.75"/>
<text text-anchor="middle" x="517.62" y="-353.45" font-family="Arial" font-size="14.00">MTM3430</text>
<text text-anchor="middle" x="517.62" y="-321.7" font-family="Arial" font-size="14.00">Análise na Reta</text>
</a>
</g>
</g>
<!-- MTM3402&#45;&gt;MTM3430 -->
<g id="edge20" class="edge">
<title>MTM3402&#45;&gt;MTM3430</title>
<path fill="none" stroke="#8dd3c7" stroke-width="2" d="M424.68,-202.39C438.28,-202.39 449.3,-202.39 449.3,-202.39 449.3,-202.39 449.3,-339.62 449.3,-339.62 449.3,-339.62 459.02,-339.62 459.02,-339.62"/>
<polygon fill="#8dd3c7" stroke="#8dd3c7" stroke-width="2" points="460.52,-337.13 460.52,-342.13 459.52,-342.13 459.52,-337.13 460.52,-337.13"/>
<polyline fill="none" stroke="#8dd3c7" stroke-width="2" points="461.02,-339.63 458.52,-339.63"/>
</g>
<!-- MTM3501 -->
<g id="node26" class="node">
<title>MTM3501</title>
<g id="a_node26"><a xlink:title="Métodos de resolução para algumas equações de primeira ordem. Existência, unicidade e dependência contínua com relação a dados iniciais. Métodos para equações de segunda ordem. Sistemas lineares de equações diferenciais. Transformada de Laplace.">
<polygon fill="#8dd3c7" stroke="#8dd3c7" points="713.02,-321.5 612.23,-321.5 612.23,-234.5 713.02,-234.5 713.02,-321.5"/>
<text text-anchor="middle" x="662.62" y="-304.2" font-family="Arial" font-size="14.00">MTM3501</text>
<text text-anchor="middle" x="662.62" y="-272.45" font-family="Arial" font-size="14.00">Equações</text>
<text text-anchor="middle" x="662.62" y="-256.7" font-family="Arial" font-size="14.00">Diferenciais</text>
<text text-anchor="middle" x="662.62" y="-240.95" font-family="Arial" font-size="14.00">Ordinárias</text>
</a>
</g>
</g>
<!-- MTM3402&#45;&gt;MTM3501 -->
<g id="edge24" class="edge">
<title>MTM3402&#45;&gt;MTM3501</title>
<path fill="none" stroke="#8dd3c7" stroke-width="2" d="M424.72,-195.61C440.23,-195.61 453.3,-195.61 453.3,-195.61 453.3,-195.61 453.3,-302.92 453.3,-302.92 453.3,-302.92 609.45,-302.92 609.45,-302.92"/>
<polygon fill="#8dd3c7" stroke="#8dd3c7" stroke-width="2" points="610.95,-300.42 610.95,-305.42 609.95,-305.42 609.95,-300.42 610.95,-300.42"/>
<polyline fill="none" stroke="#8dd3c7" stroke-width="2" points="611.45,-302.92 608.95,-302.92"/>
</g>
<!-- INE5405 -->
<g id="node28" class="node">
<title>INE5405</title>
<g id="a_node28"><a xlink:title="Análise combinatória. Planejamento de uma pesquisa. Análise exploratória de dados. Probabilidade. Variáveis aleatórias discretas e contínuas. Principais modelos teóricos. Estimação de parâmetros. Testes de hipóteses.">
<polygon fill="#fdb462" stroke="#fdb462" points="861.75,-119.62 752,-119.62 752,-48.38 861.75,-48.38 861.75,-119.62"/>
<text text-anchor="middle" x="806.88" y="-102.33" font-family="Arial" font-size="14.00">INE5405</text>
<text text-anchor="middle" x="806.88" y="-70.58" font-family="Arial" font-size="14.00">Probabilidade e</text>
<text text-anchor="middle" x="806.88" y="-54.83" font-family="Arial" font-size="14.00">Estatística</text>
</a>
</g>
</g>
<!-- MTM3402&#45;&gt;INE5405 -->
<g id="edge26" class="edge">
<title>MTM3402&#45;&gt;INE5405</title>
<path fill="none" stroke="#fdb462" stroke-width="2" d="M424.74,-182.04C428.76,-182.04 431.3,-182.04 431.3,-182.04 431.3,-182.04 431.3,-114.38 431.3,-114.38 431.3,-114.38 749.36,-114.38 749.36,-114.38"/>
<polygon fill="#fdb462" stroke="#fdb462" stroke-width="2" points="750.86,-111.88 750.86,-116.88 749.86,-116.88 749.86,-111.88 750.86,-111.88"/>
<polyline fill="none" stroke="#fdb462" stroke-width="2" points="751.36,-114.38 748.86,-114.38"/>
</g>
<!-- MTM3422&#45;&gt;FSC5113 -->
<!-- MTM3422&#45;&gt;MTM3403 -->
<!-- MTM3422&#45;&gt;MTM3430 -->
<!-- MTM3422&#45;&gt;MTM3451 -->
<!-- MTM3520 -->
<g id="node27" class="node">
<title>MTM3520</title>
<g id="a_node27"><a xlink:title="Noções de Hardware e Software. Representação, técnicas de elaboração, estruturas de dados e implementação de programas em linguagem de alto nível. Analisar problemas e elaborar algoritmos para sua solução de forma clara e precisa, usando programação estruturada em linguagem de alto nível. Resolução de problemas relacionados à Álgebra Linear. Introdução ao LATEX.">
<polygon fill="#8dd3c7" stroke="#8dd3c7" points="716,-216.5 609.25,-216.5 609.25,-129.5 716,-129.5 716,-216.5"/>
<text text-anchor="middle" x="662.62" y="-199.2" font-family="Arial" font-size="14.00">MTM3520</text>
<text text-anchor="middle" x="662.62" y="-167.45" font-family="Arial" font-size="14.00">Laboratório de</text>
<text text-anchor="middle" x="662.62" y="-151.7" font-family="Arial" font-size="14.00">Matemática</text>
<text text-anchor="middle" x="662.62" y="-135.95" font-family="Arial" font-size="14.00">Computacional</text>
</a>
</g>
</g>
<!-- MTM3422&#45;&gt;MTM3520 -->
<g id="edge25" class="edge">
<title>MTM3422&#45;&gt;MTM3520</title>
<path fill="none" stroke="#8dd3c7" stroke-width="2" d="M426.27,-267.73C434.47,-267.73 440.3,-267.73 440.3,-267.73 440.3,-267.73 440.3,-159.75 440.3,-159.75 440.3,-159.75 606.31,-159.75 606.31,-159.75"/>
<polygon fill="#8dd3c7" stroke="#8dd3c7" stroke-width="2" points="607.81,-157.25 607.81,-162.25 606.81,-162.25 606.81,-157.25 607.81,-157.25"/>
<polyline fill="none" stroke="#8dd3c7" stroke-width="2" points="608.31,-159.75 605.81,-159.75"/>
</g>
<!-- MTM3524 -->
<g id="node36" class="node">
<title>MTM3524</title>
<g id="a_node36"><a xlink:title="Análise matricial. Decomposição em valores singulares. Sensibilidade de sistemas de equações lineares. Decomposição QR. Métodos para problemas de quadrados mínimos lineares. Métodos iterativos para sistemas lineares.">
<polygon fill="#8dd3c7" stroke="#8dd3c7" points="1141.3,-127.62 1034.55,-127.62 1034.55,-56.38 1141.3,-56.38 1141.3,-127.62"/>
<text text-anchor="middle" x="1087.92" y="-110.33" font-family="Arial" font-size="14.00">MTM3524</text>
<text text-anchor="middle" x="1087.92" y="-78.58" font-family="Arial" font-size="14.00">Álgebra Linear</text>
<text text-anchor="middle" x="1087.92" y="-62.83" font-family="Arial" font-size="14.00">Computacional</text>
</a>
</g>
</g>
<!-- MTM3422&#45;&gt;MTM3524 -->
<g id="edge35" class="edge">
<title>MTM3422&#45;&gt;MTM3524</title>
<path fill="none" stroke="#8dd3c7" stroke-width="2" d="M426.27,-258.05C431.71,-258.05 435.3,-258.05 435.3,-258.05 435.3,-258.05 435.3,-121.62 435.3,-121.62 435.3,-121.62 1031.74,-121.62 1031.74,-121.62"/>
<polygon fill="#8dd3c7" stroke="#8dd3c7" stroke-width="2" points="1033.24,-119.13 1033.24,-124.13 1032.24,-124.13 1032.24,-119.13 1033.24,-119.13"/>
<polyline fill="none" stroke="#8dd3c7" stroke-width="2" points="1033.74,-121.63 1031.24,-121.63"/>
</g>
<!-- MTM3435 -->
<g id="node30" class="node">
<title>MTM3435</title>
<g id="a_node30"><a xlink:title="Números complexos. Sequências no plano complexo. Funções de uma variável complexa. Equações de Cauchy&#45;Riemann. Integração de funções complexas. Teorema de Cauchy. Fórmula integral de Cauchy. Teorema de Cauchy&#45;Goursat. Funções analíticas e séries de potências. Séries de Taylor e Laurent. Teorema dos Resíduos. Cálculo de integrais com resíduos.">
<polygon fill="#8dd3c7" stroke="#8dd3c7" points="857.27,-370.62 756.48,-370.62 756.48,-299.38 857.27,-299.38 857.27,-370.62"/>
<text text-anchor="middle" x="806.88" y="-353.32" font-family="Arial" font-size="14.00">MTM3435</text>
<text text-anchor="middle" x="806.88" y="-321.57" font-family="Arial" font-size="14.00">Variável</text>
<text text-anchor="middle" x="806.88" y="-305.82" font-family="Arial" font-size="14.00">Complexa</text>
</a>
</g>
</g>
<!-- MTM3403&#45;&gt;MTM3435 -->
<g id="edge28" class="edge">
<title>MTM3403&#45;&gt;MTM3435</title>
<path fill="none" stroke="#8dd3c7" stroke-width="2" d="M568.41,-422C651.49,-422 807.3,-422 807.3,-422 807.3,-422 807.3,-373.39 807.3,-373.39"/>
<polygon fill="#8dd3c7" stroke="#8dd3c7" stroke-width="2" points="804.8,-371.89 809.8,-371.89 809.8,-372.89 804.8,-372.89 804.8,-371.89"/>
<polyline fill="none" stroke="#8dd3c7" stroke-width="2" points="807.3,-371.39 807.3,-373.89"/>
</g>
<!-- MTM3482 -->
<g id="node35" class="node">
<title>MTM3482</title>
<g id="a_node35"><a xlink:title="Curvas em R^2 e R^3. Teorema Fundamental das Curvas. Superfícies em R^3. Aplicação Normal de Gauss. Primeira e Segunda Formas Fundamentais. Teorema Egregium de Gauss. Teorema de Gauss&#45;Bonnet e aplicações.">
<polygon fill="#8dd3c7" stroke="#8dd3c7" points="1138.33,-289.62 1037.52,-289.62 1037.52,-218.38 1138.33,-218.38 1138.33,-289.62"/>
<text text-anchor="middle" x="1087.92" y="-272.32" font-family="Arial" font-size="14.00">MTM3482</text>
<text text-anchor="middle" x="1087.92" y="-240.57" font-family="Arial" font-size="14.00">Geometria</text>
<text text-anchor="middle" x="1087.92" y="-224.82" font-family="Arial" font-size="14.00">Diferencial</text>
</a>
</g>
</g>
<!-- MTM3403&#45;&gt;MTM3482 -->
<g id="edge34" class="edge">
<title>MTM3403&#45;&gt;MTM3482</title>
<path fill="none" stroke="#8dd3c7" stroke-width="2" d="M568.52,-433.38C708.39,-433.38 1088.3,-433.38 1088.3,-433.38 1088.3,-433.38 1088.3,-292.37 1088.3,-292.37"/>
<polygon fill="#8dd3c7" stroke="#8dd3c7" stroke-width="2" points="1085.8,-290.87 1090.8,-290.87 1090.8,-291.87 1085.8,-291.87 1085.8,-290.87"/>
<polyline fill="none" stroke="#8dd3c7" stroke-width="2" points="1088.3,-290.37 1088.3,-292.87"/>
</g>
<!-- MTM3490 -->
<g id="node25" class="node">
<title>MTM3490</title>
<g id="a_node25"><a xlink:title="Métrica. Espaços métricos: noções topológicas, sequências, espaços métricos completos, continuidade, continuidade uniforme, compacidade, conexidade.">
<polygon fill="#8dd3c7" stroke="#8dd3c7" points="713.02,-410.62 612.23,-410.62 612.23,-339.38 713.02,-339.38 713.02,-410.62"/>
<text text-anchor="middle" x="662.62" y="-393.32" font-family="Arial" font-size="14.00">MTM3490</text>
<text text-anchor="middle" x="662.62" y="-361.57" font-family="Arial" font-size="14.00">Introdução à</text>
<text text-anchor="middle" x="662.62" y="-345.82" font-family="Arial" font-size="14.00">Topologia</text>
</a>
</g>
</g>
<!-- MTM3430&#45;&gt;MTM3490 -->
<g id="edge23" class="edge">
<title>MTM3430&#45;&gt;MTM3490</title>
<path fill="none" stroke="#8dd3c7" stroke-width="2" d="M573.69,-360.29C573.69,-360.29 609.43,-360.29 609.43,-360.29"/>
<polygon fill="#8dd3c7" stroke="#8dd3c7" stroke-width="2" points="610.93,-357.79 610.93,-362.79 609.93,-362.79 609.93,-357.79 610.93,-357.79"/>
<polyline fill="none" stroke="#8dd3c7" stroke-width="2" points="611.43,-360.29 608.93,-360.29"/>
</g>
<!-- MTM3451&#45;&gt;MTM3452 -->
<!-- MTM3451&#45;&gt;MTM3490 -->
<!-- MTM3451&#45;&gt;MTM3501 -->
<!-- MTM3451&#45;&gt;MTM3520 -->
<!-- MTM3431 -->
<g id="node29" class="node">
<title>MTM3431</title>
<g id="a_node29"><a xlink:title="Espaços euclidianos. Limites, continuidade e diferenciação em Rn do ponto de vista da análise. Sequências e séries de funções em Rn.">
<polygon fill="#8dd3c7" stroke="#8dd3c7" points="857.27,-281.75 756.48,-281.75 756.48,-226.25 857.27,-226.25 857.27,-281.75"/>
<text text-anchor="middle" x="806.88" y="-264.45" font-family="Arial" font-size="14.00">MTM3431</text>
<text text-anchor="middle" x="806.88" y="-232.7" font-family="Arial" font-size="14.00">Análise I</text>
</a>
</g>
</g>
<!-- MTM3490&#45;&gt;MTM3431 -->
<g id="edge27" class="edge">
<title>MTM3490&#45;&gt;MTM3431</title>
<path fill="none" stroke="#8dd3c7" stroke-width="2" d="M713.26,-355C729.47,-355 743.3,-355 743.3,-355 743.3,-355 743.3,-266 743.3,-266 743.3,-266 753.67,-266 753.67,-266"/>
<polygon fill="#8dd3c7" stroke="#8dd3c7" stroke-width="2" points="755.17,-263.5 755.17,-268.5 754.17,-268.5 754.17,-263.5 755.17,-263.5"/>
<polyline fill="none" stroke="#8dd3c7" stroke-width="2" points="755.67,-266 753.17,-266"/>
</g>
<!-- MTM3521 -->
<g id="node31" class="node">
<title>MTM3521</title>
<g id="a_node31"><a xlink:title="Aritmética de ponto flutuante. Zeros de funções reais. Sistemas Lineares. Interpolação Polinomial. Integração Numérica. Quadrados Mínimos lineares. Tratamento Numérico de Equações diferenciais ordinárias.">
<polygon fill="#8dd3c7" stroke="#8dd3c7" points="857.27,-208.62 756.48,-208.62 756.48,-137.38 857.27,-137.38 857.27,-208.62"/>
<text text-anchor="middle" x="806.88" y="-191.32" font-family="Arial" font-size="14.00">MTM3521</text>
<text text-anchor="middle" x="806.88" y="-159.57" font-family="Arial" font-size="14.00">Métodos</text>
<text text-anchor="middle" x="806.88" y="-143.82" font-family="Arial" font-size="14.00">Numéricos</text>
</a>
</g>
</g>
<!-- MTM3501&#45;&gt;MTM3521 -->
<g id="edge29" class="edge">
<title>MTM3501&#45;&gt;MTM3521</title>
<path fill="none" stroke="#8dd3c7" stroke-width="2" d="M713.18,-250.25C725.04,-250.25 734.3,-250.25 734.3,-250.25 734.3,-250.25 734.3,-190.81 734.3,-190.81 734.3,-190.81 753.57,-190.81 753.57,-190.81"/>
<polygon fill="#8dd3c7" stroke="#8dd3c7" stroke-width="2" points="755.07,-188.31 755.07,-193.31 754.07,-193.31 754.07,-188.31 755.07,-188.31"/>
<polyline fill="none" stroke="#8dd3c7" stroke-width="2" points="755.57,-190.81 753.07,-190.81"/>
</g>
<!-- MTM3503 -->
<g id="node33" class="node">
<title>MTM3503</title>
<g id="a_node33"><a xlink:title="Conceitos gerais. Equações lineares com coeficientes constantes. Classificação. EDPs de primeira ordem e método de características. Séries de Fourier (convergência pontual e uniforme). Método de Separação de Variáveis e expansão em autofunções. Equação do calor. Núcleo do Calor. Equação da onda. Velocidade de propagação. Regularidade de soluções. Problemas em domínios não&#45;limitados. A transformada em L1 (Rn) do operador de Laplace. Método de Variação de Parâmetros e Fórmula de Duhamel. Equação de Laplace. Solução Fundamental. Funções de Green para o operador de Laplace. Fórmula de Poisson.">
<polygon fill="#8dd3c7" stroke="#8dd3c7" points="998.55,-379.5 897.75,-379.5 897.75,-292.5 998.55,-292.5 998.55,-379.5"/>
<text text-anchor="middle" x="948.15" y="-362.2" font-family="Arial" font-size="14.00">MTM3503</text>
<text text-anchor="middle" x="948.15" y="-330.45" font-family="Arial" font-size="14.00">Equações</text>
<text text-anchor="middle" x="948.15" y="-314.7" font-family="Arial" font-size="14.00">Diferenciais</text>
<text text-anchor="middle" x="948.15" y="-298.95" font-family="Arial" font-size="14.00">Parciais</text>
</a>
</g>
</g>
<!-- MTM3501&#45;&gt;MTM3503 -->
<g id="edge33" class="edge">
<title>MTM3501&#45;&gt;MTM3503</title>
<path fill="none" stroke="#8dd3c7" stroke-width="2" d="M713.35,-285.69C791.47,-285.69 932.3,-285.69 932.3,-285.69 932.3,-285.69 932.3,-289.76 932.3,-289.76"/>
<polygon fill="#8dd3c7" stroke="#8dd3c7" stroke-width="2" points="934.8,-291.27 929.8,-291.26 929.8,-290.26 934.8,-290.27 934.8,-291.27"/>
<polyline fill="none" stroke="#8dd3c7" stroke-width="2" points="932.3,-291.76 932.3,-289.26"/>
</g>
<!-- MTM3520&#45;&gt;INE5405 -->
<!-- MTM3520&#45;&gt;MTM3431 -->
<!-- MTM3520&#45;&gt;MTM3435 -->
<!-- MTM3520&#45;&gt;MTM3521 -->
<g id="edge30" class="edge">
<title>MTM3520&#45;&gt;MTM3521</title>
<path fill="none" stroke="#8dd3c7" stroke-width="2" d="M716.34,-155.19C716.34,-155.19 753.49,-155.19 753.49,-155.19"/>
<polygon fill="#8dd3c7" stroke="#8dd3c7" stroke-width="2" points="754.99,-152.69 754.99,-157.69 753.99,-157.69 753.99,-152.69 754.99,-152.69"/>
<polyline fill="none" stroke="#8dd3c7" stroke-width="2" points="755.49,-155.19 752.99,-155.19"/>
</g>
<!-- MTM3520&#45;&gt;MTM3521 -->
<!-- MTM3432 -->
<g id="node32" class="node">
<title>MTM3432</title>
<g id="a_node32"><a xlink:title="Integral de Riemann de funções de várias variáveis. Medida de Lebesgue. Teoremas de convergência para integrais de Lebesgue. Espaços Lp.">
<polygon fill="#8dd3c7" stroke="#8dd3c7" points="998.55,-274.75 897.75,-274.75 897.75,-219.25 998.55,-219.25 998.55,-274.75"/>
<text text-anchor="middle" x="948.15" y="-257.45" font-family="Arial" font-size="14.00">MTM3432</text>
<text text-anchor="middle" x="948.15" y="-225.7" font-family="Arial" font-size="14.00">Análise II</text>
</a>
</g>
</g>
<!-- MTM3431&#45;&gt;MTM3432 -->
<g id="edge31" class="edge">
<title>MTM3431&#45;&gt;MTM3432</title>
<path fill="none" stroke="#8dd3c7" stroke-width="2" d="M857.48,-250.5C857.48,-250.5 894.92,-250.5 894.92,-250.5"/>
<polygon fill="#8dd3c7" stroke="#8dd3c7" stroke-width="2" points="896.42,-248 896.42,-253 895.42,-253 895.42,-248 896.42,-248"/>
<polyline fill="none" stroke="#8dd3c7" stroke-width="2" points="896.92,-250.5 894.42,-250.5"/>
</g>
<!-- MTM3431&#45;&gt;MTM3503 -->
<g id="edge32" class="edge">
<title>MTM3431&#45;&gt;MTM3503</title>
<path fill="none" stroke="#8dd3c7" stroke-width="2" d="M857.44,-278.25C903.8,-278.25 965.3,-278.25 965.3,-278.25 965.3,-278.25 965.3,-289.73 965.3,-289.73"/>
<polygon fill="#8dd3c7" stroke="#8dd3c7" stroke-width="2" points="967.8,-291.23 962.8,-291.23 962.8,-290.23 967.8,-290.23 967.8,-291.23"/>
<polyline fill="none" stroke="#8dd3c7" stroke-width="2" points="965.3,-291.73 965.3,-289.23"/>
</g>
<!-- MTM3521&#45;&gt;MTM3432 -->
<!-- MTM3521&#45;&gt;MTM3503 -->
<!-- MTM3597 -->
<g id="node34" class="node">
<title>MTM3597</title>
<g id="a_node34"><a xlink:title="Elaboração e análise do projeto de pesquisa; Orientação teórico&#45;metodológica para execução da pesquisa.">
<polygon fill="#fb8072" stroke="#fb8072" points="998.55,-200.75 897.75,-200.75 897.75,-145.25 998.55,-145.25 998.55,-200.75"/>
<text text-anchor="middle" x="948.15" y="-183.45" font-family="Arial" font-size="14.00">MTM3597</text>
<text text-anchor="middle" x="948.15" y="-151.7" font-family="Arial" font-size="14.00">TCC I</text>
</a>
</g>
</g>
<!-- MTM3521&#45;&gt;MTM3597 -->
<!-- MTM3521&#45;&gt;MTM3524 -->
<g id="edge36" class="edge">
<title>MTM3521&#45;&gt;MTM3524</title>
<path fill="none" stroke="#8dd3c7" stroke-width="2" d="M807.3,-137.12C807.3,-129.46 807.3,-123.62 807.3,-123.62 807.3,-123.62 1031.65,-123.62 1031.65,-123.62"/>
<polygon fill="#8dd3c7" stroke="#8dd3c7" stroke-width="2" points="1033.15,-121.13 1033.15,-126.13 1032.15,-126.13 1032.15,-121.13 1033.15,-121.13"/>
<polyline fill="none" stroke="#8dd3c7" stroke-width="2" points="1033.65,-123.63 1031.15,-123.63"/>
</g>
<!-- MTM3597&#45;&gt;MTM3482 -->
<!-- MTM3597&#45;&gt;MTM3524 -->
<!-- MTM3598 -->
<g id="node37" class="node">
<title>MTM3598</title>
<g id="a_node37"><a xlink:title="Elaboração e análise do projeto de pesquisa; Orientação teórico&#45;metodológica para execução da pesquisa.">
<polygon fill="#fb8072" stroke="#fb8072" points="1138.33,-200.75 1037.52,-200.75 1037.52,-145.25 1138.33,-145.25 1138.33,-200.75"/>
<text text-anchor="middle" x="1087.92" y="-183.45" font-family="Arial" font-size="14.00">MTM3598</text>
<text text-anchor="middle" x="1087.92" y="-151.7" font-family="Arial" font-size="14.00">TCC II</text>
</a>
</g>
</g>
<!-- MTM3597&#45;&gt;MTM3598 -->
<g id="edge37" class="edge">
<title>MTM3597&#45;&gt;MTM3598</title>
<path fill="none" stroke="#fb8072" stroke-width="2" d="M999.01,-173C999.01,-173 1034.84,-173 1034.84,-173"/>
<polygon fill="#fb8072" stroke="#fb8072" stroke-width="2" points="1036.34,-170.5 1036.34,-175.5 1035.34,-175.5 1035.34,-170.5 1036.34,-170.5"/>
<polyline fill="none" stroke="#fb8072" stroke-width="2" points="1036.84,-173 1034.34,-173"/>
</g>
<!-- MTM3597&#45;&gt;MTM3598 -->
</g>
</svg>
