<?xml version="1.0" encoding="UTF-8" standalone="no"?>
<!DOCTYPE svg PUBLIC "-//W3C//DTD SVG 1.1//EN"
 "http://www.w3.org/Graphics/SVG/1.1/DTD/svg11.dtd">
<!-- Generated by graphviz version 9.0.0 (0)
 -->
<!-- Title: grafo_materias Pages: 1 -->
<svg width="1177pt" height="746pt"
 viewBox="0.00 0.00 1177.10 746.00" xmlns="http://www.w3.org/2000/svg" xmlns:xlink="http://www.w3.org/1999/xlink">
<g id="graph0" class="graph" transform="scale(1 1) rotate(0) translate(4 742)">
<title>grafo_materias</title>
<polygon fill="none" stroke="none" points="-4,4 -4,-742 1173.1,-742 1173.1,4 -4,4"/>
<g id="clust1" class="cluster">
<title>cluster_everything</title>
<polygon fill="none" stroke="none" points="8,-8 8,-730 1161.1,-730 1161.1,-8 8,-8"/>
</g>
<g id="clust2" class="cluster">
<title>cluster_header</title>
<polygon fill="none" stroke="none" points="20.47,-670 20.47,-722 1153.1,-722 1153.1,-670 20.47,-670"/>
</g>
<g id="clust3" class="cluster">
<title>cluster_0</title>
<polygon fill="none" stroke="none" points="16,-29 16,-457 141.75,-457 141.75,-29 16,-29"/>
</g>
<g id="clust4" class="cluster">
<title>cluster_1</title>
<polygon fill="none" stroke="none" points="161.75,-212 161.75,-656 278.55,-656 278.55,-212 161.75,-212"/>
</g>
<g id="clust5" class="cluster">
<title>cluster_2</title>
<polygon fill="none" stroke="none" points="298.55,-89 298.55,-565 425.8,-565 425.8,-89 298.55,-89"/>
</g>
<g id="clust6" class="cluster">
<title>cluster_3</title>
<polygon fill="none" stroke="none" points="445.8,-16 445.8,-628 585.05,-628 585.05,-16 445.8,-16"/>
</g>
<g id="clust7" class="cluster">
<title>cluster_4</title>
<polygon fill="none" stroke="none" points="605.05,-121 605.05,-597 732.3,-597 732.3,-121 605.05,-121"/>
</g>
<g id="clust8" class="cluster">
<title>cluster_5</title>
<polygon fill="none" stroke="none" points="752.3,-110 752.3,-602 877.3,-602 877.3,-110 752.3,-110"/>
</g>
<g id="clust9" class="cluster">
<title>cluster_6</title>
<polygon fill="none" stroke="none" points="897.3,-110 897.3,-602 1016.3,-602 1016.3,-110 897.3,-110"/>
</g>
<g id="clust10" class="cluster">
<title>cluster_7</title>
<polygon fill="none" stroke="none" points="1036.3,-21 1036.3,-554 1153.1,-554 1153.1,-21 1036.3,-21"/>
</g>
<!-- Fase 01 -->
<g id="node1" class="node">
<title>Fase 01</title>
<polygon fill="lightgrey" stroke="black" points="129.28,-714 28.48,-714 28.48,-678 129.28,-678 129.28,-714"/>
<text text-anchor="middle" x="78.88" y="-690.58" font-family="Arial" font-size="14.00">Fase 01</text>
</g>
<!-- Fase 02 -->
<g id="node2" class="node">
<title>Fase 02</title>
<polygon fill="lightgrey" stroke="black" points="270.55,-714 169.75,-714 169.75,-678 270.55,-678 270.55,-714"/>
<text text-anchor="middle" x="220.15" y="-690.58" font-family="Arial" font-size="14.00">Fase 02</text>
</g>
<!-- Fase 01&#45;&gt;Fase 02 -->
<!-- Fase 03 -->
<g id="node3" class="node">
<title>Fase 03</title>
<polygon fill="lightgrey" stroke="black" points="412.57,-714 311.77,-714 311.77,-678 412.57,-678 412.57,-714"/>
<text text-anchor="middle" x="362.17" y="-690.58" font-family="Arial" font-size="14.00">Fase 03</text>
</g>
<!-- Fase 02&#45;&gt;Fase 03 -->
<!-- Fase 04 -->
<g id="node4" class="node">
<title>Fase 04</title>
<polygon fill="lightgrey" stroke="black" points="565.82,-714 465.02,-714 465.02,-678 565.82,-678 565.82,-714"/>
<text text-anchor="middle" x="515.42" y="-690.58" font-family="Arial" font-size="14.00">Fase 04</text>
</g>
<!-- Fase 03&#45;&gt;Fase 04 -->
<!-- Fase 05 -->
<g id="node5" class="node">
<title>Fase 05</title>
<polygon fill="lightgrey" stroke="black" points="719.07,-714 618.27,-714 618.27,-678 719.07,-678 719.07,-714"/>
<text text-anchor="middle" x="668.67" y="-690.58" font-family="Arial" font-size="14.00">Fase 05</text>
</g>
<!-- Fase 04&#45;&gt;Fase 05 -->
<!-- Fase 06 -->
<g id="node6" class="node">
<title>Fase 06</title>
<polygon fill="lightgrey" stroke="black" points="865.2,-714 764.4,-714 764.4,-678 865.2,-678 865.2,-714"/>
<text text-anchor="middle" x="814.8" y="-690.58" font-family="Arial" font-size="14.00">Fase 06</text>
</g>
<!-- Fase 05&#45;&gt;Fase 06 -->
<!-- Fase 07 -->
<g id="node7" class="node">
<title>Fase 07</title>
<polygon fill="lightgrey" stroke="black" points="1007.2,-714 906.4,-714 906.4,-678 1007.2,-678 1007.2,-714"/>
<text text-anchor="middle" x="956.8" y="-690.58" font-family="Arial" font-size="14.00">Fase 07</text>
</g>
<!-- Fase 06&#45;&gt;Fase 07 -->
<!-- Fase 08 -->
<g id="node8" class="node">
<title>Fase 08</title>
<polygon fill="lightgrey" stroke="black" points="1145.1,-714 1044.3,-714 1044.3,-678 1145.1,-678 1145.1,-714"/>
<text text-anchor="middle" x="1094.7" y="-690.58" font-family="Arial" font-size="14.00">Fase 08</text>
</g>
<!-- Fase 07&#45;&gt;Fase 08 -->
<!-- CAD5103 -->
<g id="node9" class="node">
<title>CAD5103</title>
<g id="a_node9"><a xlink:title="Origem da administração como ciência. As funções administrativas: planejamento, organização, coordenação, comando e controle.">
<polygon fill="#8dd3c7" stroke="#8dd3c7" points="133.75,-448.75 24,-448.75 24,-393.25 133.75,-393.25 133.75,-448.75"/>
<text text-anchor="middle" x="78.88" y="-431.45" font-family="Arial" font-size="14.00">CAD5103</text>
<text text-anchor="middle" x="78.88" y="-399.7" font-family="Arial" font-size="14.00">Administração I</text>
</a>
</g>
</g>
<!-- CCN6001 -->
<g id="node14" class="node">
<title>CCN6001</title>
<polygon fill="#80b1d3" stroke="#80b1d3" points="270.55,-291.62 169.75,-291.62 169.75,-220.38 270.55,-220.38 270.55,-291.62"/>
<text text-anchor="middle" x="220.15" y="-274.32" font-family="Arial" font-size="14.00">CCN6001</text>
<text text-anchor="middle" x="220.15" y="-242.57" font-family="Arial" font-size="14.00">Contabilidade</text>
<text text-anchor="middle" x="220.15" y="-226.82" font-family="Arial" font-size="14.00">Introdutória II</text>
</g>
<!-- CAD5103&#45;&gt;CCN6001 -->
<!-- CNM5145 -->
<g id="node15" class="node">
<title>CNM5145</title>
<g id="a_node15"><a xlink:title="Conceitos básicos. Funções de demanda e oferta. Elasticidade: preço e renda. As teorias de demanda cardinal e ordinal. A teoria da firma. As funções de produção e de custos. O mercado perfeito e os mercados imperfeitos na formação do preço. As contas nacionais. As funções consumo e poupança. A função investimento. A demanda e a oferta monetária. O equilíbrio nos mercados real e monetário.">
<polygon fill="#8dd3c7" stroke="#8dd3c7" points="270.55,-380.62 169.75,-380.62 169.75,-309.38 270.55,-309.38 270.55,-380.62"/>
<text text-anchor="middle" x="220.15" y="-363.32" font-family="Arial" font-size="14.00">CNM5145</text>
<text text-anchor="middle" x="220.15" y="-331.57" font-family="Arial" font-size="14.00">Teoria</text>
<text text-anchor="middle" x="220.15" y="-315.82" font-family="Arial" font-size="14.00">Econômica</text>
</a>
</g>
</g>
<!-- CAD5103&#45;&gt;CNM5145 -->
<!-- DIR5991 -->
<g id="node16" class="node">
<title>DIR5991</title>
<g id="a_node16"><a xlink:title="Finanças Públicas e Direito Financeiro. Direito Tributário. Classificação jurídica dos tributos. Sistema Tributário Nacional. Normas gerais de Direito Tributário. Processo Administrativo Tributário. Tributos Federais, Tributos Estaduais e Tributos Municipais.">
<polygon fill="#fdb462" stroke="#fdb462" points="270.55,-647.62 169.75,-647.62 169.75,-576.38 270.55,-576.38 270.55,-647.62"/>
<text text-anchor="middle" x="220.15" y="-630.33" font-family="Arial" font-size="14.00">DIR5991</text>
<text text-anchor="middle" x="220.15" y="-598.58" font-family="Arial" font-size="14.00">Legislação</text>
<text text-anchor="middle" x="220.15" y="-582.83" font-family="Arial" font-size="14.00">Tributária</text>
</a>
</g>
</g>
<!-- CAD5103&#45;&gt;DIR5991 -->
<!-- INE6010 -->
<g id="node17" class="node">
<title>INE6010</title>
<g id="a_node17"><a xlink:title="Estatística descritiva (distribuições de frequências, apresentações em tabelas e gráficos, medidas de posição central, dispersão e assimetria). Probabilidade e distribuições de probabilidade. Amostragem. Inferência Estatística: amostragem e estimação. Inferência estatística: testes de hipóteses e intervalos de confiança. Análise de correlação e regressão linear simples.">
<polygon fill="#80b1d3" stroke="#80b1d3" points="270.55,-558.62 169.75,-558.62 169.75,-487.38 270.55,-487.38 270.55,-558.62"/>
<text text-anchor="middle" x="220.15" y="-541.33" font-family="Arial" font-size="14.00">INE6010</text>
<text text-anchor="middle" x="220.15" y="-509.57" font-family="Arial" font-size="14.00">Métodos</text>
<text text-anchor="middle" x="220.15" y="-493.82" font-family="Arial" font-size="14.00">Estatísticos</text>
</a>
</g>
</g>
<!-- CAD5103&#45;&gt;INE6010 -->
<!-- MTM3561 -->
<g id="node18" class="node">
<title>MTM3561</title>
<g id="a_node18"><a xlink:title="Juros e Descontos: Simples e Composto. Taxas. Rendas. Amortização de dívidas.">
<polygon fill="#fb8072" stroke="#fb8072" points="270.55,-469.62 169.75,-469.62 169.75,-398.38 270.55,-398.38 270.55,-469.62"/>
<text text-anchor="middle" x="220.15" y="-452.32" font-family="Arial" font-size="14.00">MTM3561</text>
<text text-anchor="middle" x="220.15" y="-420.57" font-family="Arial" font-size="14.00">Matemática</text>
<text text-anchor="middle" x="220.15" y="-404.82" font-family="Arial" font-size="14.00">Financeira</text>
</a>
</g>
</g>
<!-- CAD5103&#45;&gt;MTM3561 -->
<!-- CCN6000 -->
<g id="node10" class="node">
<title>CCN6000</title>
<polygon fill="#80b1d3" stroke="#80b1d3" points="129.28,-375.62 28.48,-375.62 28.48,-304.38 129.28,-304.38 129.28,-375.62"/>
<text text-anchor="middle" x="78.88" y="-358.32" font-family="Arial" font-size="14.00">CCN6000</text>
<text text-anchor="middle" x="78.88" y="-326.57" font-family="Arial" font-size="14.00">Contabilidade</text>
<text text-anchor="middle" x="78.88" y="-310.82" font-family="Arial" font-size="14.00">Introdutória I</text>
</g>
<!-- CCN6000&#45;&gt;CCN6001 -->
<g id="edge8" class="edge">
<title>CCN6000&#45;&gt;CCN6001</title>
<path fill="none" stroke="#80b1d3" stroke-width="2" d="M129.48,-331.46C137.44,-331.46 143.1,-331.46 143.1,-331.46 143.1,-331.46 143.1,-242.46 143.1,-242.46 143.1,-242.46 167.12,-242.46 167.12,-242.46"/>
<polygon fill="#80b1d3" stroke="#80b1d3" stroke-width="2" points="168.62,-239.96 168.62,-244.96 167.62,-244.96 167.62,-239.96 168.62,-239.96"/>
<polyline fill="none" stroke="#80b1d3" stroke-width="2" points="169.12,-242.46 166.62,-242.46"/>
</g>
<!-- DIR6010 -->
<g id="node11" class="node">
<title>DIR6010</title>
<polygon fill="#fdb462" stroke="#fdb462" points="129.28,-286.62 28.48,-286.62 28.48,-215.38 129.28,-215.38 129.28,-286.62"/>
<text text-anchor="middle" x="78.88" y="-269.32" font-family="Arial" font-size="14.00">DIR6010</text>
<text text-anchor="middle" x="78.88" y="-237.57" font-family="Arial" font-size="14.00">Direito</text>
<text text-anchor="middle" x="78.88" y="-221.82" font-family="Arial" font-size="14.00">Empresarial</text>
</g>
<!-- FIL5109 -->
<g id="node12" class="node">
<title>FIL5109</title>
<g id="a_node12"><a xlink:title="Fundamentos da Eticidade e escolas filosóficas que os interpretam. Questões éticas numa organização. O caráter ético e político da conduta profissional.">
<polygon fill="#ffffb3" stroke="#ffffb3" points="129.28,-197.5 28.48,-197.5 28.48,-110.5 129.28,-110.5 129.28,-197.5"/>
<text text-anchor="middle" x="78.88" y="-180.2" font-family="Arial" font-size="14.00">FIL5109</text>
<text text-anchor="middle" x="78.88" y="-148.45" font-family="Arial" font-size="14.00">Ética e</text>
<text text-anchor="middle" x="78.88" y="-132.7" font-family="Arial" font-size="14.00">Filosofia</text>
<text text-anchor="middle" x="78.88" y="-116.95" font-family="Arial" font-size="14.00">Política</text>
</a>
</g>
</g>
<!-- MTM3100 -->
<g id="node13" class="node">
<title>MTM3100</title>
<g id="a_node13"><a xlink:title="Conjuntos e aritmética básica; Cálculo com expressões algébricas; equações; inequações; funções.">
<polygon fill="#fb8072" stroke="#fb8072" points="129.28,-92.75 28.48,-92.75 28.48,-37.25 129.28,-37.25 129.28,-92.75"/>
<text text-anchor="middle" x="78.88" y="-75.45" font-family="Arial" font-size="14.00">MTM3100</text>
<text text-anchor="middle" x="78.88" y="-43.7" font-family="Arial" font-size="14.00">Pré&#45;Cálculo</text>
</a>
</g>
</g>
<!-- CCN6002 -->
<g id="node19" class="node">
<title>CCN6002</title>
<polygon fill="#80b1d3" stroke="#80b1d3" points="413.67,-168.62 310.67,-168.62 310.67,-97.38 413.67,-97.38 413.67,-168.62"/>
<text text-anchor="middle" x="362.17" y="-151.32" font-family="Arial" font-size="14.00">CCN6002</text>
<text text-anchor="middle" x="362.17" y="-119.58" font-family="Arial" font-size="14.00">Contabilidade</text>
<text text-anchor="middle" x="362.17" y="-103.83" font-family="Arial" font-size="14.00">Intermediária I</text>
</g>
<!-- CCN6001&#45;&gt;CCN6002 -->
<g id="edge9" class="edge">
<title>CCN6001&#45;&gt;CCN6002</title>
<path fill="none" stroke="#80b1d3" stroke-width="2" d="M221.1,-220.2C221.1,-182.91 221.1,-129.88 221.1,-129.88 221.1,-129.88 307.94,-129.88 307.94,-129.88"/>
<polygon fill="#80b1d3" stroke="#80b1d3" stroke-width="2" points="309.44,-127.38 309.45,-132.38 308.45,-132.38 308.44,-127.38 309.44,-127.38"/>
<polyline fill="none" stroke="#80b1d3" stroke-width="2" points="309.94,-129.88 307.44,-129.88"/>
</g>
<!-- CCN6009 -->
<g id="node28" class="node">
<title>CCN6009</title>
<polygon fill="#80b1d3" stroke="#80b1d3" points="577.05,-499.5 453.8,-499.5 453.8,-412.5 577.05,-412.5 577.05,-499.5"/>
<text text-anchor="middle" x="515.42" y="-482.2" font-family="Arial" font-size="14.00">CCN6009</text>
<text text-anchor="middle" x="515.42" y="-450.45" font-family="Arial" font-size="14.00">Contabilidade e</text>
<text text-anchor="middle" x="515.42" y="-434.7" font-family="Arial" font-size="14.00">Responsabilidade</text>
<text text-anchor="middle" x="515.42" y="-418.95" font-family="Arial" font-size="14.00">Socioambiental</text>
</g>
<!-- CCN6001&#45;&gt;CCN6009 -->
<g id="edge16" class="edge">
<title>CCN6001&#45;&gt;CCN6009</title>
<path fill="none" stroke="#80b1d3" stroke-width="2" d="M221.1,-291.77C221.1,-293.67 221.1,-294.81 221.1,-294.81 221.1,-294.81 462.1,-294.81 462.1,-294.81 462.1,-294.81 462.1,-409.88 462.1,-409.88"/>
<polygon fill="#80b1d3" stroke="#80b1d3" stroke-width="2" points="464.6,-411.38 459.6,-411.38 459.6,-410.38 464.6,-410.38 464.6,-411.38"/>
<polyline fill="none" stroke="#80b1d3" stroke-width="2" points="462.1,-411.88 462.1,-409.38"/>
</g>
<!-- CCN6008 -->
<g id="node27" class="node">
<title>CCN6008</title>
<polygon fill="#80b1d3" stroke="#80b1d3" points="568.05,-620.38 462.8,-620.38 462.8,-517.62 568.05,-517.62 568.05,-620.38"/>
<text text-anchor="middle" x="515.42" y="-603.08" font-family="Arial" font-size="14.00">CCN6008</text>
<text text-anchor="middle" x="515.42" y="-571.33" font-family="Arial" font-size="14.00">Tributação das</text>
<text text-anchor="middle" x="515.42" y="-555.58" font-family="Arial" font-size="14.00">Empresas</text>
<text text-anchor="middle" x="515.42" y="-539.83" font-family="Arial" font-size="14.00">Comerciais e</text>
<text text-anchor="middle" x="515.42" y="-524.08" font-family="Arial" font-size="14.00">Industriais</text>
</g>
<!-- DIR5991&#45;&gt;CCN6008 -->
<g id="edge15" class="edge">
<title>DIR5991&#45;&gt;CCN6008</title>
<path fill="none" stroke="#80b1d3" stroke-width="2" d="M270.91,-598.38C270.91,-598.38 459.84,-598.38 459.84,-598.38"/>
<polygon fill="#80b1d3" stroke="#80b1d3" stroke-width="2" points="461.34,-595.88 461.34,-600.88 460.34,-600.88 460.34,-595.88 461.34,-595.88"/>
<polyline fill="none" stroke="#80b1d3" stroke-width="2" points="461.84,-598.38 459.34,-598.38"/>
</g>
<!-- CCN6012 -->
<g id="node32" class="node">
<title>CCN6012</title>
<polygon fill="#80b1d3" stroke="#80b1d3" points="719.07,-588.62 618.27,-588.62 618.27,-517.38 719.07,-517.38 719.07,-588.62"/>
<text text-anchor="middle" x="668.67" y="-571.33" font-family="Arial" font-size="14.00">CCN6012</text>
<text text-anchor="middle" x="668.67" y="-539.58" font-family="Arial" font-size="14.00">Contabilidade</text>
<text text-anchor="middle" x="668.67" y="-523.83" font-family="Arial" font-size="14.00">Tributária</text>
</g>
<!-- DIR5991&#45;&gt;CCN6012 -->
<g id="edge19" class="edge">
<title>DIR5991&#45;&gt;CCN6012</title>
<path fill="none" stroke="#80b1d3" stroke-width="2" d="M270.78,-638.54C388.19,-638.54 669.1,-638.54 669.1,-638.54 669.1,-638.54 669.1,-591.28 669.1,-591.28"/>
<polygon fill="#80b1d3" stroke="#80b1d3" stroke-width="2" points="666.6,-589.78 671.6,-589.78 671.6,-590.78 666.6,-590.78 666.6,-589.78"/>
<polyline fill="none" stroke="#80b1d3" stroke-width="2" points="669.1,-589.28 669.1,-591.78"/>
</g>
<!-- CCN6014 -->
<g id="node34" class="node">
<title>CCN6014</title>
<polygon fill="#80b1d3" stroke="#80b1d3" points="719.07,-499.5 618.27,-499.5 618.27,-412.5 719.07,-412.5 719.07,-499.5"/>
<text text-anchor="middle" x="668.67" y="-482.2" font-family="Arial" font-size="14.00">CCN6014</text>
<text text-anchor="middle" x="668.67" y="-450.45" font-family="Arial" font-size="14.00">Tributação na</text>
<text text-anchor="middle" x="668.67" y="-434.7" font-family="Arial" font-size="14.00">Prestação de</text>
<text text-anchor="middle" x="668.67" y="-418.95" font-family="Arial" font-size="14.00">Serviços</text>
</g>
<!-- DIR5991&#45;&gt;CCN6014 -->
<g id="edge21" class="edge">
<title>DIR5991&#45;&gt;CCN6014</title>
<path fill="none" stroke="#80b1d3" stroke-width="2" d="M271,-629.46C370.89,-629.46 583.1,-629.46 583.1,-629.46 583.1,-629.46 583.1,-470.5 583.1,-470.5 583.1,-470.5 615.41,-470.5 615.41,-470.5"/>
<polygon fill="#80b1d3" stroke="#80b1d3" stroke-width="2" points="616.91,-468 616.91,-473 615.91,-473 615.91,-468 616.91,-468"/>
<polyline fill="none" stroke="#80b1d3" stroke-width="2" points="617.41,-470.5 614.91,-470.5"/>
</g>
<!-- CCN6005 -->
<g id="node21" class="node">
<title>CCN6005</title>
<g id="a_node21"><a xlink:title="Introdução à Contabilometria. Amostragem. Bancos de dados. Teste de Hipóteses. Ferramentas de análise multivariada para tomada de decisão. Técnicas de Interdependência: Análise de clusters; Análise de correspondência; Análise de homogeneidade. Técnicas de Dependência: Regressão simples e múltipla; Regressão Logística e Painel.">
<polygon fill="#80b1d3" stroke="#80b1d3" points="417.8,-556.75 306.55,-556.75 306.55,-501.25 417.8,-501.25 417.8,-556.75"/>
<text text-anchor="middle" x="362.17" y="-539.45" font-family="Arial" font-size="14.00">CCN6005</text>
<text text-anchor="middle" x="362.17" y="-507.7" font-family="Arial" font-size="14.00">Contabilometria</text>
</a>
</g>
</g>
<!-- INE6010&#45;&gt;CCN6005 -->
<g id="edge11" class="edge">
<title>INE6010&#45;&gt;CCN6005</title>
<path fill="none" stroke="#80b1d3" stroke-width="2" d="M271.02,-538.25C271.02,-538.25 303.86,-538.25 303.86,-538.25"/>
<polygon fill="#80b1d3" stroke="#80b1d3" stroke-width="2" points="305.36,-535.75 305.36,-540.75 304.36,-540.75 304.36,-535.75 305.36,-535.75"/>
<polyline fill="none" stroke="#80b1d3" stroke-width="2" points="305.86,-538.25 303.36,-538.25"/>
</g>
<!-- MTM3561&#45;&gt;CCN6002 -->
<!-- CCN6004 -->
<g id="node20" class="node">
<title>CCN6004</title>
<polygon fill="#80b1d3" stroke="#80b1d3" points="412.57,-289.38 311.77,-289.38 311.77,-186.62 412.57,-186.62 412.57,-289.38"/>
<text text-anchor="middle" x="362.17" y="-272.07" font-family="Arial" font-size="14.00">CCN6004</text>
<text text-anchor="middle" x="362.17" y="-240.32" font-family="Arial" font-size="14.00">Matemática</text>
<text text-anchor="middle" x="362.17" y="-224.57" font-family="Arial" font-size="14.00">Financeira</text>
<text text-anchor="middle" x="362.17" y="-208.82" font-family="Arial" font-size="14.00">aplicada a</text>
<text text-anchor="middle" x="362.17" y="-193.07" font-family="Arial" font-size="14.00">Contabilidade</text>
</g>
<!-- MTM3561&#45;&gt;CCN6004 -->
<g id="edge10" class="edge">
<title>MTM3561&#45;&gt;CCN6004</title>
<path fill="none" stroke="#80b1d3" stroke-width="2" d="M271.01,-404.73C279.22,-404.73 285.1,-404.73 285.1,-404.73 285.1,-404.73 285.1,-243.38 285.1,-243.38 285.1,-243.38 309.12,-243.38 309.12,-243.38"/>
<polygon fill="#80b1d3" stroke="#80b1d3" stroke-width="2" points="310.62,-240.88 310.62,-245.88 309.62,-245.88 309.62,-240.88 310.62,-240.88"/>
<polyline fill="none" stroke="#80b1d3" stroke-width="2" points="311.12,-243.38 308.62,-243.38"/>
</g>
<!-- MTM3561&#45;&gt;CCN6004 -->
<!-- MTM3561&#45;&gt;CCN6005 -->
<!-- CNM5305 -->
<g id="node22" class="node">
<title>CNM5305</title>
<g id="a_node22"><a xlink:title="Poupança. Ativos Financeiros. Sistemas Financeiro Nacional. Sociedades Anônimas. Investimento no Mercado de Capitais. Análise de balanço. Desenvolvimento econômico e mercado de capitais">
<polygon fill="#8dd3c7" stroke="#8dd3c7" points="412.57,-483.62 311.77,-483.62 311.77,-412.38 412.57,-412.38 412.57,-483.62"/>
<text text-anchor="middle" x="362.17" y="-466.32" font-family="Arial" font-size="14.00">CNM5305</text>
<text text-anchor="middle" x="362.17" y="-434.57" font-family="Arial" font-size="14.00">Mercado de</text>
<text text-anchor="middle" x="362.17" y="-418.82" font-family="Arial" font-size="14.00">Capitais</text>
</a>
</g>
</g>
<!-- MTM3561&#45;&gt;CNM5305 -->
<!-- DIR5972 -->
<g id="node23" class="node">
<title>DIR5972</title>
<g id="a_node23"><a xlink:title="1. Noções gerais sobre o Direito do trabalho. 2. Empregado. 3. Empregador. 4. Contrato do trabalho e relações de trabalho. 5. Salário e remuneração. 6. Estabilidade e garantias de emprego. 7. Extinção do contrato de trabalho. 8. Acidente de trabalho. 9. Direito processual do trabalho. 10. Direito Previdenciário">
<polygon fill="#fdb462" stroke="#fdb462" points="412.92,-394.5 311.42,-394.5 311.42,-307.5 412.92,-307.5 412.92,-394.5"/>
<text text-anchor="middle" x="362.17" y="-377.2" font-family="Arial" font-size="14.00">DIR5972</text>
<text text-anchor="middle" x="362.17" y="-345.45" font-family="Arial" font-size="14.00">Legislação</text>
<text text-anchor="middle" x="362.17" y="-329.7" font-family="Arial" font-size="14.00">Social e</text>
<text text-anchor="middle" x="362.17" y="-313.95" font-family="Arial" font-size="14.00">Previdenciária</text>
</a>
</g>
</g>
<!-- MTM3561&#45;&gt;DIR5972 -->
<!-- CCN6003 -->
<g id="node24" class="node">
<title>CCN6003</title>
<polygon fill="#80b1d3" stroke="#80b1d3" points="565.82,-289.5 465.02,-289.5 465.02,-202.5 565.82,-202.5 565.82,-289.5"/>
<text text-anchor="middle" x="515.42" y="-272.2" font-family="Arial" font-size="14.00">CCN6003</text>
<text text-anchor="middle" x="515.42" y="-240.45" font-family="Arial" font-size="14.00">Contabilidade</text>
<text text-anchor="middle" x="515.42" y="-224.7" font-family="Arial" font-size="14.00">Intermediária</text>
<text text-anchor="middle" x="515.42" y="-208.95" font-family="Arial" font-size="14.00">II</text>
</g>
<!-- CCN6002&#45;&gt;CCN6003 -->
<g id="edge12" class="edge">
<title>CCN6002&#45;&gt;CCN6003</title>
<path fill="none" stroke="#80b1d3" stroke-width="2" d="M414.15,-150.21C429.41,-150.21 442.1,-150.21 442.1,-150.21 442.1,-150.21 442.1,-231.46 442.1,-231.46 442.1,-231.46 462.4,-231.46 462.4,-231.46"/>
<polygon fill="#80b1d3" stroke="#80b1d3" stroke-width="2" points="463.9,-228.96 463.9,-233.96 462.9,-233.96 462.9,-228.96 463.9,-228.96"/>
<polyline fill="none" stroke="#80b1d3" stroke-width="2" points="464.4,-231.46 461.9,-231.46"/>
</g>
<!-- CCN6006 -->
<g id="node25" class="node">
<title>CCN6006</title>
<polygon fill="#80b1d3" stroke="#80b1d3" points="565.82,-95.62 465.02,-95.62 465.02,-24.38 565.82,-24.38 565.82,-95.62"/>
<text text-anchor="middle" x="515.42" y="-78.33" font-family="Arial" font-size="14.00">CCN6006</text>
<text text-anchor="middle" x="515.42" y="-46.58" font-family="Arial" font-size="14.00">Contabilidade</text>
<text text-anchor="middle" x="515.42" y="-30.82" font-family="Arial" font-size="14.00">de Custos</text>
</g>
<!-- CCN6002&#45;&gt;CCN6006 -->
<g id="edge13" class="edge">
<title>CCN6002&#45;&gt;CCN6006</title>
<path fill="none" stroke="#80b1d3" stroke-width="2" d="M413.86,-109.12C458.57,-109.12 516.1,-109.12 516.1,-109.12 516.1,-109.12 516.1,-98.46 516.1,-98.46"/>
<polygon fill="#80b1d3" stroke="#80b1d3" stroke-width="2" points="513.6,-96.96 518.6,-96.96 518.6,-97.96 513.6,-97.96 513.6,-96.96"/>
<polyline fill="none" stroke="#80b1d3" stroke-width="2" points="516.1,-96.46 516.1,-98.96"/>
</g>
<!-- CCN6007 -->
<g id="node26" class="node">
<title>CCN6007</title>
<polygon fill="#80b1d3" stroke="#80b1d3" points="565.82,-184.62 465.02,-184.62 465.02,-113.38 565.82,-113.38 565.82,-184.62"/>
<text text-anchor="middle" x="515.42" y="-167.32" font-family="Arial" font-size="14.00">CCN6007</text>
<text text-anchor="middle" x="515.42" y="-135.57" font-family="Arial" font-size="14.00">Teoria da</text>
<text text-anchor="middle" x="515.42" y="-119.83" font-family="Arial" font-size="14.00">Contabilidade</text>
</g>
<!-- CCN6002&#45;&gt;CCN6007 -->
<g id="edge14" class="edge">
<title>CCN6002&#45;&gt;CCN6007</title>
<path fill="none" stroke="#80b1d3" stroke-width="2" d="M414.06,-131.79C414.06,-131.79 462.13,-131.79 462.13,-131.79"/>
<polygon fill="#80b1d3" stroke="#80b1d3" stroke-width="2" points="463.63,-129.29 463.63,-134.29 462.63,-134.29 462.63,-129.29 463.63,-129.29"/>
<polyline fill="none" stroke="#80b1d3" stroke-width="2" points="464.13,-131.79 461.63,-131.79"/>
</g>
<!-- DIR5972&#45;&gt;CCN6003 -->
<!-- DIR5972&#45;&gt;CCN6006 -->
<!-- DIR5972&#45;&gt;CCN6007 -->
<!-- DIR5972&#45;&gt;CCN6008 -->
<!-- DIR5972&#45;&gt;CCN6009 -->
<!-- LLV7801 -->
<g id="node29" class="node">
<title>LLV7801</title>
<g id="a_node29"><a xlink:title="Estudo e produção de textos técnico&#45;científicos relevantes para o desempenho das atividades acadêmicas, tais como: resumo, resenha, artigo e seminário. Prática pedagógica.">
<polygon fill="#fdb462" stroke="#fdb462" points="565.82,-394.5 465.02,-394.5 465.02,-307.5 565.82,-307.5 565.82,-394.5"/>
<text text-anchor="middle" x="515.42" y="-377.2" font-family="Arial" font-size="14.00">LLV7801</text>
<text text-anchor="middle" x="515.42" y="-345.45" font-family="Arial" font-size="14.00">Produção</text>
<text text-anchor="middle" x="515.42" y="-329.7" font-family="Arial" font-size="14.00">Textual</text>
<text text-anchor="middle" x="515.42" y="-313.95" font-family="Arial" font-size="14.00">Acadêmica</text>
</a>
</g>
</g>
<!-- DIR5972&#45;&gt;LLV7801 -->
<!-- CCN6010 -->
<g id="node30" class="node">
<title>CCN6010</title>
<polygon fill="#80b1d3" stroke="#80b1d3" points="723.55,-289.62 613.8,-289.62 613.8,-218.38 723.55,-218.38 723.55,-289.62"/>
<text text-anchor="middle" x="668.67" y="-272.32" font-family="Arial" font-size="14.00">CCN6010</text>
<text text-anchor="middle" x="668.67" y="-240.57" font-family="Arial" font-size="14.00">Contabilidade e</text>
<text text-anchor="middle" x="668.67" y="-224.82" font-family="Arial" font-size="14.00">Finanças</text>
</g>
<!-- CCN6003&#45;&gt;CCN6010 -->
<g id="edge17" class="edge">
<title>CCN6003&#45;&gt;CCN6010</title>
<path fill="none" stroke="#80b1d3" stroke-width="2" d="M566.03,-236.16C566.03,-236.16 610.87,-236.16 610.87,-236.16"/>
<polygon fill="#80b1d3" stroke="#80b1d3" stroke-width="2" points="612.37,-233.66 612.37,-238.66 611.37,-238.66 611.37,-233.66 612.37,-233.66"/>
<polyline fill="none" stroke="#80b1d3" stroke-width="2" points="612.87,-236.16 610.37,-236.16"/>
</g>
<!-- CCN6013 -->
<g id="node33" class="node">
<title>CCN6013</title>
<polygon fill="#80b1d3" stroke="#80b1d3" points="724.3,-394.5 613.05,-394.5 613.05,-307.5 724.3,-307.5 724.3,-394.5"/>
<text text-anchor="middle" x="668.67" y="-377.2" font-family="Arial" font-size="14.00">CCN6013</text>
<text text-anchor="middle" x="668.67" y="-345.45" font-family="Arial" font-size="14.00">Análise das</text>
<text text-anchor="middle" x="668.67" y="-329.7" font-family="Arial" font-size="14.00">Demonstrações</text>
<text text-anchor="middle" x="668.67" y="-313.95" font-family="Arial" font-size="14.00">Contábeis</text>
</g>
<!-- CCN6003&#45;&gt;CCN6013 -->
<g id="edge20" class="edge">
<title>CCN6003&#45;&gt;CCN6013</title>
<path fill="none" stroke="#80b1d3" stroke-width="2" d="M566.25,-253.94C584.7,-253.94 601.1,-253.94 601.1,-253.94 601.1,-253.94 601.1,-332.36 601.1,-332.36 601.1,-332.36 610.06,-332.36 610.06,-332.36"/>
<polygon fill="#80b1d3" stroke="#80b1d3" stroke-width="2" points="611.56,-329.86 611.56,-334.86 610.56,-334.86 610.56,-329.86 611.56,-329.86"/>
<polyline fill="none" stroke="#80b1d3" stroke-width="2" points="612.06,-332.36 609.56,-332.36"/>
</g>
<!-- CCN6029 -->
<g id="node49" class="node">
<title>CCN6029</title>
<polygon fill="#80b1d3" stroke="#80b1d3" points="1145.1,-100.62 1044.3,-100.62 1044.3,-29.38 1145.1,-29.38 1145.1,-100.62"/>
<text text-anchor="middle" x="1094.7" y="-83.33" font-family="Arial" font-size="14.00">CCN6029</text>
<text text-anchor="middle" x="1094.7" y="-51.58" font-family="Arial" font-size="14.00">Perícia</text>
<text text-anchor="middle" x="1094.7" y="-35.83" font-family="Arial" font-size="14.00">Contábil</text>
</g>
<!-- CCN6003&#45;&gt;CCN6029 -->
<g id="edge38" class="edge">
<title>CCN6003&#45;&gt;CCN6029</title>
<path fill="none" stroke="#80b1d3" stroke-width="2" d="M566.17,-213C568.63,-213 570.1,-213 570.1,-213 570.1,-213 570.1,-45.94 570.1,-45.94 570.1,-45.94 1041.42,-45.94 1041.42,-45.94"/>
<polygon fill="#80b1d3" stroke="#80b1d3" stroke-width="2" points="1042.92,-43.44 1042.92,-48.44 1041.92,-48.44 1041.92,-43.44 1042.92,-43.44"/>
<polyline fill="none" stroke="#80b1d3" stroke-width="2" points="1043.42,-45.94 1040.92,-45.94"/>
</g>
<!-- CCN6011 -->
<g id="node31" class="node">
<title>CCN6011</title>
<polygon fill="#80b1d3" stroke="#80b1d3" points="719.07,-200.62 618.27,-200.62 618.27,-129.38 719.07,-129.38 719.07,-200.62"/>
<text text-anchor="middle" x="668.67" y="-183.32" font-family="Arial" font-size="14.00">CCN6011</text>
<text text-anchor="middle" x="668.67" y="-151.57" font-family="Arial" font-size="14.00">Análise de</text>
<text text-anchor="middle" x="668.67" y="-135.82" font-family="Arial" font-size="14.00">Custos</text>
</g>
<!-- CCN6006&#45;&gt;CCN6011 -->
<g id="edge18" class="edge">
<title>CCN6006&#45;&gt;CCN6011</title>
<path fill="none" stroke="#80b1d3" stroke-width="2" d="M566.17,-79.06C610.93,-79.06 669.1,-79.06 669.1,-79.06 669.1,-79.06 669.1,-126.55 669.1,-126.55"/>
<polygon fill="#80b1d3" stroke="#80b1d3" stroke-width="2" points="671.6,-128.05 666.6,-128.05 666.6,-127.05 671.6,-127.05 671.6,-128.05"/>
<polyline fill="none" stroke="#80b1d3" stroke-width="2" points="669.1,-128.55 669.1,-126.05"/>
</g>
<!-- CCN6027 -->
<g id="node47" class="node">
<title>CCN6027</title>
<polygon fill="#80b1d3" stroke="#80b1d3" points="1145.1,-545.62 1044.3,-545.62 1044.3,-474.38 1145.1,-474.38 1145.1,-545.62"/>
<text text-anchor="middle" x="1094.7" y="-528.33" font-family="Arial" font-size="14.00">CCN6027</text>
<text text-anchor="middle" x="1094.7" y="-496.57" font-family="Arial" font-size="14.00">Planejamento</text>
<text text-anchor="middle" x="1094.7" y="-480.82" font-family="Arial" font-size="14.00">Tributário</text>
</g>
<!-- CCN6008&#45;&gt;CCN6027 -->
<g id="edge34" class="edge">
<title>CCN6008&#45;&gt;CCN6027</title>
<path fill="none" stroke="#80b1d3" stroke-width="2" d="M568.4,-606.94C711.5,-606.94 1095.1,-606.94 1095.1,-606.94 1095.1,-606.94 1095.1,-548.6 1095.1,-548.6"/>
<polygon fill="#80b1d3" stroke="#80b1d3" stroke-width="2" points="1092.6,-547.1 1097.6,-547.1 1097.6,-548.1 1092.6,-548.1 1092.6,-547.1"/>
<polyline fill="none" stroke="#80b1d3" stroke-width="2" points="1095.1,-546.6 1095.1,-549.1"/>
</g>
<!-- LLV7801&#45;&gt;CCN6010 -->
<!-- LLV7801&#45;&gt;CCN6011 -->
<!-- LLV7801&#45;&gt;CCN6012 -->
<!-- LLV7801&#45;&gt;CCN6013 -->
<!-- LLV7801&#45;&gt;CCN6014 -->
<!-- CCN6020 -->
<g id="node39" class="node">
<title>CCN6020</title>
<polygon fill="#80b1d3" stroke="#80b1d3" points="869.3,-310.38 760.3,-310.38 760.3,-207.62 869.3,-207.62 869.3,-310.38"/>
<text text-anchor="middle" x="814.8" y="-293.07" font-family="Arial" font-size="14.00">CCN6020</text>
<text text-anchor="middle" x="814.8" y="-261.32" font-family="Arial" font-size="14.00">Metodologia da</text>
<text text-anchor="middle" x="814.8" y="-245.57" font-family="Arial" font-size="14.00">Pesquisa</text>
<text text-anchor="middle" x="814.8" y="-229.82" font-family="Arial" font-size="14.00">Aplicada à</text>
<text text-anchor="middle" x="814.8" y="-214.07" font-family="Arial" font-size="14.00">Contabilidade</text>
</g>
<!-- LLV7801&#45;&gt;CCN6020 -->
<g id="edge26" class="edge">
<title>LLV7801&#45;&gt;CCN6020</title>
<path fill="none" stroke="#80b1d3" stroke-width="2" d="M516.1,-307.23C516.1,-301.74 516.1,-298 516.1,-298 516.1,-298 757.51,-298 757.51,-298"/>
<polygon fill="#80b1d3" stroke="#80b1d3" stroke-width="2" points="759.01,-295.5 759.01,-300.5 758.01,-300.5 758.01,-295.5 759.01,-295.5"/>
<polyline fill="none" stroke="#80b1d3" stroke-width="2" points="759.51,-298 757.01,-298"/>
</g>
<!-- CCN6015 -->
<g id="node35" class="node">
<title>CCN6015</title>
<polygon fill="#80b1d3" stroke="#80b1d3" points="865.2,-399.62 764.4,-399.62 764.4,-328.38 865.2,-328.38 865.2,-399.62"/>
<text text-anchor="middle" x="814.8" y="-382.32" font-family="Arial" font-size="14.00">CCN6015</text>
<text text-anchor="middle" x="814.8" y="-350.57" font-family="Arial" font-size="14.00">Contabilidade</text>
<text text-anchor="middle" x="814.8" y="-334.82" font-family="Arial" font-size="14.00">Avançada</text>
</g>
<!-- CCN6010&#45;&gt;CCN6015 -->
<g id="edge22" class="edge">
<title>CCN6010&#45;&gt;CCN6015</title>
<path fill="none" stroke="#80b1d3" stroke-width="2" d="M723.89,-254C738.41,-254 750.1,-254 750.1,-254 750.1,-254 750.1,-344.91 750.1,-344.91 750.1,-344.91 761.64,-344.91 761.64,-344.91"/>
<polygon fill="#80b1d3" stroke="#80b1d3" stroke-width="2" points="763.14,-342.41 763.14,-347.41 762.14,-347.41 762.14,-342.41 763.14,-342.41"/>
<polyline fill="none" stroke="#80b1d3" stroke-width="2" points="763.64,-344.91 761.14,-344.91"/>
</g>
<!-- CCN6016 -->
<g id="node36" class="node">
<title>CCN6016</title>
<polygon fill="#80b1d3" stroke="#80b1d3" points="865.2,-189.62 764.4,-189.62 764.4,-118.38 865.2,-118.38 865.2,-189.62"/>
<text text-anchor="middle" x="814.8" y="-172.32" font-family="Arial" font-size="14.00">CCN6016</text>
<text text-anchor="middle" x="814.8" y="-140.57" font-family="Arial" font-size="14.00">Contabilidade</text>
<text text-anchor="middle" x="814.8" y="-124.83" font-family="Arial" font-size="14.00">Gerencial</text>
</g>
<!-- CCN6011&#45;&gt;CCN6016 -->
<g id="edge23" class="edge">
<title>CCN6011&#45;&gt;CCN6016</title>
<path fill="none" stroke="#80b1d3" stroke-width="2" d="M719.37,-149.46C719.37,-149.46 761.69,-149.46 761.69,-149.46"/>
<polygon fill="#80b1d3" stroke="#80b1d3" stroke-width="2" points="763.19,-146.96 763.19,-151.96 762.19,-151.96 762.19,-146.96 763.19,-146.96"/>
<polyline fill="none" stroke="#80b1d3" stroke-width="2" points="763.69,-149.46 761.19,-149.46"/>
</g>
<!-- CCN6017 -->
<g id="node37" class="node">
<title>CCN6017</title>
<polygon fill="#80b1d3" stroke="#80b1d3" points="866.3,-593.5 763.3,-593.5 763.3,-506.5 866.3,-506.5 866.3,-593.5"/>
<text text-anchor="middle" x="814.8" y="-576.2" font-family="Arial" font-size="14.00">CCN6017</text>
<text text-anchor="middle" x="814.8" y="-544.45" font-family="Arial" font-size="14.00">Laboratório de</text>
<text text-anchor="middle" x="814.8" y="-528.7" font-family="Arial" font-size="14.00">Prática</text>
<text text-anchor="middle" x="814.8" y="-512.95" font-family="Arial" font-size="14.00">Contábil</text>
</g>
<!-- CCN6012&#45;&gt;CCN6017 -->
<g id="edge24" class="edge">
<title>CCN6012&#45;&gt;CCN6017</title>
<path fill="none" stroke="#80b1d3" stroke-width="2" d="M719.37,-564.88C719.37,-564.88 760.7,-564.88 760.7,-564.88"/>
<polygon fill="#80b1d3" stroke="#80b1d3" stroke-width="2" points="762.2,-562.38 762.2,-567.38 761.2,-567.38 761.2,-562.38 762.2,-562.38"/>
<polyline fill="none" stroke="#80b1d3" stroke-width="2" points="762.7,-564.88 760.2,-564.88"/>
</g>
<!-- CCN6012&#45;&gt;CCN6027 -->
<g id="edge35" class="edge">
<title>CCN6012&#45;&gt;CCN6027</title>
<path fill="none" stroke="#80b1d3" stroke-width="2" d="M719.4,-541.12C725.77,-541.12 730.1,-541.12 730.1,-541.12 730.1,-541.12 730.1,-495.88 730.1,-495.88 730.1,-495.88 1041.5,-495.88 1041.5,-495.88"/>
<polygon fill="#80b1d3" stroke="#80b1d3" stroke-width="2" points="1043,-493.38 1043,-498.38 1042,-498.38 1042,-493.38 1043,-493.38"/>
<polyline fill="none" stroke="#80b1d3" stroke-width="2" points="1043.5,-495.88 1041,-495.88"/>
</g>
<!-- CCN6018 -->
<g id="node38" class="node">
<title>CCN6018</title>
<polygon fill="#80b1d3" stroke="#80b1d3" points="865.2,-488.62 764.4,-488.62 764.4,-417.38 865.2,-417.38 865.2,-488.62"/>
<text text-anchor="middle" x="814.8" y="-471.32" font-family="Arial" font-size="14.00">CCN6018</text>
<text text-anchor="middle" x="814.8" y="-439.57" font-family="Arial" font-size="14.00">Contabilidade</text>
<text text-anchor="middle" x="814.8" y="-423.82" font-family="Arial" font-size="14.00">Pública I</text>
</g>
<!-- CCN6013&#45;&gt;CCN6018 -->
<g id="edge25" class="edge">
<title>CCN6013&#45;&gt;CCN6018</title>
<path fill="none" stroke="#80b1d3" stroke-width="2" d="M724.62,-361.44C736.27,-361.44 745.1,-361.44 745.1,-361.44 745.1,-361.44 745.1,-453 745.1,-453 745.1,-453 761.65,-453 761.65,-453"/>
<polygon fill="#80b1d3" stroke="#80b1d3" stroke-width="2" points="763.15,-450.5 763.15,-455.5 762.15,-455.5 762.15,-450.5 763.15,-450.5"/>
<polyline fill="none" stroke="#80b1d3" stroke-width="2" points="763.65,-453 761.15,-453"/>
</g>
<!-- CCN6014&#45;&gt;CCN6015 -->
<!-- CCN6014&#45;&gt;CCN6016 -->
<!-- CCN6014&#45;&gt;CCN6017 -->
<!-- CCN6014&#45;&gt;CCN6018 -->
<!-- CCN6014&#45;&gt;CCN6020 -->
<!-- CCN6014&#45;&gt;CCN6027 -->
<g id="edge36" class="edge">
<title>CCN6014&#45;&gt;CCN6027</title>
<path fill="none" stroke="#80b1d3" stroke-width="2" d="M719.22,-492.25C719.22,-492.25 1041.39,-492.25 1041.39,-492.25"/>
<polygon fill="#80b1d3" stroke="#80b1d3" stroke-width="2" points="1042.89,-489.75 1042.89,-494.75 1041.89,-494.75 1041.89,-489.75 1042.89,-489.75"/>
<polyline fill="none" stroke="#80b1d3" stroke-width="2" points="1043.39,-492.25 1040.89,-492.25"/>
</g>
<!-- CCN6021 -->
<g id="node41" class="node">
<title>CCN6021</title>
<polygon fill="#80b1d3" stroke="#80b1d3" points="1007.2,-399.62 906.4,-399.62 906.4,-328.38 1007.2,-328.38 1007.2,-399.62"/>
<text text-anchor="middle" x="956.8" y="-382.32" font-family="Arial" font-size="14.00">CCN6021</text>
<text text-anchor="middle" x="956.8" y="-350.57" font-family="Arial" font-size="14.00">Auditoria</text>
<text text-anchor="middle" x="956.8" y="-334.82" font-family="Arial" font-size="14.00">Contábil I</text>
</g>
<!-- CCN6015&#45;&gt;CCN6021 -->
<g id="edge28" class="edge">
<title>CCN6015&#45;&gt;CCN6021</title>
<path fill="none" stroke="#80b1d3" stroke-width="2" d="M865.66,-375.88C865.66,-375.88 903.79,-375.88 903.79,-375.88"/>
<polygon fill="#80b1d3" stroke="#80b1d3" stroke-width="2" points="905.29,-373.38 905.29,-378.38 904.29,-378.38 904.29,-373.38 905.29,-373.38"/>
<polyline fill="none" stroke="#80b1d3" stroke-width="2" points="905.79,-375.88 903.29,-375.88"/>
</g>
<!-- CCN6023 -->
<g id="node42" class="node">
<title>CCN6023</title>
<polygon fill="#80b1d3" stroke="#80b1d3" points="1007.2,-189.62 906.4,-189.62 906.4,-118.38 1007.2,-118.38 1007.2,-189.62"/>
<text text-anchor="middle" x="956.8" y="-172.32" font-family="Arial" font-size="14.00">CCN6023</text>
<text text-anchor="middle" x="956.8" y="-140.57" font-family="Arial" font-size="14.00">Simulação</text>
<text text-anchor="middle" x="956.8" y="-124.83" font-family="Arial" font-size="14.00">Gerencial I</text>
</g>
<!-- CCN6016&#45;&gt;CCN6023 -->
<g id="edge29" class="edge">
<title>CCN6016&#45;&gt;CCN6023</title>
<path fill="none" stroke="#80b1d3" stroke-width="2" d="M865.66,-142.12C865.66,-142.12 903.79,-142.12 903.79,-142.12"/>
<polygon fill="#80b1d3" stroke="#80b1d3" stroke-width="2" points="905.29,-139.63 905.29,-144.63 904.29,-144.63 904.29,-139.63 905.29,-139.63"/>
<polyline fill="none" stroke="#80b1d3" stroke-width="2" points="905.79,-142.13 903.29,-142.13"/>
</g>
<!-- CCN6028 -->
<g id="node48" class="node">
<title>CCN6028</title>
<polygon fill="#80b1d3" stroke="#80b1d3" points="1145.1,-173.75 1044.3,-173.75 1044.3,-118.25 1145.1,-118.25 1145.1,-173.75"/>
<text text-anchor="middle" x="1094.7" y="-156.45" font-family="Arial" font-size="14.00">CCN6028</text>
<text text-anchor="middle" x="1094.7" y="-124.7" font-family="Arial" font-size="14.00">Controladoria</text>
</g>
<!-- CCN6016&#45;&gt;CCN6028 -->
<g id="edge37" class="edge">
<title>CCN6016&#45;&gt;CCN6028</title>
<path fill="none" stroke="#80b1d3" stroke-width="2" d="M815.1,-118.04C815.1,-110.55 815.1,-104.88 815.1,-104.88 815.1,-104.88 1095.1,-104.88 1095.1,-104.88 1095.1,-104.88 1095.1,-115.39 1095.1,-115.39"/>
<polygon fill="#80b1d3" stroke="#80b1d3" stroke-width="2" points="1097.6,-116.89 1092.6,-116.89 1092.6,-115.89 1097.6,-115.89 1097.6,-116.89"/>
<polyline fill="none" stroke="#80b1d3" stroke-width="2" points="1095.1,-117.39 1095.1,-114.89"/>
</g>
<!-- CCN6025 -->
<g id="node43" class="node">
<title>CCN6025</title>
<polygon fill="#80b1d3" stroke="#80b1d3" points="1007.2,-593.5 906.4,-593.5 906.4,-506.5 1007.2,-506.5 1007.2,-593.5"/>
<text text-anchor="middle" x="956.8" y="-576.2" font-family="Arial" font-size="14.00">CCN6025</text>
<text text-anchor="middle" x="956.8" y="-544.45" font-family="Arial" font-size="14.00">Sistema de</text>
<text text-anchor="middle" x="956.8" y="-528.7" font-family="Arial" font-size="14.00">Informação</text>
<text text-anchor="middle" x="956.8" y="-512.95" font-family="Arial" font-size="14.00">Contábil</text>
</g>
<!-- CCN6017&#45;&gt;CCN6025 -->
<g id="edge30" class="edge">
<title>CCN6017&#45;&gt;CCN6025</title>
<path fill="none" stroke="#80b1d3" stroke-width="2" d="M866.47,-564.5C866.47,-564.5 903.86,-564.5 903.86,-564.5"/>
<polygon fill="#80b1d3" stroke="#80b1d3" stroke-width="2" points="905.36,-562 905.36,-567 904.36,-567 904.36,-562 905.36,-562"/>
<polyline fill="none" stroke="#80b1d3" stroke-width="2" points="905.86,-564.5 903.36,-564.5"/>
</g>
<!-- CCN6019 -->
<g id="node40" class="node">
<title>CCN6019</title>
<polygon fill="#80b1d3" stroke="#80b1d3" points="1007.2,-488.62 906.4,-488.62 906.4,-417.38 1007.2,-417.38 1007.2,-488.62"/>
<text text-anchor="middle" x="956.8" y="-471.32" font-family="Arial" font-size="14.00">CCN6019</text>
<text text-anchor="middle" x="956.8" y="-439.57" font-family="Arial" font-size="14.00">Contabilidade</text>
<text text-anchor="middle" x="956.8" y="-423.82" font-family="Arial" font-size="14.00">Pública II</text>
</g>
<!-- CCN6018&#45;&gt;CCN6019 -->
<g id="edge27" class="edge">
<title>CCN6018&#45;&gt;CCN6019</title>
<path fill="none" stroke="#80b1d3" stroke-width="2" d="M865.66,-464.88C865.66,-464.88 903.79,-464.88 903.79,-464.88"/>
<polygon fill="#80b1d3" stroke="#80b1d3" stroke-width="2" points="905.29,-462.38 905.29,-467.38 904.29,-467.38 904.29,-462.38 905.29,-462.38"/>
<polyline fill="none" stroke="#80b1d3" stroke-width="2" points="905.79,-464.88 903.29,-464.88"/>
</g>
<!-- CCN6020&#45;&gt;CCN6019 -->
<!-- CCN6020&#45;&gt;CCN6021 -->
<!-- CCN6020&#45;&gt;CCN6023 -->
<!-- CCN6020&#45;&gt;CCN6025 -->
<!-- CCN6026 -->
<g id="node44" class="node">
<title>CCN6026</title>
<polygon fill="#80b1d3" stroke="#80b1d3" points="1008.3,-310.38 905.3,-310.38 905.3,-207.62 1008.3,-207.62 1008.3,-310.38"/>
<text text-anchor="middle" x="956.8" y="-293.07" font-family="Arial" font-size="14.00">CCN6026</text>
<text text-anchor="middle" x="956.8" y="-261.32" font-family="Arial" font-size="14.00">Técnicas de</text>
<text text-anchor="middle" x="956.8" y="-245.57" font-family="Arial" font-size="14.00">Elaboração de</text>
<text text-anchor="middle" x="956.8" y="-229.82" font-family="Arial" font-size="14.00">Projeto de</text>
<text text-anchor="middle" x="956.8" y="-214.07" font-family="Arial" font-size="14.00">Pesquisa</text>
</g>
<!-- CCN6020&#45;&gt;CCN6026 -->
<g id="edge31" class="edge">
<title>CCN6020&#45;&gt;CCN6026</title>
<path fill="none" stroke="#80b1d3" stroke-width="2" d="M869.7,-236.98C869.7,-236.98 902.34,-236.98 902.34,-236.98"/>
<polygon fill="#80b1d3" stroke="#80b1d3" stroke-width="2" points="903.84,-234.48 903.84,-239.48 902.84,-239.48 902.84,-234.48 903.84,-234.48"/>
<polyline fill="none" stroke="#80b1d3" stroke-width="2" points="904.34,-236.98 901.84,-236.98"/>
</g>
<!-- CCN6020&#45;&gt;CCN6026 -->
<!-- CCN6022 -->
<g id="node45" class="node">
<title>CCN6022</title>
<polygon fill="#80b1d3" stroke="#80b1d3" points="1145.1,-456.62 1044.3,-456.62 1044.3,-385.38 1145.1,-385.38 1145.1,-456.62"/>
<text text-anchor="middle" x="1094.7" y="-439.32" font-family="Arial" font-size="14.00">CCN6022</text>
<text text-anchor="middle" x="1094.7" y="-407.57" font-family="Arial" font-size="14.00">Auditoria</text>
<text text-anchor="middle" x="1094.7" y="-391.82" font-family="Arial" font-size="14.00">Contábil II</text>
</g>
<!-- CCN6021&#45;&gt;CCN6022 -->
<g id="edge32" class="edge">
<title>CCN6021&#45;&gt;CCN6022</title>
<path fill="none" stroke="#80b1d3" stroke-width="2" d="M1007.37,-394.88C1007.37,-394.88 1041.64,-394.88 1041.64,-394.88"/>
<polygon fill="#80b1d3" stroke="#80b1d3" stroke-width="2" points="1043.14,-392.38 1043.14,-397.38 1042.14,-397.38 1042.14,-392.38 1043.14,-392.38"/>
<polyline fill="none" stroke="#80b1d3" stroke-width="2" points="1043.64,-394.88 1041.14,-394.88"/>
</g>
<!-- CCN6024 -->
<g id="node46" class="node">
<title>CCN6024</title>
<polygon fill="#80b1d3" stroke="#80b1d3" points="1145.1,-262.62 1044.3,-262.62 1044.3,-191.38 1145.1,-191.38 1145.1,-262.62"/>
<text text-anchor="middle" x="1094.7" y="-245.32" font-family="Arial" font-size="14.00">CCN6024</text>
<text text-anchor="middle" x="1094.7" y="-213.57" font-family="Arial" font-size="14.00">Simulação</text>
<text text-anchor="middle" x="1094.7" y="-197.82" font-family="Arial" font-size="14.00">Gerencial II</text>
</g>
<!-- CCN6023&#45;&gt;CCN6024 -->
<g id="edge33" class="edge">
<title>CCN6023&#45;&gt;CCN6024</title>
<path fill="none" stroke="#80b1d3" stroke-width="2" d="M957.1,-189.8C957.1,-193.54 957.1,-196 957.1,-196 957.1,-196 1041.35,-196 1041.35,-196"/>
<polygon fill="#80b1d3" stroke="#80b1d3" stroke-width="2" points="1042.85,-193.5 1042.85,-198.5 1041.85,-198.5 1041.85,-193.5 1042.85,-193.5"/>
<polyline fill="none" stroke="#80b1d3" stroke-width="2" points="1043.35,-196 1040.85,-196"/>
</g>
<!-- CCN6026&#45;&gt;CCN6022 -->
<!-- CCN6026&#45;&gt;CCN6024 -->
<!-- CCN6026&#45;&gt;CCN6027 -->
<!-- CCN6026&#45;&gt;CCN6028 -->
<!-- CCN6026&#45;&gt;CCN6029 -->
<!-- CCN6030 -->
<g id="node50" class="node">
<title>CCN6030</title>
<polygon fill="#fb8072" stroke="#fb8072" points="1145.1,-367.5 1044.3,-367.5 1044.3,-280.5 1145.1,-280.5 1145.1,-367.5"/>
<text text-anchor="middle" x="1094.7" y="-350.2" font-family="Arial" font-size="14.00">CCN6030</text>
<text text-anchor="middle" x="1094.7" y="-318.45" font-family="Arial" font-size="14.00">Trabalho de</text>
<text text-anchor="middle" x="1094.7" y="-302.7" font-family="Arial" font-size="14.00">Conclusão de</text>
<text text-anchor="middle" x="1094.7" y="-286.95" font-family="Arial" font-size="14.00">Curso &#45; TCC</text>
</g>
<!-- CCN6026&#45;&gt;CCN6030 -->
<g id="edge39" class="edge">
<title>CCN6026&#45;&gt;CCN6030</title>
<path fill="none" stroke="#fb8072" stroke-width="2" d="M1008.54,-286.48C1008.54,-286.48 1041.54,-286.48 1041.54,-286.48"/>
<polygon fill="#fb8072" stroke="#fb8072" stroke-width="2" points="1043.04,-283.98 1043.04,-288.98 1042.04,-288.98 1042.04,-283.98 1043.04,-283.98"/>
<polyline fill="none" stroke="#fb8072" stroke-width="2" points="1043.54,-286.48 1041.04,-286.48"/>
</g>
<!-- CCN6026&#45;&gt;CCN6030 -->
</g>
</svg>
