<?xml version="1.0" encoding="UTF-8" standalone="no"?>
<!DOCTYPE svg PUBLIC "-//W3C//DTD SVG 1.1//EN"
 "http://www.w3.org/Graphics/SVG/1.1/DTD/svg11.dtd">
<!-- Generated by graphviz version 9.0.0 (0)
 -->
<!-- Title: grafo_materias Pages: 1 -->
<svg width="1365pt" height="681pt"
 viewBox="0.00 0.00 1364.85 681.00" xmlns="http://www.w3.org/2000/svg" xmlns:xlink="http://www.w3.org/1999/xlink">
<g id="graph0" class="graph" transform="scale(1 1) rotate(0) translate(4 677)">
<title>grafo_materias</title>
<polygon fill="none" stroke="none" points="-4,4 -4,-677 1360.85,-677 1360.85,4 -4,4"/>
<g id="clust1" class="cluster">
<title>cluster_everything</title>
<polygon fill="none" stroke="none" points="8,-8 8,-665 1348.85,-665 1348.85,-8 8,-8"/>
</g>
<g id="clust2" class="cluster">
<title>cluster_header</title>
<polygon fill="none" stroke="none" points="22.35,-605 22.35,-657 1340.85,-657 1340.85,-605 22.35,-605"/>
</g>
<g id="clust3" class="cluster">
<title>cluster_0</title>
<polygon fill="none" stroke="none" points="16,-16 16,-597 145.5,-597 145.5,-16 16,-16"/>
</g>
<g id="clust4" class="cluster">
<title>cluster_1</title>
<polygon fill="none" stroke="none" points="165.5,-16 165.5,-428 290.5,-428 290.5,-16 165.5,-16"/>
</g>
<g id="clust5" class="cluster">
<title>cluster_2</title>
<polygon fill="none" stroke="none" points="310.5,-169 310.5,-597 447.5,-597 447.5,-169 310.5,-169"/>
</g>
<g id="clust6" class="cluster">
<title>cluster_3</title>
<polygon fill="none" stroke="none" points="467.5,-169 467.5,-581 604.5,-581 604.5,-169 467.5,-169"/>
</g>
<g id="clust7" class="cluster">
<title>cluster_4</title>
<polygon fill="none" stroke="none" points="624.5,-121 624.5,-597 760.75,-597 760.75,-121 624.5,-121"/>
</g>
<g id="clust8" class="cluster">
<title>cluster_5</title>
<polygon fill="none" stroke="none" points="780.75,-250 780.75,-443 917.75,-443 917.75,-250 780.75,-250"/>
</g>
<g id="clust9" class="cluster">
<title>cluster_6</title>
<polygon fill="none" stroke="none" points="937.75,-332 937.75,-450 1067.25,-450 1067.25,-332 937.75,-332"/>
</g>
<g id="clust10" class="cluster">
<title>cluster_7</title>
<polygon fill="none" stroke="none" points="1087.25,-310 1087.25,-487 1204.05,-487 1204.05,-310 1087.25,-310"/>
</g>
<g id="clust11" class="cluster">
<title>cluster_8</title>
<polygon fill="none" stroke="none" points="1224.05,-310 1224.05,-382 1340.85,-382 1340.85,-310 1224.05,-310"/>
</g>
<!-- Fase 01 -->
<g id="node1" class="node">
<title>Fase 01</title>
<polygon fill="lightgrey" stroke="black" points="131.15,-649 30.35,-649 30.35,-613 131.15,-613 131.15,-649"/>
<text text-anchor="middle" x="80.75" y="-625.58" font-family="Arial" font-size="14.00">Fase 01</text>
</g>
<!-- Fase 02 -->
<g id="node2" class="node">
<title>Fase 02</title>
<polygon fill="lightgrey" stroke="black" points="278.4,-649 177.6,-649 177.6,-613 278.4,-613 278.4,-649"/>
<text text-anchor="middle" x="228" y="-625.58" font-family="Arial" font-size="14.00">Fase 02</text>
</g>
<!-- Fase 01&#45;&gt;Fase 02 -->
<!-- Fase 03 -->
<g id="node3" class="node">
<title>Fase 03</title>
<polygon fill="lightgrey" stroke="black" points="429.4,-649 328.6,-649 328.6,-613 429.4,-613 429.4,-649"/>
<text text-anchor="middle" x="379" y="-625.58" font-family="Arial" font-size="14.00">Fase 03</text>
</g>
<!-- Fase 02&#45;&gt;Fase 03 -->
<!-- Fase 04 -->
<g id="node4" class="node">
<title>Fase 04</title>
<polygon fill="lightgrey" stroke="black" points="586.4,-649 485.6,-649 485.6,-613 586.4,-613 586.4,-649"/>
<text text-anchor="middle" x="536" y="-625.58" font-family="Arial" font-size="14.00">Fase 04</text>
</g>
<!-- Fase 03&#45;&gt;Fase 04 -->
<!-- Fase 05 -->
<g id="node5" class="node">
<title>Fase 05</title>
<polygon fill="lightgrey" stroke="black" points="743.02,-649 642.22,-649 642.22,-613 743.02,-613 743.02,-649"/>
<text text-anchor="middle" x="692.62" y="-625.58" font-family="Arial" font-size="14.00">Fase 05</text>
</g>
<!-- Fase 04&#45;&gt;Fase 05 -->
<!-- Fase 06 -->
<g id="node6" class="node">
<title>Fase 06</title>
<polygon fill="lightgrey" stroke="black" points="899.65,-649 798.85,-649 798.85,-613 899.65,-613 899.65,-649"/>
<text text-anchor="middle" x="849.25" y="-625.58" font-family="Arial" font-size="14.00">Fase 06</text>
</g>
<!-- Fase 05&#45;&gt;Fase 06 -->
<!-- Fase 07 -->
<g id="node7" class="node">
<title>Fase 07</title>
<polygon fill="lightgrey" stroke="black" points="1052.9,-649 952.1,-649 952.1,-613 1052.9,-613 1052.9,-649"/>
<text text-anchor="middle" x="1002.5" y="-625.58" font-family="Arial" font-size="14.00">Fase 07</text>
</g>
<!-- Fase 06&#45;&gt;Fase 07 -->
<!-- Fase 08 -->
<g id="node8" class="node">
<title>Fase 08</title>
<polygon fill="lightgrey" stroke="black" points="1196.05,-649 1095.25,-649 1095.25,-613 1196.05,-613 1196.05,-649"/>
<text text-anchor="middle" x="1145.65" y="-625.58" font-family="Arial" font-size="14.00">Fase 08</text>
</g>
<!-- Fase 07&#45;&gt;Fase 08 -->
<!-- Fase 09 -->
<g id="node9" class="node">
<title>Fase 09</title>
<polygon fill="lightgrey" stroke="black" points="1332.85,-649 1232.05,-649 1232.05,-613 1332.85,-613 1332.85,-649"/>
<text text-anchor="middle" x="1282.45" y="-625.58" font-family="Arial" font-size="14.00">Fase 09</text>
</g>
<!-- Fase 08&#45;&gt;Fase 09 -->
<!-- CNM6000 -->
<g id="node10" class="node">
<title>CNM6000</title>
<g id="a_node10"><a xlink:title="Conceito de Economia, curva de possibilidade de produção, custo de oportunidade, fluxo circular da renda, divisão do estudo econômico. Introdução aos agregados macroeconômicos: renda, produto, poupança, investimento e mensuração destes, valores reais, nominais e deflacionamento. Exemplos de agregados da economia brasileira. Política fiscal: funções consumo, poupança, investimento, gastos do governo e a demanda agregada, renda nacional de equilíbrio e o efeito multiplicador. Política monetária: moeda, sua evolução histórica e características, relação entre moeda, preços e renda. Setor externo: taxa de câmbio, política cambial e a estrutura do balanço de pagamentos.">
<polygon fill="#8dd3c7" stroke="#8dd3c7" points="137.5,-184.62 24,-184.62 24,-113.38 137.5,-113.38 137.5,-184.62"/>
<text text-anchor="middle" x="80.75" y="-167.32" font-family="Arial" font-size="14.00">CNM6000</text>
<text text-anchor="middle" x="80.75" y="-135.57" font-family="Arial" font-size="14.00">Introdução à</text>
<text text-anchor="middle" x="80.75" y="-119.83" font-family="Arial" font-size="14.00">Macroeconomia</text>
</a>
</g>
</g>
<!-- CNM6003 -->
<g id="node16" class="node">
<title>CNM6003</title>
<g id="a_node16"><a xlink:title="Equilíbrio de mercado: demanda e oferta. Elasticidades. Intervenções: imposto, subsídio, preço mínimo e máximo. Exemplos de intervenções de mercado. Excedentes do consumidor e do produtor. Utilidade total e marginal, cesta de bens, curvas de indiferença, restrição orçamentária e TMS. Função de produção, fatores de produção, produtividade total, média e marginal. Custos fixos e variáveis, médio e marginal. Custo de oportunidade versus custo contábil. Poder de mercado, monopólio e oligopólio. Externalidades, bens público e recursos comuns.">
<polygon fill="#8dd3c7" stroke="#8dd3c7" points="282.5,-184.62 173.5,-184.62 173.5,-113.38 282.5,-113.38 282.5,-184.62"/>
<text text-anchor="middle" x="228" y="-167.32" font-family="Arial" font-size="14.00">CNM6003</text>
<text text-anchor="middle" x="228" y="-135.57" font-family="Arial" font-size="14.00">Introdução à</text>
<text text-anchor="middle" x="228" y="-119.83" font-family="Arial" font-size="14.00">Microeconomia</text>
</a>
</g>
</g>
<!-- CNM6000&#45;&gt;CNM6003 -->
<!-- CNM6004 -->
<g id="node17" class="node">
<title>CNM6004</title>
<g id="a_node17"><a xlink:title="Números índices simples e compostos. Identidades básicas das contas nacionais sob a ótica da produção, dispêndio e renda. PIB real versus nominal e o deflator implícito do PIB. Índice de preços ao consumidor. Indicadores econômicos: PIB per capita, índice de Gini, IDH. Balanço de pagamentos, transações correntes, conta de capital, conta financeira e variação das reservas internacionais. Saldo em conta corrente e o ciclo da dívida. Estrutura das contas nacionais: o SCN e seus indicadores, contas econômicas integradas, tabelas de recursos e usos.">
<polygon fill="#8dd3c7" stroke="#8dd3c7" points="278.4,-346.62 177.6,-346.62 177.6,-275.38 278.4,-275.38 278.4,-346.62"/>
<text text-anchor="middle" x="228" y="-329.32" font-family="Arial" font-size="14.00">CNM6004</text>
<text text-anchor="middle" x="228" y="-297.57" font-family="Arial" font-size="14.00">Contabilidade</text>
<text text-anchor="middle" x="228" y="-281.82" font-family="Arial" font-size="14.00">Social</text>
</a>
</g>
</g>
<!-- CNM6000&#45;&gt;CNM6004 -->
<g id="edge9" class="edge">
<title>CNM6000&#45;&gt;CNM6004</title>
<path fill="none" stroke="#8dd3c7" stroke-width="2" d="M137.81,-164.27C144.97,-164.27 149.85,-164.27 149.85,-164.27 149.85,-164.27 149.85,-284.79 149.85,-284.79 149.85,-284.79 174.68,-284.79 174.68,-284.79"/>
<polygon fill="#8dd3c7" stroke="#8dd3c7" stroke-width="2" points="176.18,-282.29 176.18,-287.29 175.18,-287.29 175.18,-282.29 176.18,-282.29"/>
<polyline fill="none" stroke="#8dd3c7" stroke-width="2" points="176.68,-284.79 174.18,-284.79"/>
</g>
<!-- CNM6000&#45;&gt;CNM6004 -->
<!-- MTM3101 -->
<g id="node18" class="node">
<title>MTM3101</title>
<g id="a_node18"><a xlink:title="Cálculo de funções de uma variável real: limites; continuidade; derivada; aplicações da derivada (taxas de variação, retas tangentes e normais, problemas de otimização e máximos e mínimos, esboço de gráficos, aproximações lineares e quadráticas); integral definida e indefinida; áreas entre curvas; técnicas de integração (substituição, por partes, substituição trigonométrica, frações parciais); integral imprópria.">
<polygon fill="#ffffb3" stroke="#ffffb3" points="278.4,-257.75 177.6,-257.75 177.6,-202.25 278.4,-202.25 278.4,-257.75"/>
<text text-anchor="middle" x="228" y="-240.45" font-family="Arial" font-size="14.00">MTM3101</text>
<text text-anchor="middle" x="228" y="-208.7" font-family="Arial" font-size="14.00">Cálculo 1</text>
</a>
</g>
</g>
<!-- CNM6000&#45;&gt;MTM3101 -->
<!-- MTM3111 -->
<g id="node19" class="node">
<title>MTM3111</title>
<g id="a_node19"><a xlink:title="Matrizes. Determinantes. Sistemas lineares. Algebra vetorial. Estudo da reta e do plano. Curvas planas. Superfícies.">
<polygon fill="#ffffb3" stroke="#ffffb3" points="278.4,-95.62 177.6,-95.62 177.6,-24.38 278.4,-24.38 278.4,-95.62"/>
<text text-anchor="middle" x="228" y="-78.33" font-family="Arial" font-size="14.00">MTM3111</text>
<text text-anchor="middle" x="228" y="-46.58" font-family="Arial" font-size="14.00">Geometria</text>
<text text-anchor="middle" x="228" y="-30.82" font-family="Arial" font-size="14.00">Analítica</text>
</a>
</g>
</g>
<!-- CNM6000&#45;&gt;MTM3111 -->
<!-- SPO7890 -->
<g id="node20" class="node">
<title>SPO7890</title>
<g id="a_node20"><a xlink:title="Aspectos históricos do desenvolvimento do pensamento sociológico. A sociologia como ciência. Sociologia clássica e contemporânea.">
<polygon fill="#fb8072" stroke="#fb8072" points="278.4,-419.75 177.6,-419.75 177.6,-364.25 278.4,-364.25 278.4,-419.75"/>
<text text-anchor="middle" x="228" y="-402.45" font-family="Arial" font-size="14.00">SPO7890</text>
<text text-anchor="middle" x="228" y="-370.7" font-family="Arial" font-size="14.00">Sociologia</text>
</a>
</g>
</g>
<!-- CNM6000&#45;&gt;SPO7890 -->
<!-- CNM6001 -->
<g id="node11" class="node">
<title>CNM6001</title>
<g id="a_node11"><a xlink:title="Introdução ao uso de planilhas eletrônicas: construção e aplicação de fórmulas, testes lógicos, gráficos, formatação condicional e tabelas dinâmicas. Utilização do solver. Planilhas de fluxo de caixa e cálculo de valor presente, valor futuro, valor presente líquido e taxa interna de retorno. Planilhas de correção monetária. Análise do comportamento temporal (linhas de tendência) de indicadores econômicos brasileiros. Cálculo de estatísticas descritivas de dados e sua representação gráfica.">
<polygon fill="#8dd3c7" stroke="#8dd3c7" points="131.15,-499.5 30.35,-499.5 30.35,-412.5 131.15,-412.5 131.15,-499.5"/>
<text text-anchor="middle" x="80.75" y="-482.2" font-family="Arial" font-size="14.00">CNM6001</text>
<text text-anchor="middle" x="80.75" y="-450.45" font-family="Arial" font-size="14.00">Informática</text>
<text text-anchor="middle" x="80.75" y="-434.7" font-family="Arial" font-size="14.00">para</text>
<text text-anchor="middle" x="80.75" y="-418.95" font-family="Arial" font-size="14.00">Economistas</text>
</a>
</g>
</g>
<!-- CNM6002 -->
<g id="node12" class="node">
<title>CNM6002</title>
<g id="a_node12"><a xlink:title="Apresentação da Economia como ciência social com múltiplas escolas de pensamento. Histórico introdutório das escolas de pensamento clássica, marxista, neoclássica, schumpeteriana e keynesiana. Apresentação do objeto, principais conceitos e noção de sistema econômico em cada uma das escolas.">
<polygon fill="#8dd3c7" stroke="#8dd3c7" points="131.15,-394.5 30.35,-394.5 30.35,-307.5 131.15,-307.5 131.15,-394.5"/>
<text text-anchor="middle" x="80.75" y="-377.2" font-family="Arial" font-size="14.00">CNM6002</text>
<text text-anchor="middle" x="80.75" y="-345.45" font-family="Arial" font-size="14.00">Introdução ao</text>
<text text-anchor="middle" x="80.75" y="-329.7" font-family="Arial" font-size="14.00">Pensamento</text>
<text text-anchor="middle" x="80.75" y="-313.95" font-family="Arial" font-size="14.00">Econômico</text>
</a>
</g>
</g>
<!-- DIR6011 -->
<g id="node13" class="node">
<title>DIR6011</title>
<polygon fill="#80b1d3" stroke="#80b1d3" points="132.25,-289.5 29.25,-289.5 29.25,-202.5 132.25,-202.5 132.25,-289.5"/>
<text text-anchor="middle" x="80.75" y="-272.2" font-family="Arial" font-size="14.00">DIR6011</text>
<text text-anchor="middle" x="80.75" y="-240.45" font-family="Arial" font-size="14.00">Instituições de</text>
<text text-anchor="middle" x="80.75" y="-224.7" font-family="Arial" font-size="14.00">Direito Público</text>
<text text-anchor="middle" x="80.75" y="-208.95" font-family="Arial" font-size="14.00">e Privado</text>
</g>
<!-- INE5113 -->
<g id="node14" class="node">
<title>INE5113</title>
<g id="a_node14"><a xlink:title="Estatística descritiva (distribuição de frequência, medidas de tendência central, de dispersão, etc). Probabilidade e distribuições de probabilidade. Inferência Estatística: amostragem e estimação. Inferência estatística: teste de hipóteses e intervalo de confiança.">
<polygon fill="#fdb462" stroke="#fdb462" points="131.15,-588.62 30.35,-588.62 30.35,-517.38 131.15,-517.38 131.15,-588.62"/>
<text text-anchor="middle" x="80.75" y="-571.33" font-family="Arial" font-size="14.00">INE5113</text>
<text text-anchor="middle" x="80.75" y="-539.58" font-family="Arial" font-size="14.00">Introdução à</text>
<text text-anchor="middle" x="80.75" y="-523.83" font-family="Arial" font-size="14.00">Estatística</text>
</a>
</g>
</g>
<!-- CNM6011 -->
<g id="node24" class="node">
<title>CNM6011</title>
<g id="a_node24"><a xlink:title="Revisão de probabilidade. Esperança condicional, variância e covariância. Parâmetro e estimador. Conceito de estimador não tendencioso. Estimador de variância mínima. Estimador de mínimos quadrados. Propriedades assintóticas de estimadores. Análise de correlação. Modelo de regressão simples. Derivação do estimador de MQO. Hipóteses do modelo linear clássico, intervalos de confiança e testes de hipótese para os parâmetros. Modelo de regressão linear múltipla. Derivação do estimador de MQO. Introdução ao teorema de Gauss&#45;Markov.">
<polygon fill="#8dd3c7" stroke="#8dd3c7" points="429.4,-588.62 328.6,-588.62 328.6,-517.38 429.4,-517.38 429.4,-588.62"/>
<text text-anchor="middle" x="379" y="-571.33" font-family="Arial" font-size="14.00">CNM6011</text>
<text text-anchor="middle" x="379" y="-539.58" font-family="Arial" font-size="14.00">Estatística</text>
<text text-anchor="middle" x="379" y="-523.83" font-family="Arial" font-size="14.00">Econômica</text>
</a>
</g>
</g>
<!-- INE5113&#45;&gt;CNM6011 -->
<g id="edge12" class="edge">
<title>INE5113&#45;&gt;CNM6011</title>
<path fill="none" stroke="#8dd3c7" stroke-width="2" d="M131.34,-564.88C131.34,-564.88 325.66,-564.88 325.66,-564.88"/>
<polygon fill="#8dd3c7" stroke="#8dd3c7" stroke-width="2" points="327.16,-562.38 327.16,-567.38 326.16,-567.38 326.16,-562.38 327.16,-562.38"/>
<polyline fill="none" stroke="#8dd3c7" stroke-width="2" points="327.66,-564.88 325.16,-564.88"/>
</g>
<!-- MTM3561 -->
<g id="node15" class="node">
<title>MTM3561</title>
<g id="a_node15"><a xlink:title="Juros e Descontos: Simples e Composto. Taxas. Rendas. Amortização de dívidas.">
<polygon fill="#ffffb3" stroke="#ffffb3" points="131.15,-95.62 30.35,-95.62 30.35,-24.38 131.15,-24.38 131.15,-95.62"/>
<text text-anchor="middle" x="80.75" y="-78.33" font-family="Arial" font-size="14.00">MTM3561</text>
<text text-anchor="middle" x="80.75" y="-46.58" font-family="Arial" font-size="14.00">Matemática</text>
<text text-anchor="middle" x="80.75" y="-30.82" font-family="Arial" font-size="14.00">Financeira</text>
</a>
</g>
</g>
<!-- CNM6012 -->
<g id="node28" class="node">
<title>CNM6012</title>
<g id="a_node28"><a xlink:title="Teoria do consumidor: restrição orçamentária, preferências, utilidade, escolha ótima e a taxa marginal de substituição. Demanda, efeito renda, efeito substituição e a equação de Slutsky. Escolha sob incerteza. Excedente do consumidor, demanda de mercado e equilíbrio. Teoria da firma: tecnologia, conjunto de possibilidades de produção, insumos, retornos de escala, taxa marginal de substituição técnica, isoquantas. Maximização de lucros. Custos de curto e longo prazo. Minimização de custos e a combinação ótima de insumos. Oferta da firma e da indústria.">
<polygon fill="#8dd3c7" stroke="#8dd3c7" points="594.25,-232.75 477.75,-232.75 477.75,-177.25 594.25,-177.25 594.25,-232.75"/>
<text text-anchor="middle" x="536" y="-215.45" font-family="Arial" font-size="14.00">CNM6012</text>
<text text-anchor="middle" x="536" y="-183.7" font-family="Arial" font-size="14.00">Microeconomia I</text>
</a>
</g>
</g>
<!-- CNM6003&#45;&gt;CNM6012 -->
<g id="edge15" class="edge">
<title>CNM6003&#45;&gt;CNM6012</title>
<path fill="none" stroke="#8dd3c7" stroke-width="2" d="M282.86,-153.31C371.61,-153.31 536.85,-153.31 536.85,-153.31 536.85,-153.31 536.85,-174.54 536.85,-174.54"/>
<polygon fill="#8dd3c7" stroke="#8dd3c7" stroke-width="2" points="539.35,-176.04 534.35,-176.04 534.35,-175.04 539.35,-175.04 539.35,-176.04"/>
<polyline fill="none" stroke="#8dd3c7" stroke-width="2" points="536.85,-176.54 536.85,-174.04"/>
</g>
<!-- CNM6008 -->
<g id="node23" class="node">
<title>CNM6008</title>
<g id="a_node23"><a xlink:title="O modelo IS&#45;LM: impactos de políticas fiscais e monetárias, a armadilha da liquidez. Discussão de temas atuais sobre políticas fiscal e monetária. Inflação e desemprego: mercado de trabalho e a taxa natural de desemprego, curva de Phillips, expectativas adaptativas e racionais. Rigidez nominal e o modelos novo&#45; keynesiano básico.">
<polygon fill="#8dd3c7" stroke="#8dd3c7" points="439.5,-321.75 318.5,-321.75 318.5,-266.25 439.5,-266.25 439.5,-321.75"/>
<text text-anchor="middle" x="379" y="-304.45" font-family="Arial" font-size="14.00">CNM6008</text>
<text text-anchor="middle" x="379" y="-272.7" font-family="Arial" font-size="14.00">Macroeconomia I</text>
</a>
</g>
</g>
<!-- CNM6004&#45;&gt;CNM6008 -->
<g id="edge11" class="edge">
<title>CNM6004&#45;&gt;CNM6008</title>
<path fill="none" stroke="#8dd3c7" stroke-width="2" d="M278.7,-298.56C278.7,-298.56 315.73,-298.56 315.73,-298.56"/>
<polygon fill="#8dd3c7" stroke="#8dd3c7" stroke-width="2" points="317.22,-296.06 317.23,-301.06 316.23,-301.06 316.22,-296.06 317.22,-296.06"/>
<polyline fill="none" stroke="#8dd3c7" stroke-width="2" points="317.73,-298.56 315.23,-298.56"/>
</g>
<!-- CNM6007 -->
<g id="node22" class="node">
<title>CNM6007</title>
<g id="a_node22"><a xlink:title="Cálculo de várias variáveis: derivada total, regra da cadeia, gradiente, derivadas de ordem superior. Aplicações à análise de estática comparativa: modelo de mercado; modelo de renda nacional. Otimização: formas quadráticas, concavidade, convexidade, otimização não condicionada, condições de 1a ordem, condições de 2a ordem, máximos e mínimos. Aplicações: firma maximizadora de lucro; o problema de mínimos quadrados. Otimização com restrições: restrições de igualdade, restrições de desigualdade e a formulação de Kuhn&#45;Tucker. Aplicações: maximização de utilidade s.a. restrição orçamentária. Funções homogêneas e homotéticas. Autovalores, dinâmica e equações a diferença.">
<polygon fill="#8dd3c7" stroke="#8dd3c7" points="429.4,-248.62 328.6,-248.62 328.6,-177.38 429.4,-177.38 429.4,-248.62"/>
<text text-anchor="middle" x="379" y="-231.32" font-family="Arial" font-size="14.00">CNM6007</text>
<text text-anchor="middle" x="379" y="-199.57" font-family="Arial" font-size="14.00">Economia</text>
<text text-anchor="middle" x="379" y="-183.82" font-family="Arial" font-size="14.00">Matemática</text>
</a>
</g>
</g>
<!-- MTM3101&#45;&gt;CNM6007 -->
<g id="edge10" class="edge">
<title>MTM3101&#45;&gt;CNM6007</title>
<path fill="none" stroke="#8dd3c7" stroke-width="2" d="M278.7,-217.71C278.7,-217.71 325.68,-217.71 325.68,-217.71"/>
<polygon fill="#8dd3c7" stroke="#8dd3c7" stroke-width="2" points="327.18,-215.21 327.18,-220.21 326.18,-220.21 326.18,-215.21 327.18,-215.21"/>
<polyline fill="none" stroke="#8dd3c7" stroke-width="2" points="327.68,-217.71 325.18,-217.71"/>
</g>
<!-- CNM6005 -->
<g id="node21" class="node">
<title>CNM6005</title>
<g id="a_node21"><a xlink:title="Oikonomos x crematística. Da ideia de riqueza ao valor. Milenarismo, utopia e pensamento humanista. Direito natural, direitos humanos, guerra justa e justo preço. Mercantilismo e fisiocracia. A formação do Estado nacional moderno: propriedade, contrato e poder. Absolutismo, república, soberania. Mercado, utilitarismo e ideal liberal democrático. Paixão, interesse, simpatia. Ação econômica e sentimentos morais. Divisão do trabalho e riqueza das nações. População, escassez e ideologia. Teoria ricardiana. Informe sobre as manufaturas. Economia cosmopolítica. Anarquismo, romantismo e liberalismo social">
<polygon fill="#8dd3c7" stroke="#8dd3c7" points="429.4,-499.62 328.6,-499.62 328.6,-428.38 429.4,-428.38 429.4,-499.62"/>
<text text-anchor="middle" x="379" y="-482.32" font-family="Arial" font-size="14.00">CNM6005</text>
<text text-anchor="middle" x="379" y="-450.57" font-family="Arial" font-size="14.00">Economia</text>
<text text-anchor="middle" x="379" y="-434.82" font-family="Arial" font-size="14.00">Política I</text>
</a>
</g>
</g>
<!-- SPO7890&#45;&gt;CNM6005 -->
<!-- SPO7890&#45;&gt;CNM6007 -->
<!-- SPO7890&#45;&gt;CNM6008 -->
<!-- SPO7890&#45;&gt;CNM6011 -->
<!-- SPO7895 -->
<g id="node25" class="node">
<title>SPO7895</title>
<g id="a_node25"><a xlink:title="Emergência da Ciência Política como campo científico. Conceitos fundamentais da Ciência Política: Poder, Dominação, Povo, Cidadania, Liberdade, Igualdade. O Estado Moderno: soberania, governo, sociedade civil. Democracia, Representação e Partidos Políticos.">
<polygon fill="#fb8072" stroke="#fb8072" points="429.4,-410.62 328.6,-410.62 328.6,-339.38 429.4,-339.38 429.4,-410.62"/>
<text text-anchor="middle" x="379" y="-393.32" font-family="Arial" font-size="14.00">SPO7895</text>
<text text-anchor="middle" x="379" y="-361.57" font-family="Arial" font-size="14.00">Ciência</text>
<text text-anchor="middle" x="379" y="-345.82" font-family="Arial" font-size="14.00">Política</text>
</a>
</g>
</g>
<!-- SPO7890&#45;&gt;SPO7895 -->
<!-- CNM6006 -->
<g id="node26" class="node">
<title>CNM6006</title>
<g id="a_node26"><a xlink:title="A crítica de Marx à economia política. Fundamentos do materialismo histórico e dialético. O processo de produção do capital: mercadoria e dinheiro, a transformação do dinheiro em capital, a produção da mais valia absoluta, a produção da mais valia relativa, o salário, o processo de acumulação do capital. A subsunção formal e a subsunção real do trabalho ao capital. Fetichismo e reificação. Reprodução e as condições históricas da acumulação.">
<polygon fill="#8dd3c7" stroke="#8dd3c7" points="586.4,-499.62 485.6,-499.62 485.6,-428.38 586.4,-428.38 586.4,-499.62"/>
<text text-anchor="middle" x="536" y="-482.32" font-family="Arial" font-size="14.00">CNM6006</text>
<text text-anchor="middle" x="536" y="-450.57" font-family="Arial" font-size="14.00">Economia</text>
<text text-anchor="middle" x="536" y="-434.82" font-family="Arial" font-size="14.00">Política II</text>
</a>
</g>
</g>
<!-- CNM6005&#45;&gt;CNM6006 -->
<g id="edge13" class="edge">
<title>CNM6005&#45;&gt;CNM6006</title>
<path fill="none" stroke="#8dd3c7" stroke-width="2" d="M429.54,-475.88C429.54,-475.88 482.79,-475.88 482.79,-475.88"/>
<polygon fill="#8dd3c7" stroke="#8dd3c7" stroke-width="2" points="484.29,-473.38 484.29,-478.38 483.29,-478.38 483.29,-473.38 484.29,-473.38"/>
<polyline fill="none" stroke="#8dd3c7" stroke-width="2" points="484.79,-475.88 482.29,-475.88"/>
</g>
<!-- CNM6007&#45;&gt;CNM6012 -->
<g id="edge16" class="edge">
<title>CNM6007&#45;&gt;CNM6012</title>
<path fill="none" stroke="#8dd3c7" stroke-width="2" d="M429.54,-195.83C429.54,-195.83 474.85,-195.83 474.85,-195.83"/>
<polygon fill="#8dd3c7" stroke="#8dd3c7" stroke-width="2" points="476.35,-193.33 476.35,-198.33 475.35,-198.33 475.35,-193.33 476.35,-193.33"/>
<polyline fill="none" stroke="#8dd3c7" stroke-width="2" points="476.85,-195.83 474.35,-195.83"/>
</g>
<!-- CNM6009 -->
<g id="node27" class="node">
<title>CNM6009</title>
<g id="a_node27"><a xlink:title="Modelo de Solow: contabilidade do crescimento e a regra de ouro. Crescimento endógeno: modelos com capital humano, modelo AK. Teoria da renda permanente e teoria do ciclo de vida. Economia aberta: modelo IS&#45;LM para uma economia aberta, balanço de pagamentos, taxa de câmbio real e nominal. Políticas econômicas em economias abertas. Regimes cambiais. Paridade de juros e de preços.">
<polygon fill="#8dd3c7" stroke="#8dd3c7" points="592.75,-321.62 479.25,-321.62 479.25,-250.38 592.75,-250.38 592.75,-321.62"/>
<text text-anchor="middle" x="536" y="-304.32" font-family="Arial" font-size="14.00">CNM6009</text>
<text text-anchor="middle" x="536" y="-272.57" font-family="Arial" font-size="14.00">Macroeconomia</text>
<text text-anchor="middle" x="536" y="-256.82" font-family="Arial" font-size="14.00">II</text>
</a>
</g>
</g>
<!-- CNM6008&#45;&gt;CNM6009 -->
<g id="edge14" class="edge">
<title>CNM6008&#45;&gt;CNM6009</title>
<path fill="none" stroke="#8dd3c7" stroke-width="2" d="M439.7,-284.71C439.7,-284.71 476.31,-284.71 476.31,-284.71"/>
<polygon fill="#8dd3c7" stroke="#8dd3c7" stroke-width="2" points="477.81,-282.21 477.81,-287.21 476.81,-287.21 476.81,-282.21 477.81,-282.21"/>
<polyline fill="none" stroke="#8dd3c7" stroke-width="2" points="478.31,-284.71 475.81,-284.71"/>
</g>
<!-- CNM6015 -->
<g id="node29" class="node">
<title>CNM6015</title>
<g id="a_node29"><a xlink:title="Tipos de dados econômicos, causalidade e a noção de ceteris paribus na Econometria. Regressão múltipla: mecânica e interpretação das estimativas de MQO; valor esperado e variância dos estimadores de MQO; eficiência e o teorema de Gauss&#45;Markov; distribuições amostrais dos estimadores de MQO, testes de hipóteses e intervalos de confiança sobre um único parâmetro e sobre combinações lineares destes – os testes t e F. Consistência, eficiência e normalidade assintótica do estimador de MQO. Inferência em grandes amostras. Heterocedasticidade, autocorrelação e suas consequências para o método MQO. Inferência robusta. Modelos para escolha discreta. Introdução a séries temporais.">
<polygon fill="#8dd3c7" stroke="#8dd3c7" points="586.4,-572.75 485.6,-572.75 485.6,-517.25 586.4,-517.25 586.4,-572.75"/>
<text text-anchor="middle" x="536" y="-555.45" font-family="Arial" font-size="14.00">CNM6015</text>
<text text-anchor="middle" x="536" y="-523.7" font-family="Arial" font-size="14.00">Econometria</text>
</a>
</g>
</g>
<!-- CNM6011&#45;&gt;CNM6015 -->
<g id="edge17" class="edge">
<title>CNM6011&#45;&gt;CNM6015</title>
<path fill="none" stroke="#8dd3c7" stroke-width="2" d="M429.54,-554.29C429.54,-554.29 482.79,-554.29 482.79,-554.29"/>
<polygon fill="#8dd3c7" stroke="#8dd3c7" stroke-width="2" points="484.29,-551.79 484.29,-556.79 483.29,-556.79 483.29,-551.79 484.29,-551.79"/>
<polyline fill="none" stroke="#8dd3c7" stroke-width="2" points="484.79,-554.29 482.29,-554.29"/>
</g>
<!-- SPO7895&#45;&gt;CNM6006 -->
<!-- SPO7895&#45;&gt;CNM6009 -->
<!-- SPO7895&#45;&gt;CNM6012 -->
<!-- SPO7895&#45;&gt;CNM6015 -->
<!-- HST5147 -->
<g id="node30" class="node">
<title>HST5147</title>
<g id="a_node30"><a xlink:title="Teorias da história econômica, materialismo histórico e conceitos de modo de produção. Formações econômicosociais: escravista, feudal, capitalista e socialista. Capitalismo periférico e imperialismo.">
<polygon fill="#8dd3c7" stroke="#8dd3c7" points="596.5,-410.62 475.5,-410.62 475.5,-339.38 596.5,-339.38 596.5,-410.62"/>
<text text-anchor="middle" x="536" y="-393.32" font-family="Arial" font-size="14.00">HST5147</text>
<text text-anchor="middle" x="536" y="-361.57" font-family="Arial" font-size="14.00">Historia</text>
<text text-anchor="middle" x="536" y="-345.82" font-family="Arial" font-size="14.00">Econômica Geral</text>
</a>
</g>
</g>
<!-- SPO7895&#45;&gt;HST5147 -->
<!-- CNM6010 -->
<g id="node32" class="node">
<title>CNM6010</title>
<g id="a_node32"><a xlink:title="Instabilidade nas economias capitalistas: abordagens das teorias macroeconômicas. Schumpeter e a teoria do desenvolvimento econômico. Keynes e a instabilidade em uma economia monetária da produção. Pós&#45;keynesianos e a instabilidade em uma economia com sistema financeiro desenvolvido. Controvérsias entre teorias macroeconômicas: comparação das teorias abordadas nas disciplinas de macroeconomia e a classificação entre ortodoxia e heterodoxia.">
<polygon fill="#8dd3c7" stroke="#8dd3c7" points="749.37,-289.62 635.87,-289.62 635.87,-218.38 749.37,-218.38 749.37,-289.62"/>
<text text-anchor="middle" x="692.62" y="-272.32" font-family="Arial" font-size="14.00">CNM6010</text>
<text text-anchor="middle" x="692.62" y="-240.57" font-family="Arial" font-size="14.00">Macroeconomia</text>
<text text-anchor="middle" x="692.62" y="-224.82" font-family="Arial" font-size="14.00">III</text>
</a>
</g>
</g>
<!-- CNM6009&#45;&gt;CNM6010 -->
<g id="edge18" class="edge">
<title>CNM6009&#45;&gt;CNM6010</title>
<path fill="none" stroke="#8dd3c7" stroke-width="2" d="M592.99,-263.46C592.99,-263.46 632.92,-263.46 632.92,-263.46"/>
<polygon fill="#8dd3c7" stroke="#8dd3c7" stroke-width="2" points="634.42,-260.96 634.42,-265.96 633.42,-265.96 633.42,-260.96 634.42,-260.96"/>
<polyline fill="none" stroke="#8dd3c7" stroke-width="2" points="634.92,-263.46 632.42,-263.46"/>
</g>
<!-- CNM6017 -->
<g id="node35" class="node">
<title>CNM6017</title>
<g id="a_node35"><a xlink:title="Determinantes e conceitos básicos do desenvolvimento socioeconômico. Indicadores econômicos e sociais. Relações étnico&#45;raciais e desenvolvimento. Modelos tradicionais de crescimento e divergência de renda. Subdesenvolvimento e armadilhas de pobreza. Estruturalismo. Desenvolvimento como liberdade humana. Determinantes do desenvolvimento comparado. Meio ambiente e o desenvolvimento sustentável.">
<polygon fill="#8dd3c7" stroke="#8dd3c7" points="752.75,-378.62 632.5,-378.62 632.5,-307.38 752.75,-307.38 752.75,-378.62"/>
<text text-anchor="middle" x="692.62" y="-361.32" font-family="Arial" font-size="14.00">CNM6017</text>
<text text-anchor="middle" x="692.62" y="-329.57" font-family="Arial" font-size="14.00">Desenvolvimento</text>
<text text-anchor="middle" x="692.62" y="-313.82" font-family="Arial" font-size="14.00">Socioeconômico</text>
</a>
</g>
</g>
<!-- CNM6009&#45;&gt;CNM6017 -->
<g id="edge20" class="edge">
<title>CNM6009&#45;&gt;CNM6017</title>
<path fill="none" stroke="#8dd3c7" stroke-width="2" d="M592.99,-314.5C592.99,-314.5 629.75,-314.5 629.75,-314.5"/>
<polygon fill="#8dd3c7" stroke="#8dd3c7" stroke-width="2" points="631.25,-312 631.25,-317 630.25,-317 630.25,-312 631.25,-312"/>
<polyline fill="none" stroke="#8dd3c7" stroke-width="2" points="631.75,-314.5 629.25,-314.5"/>
</g>
<!-- CNM6013 -->
<g id="node33" class="node">
<title>CNM6013</title>
<g id="a_node33"><a xlink:title="Monopólio, discriminação de preços, monopsônio, mercado de trabalho, concorrência monopolística, oligopólio. Teoria dos jogos. Equilíbrio geral na troca e na produção. Economia do bem estar. Bens públicos. Informação assimétrica.">
<polygon fill="#8dd3c7" stroke="#8dd3c7" points="747.12,-200.62 638.12,-200.62 638.12,-129.38 747.12,-129.38 747.12,-200.62"/>
<text text-anchor="middle" x="692.62" y="-183.32" font-family="Arial" font-size="14.00">CNM6013</text>
<text text-anchor="middle" x="692.62" y="-151.57" font-family="Arial" font-size="14.00">Microeconomia</text>
<text text-anchor="middle" x="692.62" y="-135.82" font-family="Arial" font-size="14.00">II</text>
</a>
</g>
</g>
<!-- CNM6012&#45;&gt;CNM6013 -->
<g id="edge19" class="edge">
<title>CNM6012&#45;&gt;CNM6013</title>
<path fill="none" stroke="#8dd3c7" stroke-width="2" d="M594.32,-185.04C594.32,-185.04 635.13,-185.04 635.13,-185.04"/>
<polygon fill="#8dd3c7" stroke="#8dd3c7" stroke-width="2" points="636.63,-182.54 636.63,-187.54 635.63,-187.54 635.63,-182.54 636.63,-182.54"/>
<polyline fill="none" stroke="#8dd3c7" stroke-width="2" points="637.13,-185.04 634.63,-185.04"/>
</g>
<!-- CCN6118 -->
<g id="node31" class="node">
<title>CCN6118</title>
<g id="a_node31"><a xlink:title="Introdução às atividades empresariais e visão geral das Demonstrações Financeiras. Reconhecimento, mensuração e avaliação de Ativos, Passivos, Patrimônio Líquido, Receitas e Despesas. Regulamentação e Processamento da Informação Contábil. Divulgação, transparência e Governança Corporativa. Lucro Contábil. Demonstrações Financeiras Padronizadas. Análise das Demonstrações Financeiras.">
<polygon fill="#80b1d3" stroke="#80b1d3" points="747.5,-588.5 637.75,-588.5 637.75,-501.5 747.5,-501.5 747.5,-588.5"/>
<text text-anchor="middle" x="692.62" y="-571.2" font-family="Arial" font-size="14.00">CCN6118</text>
<text text-anchor="middle" x="692.62" y="-539.45" font-family="Arial" font-size="14.00">Contabilidade e</text>
<text text-anchor="middle" x="692.62" y="-523.7" font-family="Arial" font-size="14.00">Análise</text>
<text text-anchor="middle" x="692.62" y="-507.95" font-family="Arial" font-size="14.00">Financeira</text>
</a>
</g>
</g>
<!-- HST5147&#45;&gt;CCN6118 -->
<!-- HST5147&#45;&gt;CNM6010 -->
<!-- HST5147&#45;&gt;CNM6013 -->
<!-- CNM6016 -->
<g id="node34" class="node">
<title>CNM6016</title>
<g id="a_node34"><a xlink:title="A colonização do Brasil, a escravidão e as atividades econômicas: produção de açúcar e extração do ouro. Relações étnico&#45;raciais na formação econômica do Brasil. A crise do sistema colonial e o Brasil independente. A economia brasileira perante as transformações econômicas, políticas e sociais do final do século XIX. A economia cafeeira: expansão e crise. Nascimento da estrutura industrial e o processo de substituição das importações. Nova forma de Estado pós 30 e industrialização restringida.">
<polygon fill="#8dd3c7" stroke="#8dd3c7" points="743.75,-483.5 641.5,-483.5 641.5,-396.5 743.75,-396.5 743.75,-483.5"/>
<text text-anchor="middle" x="692.62" y="-466.2" font-family="Arial" font-size="14.00">CNM6016</text>
<text text-anchor="middle" x="692.62" y="-434.45" font-family="Arial" font-size="14.00">Formação</text>
<text text-anchor="middle" x="692.62" y="-418.7" font-family="Arial" font-size="14.00">Econômica do</text>
<text text-anchor="middle" x="692.62" y="-402.95" font-family="Arial" font-size="14.00">Brasil</text>
</a>
</g>
</g>
<!-- HST5147&#45;&gt;CNM6016 -->
<!-- HST5147&#45;&gt;CNM6017 -->
<!-- CNM6014 -->
<g id="node36" class="node">
<title>CNM6014</title>
<g id="a_node36"><a xlink:title="O processo de concentração industrial no Século XX. Tópicos em organização industrial: medidas de concentração, barreiras à entrada, paradigma estruturaconduta&#45; desempenho, mercados contestáveis, custos de transação. Tópicos em economia da tecnologia: conhecimento e aprendizagem, inovação e difusão, paradigmas e regimes tecnológicos. A firma industrial: teorias da firma, padrões setoriais de concorrência e de crescimento, diversificação e internacionalização, redes de firmas, arranjos produtivos locais. Política industrial: regulação, defesa da concorrência, política científica e tecnológica, estrutura industrial e política industrial no Brasil.">
<polygon fill="#8dd3c7" stroke="#8dd3c7" points="903.75,-329.62 794.75,-329.62 794.75,-258.38 903.75,-258.38 903.75,-329.62"/>
<text text-anchor="middle" x="849.25" y="-312.32" font-family="Arial" font-size="14.00">CNM6014</text>
<text text-anchor="middle" x="849.25" y="-280.57" font-family="Arial" font-size="14.00">Microeconomia</text>
<text text-anchor="middle" x="849.25" y="-264.82" font-family="Arial" font-size="14.00">III</text>
</a>
</g>
</g>
<!-- CNM6013&#45;&gt;CNM6014 -->
<g id="edge21" class="edge">
<title>CNM6013&#45;&gt;CNM6014</title>
<path fill="none" stroke="#8dd3c7" stroke-width="2" d="M747.61,-165C792.95,-165 849.85,-165 849.85,-165 849.85,-165 849.85,-255.57 849.85,-255.57"/>
<polygon fill="#8dd3c7" stroke="#8dd3c7" stroke-width="2" points="852.35,-257.07 847.35,-257.07 847.35,-256.07 852.35,-256.07 852.35,-257.07"/>
<polyline fill="none" stroke="#8dd3c7" stroke-width="2" points="849.85,-257.57 849.85,-255.07"/>
</g>
<!-- CNM6019 -->
<g id="node37" class="node">
<title>CNM6019</title>
<g id="a_node37"><a xlink:title="A internacionalização da economia brasileira e a estruturação do novo padrão de industrialização a partir do Plano de Metas. O desenvolvimento e as crises econômica e política no limiar dos anos 60. Afirmação do projeto desenvolvimentista internacionalizante sob governo militar: estratégias, reformas institucionais e política econômica. O ciclo de crescimento expansivo e suas contradições. A estratégia de desenvolvimento do II PND e as características da política econômica. A década perdida – anos 80 – e o padrão dos investimentos. O setor externo da economia. Dívida externa e a ruptura do padrão de financiamento. A crise financeira do Estado. Inflação e os planos econômicos de estabilização.">
<polygon fill="#8dd3c7" stroke="#8dd3c7" points="909.75,-434.5 788.75,-434.5 788.75,-347.5 909.75,-347.5 909.75,-434.5"/>
<text text-anchor="middle" x="849.25" y="-417.2" font-family="Arial" font-size="14.00">CNM6019</text>
<text text-anchor="middle" x="849.25" y="-385.45" font-family="Arial" font-size="14.00">Economia</text>
<text text-anchor="middle" x="849.25" y="-369.7" font-family="Arial" font-size="14.00">Brasileira</text>
<text text-anchor="middle" x="849.25" y="-353.95" font-family="Arial" font-size="14.00">Contemporânea I</text>
</a>
</g>
</g>
<!-- CNM6016&#45;&gt;CNM6019 -->
<g id="edge22" class="edge">
<title>CNM6016&#45;&gt;CNM6019</title>
<path fill="none" stroke="#8dd3c7" stroke-width="2" d="M743.91,-415.5C743.91,-415.5 785.81,-415.5 785.81,-415.5"/>
<polygon fill="#8dd3c7" stroke="#8dd3c7" stroke-width="2" points="787.31,-413 787.31,-418 786.31,-418 786.31,-413 787.31,-413"/>
<polyline fill="none" stroke="#8dd3c7" stroke-width="2" points="787.81,-415.5 785.31,-415.5"/>
</g>
<!-- CNM6017&#45;&gt;CNM6014 -->
<!-- CNM6017&#45;&gt;CNM6019 -->
<!-- CNM6020 -->
<g id="node38" class="node">
<title>CNM6020</title>
<g id="a_node38"><a xlink:title="Reformas econômicas dos anos 1990: abertura de mercado, desregulamentação econômica e privatização de empresas estatais. Inflação e o plano real de estabilização econômica: fundamentos e características. Comportamento das contas do balanço de pagamentos. Dinâmica dos investimentos externos financeiros e produtivos. Dívida externa: configuração e tratamento. Finanças públicas brasileira. Indústria e desenvolvimento: desindustrialização. Política de Estado nos anos 2000: investimentos públicos e políticas sociais. Avaliação dos principais agregados macroeconômicos brasileiros recentes.">
<polygon fill="#8dd3c7" stroke="#8dd3c7" points="1059.25,-442.38 945.75,-442.38 945.75,-339.62 1059.25,-339.62 1059.25,-442.38"/>
<text text-anchor="middle" x="1002.5" y="-425.07" font-family="Arial" font-size="14.00">CNM6020</text>
<text text-anchor="middle" x="1002.5" y="-393.32" font-family="Arial" font-size="14.00">Economia</text>
<text text-anchor="middle" x="1002.5" y="-377.57" font-family="Arial" font-size="14.00">Brasileira</text>
<text text-anchor="middle" x="1002.5" y="-361.82" font-family="Arial" font-size="14.00">Contemporânea</text>
<text text-anchor="middle" x="1002.5" y="-346.07" font-family="Arial" font-size="14.00">II</text>
</a>
</g>
</g>
<!-- CNM6019&#45;&gt;CNM6020 -->
<g id="edge23" class="edge">
<title>CNM6019&#45;&gt;CNM6020</title>
<path fill="none" stroke="#8dd3c7" stroke-width="2" d="M909.82,-376.5C909.82,-376.5 942.87,-376.5 942.87,-376.5"/>
<polygon fill="#8dd3c7" stroke="#8dd3c7" stroke-width="2" points="944.37,-374 944.37,-379 943.37,-379 943.37,-374 944.37,-374"/>
<polyline fill="none" stroke="#8dd3c7" stroke-width="2" points="944.87,-376.5 942.37,-376.5"/>
</g>
<!-- CNM6019&#45;&gt;CNM6020 -->
<!-- CNM6021 -->
<g id="node39" class="node">
<title>CNM6021</title>
<g id="a_node39"><a xlink:title="Métodos de abordagem científica. Ética científica e profissional. Pesquisa qualitativa e quantitativa em economia. Delimitação do tema. Construção do problema de pesquisa econômica. Referencial teórico. Fontes de informação. Formas de coleta de dados econômicos. Formas de apresentação dos resultados da pesquisa. Fases de execução da pesquisa. Normas da ABNT. Trabalhos acadêmicos: tipos, características e composição estrutural.">
<polygon fill="#8dd3c7" stroke="#8dd3c7" points="1196.05,-478.5 1095.25,-478.5 1095.25,-391.5 1196.05,-391.5 1196.05,-478.5"/>
<text text-anchor="middle" x="1145.65" y="-461.2" font-family="Arial" font-size="14.00">CNM6021</text>
<text text-anchor="middle" x="1145.65" y="-429.45" font-family="Arial" font-size="14.00">Técnicas de</text>
<text text-anchor="middle" x="1145.65" y="-413.7" font-family="Arial" font-size="14.00">Pesquisa em</text>
<text text-anchor="middle" x="1145.65" y="-397.95" font-family="Arial" font-size="14.00">Economia</text>
</a>
</g>
</g>
<!-- CNM6020&#45;&gt;CNM6021 -->
<!-- CNM6022 -->
<g id="node40" class="node">
<title>CNM6022</title>
<g id="a_node40"><a xlink:title="Preparação para elaborar e produzir o trabalho de graduação (TCC) em área de escolha. Definição, em conjunto com o professor orientador, do tema do estudo e sua delimitação. Definição da pergunta de pesquisa, objetivos e justificativas. Revisão bibliográfica relacionada ao tema escolhido.">
<polygon fill="#8dd3c7" stroke="#8dd3c7" points="1196.05,-373.75 1095.25,-373.75 1095.25,-318.25 1196.05,-318.25 1196.05,-373.75"/>
<text text-anchor="middle" x="1145.65" y="-356.45" font-family="Arial" font-size="14.00">CNM6022</text>
<text text-anchor="middle" x="1145.65" y="-324.7" font-family="Arial" font-size="14.00">Monografia I</text>
</a>
</g>
</g>
<!-- CNM6020&#45;&gt;CNM6022 -->
<!-- CNM6023 -->
<g id="node41" class="node">
<title>CNM6023</title>
<g id="a_node41"><a xlink:title="Elaboração da monografia ou trabalho de conclusão de curso. Execução do trabalho. Coleta de dados e análise de resultados. Estudos complementares à realização do trabalho. Apresentação e defesa da monografia.">
<polygon fill="#8dd3c7" stroke="#8dd3c7" points="1332.85,-373.75 1232.05,-373.75 1232.05,-318.25 1332.85,-318.25 1332.85,-373.75"/>
<text text-anchor="middle" x="1282.45" y="-356.45" font-family="Arial" font-size="14.00">CNM6023</text>
<text text-anchor="middle" x="1282.45" y="-324.7" font-family="Arial" font-size="14.00">Monografia II</text>
</a>
</g>
</g>
<!-- CNM6021&#45;&gt;CNM6023 -->
<g id="edge24" class="edge">
<title>CNM6021&#45;&gt;CNM6023</title>
<path fill="none" stroke="#8dd3c7" stroke-width="2" d="M1196.35,-435C1235.43,-435 1282.85,-435 1282.85,-435 1282.85,-435 1282.85,-376.66 1282.85,-376.66"/>
<polygon fill="#8dd3c7" stroke="#8dd3c7" stroke-width="2" points="1280.35,-375.16 1285.35,-375.16 1285.35,-376.16 1280.35,-376.16 1280.35,-375.16"/>
<polyline fill="none" stroke="#8dd3c7" stroke-width="2" points="1282.85,-374.66 1282.85,-377.16"/>
</g>
<!-- CNM6022&#45;&gt;CNM6023 -->
<g id="edge25" class="edge">
<title>CNM6022&#45;&gt;CNM6023</title>
<path fill="none" stroke="#8dd3c7" stroke-width="2" d="M1196.2,-336.75C1196.2,-336.75 1229.15,-336.75 1229.15,-336.75"/>
<polygon fill="#8dd3c7" stroke="#8dd3c7" stroke-width="2" points="1230.65,-334.25 1230.65,-339.25 1229.65,-339.25 1229.65,-334.25 1230.65,-334.25"/>
<polyline fill="none" stroke="#8dd3c7" stroke-width="2" points="1231.15,-336.75 1228.65,-336.75"/>
</g>
<!-- CNM6022&#45;&gt;CNM6023 -->
</g>
</svg>
