<?xml version="1.0" encoding="UTF-8" standalone="no"?>
<!DOCTYPE svg PUBLIC "-//W3C//DTD SVG 1.1//EN"
 "http://www.w3.org/Graphics/SVG/1.1/DTD/svg11.dtd">
<!-- Generated by graphviz version 9.0.0 (0)
 -->
<!-- Title: grafo_materias Pages: 1 -->
<svg width="1338pt" height="638pt"
 viewBox="0.00 0.00 1337.80 638.00" xmlns="http://www.w3.org/2000/svg" xmlns:xlink="http://www.w3.org/1999/xlink">
<g id="graph0" class="graph" transform="scale(1 1) rotate(0) translate(4 634)">
<title>grafo_materias</title>
<polygon fill="none" stroke="none" points="-4,4 -4,-634 1333.8,-634 1333.8,4 -4,4"/>
<g id="clust1" class="cluster">
<title>cluster_everything</title>
<polygon fill="none" stroke="none" points="8,-8 8,-622 1321.8,-622 1321.8,-8 8,-8"/>
</g>
<g id="clust2" class="cluster">
<title>cluster_header</title>
<polygon fill="none" stroke="none" points="17.47,-562 17.47,-614 1309.7,-614 1309.7,-562 17.47,-562"/>
</g>
<g id="clust3" class="cluster">
<title>cluster_0</title>
<polygon fill="none" stroke="none" points="16,-136 16,-554 135.75,-554 135.75,-136 16,-136"/>
</g>
<g id="clust4" class="cluster">
<title>cluster_1</title>
<polygon fill="none" stroke="none" points="155.75,-16 155.75,-540 292,-540 292,-16 155.75,-16"/>
</g>
<g id="clust5" class="cluster">
<title>cluster_2</title>
<polygon fill="none" stroke="none" points="312,-48 312,-540 428.8,-540 428.8,-48 312,-48"/>
</g>
<g id="clust6" class="cluster">
<title>cluster_3</title>
<polygon fill="none" stroke="none" points="448.8,-48 448.8,-540 577.55,-540 577.55,-48 448.8,-48"/>
</g>
<g id="clust7" class="cluster">
<title>cluster_4</title>
<polygon fill="none" stroke="none" points="597.55,-104 597.55,-506 727.8,-506 727.8,-104 597.55,-104"/>
</g>
<g id="clust8" class="cluster">
<title>cluster_5</title>
<polygon fill="none" stroke="none" points="747.8,-16 747.8,-346 878.8,-346 878.8,-16 747.8,-16"/>
</g>
<g id="clust9" class="cluster">
<title>cluster_6</title>
<polygon fill="none" stroke="none" points="898.8,-160 898.8,-384 1023.8,-384 1023.8,-160 898.8,-160"/>
</g>
<g id="clust10" class="cluster">
<title>cluster_7</title>
<polygon fill="none" stroke="none" points="1043.8,-266 1043.8,-384 1168.8,-384 1168.8,-266 1043.8,-266"/>
</g>
<g id="clust11" class="cluster">
<title>cluster_8</title>
<polygon fill="none" stroke="none" points="1188.8,-266 1188.8,-384 1313.8,-384 1313.8,-266 1188.8,-266"/>
</g>
<!-- 1ª Fase -->
<g id="node1" class="node">
<title>1ª Fase</title>
<polygon fill="lightgrey" stroke="black" points="126.28,-606 25.48,-606 25.48,-570 126.28,-570 126.28,-606"/>
<text text-anchor="middle" x="75.88" y="-582.58" font-family="Arial" font-size="14.00">1ª Fase</text>
</g>
<!-- 2ª Fase -->
<g id="node2" class="node">
<title>2ª Fase</title>
<polygon fill="lightgrey" stroke="black" points="274.27,-606 173.47,-606 173.47,-570 274.27,-570 274.27,-606"/>
<text text-anchor="middle" x="223.88" y="-582.58" font-family="Arial" font-size="14.00">2ª Fase</text>
</g>
<!-- 1ª Fase&#45;&gt;2ª Fase -->
<!-- 3ª Fase -->
<g id="node3" class="node">
<title>3ª Fase</title>
<polygon fill="lightgrey" stroke="black" points="420.8,-606 320,-606 320,-570 420.8,-570 420.8,-606"/>
<text text-anchor="middle" x="370.4" y="-582.58" font-family="Arial" font-size="14.00">3ª Fase</text>
</g>
<!-- 2ª Fase&#45;&gt;3ª Fase -->
<!-- 4ª Fase -->
<g id="node4" class="node">
<title>4ª Fase</title>
<polygon fill="lightgrey" stroke="black" points="563.57,-606 462.77,-606 462.77,-570 563.57,-570 563.57,-606"/>
<text text-anchor="middle" x="513.17" y="-582.58" font-family="Arial" font-size="14.00">4ª Fase</text>
</g>
<!-- 3ª Fase&#45;&gt;4ª Fase -->
<!-- 5ª Fase -->
<g id="node5" class="node">
<title>5ª Fase</title>
<polygon fill="lightgrey" stroke="black" points="713.07,-606 612.27,-606 612.27,-570 713.07,-570 713.07,-606"/>
<text text-anchor="middle" x="662.67" y="-582.58" font-family="Arial" font-size="14.00">5ª Fase</text>
</g>
<!-- 4ª Fase&#45;&gt;5ª Fase -->
<!-- 6ª Fase -->
<g id="node6" class="node">
<title>6ª Fase</title>
<polygon fill="lightgrey" stroke="black" points="863.7,-606 762.9,-606 762.9,-570 863.7,-570 863.7,-606"/>
<text text-anchor="middle" x="813.3" y="-582.58" font-family="Arial" font-size="14.00">6ª Fase</text>
</g>
<!-- 5ª Fase&#45;&gt;6ª Fase -->
<!-- 7ª Fase -->
<g id="node7" class="node">
<title>7ª Fase</title>
<polygon fill="lightgrey" stroke="black" points="1011.7,-606 910.9,-606 910.9,-570 1011.7,-570 1011.7,-606"/>
<text text-anchor="middle" x="961.3" y="-582.58" font-family="Arial" font-size="14.00">7ª Fase</text>
</g>
<!-- 6ª Fase&#45;&gt;7ª Fase -->
<!-- 8ª Fase -->
<g id="node8" class="node">
<title>8ª Fase</title>
<polygon fill="lightgrey" stroke="black" points="1156.7,-606 1055.9,-606 1055.9,-570 1156.7,-570 1156.7,-606"/>
<text text-anchor="middle" x="1106.3" y="-582.58" font-family="Arial" font-size="14.00">8ª Fase</text>
</g>
<!-- 7ª Fase&#45;&gt;8ª Fase -->
<!-- 9ª Fase -->
<g id="node9" class="node">
<title>9ª Fase</title>
<polygon fill="lightgrey" stroke="black" points="1301.7,-606 1200.9,-606 1200.9,-570 1301.7,-570 1301.7,-606"/>
<text text-anchor="middle" x="1251.3" y="-582.58" font-family="Arial" font-size="14.00">9ª Fase</text>
</g>
<!-- 8ª Fase&#45;&gt;9ª Fase -->
<!-- FIL6000 -->
<g id="node10" class="node">
<title>FIL6000</title>
<polygon fill="#8dd3c7" stroke="#8dd3c7" points="126.28,-231.5 25.48,-231.5 25.48,-144.5 126.28,-144.5 126.28,-231.5"/>
<text text-anchor="middle" x="75.88" y="-214.2" font-family="Arial" font-size="14.00">FIL6000</text>
<text text-anchor="middle" x="75.88" y="-182.45" font-family="Arial" font-size="14.00">História da</text>
<text text-anchor="middle" x="75.88" y="-166.7" font-family="Arial" font-size="14.00">Filosofia I</text>
<text text-anchor="middle" x="75.88" y="-150.95" font-family="Arial" font-size="14.00">(PCC 18h&#45;a)</text>
</g>
<!-- FIL6010 -->
<g id="node14" class="node">
<title>FIL6010</title>
<polygon fill="#8dd3c7" stroke="#8dd3c7" points="274.27,-200.5 173.47,-200.5 173.47,-113.5 274.27,-113.5 274.27,-200.5"/>
<text text-anchor="middle" x="223.88" y="-183.2" font-family="Arial" font-size="14.00">FIL6010</text>
<text text-anchor="middle" x="223.88" y="-151.45" font-family="Arial" font-size="14.00">História da</text>
<text text-anchor="middle" x="223.88" y="-135.7" font-family="Arial" font-size="14.00">Filosofia II</text>
<text text-anchor="middle" x="223.88" y="-119.95" font-family="Arial" font-size="14.00">(PCC 18h&#45;a)</text>
</g>
<!-- FIL6000&#45;&gt;FIL6010 -->
<!-- FIL6011 -->
<g id="node15" class="node">
<title>FIL6011</title>
<polygon fill="#8dd3c7" stroke="#8dd3c7" points="274.27,-95.62 173.47,-95.62 173.47,-24.38 274.27,-24.38 274.27,-95.62"/>
<text text-anchor="middle" x="223.88" y="-78.33" font-family="Arial" font-size="14.00">FIL6011</text>
<text text-anchor="middle" x="223.88" y="-46.58" font-family="Arial" font-size="14.00">Ontologia I</text>
<text text-anchor="middle" x="223.88" y="-30.82" font-family="Arial" font-size="14.00">(PCC 18h&#45;a)</text>
</g>
<!-- FIL6000&#45;&gt;FIL6011 -->
<!-- FIL6012 -->
<g id="node16" class="node">
<title>FIL6012</title>
<polygon fill="#8dd3c7" stroke="#8dd3c7" points="274.27,-531.62 173.47,-531.62 173.47,-460.38 274.27,-460.38 274.27,-531.62"/>
<text text-anchor="middle" x="223.88" y="-514.33" font-family="Arial" font-size="14.00">FIL6012</text>
<text text-anchor="middle" x="223.88" y="-482.57" font-family="Arial" font-size="14.00">Ética II (PCC</text>
<text text-anchor="middle" x="223.88" y="-466.82" font-family="Arial" font-size="14.00">18h&#45;a)</text>
</g>
<!-- FIL6000&#45;&gt;FIL6012 -->
<!-- FIL6013 -->
<g id="node17" class="node">
<title>FIL6013</title>
<polygon fill="#8dd3c7" stroke="#8dd3c7" points="276.12,-305.5 171.62,-305.5 171.62,-218.5 276.12,-218.5 276.12,-305.5"/>
<text text-anchor="middle" x="223.88" y="-288.2" font-family="Arial" font-size="14.00">FIL6013</text>
<text text-anchor="middle" x="223.88" y="-256.45" font-family="Arial" font-size="14.00">Filosofia</text>
<text text-anchor="middle" x="223.88" y="-240.7" font-family="Arial" font-size="14.00">Política I (PCC</text>
<text text-anchor="middle" x="223.88" y="-224.95" font-family="Arial" font-size="14.00">18h&#45;a)</text>
</g>
<!-- FIL6000&#45;&gt;FIL6013 -->
<!-- PSI5137 -->
<g id="node18" class="node">
<title>PSI5137</title>
<g id="a_node18"><a xlink:title="Introdução à Psicologia como ciência: histórico, objetivo e métodos. Interações sociais no contexto educacional e o lugar do professor. Introdução ao estudo do desenvolvimento e de aprendizagem &#45; infância, adolescência, idade adulta. Contribuições da Psicologia na prática escolar cotidiana e na compreensão do fracasso escolar. Prática como componente curricular.">
<polygon fill="#80b1d3" stroke="#80b1d3" points="284,-442.25 163.75,-442.25 163.75,-323.75 284,-323.75 284,-442.25"/>
<text text-anchor="middle" x="223.88" y="-424.95" font-family="Arial" font-size="14.00">PSI5137</text>
<text text-anchor="middle" x="223.88" y="-393.2" font-family="Arial" font-size="14.00">Psicologia</text>
<text text-anchor="middle" x="223.88" y="-377.45" font-family="Arial" font-size="14.00">Educacional:</text>
<text text-anchor="middle" x="223.88" y="-361.7" font-family="Arial" font-size="14.00">Desenvolvimento</text>
<text text-anchor="middle" x="223.88" y="-345.95" font-family="Arial" font-size="14.00">e Aprendizagem</text>
<text text-anchor="middle" x="223.88" y="-330.2" font-family="Arial" font-size="14.00">(PCC 12h&#45;a)</text>
</a>
</g>
</g>
<!-- FIL6000&#45;&gt;PSI5137 -->
<!-- FIL6004 -->
<g id="node11" class="node">
<title>FIL6004</title>
<polygon fill="#8dd3c7" stroke="#8dd3c7" points="127.75,-425.5 24,-425.5 24,-338.5 127.75,-338.5 127.75,-425.5"/>
<text text-anchor="middle" x="75.88" y="-408.2" font-family="Arial" font-size="14.00">FIL6004</text>
<text text-anchor="middle" x="75.88" y="-376.45" font-family="Arial" font-size="14.00">Teoria do</text>
<text text-anchor="middle" x="75.88" y="-360.7" font-family="Arial" font-size="14.00">Conhecimento</text>
<text text-anchor="middle" x="75.88" y="-344.95" font-family="Arial" font-size="14.00">(PCC 18h&#45;a)</text>
</g>
<!-- FIL6006 -->
<g id="node12" class="node">
<title>FIL6006</title>
<polygon fill="#8dd3c7" stroke="#8dd3c7" points="126.28,-320.62 25.48,-320.62 25.48,-249.38 126.28,-249.38 126.28,-320.62"/>
<text text-anchor="middle" x="75.88" y="-303.32" font-family="Arial" font-size="14.00">FIL6006</text>
<text text-anchor="middle" x="75.88" y="-271.57" font-family="Arial" font-size="14.00">Ética I (PCC</text>
<text text-anchor="middle" x="75.88" y="-255.82" font-family="Arial" font-size="14.00">18h&#45;a)</text>
</g>
<!-- FIL6006&#45;&gt;FIL6012 -->
<g id="edge9" class="edge">
<title>FIL6006&#45;&gt;FIL6012</title>
<path fill="none" stroke="#8dd3c7" stroke-width="2" d="M126.55,-313.06C134.31,-313.06 139.8,-313.06 139.8,-313.06 139.8,-313.06 139.8,-507.88 139.8,-507.88 139.8,-507.88 170.53,-507.88 170.53,-507.88"/>
<polygon fill="#8dd3c7" stroke="#8dd3c7" stroke-width="2" points="172.03,-505.38 172.03,-510.38 171.03,-510.38 171.03,-505.38 172.03,-505.38"/>
<polyline fill="none" stroke="#8dd3c7" stroke-width="2" points="172.53,-507.88 170.03,-507.88"/>
</g>
<!-- FIL6017 -->
<g id="node13" class="node">
<title>FIL6017</title>
<polygon fill="#8dd3c7" stroke="#8dd3c7" points="127.38,-546.38 24.38,-546.38 24.38,-443.62 127.38,-443.62 127.38,-546.38"/>
<text text-anchor="middle" x="75.88" y="-529.08" font-family="Arial" font-size="14.00">FIL6017</text>
<text text-anchor="middle" x="75.88" y="-497.32" font-family="Arial" font-size="14.00">Iniciação à</text>
<text text-anchor="middle" x="75.88" y="-481.57" font-family="Arial" font-size="14.00">Pesquisa em</text>
<text text-anchor="middle" x="75.88" y="-465.82" font-family="Arial" font-size="14.00">Filosofia (PCC</text>
<text text-anchor="middle" x="75.88" y="-450.07" font-family="Arial" font-size="14.00">36h&#45;a)</text>
</g>
<!-- FIL6091 -->
<g id="node31" class="node">
<title>FIL6091</title>
<polygon fill="#8dd3c7" stroke="#8dd3c7" points="713.07,-498.38 612.27,-498.38 612.27,-395.62 713.07,-395.62 713.07,-498.38"/>
<text text-anchor="middle" x="662.67" y="-481.07" font-family="Arial" font-size="14.00">FIL6091</text>
<text text-anchor="middle" x="662.67" y="-449.32" font-family="Arial" font-size="14.00">Seminário de</text>
<text text-anchor="middle" x="662.67" y="-433.57" font-family="Arial" font-size="14.00">Ensino em</text>
<text text-anchor="middle" x="662.67" y="-417.82" font-family="Arial" font-size="14.00">Filosofia</text>
<text text-anchor="middle" x="662.67" y="-402.07" font-family="Arial" font-size="14.00">(PCC36h&#45;a)</text>
</g>
<!-- FIL6017&#45;&gt;FIL6091 -->
<g id="edge12" class="edge">
<title>FIL6017&#45;&gt;FIL6091</title>
<path fill="none" stroke="#8dd3c7" stroke-width="2" d="M127.7,-539C271.14,-539 662.8,-539 662.8,-539 662.8,-539 662.8,-501.15 662.8,-501.15"/>
<polygon fill="#8dd3c7" stroke="#8dd3c7" stroke-width="2" points="660.3,-499.65 665.3,-499.65 665.3,-500.65 660.3,-500.65 660.3,-499.65"/>
<polyline fill="none" stroke="#8dd3c7" stroke-width="2" points="662.8,-499.15 662.8,-501.65"/>
</g>
<!-- FIL6019 -->
<g id="node21" class="node">
<title>FIL6019</title>
<polygon fill="#8dd3c7" stroke="#8dd3c7" points="420.8,-143.5 320,-143.5 320,-56.5 420.8,-56.5 420.8,-143.5"/>
<text text-anchor="middle" x="370.4" y="-126.2" font-family="Arial" font-size="14.00">FIL6019</text>
<text text-anchor="middle" x="370.4" y="-94.45" font-family="Arial" font-size="14.00">Filosofia</text>
<text text-anchor="middle" x="370.4" y="-78.7" font-family="Arial" font-size="14.00">Política II</text>
<text text-anchor="middle" x="370.4" y="-62.95" font-family="Arial" font-size="14.00">(PCC18h&#45;a)</text>
</g>
<!-- FIL6013&#45;&gt;FIL6019 -->
<g id="edge10" class="edge">
<title>FIL6013&#45;&gt;FIL6019</title>
<path fill="none" stroke="#8dd3c7" stroke-width="2" d="M276.44,-228.5C277.94,-228.5 278.8,-228.5 278.8,-228.5 278.8,-228.5 278.8,-123.5 278.8,-123.5 278.8,-123.5 317.01,-123.5 317.01,-123.5"/>
<polygon fill="#8dd3c7" stroke="#8dd3c7" stroke-width="2" points="318.51,-121 318.51,-126 317.51,-126 317.51,-121 318.51,-121"/>
<polyline fill="none" stroke="#8dd3c7" stroke-width="2" points="319.01,-123.5 316.51,-123.5"/>
</g>
<!-- EED8007 -->
<g id="node19" class="node">
<title>EED8007</title>
<polygon fill="#fdb462" stroke="#fdb462" points="420.8,-248.5 320,-248.5 320,-161.5 420.8,-161.5 420.8,-248.5"/>
<text text-anchor="middle" x="370.4" y="-231.2" font-family="Arial" font-size="14.00">EED8007</text>
<text text-anchor="middle" x="370.4" y="-199.45" font-family="Arial" font-size="14.00">Organização</text>
<text text-anchor="middle" x="370.4" y="-183.7" font-family="Arial" font-size="14.00">Escolar (PCC</text>
<text text-anchor="middle" x="370.4" y="-167.95" font-family="Arial" font-size="14.00">18h&#45;a)</text>
</g>
<!-- PSI5137&#45;&gt;EED8007 -->
<!-- FIL6018 -->
<g id="node20" class="node">
<title>FIL6018</title>
<polygon fill="#8dd3c7" stroke="#8dd3c7" points="420.8,-531.5 320,-531.5 320,-444.5 420.8,-444.5 420.8,-531.5"/>
<text text-anchor="middle" x="370.4" y="-514.2" font-family="Arial" font-size="14.00">FIL6018</text>
<text text-anchor="middle" x="370.4" y="-482.45" font-family="Arial" font-size="14.00">História da</text>
<text text-anchor="middle" x="370.4" y="-466.7" font-family="Arial" font-size="14.00">Filosofia III</text>
<text text-anchor="middle" x="370.4" y="-450.95" font-family="Arial" font-size="14.00">(PCC 18h&#45;a)</text>
</g>
<!-- PSI5137&#45;&gt;FIL6018 -->
<!-- PSI5137&#45;&gt;FIL6019 -->
<!-- FIL6020 -->
<g id="node22" class="node">
<title>FIL6020</title>
<polygon fill="#8dd3c7" stroke="#8dd3c7" points="420.8,-426.62 320,-426.62 320,-355.38 420.8,-355.38 420.8,-426.62"/>
<text text-anchor="middle" x="370.4" y="-409.32" font-family="Arial" font-size="14.00">FIL6020</text>
<text text-anchor="middle" x="370.4" y="-377.57" font-family="Arial" font-size="14.00">Estética</text>
<text text-anchor="middle" x="370.4" y="-361.82" font-family="Arial" font-size="14.00">(PCC18h&#45;a)</text>
</g>
<!-- PSI5137&#45;&gt;FIL6020 -->
<!-- FIL6021 -->
<g id="node23" class="node">
<title>FIL6021</title>
<g id="a_node23"><a xlink:title="Noções introdutórias de lógica. Lógica proposicional clássica: sintaxe e semântica. Noções de metalógica. Noções de lógicas proposicionais não clássicas. Familiarizar o estudante com noções fundamentais acerca de argumentação e da noção de validade de argumentos. Propiciar à/ao estudante conhecimento da linguagem básica da lógica proposicional clássica, bem como das definições semântica e sintática de consequência lógica. Fornecer ao estudante ferramentas para reconhecer argumentos válidos do ponto de vista da lógica clássica. Atividades práticas de ensino, pesquisa e extensão em lógica.">
<polygon fill="#8dd3c7" stroke="#8dd3c7" points="420.8,-337.62 320,-337.62 320,-266.38 420.8,-266.38 420.8,-337.62"/>
<text text-anchor="middle" x="370.4" y="-320.32" font-family="Arial" font-size="14.00">FIL6021</text>
<text text-anchor="middle" x="370.4" y="-288.57" font-family="Arial" font-size="14.00">Lógica I</text>
<text text-anchor="middle" x="370.4" y="-272.82" font-family="Arial" font-size="14.00">(PCC18h&#45;a)</text>
</a>
</g>
</g>
<!-- PSI5137&#45;&gt;FIL6021 -->
<!-- FIL6022 -->
<g id="node24" class="node">
<title>FIL6022</title>
<polygon fill="#8dd3c7" stroke="#8dd3c7" points="563.57,-143.5 462.77,-143.5 462.77,-56.5 563.57,-56.5 563.57,-143.5"/>
<text text-anchor="middle" x="513.17" y="-126.2" font-family="Arial" font-size="14.00">FIL6022</text>
<text text-anchor="middle" x="513.17" y="-94.45" font-family="Arial" font-size="14.00">História da</text>
<text text-anchor="middle" x="513.17" y="-78.7" font-family="Arial" font-size="14.00">Filosofia IV</text>
<text text-anchor="middle" x="513.17" y="-62.95" font-family="Arial" font-size="14.00">(PCC 18h&#45;a)</text>
</g>
<!-- FIL6021&#45;&gt;FIL6022 -->
<!-- FIL6023 -->
<g id="node25" class="node">
<title>FIL6023</title>
<polygon fill="#8dd3c7" stroke="#8dd3c7" points="563.57,-531.5 462.77,-531.5 462.77,-444.5 563.57,-444.5 563.57,-531.5"/>
<text text-anchor="middle" x="513.17" y="-514.2" font-family="Arial" font-size="14.00">FIL6023</text>
<text text-anchor="middle" x="513.17" y="-482.45" font-family="Arial" font-size="14.00">Filosofia da</text>
<text text-anchor="middle" x="513.17" y="-466.7" font-family="Arial" font-size="14.00">Ciência (PC</text>
<text text-anchor="middle" x="513.17" y="-450.95" font-family="Arial" font-size="14.00">18h&#45;a)</text>
</g>
<!-- FIL6021&#45;&gt;FIL6023 -->
<!-- FIL6024 -->
<g id="node26" class="node">
<title>FIL6024</title>
<polygon fill="#8dd3c7" stroke="#8dd3c7" points="563.57,-426.62 462.77,-426.62 462.77,-355.38 563.57,-355.38 563.57,-426.62"/>
<text text-anchor="middle" x="513.17" y="-409.32" font-family="Arial" font-size="14.00">FIL6024</text>
<text text-anchor="middle" x="513.17" y="-377.57" font-family="Arial" font-size="14.00">Ontologia II</text>
<text text-anchor="middle" x="513.17" y="-361.82" font-family="Arial" font-size="14.00">(PCC 18h&#45;a)</text>
</g>
<!-- FIL6021&#45;&gt;FIL6024 -->
<!-- FIL6025 -->
<g id="node27" class="node">
<title>FIL6025</title>
<g id="a_node27"><a xlink:title="Cálculo clássico de primeira ordem. Teorias formalizadas. Procedimentos de prova. Noções sobre lógicas de ordem superior. Propiciar ao estudante familiaridade com a lógica clássica de primeira ordem e com procedimentos de prova, bem como a compreensão de alguns resultados fundamentais sobre a lógica clássica e teorias elementares. Atividades práticas de ensino, pesquisa e extensão em lógica.">
<polygon fill="#8dd3c7" stroke="#8dd3c7" points="565.05,-337.62 461.3,-337.62 461.3,-266.38 565.05,-266.38 565.05,-337.62"/>
<text text-anchor="middle" x="513.17" y="-320.32" font-family="Arial" font-size="14.00">FIL6025</text>
<text text-anchor="middle" x="513.17" y="-288.57" font-family="Arial" font-size="14.00">Lógica II (PCC</text>
<text text-anchor="middle" x="513.17" y="-272.82" font-family="Arial" font-size="14.00">18h&#45;a)</text>
</a>
</g>
</g>
<!-- FIL6021&#45;&gt;FIL6025 -->
<g id="edge11" class="edge">
<title>FIL6021&#45;&gt;FIL6025</title>
<path fill="none" stroke="#8dd3c7" stroke-width="2" d="M421.14,-317.27C421.14,-317.27 458.65,-317.27 458.65,-317.27"/>
<polygon fill="#8dd3c7" stroke="#8dd3c7" stroke-width="2" points="460.15,-314.77 460.15,-319.77 459.15,-319.77 459.15,-314.77 460.15,-314.77"/>
<polyline fill="none" stroke="#8dd3c7" stroke-width="2" points="460.65,-317.27 458.15,-317.27"/>
</g>
<!-- FIL6021&#45;&gt;FIL6025 -->
<!-- FIL6090 -->
<g id="node28" class="node">
<title>FIL6090</title>
<polygon fill="#8dd3c7" stroke="#8dd3c7" points="569.55,-248.5 456.8,-248.5 456.8,-161.5 569.55,-161.5 569.55,-248.5"/>
<text text-anchor="middle" x="513.17" y="-231.2" font-family="Arial" font-size="14.00">FIL6090</text>
<text text-anchor="middle" x="513.17" y="-199.45" font-family="Arial" font-size="14.00">Filosofia da</text>
<text text-anchor="middle" x="513.17" y="-183.7" font-family="Arial" font-size="14.00">Educação (PCC</text>
<text text-anchor="middle" x="513.17" y="-167.95" font-family="Arial" font-size="14.00">18h&#45;a)</text>
</g>
<!-- FIL6021&#45;&gt;FIL6090 -->
<!-- FIL6026 -->
<g id="node29" class="node">
<title>FIL6026</title>
<polygon fill="#8dd3c7" stroke="#8dd3c7" points="713.42,-272.62 611.92,-272.62 611.92,-201.38 713.42,-201.38 713.42,-272.62"/>
<text text-anchor="middle" x="662.67" y="-255.32" font-family="Arial" font-size="14.00">FIL6026</text>
<text text-anchor="middle" x="662.67" y="-223.57" font-family="Arial" font-size="14.00">Ética Aplicada</text>
<text text-anchor="middle" x="662.67" y="-207.82" font-family="Arial" font-size="14.00">(PCC 18h&#45;a)</text>
</g>
<!-- FIL6090&#45;&gt;FIL6026 -->
<!-- FIL6028 -->
<g id="node30" class="node">
<title>FIL6028</title>
<polygon fill="#8dd3c7" stroke="#8dd3c7" points="713.07,-377.5 612.27,-377.5 612.27,-290.5 713.07,-290.5 713.07,-377.5"/>
<text text-anchor="middle" x="662.67" y="-360.2" font-family="Arial" font-size="14.00">FIL6028</text>
<text text-anchor="middle" x="662.67" y="-328.45" font-family="Arial" font-size="14.00">Filosofia da</text>
<text text-anchor="middle" x="662.67" y="-312.7" font-family="Arial" font-size="14.00">Linguagem</text>
<text text-anchor="middle" x="662.67" y="-296.95" font-family="Arial" font-size="14.00">(PCC18h&#45;a)</text>
</g>
<!-- FIL6090&#45;&gt;FIL6028 -->
<!-- FIL6090&#45;&gt;FIL6091 -->
<!-- MEN5602 -->
<g id="node32" class="node">
<title>MEN5602</title>
<g id="a_node32"><a xlink:title="&#45; Educação escolar como fenômeno histórico&#45;social. Currículo e trabalho pedagógico no contexto escolar. As relações de ensino&#45;aprendizagem em contexto escolar. Mediações pedagógicas e suas relações com o ensino da área específica do curso.">
<polygon fill="#ffffb3" stroke="#ffffb3" points="719.8,-183.62 605.55,-183.62 605.55,-112.38 719.8,-112.38 719.8,-183.62"/>
<text text-anchor="middle" x="662.67" y="-166.32" font-family="Arial" font-size="14.00">MEN5602</text>
<text text-anchor="middle" x="662.67" y="-134.57" font-family="Arial" font-size="14.00">Didática B (PCC</text>
<text text-anchor="middle" x="662.67" y="-118.83" font-family="Arial" font-size="14.00">12h&#45;a)</text>
</a>
</g>
</g>
<!-- FIL6090&#45;&gt;MEN5602 -->
<!-- FIL6030 -->
<g id="node33" class="node">
<title>FIL6030</title>
<polygon fill="#8dd3c7" stroke="#8dd3c7" points="867.8,-337.5 758.8,-337.5 758.8,-250.5 867.8,-250.5 867.8,-337.5"/>
<text text-anchor="middle" x="813.3" y="-320.2" font-family="Arial" font-size="14.00">FIL6030</text>
<text text-anchor="middle" x="813.3" y="-288.45" font-family="Arial" font-size="14.00">Pesquisa</text>
<text text-anchor="middle" x="813.3" y="-272.7" font-family="Arial" font-size="14.00">Supervisionada</text>
<text text-anchor="middle" x="813.3" y="-256.95" font-family="Arial" font-size="14.00">em Filosofia I</text>
</g>
<!-- FIL6091&#45;&gt;FIL6030 -->
<g id="edge13" class="edge">
<title>FIL6091&#45;&gt;FIL6030</title>
<path fill="none" stroke="#8dd3c7" stroke-width="2" d="M713.42,-447C757.32,-447 813.8,-447 813.8,-447 813.8,-447 813.8,-340.34 813.8,-340.34"/>
<polygon fill="#8dd3c7" stroke="#8dd3c7" stroke-width="2" points="811.3,-338.84 816.3,-338.84 816.3,-339.84 811.3,-339.84 811.3,-338.84"/>
<polyline fill="none" stroke="#8dd3c7" stroke-width="2" points="813.8,-338.34 813.8,-340.84"/>
</g>
<!-- MEN5602&#45;&gt;FIL6030 -->
<!-- FIL6031 -->
<g id="node34" class="node">
<title>FIL6031</title>
<polygon fill="#8dd3c7" stroke="#8dd3c7" points="870.8,-111.5 755.8,-111.5 755.8,-24.5 870.8,-24.5 870.8,-111.5"/>
<text text-anchor="middle" x="813.3" y="-94.2" font-family="Arial" font-size="14.00">FIL6031</text>
<text text-anchor="middle" x="813.3" y="-62.45" font-family="Arial" font-size="14.00">Teoria do</text>
<text text-anchor="middle" x="813.3" y="-46.7" font-family="Arial" font-size="14.00">Conhecimento II</text>
<text text-anchor="middle" x="813.3" y="-30.95" font-family="Arial" font-size="14.00">(PCC 18h&#45;a)</text>
</g>
<!-- MEN5602&#45;&gt;FIL6031 -->
<!-- LSB7244 -->
<g id="node35" class="node">
<title>LSB7244</title>
<g id="a_node35"><a xlink:title="Prática de conversação em Libras habilitando o aluno a se comunicar nível básico. Mitos e Crenças relacionadas à Língua Brasileira de Sinais (Libras) e aos Surdos. Noções sobre os estudos linguísticos das línguas de sinais em diferentes níveis da descrição linguística. Conceitos básicos da Língua Brasileira de Sinais como iconicidade e arbitrariedade e aspectos culturais e históricos específicos da comunidade surda brasileira. Educação de surdos, papéis dos professores e de intérpretes de libras&#45;português em uma perspectiva inclusiva. Atividades de prática como componente curricular aplicadas à comunicação em Libras.">
<polygon fill="#fb8072" stroke="#fb8072" points="864.05,-232.38 762.55,-232.38 762.55,-129.62 864.05,-129.62 864.05,-232.38"/>
<text text-anchor="middle" x="813.3" y="-215.07" font-family="Arial" font-size="14.00">LSB7244</text>
<text text-anchor="middle" x="813.3" y="-183.32" font-family="Arial" font-size="14.00">Língua</text>
<text text-anchor="middle" x="813.3" y="-167.57" font-family="Arial" font-size="14.00">Brasileira de</text>
<text text-anchor="middle" x="813.3" y="-151.82" font-family="Arial" font-size="14.00">Sinais &#45; Libras</text>
<text text-anchor="middle" x="813.3" y="-136.07" font-family="Arial" font-size="14.00">I (PCC 18h&#45;a)</text>
</a>
</g>
</g>
<!-- MEN5602&#45;&gt;LSB7244 -->
<!-- MEN1942 -->
<g id="node37" class="node">
<title>MEN1942</title>
<g id="a_node37"><a xlink:title="&#45;Jogos, brinquedos, brincadeiras, imaginação. Brinquedoteca e espaços lúdicos e criativos. Práticas e mediações lúdico&#45;educativas">
<polygon fill="#ffffb3" stroke="#ffffb3" points="1015.8,-376.38 906.8,-376.38 906.8,-273.62 1015.8,-273.62 1015.8,-376.38"/>
<text text-anchor="middle" x="961.3" y="-359.07" font-family="Arial" font-size="14.00">MEN1942</text>
<text text-anchor="middle" x="961.3" y="-327.32" font-family="Arial" font-size="14.00">Metodologia de</text>
<text text-anchor="middle" x="961.3" y="-311.57" font-family="Arial" font-size="14.00">Ensino de</text>
<text text-anchor="middle" x="961.3" y="-295.82" font-family="Arial" font-size="14.00">Filosofia (PCC</text>
<text text-anchor="middle" x="961.3" y="-280.07" font-family="Arial" font-size="14.00">43h&#45;a)</text>
</a>
</g>
</g>
<!-- MEN5602&#45;&gt;MEN1942 -->
<g id="edge15" class="edge">
<title>MEN5602&#45;&gt;MEN1942</title>
<path fill="none" stroke="#ffffb3" stroke-width="2" d="M720.05,-123.88C788.79,-123.88 894.8,-123.88 894.8,-123.88 894.8,-123.88 894.8,-294.92 894.8,-294.92 894.8,-294.92 903.88,-294.92 903.88,-294.92"/>
<polygon fill="#ffffb3" stroke="#ffffb3" stroke-width="2" points="905.38,-292.42 905.38,-297.42 904.38,-297.42 904.38,-292.42 905.38,-292.42"/>
<polyline fill="none" stroke="#ffffb3" stroke-width="2" points="905.88,-294.92 903.38,-294.92"/>
</g>
<!-- FIL6032 -->
<g id="node36" class="node">
<title>FIL6032</title>
<polygon fill="#8dd3c7" stroke="#8dd3c7" points="1015.8,-255.5 906.8,-255.5 906.8,-168.5 1015.8,-168.5 1015.8,-255.5"/>
<text text-anchor="middle" x="961.3" y="-238.2" font-family="Arial" font-size="14.00">FIL6032</text>
<text text-anchor="middle" x="961.3" y="-206.45" font-family="Arial" font-size="14.00">Pesquisa</text>
<text text-anchor="middle" x="961.3" y="-190.7" font-family="Arial" font-size="14.00">Supervisionada</text>
<text text-anchor="middle" x="961.3" y="-174.95" font-family="Arial" font-size="14.00">em Filosofia II</text>
</g>
<!-- FIL6030&#45;&gt;FIL6032 -->
<g id="edge14" class="edge">
<title>FIL6030&#45;&gt;FIL6032</title>
<path fill="none" stroke="#8dd3c7" stroke-width="2" d="M813.8,-250.12C813.8,-244.93 813.8,-241.44 813.8,-241.44 813.8,-241.44 903.88,-241.44 903.88,-241.44"/>
<polygon fill="#8dd3c7" stroke="#8dd3c7" stroke-width="2" points="905.38,-238.94 905.38,-243.94 904.38,-243.94 904.38,-238.94 905.38,-238.94"/>
<polyline fill="none" stroke="#8dd3c7" stroke-width="2" points="905.88,-241.44 903.38,-241.44"/>
</g>
<!-- LSB7244&#45;&gt;FIL6032 -->
<!-- LSB7244&#45;&gt;MEN1942 -->
<!-- MEN5315 -->
<g id="node38" class="node">
<title>MEN5315</title>
<g id="a_node38"><a xlink:title="Discussão sobre ensino de filosofia na escola, cadastro SIARE, observação e atividade de docência em filosofia, participação em atividades da escola, elaboração de relatórios de observação e acompanhamento, elaboração e apresentação de ensaio crítico sobre a experiência de estágio docente.">
<polygon fill="#ffffb3" stroke="#ffffb3" points="1160.8,-376.38 1051.8,-376.38 1051.8,-273.62 1160.8,-273.62 1160.8,-376.38"/>
<text text-anchor="middle" x="1106.3" y="-359.07" font-family="Arial" font-size="14.00">MEN5315</text>
<text text-anchor="middle" x="1106.3" y="-327.32" font-family="Arial" font-size="14.00">Estágio</text>
<text text-anchor="middle" x="1106.3" y="-311.57" font-family="Arial" font-size="14.00">Supervisionado</text>
<text text-anchor="middle" x="1106.3" y="-295.82" font-family="Arial" font-size="14.00">de Ensino de</text>
<text text-anchor="middle" x="1106.3" y="-280.07" font-family="Arial" font-size="14.00">Filosofia I</text>
</a>
</g>
</g>
<!-- MEN1942&#45;&gt;MEN5315 -->
<g id="edge16" class="edge">
<title>MEN1942&#45;&gt;MEN5315</title>
<path fill="none" stroke="#ffffb3" stroke-width="2" d="M1016.12,-307.88C1016.12,-307.88 1048.9,-307.88 1048.9,-307.88"/>
<polygon fill="#ffffb3" stroke="#ffffb3" stroke-width="2" points="1050.4,-305.38 1050.4,-310.38 1049.4,-310.38 1049.4,-305.38 1050.4,-305.38"/>
<polyline fill="none" stroke="#ffffb3" stroke-width="2" points="1050.9,-307.88 1048.4,-307.88"/>
</g>
<!-- MEN1942&#45;&gt;MEN5315 -->
<!-- MEN5316 -->
<g id="node39" class="node">
<title>MEN5316</title>
<g id="a_node39"><a xlink:title="Discussão sobre filosofia e possibilidades de aprendê&#45;la e ensiná&#45;la, docência em filosofia e participação em atividades da escola, elaboração de cronograma docente com base no plano de ensino do professor supervisor da escola, planos de aula e relato de docência, gravação de aulas em vídeo, elaboração e apresentação dos ensaios pedagógicos.">
<polygon fill="#ffffb3" stroke="#ffffb3" points="1305.8,-376.38 1196.8,-376.38 1196.8,-273.62 1305.8,-273.62 1305.8,-376.38"/>
<text text-anchor="middle" x="1251.3" y="-359.07" font-family="Arial" font-size="14.00">MEN5316</text>
<text text-anchor="middle" x="1251.3" y="-327.32" font-family="Arial" font-size="14.00">Estágio</text>
<text text-anchor="middle" x="1251.3" y="-311.57" font-family="Arial" font-size="14.00">Supervisionado</text>
<text text-anchor="middle" x="1251.3" y="-295.82" font-family="Arial" font-size="14.00">de Ensino de</text>
<text text-anchor="middle" x="1251.3" y="-280.07" font-family="Arial" font-size="14.00">Filosofia II</text>
</a>
</g>
</g>
<!-- MEN5315&#45;&gt;MEN5316 -->
<g id="edge17" class="edge">
<title>MEN5315&#45;&gt;MEN5316</title>
<path fill="none" stroke="#ffffb3" stroke-width="2" d="M1161.12,-307.88C1161.12,-307.88 1193.9,-307.88 1193.9,-307.88"/>
<polygon fill="#ffffb3" stroke="#ffffb3" stroke-width="2" points="1195.4,-305.38 1195.4,-310.38 1194.4,-310.38 1194.4,-305.38 1195.4,-305.38"/>
<polyline fill="none" stroke="#ffffb3" stroke-width="2" points="1195.9,-307.88 1193.4,-307.88"/>
</g>
<!-- MEN5315&#45;&gt;MEN5316 -->
</g>
</svg>
