<?xml version="1.0" encoding="UTF-8" standalone="no"?>
<!DOCTYPE svg PUBLIC "-//W3C//DTD SVG 1.1//EN"
 "http://www.w3.org/Graphics/SVG/1.1/DTD/svg11.dtd">
<!-- Generated by graphviz version 9.0.0 (0)
 -->
<!-- Title: grafo_materias Pages: 1 -->
<svg width="1010pt" height="518pt"
 viewBox="0.00 0.00 1010.30 518.00" xmlns="http://www.w3.org/2000/svg" xmlns:xlink="http://www.w3.org/1999/xlink">
<g id="graph0" class="graph" transform="scale(1 1) rotate(0) translate(4 514)">
<title>grafo_materias</title>
<polygon fill="none" stroke="none" points="-4,4 -4,-514 1006.3,-514 1006.3,4 -4,4"/>
<g id="clust1" class="cluster">
<title>cluster_everything</title>
<polygon fill="none" stroke="none" points="8,-8 8,-502 994.3,-502 994.3,-8 8,-8"/>
</g>
<g id="clust2" class="cluster">
<title>cluster_header</title>
<polygon fill="none" stroke="none" points="17.48,-442 17.48,-494 982.2,-494 982.2,-442 17.48,-442"/>
</g>
<g id="clust3" class="cluster">
<title>cluster_0</title>
<polygon fill="none" stroke="none" points="16,-16 16,-434 135.75,-434 135.75,-16 16,-16"/>
</g>
<g id="clust4" class="cluster">
<title>cluster_1</title>
<polygon fill="none" stroke="none" points="155.75,-16 155.75,-403 276.25,-403 276.25,-16 155.75,-16"/>
</g>
<g id="clust5" class="cluster">
<title>cluster_2</title>
<polygon fill="none" stroke="none" points="296.25,-16 296.25,-403 413.05,-403 413.05,-16 296.25,-16"/>
</g>
<g id="clust6" class="cluster">
<title>cluster_3</title>
<polygon fill="none" stroke="none" points="433.05,-16 433.05,-403 552.8,-403 552.8,-16 433.05,-16"/>
</g>
<g id="clust7" class="cluster">
<title>cluster_4</title>
<polygon fill="none" stroke="none" points="572.8,-16 572.8,-329 690.3,-329 690.3,-16 572.8,-16"/>
</g>
<g id="clust8" class="cluster">
<title>cluster_5</title>
<polygon fill="none" stroke="none" points="710.3,-16 710.3,-225 841.3,-225 841.3,-16 710.3,-16"/>
</g>
<g id="clust9" class="cluster">
<title>cluster_6</title>
<polygon fill="none" stroke="none" points="861.3,-68 861.3,-172 986.3,-172 986.3,-68 861.3,-68"/>
</g>
<!-- 1ª fase -->
<g id="node1" class="node">
<title>1ª fase</title>
<polygon fill="lightgrey" stroke="black" points="126.28,-486 25.48,-486 25.48,-450 126.28,-450 126.28,-486"/>
<text text-anchor="middle" x="75.88" y="-462.57" font-family="Arial" font-size="14.00">1ª fase</text>
</g>
<!-- 2ª Fase -->
<g id="node2" class="node">
<title>2ª Fase</title>
<polygon fill="lightgrey" stroke="black" points="266.4,-486 165.6,-486 165.6,-450 266.4,-450 266.4,-486"/>
<text text-anchor="middle" x="216" y="-462.57" font-family="Arial" font-size="14.00">2ª Fase</text>
</g>
<!-- 1ª fase&#45;&gt;2ª Fase -->
<!-- 3ª Fase -->
<g id="node3" class="node">
<title>3ª Fase</title>
<polygon fill="lightgrey" stroke="black" points="405.05,-486 304.25,-486 304.25,-450 405.05,-450 405.05,-486"/>
<text text-anchor="middle" x="354.65" y="-462.57" font-family="Arial" font-size="14.00">3ª Fase</text>
</g>
<!-- 2ª Fase&#45;&gt;3ª Fase -->
<!-- 4ª Fase -->
<g id="node4" class="node">
<title>4ª Fase</title>
<polygon fill="lightgrey" stroke="black" points="543.32,-486 442.52,-486 442.52,-450 543.32,-450 543.32,-486"/>
<text text-anchor="middle" x="492.92" y="-462.57" font-family="Arial" font-size="14.00">4ª Fase</text>
</g>
<!-- 3ª Fase&#45;&gt;4ª Fase -->
<!-- 5ª Fase -->
<g id="node5" class="node">
<title>5ª Fase</title>
<polygon fill="lightgrey" stroke="black" points="681.95,-486 581.15,-486 581.15,-450 681.95,-450 681.95,-486"/>
<text text-anchor="middle" x="631.55" y="-462.57" font-family="Arial" font-size="14.00">5ª Fase</text>
</g>
<!-- 4ª Fase&#45;&gt;5ª Fase -->
<!-- 6ª Fase -->
<g id="node6" class="node">
<title>6ª Fase</title>
<polygon fill="lightgrey" stroke="black" points="826.2,-486 725.4,-486 725.4,-450 826.2,-450 826.2,-486"/>
<text text-anchor="middle" x="775.8" y="-462.57" font-family="Arial" font-size="14.00">6ª Fase</text>
</g>
<!-- 5ª Fase&#45;&gt;6ª Fase -->
<!-- 7ª Fase -->
<g id="node7" class="node">
<title>7ª Fase</title>
<polygon fill="lightgrey" stroke="black" points="974.2,-486 873.4,-486 873.4,-450 974.2,-450 974.2,-486"/>
<text text-anchor="middle" x="923.8" y="-462.57" font-family="Arial" font-size="14.00">7ª Fase</text>
</g>
<!-- 6ª Fase&#45;&gt;7ª Fase -->
<!-- FIL6000 -->
<g id="node8" class="node">
<title>FIL6000</title>
<polygon fill="#8dd3c7" stroke="#8dd3c7" points="126.28,-111.5 25.48,-111.5 25.48,-24.5 126.28,-24.5 126.28,-111.5"/>
<text text-anchor="middle" x="75.88" y="-94.2" font-family="Arial" font-size="14.00">FIL6000</text>
<text text-anchor="middle" x="75.88" y="-62.45" font-family="Arial" font-size="14.00">História da</text>
<text text-anchor="middle" x="75.88" y="-46.7" font-family="Arial" font-size="14.00">Filosofia I</text>
<text text-anchor="middle" x="75.88" y="-30.95" font-family="Arial" font-size="14.00">(PCC 18h&#45;a)</text>
</g>
<!-- FIL6010 -->
<g id="node12" class="node">
<title>FIL6010</title>
<polygon fill="#8dd3c7" stroke="#8dd3c7" points="266.4,-305.5 165.6,-305.5 165.6,-218.5 266.4,-218.5 266.4,-305.5"/>
<text text-anchor="middle" x="216" y="-288.2" font-family="Arial" font-size="14.00">FIL6010</text>
<text text-anchor="middle" x="216" y="-256.45" font-family="Arial" font-size="14.00">História da</text>
<text text-anchor="middle" x="216" y="-240.7" font-family="Arial" font-size="14.00">Filosofia II</text>
<text text-anchor="middle" x="216" y="-224.95" font-family="Arial" font-size="14.00">(PCC 18h&#45;a)</text>
</g>
<!-- FIL6000&#45;&gt;FIL6010 -->
<!-- FIL6011 -->
<g id="node13" class="node">
<title>FIL6011</title>
<polygon fill="#8dd3c7" stroke="#8dd3c7" points="266.4,-200.62 165.6,-200.62 165.6,-129.38 266.4,-129.38 266.4,-200.62"/>
<text text-anchor="middle" x="216" y="-183.32" font-family="Arial" font-size="14.00">FIL6011</text>
<text text-anchor="middle" x="216" y="-151.57" font-family="Arial" font-size="14.00">Ontologia I</text>
<text text-anchor="middle" x="216" y="-135.82" font-family="Arial" font-size="14.00">(PCC 18h&#45;a)</text>
</g>
<!-- FIL6000&#45;&gt;FIL6011 -->
<!-- FIL6012 -->
<g id="node14" class="node">
<title>FIL6012</title>
<polygon fill="#8dd3c7" stroke="#8dd3c7" points="266.4,-394.62 165.6,-394.62 165.6,-323.38 266.4,-323.38 266.4,-394.62"/>
<text text-anchor="middle" x="216" y="-377.32" font-family="Arial" font-size="14.00">FIL6012</text>
<text text-anchor="middle" x="216" y="-345.57" font-family="Arial" font-size="14.00">Ética II (PCC</text>
<text text-anchor="middle" x="216" y="-329.82" font-family="Arial" font-size="14.00">18h&#45;a)</text>
</g>
<!-- FIL6000&#45;&gt;FIL6012 -->
<!-- FIL6013 -->
<g id="node15" class="node">
<title>FIL6013</title>
<polygon fill="#8dd3c7" stroke="#8dd3c7" points="268.25,-111.5 163.75,-111.5 163.75,-24.5 268.25,-24.5 268.25,-111.5"/>
<text text-anchor="middle" x="216" y="-94.2" font-family="Arial" font-size="14.00">FIL6013</text>
<text text-anchor="middle" x="216" y="-62.45" font-family="Arial" font-size="14.00">Filosofia</text>
<text text-anchor="middle" x="216" y="-46.7" font-family="Arial" font-size="14.00">Política I (PCC</text>
<text text-anchor="middle" x="216" y="-30.95" font-family="Arial" font-size="14.00">18h&#45;a)</text>
</g>
<!-- FIL6000&#45;&gt;FIL6013 -->
<!-- FIL6004 -->
<g id="node9" class="node">
<title>FIL6004</title>
<polygon fill="#8dd3c7" stroke="#8dd3c7" points="127.75,-305.5 24,-305.5 24,-218.5 127.75,-218.5 127.75,-305.5"/>
<text text-anchor="middle" x="75.88" y="-288.2" font-family="Arial" font-size="14.00">FIL6004</text>
<text text-anchor="middle" x="75.88" y="-256.45" font-family="Arial" font-size="14.00">Teoria do</text>
<text text-anchor="middle" x="75.88" y="-240.7" font-family="Arial" font-size="14.00">Conhecimento</text>
<text text-anchor="middle" x="75.88" y="-224.95" font-family="Arial" font-size="14.00">(PCC 18h&#45;a)</text>
</g>
<!-- FIL6006 -->
<g id="node10" class="node">
<title>FIL6006</title>
<polygon fill="#8dd3c7" stroke="#8dd3c7" points="126.28,-200.62 25.48,-200.62 25.48,-129.38 126.28,-129.38 126.28,-200.62"/>
<text text-anchor="middle" x="75.88" y="-183.32" font-family="Arial" font-size="14.00">FIL6006</text>
<text text-anchor="middle" x="75.88" y="-151.57" font-family="Arial" font-size="14.00">Ética I (PCC</text>
<text text-anchor="middle" x="75.88" y="-135.82" font-family="Arial" font-size="14.00">18h&#45;a)</text>
</g>
<!-- FIL6006&#45;&gt;FIL6012 -->
<g id="edge7" class="edge">
<title>FIL6006&#45;&gt;FIL6012</title>
<path fill="none" stroke="#8dd3c7" stroke-width="2" d="M126.53,-176.88C131.81,-176.88 135.3,-176.88 135.3,-176.88 135.3,-176.88 135.3,-370.96 135.3,-370.96 135.3,-370.96 162.85,-370.96 162.85,-370.96"/>
<polygon fill="#8dd3c7" stroke="#8dd3c7" stroke-width="2" points="164.35,-368.46 164.35,-373.46 163.35,-373.46 163.35,-368.46 164.35,-368.46"/>
<polyline fill="none" stroke="#8dd3c7" stroke-width="2" points="164.85,-370.96 162.35,-370.96"/>
</g>
<!-- FIL6017 -->
<g id="node11" class="node">
<title>FIL6017</title>
<polygon fill="#8dd3c7" stroke="#8dd3c7" points="127.38,-426.38 24.38,-426.38 24.38,-323.62 127.38,-323.62 127.38,-426.38"/>
<text text-anchor="middle" x="75.88" y="-409.07" font-family="Arial" font-size="14.00">FIL6017</text>
<text text-anchor="middle" x="75.88" y="-377.32" font-family="Arial" font-size="14.00">Iniciação à</text>
<text text-anchor="middle" x="75.88" y="-361.57" font-family="Arial" font-size="14.00">Pesquisa em</text>
<text text-anchor="middle" x="75.88" y="-345.82" font-family="Arial" font-size="14.00">Filosofia (PCC</text>
<text text-anchor="middle" x="75.88" y="-330.07" font-family="Arial" font-size="14.00">36h&#45;a)</text>
</g>
<!-- FIL6027 -->
<g id="node25" class="node">
<title>FIL6027</title>
<polygon fill="#8dd3c7" stroke="#8dd3c7" points="681.95,-321.38 581.15,-321.38 581.15,-218.62 681.95,-218.62 681.95,-321.38"/>
<text text-anchor="middle" x="631.55" y="-304.07" font-family="Arial" font-size="14.00">FIL6027</text>
<text text-anchor="middle" x="631.55" y="-272.32" font-family="Arial" font-size="14.00">Seminário de</text>
<text text-anchor="middle" x="631.55" y="-256.57" font-family="Arial" font-size="14.00">Pesquisa em</text>
<text text-anchor="middle" x="631.55" y="-240.82" font-family="Arial" font-size="14.00">Filosofia</text>
<text text-anchor="middle" x="631.55" y="-225.07" font-family="Arial" font-size="14.00">(PCC18h&#45;a)</text>
</g>
<!-- FIL6017&#45;&gt;FIL6027 -->
<g id="edge10" class="edge">
<title>FIL6017&#45;&gt;FIL6027</title>
<path fill="none" stroke="#8dd3c7" stroke-width="2" d="M127.72,-410.5C265.86,-410.5 632.3,-410.5 632.3,-410.5 632.3,-410.5 632.3,-324.02 632.3,-324.02"/>
<polygon fill="#8dd3c7" stroke="#8dd3c7" stroke-width="2" points="629.8,-322.52 634.8,-322.52 634.8,-323.52 629.8,-323.52 629.8,-322.52"/>
<polyline fill="none" stroke="#8dd3c7" stroke-width="2" points="632.3,-322.02 632.3,-324.52"/>
</g>
<!-- FIL6018 -->
<g id="node16" class="node">
<title>FIL6018</title>
<polygon fill="#8dd3c7" stroke="#8dd3c7" points="405.05,-394.5 304.25,-394.5 304.25,-307.5 405.05,-307.5 405.05,-394.5"/>
<text text-anchor="middle" x="354.65" y="-377.2" font-family="Arial" font-size="14.00">FIL6018</text>
<text text-anchor="middle" x="354.65" y="-345.45" font-family="Arial" font-size="14.00">História da</text>
<text text-anchor="middle" x="354.65" y="-329.7" font-family="Arial" font-size="14.00">Filosofia III</text>
<text text-anchor="middle" x="354.65" y="-313.95" font-family="Arial" font-size="14.00">(PCC 18h&#45;a)</text>
</g>
<!-- FIL6013&#45;&gt;FIL6018 -->
<!-- FIL6019 -->
<g id="node17" class="node">
<title>FIL6019</title>
<polygon fill="#8dd3c7" stroke="#8dd3c7" points="405.05,-289.5 304.25,-289.5 304.25,-202.5 405.05,-202.5 405.05,-289.5"/>
<text text-anchor="middle" x="354.65" y="-272.2" font-family="Arial" font-size="14.00">FIL6019</text>
<text text-anchor="middle" x="354.65" y="-240.45" font-family="Arial" font-size="14.00">Filosofia</text>
<text text-anchor="middle" x="354.65" y="-224.7" font-family="Arial" font-size="14.00">Política II</text>
<text text-anchor="middle" x="354.65" y="-208.95" font-family="Arial" font-size="14.00">(PCC18h&#45;a)</text>
</g>
<!-- FIL6013&#45;&gt;FIL6019 -->
<g id="edge8" class="edge">
<title>FIL6013&#45;&gt;FIL6019</title>
<path fill="none" stroke="#8dd3c7" stroke-width="2" d="M268.56,-101.98C278.73,-101.98 286.3,-101.98 286.3,-101.98 286.3,-101.98 286.3,-213.17 286.3,-213.17 286.3,-213.17 301.4,-213.17 301.4,-213.17"/>
<polygon fill="#8dd3c7" stroke="#8dd3c7" stroke-width="2" points="302.9,-210.67 302.9,-215.67 301.9,-215.67 301.9,-210.67 302.9,-210.67"/>
<polyline fill="none" stroke="#8dd3c7" stroke-width="2" points="303.4,-213.17 300.9,-213.17"/>
</g>
<!-- FIL6013&#45;&gt;FIL6019 -->
<!-- FIL6020 -->
<g id="node18" class="node">
<title>FIL6020</title>
<polygon fill="#8dd3c7" stroke="#8dd3c7" points="405.05,-184.62 304.25,-184.62 304.25,-113.38 405.05,-113.38 405.05,-184.62"/>
<text text-anchor="middle" x="354.65" y="-167.32" font-family="Arial" font-size="14.00">FIL6020</text>
<text text-anchor="middle" x="354.65" y="-135.57" font-family="Arial" font-size="14.00">Estética</text>
<text text-anchor="middle" x="354.65" y="-119.83" font-family="Arial" font-size="14.00">(PCC18h&#45;a)</text>
</g>
<!-- FIL6013&#45;&gt;FIL6020 -->
<!-- FIL6021 -->
<g id="node19" class="node">
<title>FIL6021</title>
<g id="a_node19"><a xlink:title="Noções introdutórias de lógica. Lógica proposicional clássica: sintaxe e semântica. Noções de metalógica. Noções de lógicas proposicionais não clássicas. Familiarizar o estudante com noções fundamentais acerca de argumentação e da noção de validade de argumentos. Propiciar à/ao estudante conhecimento da linguagem básica da lógica proposicional clássica, bem como das definições semântica e sintática de consequência lógica. Fornecer ao estudante ferramentas para reconhecer argumentos válidos do ponto de vista da lógica clássica. Atividades práticas de ensino, pesquisa e extensão em lógica.">
<polygon fill="#8dd3c7" stroke="#8dd3c7" points="405.05,-95.62 304.25,-95.62 304.25,-24.38 405.05,-24.38 405.05,-95.62"/>
<text text-anchor="middle" x="354.65" y="-78.33" font-family="Arial" font-size="14.00">FIL6021</text>
<text text-anchor="middle" x="354.65" y="-46.58" font-family="Arial" font-size="14.00">Lógica I</text>
<text text-anchor="middle" x="354.65" y="-30.82" font-family="Arial" font-size="14.00">(PCC18h&#45;a)</text>
</a>
</g>
</g>
<!-- FIL6013&#45;&gt;FIL6021 -->
<!-- FIL6022 -->
<g id="node20" class="node">
<title>FIL6022</title>
<polygon fill="#8dd3c7" stroke="#8dd3c7" points="543.32,-394.5 442.52,-394.5 442.52,-307.5 543.32,-307.5 543.32,-394.5"/>
<text text-anchor="middle" x="492.92" y="-377.2" font-family="Arial" font-size="14.00">FIL6022</text>
<text text-anchor="middle" x="492.92" y="-345.45" font-family="Arial" font-size="14.00">História da</text>
<text text-anchor="middle" x="492.92" y="-329.7" font-family="Arial" font-size="14.00">Filosofia IV</text>
<text text-anchor="middle" x="492.92" y="-313.95" font-family="Arial" font-size="14.00">(PCC 18h&#45;a)</text>
</g>
<!-- FIL6021&#45;&gt;FIL6022 -->
<!-- FIL6023 -->
<g id="node21" class="node">
<title>FIL6023</title>
<polygon fill="#8dd3c7" stroke="#8dd3c7" points="543.32,-289.5 442.52,-289.5 442.52,-202.5 543.32,-202.5 543.32,-289.5"/>
<text text-anchor="middle" x="492.92" y="-272.2" font-family="Arial" font-size="14.00">FIL6023</text>
<text text-anchor="middle" x="492.92" y="-240.45" font-family="Arial" font-size="14.00">Filosofia da</text>
<text text-anchor="middle" x="492.92" y="-224.7" font-family="Arial" font-size="14.00">Ciência (PC</text>
<text text-anchor="middle" x="492.92" y="-208.95" font-family="Arial" font-size="14.00">18h&#45;a)</text>
</g>
<!-- FIL6021&#45;&gt;FIL6023 -->
<!-- FIL6024 -->
<g id="node22" class="node">
<title>FIL6024</title>
<polygon fill="#8dd3c7" stroke="#8dd3c7" points="543.32,-184.62 442.52,-184.62 442.52,-113.38 543.32,-113.38 543.32,-184.62"/>
<text text-anchor="middle" x="492.92" y="-167.32" font-family="Arial" font-size="14.00">FIL6024</text>
<text text-anchor="middle" x="492.92" y="-135.57" font-family="Arial" font-size="14.00">Ontologia II</text>
<text text-anchor="middle" x="492.92" y="-119.83" font-family="Arial" font-size="14.00">(PCC 18h&#45;a)</text>
</g>
<!-- FIL6021&#45;&gt;FIL6024 -->
<!-- FIL6025 -->
<g id="node23" class="node">
<title>FIL6025</title>
<g id="a_node23"><a xlink:title="Cálculo clássico de primeira ordem. Teorias formalizadas. Procedimentos de prova. Noções sobre lógicas de ordem superior. Propiciar ao estudante familiaridade com a lógica clássica de primeira ordem e com procedimentos de prova, bem como a compreensão de alguns resultados fundamentais sobre a lógica clássica e teorias elementares. Atividades práticas de ensino, pesquisa e extensão em lógica.">
<polygon fill="#8dd3c7" stroke="#8dd3c7" points="544.8,-95.62 441.05,-95.62 441.05,-24.38 544.8,-24.38 544.8,-95.62"/>
<text text-anchor="middle" x="492.92" y="-78.33" font-family="Arial" font-size="14.00">FIL6025</text>
<text text-anchor="middle" x="492.92" y="-46.58" font-family="Arial" font-size="14.00">Lógica II (PCC</text>
<text text-anchor="middle" x="492.92" y="-30.82" font-family="Arial" font-size="14.00">18h&#45;a)</text>
</a>
</g>
</g>
<!-- FIL6021&#45;&gt;FIL6025 -->
<g id="edge9" class="edge">
<title>FIL6021&#45;&gt;FIL6025</title>
<path fill="none" stroke="#8dd3c7" stroke-width="2" d="M405.35,-36.25C405.35,-36.25 438.34,-36.25 438.34,-36.25"/>
<polygon fill="#8dd3c7" stroke="#8dd3c7" stroke-width="2" points="439.84,-33.75 439.84,-38.75 438.84,-38.75 438.84,-33.75 439.84,-33.75"/>
<polyline fill="none" stroke="#8dd3c7" stroke-width="2" points="440.34,-36.25 437.84,-36.25"/>
</g>
<!-- FIL6021&#45;&gt;FIL6025 -->
<!-- FIL6026 -->
<g id="node24" class="node">
<title>FIL6026</title>
<polygon fill="#8dd3c7" stroke="#8dd3c7" points="682.3,-200.62 580.8,-200.62 580.8,-129.38 682.3,-129.38 682.3,-200.62"/>
<text text-anchor="middle" x="631.55" y="-183.32" font-family="Arial" font-size="14.00">FIL6026</text>
<text text-anchor="middle" x="631.55" y="-151.57" font-family="Arial" font-size="14.00">Ética Aplicada</text>
<text text-anchor="middle" x="631.55" y="-135.82" font-family="Arial" font-size="14.00">(PCC 18h&#45;a)</text>
</g>
<!-- FIL6025&#45;&gt;FIL6026 -->
<!-- FIL6025&#45;&gt;FIL6027 -->
<!-- FIL6028 -->
<g id="node26" class="node">
<title>FIL6028</title>
<polygon fill="#8dd3c7" stroke="#8dd3c7" points="681.95,-111.5 581.15,-111.5 581.15,-24.5 681.95,-24.5 681.95,-111.5"/>
<text text-anchor="middle" x="631.55" y="-94.2" font-family="Arial" font-size="14.00">FIL6028</text>
<text text-anchor="middle" x="631.55" y="-62.45" font-family="Arial" font-size="14.00">Filosofia da</text>
<text text-anchor="middle" x="631.55" y="-46.7" font-family="Arial" font-size="14.00">Linguagem</text>
<text text-anchor="middle" x="631.55" y="-30.95" font-family="Arial" font-size="14.00">(PCC18h&#45;a)</text>
</g>
<!-- FIL6025&#45;&gt;FIL6028 -->
<!-- FIL6030 -->
<g id="node27" class="node">
<title>FIL6030</title>
<polygon fill="#8dd3c7" stroke="#8dd3c7" points="830.3,-216.5 721.3,-216.5 721.3,-129.5 830.3,-129.5 830.3,-216.5"/>
<text text-anchor="middle" x="775.8" y="-199.2" font-family="Arial" font-size="14.00">FIL6030</text>
<text text-anchor="middle" x="775.8" y="-167.45" font-family="Arial" font-size="14.00">Pesquisa</text>
<text text-anchor="middle" x="775.8" y="-151.7" font-family="Arial" font-size="14.00">Supervisionada</text>
<text text-anchor="middle" x="775.8" y="-135.95" font-family="Arial" font-size="14.00">em Filosofia I</text>
</g>
<!-- FIL6027&#45;&gt;FIL6030 -->
<g id="edge11" class="edge">
<title>FIL6027&#45;&gt;FIL6030</title>
<path fill="none" stroke="#8dd3c7" stroke-width="2" d="M632.3,-218.17C632.3,-212.94 632.3,-209.5 632.3,-209.5 632.3,-209.5 718.64,-209.5 718.64,-209.5"/>
<polygon fill="#8dd3c7" stroke="#8dd3c7" stroke-width="2" points="720.14,-207 720.14,-212 719.14,-212 719.14,-207 720.14,-207"/>
<polyline fill="none" stroke="#8dd3c7" stroke-width="2" points="720.64,-209.5 718.14,-209.5"/>
</g>
<!-- FIL6028&#45;&gt;FIL6030 -->
<!-- FIL6031 -->
<g id="node28" class="node">
<title>FIL6031</title>
<polygon fill="#8dd3c7" stroke="#8dd3c7" points="833.3,-111.5 718.3,-111.5 718.3,-24.5 833.3,-24.5 833.3,-111.5"/>
<text text-anchor="middle" x="775.8" y="-94.2" font-family="Arial" font-size="14.00">FIL6031</text>
<text text-anchor="middle" x="775.8" y="-62.45" font-family="Arial" font-size="14.00">Teoria do</text>
<text text-anchor="middle" x="775.8" y="-46.7" font-family="Arial" font-size="14.00">Conhecimento II</text>
<text text-anchor="middle" x="775.8" y="-30.95" font-family="Arial" font-size="14.00">(PCC 18h&#45;a)</text>
</g>
<!-- FIL6028&#45;&gt;FIL6031 -->
<!-- FIL6032 -->
<g id="node29" class="node">
<title>FIL6032</title>
<polygon fill="#8dd3c7" stroke="#8dd3c7" points="978.3,-163.5 869.3,-163.5 869.3,-76.5 978.3,-76.5 978.3,-163.5"/>
<text text-anchor="middle" x="923.8" y="-146.2" font-family="Arial" font-size="14.00">FIL6032</text>
<text text-anchor="middle" x="923.8" y="-114.45" font-family="Arial" font-size="14.00">Pesquisa</text>
<text text-anchor="middle" x="923.8" y="-98.7" font-family="Arial" font-size="14.00">Supervisionada</text>
<text text-anchor="middle" x="923.8" y="-82.95" font-family="Arial" font-size="14.00">em Filosofia II</text>
</g>
<!-- FIL6030&#45;&gt;FIL6032 -->
<g id="edge12" class="edge">
<title>FIL6030&#45;&gt;FIL6032</title>
<path fill="none" stroke="#8dd3c7" stroke-width="2" d="M830.49,-146.5C830.49,-146.5 866.34,-146.5 866.34,-146.5"/>
<polygon fill="#8dd3c7" stroke="#8dd3c7" stroke-width="2" points="867.84,-144 867.84,-149 866.84,-149 866.84,-144 867.84,-144"/>
<polyline fill="none" stroke="#8dd3c7" stroke-width="2" points="868.34,-146.5 865.84,-146.5"/>
</g>
<!-- FIL6031&#45;&gt;FIL6032 -->
</g>
</svg>
