<?xml version="1.0" encoding="UTF-8" standalone="no"?>
<!DOCTYPE svg PUBLIC "-//W3C//DTD SVG 1.1//EN"
 "http://www.w3.org/Graphics/SVG/1.1/DTD/svg11.dtd">
<!-- Generated by graphviz version 9.0.0 (0)
 -->
<!-- Title: grafo_materias Pages: 1 -->
<svg width="1348pt" height="872pt"
 viewBox="0.00 0.00 1347.55 872.00" xmlns="http://www.w3.org/2000/svg" xmlns:xlink="http://www.w3.org/1999/xlink">
<g id="graph0" class="graph" transform="scale(1 1) rotate(0) translate(4 868)">
<title>grafo_materias</title>
<polygon fill="none" stroke="none" points="-4,4 -4,-868 1343.55,-868 1343.55,4 -4,4"/>
<g id="clust1" class="cluster">
<title>cluster_everything</title>
<polygon fill="none" stroke="none" points="8,-8 8,-856 1331.55,-856 1331.55,-8 8,-8"/>
</g>
<g id="clust2" class="cluster">
<title>cluster_header</title>
<polygon fill="none" stroke="none" points="20.85,-796 20.85,-848 1323.55,-848 1323.55,-796 20.85,-796"/>
</g>
<g id="clust3" class="cluster">
<title>cluster_0</title>
<polygon fill="none" stroke="none" points="16,-264 16,-788 142.5,-788 142.5,-264 16,-264"/>
</g>
<g id="clust4" class="cluster">
<title>cluster_1</title>
<polygon fill="none" stroke="none" points="162.5,-38 162.5,-473 289.75,-473 289.75,-38 162.5,-38"/>
</g>
<g id="clust5" class="cluster">
<title>cluster_2</title>
<polygon fill="none" stroke="none" points="309.75,-48 309.75,-498 431,-498 431,-48 309.75,-48"/>
</g>
<g id="clust6" class="cluster">
<title>cluster_3</title>
<polygon fill="none" stroke="none" points="451,-88 451,-612 591,-612 591,-88 451,-88"/>
</g>
<g id="clust7" class="cluster">
<title>cluster_4</title>
<polygon fill="none" stroke="none" points="611,-168 611,-634 747.25,-634 747.25,-168 611,-168"/>
</g>
<g id="clust8" class="cluster">
<title>cluster_5</title>
<polygon fill="none" stroke="none" points="767.25,-228 767.25,-694 896.75,-694 896.75,-228 767.25,-228"/>
</g>
<g id="clust9" class="cluster">
<title>cluster_6</title>
<polygon fill="none" stroke="none" points="916.75,-145 916.75,-354 1041.75,-354 1041.75,-145 916.75,-145"/>
</g>
<g id="clust10" class="cluster">
<title>cluster_7</title>
<polygon fill="none" stroke="none" points="1061.75,-250 1061.75,-354 1186.75,-354 1186.75,-250 1061.75,-250"/>
</g>
<g id="clust11" class="cluster">
<title>cluster_8</title>
<polygon fill="none" stroke="none" points="1206.75,-250 1206.75,-354 1323.55,-354 1323.55,-250 1206.75,-250"/>
</g>
<!-- Fase 01 -->
<g id="node1" class="node">
<title>Fase 01</title>
<polygon fill="lightgrey" stroke="black" points="129.65,-840 28.85,-840 28.85,-804 129.65,-804 129.65,-840"/>
<text text-anchor="middle" x="79.25" y="-816.58" font-family="Arial" font-size="14.00">Fase 01</text>
</g>
<!-- Fase 02 -->
<g id="node2" class="node">
<title>Fase 02</title>
<polygon fill="lightgrey" stroke="black" points="276.52,-840 175.72,-840 175.72,-804 276.52,-804 276.52,-840"/>
<text text-anchor="middle" x="226.12" y="-816.58" font-family="Arial" font-size="14.00">Fase 02</text>
</g>
<!-- Fase 01&#45;&gt;Fase 02 -->
<!-- Fase 03 -->
<g id="node3" class="node">
<title>Fase 03</title>
<polygon fill="lightgrey" stroke="black" points="420.77,-840 319.98,-840 319.98,-804 420.77,-804 420.77,-840"/>
<text text-anchor="middle" x="370.38" y="-816.58" font-family="Arial" font-size="14.00">Fase 03</text>
</g>
<!-- Fase 02&#45;&gt;Fase 03 -->
<!-- Fase 04 -->
<g id="node4" class="node">
<title>Fase 04</title>
<polygon fill="lightgrey" stroke="black" points="571.4,-840 470.6,-840 470.6,-804 571.4,-804 571.4,-840"/>
<text text-anchor="middle" x="521" y="-816.58" font-family="Arial" font-size="14.00">Fase 04</text>
</g>
<!-- Fase 03&#45;&gt;Fase 04 -->
<!-- Fase 05 -->
<g id="node5" class="node">
<title>Fase 05</title>
<polygon fill="lightgrey" stroke="black" points="729.52,-840 628.73,-840 628.73,-804 729.52,-804 729.52,-840"/>
<text text-anchor="middle" x="679.12" y="-816.58" font-family="Arial" font-size="14.00">Fase 05</text>
</g>
<!-- Fase 04&#45;&gt;Fase 05 -->
<!-- Fase 06 -->
<g id="node6" class="node">
<title>Fase 06</title>
<polygon fill="lightgrey" stroke="black" points="882.4,-840 781.6,-840 781.6,-804 882.4,-804 882.4,-840"/>
<text text-anchor="middle" x="832" y="-816.58" font-family="Arial" font-size="14.00">Fase 06</text>
</g>
<!-- Fase 05&#45;&gt;Fase 06 -->
<!-- Fase 07 -->
<g id="node7" class="node">
<title>Fase 07</title>
<polygon fill="lightgrey" stroke="black" points="1029.65,-840 928.85,-840 928.85,-804 1029.65,-804 1029.65,-840"/>
<text text-anchor="middle" x="979.25" y="-816.58" font-family="Arial" font-size="14.00">Fase 07</text>
</g>
<!-- Fase 06&#45;&gt;Fase 07 -->
<!-- Fase 08 -->
<g id="node8" class="node">
<title>Fase 08</title>
<polygon fill="lightgrey" stroke="black" points="1174.65,-840 1073.85,-840 1073.85,-804 1174.65,-804 1174.65,-840"/>
<text text-anchor="middle" x="1124.25" y="-816.58" font-family="Arial" font-size="14.00">Fase 08</text>
</g>
<!-- Fase 07&#45;&gt;Fase 08 -->
<!-- Fase 09 -->
<g id="node9" class="node">
<title>Fase 09</title>
<polygon fill="lightgrey" stroke="black" points="1315.55,-840 1214.75,-840 1214.75,-804 1315.55,-804 1315.55,-840"/>
<text text-anchor="middle" x="1265.15" y="-816.58" font-family="Arial" font-size="14.00">Fase 09</text>
</g>
<!-- Fase 08&#45;&gt;Fase 09 -->
<!-- EED5331 -->
<g id="node10" class="node">
<title>EED5331</title>
<g id="a_node10"><a xlink:title="Conceito de educação: elaborações e práticas em torno da formação moral, intelectual e estética do homem. Conceito de pedagogia: pedagogia da essência e pedagogia da existência &#45; referências clássicas, modernas e contemporâneas. Pensamento pedagógico brasileiro.">
<polygon fill="#8dd3c7" stroke="#8dd3c7" points="129.65,-343.62 28.85,-343.62 28.85,-272.38 129.65,-272.38 129.65,-343.62"/>
<text text-anchor="middle" x="79.25" y="-326.32" font-family="Arial" font-size="14.00">EED5331</text>
<text text-anchor="middle" x="79.25" y="-294.57" font-family="Arial" font-size="14.00">Teorias da</text>
<text text-anchor="middle" x="79.25" y="-278.82" font-family="Arial" font-size="14.00">Educação</text>
</a>
</g>
</g>
<!-- EED8007 -->
<g id="node15" class="node">
<title>EED8007</title>
<polygon fill="#8dd3c7" stroke="#8dd3c7" points="276.52,-464.5 175.72,-464.5 175.72,-377.5 276.52,-377.5 276.52,-464.5"/>
<text text-anchor="middle" x="226.12" y="-447.2" font-family="Arial" font-size="14.00">EED8007</text>
<text text-anchor="middle" x="226.12" y="-415.45" font-family="Arial" font-size="14.00">Organização</text>
<text text-anchor="middle" x="226.12" y="-399.7" font-family="Arial" font-size="14.00">Escolar (PCC</text>
<text text-anchor="middle" x="226.12" y="-383.95" font-family="Arial" font-size="14.00">18h&#45;a)</text>
</g>
<!-- EED5331&#45;&gt;EED8007 -->
<!-- HST7201 -->
<g id="node16" class="node">
<title>HST7201</title>
<g id="a_node16"><a xlink:title="Estudo da Idade Média, suas abordagens historiográficas e suas perspectivas teóricas e de prática de ensino.">
<polygon fill="#80b1d3" stroke="#80b1d3" points="281.75,-133.5 170.5,-133.5 170.5,-46.5 281.75,-46.5 281.75,-133.5"/>
<text text-anchor="middle" x="226.12" y="-116.2" font-family="Arial" font-size="14.00">HST7201</text>
<text text-anchor="middle" x="226.12" y="-84.45" font-family="Arial" font-size="14.00">História</text>
<text text-anchor="middle" x="226.12" y="-68.7" font-family="Arial" font-size="14.00">Medieval ( PCC</text>
<text text-anchor="middle" x="226.12" y="-52.95" font-family="Arial" font-size="14.00">12h&#45;a)</text>
</a>
</g>
</g>
<!-- EED5331&#45;&gt;HST7201 -->
<!-- HST7301 -->
<g id="node17" class="node">
<title>HST7301</title>
<g id="a_node17"><a xlink:title="Estudo em torno da formação do mundo moderno com ênfase nos aspectos sociais, econômicos e culturais que moldaram a sociedade ocidental, suas abordagens teóricas e de ensino.">
<polygon fill="#80b1d3" stroke="#80b1d3" points="281.38,-238.5 170.88,-238.5 170.88,-151.5 281.38,-151.5 281.38,-238.5"/>
<text text-anchor="middle" x="226.12" y="-221.2" font-family="Arial" font-size="14.00">HST7301</text>
<text text-anchor="middle" x="226.12" y="-189.45" font-family="Arial" font-size="14.00">História</text>
<text text-anchor="middle" x="226.12" y="-173.7" font-family="Arial" font-size="14.00">Moderna ( PCC</text>
<text text-anchor="middle" x="226.12" y="-157.95" font-family="Arial" font-size="14.00">12h&#45;a)</text>
</a>
</g>
</g>
<!-- EED5331&#45;&gt;HST7301 -->
<!-- HST7303 -->
<g id="node18" class="node">
<title>HST7303</title>
<g id="a_node18"><a xlink:title="Estudo da ocupação e colonização da América pelos portugueses e das formas de abordagem didático&#45;pedagógicas.">
<polygon fill="#80b1d3" stroke="#80b1d3" points="276.52,-359.38 175.72,-359.38 175.72,-256.62 276.52,-256.62 276.52,-359.38"/>
<text text-anchor="middle" x="226.12" y="-342.07" font-family="Arial" font-size="14.00">HST7303</text>
<text text-anchor="middle" x="226.12" y="-310.32" font-family="Arial" font-size="14.00">História da</text>
<text text-anchor="middle" x="226.12" y="-294.57" font-family="Arial" font-size="14.00">América</text>
<text text-anchor="middle" x="226.12" y="-278.82" font-family="Arial" font-size="14.00">Portuguesa (</text>
<text text-anchor="middle" x="226.12" y="-263.07" font-family="Arial" font-size="14.00">PCC 12h&#45; a)</text>
</a>
</g>
</g>
<!-- EED5331&#45;&gt;HST7303 -->
<!-- HST7101 -->
<g id="node11" class="node">
<title>HST7101</title>
<g id="a_node11"><a xlink:title="Discussão introdutória sobre a construção do conhecimento histórico através do estudo das fontes, da discussão bibliográfica e da forma da narrativa.">
<polygon fill="#80b1d3" stroke="#80b1d3" points="131.88,-448.5 26.62,-448.5 26.62,-361.5 131.88,-361.5 131.88,-448.5"/>
<text text-anchor="middle" x="79.25" y="-431.2" font-family="Arial" font-size="14.00">HST7101</text>
<text text-anchor="middle" x="79.25" y="-399.45" font-family="Arial" font-size="14.00">Introdução aos</text>
<text text-anchor="middle" x="79.25" y="-383.7" font-family="Arial" font-size="14.00">Estudos</text>
<text text-anchor="middle" x="79.25" y="-367.95" font-family="Arial" font-size="14.00">Históricos</text>
</a>
</g>
</g>
<!-- HST7701 -->
<g id="node36" class="node">
<title>HST7701</title>
<g id="a_node36"><a xlink:title="Elaboração de projeto de pesquisa para realização do Trabalho de Conclusão de Curso.">
<polygon fill="#80b1d3" stroke="#80b1d3" points="1029.65,-240.5 928.85,-240.5 928.85,-153.5 1029.65,-153.5 1029.65,-240.5"/>
<text text-anchor="middle" x="979.25" y="-223.2" font-family="Arial" font-size="14.00">HST7701</text>
<text text-anchor="middle" x="979.25" y="-191.45" font-family="Arial" font-size="14.00">Projeto de</text>
<text text-anchor="middle" x="979.25" y="-175.7" font-family="Arial" font-size="14.00">Pesquisa</text>
<text text-anchor="middle" x="979.25" y="-159.95" font-family="Arial" font-size="14.00">Histórica</text>
</a>
</g>
</g>
<!-- HST7101&#45;&gt;HST7701 -->
<g id="edge10" class="edge">
<title>HST7101&#45;&gt;HST7701</title>
<path fill="none" stroke="#80b1d3" stroke-width="2" d="M132.21,-373.44C231.46,-373.44 435.55,-373.44 435.55,-373.44 435.55,-373.44 435.55,-86.41 435.55,-86.41 435.55,-86.41 949.55,-86.41 949.55,-86.41 949.55,-86.41 949.55,-150.79 949.55,-150.79"/>
<polygon fill="#80b1d3" stroke="#80b1d3" stroke-width="2" points="952.05,-152.29 947.05,-152.29 947.05,-151.29 952.05,-151.29 952.05,-152.29"/>
<polyline fill="none" stroke="#80b1d3" stroke-width="2" points="949.55,-152.79 949.55,-150.29"/>
</g>
<!-- HST7102 -->
<g id="node12" class="node">
<title>HST7102</title>
<g id="a_node12"><a xlink:title="Estudo das sociedades do Oriente Antigo, suas relações com o Ocidente, suas abordagens historiográficas e suas perspectivas teóricas e de prática de ensino.">
<polygon fill="#80b1d3" stroke="#80b1d3" points="130.75,-553.5 27.75,-553.5 27.75,-466.5 130.75,-466.5 130.75,-553.5"/>
<text text-anchor="middle" x="79.25" y="-536.2" font-family="Arial" font-size="14.00">HST7102</text>
<text text-anchor="middle" x="79.25" y="-504.45" font-family="Arial" font-size="14.00">História do</text>
<text text-anchor="middle" x="79.25" y="-488.7" font-family="Arial" font-size="14.00">Oriente Antigo</text>
<text text-anchor="middle" x="79.25" y="-472.95" font-family="Arial" font-size="14.00">(PCC 12h&#45;a)</text>
</a>
</g>
</g>
<!-- HST7102&#45;&gt;HST7701 -->
<g id="edge11" class="edge">
<title>HST7102&#45;&gt;HST7701</title>
<path fill="none" stroke="#80b1d3" stroke-width="2" d="M130.89,-523.38C260.37,-523.38 588.55,-523.38 588.55,-523.38 588.55,-523.38 588.55,-162.92 588.55,-162.92 588.55,-162.92 926.07,-162.92 926.07,-162.92"/>
<polygon fill="#80b1d3" stroke="#80b1d3" stroke-width="2" points="927.57,-160.42 927.57,-165.42 926.57,-165.42 926.57,-160.42 927.57,-160.42"/>
<polyline fill="none" stroke="#80b1d3" stroke-width="2" points="928.07,-162.92 925.57,-162.92"/>
</g>
<!-- HST7103 -->
<g id="node13" class="node">
<title>HST7103</title>
<g id="a_node13"><a xlink:title="Estudo das sociedades da Antigüidade Clássica, sua organização e mudanças a partir do contato com o Oriente, suas abordagens historiográficas e suas perspectivas teóricas e de prática de ensino.">
<polygon fill="#80b1d3" stroke="#80b1d3" points="134.5,-674.38 24,-674.38 24,-571.62 134.5,-571.62 134.5,-674.38"/>
<text text-anchor="middle" x="79.25" y="-657.08" font-family="Arial" font-size="14.00">HST7103</text>
<text text-anchor="middle" x="79.25" y="-625.33" font-family="Arial" font-size="14.00">História da</text>
<text text-anchor="middle" x="79.25" y="-609.58" font-family="Arial" font-size="14.00">Antiguidade</text>
<text text-anchor="middle" x="79.25" y="-593.83" font-family="Arial" font-size="14.00">Ocidental (PCC</text>
<text text-anchor="middle" x="79.25" y="-578.08" font-family="Arial" font-size="14.00">12h&#45;a)</text>
</a>
</g>
</g>
<!-- HST7103&#45;&gt;HST7701 -->
<g id="edge12" class="edge">
<title>HST7103&#45;&gt;HST7701</title>
<path fill="none" stroke="#80b1d3" stroke-width="2" d="M134.84,-650.31C295.91,-650.31 751.55,-650.31 751.55,-650.31 751.55,-650.31 751.55,-198.92 751.55,-198.92 751.55,-198.92 925.93,-198.92 925.93,-198.92"/>
<polygon fill="#80b1d3" stroke="#80b1d3" stroke-width="2" points="927.43,-196.42 927.43,-201.42 926.43,-201.42 926.43,-196.42 927.43,-196.42"/>
<polyline fill="none" stroke="#80b1d3" stroke-width="2" points="927.93,-198.92 925.43,-198.92"/>
</g>
<!-- HST7104 -->
<g id="node14" class="node">
<title>HST7104</title>
<g id="a_node14"><a xlink:title="Estudo dos problemas da arte em diferentes épocas e sociedades e das abordagens teórico&#45;metodológicas para a decodificação de imagens no âmbito da pesquisa e ensino da História.">
<polygon fill="#80b1d3" stroke="#80b1d3" points="129.65,-779.5 28.85,-779.5 28.85,-692.5 129.65,-692.5 129.65,-779.5"/>
<text text-anchor="middle" x="79.25" y="-762.2" font-family="Arial" font-size="14.00">HST7104</text>
<text text-anchor="middle" x="79.25" y="-730.45" font-family="Arial" font-size="14.00">História da</text>
<text text-anchor="middle" x="79.25" y="-714.7" font-family="Arial" font-size="14.00">Arte (PCC</text>
<text text-anchor="middle" x="79.25" y="-698.95" font-family="Arial" font-size="14.00">12h&#45;a)</text>
</a>
</g>
</g>
<!-- HST7104&#45;&gt;HST7701 -->
<g id="edge13" class="edge">
<title>HST7104&#45;&gt;HST7701</title>
<path fill="none" stroke="#80b1d3" stroke-width="2" d="M129.96,-736C287.43,-736 757.55,-736 757.55,-736 757.55,-736 757.55,-206.44 757.55,-206.44 757.55,-206.44 925.89,-206.44 925.89,-206.44"/>
<polygon fill="#80b1d3" stroke="#80b1d3" stroke-width="2" points="927.39,-203.94 927.39,-208.94 926.39,-208.94 926.39,-203.94 927.39,-203.94"/>
<polyline fill="none" stroke="#80b1d3" stroke-width="2" points="927.89,-206.44 925.39,-206.44"/>
</g>
<!-- HST7201&#45;&gt;HST7701 -->
<g id="edge14" class="edge">
<title>HST7201&#45;&gt;HST7701</title>
<path fill="none" stroke="#80b1d3" stroke-width="2" d="M282.15,-51.5C461.46,-51.5 1009.55,-51.5 1009.55,-51.5 1009.55,-51.5 1009.55,-150.85 1009.55,-150.85"/>
<polygon fill="#80b1d3" stroke="#80b1d3" stroke-width="2" points="1012.05,-152.35 1007.05,-152.35 1007.05,-151.35 1012.05,-151.35 1012.05,-152.35"/>
<polyline fill="none" stroke="#80b1d3" stroke-width="2" points="1009.55,-152.85 1009.55,-150.35"/>
</g>
<!-- HST7301&#45;&gt;HST7701 -->
<g id="edge16" class="edge">
<title>HST7301&#45;&gt;HST7701</title>
<path fill="none" stroke="#80b1d3" stroke-width="2" d="M281.76,-154.83C349.09,-154.83 453.55,-154.83 453.55,-154.83 453.55,-154.83 453.55,-169.08 453.55,-169.08 453.55,-169.08 925.87,-169.08 925.87,-169.08"/>
<polygon fill="#80b1d3" stroke="#80b1d3" stroke-width="2" points="927.37,-166.58 927.37,-171.58 926.37,-171.58 926.37,-166.58 927.37,-166.58"/>
<polyline fill="none" stroke="#80b1d3" stroke-width="2" points="927.87,-169.08 925.37,-169.08"/>
</g>
<!-- HST7202 -->
<g id="node19" class="node">
<title>HST7202</title>
<g id="a_node19"><a xlink:title="Estudo das diferentes estruturas sócio&#45;políticas da África entre os séculos XVI e XX, os processos de constituição dos sistemas coloniais e de descolonização e as formas de abordagens didático&#45;pedagógicas.">
<polygon fill="#80b1d3" stroke="#80b1d3" points="420.77,-143.5 319.98,-143.5 319.98,-56.5 420.77,-56.5 420.77,-143.5"/>
<text text-anchor="middle" x="370.38" y="-126.2" font-family="Arial" font-size="14.00">HST7202</text>
<text text-anchor="middle" x="370.38" y="-94.45" font-family="Arial" font-size="14.00">História da</text>
<text text-anchor="middle" x="370.38" y="-78.7" font-family="Arial" font-size="14.00">África ( PCC</text>
<text text-anchor="middle" x="370.38" y="-62.95" font-family="Arial" font-size="14.00">12h&#45;a)</text>
</a>
</g>
</g>
<!-- HST7303&#45;&gt;HST7202 -->
<!-- HST7302 -->
<g id="node20" class="node">
<title>HST7302</title>
<g id="a_node20"><a xlink:title="Estudo da conquista e colonização da América espanhola e anglo&#45;saxônica e as formas de abordagens didático&#45;pedagógicas.">
<polygon fill="#80b1d3" stroke="#80b1d3" points="423,-369.38 317.75,-369.38 317.75,-266.62 423,-266.62 423,-369.38"/>
<text text-anchor="middle" x="370.38" y="-352.07" font-family="Arial" font-size="14.00">HST7302</text>
<text text-anchor="middle" x="370.38" y="-320.32" font-family="Arial" font-size="14.00">História da</text>
<text text-anchor="middle" x="370.38" y="-304.57" font-family="Arial" font-size="14.00">América</text>
<text text-anchor="middle" x="370.38" y="-288.82" font-family="Arial" font-size="14.00">Colonial ( PCC</text>
<text text-anchor="middle" x="370.38" y="-273.07" font-family="Arial" font-size="14.00">12h&#45;a)</text>
</a>
</g>
</g>
<!-- HST7303&#45;&gt;HST7302 -->
<!-- HST7304 -->
<g id="node21" class="node">
<title>HST7304</title>
<g id="a_node21"><a xlink:title="Estudo das populações indígenas no Brasil e das políticas indigenistas, bem como sobre as diferentes abordagens historiográficas relativas à representação dessas populações entre os séculos XVI e XXI e suas perspectivas teóricas e de ensino.">
<polygon fill="#80b1d3" stroke="#80b1d3" points="423,-248.5 317.75,-248.5 317.75,-161.5 423,-161.5 423,-248.5"/>
<text text-anchor="middle" x="370.38" y="-231.2" font-family="Arial" font-size="14.00">HST7304</text>
<text text-anchor="middle" x="370.38" y="-199.45" font-family="Arial" font-size="14.00">História</text>
<text text-anchor="middle" x="370.38" y="-183.7" font-family="Arial" font-size="14.00">Indígena (PCC</text>
<text text-anchor="middle" x="370.38" y="-167.95" font-family="Arial" font-size="14.00">12h&#45;a)</text>
</a>
</g>
</g>
<!-- HST7303&#45;&gt;HST7304 -->
<!-- MEN7003 -->
<g id="node22" class="node">
<title>MEN7003</title>
<g id="a_node22"><a xlink:title="&#45; Características do estado da arte do ensino de História e sua relação com a pesquisa em ensino, os congressos e as publicações específicas da área de ensino, os cursos de pós&#45;graduação em ensino e a metodologia de ensino. O ensino na área de História, seus processos em diferentes espaços educativos.">
<polygon fill="#fdb462" stroke="#fdb462" points="420.77,-490.38 319.98,-490.38 319.98,-387.62 420.77,-387.62 420.77,-490.38"/>
<text text-anchor="middle" x="370.38" y="-473.07" font-family="Arial" font-size="14.00">MEN7003</text>
<text text-anchor="middle" x="370.38" y="-441.32" font-family="Arial" font-size="14.00">Seminário de</text>
<text text-anchor="middle" x="370.38" y="-425.57" font-family="Arial" font-size="14.00">Pesquisa em</text>
<text text-anchor="middle" x="370.38" y="-409.82" font-family="Arial" font-size="14.00">Ensino ( PCC</text>
<text text-anchor="middle" x="370.38" y="-394.07" font-family="Arial" font-size="14.00">72h&#45;a)</text>
</a>
</g>
</g>
<!-- HST7303&#45;&gt;MEN7003 -->
<!-- HST7303&#45;&gt;HST7701 -->
<g id="edge18" class="edge">
<title>HST7303&#45;&gt;HST7701</title>
<path fill="none" stroke="#80b1d3" stroke-width="2" d="M276.93,-263.29C337.19,-263.29 429.55,-263.29 429.55,-263.29 429.55,-263.29 429.55,-76.44 429.55,-76.44 429.55,-76.44 969.55,-76.44 969.55,-76.44 969.55,-76.44 969.55,-150.63 969.55,-150.63"/>
<polygon fill="#80b1d3" stroke="#80b1d3" stroke-width="2" points="972.05,-152.13 967.05,-152.13 967.05,-151.13 972.05,-151.13 972.05,-152.13"/>
<polyline fill="none" stroke="#80b1d3" stroke-width="2" points="969.55,-152.63 969.55,-150.13"/>
</g>
<!-- HST7202&#45;&gt;HST7701 -->
<g id="edge15" class="edge">
<title>HST7202&#45;&gt;HST7701</title>
<path fill="none" stroke="#80b1d3" stroke-width="2" d="M421.04,-66.47C568.92,-66.47 989.55,-66.47 989.55,-66.47 989.55,-66.47 989.55,-150.67 989.55,-150.67"/>
<polygon fill="#80b1d3" stroke="#80b1d3" stroke-width="2" points="992.05,-152.17 987.05,-152.17 987.05,-151.17 992.05,-151.17 992.05,-152.17"/>
<polyline fill="none" stroke="#80b1d3" stroke-width="2" points="989.55,-152.67 989.55,-150.17"/>
</g>
<!-- HST7302&#45;&gt;HST7701 -->
<g id="edge17" class="edge">
<title>HST7302&#45;&gt;HST7701</title>
<path fill="none" stroke="#80b1d3" stroke-width="2" d="M423.22,-281.56C433.7,-281.56 441.55,-281.56 441.55,-281.56 441.55,-281.56 441.55,-170.54 441.55,-170.54 441.55,-170.54 926.16,-170.54 926.16,-170.54"/>
<polygon fill="#80b1d3" stroke="#80b1d3" stroke-width="2" points="927.66,-168.04 927.66,-173.04 926.66,-173.04 926.66,-168.04 927.66,-168.04"/>
<polyline fill="none" stroke="#80b1d3" stroke-width="2" points="928.16,-170.54 925.66,-170.54"/>
</g>
<!-- HST7401 -->
<g id="node23" class="node">
<title>HST7401</title>
<g id="a_node23"><a xlink:title="Estudo dos fundamentos teóricos das concepções modernas em História e dos modelos históricos dos séculos XVIII e XIX.">
<polygon fill="#80b1d3" stroke="#80b1d3" points="571.4,-167.62 470.6,-167.62 470.6,-96.38 571.4,-96.38 571.4,-167.62"/>
<text text-anchor="middle" x="521" y="-150.32" font-family="Arial" font-size="14.00">HST7401</text>
<text text-anchor="middle" x="521" y="-118.58" font-family="Arial" font-size="14.00">Teoria da</text>
<text text-anchor="middle" x="521" y="-102.83" font-family="Arial" font-size="14.00">História I</text>
</a>
</g>
</g>
<!-- MEN7003&#45;&gt;HST7401 -->
<!-- HST7402 -->
<g id="node24" class="node">
<title>HST7402</title>
<polygon fill="#80b1d3" stroke="#80b1d3" points="581.5,-272.5 460.5,-272.5 460.5,-185.5 581.5,-185.5 581.5,-272.5"/>
<text text-anchor="middle" x="521" y="-255.2" font-family="Arial" font-size="14.00">HST7402</text>
<text text-anchor="middle" x="521" y="-223.45" font-family="Arial" font-size="14.00">História</text>
<text text-anchor="middle" x="521" y="-207.7" font-family="Arial" font-size="14.00">Contemporânea I</text>
<text text-anchor="middle" x="521" y="-191.95" font-family="Arial" font-size="14.00">(PCC 12h&#45;a)</text>
</g>
<!-- MEN7003&#45;&gt;HST7402 -->
<!-- HST7403 -->
<g id="node25" class="node">
<title>HST7403</title>
<g id="a_node25"><a xlink:title="Estudo da trajetória histórica dos países da América de colonização espanhola, francesa e inglesa a partir dos processos de independência e as formas de abordagens didático&#45;pedagógicas.">
<polygon fill="#80b1d3" stroke="#80b1d3" points="571.4,-393.38 470.6,-393.38 470.6,-290.62 571.4,-290.62 571.4,-393.38"/>
<text text-anchor="middle" x="521" y="-376.07" font-family="Arial" font-size="14.00">HST7403</text>
<text text-anchor="middle" x="521" y="-344.32" font-family="Arial" font-size="14.00">História da</text>
<text text-anchor="middle" x="521" y="-328.57" font-family="Arial" font-size="14.00">América</text>
<text text-anchor="middle" x="521" y="-312.82" font-family="Arial" font-size="14.00">Independente</text>
<text text-anchor="middle" x="521" y="-297.07" font-family="Arial" font-size="14.00">(PCC 12h&#45;a)</text>
</a>
</g>
</g>
<!-- MEN7003&#45;&gt;HST7403 -->
<!-- HST7404 -->
<g id="node26" class="node">
<title>HST7404</title>
<g id="a_node26"><a xlink:title="Estudo do processo de independência do Brasil, a construção do Estado Nacional e a sociedade brasileira durante o século XIX. As formas de abordagens didático&#45;pedagógicas.">
<polygon fill="#80b1d3" stroke="#80b1d3" points="583,-514.38 459,-514.38 459,-411.62 583,-411.62 583,-514.38"/>
<text text-anchor="middle" x="521" y="-497.07" font-family="Arial" font-size="14.00">HST7404</text>
<text text-anchor="middle" x="521" y="-465.32" font-family="Arial" font-size="14.00">História do</text>
<text text-anchor="middle" x="521" y="-449.57" font-family="Arial" font-size="14.00">Brasil</text>
<text text-anchor="middle" x="521" y="-433.82" font-family="Arial" font-size="14.00">Monárquico (PCC</text>
<text text-anchor="middle" x="521" y="-418.07" font-family="Arial" font-size="14.00">12h&#45;a)</text>
</a>
</g>
</g>
<!-- MEN7003&#45;&gt;HST7404 -->
<!-- MEN5602 -->
<g id="node27" class="node">
<title>MEN5602</title>
<g id="a_node27"><a xlink:title="&#45; Educação escolar como fenômeno histórico&#45;social. Currículo e trabalho pedagógico no contexto escolar. As relações de ensino&#45;aprendizagem em contexto escolar. Mediações pedagógicas e suas relações com o ensino da área específica do curso.">
<polygon fill="#fdb462" stroke="#fdb462" points="578.12,-603.62 463.88,-603.62 463.88,-532.38 578.12,-532.38 578.12,-603.62"/>
<text text-anchor="middle" x="521" y="-586.33" font-family="Arial" font-size="14.00">MEN5602</text>
<text text-anchor="middle" x="521" y="-554.58" font-family="Arial" font-size="14.00">Didática B (PCC</text>
<text text-anchor="middle" x="521" y="-538.83" font-family="Arial" font-size="14.00">12h&#45;a)</text>
</a>
</g>
</g>
<!-- MEN7003&#45;&gt;MEN5602 -->
<g id="edge9" class="edge">
<title>MEN7003&#45;&gt;MEN5602</title>
<path fill="none" stroke="#fdb462" stroke-width="2" d="M354.55,-490.84C354.55,-518.32 354.55,-546.46 354.55,-546.46 354.55,-546.46 461.22,-546.46 461.22,-546.46"/>
<polygon fill="#fdb462" stroke="#fdb462" stroke-width="2" points="462.72,-543.96 462.72,-548.96 461.72,-548.96 461.72,-543.96 462.72,-543.96"/>
<polyline fill="none" stroke="#fdb462" stroke-width="2" points="463.22,-546.46 460.72,-546.46"/>
</g>
<!-- MEN7003&#45;&gt;MEN5602 -->
<!-- HST7401&#45;&gt;HST7701 -->
<g id="edge19" class="edge">
<title>HST7401&#45;&gt;HST7701</title>
<path fill="none" stroke="#80b1d3" stroke-width="2" d="M571.79,-158.21C571.79,-158.21 926.08,-158.21 926.08,-158.21"/>
<polygon fill="#80b1d3" stroke="#80b1d3" stroke-width="2" points="927.58,-155.71 927.58,-160.71 926.58,-160.71 926.58,-155.71 927.58,-155.71"/>
<polyline fill="none" stroke="#80b1d3" stroke-width="2" points="928.08,-158.21 925.58,-158.21"/>
</g>
<!-- HST7402&#45;&gt;HST7701 -->
<g id="edge20" class="edge">
<title>HST7402&#45;&gt;HST7701</title>
<path fill="none" stroke="#80b1d3" stroke-width="2" d="M576.55,-185.22C576.55,-177.57 576.55,-172 576.55,-172 576.55,-172 926.16,-172 926.16,-172"/>
<polygon fill="#80b1d3" stroke="#80b1d3" stroke-width="2" points="927.66,-169.5 927.66,-174.5 926.66,-174.5 926.66,-169.5 927.66,-169.5"/>
<polyline fill="none" stroke="#80b1d3" stroke-width="2" points="928.16,-172 925.66,-172"/>
</g>
<!-- HST7403&#45;&gt;HST7701 -->
<g id="edge21" class="edge">
<title>HST7403&#45;&gt;HST7701</title>
<path fill="none" stroke="#80b1d3" stroke-width="2" d="M571.78,-316.54C583.98,-316.54 593.55,-316.54 593.55,-316.54 593.55,-316.54 593.55,-173.46 593.55,-173.46 593.55,-173.46 925.93,-173.46 925.93,-173.46"/>
<polygon fill="#80b1d3" stroke="#80b1d3" stroke-width="2" points="927.43,-170.96 927.43,-175.96 926.43,-175.96 926.43,-170.96 927.43,-170.96"/>
<polyline fill="none" stroke="#80b1d3" stroke-width="2" points="927.93,-173.46 925.43,-173.46"/>
</g>
<!-- HST7404&#45;&gt;HST7701 -->
<g id="edge22" class="edge">
<title>HST7404&#45;&gt;HST7701</title>
<path fill="none" stroke="#80b1d3" stroke-width="2" d="M583.23,-437.54C592.24,-437.54 598.55,-437.54 598.55,-437.54 598.55,-437.54 598.55,-174.92 598.55,-174.92 598.55,-174.92 926.2,-174.92 926.2,-174.92"/>
<polygon fill="#80b1d3" stroke="#80b1d3" stroke-width="2" points="927.7,-172.42 927.7,-177.42 926.7,-177.42 926.7,-172.42 927.7,-172.42"/>
<polyline fill="none" stroke="#80b1d3" stroke-width="2" points="928.2,-174.92 925.7,-174.92"/>
</g>
<!-- HST7501 -->
<g id="node28" class="node">
<title>HST7501</title>
<g id="a_node28"><a xlink:title="A ditadura militar no Brasil foi instaurada num momento de crescente participação feminina no espaço público, fruto do intenso processo de mudanças nas relações de gênero se desenvolvia no período. Um contingente apreciável de mulheres uniu&#45;se aos homens na luta por uma sociedade mais igualitária e justa. A repressão às organizações de esquerda foi extremamente violenta, tendo sido denunciada por pessoas ligadas à defesa dos Direitos Humanos. Através da categoria gênero, pode&#45;se refletir sobre como essa repressão, que atingiu homens e mulheres, foi vivenciada e denunciada por suas vítimas. A partir de uma análise de caso do Brasil, serão feitas comparações com outros países do Cone Sul: Argentina, Uruguai e Chile.">
<polygon fill="#80b1d3" stroke="#80b1d3" points="729.52,-247.62 628.73,-247.62 628.73,-176.38 729.52,-176.38 729.52,-247.62"/>
<text text-anchor="middle" x="679.12" y="-230.32" font-family="Arial" font-size="14.00">HST7501</text>
<text text-anchor="middle" x="679.12" y="-198.57" font-family="Arial" font-size="14.00">Teoria da</text>
<text text-anchor="middle" x="679.12" y="-182.82" font-family="Arial" font-size="14.00">História II</text>
</a>
</g>
</g>
<!-- MEN5602&#45;&gt;HST7501 -->
<!-- HST7502 -->
<g id="node29" class="node">
<title>HST7502</title>
<g id="a_node29"><a xlink:title="Estudo da sociedade brasileira da proclamação da república até a primeira metade do século XX. As formas de abordagens didático&#45;pedagógicas.">
<polygon fill="#80b1d3" stroke="#80b1d3" points="729.52,-368.38 628.73,-368.38 628.73,-265.62 729.52,-265.62 729.52,-368.38"/>
<text text-anchor="middle" x="679.12" y="-351.07" font-family="Arial" font-size="14.00">HST7502</text>
<text text-anchor="middle" x="679.12" y="-319.32" font-family="Arial" font-size="14.00">História do</text>
<text text-anchor="middle" x="679.12" y="-303.57" font-family="Arial" font-size="14.00">Brasil</text>
<text text-anchor="middle" x="679.12" y="-287.82" font-family="Arial" font-size="14.00">Republicano I</text>
<text text-anchor="middle" x="679.12" y="-272.07" font-family="Arial" font-size="14.00">(PCC 12h&#45; a)</text>
</a>
</g>
</g>
<!-- MEN5602&#45;&gt;HST7502 -->
<!-- MEN7005 -->
<g id="node30" class="node">
<title>MEN7005</title>
<g id="a_node30"><a xlink:title="&#45;As relações entre História, Educação e Cultura. A cultura imagética, o livro didático e o ensino de História. A pesquisa no ensino de História. A constituição da História como disciplina no contexto da educação escolarizada no Brasil.">
<polygon fill="#fdb462" stroke="#fdb462" points="733.62,-489.38 624.62,-489.38 624.62,-386.62 733.62,-386.62 733.62,-489.38"/>
<text text-anchor="middle" x="679.12" y="-472.07" font-family="Arial" font-size="14.00">MEN7005</text>
<text text-anchor="middle" x="679.12" y="-440.32" font-family="Arial" font-size="14.00">Metodologia do</text>
<text text-anchor="middle" x="679.12" y="-424.57" font-family="Arial" font-size="14.00">Ensino de</text>
<text text-anchor="middle" x="679.12" y="-408.82" font-family="Arial" font-size="14.00">História &#45; PCC</text>
<text text-anchor="middle" x="679.12" y="-393.07" font-family="Arial" font-size="14.00">36 horas/aula</text>
</a>
</g>
</g>
<!-- MEN5602&#45;&gt;MEN7005 -->
<!-- PSI5137 -->
<g id="node31" class="node">
<title>PSI5137</title>
<g id="a_node31"><a xlink:title="Introdução à Psicologia como ciência: histórico, objetivo e métodos. Interações sociais no contexto educacional e o lugar do professor. Introdução ao estudo do desenvolvimento e de aprendizagem &#45; infância, adolescência, idade adulta. Contribuições da Psicologia na prática escolar cotidiana e na compreensão do fracasso escolar. Prática como componente curricular.">
<polygon fill="#ffffb3" stroke="#ffffb3" points="739.25,-626.25 619,-626.25 619,-507.75 739.25,-507.75 739.25,-626.25"/>
<text text-anchor="middle" x="679.12" y="-608.95" font-family="Arial" font-size="14.00">PSI5137</text>
<text text-anchor="middle" x="679.12" y="-577.2" font-family="Arial" font-size="14.00">Psicologia</text>
<text text-anchor="middle" x="679.12" y="-561.45" font-family="Arial" font-size="14.00">Educacional:</text>
<text text-anchor="middle" x="679.12" y="-545.7" font-family="Arial" font-size="14.00">Desenvolvimento</text>
<text text-anchor="middle" x="679.12" y="-529.95" font-family="Arial" font-size="14.00">e Aprendizagem</text>
<text text-anchor="middle" x="679.12" y="-514.2" font-family="Arial" font-size="14.00">(PCC 12h&#45;a)</text>
</a>
</g>
</g>
<!-- MEN5602&#45;&gt;PSI5137 -->
<!-- HST7501&#45;&gt;HST7701 -->
<g id="edge23" class="edge">
<title>HST7501&#45;&gt;HST7701</title>
<path fill="none" stroke="#80b1d3" stroke-width="2" d="M729.7,-183.89C729.7,-183.89 925.97,-183.89 925.97,-183.89"/>
<polygon fill="#80b1d3" stroke="#80b1d3" stroke-width="2" points="927.47,-181.39 927.47,-186.39 926.47,-186.39 926.47,-181.39 927.47,-181.39"/>
<polyline fill="none" stroke="#80b1d3" stroke-width="2" points="927.97,-183.89 925.47,-183.89"/>
</g>
<!-- HST7502&#45;&gt;HST7701 -->
<g id="edge24" class="edge">
<title>HST7502&#45;&gt;HST7701</title>
<path fill="none" stroke="#80b1d3" stroke-width="2" d="M729.81,-284.92C738.9,-284.92 745.55,-284.92 745.55,-284.92 745.55,-284.92 745.55,-191.41 745.55,-191.41 745.55,-191.41 926.04,-191.41 926.04,-191.41"/>
<polygon fill="#80b1d3" stroke="#80b1d3" stroke-width="2" points="927.54,-188.91 927.54,-193.91 926.54,-193.91 926.54,-188.91 927.54,-188.91"/>
<polyline fill="none" stroke="#80b1d3" stroke-width="2" points="928.04,-191.41 925.54,-191.41"/>
</g>
<!-- MEN7017 -->
<g id="node37" class="node">
<title>MEN7017</title>
<polygon fill="#fdb462" stroke="#fdb462" points="1033.75,-345.5 924.75,-345.5 924.75,-258.5 1033.75,-258.5 1033.75,-345.5"/>
<text text-anchor="middle" x="979.25" y="-328.2" font-family="Arial" font-size="14.00">MEN7017</text>
<text text-anchor="middle" x="979.25" y="-296.45" font-family="Arial" font-size="14.00">Estágio</text>
<text text-anchor="middle" x="979.25" y="-280.7" font-family="Arial" font-size="14.00">Supervisionado</text>
<text text-anchor="middle" x="979.25" y="-264.95" font-family="Arial" font-size="14.00">de História I</text>
</g>
<!-- MEN7005&#45;&gt;MEN7017 -->
<g id="edge28" class="edge">
<title>MEN7005&#45;&gt;MEN7017</title>
<path fill="none" stroke="#fdb462" stroke-width="2" d="M734.11,-469.38C816.53,-469.38 962.55,-469.38 962.55,-469.38 962.55,-469.38 962.55,-348.48 962.55,-348.48"/>
<polygon fill="#fdb462" stroke="#fdb462" stroke-width="2" points="960.05,-346.98 965.05,-346.98 965.05,-347.98 960.05,-347.98 960.05,-346.98"/>
<polyline fill="none" stroke="#fdb462" stroke-width="2" points="962.55,-346.48 962.55,-348.98"/>
</g>
<!-- HST7601 -->
<g id="node32" class="node">
<title>HST7601</title>
<g id="a_node32"><a xlink:title="Estudo do século XX, da Primeira Guerra Mundial à globalização, suas abordagens teóricas e de ensino.">
<polygon fill="#80b1d3" stroke="#80b1d3" points="888.75,-565.5 775.25,-565.5 775.25,-478.5 888.75,-478.5 888.75,-565.5"/>
<text text-anchor="middle" x="832" y="-548.2" font-family="Arial" font-size="14.00">HST7601</text>
<text text-anchor="middle" x="832" y="-516.45" font-family="Arial" font-size="14.00">História</text>
<text text-anchor="middle" x="832" y="-500.7" font-family="Arial" font-size="14.00">Contemporânea</text>
<text text-anchor="middle" x="832" y="-484.95" font-family="Arial" font-size="14.00">II (PCC 12h&#45;a)</text>
</a>
</g>
</g>
<!-- PSI5137&#45;&gt;HST7601 -->
<!-- HST7602 -->
<g id="node33" class="node">
<title>HST7602</title>
<g id="a_node33"><a xlink:title="Estudo da sociedade brasileira contemporânea a partir de 1945 e as formas de abordagens didático&#45;pedagógicas.">
<polygon fill="#80b1d3" stroke="#80b1d3" points="883.12,-460.25 780.88,-460.25 780.88,-341.75 883.12,-341.75 883.12,-460.25"/>
<text text-anchor="middle" x="832" y="-442.95" font-family="Arial" font-size="14.00">HST7602</text>
<text text-anchor="middle" x="832" y="-411.2" font-family="Arial" font-size="14.00">História do</text>
<text text-anchor="middle" x="832" y="-395.45" font-family="Arial" font-size="14.00">Brasil</text>
<text text-anchor="middle" x="832" y="-379.7" font-family="Arial" font-size="14.00">Republicano II</text>
<text text-anchor="middle" x="832" y="-363.95" font-family="Arial" font-size="14.00">&#45; PCC 12</text>
<text text-anchor="middle" x="832" y="-348.2" font-family="Arial" font-size="14.00">horas&#45;aula</text>
</a>
</g>
</g>
<!-- PSI5137&#45;&gt;HST7602 -->
<!-- HST7603 -->
<g id="node34" class="node">
<title>HST7603</title>
<g id="a_node34"><a xlink:title="Estudo da História e da historiografia catarinense e as formas de abordagens didático&#45;pedagógicas.">
<polygon fill="#80b1d3" stroke="#80b1d3" points="885,-323.5 779,-323.5 779,-236.5 885,-236.5 885,-323.5"/>
<text text-anchor="middle" x="832" y="-306.2" font-family="Arial" font-size="14.00">HST7603</text>
<text text-anchor="middle" x="832" y="-274.45" font-family="Arial" font-size="14.00">História de</text>
<text text-anchor="middle" x="832" y="-258.7" font-family="Arial" font-size="14.00">Santa Catarina</text>
<text text-anchor="middle" x="832" y="-242.95" font-family="Arial" font-size="14.00">(PCC 12h&#45;a)</text>
</a>
</g>
</g>
<!-- PSI5137&#45;&gt;HST7603 -->
<!-- LSB7244 -->
<g id="node35" class="node">
<title>LSB7244</title>
<g id="a_node35"><a xlink:title="Prática de conversação em Libras habilitando o aluno a se comunicar nível básico. Mitos e Crenças relacionadas à Língua Brasileira de Sinais (Libras) e aos Surdos. Noções sobre os estudos linguísticos das línguas de sinais em diferentes níveis da descrição linguística. Conceitos básicos da Língua Brasileira de Sinais como iconicidade e arbitrariedade e aspectos culturais e históricos específicos da comunidade surda brasileira. Educação de surdos, papéis dos professores e de intérpretes de libras&#45;português em uma perspectiva inclusiva. Atividades de prática como componente curricular aplicadas à comunicação em Libras.">
<polygon fill="#fb8072" stroke="#fb8072" points="882.75,-686.38 781.25,-686.38 781.25,-583.62 882.75,-583.62 882.75,-686.38"/>
<text text-anchor="middle" x="832" y="-669.08" font-family="Arial" font-size="14.00">LSB7244</text>
<text text-anchor="middle" x="832" y="-637.33" font-family="Arial" font-size="14.00">Língua</text>
<text text-anchor="middle" x="832" y="-621.58" font-family="Arial" font-size="14.00">Brasileira de</text>
<text text-anchor="middle" x="832" y="-605.83" font-family="Arial" font-size="14.00">Sinais &#45; Libras</text>
<text text-anchor="middle" x="832" y="-590.08" font-family="Arial" font-size="14.00">I (PCC 18h&#45;a)</text>
</a>
</g>
</g>
<!-- PSI5137&#45;&gt;LSB7244 -->
<!-- HST7601&#45;&gt;HST7701 -->
<g id="edge25" class="edge">
<title>HST7601&#45;&gt;HST7701</title>
<path fill="none" stroke="#80b1d3" stroke-width="2" d="M888.87,-522C899.61,-522 907.55,-522 907.55,-522 907.55,-522 907.55,-221.47 907.55,-221.47 907.55,-221.47 926.17,-221.47 926.17,-221.47"/>
<polygon fill="#80b1d3" stroke="#80b1d3" stroke-width="2" points="927.67,-218.97 927.67,-223.97 926.67,-223.97 926.67,-218.97 927.67,-218.97"/>
<polyline fill="none" stroke="#80b1d3" stroke-width="2" points="928.17,-221.47 925.67,-221.47"/>
</g>
<!-- HST7602&#45;&gt;HST7701 -->
<g id="edge26" class="edge">
<title>HST7602&#45;&gt;HST7701</title>
<path fill="none" stroke="#80b1d3" stroke-width="2" d="M883.45,-402.88C892.21,-402.88 898.55,-402.88 898.55,-402.88 898.55,-402.88 898.55,-213.95 898.55,-213.95 898.55,-213.95 926.1,-213.95 926.1,-213.95"/>
<polygon fill="#80b1d3" stroke="#80b1d3" stroke-width="2" points="927.6,-211.45 927.6,-216.45 926.6,-216.45 926.6,-211.45 927.6,-211.45"/>
<polyline fill="none" stroke="#80b1d3" stroke-width="2" points="928.1,-213.95 925.6,-213.95"/>
</g>
<!-- HST7603&#45;&gt;HST7701 -->
<g id="edge27" class="edge">
<title>HST7603&#45;&gt;HST7701</title>
<path fill="none" stroke="#80b1d3" stroke-width="2" d="M885.27,-249.5C927.53,-249.5 979.55,-249.5 979.55,-249.5 979.55,-249.5 979.55,-243.33 979.55,-243.33"/>
<polygon fill="#80b1d3" stroke="#80b1d3" stroke-width="2" points="977.05,-241.83 982.05,-241.83 982.05,-242.83 977.05,-242.83 977.05,-241.83"/>
<polyline fill="none" stroke="#80b1d3" stroke-width="2" points="979.55,-241.33 979.55,-243.83"/>
</g>
<!-- LSB7244&#45;&gt;HST7701 -->
<!-- LSB7244&#45;&gt;MEN7017 -->
<!-- MEN7018 -->
<g id="node38" class="node">
<title>MEN7018</title>
<g id="a_node38"><a xlink:title="Implementação do projeto de ensino e planos de aulas. Participação no conjunto das atividades do campo de estágio. Sistematização e socialização do estágio.">
<polygon fill="#fdb462" stroke="#fdb462" points="1178.75,-345.5 1069.75,-345.5 1069.75,-258.5 1178.75,-258.5 1178.75,-345.5"/>
<text text-anchor="middle" x="1124.25" y="-328.2" font-family="Arial" font-size="14.00">MEN7018</text>
<text text-anchor="middle" x="1124.25" y="-296.45" font-family="Arial" font-size="14.00">Estágio</text>
<text text-anchor="middle" x="1124.25" y="-280.7" font-family="Arial" font-size="14.00">Supervisionado</text>
<text text-anchor="middle" x="1124.25" y="-264.95" font-family="Arial" font-size="14.00">de História II</text>
</a>
</g>
</g>
<!-- MEN7017&#45;&gt;MEN7018 -->
<g id="edge29" class="edge">
<title>MEN7017&#45;&gt;MEN7018</title>
<path fill="none" stroke="#fdb462" stroke-width="2" d="M1034.07,-287.5C1034.07,-287.5 1066.85,-287.5 1066.85,-287.5"/>
<polygon fill="#fdb462" stroke="#fdb462" stroke-width="2" points="1068.35,-285 1068.35,-290 1067.35,-290 1067.35,-285 1068.35,-285"/>
<polyline fill="none" stroke="#fdb462" stroke-width="2" points="1068.85,-287.5 1066.35,-287.5"/>
</g>
<!-- MEN7017&#45;&gt;MEN7018 -->
<!-- HST7801 -->
<g id="node39" class="node">
<title>HST7801</title>
<g id="a_node39"><a xlink:title="Elaboração e defesa do Trabalho de Conclusão de Curso e comprovação das Atividades Complementares de 240 horas&#45;aula.">
<polygon fill="#fb8072" stroke="#fb8072" points="1315.55,-345.5 1214.75,-345.5 1214.75,-258.5 1315.55,-258.5 1315.55,-345.5"/>
<text text-anchor="middle" x="1265.15" y="-328.2" font-family="Arial" font-size="14.00">HST7801</text>
<text text-anchor="middle" x="1265.15" y="-296.45" font-family="Arial" font-size="14.00">Trabalho de</text>
<text text-anchor="middle" x="1265.15" y="-280.7" font-family="Arial" font-size="14.00">Conclusão de</text>
<text text-anchor="middle" x="1265.15" y="-264.95" font-family="Arial" font-size="14.00">Curso</text>
</a>
</g>
</g>
<!-- MEN7018&#45;&gt;HST7801 -->
</g>
</svg>
