<?xml version="1.0" encoding="UTF-8" standalone="no"?>
<!DOCTYPE svg PUBLIC "-//W3C//DTD SVG 1.1//EN"
 "http://www.w3.org/Graphics/SVG/1.1/DTD/svg11.dtd">
<!-- Generated by graphviz version 9.0.0 (0)
 -->
<!-- Title: grafo_materias Pages: 1 -->
<svg width="1350pt" height="812pt"
 viewBox="0.00 0.00 1349.75 812.00" xmlns="http://www.w3.org/2000/svg" xmlns:xlink="http://www.w3.org/1999/xlink">
<g id="graph0" class="graph" transform="scale(1 1) rotate(0) translate(4 808)">
<title>grafo_materias</title>
<polygon fill="none" stroke="none" points="-4,4 -4,-808 1345.75,-808 1345.75,4 -4,4"/>
<g id="clust1" class="cluster">
<title>cluster_everything</title>
<polygon fill="none" stroke="none" points="8,-8 8,-796 1333.75,-796 1333.75,-8 8,-8"/>
</g>
<g id="clust2" class="cluster">
<title>cluster_header</title>
<polygon fill="none" stroke="none" points="20.85,-736 20.85,-788 1321.65,-788 1321.65,-736 20.85,-736"/>
</g>
<g id="clust3" class="cluster">
<title>cluster_0</title>
<polygon fill="none" stroke="none" points="16,-204 16,-728 142.5,-728 142.5,-204 16,-204"/>
</g>
<g id="clust4" class="cluster">
<title>cluster_1</title>
<polygon fill="none" stroke="none" points="162.5,-16 162.5,-451 289.75,-451 289.75,-16 162.5,-16"/>
</g>
<g id="clust5" class="cluster">
<title>cluster_2</title>
<polygon fill="none" stroke="none" points="309.75,-48 309.75,-498 431,-498 431,-48 309.75,-48"/>
</g>
<g id="clust6" class="cluster">
<title>cluster_3</title>
<polygon fill="none" stroke="none" points="451,-88 451,-612 591,-612 591,-88 451,-88"/>
</g>
<g id="clust7" class="cluster">
<title>cluster_4</title>
<polygon fill="none" stroke="none" points="611,-168 611,-634 747.25,-634 747.25,-168 611,-168"/>
</g>
<g id="clust8" class="cluster">
<title>cluster_5</title>
<polygon fill="none" stroke="none" points="767.25,-208 767.25,-553 896.75,-553 896.75,-208 767.25,-208"/>
</g>
<g id="clust9" class="cluster">
<title>cluster_6</title>
<polygon fill="none" stroke="none" points="916.75,-211 916.75,-556 1035.75,-556 1035.75,-211 916.75,-211"/>
</g>
<g id="clust10" class="cluster">
<title>cluster_7</title>
<polygon fill="none" stroke="none" points="1055.75,-508 1055.75,-612 1321.65,-612 1321.65,-508 1055.75,-508"/>
</g>
<g id="clust11" class="cluster">
<title>cluster_8</title>
<polygon fill="none" stroke="none" points="1200.75,-620 1200.75,-724 1325.75,-724 1325.75,-620 1200.75,-620"/>
</g>
<!-- Fase 01 -->
<g id="node1" class="node">
<title>Fase 01</title>
<polygon fill="lightgrey" stroke="black" points="129.65,-780 28.85,-780 28.85,-744 129.65,-744 129.65,-780"/>
<text text-anchor="middle" x="79.25" y="-756.58" font-family="Arial" font-size="14.00">Fase 01</text>
</g>
<!-- Fase 02 -->
<g id="node2" class="node">
<title>Fase 02</title>
<polygon fill="lightgrey" stroke="black" points="276.52,-780 175.72,-780 175.72,-744 276.52,-744 276.52,-780"/>
<text text-anchor="middle" x="226.12" y="-756.58" font-family="Arial" font-size="14.00">Fase 02</text>
</g>
<!-- Fase 01&#45;&gt;Fase 02 -->
<!-- Fase 03 -->
<g id="node3" class="node">
<title>Fase 03</title>
<polygon fill="lightgrey" stroke="black" points="420.77,-780 319.98,-780 319.98,-744 420.77,-744 420.77,-780"/>
<text text-anchor="middle" x="370.38" y="-756.58" font-family="Arial" font-size="14.00">Fase 03</text>
</g>
<!-- Fase 02&#45;&gt;Fase 03 -->
<!-- Fase 04 -->
<g id="node4" class="node">
<title>Fase 04</title>
<polygon fill="lightgrey" stroke="black" points="571.4,-780 470.6,-780 470.6,-744 571.4,-744 571.4,-780"/>
<text text-anchor="middle" x="521" y="-756.58" font-family="Arial" font-size="14.00">Fase 04</text>
</g>
<!-- Fase 03&#45;&gt;Fase 04 -->
<!-- Fase 05 -->
<g id="node5" class="node">
<title>Fase 05</title>
<polygon fill="lightgrey" stroke="black" points="729.52,-780 628.73,-780 628.73,-744 729.52,-744 729.52,-780"/>
<text text-anchor="middle" x="679.12" y="-756.58" font-family="Arial" font-size="14.00">Fase 05</text>
</g>
<!-- Fase 04&#45;&gt;Fase 05 -->
<!-- Fase 06 -->
<g id="node6" class="node">
<title>Fase 06</title>
<polygon fill="lightgrey" stroke="black" points="882.4,-780 781.6,-780 781.6,-744 882.4,-744 882.4,-780"/>
<text text-anchor="middle" x="832" y="-756.58" font-family="Arial" font-size="14.00">Fase 06</text>
</g>
<!-- Fase 05&#45;&gt;Fase 06 -->
<!-- Fase 07 -->
<g id="node7" class="node">
<title>Fase 07</title>
<polygon fill="lightgrey" stroke="black" points="1026.65,-780 925.85,-780 925.85,-744 1026.65,-744 1026.65,-780"/>
<text text-anchor="middle" x="976.25" y="-756.58" font-family="Arial" font-size="14.00">Fase 07</text>
</g>
<!-- Fase 06&#45;&gt;Fase 07 -->
<!-- Fase 08 -->
<g id="node8" class="node">
<title>Fase 08</title>
<polygon fill="lightgrey" stroke="black" points="1168.65,-780 1067.85,-780 1067.85,-744 1168.65,-744 1168.65,-780"/>
<text text-anchor="middle" x="1118.25" y="-756.58" font-family="Arial" font-size="14.00">Fase 08</text>
</g>
<!-- Fase 07&#45;&gt;Fase 08 -->
<!-- Fase 09 -->
<g id="node9" class="node">
<title>Fase 09</title>
<polygon fill="lightgrey" stroke="black" points="1313.65,-780 1212.85,-780 1212.85,-744 1313.65,-744 1313.65,-780"/>
<text text-anchor="middle" x="1263.25" y="-756.58" font-family="Arial" font-size="14.00">Fase 09</text>
</g>
<!-- Fase 08&#45;&gt;Fase 09 -->
<!-- EED5331 -->
<g id="node10" class="node">
<title>EED5331</title>
<g id="a_node10"><a xlink:title="Conceito de educação: elaborações e práticas em torno da formação moral, intelectual e estética do homem. Conceito de pedagogia: pedagogia da essência e pedagogia da existência &#45; referências clássicas, modernas e contemporâneas. Pensamento pedagógico brasileiro.">
<polygon fill="#8dd3c7" stroke="#8dd3c7" points="129.65,-283.62 28.85,-283.62 28.85,-212.38 129.65,-212.38 129.65,-283.62"/>
<text text-anchor="middle" x="79.25" y="-266.32" font-family="Arial" font-size="14.00">EED5331</text>
<text text-anchor="middle" x="79.25" y="-234.57" font-family="Arial" font-size="14.00">Teorias da</text>
<text text-anchor="middle" x="79.25" y="-218.82" font-family="Arial" font-size="14.00">Educação</text>
</a>
</g>
</g>
<!-- EED8007 -->
<g id="node15" class="node">
<title>EED8007</title>
<polygon fill="#8dd3c7" stroke="#8dd3c7" points="276.52,-442.5 175.72,-442.5 175.72,-355.5 276.52,-355.5 276.52,-442.5"/>
<text text-anchor="middle" x="226.12" y="-425.2" font-family="Arial" font-size="14.00">EED8007</text>
<text text-anchor="middle" x="226.12" y="-393.45" font-family="Arial" font-size="14.00">Organização</text>
<text text-anchor="middle" x="226.12" y="-377.7" font-family="Arial" font-size="14.00">Escolar (PCC</text>
<text text-anchor="middle" x="226.12" y="-361.95" font-family="Arial" font-size="14.00">18h&#45;a)</text>
</g>
<!-- EED5331&#45;&gt;EED8007 -->
<!-- HST7201 -->
<g id="node16" class="node">
<title>HST7201</title>
<g id="a_node16"><a xlink:title="Estudo da Idade Média, suas abordagens historiográficas e suas perspectivas teóricas e de prática de ensino.">
<polygon fill="#80b1d3" stroke="#80b1d3" points="281.75,-111.5 170.5,-111.5 170.5,-24.5 281.75,-24.5 281.75,-111.5"/>
<text text-anchor="middle" x="226.12" y="-94.2" font-family="Arial" font-size="14.00">HST7201</text>
<text text-anchor="middle" x="226.12" y="-62.45" font-family="Arial" font-size="14.00">História</text>
<text text-anchor="middle" x="226.12" y="-46.7" font-family="Arial" font-size="14.00">Medieval ( PCC</text>
<text text-anchor="middle" x="226.12" y="-30.95" font-family="Arial" font-size="14.00">12h&#45;a)</text>
</a>
</g>
</g>
<!-- EED5331&#45;&gt;HST7201 -->
<!-- HST7301 -->
<g id="node17" class="node">
<title>HST7301</title>
<g id="a_node17"><a xlink:title="Estudo em torno da formação do mundo moderno com ênfase nos aspectos sociais, econômicos e culturais que moldaram a sociedade ocidental, suas abordagens teóricas e de ensino.">
<polygon fill="#80b1d3" stroke="#80b1d3" points="281.38,-216.5 170.88,-216.5 170.88,-129.5 281.38,-129.5 281.38,-216.5"/>
<text text-anchor="middle" x="226.12" y="-199.2" font-family="Arial" font-size="14.00">HST7301</text>
<text text-anchor="middle" x="226.12" y="-167.45" font-family="Arial" font-size="14.00">História</text>
<text text-anchor="middle" x="226.12" y="-151.7" font-family="Arial" font-size="14.00">Moderna ( PCC</text>
<text text-anchor="middle" x="226.12" y="-135.95" font-family="Arial" font-size="14.00">12h&#45;a)</text>
</a>
</g>
</g>
<!-- EED5331&#45;&gt;HST7301 -->
<!-- HST7303 -->
<g id="node18" class="node">
<title>HST7303</title>
<g id="a_node18"><a xlink:title="Estudo da ocupação e colonização da América pelos portugueses e das formas de abordagem didático&#45;pedagógicas.">
<polygon fill="#80b1d3" stroke="#80b1d3" points="276.52,-337.38 175.72,-337.38 175.72,-234.62 276.52,-234.62 276.52,-337.38"/>
<text text-anchor="middle" x="226.12" y="-320.07" font-family="Arial" font-size="14.00">HST7303</text>
<text text-anchor="middle" x="226.12" y="-288.32" font-family="Arial" font-size="14.00">História da</text>
<text text-anchor="middle" x="226.12" y="-272.57" font-family="Arial" font-size="14.00">América</text>
<text text-anchor="middle" x="226.12" y="-256.82" font-family="Arial" font-size="14.00">Portuguesa (</text>
<text text-anchor="middle" x="226.12" y="-241.07" font-family="Arial" font-size="14.00">PCC 12h&#45; a)</text>
</a>
</g>
</g>
<!-- EED5331&#45;&gt;HST7303 -->
<!-- HST7101 -->
<g id="node11" class="node">
<title>HST7101</title>
<g id="a_node11"><a xlink:title="Discussão introdutória sobre a construção do conhecimento histórico através do estudo das fontes, da discussão bibliográfica e da forma da narrativa.">
<polygon fill="#80b1d3" stroke="#80b1d3" points="131.88,-388.5 26.62,-388.5 26.62,-301.5 131.88,-301.5 131.88,-388.5"/>
<text text-anchor="middle" x="79.25" y="-371.2" font-family="Arial" font-size="14.00">HST7101</text>
<text text-anchor="middle" x="79.25" y="-339.45" font-family="Arial" font-size="14.00">Introdução aos</text>
<text text-anchor="middle" x="79.25" y="-323.7" font-family="Arial" font-size="14.00">Estudos</text>
<text text-anchor="middle" x="79.25" y="-307.95" font-family="Arial" font-size="14.00">Históricos</text>
</a>
</g>
</g>
<!-- HST7701 -->
<g id="node35" class="node">
<title>HST7701</title>
<g id="a_node35"><a xlink:title="Elaboração de projeto de pesquisa para realização do Trabalho de Conclusão de Curso.">
<polygon fill="#80b1d3" stroke="#80b1d3" points="1026.65,-306.5 925.85,-306.5 925.85,-219.5 1026.65,-219.5 1026.65,-306.5"/>
<text text-anchor="middle" x="976.25" y="-289.2" font-family="Arial" font-size="14.00">HST7701</text>
<text text-anchor="middle" x="976.25" y="-257.45" font-family="Arial" font-size="14.00">Projeto de</text>
<text text-anchor="middle" x="976.25" y="-241.7" font-family="Arial" font-size="14.00">Pesquisa</text>
<text text-anchor="middle" x="976.25" y="-225.95" font-family="Arial" font-size="14.00">Histórica</text>
</a>
</g>
</g>
<!-- HST7101&#45;&gt;HST7701 -->
<g id="edge11" class="edge">
<title>HST7101&#45;&gt;HST7701</title>
<path fill="none" stroke="#80b1d3" stroke-width="2" d="M132.37,-346.44C194.73,-346.44 289.75,-346.44 289.75,-346.44 289.75,-346.44 289.75,-40.5 289.75,-40.5 289.75,-40.5 1012.75,-40.5 1012.75,-40.5 1012.75,-40.5 1012.75,-216.54 1012.75,-216.54"/>
<polygon fill="#80b1d3" stroke="#80b1d3" stroke-width="2" points="1015.25,-218.04 1010.25,-218.04 1010.25,-217.04 1015.25,-217.04 1015.25,-218.04"/>
<polyline fill="none" stroke="#80b1d3" stroke-width="2" points="1012.75,-218.54 1012.75,-216.04"/>
</g>
<!-- HST7102 -->
<g id="node12" class="node">
<title>HST7102</title>
<g id="a_node12"><a xlink:title="Estudo das sociedades do Oriente Antigo, suas relações com o Ocidente, suas abordagens historiográficas e suas perspectivas teóricas e de prática de ensino.">
<polygon fill="#80b1d3" stroke="#80b1d3" points="130.75,-493.5 27.75,-493.5 27.75,-406.5 130.75,-406.5 130.75,-493.5"/>
<text text-anchor="middle" x="79.25" y="-476.2" font-family="Arial" font-size="14.00">HST7102</text>
<text text-anchor="middle" x="79.25" y="-444.45" font-family="Arial" font-size="14.00">História do</text>
<text text-anchor="middle" x="79.25" y="-428.7" font-family="Arial" font-size="14.00">Oriente Antigo</text>
<text text-anchor="middle" x="79.25" y="-412.95" font-family="Arial" font-size="14.00">(PCC 12h&#45;a)</text>
</a>
</g>
</g>
<!-- HST7102&#45;&gt;HST7701 -->
<g id="edge12" class="edge">
<title>HST7102&#45;&gt;HST7701</title>
<path fill="none" stroke="#80b1d3" stroke-width="2" d="M131.07,-466.44C195.4,-466.44 296.75,-466.44 296.75,-466.44 296.75,-466.44 296.75,-48.5 296.75,-48.5 296.75,-48.5 1005.75,-48.5 1005.75,-48.5 1005.75,-48.5 1005.75,-216.58 1005.75,-216.58"/>
<polygon fill="#80b1d3" stroke="#80b1d3" stroke-width="2" points="1008.25,-218.08 1003.25,-218.08 1003.25,-217.08 1008.25,-217.08 1008.25,-218.08"/>
<polyline fill="none" stroke="#80b1d3" stroke-width="2" points="1005.75,-218.58 1005.75,-216.08"/>
</g>
<!-- HST7103 -->
<g id="node13" class="node">
<title>HST7103</title>
<g id="a_node13"><a xlink:title="Estudo das sociedades da Antigüidade Clássica, sua organização e mudanças a partir do contato com o Oriente, suas abordagens historiográficas e suas perspectivas teóricas e de prática de ensino.">
<polygon fill="#80b1d3" stroke="#80b1d3" points="134.5,-614.38 24,-614.38 24,-511.62 134.5,-511.62 134.5,-614.38"/>
<text text-anchor="middle" x="79.25" y="-597.08" font-family="Arial" font-size="14.00">HST7103</text>
<text text-anchor="middle" x="79.25" y="-565.33" font-family="Arial" font-size="14.00">História da</text>
<text text-anchor="middle" x="79.25" y="-549.58" font-family="Arial" font-size="14.00">Antiguidade</text>
<text text-anchor="middle" x="79.25" y="-533.83" font-family="Arial" font-size="14.00">Ocidental (PCC</text>
<text text-anchor="middle" x="79.25" y="-518.08" font-family="Arial" font-size="14.00">12h&#45;a)</text>
</a>
</g>
</g>
<!-- HST7103&#45;&gt;HST7701 -->
<g id="edge13" class="edge">
<title>HST7103&#45;&gt;HST7701</title>
<path fill="none" stroke="#80b1d3" stroke-width="2" d="M134.69,-523.38C267.47,-523.38 592.75,-523.38 592.75,-523.38 592.75,-523.38 592.75,-149.81 592.75,-149.81 592.75,-149.81 962.75,-149.81 962.75,-149.81 962.75,-149.81 962.75,-216.74 962.75,-216.74"/>
<polygon fill="#80b1d3" stroke="#80b1d3" stroke-width="2" points="965.25,-218.24 960.25,-218.24 960.25,-217.24 965.25,-217.24 965.25,-218.24"/>
<polyline fill="none" stroke="#80b1d3" stroke-width="2" points="962.75,-218.74 962.75,-216.24"/>
</g>
<!-- HST7104 -->
<g id="node14" class="node">
<title>HST7104</title>
<g id="a_node14"><a xlink:title="Estudo dos problemas da arte em diferentes épocas e sociedades e das abordagens teórico&#45;metodológicas para a decodificação de imagens no âmbito da pesquisa e ensino da História.">
<polygon fill="#80b1d3" stroke="#80b1d3" points="129.65,-719.5 28.85,-719.5 28.85,-632.5 129.65,-632.5 129.65,-719.5"/>
<text text-anchor="middle" x="79.25" y="-702.2" font-family="Arial" font-size="14.00">HST7104</text>
<text text-anchor="middle" x="79.25" y="-670.45" font-family="Arial" font-size="14.00">História da</text>
<text text-anchor="middle" x="79.25" y="-654.7" font-family="Arial" font-size="14.00">Arte (PCC</text>
<text text-anchor="middle" x="79.25" y="-638.95" font-family="Arial" font-size="14.00">12h&#45;a)</text>
</a>
</g>
</g>
<!-- HST7104&#45;&gt;HST7701 -->
<g id="edge14" class="edge">
<title>HST7104&#45;&gt;HST7701</title>
<path fill="none" stroke="#80b1d3" stroke-width="2" d="M129.94,-653.25C310.96,-653.25 914.75,-653.25 914.75,-653.25 914.75,-653.25 914.75,-294.07 914.75,-294.07 914.75,-294.07 922.96,-294.07 922.96,-294.07"/>
<polygon fill="#80b1d3" stroke="#80b1d3" stroke-width="2" points="924.46,-291.57 924.46,-296.57 923.46,-296.57 923.46,-291.57 924.46,-291.57"/>
<polyline fill="none" stroke="#80b1d3" stroke-width="2" points="924.96,-294.07 922.46,-294.07"/>
</g>
<!-- HST7201&#45;&gt;HST7701 -->
<g id="edge15" class="edge">
<title>HST7201&#45;&gt;HST7701</title>
<path fill="none" stroke="#80b1d3" stroke-width="2" d="M282.25,-32.5C463.23,-32.5 1019.75,-32.5 1019.75,-32.5 1019.75,-32.5 1019.75,-216.6 1019.75,-216.6"/>
<polygon fill="#80b1d3" stroke="#80b1d3" stroke-width="2" points="1022.25,-218.1 1017.25,-218.1 1017.25,-217.1 1022.25,-217.1 1022.25,-218.1"/>
<polyline fill="none" stroke="#80b1d3" stroke-width="2" points="1019.75,-218.6 1019.75,-216.1"/>
</g>
<!-- HST7301&#45;&gt;HST7701 -->
<g id="edge17" class="edge">
<title>HST7301&#45;&gt;HST7701</title>
<path fill="none" stroke="#80b1d3" stroke-width="2" d="M281.77,-149.5C342.97,-149.5 432.75,-149.5 432.75,-149.5 432.75,-149.5 432.75,-76.44 432.75,-76.44 432.75,-76.44 990.75,-76.44 990.75,-76.44 990.75,-76.44 990.75,-216.76 990.75,-216.76"/>
<polygon fill="#80b1d3" stroke="#80b1d3" stroke-width="2" points="993.25,-218.26 988.25,-218.26 988.25,-217.26 993.25,-217.26 993.25,-218.26"/>
<polyline fill="none" stroke="#80b1d3" stroke-width="2" points="990.75,-218.76 990.75,-216.26"/>
</g>
<!-- HST7202 -->
<g id="node19" class="node">
<title>HST7202</title>
<g id="a_node19"><a xlink:title="Estudo das diferentes estruturas sócio&#45;políticas da África entre os séculos XVI e XX, os processos de constituição dos sistemas coloniais e de descolonização e as formas de abordagens didático&#45;pedagógicas.">
<polygon fill="#80b1d3" stroke="#80b1d3" points="420.77,-143.5 319.98,-143.5 319.98,-56.5 420.77,-56.5 420.77,-143.5"/>
<text text-anchor="middle" x="370.38" y="-126.2" font-family="Arial" font-size="14.00">HST7202</text>
<text text-anchor="middle" x="370.38" y="-94.45" font-family="Arial" font-size="14.00">História da</text>
<text text-anchor="middle" x="370.38" y="-78.7" font-family="Arial" font-size="14.00">África ( PCC</text>
<text text-anchor="middle" x="370.38" y="-62.95" font-family="Arial" font-size="14.00">12h&#45;a)</text>
</a>
</g>
</g>
<!-- HST7303&#45;&gt;HST7202 -->
<!-- HST7302 -->
<g id="node20" class="node">
<title>HST7302</title>
<g id="a_node20"><a xlink:title="Estudo da conquista e colonização da América espanhola e anglo&#45;saxônica e as formas de abordagens didático&#45;pedagógicas.">
<polygon fill="#80b1d3" stroke="#80b1d3" points="423,-369.38 317.75,-369.38 317.75,-266.62 423,-266.62 423,-369.38"/>
<text text-anchor="middle" x="370.38" y="-352.07" font-family="Arial" font-size="14.00">HST7302</text>
<text text-anchor="middle" x="370.38" y="-320.32" font-family="Arial" font-size="14.00">História da</text>
<text text-anchor="middle" x="370.38" y="-304.57" font-family="Arial" font-size="14.00">América</text>
<text text-anchor="middle" x="370.38" y="-288.82" font-family="Arial" font-size="14.00">Colonial ( PCC</text>
<text text-anchor="middle" x="370.38" y="-273.07" font-family="Arial" font-size="14.00">12h&#45;a)</text>
</a>
</g>
</g>
<!-- HST7303&#45;&gt;HST7302 -->
<!-- HST7304 -->
<g id="node21" class="node">
<title>HST7304</title>
<g id="a_node21"><a xlink:title="Estudo das populações indígenas no Brasil e das políticas indigenistas, bem como sobre as diferentes abordagens historiográficas relativas à representação dessas populações entre os séculos XVI e XXI e suas perspectivas teóricas e de ensino.">
<polygon fill="#80b1d3" stroke="#80b1d3" points="423,-248.5 317.75,-248.5 317.75,-161.5 423,-161.5 423,-248.5"/>
<text text-anchor="middle" x="370.38" y="-231.2" font-family="Arial" font-size="14.00">HST7304</text>
<text text-anchor="middle" x="370.38" y="-199.45" font-family="Arial" font-size="14.00">História</text>
<text text-anchor="middle" x="370.38" y="-183.7" font-family="Arial" font-size="14.00">Indígena (PCC</text>
<text text-anchor="middle" x="370.38" y="-167.95" font-family="Arial" font-size="14.00">12h&#45;a)</text>
</a>
</g>
</g>
<!-- HST7303&#45;&gt;HST7304 -->
<!-- MEN7003 -->
<g id="node22" class="node">
<title>MEN7003</title>
<g id="a_node22"><a xlink:title="&#45; Características do estado da arte do ensino de História e sua relação com a pesquisa em ensino, os congressos e as publicações específicas da área de ensino, os cursos de pós&#45;graduação em ensino e a metodologia de ensino. O ensino na área de História, seus processos em diferentes espaços educativos.">
<polygon fill="#fdb462" stroke="#fdb462" points="420.77,-490.38 319.98,-490.38 319.98,-387.62 420.77,-387.62 420.77,-490.38"/>
<text text-anchor="middle" x="370.38" y="-473.07" font-family="Arial" font-size="14.00">MEN7003</text>
<text text-anchor="middle" x="370.38" y="-441.32" font-family="Arial" font-size="14.00">Seminário de</text>
<text text-anchor="middle" x="370.38" y="-425.57" font-family="Arial" font-size="14.00">Pesquisa em</text>
<text text-anchor="middle" x="370.38" y="-409.82" font-family="Arial" font-size="14.00">Ensino ( PCC</text>
<text text-anchor="middle" x="370.38" y="-394.07" font-family="Arial" font-size="14.00">72h&#45;a)</text>
</a>
</g>
</g>
<!-- HST7303&#45;&gt;MEN7003 -->
<!-- HST7303&#45;&gt;HST7701 -->
<g id="edge19" class="edge">
<title>HST7303&#45;&gt;HST7701</title>
<path fill="none" stroke="#80b1d3" stroke-width="2" d="M276.95,-257.56C340.7,-257.56 441.75,-257.56 441.75,-257.56 441.75,-257.56 441.75,-86.41 441.75,-86.41 441.75,-86.41 983.75,-86.41 983.75,-86.41 983.75,-86.41 983.75,-216.85 983.75,-216.85"/>
<polygon fill="#80b1d3" stroke="#80b1d3" stroke-width="2" points="986.25,-218.35 981.25,-218.35 981.25,-217.35 986.25,-217.35 986.25,-218.35"/>
<polyline fill="none" stroke="#80b1d3" stroke-width="2" points="983.75,-218.85 983.75,-216.35"/>
</g>
<!-- HST7202&#45;&gt;HST7701 -->
<g id="edge16" class="edge">
<title>HST7202&#45;&gt;HST7701</title>
<path fill="none" stroke="#80b1d3" stroke-width="2" d="M421.27,-66.47C570.86,-66.47 998.75,-66.47 998.75,-66.47 998.75,-66.47 998.75,-216.88 998.75,-216.88"/>
<polygon fill="#80b1d3" stroke="#80b1d3" stroke-width="2" points="1001.25,-218.38 996.25,-218.38 996.25,-217.38 1001.25,-217.38 1001.25,-218.38"/>
<polyline fill="none" stroke="#80b1d3" stroke-width="2" points="998.75,-218.88 998.75,-216.38"/>
</g>
<!-- HST7302&#45;&gt;HST7701 -->
<g id="edge18" class="edge">
<title>HST7302&#45;&gt;HST7701</title>
<path fill="none" stroke="#80b1d3" stroke-width="2" d="M423.27,-281.56C487.62,-281.56 587.75,-281.56 587.75,-281.56 587.75,-281.56 587.75,-132 587.75,-132 587.75,-132 969.75,-132 969.75,-132 969.75,-132 969.75,-216.51 969.75,-216.51"/>
<polygon fill="#80b1d3" stroke="#80b1d3" stroke-width="2" points="972.25,-218.01 967.25,-218.01 967.25,-217.01 972.25,-217.01 972.25,-218.01"/>
<polyline fill="none" stroke="#80b1d3" stroke-width="2" points="969.75,-218.51 969.75,-216.01"/>
</g>
<!-- HST7401 -->
<g id="node23" class="node">
<title>HST7401</title>
<g id="a_node23"><a xlink:title="Estudo dos fundamentos teóricos das concepções modernas em História e dos modelos históricos dos séculos XVIII e XIX.">
<polygon fill="#80b1d3" stroke="#80b1d3" points="571.4,-167.62 470.6,-167.62 470.6,-96.38 571.4,-96.38 571.4,-167.62"/>
<text text-anchor="middle" x="521" y="-150.32" font-family="Arial" font-size="14.00">HST7401</text>
<text text-anchor="middle" x="521" y="-118.58" font-family="Arial" font-size="14.00">Teoria da</text>
<text text-anchor="middle" x="521" y="-102.83" font-family="Arial" font-size="14.00">História I</text>
</a>
</g>
</g>
<!-- MEN7003&#45;&gt;HST7401 -->
<!-- HST7402 -->
<g id="node24" class="node">
<title>HST7402</title>
<polygon fill="#80b1d3" stroke="#80b1d3" points="581.5,-272.5 460.5,-272.5 460.5,-185.5 581.5,-185.5 581.5,-272.5"/>
<text text-anchor="middle" x="521" y="-255.2" font-family="Arial" font-size="14.00">HST7402</text>
<text text-anchor="middle" x="521" y="-223.45" font-family="Arial" font-size="14.00">História</text>
<text text-anchor="middle" x="521" y="-207.7" font-family="Arial" font-size="14.00">Contemporânea I</text>
<text text-anchor="middle" x="521" y="-191.95" font-family="Arial" font-size="14.00">(PCC 12h&#45;a)</text>
</g>
<!-- MEN7003&#45;&gt;HST7402 -->
<!-- HST7403 -->
<g id="node25" class="node">
<title>HST7403</title>
<g id="a_node25"><a xlink:title="Estudo da trajetória histórica dos países da América de colonização espanhola, francesa e inglesa a partir dos processos de independência e as formas de abordagens didático&#45;pedagógicas.">
<polygon fill="#80b1d3" stroke="#80b1d3" points="571.4,-393.38 470.6,-393.38 470.6,-290.62 571.4,-290.62 571.4,-393.38"/>
<text text-anchor="middle" x="521" y="-376.07" font-family="Arial" font-size="14.00">HST7403</text>
<text text-anchor="middle" x="521" y="-344.32" font-family="Arial" font-size="14.00">História da</text>
<text text-anchor="middle" x="521" y="-328.57" font-family="Arial" font-size="14.00">América</text>
<text text-anchor="middle" x="521" y="-312.82" font-family="Arial" font-size="14.00">Independente</text>
<text text-anchor="middle" x="521" y="-297.07" font-family="Arial" font-size="14.00">(PCC 12h&#45;a)</text>
</a>
</g>
</g>
<!-- MEN7003&#45;&gt;HST7403 -->
<!-- HST7404 -->
<g id="node26" class="node">
<title>HST7404</title>
<g id="a_node26"><a xlink:title="Estudo do processo de independência do Brasil, a construção do Estado Nacional e a sociedade brasileira durante o século XIX. As formas de abordagens didático&#45;pedagógicas.">
<polygon fill="#80b1d3" stroke="#80b1d3" points="583,-514.38 459,-514.38 459,-411.62 583,-411.62 583,-514.38"/>
<text text-anchor="middle" x="521" y="-497.07" font-family="Arial" font-size="14.00">HST7404</text>
<text text-anchor="middle" x="521" y="-465.32" font-family="Arial" font-size="14.00">História do</text>
<text text-anchor="middle" x="521" y="-449.57" font-family="Arial" font-size="14.00">Brasil</text>
<text text-anchor="middle" x="521" y="-433.82" font-family="Arial" font-size="14.00">Monárquico (PCC</text>
<text text-anchor="middle" x="521" y="-418.07" font-family="Arial" font-size="14.00">12h&#45;a)</text>
</a>
</g>
</g>
<!-- MEN7003&#45;&gt;HST7404 -->
<!-- MEN5602 -->
<g id="node27" class="node">
<title>MEN5602</title>
<g id="a_node27"><a xlink:title="&#45; Educação escolar como fenômeno histórico&#45;social. Currículo e trabalho pedagógico no contexto escolar. As relações de ensino&#45;aprendizagem em contexto escolar. Mediações pedagógicas e suas relações com o ensino da área específica do curso.">
<polygon fill="#fdb462" stroke="#fdb462" points="578.12,-603.62 463.88,-603.62 463.88,-532.38 578.12,-532.38 578.12,-603.62"/>
<text text-anchor="middle" x="521" y="-586.33" font-family="Arial" font-size="14.00">MEN5602</text>
<text text-anchor="middle" x="521" y="-554.58" font-family="Arial" font-size="14.00">Didática B (PCC</text>
<text text-anchor="middle" x="521" y="-538.83" font-family="Arial" font-size="14.00">12h&#45;a)</text>
</a>
</g>
</g>
<!-- MEN7003&#45;&gt;MEN5602 -->
<g id="edge9" class="edge">
<title>MEN7003&#45;&gt;MEN5602</title>
<path fill="none" stroke="#fdb462" stroke-width="2" d="M353.75,-490.66C353.75,-530.86 353.75,-579.88 353.75,-579.88 353.75,-579.88 460.94,-579.88 460.94,-579.88"/>
<polygon fill="#fdb462" stroke="#fdb462" stroke-width="2" points="462.44,-577.38 462.44,-582.38 461.44,-582.38 461.44,-577.38 462.44,-577.38"/>
<polyline fill="none" stroke="#fdb462" stroke-width="2" points="462.94,-579.88 460.44,-579.88"/>
</g>
<!-- MEN7003&#45;&gt;MEN5602 -->
<!-- HST7401&#45;&gt;HST7701 -->
<g id="edge20" class="edge">
<title>HST7401&#45;&gt;HST7701</title>
<path fill="none" stroke="#80b1d3" stroke-width="2" d="M571.51,-114.19C690.17,-114.19 976.75,-114.19 976.75,-114.19 976.75,-114.19 976.75,-216.66 976.75,-216.66"/>
<polygon fill="#80b1d3" stroke="#80b1d3" stroke-width="2" points="979.25,-218.16 974.25,-218.16 974.25,-217.16 979.25,-217.16 979.25,-218.16"/>
<polyline fill="none" stroke="#80b1d3" stroke-width="2" points="976.75,-218.66 976.75,-216.16"/>
</g>
<!-- HST7402&#45;&gt;HST7701 -->
<g id="edge21" class="edge">
<title>HST7402&#45;&gt;HST7701</title>
<path fill="none" stroke="#80b1d3" stroke-width="2" d="M576.75,-185.29C576.75,-176.84 576.75,-170.54 576.75,-170.54 576.75,-170.54 954.75,-170.54 954.75,-170.54 954.75,-170.54 954.75,-216.71 954.75,-216.71"/>
<polygon fill="#80b1d3" stroke="#80b1d3" stroke-width="2" points="957.25,-218.21 952.25,-218.21 952.25,-217.21 957.25,-217.21 957.25,-218.21"/>
<polyline fill="none" stroke="#80b1d3" stroke-width="2" points="954.75,-218.71 954.75,-216.21"/>
</g>
<!-- HST7403&#45;&gt;HST7701 -->
<g id="edge22" class="edge">
<title>HST7403&#45;&gt;HST7701</title>
<path fill="none" stroke="#80b1d3" stroke-width="2" d="M571.53,-316.54C585.42,-316.54 596.75,-316.54 596.75,-316.54 596.75,-316.54 596.75,-173.46 596.75,-173.46 596.75,-173.46 947.75,-173.46 947.75,-173.46 947.75,-173.46 947.75,-216.52 947.75,-216.52"/>
<polygon fill="#80b1d3" stroke="#80b1d3" stroke-width="2" points="950.25,-218.02 945.25,-218.02 945.25,-217.02 950.25,-217.02 950.25,-218.02"/>
<polyline fill="none" stroke="#80b1d3" stroke-width="2" points="947.75,-218.52 947.75,-216.02"/>
</g>
<!-- HST7404&#45;&gt;HST7701 -->
<g id="edge23" class="edge">
<title>HST7404&#45;&gt;HST7701</title>
<path fill="none" stroke="#80b1d3" stroke-width="2" d="M583.23,-498.56C650.67,-498.56 748.75,-498.56 748.75,-498.56 748.75,-498.56 748.75,-202.62 748.75,-202.62 748.75,-202.62 933.75,-202.62 933.75,-202.62 933.75,-202.62 933.75,-216.62 933.75,-216.62"/>
<polygon fill="#80b1d3" stroke="#80b1d3" stroke-width="2" points="936.25,-218.12 931.25,-218.12 931.25,-217.12 936.25,-217.12 936.25,-218.12"/>
<polyline fill="none" stroke="#80b1d3" stroke-width="2" points="933.75,-218.62 933.75,-216.12"/>
</g>
<!-- PSI5137 -->
<g id="node28" class="node">
<title>PSI5137</title>
<g id="a_node28"><a xlink:title="Introdução à Psicologia como ciência: histórico, objetivo e métodos. Interações sociais no contexto educacional e o lugar do professor. Introdução ao estudo do desenvolvimento e de aprendizagem &#45; infância, adolescência, idade adulta. Contribuições da Psicologia na prática escolar cotidiana e na compreensão do fracasso escolar. Prática como componente curricular.">
<polygon fill="#ffffb3" stroke="#ffffb3" points="739.25,-626.25 619,-626.25 619,-507.75 739.25,-507.75 739.25,-626.25"/>
<text text-anchor="middle" x="679.12" y="-608.95" font-family="Arial" font-size="14.00">PSI5137</text>
<text text-anchor="middle" x="679.12" y="-577.2" font-family="Arial" font-size="14.00">Psicologia</text>
<text text-anchor="middle" x="679.12" y="-561.45" font-family="Arial" font-size="14.00">Educacional:</text>
<text text-anchor="middle" x="679.12" y="-545.7" font-family="Arial" font-size="14.00">Desenvolvimento</text>
<text text-anchor="middle" x="679.12" y="-529.95" font-family="Arial" font-size="14.00">e Aprendizagem</text>
<text text-anchor="middle" x="679.12" y="-514.2" font-family="Arial" font-size="14.00">(PCC 12h&#45;a)</text>
</a>
</g>
</g>
<!-- MEN5602&#45;&gt;PSI5137 -->
<!-- HST7501 -->
<g id="node29" class="node">
<title>HST7501</title>
<g id="a_node29"><a xlink:title="A ditadura militar no Brasil foi instaurada num momento de crescente participação feminina no espaço público, fruto do intenso processo de mudanças nas relações de gênero se desenvolvia no período. Um contingente apreciável de mulheres uniu&#45;se aos homens na luta por uma sociedade mais igualitária e justa. A repressão às organizações de esquerda foi extremamente violenta, tendo sido denunciada por pessoas ligadas à defesa dos Direitos Humanos. Através da categoria gênero, pode&#45;se refletir sobre como essa repressão, que atingiu homens e mulheres, foi vivenciada e denunciada por suas vítimas. A partir de uma análise de caso do Brasil, serão feitas comparações com outros países do Cone Sul: Argentina, Uruguai e Chile.">
<polygon fill="#80b1d3" stroke="#80b1d3" points="729.52,-247.62 628.73,-247.62 628.73,-176.38 729.52,-176.38 729.52,-247.62"/>
<text text-anchor="middle" x="679.12" y="-230.32" font-family="Arial" font-size="14.00">HST7501</text>
<text text-anchor="middle" x="679.12" y="-198.57" font-family="Arial" font-size="14.00">Teoria da</text>
<text text-anchor="middle" x="679.12" y="-182.82" font-family="Arial" font-size="14.00">História II</text>
</a>
</g>
</g>
<!-- MEN5602&#45;&gt;HST7501 -->
<!-- HST7502 -->
<g id="node30" class="node">
<title>HST7502</title>
<g id="a_node30"><a xlink:title="Estudo da sociedade brasileira da proclamação da república até a primeira metade do século XX. As formas de abordagens didático&#45;pedagógicas.">
<polygon fill="#80b1d3" stroke="#80b1d3" points="729.52,-368.38 628.73,-368.38 628.73,-265.62 729.52,-265.62 729.52,-368.38"/>
<text text-anchor="middle" x="679.12" y="-351.07" font-family="Arial" font-size="14.00">HST7502</text>
<text text-anchor="middle" x="679.12" y="-319.32" font-family="Arial" font-size="14.00">História do</text>
<text text-anchor="middle" x="679.12" y="-303.57" font-family="Arial" font-size="14.00">Brasil</text>
<text text-anchor="middle" x="679.12" y="-287.82" font-family="Arial" font-size="14.00">Republicano I</text>
<text text-anchor="middle" x="679.12" y="-272.07" font-family="Arial" font-size="14.00">(PCC 12h&#45; a)</text>
</a>
</g>
</g>
<!-- MEN5602&#45;&gt;HST7502 -->
<!-- MEN7005 -->
<g id="node31" class="node">
<title>MEN7005</title>
<g id="a_node31"><a xlink:title="&#45;As relações entre História, Educação e Cultura. A cultura imagética, o livro didático e o ensino de História. A pesquisa no ensino de História. A constituição da História como disciplina no contexto da educação escolarizada no Brasil.">
<polygon fill="#fdb462" stroke="#fdb462" points="733.62,-489.38 624.62,-489.38 624.62,-386.62 733.62,-386.62 733.62,-489.38"/>
<text text-anchor="middle" x="679.12" y="-472.07" font-family="Arial" font-size="14.00">MEN7005</text>
<text text-anchor="middle" x="679.12" y="-440.32" font-family="Arial" font-size="14.00">Metodologia do</text>
<text text-anchor="middle" x="679.12" y="-424.57" font-family="Arial" font-size="14.00">Ensino de</text>
<text text-anchor="middle" x="679.12" y="-408.82" font-family="Arial" font-size="14.00">História &#45; PCC</text>
<text text-anchor="middle" x="679.12" y="-393.07" font-family="Arial" font-size="14.00">36 horas/aula</text>
</a>
</g>
</g>
<!-- MEN5602&#45;&gt;MEN7005 -->
<g id="edge10" class="edge">
<title>MEN5602&#45;&gt;MEN7005</title>
<path fill="none" stroke="#fdb462" stroke-width="2" d="M578.6,-568C596.08,-568 610.75,-568 610.75,-568 610.75,-568 610.75,-437.54 610.75,-437.54 610.75,-437.54 621.76,-437.54 621.76,-437.54"/>
<polygon fill="#fdb462" stroke="#fdb462" stroke-width="2" points="623.26,-435.04 623.26,-440.04 622.26,-440.04 622.26,-435.04 623.26,-435.04"/>
<polyline fill="none" stroke="#fdb462" stroke-width="2" points="623.76,-437.54 621.26,-437.54"/>
</g>
<!-- MEN5602&#45;&gt;MEN7005 -->
<!-- HST7501&#45;&gt;HST7701 -->
<g id="edge24" class="edge">
<title>HST7501&#45;&gt;HST7701</title>
<path fill="none" stroke="#80b1d3" stroke-width="2" d="M729.88,-189.5C805.96,-189.5 940.75,-189.5 940.75,-189.5 940.75,-189.5 940.75,-216.9 940.75,-216.9"/>
<polygon fill="#80b1d3" stroke="#80b1d3" stroke-width="2" points="943.25,-218.4 938.25,-218.4 938.25,-217.4 943.25,-217.4 943.25,-218.4"/>
<polyline fill="none" stroke="#80b1d3" stroke-width="2" points="940.75,-218.9 940.75,-216.4"/>
</g>
<!-- HST7502&#45;&gt;HST7701 -->
<g id="edge25" class="edge">
<title>HST7502&#45;&gt;HST7701</title>
<path fill="none" stroke="#80b1d3" stroke-width="2" d="M729.95,-343.38C793.7,-343.38 894.75,-343.38 894.75,-343.38 894.75,-343.38 894.75,-244.36 894.75,-244.36 894.75,-244.36 923.06,-244.36 923.06,-244.36"/>
<polygon fill="#80b1d3" stroke="#80b1d3" stroke-width="2" points="924.56,-241.86 924.56,-246.86 923.56,-246.86 923.56,-241.86 924.56,-241.86"/>
<polyline fill="none" stroke="#80b1d3" stroke-width="2" points="925.06,-244.36 922.56,-244.36"/>
</g>
<!-- HST7601 -->
<g id="node32" class="node">
<title>HST7601</title>
<g id="a_node32"><a xlink:title="Estudo do século XX, da Primeira Guerra Mundial à globalização, suas abordagens teóricas e de ensino.">
<polygon fill="#80b1d3" stroke="#80b1d3" points="888.75,-439.5 775.25,-439.5 775.25,-352.5 888.75,-352.5 888.75,-439.5"/>
<text text-anchor="middle" x="832" y="-422.2" font-family="Arial" font-size="14.00">HST7601</text>
<text text-anchor="middle" x="832" y="-390.45" font-family="Arial" font-size="14.00">História</text>
<text text-anchor="middle" x="832" y="-374.7" font-family="Arial" font-size="14.00">Contemporânea</text>
<text text-anchor="middle" x="832" y="-358.95" font-family="Arial" font-size="14.00">II (PCC 12h&#45;a)</text>
</a>
</g>
</g>
<!-- MEN7005&#45;&gt;HST7601 -->
<!-- HST7602 -->
<g id="node33" class="node">
<title>HST7602</title>
<g id="a_node33"><a xlink:title="Estudo da sociedade brasileira contemporânea a partir de 1945 e as formas de abordagens didático&#45;pedagógicas.">
<polygon fill="#80b1d3" stroke="#80b1d3" points="883.12,-334.25 780.88,-334.25 780.88,-215.75 883.12,-215.75 883.12,-334.25"/>
<text text-anchor="middle" x="832" y="-316.95" font-family="Arial" font-size="14.00">HST7602</text>
<text text-anchor="middle" x="832" y="-285.2" font-family="Arial" font-size="14.00">História do</text>
<text text-anchor="middle" x="832" y="-269.45" font-family="Arial" font-size="14.00">Brasil</text>
<text text-anchor="middle" x="832" y="-253.7" font-family="Arial" font-size="14.00">Republicano II</text>
<text text-anchor="middle" x="832" y="-237.95" font-family="Arial" font-size="14.00">&#45; PCC 12</text>
<text text-anchor="middle" x="832" y="-222.2" font-family="Arial" font-size="14.00">horas&#45;aula</text>
</a>
</g>
</g>
<!-- MEN7005&#45;&gt;HST7602 -->
<!-- HST7603 -->
<g id="node34" class="node">
<title>HST7603</title>
<g id="a_node34"><a xlink:title="Estudo da História e da historiografia catarinense e as formas de abordagens didático&#45;pedagógicas.">
<polygon fill="#80b1d3" stroke="#80b1d3" points="885,-544.5 779,-544.5 779,-457.5 885,-457.5 885,-544.5"/>
<text text-anchor="middle" x="832" y="-527.2" font-family="Arial" font-size="14.00">HST7603</text>
<text text-anchor="middle" x="832" y="-495.45" font-family="Arial" font-size="14.00">História de</text>
<text text-anchor="middle" x="832" y="-479.7" font-family="Arial" font-size="14.00">Santa Catarina</text>
<text text-anchor="middle" x="832" y="-463.95" font-family="Arial" font-size="14.00">(PCC 12h&#45;a)</text>
</a>
</g>
</g>
<!-- MEN7005&#45;&gt;HST7603 -->
<!-- MEN7017 -->
<g id="node39" class="node">
<title>MEN7017</title>
<polygon fill="#fdb462" stroke="#fdb462" points="1172.75,-603.5 1063.75,-603.5 1063.75,-516.5 1172.75,-516.5 1172.75,-603.5"/>
<text text-anchor="middle" x="1118.25" y="-586.2" font-family="Arial" font-size="14.00">MEN7017</text>
<text text-anchor="middle" x="1118.25" y="-554.45" font-family="Arial" font-size="14.00">Estágio</text>
<text text-anchor="middle" x="1118.25" y="-538.7" font-family="Arial" font-size="14.00">Supervisionado</text>
<text text-anchor="middle" x="1118.25" y="-522.95" font-family="Arial" font-size="14.00">de História I</text>
</g>
<!-- MEN7005&#45;&gt;MEN7017 -->
<g id="edge29" class="edge">
<title>MEN7005&#45;&gt;MEN7017</title>
<path fill="none" stroke="#fdb462" stroke-width="2" d="M733.73,-478.75C747.15,-478.75 757.75,-478.75 757.75,-478.75 757.75,-478.75 757.75,-575.94 757.75,-575.94 757.75,-575.94 1061,-575.94 1061,-575.94"/>
<polygon fill="#fdb462" stroke="#fdb462" stroke-width="2" points="1062.5,-573.44 1062.5,-578.44 1061.5,-578.44 1061.5,-573.44 1062.5,-573.44"/>
<polyline fill="none" stroke="#fdb462" stroke-width="2" points="1063,-575.94 1060.5,-575.94"/>
</g>
<!-- HST7601&#45;&gt;HST7701 -->
<g id="edge26" class="edge">
<title>HST7601&#45;&gt;HST7701</title>
<path fill="none" stroke="#80b1d3" stroke-width="2" d="M889.16,-377.46C895.52,-377.46 899.75,-377.46 899.75,-377.46 899.75,-377.46 899.75,-256.79 899.75,-256.79 899.75,-256.79 923.15,-256.79 923.15,-256.79"/>
<polygon fill="#80b1d3" stroke="#80b1d3" stroke-width="2" points="924.65,-254.29 924.65,-259.29 923.65,-259.29 923.65,-254.29 924.65,-254.29"/>
<polyline fill="none" stroke="#80b1d3" stroke-width="2" points="925.15,-256.79 922.65,-256.79"/>
</g>
<!-- HST7602&#45;&gt;HST7701 -->
<g id="edge27" class="edge">
<title>HST7602&#45;&gt;HST7701</title>
<path fill="none" stroke="#80b1d3" stroke-width="2" d="M883.26,-231.93C883.26,-231.93 923.14,-231.93 923.14,-231.93"/>
<polygon fill="#80b1d3" stroke="#80b1d3" stroke-width="2" points="924.64,-229.43 924.64,-234.43 923.64,-234.43 923.64,-229.43 924.64,-229.43"/>
<polyline fill="none" stroke="#80b1d3" stroke-width="2" points="925.14,-231.93 922.64,-231.93"/>
</g>
<!-- HST7603&#45;&gt;HST7701 -->
<g id="edge28" class="edge">
<title>HST7603&#45;&gt;HST7701</title>
<path fill="none" stroke="#80b1d3" stroke-width="2" d="M885.25,-474.9C896.35,-474.9 904.75,-474.9 904.75,-474.9 904.75,-474.9 904.75,-269.21 904.75,-269.21 904.75,-269.21 922.93,-269.21 922.93,-269.21"/>
<polygon fill="#80b1d3" stroke="#80b1d3" stroke-width="2" points="924.43,-266.71 924.43,-271.71 923.43,-271.71 923.43,-266.71 924.43,-266.71"/>
<polyline fill="none" stroke="#80b1d3" stroke-width="2" points="924.93,-269.21 922.43,-269.21"/>
</g>
<!-- HST7603&#45;&gt;HST7701 -->
<!-- LSB7244 -->
<g id="node36" class="node">
<title>LSB7244</title>
<g id="a_node36"><a xlink:title="Prática de conversação em Libras habilitando o aluno a se comunicar nível básico. Mitos e Crenças relacionadas à Língua Brasileira de Sinais (Libras) e aos Surdos. Noções sobre os estudos linguísticos das línguas de sinais em diferentes níveis da descrição linguística. Conceitos básicos da Língua Brasileira de Sinais como iconicidade e arbitrariedade e aspectos culturais e históricos específicos da comunidade surda brasileira. Educação de surdos, papéis dos professores e de intérpretes de libras&#45;português em uma perspectiva inclusiva. Atividades de prática como componente curricular aplicadas à comunicação em Libras.">
<polygon fill="#fb8072" stroke="#fb8072" points="1027,-427.38 925.5,-427.38 925.5,-324.62 1027,-324.62 1027,-427.38"/>
<text text-anchor="middle" x="976.25" y="-410.07" font-family="Arial" font-size="14.00">LSB7244</text>
<text text-anchor="middle" x="976.25" y="-378.32" font-family="Arial" font-size="14.00">Língua</text>
<text text-anchor="middle" x="976.25" y="-362.57" font-family="Arial" font-size="14.00">Brasileira de</text>
<text text-anchor="middle" x="976.25" y="-346.82" font-family="Arial" font-size="14.00">Sinais &#45; Libras</text>
<text text-anchor="middle" x="976.25" y="-331.07" font-family="Arial" font-size="14.00">I (PCC 18h&#45;a)</text>
</a>
</g>
</g>
<!-- HST7603&#45;&gt;LSB7244 -->
<!-- LSB7904 -->
<g id="node37" class="node">
<title>LSB7904</title>
<g id="a_node37"><a xlink:title="Desmistificação de idéias recebidas relativamente às línguas de sinais. A língua de sinais enquanto língua utilizada pela comunidade surda brasileira. Introdução à língua brasileira de sinais: usar a língua em contextos que exigem comunicação básica, como se apresentar, realizar perguntas, responder perguntas e dar informações sobre alguns aspectos pessoais (nome, endereço, telefone). Conhecer aspectos culturais específicos da comunidade surda brasileira.">
<polygon fill="#fb8072" stroke="#fb8072" points="1027.75,-548.38 924.75,-548.38 924.75,-445.62 1027.75,-445.62 1027.75,-548.38"/>
<text text-anchor="middle" x="976.25" y="-531.08" font-family="Arial" font-size="14.00">LSB7904</text>
<text text-anchor="middle" x="976.25" y="-499.32" font-family="Arial" font-size="14.00">Língua</text>
<text text-anchor="middle" x="976.25" y="-483.57" font-family="Arial" font-size="14.00">Brasileira de</text>
<text text-anchor="middle" x="976.25" y="-467.82" font-family="Arial" font-size="14.00">Sinais I (PCC</text>
<text text-anchor="middle" x="976.25" y="-452.07" font-family="Arial" font-size="14.00">18horas&#45; aula)</text>
</a>
</g>
</g>
<!-- HST7603&#45;&gt;LSB7904 -->
<!-- HST7801 -->
<g id="node38" class="node">
<title>HST7801</title>
<g id="a_node38"><a xlink:title="Elaboração e defesa do Trabalho de Conclusão de Curso e comprovação das Atividades Complementares de 240 horas&#45;aula.">
<polygon fill="#fb8072" stroke="#fb8072" points="1313.65,-603.5 1212.85,-603.5 1212.85,-516.5 1313.65,-516.5 1313.65,-603.5"/>
<text text-anchor="middle" x="1263.25" y="-586.2" font-family="Arial" font-size="14.00">HST7801</text>
<text text-anchor="middle" x="1263.25" y="-554.45" font-family="Arial" font-size="14.00">Trabalho de</text>
<text text-anchor="middle" x="1263.25" y="-538.7" font-family="Arial" font-size="14.00">Conclusão de</text>
<text text-anchor="middle" x="1263.25" y="-522.95" font-family="Arial" font-size="14.00">Curso</text>
</a>
</g>
</g>
<!-- LSB7904&#45;&gt;HST7801 -->
<!-- LSB7904&#45;&gt;MEN7017 -->
<!-- MEN7017&#45;&gt;HST7801 -->
<!-- MEN7018 -->
<g id="node40" class="node">
<title>MEN7018</title>
<g id="a_node40"><a xlink:title="Implementação do projeto de ensino e planos de aulas. Participação no conjunto das atividades do campo de estágio. Sistematização e socialização do estágio.">
<polygon fill="#fdb462" stroke="#fdb462" points="1317.75,-715.5 1208.75,-715.5 1208.75,-628.5 1317.75,-628.5 1317.75,-715.5"/>
<text text-anchor="middle" x="1263.25" y="-698.2" font-family="Arial" font-size="14.00">MEN7018</text>
<text text-anchor="middle" x="1263.25" y="-666.45" font-family="Arial" font-size="14.00">Estágio</text>
<text text-anchor="middle" x="1263.25" y="-650.7" font-family="Arial" font-size="14.00">Supervisionado</text>
<text text-anchor="middle" x="1263.25" y="-634.95" font-family="Arial" font-size="14.00">de História II</text>
</a>
</g>
</g>
<!-- MEN7017&#45;&gt;MEN7018 -->
<g id="edge30" class="edge">
<title>MEN7017&#45;&gt;MEN7018</title>
<path fill="none" stroke="#fdb462" stroke-width="2" d="M1101.75,-603.75C1101.75,-643.1 1101.75,-694.75 1101.75,-694.75 1101.75,-694.75 1206.07,-694.75 1206.07,-694.75"/>
<polygon fill="#fdb462" stroke="#fdb462" stroke-width="2" points="1207.57,-692.25 1207.57,-697.25 1206.57,-697.25 1206.57,-692.25 1207.57,-692.25"/>
<polyline fill="none" stroke="#fdb462" stroke-width="2" points="1208.07,-694.75 1205.57,-694.75"/>
</g>
<!-- MEN7017&#45;&gt;MEN7018 -->
</g>
</svg>
