<?xml version="1.0" encoding="UTF-8" standalone="no"?>
<!DOCTYPE svg PUBLIC "-//W3C//DTD SVG 1.1//EN"
 "http://www.w3.org/Graphics/SVG/1.1/DTD/svg11.dtd">
<!-- Generated by graphviz version 9.0.0 (0)
 -->
<!-- Title: grafo_materias Pages: 1 -->
<svg width="1299pt" height="581pt"
 viewBox="0.00 0.00 1298.50 581.00" xmlns="http://www.w3.org/2000/svg" xmlns:xlink="http://www.w3.org/1999/xlink">
<g id="graph0" class="graph" transform="scale(1 1) rotate(0) translate(4 577)">
<title>grafo_materias</title>
<polygon fill="none" stroke="none" points="-4,4 -4,-577 1294.5,-577 1294.5,4 -4,4"/>
<g id="clust1" class="cluster">
<title>cluster_everything</title>
<polygon fill="none" stroke="none" points="8,-8 8,-565 1282.5,-565 1282.5,-8 8,-8"/>
</g>
<g id="clust2" class="cluster">
<title>cluster_header</title>
<polygon fill="none" stroke="none" points="19.72,-505 19.72,-557 1226.9,-557 1226.9,-505 19.72,-505"/>
</g>
<g id="clust3" class="cluster">
<title>cluster_0</title>
<polygon fill="none" stroke="none" points="16,-95 16,-497 140.25,-497 140.25,-95 16,-95"/>
</g>
<g id="clust4" class="cluster">
<title>cluster_1</title>
<polygon fill="none" stroke="none" points="160.25,-23 160.25,-442 283,-442 283,-23 160.25,-23"/>
</g>
<g id="clust5" class="cluster">
<title>cluster_2</title>
<polygon fill="none" stroke="none" points="303,-16 303,-434 428,-434 428,-16 303,-16"/>
</g>
<g id="clust6" class="cluster">
<title>cluster_3</title>
<polygon fill="none" stroke="none" points="448,-62 448,-497 584.25,-497 584.25,-62 448,-62"/>
</g>
<g id="clust7" class="cluster">
<title>cluster_4</title>
<polygon fill="none" stroke="none" points="604.25,-16 604.25,-497 740.5,-497 740.5,-16 604.25,-16"/>
</g>
<g id="clust8" class="cluster">
<title>cluster_5</title>
<polygon fill="none" stroke="none" points="760.5,-16 760.5,-450 897.5,-450 897.5,-16 760.5,-16"/>
</g>
<g id="clust9" class="cluster">
<title>cluster_6</title>
<polygon fill="none" stroke="none" points="917.5,-124 917.5,-348 1042.5,-348 1042.5,-124 917.5,-124"/>
</g>
<g id="clust10" class="cluster">
<title>cluster_7</title>
<polygon fill="none" stroke="none" points="1062.5,-16 1062.5,-344 1274.5,-344 1274.5,-16 1062.5,-16"/>
</g>
<!-- Fase 01 -->
<g id="node1" class="node">
<title>Fase 01</title>
<polygon fill="lightgrey" stroke="black" points="128.53,-549 27.73,-549 27.73,-513 128.53,-513 128.53,-549"/>
<text text-anchor="middle" x="78.12" y="-525.58" font-family="Arial" font-size="14.00">Fase 01</text>
</g>
<!-- Fase 02 -->
<g id="node2" class="node">
<title>Fase 02</title>
<polygon fill="lightgrey" stroke="black" points="272.02,-549 171.22,-549 171.22,-513 272.02,-513 272.02,-549"/>
<text text-anchor="middle" x="221.62" y="-525.58" font-family="Arial" font-size="14.00">Fase 02</text>
</g>
<!-- Fase 01&#45;&gt;Fase 02 -->
<!-- Fase 03 -->
<g id="node3" class="node">
<title>Fase 03</title>
<polygon fill="lightgrey" stroke="black" points="415.9,-549 315.1,-549 315.1,-513 415.9,-513 415.9,-549"/>
<text text-anchor="middle" x="365.5" y="-525.58" font-family="Arial" font-size="14.00">Fase 03</text>
</g>
<!-- Fase 02&#45;&gt;Fase 03 -->
<!-- Fase 04 -->
<g id="node4" class="node">
<title>Fase 04</title>
<polygon fill="lightgrey" stroke="black" points="566.52,-549 465.73,-549 465.73,-513 566.52,-513 566.52,-549"/>
<text text-anchor="middle" x="516.12" y="-525.58" font-family="Arial" font-size="14.00">Fase 04</text>
</g>
<!-- Fase 03&#45;&gt;Fase 04 -->
<!-- Fase 05 -->
<g id="node5" class="node">
<title>Fase 05</title>
<polygon fill="lightgrey" stroke="black" points="722.77,-549 621.98,-549 621.98,-513 722.77,-513 722.77,-549"/>
<text text-anchor="middle" x="672.38" y="-525.58" font-family="Arial" font-size="14.00">Fase 05</text>
</g>
<!-- Fase 04&#45;&gt;Fase 05 -->
<!-- Fase 06 -->
<g id="node6" class="node">
<title>Fase 06</title>
<polygon fill="lightgrey" stroke="black" points="879.4,-549 778.6,-549 778.6,-513 879.4,-513 879.4,-549"/>
<text text-anchor="middle" x="829" y="-525.58" font-family="Arial" font-size="14.00">Fase 06</text>
</g>
<!-- Fase 05&#45;&gt;Fase 06 -->
<!-- Fase 07 -->
<g id="node7" class="node">
<title>Fase 07</title>
<polygon fill="lightgrey" stroke="black" points="1030.4,-549 929.6,-549 929.6,-513 1030.4,-513 1030.4,-549"/>
<text text-anchor="middle" x="980" y="-525.58" font-family="Arial" font-size="14.00">Fase 07</text>
</g>
<!-- Fase 06&#45;&gt;Fase 07 -->
<!-- Fase 08 -->
<g id="node8" class="node">
<title>Fase 08</title>
<polygon fill="lightgrey" stroke="black" points="1218.9,-549 1118.1,-549 1118.1,-513 1218.9,-513 1218.9,-549"/>
<text text-anchor="middle" x="1168.5" y="-525.58" font-family="Arial" font-size="14.00">Fase 08</text>
</g>
<!-- Fase 07&#45;&gt;Fase 08 -->
<!-- FIL5600 -->
<g id="node9" class="node">
<title>FIL5600</title>
<polygon fill="#8dd3c7" stroke="#8dd3c7" points="130,-205.38 26.25,-205.38 26.25,-102.62 130,-102.62 130,-205.38"/>
<text text-anchor="middle" x="78.12" y="-188.07" font-family="Arial" font-size="14.00">FIL5600</text>
<text text-anchor="middle" x="78.12" y="-156.32" font-family="Arial" font-size="14.00">Teoria do</text>
<text text-anchor="middle" x="78.12" y="-140.57" font-family="Arial" font-size="14.00">Conhecimento</text>
<text text-anchor="middle" x="78.12" y="-124.83" font-family="Arial" font-size="14.00">(PCC &#45; 18</text>
<text text-anchor="middle" x="78.12" y="-109.08" font-family="Arial" font-size="14.00">horas/aula)</text>
</g>
<!-- FIL5602 -->
<g id="node13" class="node">
<title>FIL5602</title>
<polygon fill="#8dd3c7" stroke="#8dd3c7" points="272.02,-328.5 171.22,-328.5 171.22,-241.5 272.02,-241.5 272.02,-328.5"/>
<text text-anchor="middle" x="221.62" y="-311.2" font-family="Arial" font-size="14.00">FIL5602</text>
<text text-anchor="middle" x="221.62" y="-279.45" font-family="Arial" font-size="14.00">História da</text>
<text text-anchor="middle" x="221.62" y="-263.7" font-family="Arial" font-size="14.00">Filosofia II</text>
<text text-anchor="middle" x="221.62" y="-247.95" font-family="Arial" font-size="14.00">(PCC 36h&#45;a)</text>
</g>
<!-- FIL5600&#45;&gt;FIL5602 -->
<!-- FIL5621 -->
<g id="node14" class="node">
<title>FIL5621</title>
<polygon fill="#8dd3c7" stroke="#8dd3c7" points="272.02,-223.5 171.22,-223.5 171.22,-136.5 272.02,-136.5 272.02,-223.5"/>
<text text-anchor="middle" x="221.62" y="-206.2" font-family="Arial" font-size="14.00">FIL5621</text>
<text text-anchor="middle" x="221.62" y="-174.45" font-family="Arial" font-size="14.00">Ontologia I</text>
<text text-anchor="middle" x="221.62" y="-158.7" font-family="Arial" font-size="14.00">(PCC &#45; 18</text>
<text text-anchor="middle" x="221.62" y="-142.95" font-family="Arial" font-size="14.00">horas/aula)</text>
</g>
<!-- FIL5600&#45;&gt;FIL5621 -->
<!-- FIL5632 -->
<g id="node15" class="node">
<title>FIL5632</title>
<polygon fill="#8dd3c7" stroke="#8dd3c7" points="273.5,-433.5 169.75,-433.5 169.75,-346.5 273.5,-346.5 273.5,-433.5"/>
<text text-anchor="middle" x="221.62" y="-416.2" font-family="Arial" font-size="14.00">FIL5632</text>
<text text-anchor="middle" x="221.62" y="-384.45" font-family="Arial" font-size="14.00">Lógica II (PCC</text>
<text text-anchor="middle" x="221.62" y="-368.7" font-family="Arial" font-size="14.00">&#45; 18</text>
<text text-anchor="middle" x="221.62" y="-352.95" font-family="Arial" font-size="14.00">horas/aula)</text>
</g>
<!-- FIL5600&#45;&gt;FIL5632 -->
<!-- FIL5641 -->
<g id="node16" class="node">
<title>FIL5641</title>
<polygon fill="#8dd3c7" stroke="#8dd3c7" points="275,-118.5 168.25,-118.5 168.25,-31.5 275,-31.5 275,-118.5"/>
<text text-anchor="middle" x="221.62" y="-101.2" font-family="Arial" font-size="14.00">FIL5641</text>
<text text-anchor="middle" x="221.62" y="-69.45" font-family="Arial" font-size="14.00">Filosofia</text>
<text text-anchor="middle" x="221.62" y="-53.7" font-family="Arial" font-size="14.00">Política I (PCC</text>
<text text-anchor="middle" x="221.62" y="-37.95" font-family="Arial" font-size="14.00">&#45; 18horas/aula)</text>
</g>
<!-- FIL5600&#45;&gt;FIL5641 -->
<!-- FIL5601 -->
<g id="node10" class="node">
<title>FIL5601</title>
<polygon fill="#8dd3c7" stroke="#8dd3c7" points="128.53,-399.5 27.73,-399.5 27.73,-312.5 128.53,-312.5 128.53,-399.5"/>
<text text-anchor="middle" x="78.12" y="-382.2" font-family="Arial" font-size="14.00">FIL5601</text>
<text text-anchor="middle" x="78.12" y="-350.45" font-family="Arial" font-size="14.00">História da</text>
<text text-anchor="middle" x="78.12" y="-334.7" font-family="Arial" font-size="14.00">Filosofia I</text>
<text text-anchor="middle" x="78.12" y="-318.95" font-family="Arial" font-size="14.00">(PCC 36h&#45;a)</text>
</g>
<!-- FIL5611 -->
<g id="node11" class="node">
<title>FIL5611</title>
<polygon fill="#8dd3c7" stroke="#8dd3c7" points="129.25,-488.62 27,-488.62 27,-417.38 129.25,-417.38 129.25,-488.62"/>
<text text-anchor="middle" x="78.12" y="-471.32" font-family="Arial" font-size="14.00">FIL5611</text>
<text text-anchor="middle" x="78.12" y="-439.57" font-family="Arial" font-size="14.00">Ética I (PCC &#45;</text>
<text text-anchor="middle" x="78.12" y="-423.82" font-family="Arial" font-size="14.00">18 horas/aula)</text>
</g>
<!-- FIL5612 -->
<g id="node22" class="node">
<title>FIL5612</title>
<polygon fill="#8dd3c7" stroke="#8dd3c7" points="567.25,-488.62 465,-488.62 465,-417.38 567.25,-417.38 567.25,-488.62"/>
<text text-anchor="middle" x="516.12" y="-471.32" font-family="Arial" font-size="14.00">FIL5612</text>
<text text-anchor="middle" x="516.12" y="-439.57" font-family="Arial" font-size="14.00">Ética II (PCC &#45;</text>
<text text-anchor="middle" x="516.12" y="-423.82" font-family="Arial" font-size="14.00">18 horas/aula)</text>
</g>
<!-- FIL5611&#45;&gt;FIL5612 -->
<g id="edge12" class="edge">
<title>FIL5611&#45;&gt;FIL5612</title>
<path fill="none" stroke="#8dd3c7" stroke-width="2" d="M129.66,-461.06C129.66,-461.06 462.29,-461.06 462.29,-461.06"/>
<polygon fill="#8dd3c7" stroke="#8dd3c7" stroke-width="2" points="463.79,-458.56 463.79,-463.56 462.79,-463.56 462.79,-458.56 463.79,-458.56"/>
<polyline fill="none" stroke="#8dd3c7" stroke-width="2" points="464.29,-461.06 461.79,-461.06"/>
</g>
<!-- FIL5631 -->
<g id="node12" class="node">
<title>FIL5631</title>
<polygon fill="#8dd3c7" stroke="#8dd3c7" points="132.25,-294.62 24,-294.62 24,-223.38 132.25,-223.38 132.25,-294.62"/>
<text text-anchor="middle" x="78.12" y="-277.32" font-family="Arial" font-size="14.00">FIL5631</text>
<text text-anchor="middle" x="78.12" y="-245.57" font-family="Arial" font-size="14.00">Lógica I (PCC &#45;</text>
<text text-anchor="middle" x="78.12" y="-229.82" font-family="Arial" font-size="14.00">18 horas/aula)</text>
</g>
<!-- FIL5631&#45;&gt;FIL5632 -->
<g id="edge8" class="edge">
<title>FIL5631&#45;&gt;FIL5632</title>
<path fill="none" stroke="#8dd3c7" stroke-width="2" d="M132.69,-276.92C138.02,-276.92 141.5,-276.92 141.5,-276.92 141.5,-276.92 141.5,-381.83 141.5,-381.83 141.5,-381.83 167.02,-381.83 167.02,-381.83"/>
<polygon fill="#8dd3c7" stroke="#8dd3c7" stroke-width="2" points="168.52,-379.33 168.52,-384.33 167.52,-384.33 167.52,-379.33 168.52,-379.33"/>
<polyline fill="none" stroke="#8dd3c7" stroke-width="2" points="169.02,-381.83 166.52,-381.83"/>
</g>
<!-- FIL5622 -->
<g id="node18" class="node">
<title>FIL5622</title>
<polygon fill="#8dd3c7" stroke="#8dd3c7" points="415.9,-425.5 315.1,-425.5 315.1,-338.5 415.9,-338.5 415.9,-425.5"/>
<text text-anchor="middle" x="365.5" y="-408.2" font-family="Arial" font-size="14.00">FIL5622</text>
<text text-anchor="middle" x="365.5" y="-376.45" font-family="Arial" font-size="14.00">Ontologia II</text>
<text text-anchor="middle" x="365.5" y="-360.7" font-family="Arial" font-size="14.00">(PCC &#45; 18</text>
<text text-anchor="middle" x="365.5" y="-344.95" font-family="Arial" font-size="14.00">horas/aula)</text>
</g>
<!-- FIL5621&#45;&gt;FIL5622 -->
<g id="edge9" class="edge">
<title>FIL5621&#45;&gt;FIL5622</title>
<path fill="none" stroke="#8dd3c7" stroke-width="2" d="M272.45,-219.56C278.45,-219.56 282.5,-219.56 282.5,-219.56 282.5,-219.56 282.5,-343.83 282.5,-343.83 282.5,-343.83 312.33,-343.83 312.33,-343.83"/>
<polygon fill="#8dd3c7" stroke="#8dd3c7" stroke-width="2" points="313.83,-341.33 313.83,-346.33 312.83,-346.33 312.83,-341.33 313.83,-341.33"/>
<polyline fill="none" stroke="#8dd3c7" stroke-width="2" points="314.33,-343.83 311.83,-343.83"/>
</g>
<!-- FIL5603 -->
<g id="node17" class="node">
<title>FIL5603</title>
<polygon fill="#8dd3c7" stroke="#8dd3c7" points="415.9,-320.5 315.1,-320.5 315.1,-233.5 415.9,-233.5 415.9,-320.5"/>
<text text-anchor="middle" x="365.5" y="-303.2" font-family="Arial" font-size="14.00">FIL5603</text>
<text text-anchor="middle" x="365.5" y="-271.45" font-family="Arial" font-size="14.00">História da</text>
<text text-anchor="middle" x="365.5" y="-255.7" font-family="Arial" font-size="14.00">Filosofia III</text>
<text text-anchor="middle" x="365.5" y="-239.95" font-family="Arial" font-size="14.00">(PCC 36h&#45;a)</text>
</g>
<!-- FIL5641&#45;&gt;FIL5603 -->
<!-- FIL5641&#45;&gt;FIL5622 -->
<!-- FIL5642 -->
<g id="node19" class="node">
<title>FIL5642</title>
<polygon fill="#8dd3c7" stroke="#8dd3c7" points="415.9,-126.38 315.1,-126.38 315.1,-23.63 415.9,-23.63 415.9,-126.38"/>
<text text-anchor="middle" x="365.5" y="-109.08" font-family="Arial" font-size="14.00">FIL5642</text>
<text text-anchor="middle" x="365.5" y="-77.33" font-family="Arial" font-size="14.00">Filosofia</text>
<text text-anchor="middle" x="365.5" y="-61.58" font-family="Arial" font-size="14.00">Política II</text>
<text text-anchor="middle" x="365.5" y="-45.83" font-family="Arial" font-size="14.00">(PCC 18</text>
<text text-anchor="middle" x="365.5" y="-30.07" font-family="Arial" font-size="14.00">horas/aula)</text>
</g>
<!-- FIL5641&#45;&gt;FIL5642 -->
<g id="edge10" class="edge">
<title>FIL5641&#45;&gt;FIL5642</title>
<path fill="none" stroke="#8dd3c7" stroke-width="2" d="M275.2,-89.5C275.2,-89.5 312.24,-89.5 312.24,-89.5"/>
<polygon fill="#8dd3c7" stroke="#8dd3c7" stroke-width="2" points="313.74,-87 313.74,-92 312.74,-92 312.74,-87 313.74,-87"/>
<polyline fill="none" stroke="#8dd3c7" stroke-width="2" points="314.24,-89.5 311.74,-89.5"/>
</g>
<!-- FIL5641&#45;&gt;FIL5642 -->
<!-- FIL5650 -->
<g id="node20" class="node">
<title>FIL5650</title>
<polygon fill="#8dd3c7" stroke="#8dd3c7" points="420,-215.62 311,-215.62 311,-144.38 420,-144.38 420,-215.62"/>
<text text-anchor="middle" x="365.5" y="-198.32" font-family="Arial" font-size="14.00">FIL5650</text>
<text text-anchor="middle" x="365.5" y="-166.57" font-family="Arial" font-size="14.00">Estética (PCC &#45;</text>
<text text-anchor="middle" x="365.5" y="-150.82" font-family="Arial" font-size="14.00">18 horas&#45;aula)</text>
</g>
<!-- FIL5641&#45;&gt;FIL5650 -->
<!-- FIL5604 -->
<g id="node21" class="node">
<title>FIL5604</title>
<polygon fill="#8dd3c7" stroke="#8dd3c7" points="566.52,-399.38 465.73,-399.38 465.73,-296.62 566.52,-296.62 566.52,-399.38"/>
<text text-anchor="middle" x="516.12" y="-382.07" font-family="Arial" font-size="14.00">FIL5604</text>
<text text-anchor="middle" x="516.12" y="-350.32" font-family="Arial" font-size="14.00">História da</text>
<text text-anchor="middle" x="516.12" y="-334.57" font-family="Arial" font-size="14.00">Filosofia IV</text>
<text text-anchor="middle" x="516.12" y="-318.82" font-family="Arial" font-size="14.00">(PCC &#45; 36</text>
<text text-anchor="middle" x="516.12" y="-303.07" font-family="Arial" font-size="14.00">horas/aula)</text>
</g>
<!-- FIL5603&#45;&gt;FIL5604 -->
<g id="edge11" class="edge">
<title>FIL5603&#45;&gt;FIL5604</title>
<path fill="none" stroke="#8dd3c7" stroke-width="2" d="M416.07,-312.54C416.07,-312.54 462.93,-312.54 462.93,-312.54"/>
<polygon fill="#8dd3c7" stroke="#8dd3c7" stroke-width="2" points="464.43,-310.04 464.43,-315.04 463.43,-315.04 463.43,-310.04 464.43,-310.04"/>
<polyline fill="none" stroke="#8dd3c7" stroke-width="2" points="464.93,-312.54 462.43,-312.54"/>
</g>
<!-- FIL5650&#45;&gt;FIL5604 -->
<!-- FIL5650&#45;&gt;FIL5612 -->
<!-- FIL5651 -->
<g id="node23" class="node">
<title>FIL5651</title>
<polygon fill="#8dd3c7" stroke="#8dd3c7" points="576.25,-278.38 456,-278.38 456,-175.62 576.25,-175.62 576.25,-278.38"/>
<text text-anchor="middle" x="516.12" y="-261.07" font-family="Arial" font-size="14.00">FIL5651</text>
<text text-anchor="middle" x="516.12" y="-229.32" font-family="Arial" font-size="14.00">Filosofia da</text>
<text text-anchor="middle" x="516.12" y="-213.57" font-family="Arial" font-size="14.00">Linguagem (PCC</text>
<text text-anchor="middle" x="516.12" y="-197.82" font-family="Arial" font-size="14.00">&#45; 18</text>
<text text-anchor="middle" x="516.12" y="-182.07" font-family="Arial" font-size="14.00">horas/aula)</text>
</g>
<!-- FIL5650&#45;&gt;FIL5651 -->
<!-- FIL5652 -->
<g id="node24" class="node">
<title>FIL5652</title>
<polygon fill="#8dd3c7" stroke="#8dd3c7" points="569.12,-157.5 463.12,-157.5 463.12,-70.5 569.12,-70.5 569.12,-157.5"/>
<text text-anchor="middle" x="516.12" y="-140.2" font-family="Arial" font-size="14.00">FIL5652</text>
<text text-anchor="middle" x="516.12" y="-108.45" font-family="Arial" font-size="14.00">Filosofia da</text>
<text text-anchor="middle" x="516.12" y="-92.7" font-family="Arial" font-size="14.00">Ciência (PCC &#45;</text>
<text text-anchor="middle" x="516.12" y="-76.95" font-family="Arial" font-size="14.00">18 horas/aula)</text>
</g>
<!-- FIL5650&#45;&gt;FIL5652 -->
<!-- FIL5660 -->
<g id="node25" class="node">
<title>FIL5660</title>
<polygon fill="#8dd3c7" stroke="#8dd3c7" points="723.88,-489.38 620.88,-489.38 620.88,-386.62 723.88,-386.62 723.88,-489.38"/>
<text text-anchor="middle" x="672.38" y="-472.07" font-family="Arial" font-size="14.00">FIL5660</text>
<text text-anchor="middle" x="672.38" y="-440.32" font-family="Arial" font-size="14.00">Seminário de</text>
<text text-anchor="middle" x="672.38" y="-424.57" font-family="Arial" font-size="14.00">Ensino da</text>
<text text-anchor="middle" x="672.38" y="-408.82" font-family="Arial" font-size="14.00">Filosofia (PCC</text>
<text text-anchor="middle" x="672.38" y="-393.07" font-family="Arial" font-size="14.00">60 horas/aula)</text>
</g>
<!-- FIL5652&#45;&gt;FIL5660 -->
<!-- FIL5652&#45;&gt;FIL5660 -->
<!-- MEN5602 -->
<g id="node26" class="node">
<title>MEN5602</title>
<g id="a_node26"><a xlink:title="&#45; Educação escolar como fenômeno histórico&#45;social. Currículo e trabalho pedagógico no contexto escolar. As relações de ensino&#45;aprendizagem em contexto escolar. Mediações pedagógicas e suas relações com o ensino da área específica do curso.">
<polygon fill="#80b1d3" stroke="#80b1d3" points="729.5,-368.62 615.25,-368.62 615.25,-297.38 729.5,-297.38 729.5,-368.62"/>
<text text-anchor="middle" x="672.38" y="-351.32" font-family="Arial" font-size="14.00">MEN5602</text>
<text text-anchor="middle" x="672.38" y="-319.57" font-family="Arial" font-size="14.00">Didática B (PCC</text>
<text text-anchor="middle" x="672.38" y="-303.82" font-family="Arial" font-size="14.00">12h&#45;a)</text>
</a>
</g>
</g>
<!-- FIL5652&#45;&gt;MEN5602 -->
<!-- PSI5137 -->
<g id="node27" class="node">
<title>PSI5137</title>
<g id="a_node27"><a xlink:title="Introdução à Psicologia como ciência: histórico, objetivo e métodos. Interações sociais no contexto educacional e o lugar do professor. Introdução ao estudo do desenvolvimento e de aprendizagem &#45; infância, adolescência, idade adulta. Contribuições da Psicologia na prática escolar cotidiana e na compreensão do fracasso escolar. Prática como componente curricular.">
<polygon fill="#fdb462" stroke="#fdb462" points="732.5,-279.25 612.25,-279.25 612.25,-160.75 732.5,-160.75 732.5,-279.25"/>
<text text-anchor="middle" x="672.38" y="-261.95" font-family="Arial" font-size="14.00">PSI5137</text>
<text text-anchor="middle" x="672.38" y="-230.2" font-family="Arial" font-size="14.00">Psicologia</text>
<text text-anchor="middle" x="672.38" y="-214.45" font-family="Arial" font-size="14.00">Educacional:</text>
<text text-anchor="middle" x="672.38" y="-198.7" font-family="Arial" font-size="14.00">Desenvolvimento</text>
<text text-anchor="middle" x="672.38" y="-182.95" font-family="Arial" font-size="14.00">e Aprendizagem</text>
<text text-anchor="middle" x="672.38" y="-167.2" font-family="Arial" font-size="14.00">(PCC 12h&#45;a)</text>
</a>
</g>
</g>
<!-- FIL5652&#45;&gt;PSI5137 -->
<!-- FIL5661 -->
<g id="node28" class="node">
<title>FIL5661</title>
<polygon fill="#8dd3c7" stroke="#8dd3c7" points="727.25,-142.25 617.5,-142.25 617.5,-23.75 727.25,-23.75 727.25,-142.25"/>
<text text-anchor="middle" x="672.38" y="-124.95" font-family="Arial" font-size="14.00">FIL5661</text>
<text text-anchor="middle" x="672.38" y="-93.2" font-family="Arial" font-size="14.00">Seminário de</text>
<text text-anchor="middle" x="672.38" y="-77.45" font-family="Arial" font-size="14.00">Pesquisa</text>
<text text-anchor="middle" x="672.38" y="-61.7" font-family="Arial" font-size="14.00">Filosófica (PCC</text>
<text text-anchor="middle" x="672.38" y="-45.95" font-family="Arial" font-size="14.00">&#45; 36</text>
<text text-anchor="middle" x="672.38" y="-30.2" font-family="Arial" font-size="14.00">horas/aula)</text>
</g>
<!-- FIL5652&#45;&gt;FIL5661 -->
<!-- MEN5142 -->
<g id="node31" class="node">
<title>MEN5142</title>
<g id="a_node31"><a xlink:title="&#45; As formas de representação do funcionamento do pensamento filosófico numa perspectiva histórica. Questões de método e formação cultural na investigação, na produção e no ensino filosófico. A Filosofia e seu exercício no ensino médio. Funcionamento e organização do ensino escolar. O exercício da Filosofia através de aulas simuladas.">
<polygon fill="#80b1d3" stroke="#80b1d3" points="883.5,-442.25 774.5,-442.25 774.5,-323.75 883.5,-323.75 883.5,-442.25"/>
<text text-anchor="middle" x="829" y="-424.95" font-family="Arial" font-size="14.00">MEN5142</text>
<text text-anchor="middle" x="829" y="-393.2" font-family="Arial" font-size="14.00">Metodologia de</text>
<text text-anchor="middle" x="829" y="-377.45" font-family="Arial" font-size="14.00">Ensino de</text>
<text text-anchor="middle" x="829" y="-361.7" font-family="Arial" font-size="14.00">Filosofia &#45; PCC</text>
<text text-anchor="middle" x="829" y="-345.95" font-family="Arial" font-size="14.00">&#45; 28,8</text>
<text text-anchor="middle" x="829" y="-330.2" font-family="Arial" font-size="14.00">horas/aula</text>
</a>
</g>
</g>
<!-- MEN5602&#45;&gt;MEN5142 -->
<g id="edge13" class="edge">
<title>MEN5602&#45;&gt;MEN5142</title>
<path fill="none" stroke="#80b1d3" stroke-width="2" d="M729.81,-353.67C729.81,-353.67 771.68,-353.67 771.68,-353.67"/>
<polygon fill="#80b1d3" stroke="#80b1d3" stroke-width="2" points="773.18,-351.17 773.18,-356.17 772.18,-356.17 772.18,-351.17 773.18,-351.17"/>
<polyline fill="none" stroke="#80b1d3" stroke-width="2" points="773.68,-353.67 771.18,-353.67"/>
</g>
<!-- MEN5315 -->
<g id="node33" class="node">
<title>MEN5315</title>
<g id="a_node33"><a xlink:title="Discussão sobre ensino de filosofia na escola, cadastro SIARE, observação e atividade de docência em filosofia, participação em atividades da escola, elaboração de relatórios de observação e acompanhamento, elaboração e apresentação de ensaio crítico sobre a experiência de estágio docente.">
<polygon fill="#80b1d3" stroke="#80b1d3" points="1034.5,-340.38 925.5,-340.38 925.5,-237.62 1034.5,-237.62 1034.5,-340.38"/>
<text text-anchor="middle" x="980" y="-323.07" font-family="Arial" font-size="14.00">MEN5315</text>
<text text-anchor="middle" x="980" y="-291.32" font-family="Arial" font-size="14.00">Estágio</text>
<text text-anchor="middle" x="980" y="-275.57" font-family="Arial" font-size="14.00">Supervisionado</text>
<text text-anchor="middle" x="980" y="-259.82" font-family="Arial" font-size="14.00">de Ensino de</text>
<text text-anchor="middle" x="980" y="-244.07" font-family="Arial" font-size="14.00">Filosofia I</text>
</a>
</g>
</g>
<!-- MEN5602&#45;&gt;MEN5315 -->
<g id="edge16" class="edge">
<title>MEN5602&#45;&gt;MEN5315</title>
<path fill="none" stroke="#80b1d3" stroke-width="2" d="M729.88,-314.62C729.88,-314.62 922.61,-314.62 922.61,-314.62"/>
<polygon fill="#80b1d3" stroke="#80b1d3" stroke-width="2" points="924.11,-312.13 924.11,-317.13 923.11,-317.13 923.11,-312.13 924.11,-312.13"/>
<polyline fill="none" stroke="#80b1d3" stroke-width="2" points="924.61,-314.63 922.11,-314.63"/>
</g>
<!-- EED5185 -->
<g id="node29" class="node">
<title>EED5185</title>
<polygon fill="#ffffb3" stroke="#ffffb3" points="879.4,-95.62 778.6,-95.62 778.6,-24.38 879.4,-24.38 879.4,-95.62"/>
<text text-anchor="middle" x="829" y="-78.33" font-family="Arial" font-size="14.00">EED5185</text>
<text text-anchor="middle" x="829" y="-46.58" font-family="Arial" font-size="14.00">Organização</text>
<text text-anchor="middle" x="829" y="-30.82" font-family="Arial" font-size="14.00">Escolar I</text>
</g>
<!-- FIL5661&#45;&gt;EED5185 -->
<!-- FIL5680 -->
<g id="node30" class="node">
<title>FIL5680</title>
<polygon fill="#8dd3c7" stroke="#8dd3c7" points="889.5,-305.5 768.5,-305.5 768.5,-218.5 889.5,-218.5 889.5,-305.5"/>
<text text-anchor="middle" x="829" y="-288.2" font-family="Arial" font-size="14.00">FIL5680</text>
<text text-anchor="middle" x="829" y="-256.45" font-family="Arial" font-size="14.00">Filosofia da</text>
<text text-anchor="middle" x="829" y="-240.7" font-family="Arial" font-size="14.00">Educação (PCC &#45;</text>
<text text-anchor="middle" x="829" y="-224.95" font-family="Arial" font-size="14.00">54 horas/aula)</text>
</g>
<!-- FIL5661&#45;&gt;FIL5680 -->
<!-- FIL5661&#45;&gt;MEN5142 -->
<!-- FIL5671 -->
<g id="node32" class="node">
<title>FIL5671</title>
<polygon fill="#fb8072" stroke="#fb8072" points="879.4,-200.5 778.6,-200.5 778.6,-113.5 879.4,-113.5 879.4,-200.5"/>
<text text-anchor="middle" x="829" y="-183.2" font-family="Arial" font-size="14.00">FIL5671</text>
<text text-anchor="middle" x="829" y="-151.45" font-family="Arial" font-size="14.00">Trabalho de</text>
<text text-anchor="middle" x="829" y="-135.7" font-family="Arial" font-size="14.00">Conclusão de</text>
<text text-anchor="middle" x="829" y="-119.95" font-family="Arial" font-size="14.00">Curso I (TCC)</text>
</g>
<!-- FIL5661&#45;&gt;FIL5671 -->
<g id="edge14" class="edge">
<title>FIL5661&#45;&gt;FIL5671</title>
<path fill="none" stroke="#fb8072" stroke-width="2" d="M727.6,-119.25C727.6,-119.25 775.7,-119.25 775.7,-119.25"/>
<polygon fill="#fb8072" stroke="#fb8072" stroke-width="2" points="777.2,-116.75 777.2,-121.75 776.2,-121.75 776.2,-116.75 777.2,-116.75"/>
<polyline fill="none" stroke="#fb8072" stroke-width="2" points="777.7,-119.25 775.2,-119.25"/>
</g>
<!-- FIL5661&#45;&gt;FIL5671 -->
<!-- MEN5142&#45;&gt;MEN5315 -->
<g id="edge15" class="edge">
<title>MEN5142&#45;&gt;MEN5315</title>
<path fill="none" stroke="#80b1d3" stroke-width="2" d="M883.94,-332.06C883.94,-332.06 922.6,-332.06 922.6,-332.06"/>
<polygon fill="#80b1d3" stroke="#80b1d3" stroke-width="2" points="924.1,-329.56 924.1,-334.56 923.1,-334.56 923.1,-329.56 924.1,-329.56"/>
<polyline fill="none" stroke="#80b1d3" stroke-width="2" points="924.6,-332.06 922.1,-332.06"/>
</g>
<!-- FIL5671&#45;&gt;MEN5315 -->
<!-- FIL5672 -->
<g id="node34" class="node">
<title>FIL5672</title>
<polygon fill="#fb8072" stroke="#fb8072" points="1031.88,-219.5 928.12,-219.5 928.12,-132.5 1031.88,-132.5 1031.88,-219.5"/>
<text text-anchor="middle" x="980" y="-202.2" font-family="Arial" font-size="14.00">FIL5672</text>
<text text-anchor="middle" x="980" y="-170.45" font-family="Arial" font-size="14.00">Trabalho de</text>
<text text-anchor="middle" x="980" y="-154.7" font-family="Arial" font-size="14.00">Conclusão de</text>
<text text-anchor="middle" x="980" y="-138.95" font-family="Arial" font-size="14.00">Curso II (TCC)</text>
</g>
<!-- FIL5671&#45;&gt;FIL5672 -->
<g id="edge17" class="edge">
<title>FIL5671&#45;&gt;FIL5672</title>
<path fill="none" stroke="#fb8072" stroke-width="2" d="M879.7,-149.5C879.7,-149.5 925.13,-149.5 925.13,-149.5"/>
<polygon fill="#fb8072" stroke="#fb8072" stroke-width="2" points="926.63,-147 926.63,-152 925.63,-152 925.63,-147 926.63,-147"/>
<polyline fill="none" stroke="#fb8072" stroke-width="2" points="927.13,-149.5 924.63,-149.5"/>
</g>
<!-- FIL5671&#45;&gt;FIL5672 -->
<!-- MEN5316 -->
<g id="node37" class="node">
<title>MEN5316</title>
<g id="a_node37"><a xlink:title="Discussão sobre filosofia e possibilidades de aprendê&#45;la e ensiná&#45;la, docência em filosofia e participação em atividades da escola, elaboração de cronograma docente com base no plano de ensino do professor supervisor da escola, planos de aula e relato de docência, gravação de aulas em vídeo, elaboração e apresentação dos ensaios pedagógicos.">
<polygon fill="#80b1d3" stroke="#80b1d3" points="1223,-336.38 1114,-336.38 1114,-233.62 1223,-233.62 1223,-336.38"/>
<text text-anchor="middle" x="1168.5" y="-319.07" font-family="Arial" font-size="14.00">MEN5316</text>
<text text-anchor="middle" x="1168.5" y="-287.32" font-family="Arial" font-size="14.00">Estágio</text>
<text text-anchor="middle" x="1168.5" y="-271.57" font-family="Arial" font-size="14.00">Supervisionado</text>
<text text-anchor="middle" x="1168.5" y="-255.82" font-family="Arial" font-size="14.00">de Ensino de</text>
<text text-anchor="middle" x="1168.5" y="-240.07" font-family="Arial" font-size="14.00">Filosofia II</text>
</a>
</g>
</g>
<!-- MEN5315&#45;&gt;MEN5316 -->
<g id="edge18" class="edge">
<title>MEN5315&#45;&gt;MEN5316</title>
<path fill="none" stroke="#80b1d3" stroke-width="2" d="M1034.78,-303.46C1034.78,-303.46 1111.09,-303.46 1111.09,-303.46"/>
<polygon fill="#80b1d3" stroke="#80b1d3" stroke-width="2" points="1112.59,-300.96 1112.59,-305.96 1111.59,-305.96 1111.59,-300.96 1112.59,-300.96"/>
<polyline fill="none" stroke="#80b1d3" stroke-width="2" points="1113.09,-303.46 1110.59,-303.46"/>
</g>
<!-- FIL5690 -->
<g id="node35" class="node">
<title>FIL5690</title>
<polygon fill="#8dd3c7" stroke="#8dd3c7" points="1266.5,-215.62 1070.5,-215.62 1070.5,-144.38 1266.5,-144.38 1266.5,-215.62"/>
<text text-anchor="middle" x="1168.5" y="-198.32" font-family="Arial" font-size="14.00">FIL5690</text>
<text text-anchor="middle" x="1168.5" y="-166.57" font-family="Arial" font-size="14.00">Atividades</text>
<text text-anchor="middle" x="1168.5" y="-150.82" font-family="Arial" font-size="14.00">Acadêmico&#45;científico&#45;culturais</text>
</g>
<!-- FIL5672&#45;&gt;FIL5690 -->
<!-- FIL5672&#45;&gt;FIL5690 -->
<!-- LSB7244 -->
<g id="node36" class="node">
<title>LSB7244</title>
<g id="a_node36"><a xlink:title="Prática de conversação em Libras habilitando o aluno a se comunicar nível básico. Mitos e Crenças relacionadas à Língua Brasileira de Sinais (Libras) e aos Surdos. Noções sobre os estudos linguísticos das línguas de sinais em diferentes níveis da descrição linguística. Conceitos básicos da Língua Brasileira de Sinais como iconicidade e arbitrariedade e aspectos culturais e históricos específicos da comunidade surda brasileira. Educação de surdos, papéis dos professores e de intérpretes de libras&#45;português em uma perspectiva inclusiva. Atividades de prática como componente curricular aplicadas à comunicação em Libras.">
<polygon fill="#fb8072" stroke="#fb8072" points="1219.25,-126.38 1117.75,-126.38 1117.75,-23.63 1219.25,-23.63 1219.25,-126.38"/>
<text text-anchor="middle" x="1168.5" y="-109.08" font-family="Arial" font-size="14.00">LSB7244</text>
<text text-anchor="middle" x="1168.5" y="-77.33" font-family="Arial" font-size="14.00">Língua</text>
<text text-anchor="middle" x="1168.5" y="-61.58" font-family="Arial" font-size="14.00">Brasileira de</text>
<text text-anchor="middle" x="1168.5" y="-45.83" font-family="Arial" font-size="14.00">Sinais &#45; Libras</text>
<text text-anchor="middle" x="1168.5" y="-30.07" font-family="Arial" font-size="14.00">I (PCC 18h&#45;a)</text>
</a>
</g>
</g>
<!-- FIL5672&#45;&gt;LSB7244 -->
<!-- FIL5672&#45;&gt;MEN5316 -->
</g>
</svg>
