<?xml version="1.0" encoding="UTF-8" standalone="no"?>
<!DOCTYPE svg PUBLIC "-//W3C//DTD SVG 1.1//EN"
 "http://www.w3.org/Graphics/SVG/1.1/DTD/svg11.dtd">
<!-- Generated by graphviz version 9.0.0 (0)
 -->
<!-- Title: grafo_materias Pages: 1 -->
<svg width="160pt" height="458pt"
 viewBox="0.00 0.00 159.75 458.00" xmlns="http://www.w3.org/2000/svg" xmlns:xlink="http://www.w3.org/1999/xlink">
<g id="graph0" class="graph" transform="scale(1 1) rotate(0) translate(4 454)">
<title>grafo_materias</title>
<polygon fill="none" stroke="none" points="-4,4 -4,-454 155.75,-454 155.75,4 -4,4"/>
<g id="clust1" class="cluster">
<title>cluster_everything</title>
<polygon fill="none" stroke="none" points="8,-8 8,-442 143.75,-442 143.75,-8 8,-8"/>
</g>
<g id="clust3" class="cluster">
<title>cluster_0</title>
<polygon fill="none" stroke="none" points="16,-16 16,-434 135.75,-434 135.75,-16 16,-16"/>
</g>
<!-- FIL6000 -->
<g id="node1" class="node">
<title>FIL6000</title>
<polygon fill="#8dd3c7" stroke="#8dd3c7" points="126.28,-425.5 25.48,-425.5 25.48,-338.5 126.28,-338.5 126.28,-425.5"/>
<text text-anchor="middle" x="75.88" y="-408.2" font-family="Arial" font-size="14.00">FIL6000</text>
<text text-anchor="middle" x="75.88" y="-376.45" font-family="Arial" font-size="14.00">História da</text>
<text text-anchor="middle" x="75.88" y="-360.7" font-family="Arial" font-size="14.00">Filosofia I</text>
<text text-anchor="middle" x="75.88" y="-344.95" font-family="Arial" font-size="14.00">(PCC 18h&#45;a)</text>
</g>
<!-- FIL6004 -->
<g id="node2" class="node">
<title>FIL6004</title>
<polygon fill="#8dd3c7" stroke="#8dd3c7" points="127.75,-320.5 24,-320.5 24,-233.5 127.75,-233.5 127.75,-320.5"/>
<text text-anchor="middle" x="75.88" y="-303.2" font-family="Arial" font-size="14.00">FIL6004</text>
<text text-anchor="middle" x="75.88" y="-271.45" font-family="Arial" font-size="14.00">Teoria do</text>
<text text-anchor="middle" x="75.88" y="-255.7" font-family="Arial" font-size="14.00">Conhecimento</text>
<text text-anchor="middle" x="75.88" y="-239.95" font-family="Arial" font-size="14.00">(PCC 18h&#45;a)</text>
</g>
<!-- FIL6006 -->
<g id="node3" class="node">
<title>FIL6006</title>
<polygon fill="#8dd3c7" stroke="#8dd3c7" points="126.28,-215.62 25.48,-215.62 25.48,-144.38 126.28,-144.38 126.28,-215.62"/>
<text text-anchor="middle" x="75.88" y="-198.32" font-family="Arial" font-size="14.00">FIL6006</text>
<text text-anchor="middle" x="75.88" y="-166.57" font-family="Arial" font-size="14.00">Ética I (PCC</text>
<text text-anchor="middle" x="75.88" y="-150.82" font-family="Arial" font-size="14.00">18h&#45;a)</text>
</g>
<!-- FIL6017 -->
<g id="node4" class="node">
<title>FIL6017</title>
<polygon fill="#8dd3c7" stroke="#8dd3c7" points="127.38,-126.38 24.38,-126.38 24.38,-23.63 127.38,-23.63 127.38,-126.38"/>
<text text-anchor="middle" x="75.88" y="-109.08" font-family="Arial" font-size="14.00">FIL6017</text>
<text text-anchor="middle" x="75.88" y="-77.33" font-family="Arial" font-size="14.00">Iniciação à</text>
<text text-anchor="middle" x="75.88" y="-61.58" font-family="Arial" font-size="14.00">Pesquisa em</text>
<text text-anchor="middle" x="75.88" y="-45.83" font-family="Arial" font-size="14.00">Filosofia (PCC</text>
<text text-anchor="middle" x="75.88" y="-30.07" font-family="Arial" font-size="14.00">36h&#45;a)</text>
</g>
</g>
</svg>
