<?xml version="1.0" encoding="UTF-8" standalone="no"?>
<!DOCTYPE svg PUBLIC "-//W3C//DTD SVG 1.1//EN"
 "http://www.w3.org/Graphics/SVG/1.1/DTD/svg11.dtd">
<!-- Generated by graphviz version 9.0.0 (0)
 -->
<!-- Title: grafo_materias Pages: 1 -->
<svg width="1146pt" height="679pt"
 viewBox="0.00 0.00 1146.40 679.00" xmlns="http://www.w3.org/2000/svg" xmlns:xlink="http://www.w3.org/1999/xlink">
<g id="graph0" class="graph" transform="scale(1 1) rotate(0) translate(4 675)">
<title>grafo_materias</title>
<polygon fill="none" stroke="none" points="-4,4 -4,-675 1142.4,-675 1142.4,4 -4,4"/>
<g id="clust1" class="cluster">
<title>cluster_everything</title>
<polygon fill="none" stroke="none" points="8,-8 8,-663 1130.4,-663 1130.4,-8 8,-8"/>
</g>
<g id="clust2" class="cluster">
<title>cluster_header</title>
<polygon fill="none" stroke="none" points="20.47,-603 20.47,-655 1122.4,-655 1122.4,-603 20.47,-603"/>
</g>
<g id="clust3" class="cluster">
<title>cluster_0</title>
<polygon fill="none" stroke="none" points="16,-238 16,-552 141.75,-552 141.75,-238 16,-238"/>
</g>
<g id="clust4" class="cluster">
<title>cluster_1</title>
<polygon fill="none" stroke="none" points="161.75,-348 161.75,-541 283.75,-541 283.75,-348 161.75,-348"/>
</g>
<g id="clust5" class="cluster">
<title>cluster_2</title>
<polygon fill="none" stroke="none" points="303.75,-193 303.75,-401 422,-401 422,-193 303.75,-193"/>
</g>
<g id="clust6" class="cluster">
<title>cluster_3</title>
<polygon fill="none" stroke="none" points="442,-48 442,-361 567,-361 567,-48 442,-48"/>
</g>
<g id="clust7" class="cluster">
<title>cluster_4</title>
<polygon fill="none" stroke="none" points="587,-358 587,-446 712,-446 712,-358 587,-358"/>
</g>
<g id="clust8" class="cluster">
<title>cluster_5</title>
<polygon fill="none" stroke="none" points="732,-358 732,-446 848.8,-446 848.8,-358 732,-358"/>
</g>
<g id="clust9" class="cluster">
<title>cluster_6</title>
<polygon fill="none" stroke="none" points="868.8,-358 868.8,-446 985.6,-446 985.6,-358 868.8,-358"/>
</g>
<g id="clust10" class="cluster">
<title>cluster_7</title>
<polygon fill="none" stroke="none" points="1005.6,-291 1005.6,-499 1122.4,-499 1122.4,-291 1005.6,-291"/>
</g>
<!-- 1ª Fase -->
<g id="node1" class="node">
<title>1ª Fase</title>
<polygon fill="lightgrey" stroke="black" points="129.28,-647 28.48,-647 28.48,-611 129.28,-611 129.28,-647"/>
<text text-anchor="middle" x="78.88" y="-623.58" font-family="Arial" font-size="14.00">1ª Fase</text>
</g>
<!-- 2ª Fase -->
<g id="node2" class="node">
<title>2ª Fase</title>
<polygon fill="lightgrey" stroke="black" points="273.15,-647 172.35,-647 172.35,-611 273.15,-611 273.15,-647"/>
<text text-anchor="middle" x="222.75" y="-623.58" font-family="Arial" font-size="14.00">2ª Fase</text>
</g>
<!-- 1ª Fase&#45;&gt;2ª Fase -->
<!-- 3ª Fase -->
<g id="node3" class="node">
<title>3ª Fase</title>
<polygon fill="lightgrey" stroke="black" points="413.28,-647 312.48,-647 312.48,-611 413.28,-611 413.28,-647"/>
<text text-anchor="middle" x="362.88" y="-623.58" font-family="Arial" font-size="14.00">3ª Fase</text>
</g>
<!-- 2ª Fase&#45;&gt;3ª Fase -->
<!-- 4ª Fase -->
<g id="node4" class="node">
<title>4ª Fase</title>
<polygon fill="lightgrey" stroke="black" points="554.9,-647 454.1,-647 454.1,-611 554.9,-611 554.9,-647"/>
<text text-anchor="middle" x="504.5" y="-623.58" font-family="Arial" font-size="14.00">4ª Fase</text>
</g>
<!-- 3ª Fase&#45;&gt;4ª Fase -->
<!-- 5ª Fase -->
<g id="node5" class="node">
<title>5ª Fase</title>
<polygon fill="lightgrey" stroke="black" points="699.9,-647 599.1,-647 599.1,-611 699.9,-611 699.9,-647"/>
<text text-anchor="middle" x="649.5" y="-623.58" font-family="Arial" font-size="14.00">5ª Fase</text>
</g>
<!-- 4ª Fase&#45;&gt;5ª Fase -->
<!-- 6ª Fase -->
<g id="node6" class="node">
<title>6ª Fase</title>
<polygon fill="lightgrey" stroke="black" points="840.8,-647 740,-647 740,-611 840.8,-611 840.8,-647"/>
<text text-anchor="middle" x="790.4" y="-623.58" font-family="Arial" font-size="14.00">6ª Fase</text>
</g>
<!-- 5ª Fase&#45;&gt;6ª Fase -->
<!-- 7ª Fase -->
<g id="node7" class="node">
<title>7ª Fase</title>
<polygon fill="lightgrey" stroke="black" points="977.6,-647 876.8,-647 876.8,-611 977.6,-611 977.6,-647"/>
<text text-anchor="middle" x="927.2" y="-623.58" font-family="Arial" font-size="14.00">7ª Fase</text>
</g>
<!-- 6ª Fase&#45;&gt;7ª Fase -->
<!-- 8ª Fase -->
<g id="node8" class="node">
<title>8ª Fase</title>
<polygon fill="lightgrey" stroke="black" points="1114.4,-647 1013.6,-647 1013.6,-611 1114.4,-611 1114.4,-647"/>
<text text-anchor="middle" x="1064" y="-623.58" font-family="Arial" font-size="14.00">8ª Fase</text>
</g>
<!-- 7ª Fase&#45;&gt;8ª Fase -->
<!-- ANT7101 -->
<g id="node9" class="node">
<title>ANT7101</title>
<g id="a_node9"><a xlink:title="A constituição da Antropologia como disciplina e seu campo de estudo. A crítica ao etnocentrismo e o relativismo cultural. Questões de método: trabalho de campo e observação participante. Os precursores e o evolucionismo social na conformação da Antropologia como disciplina.">
<polygon fill="#8dd3c7" stroke="#8dd3c7" points="133.75,-438.38 24,-438.38 24,-335.62 133.75,-335.62 133.75,-438.38"/>
<text text-anchor="middle" x="78.88" y="-421.07" font-family="Arial" font-size="14.00">ANT7101</text>
<text text-anchor="middle" x="78.88" y="-389.32" font-family="Arial" font-size="14.00">Introdução à</text>
<text text-anchor="middle" x="78.88" y="-373.57" font-family="Arial" font-size="14.00">Antropologia</text>
<text text-anchor="middle" x="78.88" y="-357.82" font-family="Arial" font-size="14.00">(PCC 36 horas&#45;</text>
<text text-anchor="middle" x="78.88" y="-342.07" font-family="Arial" font-size="14.00">aula)</text>
</a>
</g>
</g>
<!-- ANT7201 -->
<g id="node12" class="node">
<title>ANT7201</title>
<g id="a_node12"><a xlink:title="A constituição das antropologias social&#45;britânica &#45; funcionalismo e estrutural&#45;funcionalismo &#45; e cultural norte&#45;americana.">
<polygon fill="#8dd3c7" stroke="#8dd3c7" points="275.75,-532.5 169.75,-532.5 169.75,-445.5 275.75,-445.5 275.75,-532.5"/>
<text text-anchor="middle" x="222.75" y="-515.2" font-family="Arial" font-size="14.00">ANT7201</text>
<text text-anchor="middle" x="222.75" y="-483.45" font-family="Arial" font-size="14.00">Teoria</text>
<text text-anchor="middle" x="222.75" y="-467.7" font-family="Arial" font-size="14.00">Antropológica I</text>
<text text-anchor="middle" x="222.75" y="-451.95" font-family="Arial" font-size="14.00">&#45; PCC 36h/a</text>
</a>
</g>
</g>
<!-- ANT7101&#45;&gt;ANT7201 -->
<g id="edge8" class="edge">
<title>ANT7101&#45;&gt;ANT7201</title>
<path fill="none" stroke="#8dd3c7" stroke-width="2" d="M134.09,-435.96C165.41,-435.96 198.4,-435.96 198.4,-435.96 198.4,-435.96 198.4,-442.7 198.4,-442.7"/>
<polygon fill="#8dd3c7" stroke="#8dd3c7" stroke-width="2" points="200.9,-444.2 195.9,-444.2 195.9,-443.2 200.9,-443.2 200.9,-444.2"/>
<polyline fill="none" stroke="#8dd3c7" stroke-width="2" points="198.4,-444.7 198.4,-442.2"/>
</g>
<!-- ANT7101&#45;&gt;ANT7201 -->
<!-- ANT7203 -->
<g id="node13" class="node">
<title>ANT7203</title>
<g id="a_node13"><a xlink:title="Estudos etnográficos elaborados a partir do marco da antropologia social&#45; britânica &#45; funcionalismo e estrutural&#45;funcionalismo &#45; e do cultural&#45;historicismo norte&#45; americano.">
<polygon fill="#8dd3c7" stroke="#8dd3c7" points="273.15,-427.62 172.35,-427.62 172.35,-356.38 273.15,-356.38 273.15,-427.62"/>
<text text-anchor="middle" x="222.75" y="-410.32" font-family="Arial" font-size="14.00">ANT7203</text>
<text text-anchor="middle" x="222.75" y="-378.57" font-family="Arial" font-size="14.00">Leituras</text>
<text text-anchor="middle" x="222.75" y="-362.82" font-family="Arial" font-size="14.00">Etnográficas I</text>
</a>
</g>
</g>
<!-- ANT7101&#45;&gt;ANT7203 -->
<!-- ANT7301 -->
<g id="node15" class="node">
<title>ANT7301</title>
<g id="a_node15"><a xlink:title="A escola sociológica francesa e o estruturalismo.">
<polygon fill="#8dd3c7" stroke="#8dd3c7" points="413.28,-393.38 312.48,-393.38 312.48,-290.62 413.28,-290.62 413.28,-393.38"/>
<text text-anchor="middle" x="362.88" y="-376.07" font-family="Arial" font-size="14.00">ANT7301</text>
<text text-anchor="middle" x="362.88" y="-344.32" font-family="Arial" font-size="14.00">Teoria</text>
<text text-anchor="middle" x="362.88" y="-328.57" font-family="Arial" font-size="14.00">Antropológica</text>
<text text-anchor="middle" x="362.88" y="-312.82" font-family="Arial" font-size="14.00">II &#45; PCC 18</text>
<text text-anchor="middle" x="362.88" y="-297.07" font-family="Arial" font-size="14.00">horas/aula</text>
</a>
</g>
</g>
<!-- ANT7101&#45;&gt;ANT7301 -->
<g id="edge11" class="edge">
<title>ANT7101&#45;&gt;ANT7301</title>
<path fill="none" stroke="#8dd3c7" stroke-width="2" d="M133.97,-346C133.97,-346 309.72,-346 309.72,-346"/>
<polygon fill="#8dd3c7" stroke="#8dd3c7" stroke-width="2" points="311.22,-343.5 311.22,-348.5 310.22,-348.5 310.22,-343.5 311.22,-343.5"/>
<polyline fill="none" stroke="#8dd3c7" stroke-width="2" points="311.72,-346 309.22,-346"/>
</g>
<!-- ANT7401 -->
<g id="node18" class="node">
<title>ANT7401</title>
<g id="a_node18"><a xlink:title="O pensamento antropológico pós&#45;guerra e as bases da antropologia contemporânea. A diversificação dos paradigmas antropológicos em reações às escolas nacionais e aos modelos dualistas (natureza e cultura; indivíduo e sociedade; história e estrutura). Proposições para as antropologias processuais, históricas, interpretativas e simbólicas.">
<polygon fill="#8dd3c7" stroke="#8dd3c7" points="554.9,-353.38 454.1,-353.38 454.1,-250.62 554.9,-250.62 554.9,-353.38"/>
<text text-anchor="middle" x="504.5" y="-336.07" font-family="Arial" font-size="14.00">ANT7401</text>
<text text-anchor="middle" x="504.5" y="-304.32" font-family="Arial" font-size="14.00">Teoria</text>
<text text-anchor="middle" x="504.5" y="-288.57" font-family="Arial" font-size="14.00">Antropológica</text>
<text text-anchor="middle" x="504.5" y="-272.82" font-family="Arial" font-size="14.00">III &#45; PCC 36</text>
<text text-anchor="middle" x="504.5" y="-257.07" font-family="Arial" font-size="14.00">horas/aula</text>
</a>
</g>
</g>
<!-- ANT7101&#45;&gt;ANT7401 -->
<g id="edge13" class="edge">
<title>ANT7101&#45;&gt;ANT7401</title>
<path fill="none" stroke="#8dd3c7" stroke-width="2" d="M134.15,-429.29C244.02,-429.29 479.4,-429.29 479.4,-429.29 479.4,-429.29 479.4,-356.27 479.4,-356.27"/>
<polygon fill="#8dd3c7" stroke="#8dd3c7" stroke-width="2" points="476.9,-354.77 481.9,-354.77 481.9,-355.77 476.9,-355.77 476.9,-354.77"/>
<polyline fill="none" stroke="#8dd3c7" stroke-width="2" points="479.4,-354.27 479.4,-356.77"/>
</g>
<!-- ANT7205 -->
<g id="node19" class="node">
<title>ANT7205</title>
<g id="a_node19"><a xlink:title="Realização de exercícios de trabalho de campo, de caráter experimental e instrumental, praticando as diferentes técnicas e métodos de pesquisa nas ciências humanas em geral e na antropologia em particular. Problematização de pesquisa de campo e análise de dados.">
<polygon fill="#8dd3c7" stroke="#8dd3c7" points="704,-437.62 595,-437.62 595,-366.38 704,-366.38 704,-437.62"/>
<text text-anchor="middle" x="649.5" y="-420.32" font-family="Arial" font-size="14.00">ANT7205</text>
<text text-anchor="middle" x="649.5" y="-388.57" font-family="Arial" font-size="14.00">Metodologia da</text>
<text text-anchor="middle" x="649.5" y="-372.82" font-family="Arial" font-size="14.00">Pesquisa II</text>
</a>
</g>
</g>
<!-- ANT7101&#45;&gt;ANT7205 -->
<g id="edge14" class="edge">
<title>ANT7101&#45;&gt;ANT7205</title>
<path fill="none" stroke="#8dd3c7" stroke-width="2" d="M134.11,-430.96C134.11,-430.96 592.16,-430.96 592.16,-430.96"/>
<polygon fill="#8dd3c7" stroke="#8dd3c7" stroke-width="2" points="593.66,-428.46 593.66,-433.46 592.66,-433.46 592.66,-428.46 593.66,-428.46"/>
<polyline fill="none" stroke="#8dd3c7" stroke-width="2" points="594.16,-430.96 591.66,-430.96"/>
</g>
<!-- ANT7206 -->
<g id="node20" class="node">
<title>ANT7206</title>
<g id="a_node20"><a xlink:title="Elaboração e finalização do projeto de pesquisa para a monografia de final de curso (TCC). Revisão bibliográfica e teórico&#45;metodológica; problemas gerais de planejamento, execução e avaliação do processo da pesquisa.">
<polygon fill="#8dd3c7" stroke="#8dd3c7" points="840.8,-437.62 740,-437.62 740,-366.38 840.8,-366.38 840.8,-437.62"/>
<text text-anchor="middle" x="790.4" y="-420.32" font-family="Arial" font-size="14.00">ANT7206</text>
<text text-anchor="middle" x="790.4" y="-388.57" font-family="Arial" font-size="14.00">Seminário de</text>
<text text-anchor="middle" x="790.4" y="-372.82" font-family="Arial" font-size="14.00">Pesquisa</text>
</a>
</g>
</g>
<!-- ANT7101&#45;&gt;ANT7206 -->
<g id="edge23" class="edge">
<title>ANT7101&#45;&gt;ANT7206</title>
<path fill="none" stroke="#8dd3c7" stroke-width="2" d="M79.4,-438.67C79.4,-440.73 79.4,-441.94 79.4,-441.94 79.4,-441.94 765.4,-441.94 765.4,-441.94 765.4,-441.94 765.4,-440.46 765.4,-440.46"/>
<polygon fill="#8dd3c7" stroke="#8dd3c7" stroke-width="2" points="762.9,-438.96 767.9,-438.96 767.9,-439.96 762.9,-439.96 762.9,-438.96"/>
<polyline fill="none" stroke="#8dd3c7" stroke-width="2" points="765.4,-438.46 765.4,-440.96"/>
</g>
<!-- ANT7202 -->
<g id="node10" class="node">
<title>ANT7202</title>
<g id="a_node10"><a xlink:title="Introdução à etnografia como método, forma de representação e modo de reflexão antropológica. Os precursores da etnografia: o imaginário europeu sobre o ‘exótico’, o ‘selvagem’ e o ‘outro’; relatos de viagem; memórias dos colonizadores; antropologia de gabinete.">
<polygon fill="#8dd3c7" stroke="#8dd3c7" points="129.28,-317.62 28.48,-317.62 28.48,-246.38 129.28,-246.38 129.28,-317.62"/>
<text text-anchor="middle" x="78.88" y="-300.32" font-family="Arial" font-size="14.00">ANT7202</text>
<text text-anchor="middle" x="78.88" y="-268.57" font-family="Arial" font-size="14.00">Introdução à</text>
<text text-anchor="middle" x="78.88" y="-252.82" font-family="Arial" font-size="14.00">Etnografia</text>
</a>
</g>
</g>
<!-- ANT7202&#45;&gt;ANT7203 -->
<g id="edge9" class="edge">
<title>ANT7202&#45;&gt;ANT7203</title>
<path fill="none" stroke="#8dd3c7" stroke-width="2" d="M129.56,-304.12C162.14,-304.12 198.4,-304.12 198.4,-304.12 198.4,-304.12 198.4,-353.5 198.4,-353.5"/>
<polygon fill="#8dd3c7" stroke="#8dd3c7" stroke-width="2" points="200.9,-355 195.9,-355 195.9,-354 200.9,-354 200.9,-355"/>
<polyline fill="none" stroke="#8dd3c7" stroke-width="2" points="198.4,-355.5 198.4,-353"/>
</g>
<!-- ANT7204 -->
<g id="node14" class="node">
<title>ANT7204</title>
<g id="a_node14"><a xlink:title="Estudos etnográficos elaborados a partir do marco da escola sociológica francesa e do estruturalismo. A relação entre teoria e etnografia.">
<polygon fill="#8dd3c7" stroke="#8dd3c7" points="414,-272.62 311.75,-272.62 311.75,-201.38 414,-201.38 414,-272.62"/>
<text text-anchor="middle" x="362.88" y="-255.32" font-family="Arial" font-size="14.00">ANT7204</text>
<text text-anchor="middle" x="362.88" y="-223.57" font-family="Arial" font-size="14.00">Leituras</text>
<text text-anchor="middle" x="362.88" y="-207.82" font-family="Arial" font-size="14.00">Etnográficas II</text>
</a>
</g>
</g>
<!-- ANT7202&#45;&gt;ANT7204 -->
<g id="edge10" class="edge">
<title>ANT7202&#45;&gt;ANT7204</title>
<path fill="none" stroke="#8dd3c7" stroke-width="2" d="M129.65,-255.12C129.65,-255.12 309.08,-255.12 309.08,-255.12"/>
<polygon fill="#8dd3c7" stroke="#8dd3c7" stroke-width="2" points="310.58,-252.63 310.58,-257.63 309.58,-257.63 309.58,-252.63 310.58,-252.63"/>
<polyline fill="none" stroke="#8dd3c7" stroke-width="2" points="311.08,-255.13 308.58,-255.13"/>
</g>
<!-- ANT7211 -->
<g id="node17" class="node">
<title>ANT7211</title>
<g id="a_node17"><a xlink:title="Estudos etnográficos elaborados a partir da antropologia pós&#45;guerra e contemporânea. A relação entre pesquisa de campo e escrita etnográfica. Etnografia como representação e como narrativa. Autoria e autoridade etnográfica. Representação etnográfica do &#39;eu&#39; e do &#39;outro&#39;. Reflexividade e dialogismo.">
<polygon fill="#8dd3c7" stroke="#8dd3c7" points="554.9,-143.5 454.1,-143.5 454.1,-56.5 554.9,-56.5 554.9,-143.5"/>
<text text-anchor="middle" x="504.5" y="-126.2" font-family="Arial" font-size="14.00">ANT7211</text>
<text text-anchor="middle" x="504.5" y="-94.45" font-family="Arial" font-size="14.00">Leituras</text>
<text text-anchor="middle" x="504.5" y="-78.7" font-family="Arial" font-size="14.00">Etnográficas</text>
<text text-anchor="middle" x="504.5" y="-62.95" font-family="Arial" font-size="14.00">III</text>
</a>
</g>
</g>
<!-- ANT7202&#45;&gt;ANT7211 -->
<g id="edge12" class="edge">
<title>ANT7202&#45;&gt;ANT7211</title>
<path fill="none" stroke="#8dd3c7" stroke-width="2" d="M62.4,-245.96C62.4,-189.23 62.4,-85.5 62.4,-85.5 62.4,-85.5 451.29,-85.5 451.29,-85.5"/>
<polygon fill="#8dd3c7" stroke="#8dd3c7" stroke-width="2" points="452.79,-83 452.79,-88 451.79,-88 451.79,-83 452.79,-83"/>
<polyline fill="none" stroke="#8dd3c7" stroke-width="2" points="453.29,-85.5 450.79,-85.5"/>
</g>
<!-- ANT7202&#45;&gt;ANT7205 -->
<g id="edge16" class="edge">
<title>ANT7202&#45;&gt;ANT7205</title>
<path fill="none" stroke="#8dd3c7" stroke-width="2" d="M129.71,-281.62C225.55,-281.62 423.4,-281.62 423.4,-281.62 423.4,-281.62 423.4,-382.57 423.4,-382.57 423.4,-382.57 592.27,-382.57 592.27,-382.57"/>
<polygon fill="#8dd3c7" stroke="#8dd3c7" stroke-width="2" points="593.77,-380.08 593.77,-385.08 592.77,-385.08 592.77,-380.08 593.77,-380.08"/>
<polyline fill="none" stroke="#8dd3c7" stroke-width="2" points="594.27,-382.58 591.77,-382.58"/>
</g>
<!-- ANT7202&#45;&gt;ANT7206 -->
<g id="edge26" class="edge">
<title>ANT7202&#45;&gt;ANT7206</title>
<path fill="none" stroke="#8dd3c7" stroke-width="2" d="M96.4,-246.13C96.4,-206.88 96.4,-149.46 96.4,-149.46 96.4,-149.46 816.4,-149.46 816.4,-149.46 816.4,-149.46 816.4,-363.59 816.4,-363.59"/>
<polygon fill="#8dd3c7" stroke="#8dd3c7" stroke-width="2" points="818.9,-365.09 813.9,-365.09 813.9,-364.09 818.9,-364.09 818.9,-365.09"/>
<polyline fill="none" stroke="#8dd3c7" stroke-width="2" points="816.4,-365.59 816.4,-363.09"/>
</g>
<!-- ANT7210 -->
<g id="node11" class="node">
<title>ANT7210</title>
<g id="a_node11"><a xlink:title="Produção textual em antropologia; gêneros do discurso, gêneros literários; planejamento, elaboração e formas estilísticas de textos relevantes para o desempenho das atividades acadêmicas, tais como: resumos, resenhas, ensaios e artigos dissertativos e argumentativos. Regras de formatação, citações e referências bibliográficas.">
<polygon fill="#8dd3c7" stroke="#8dd3c7" points="129.28,-543.5 28.48,-543.5 28.48,-456.5 129.28,-456.5 129.28,-543.5"/>
<text text-anchor="middle" x="78.88" y="-526.2" font-family="Arial" font-size="14.00">ANT7210</text>
<text text-anchor="middle" x="78.88" y="-494.45" font-family="Arial" font-size="14.00">Práticas de</text>
<text text-anchor="middle" x="78.88" y="-478.7" font-family="Arial" font-size="14.00">Escrita em</text>
<text text-anchor="middle" x="78.88" y="-462.95" font-family="Arial" font-size="14.00">Antropologia</text>
</a>
</g>
</g>
<!-- ANT7210&#45;&gt;ANT7205 -->
<g id="edge19" class="edge">
<title>ANT7210&#45;&gt;ANT7205</title>
<path fill="none" stroke="#8dd3c7" stroke-width="2" d="M129.59,-536.17C269.47,-536.17 650.4,-536.17 650.4,-536.17 650.4,-536.17 650.4,-440.45 650.4,-440.45"/>
<polygon fill="#8dd3c7" stroke="#8dd3c7" stroke-width="2" points="647.9,-438.95 652.9,-438.95 652.9,-439.95 647.9,-439.95 647.9,-438.95"/>
<polyline fill="none" stroke="#8dd3c7" stroke-width="2" points="650.4,-438.45 650.4,-440.95"/>
</g>
<!-- ANT7210&#45;&gt;ANT7206 -->
<g id="edge30" class="edge">
<title>ANT7210&#45;&gt;ANT7206</title>
<path fill="none" stroke="#8dd3c7" stroke-width="2" d="M129.57,-539.83C296.2,-539.83 816.4,-539.83 816.4,-539.83 816.4,-539.83 816.4,-440.35 816.4,-440.35"/>
<polygon fill="#8dd3c7" stroke="#8dd3c7" stroke-width="2" points="813.9,-438.85 818.9,-438.85 818.9,-439.85 813.9,-439.85 813.9,-438.85"/>
<polyline fill="none" stroke="#8dd3c7" stroke-width="2" points="816.4,-438.35 816.4,-440.85"/>
</g>
<!-- ANT7201&#45;&gt;ANT7205 -->
<g id="edge15" class="edge">
<title>ANT7201&#45;&gt;ANT7205</title>
<path fill="none" stroke="#8dd3c7" stroke-width="2" d="M248.4,-445.14C248.4,-437.86 248.4,-432.62 248.4,-432.62 248.4,-432.62 592.07,-432.62 592.07,-432.62"/>
<polygon fill="#8dd3c7" stroke="#8dd3c7" stroke-width="2" points="593.57,-430.13 593.57,-435.13 592.57,-435.13 592.57,-430.13 593.57,-430.13"/>
<polyline fill="none" stroke="#8dd3c7" stroke-width="2" points="594.07,-432.63 591.57,-432.63"/>
</g>
<!-- ANT7201&#45;&gt;ANT7206 -->
<g id="edge25" class="edge">
<title>ANT7201&#45;&gt;ANT7206</title>
<path fill="none" stroke="#8dd3c7" stroke-width="2" d="M276.15,-468.06C417.46,-468.06 790.4,-468.06 790.4,-468.06 790.4,-468.06 790.4,-440.62 790.4,-440.62"/>
<polygon fill="#8dd3c7" stroke="#8dd3c7" stroke-width="2" points="787.9,-439.12 792.9,-439.12 792.9,-440.12 787.9,-440.12 787.9,-439.12"/>
<polyline fill="none" stroke="#8dd3c7" stroke-width="2" points="790.4,-438.62 790.4,-441.12"/>
</g>
<!-- ANT7203&#45;&gt;ANT7204 -->
<!-- ANT7203&#45;&gt;ANT7301 -->
<!-- ANT7203&#45;&gt;ANT7205 -->
<g id="edge17" class="edge">
<title>ANT7203&#45;&gt;ANT7205</title>
<path fill="none" stroke="#8dd3c7" stroke-width="2" d="M273.38,-410.5C273.38,-410.5 592.06,-410.5 592.06,-410.5"/>
<polygon fill="#8dd3c7" stroke="#8dd3c7" stroke-width="2" points="593.56,-408 593.56,-413 592.56,-413 592.56,-408 593.56,-408"/>
<polyline fill="none" stroke="#8dd3c7" stroke-width="2" points="594.06,-410.5 591.56,-410.5"/>
</g>
<!-- ANT7203&#45;&gt;ANT7206 -->
<g id="edge27" class="edge">
<title>ANT7203&#45;&gt;ANT7206</title>
<path fill="none" stroke="#8dd3c7" stroke-width="2" d="M223.4,-356.07C223.4,-289.88 223.4,-155.42 223.4,-155.42 223.4,-155.42 803.4,-155.42 803.4,-155.42 803.4,-155.42 803.4,-363.38 803.4,-363.38"/>
<polygon fill="#8dd3c7" stroke="#8dd3c7" stroke-width="2" points="805.9,-364.88 800.9,-364.88 800.9,-363.88 805.9,-363.88 805.9,-364.88"/>
<polyline fill="none" stroke="#8dd3c7" stroke-width="2" points="803.4,-365.38 803.4,-362.88"/>
</g>
<!-- ANT7204&#45;&gt;ANT7205 -->
<g id="edge18" class="edge">
<title>ANT7204&#45;&gt;ANT7205</title>
<path fill="none" stroke="#8dd3c7" stroke-width="2" d="M414.33,-244.62C492.3,-244.62 631.4,-244.62 631.4,-244.62 631.4,-244.62 631.4,-363.39 631.4,-363.39"/>
<polygon fill="#8dd3c7" stroke="#8dd3c7" stroke-width="2" points="633.9,-364.9 628.9,-364.89 628.9,-363.89 633.9,-363.9 633.9,-364.9"/>
<polyline fill="none" stroke="#8dd3c7" stroke-width="2" points="631.4,-365.39 631.4,-362.89"/>
</g>
<!-- ANT7204&#45;&gt;ANT7206 -->
<g id="edge28" class="edge">
<title>ANT7204&#45;&gt;ANT7206</title>
<path fill="none" stroke="#8dd3c7" stroke-width="2" d="M414.24,-238.62C525.42,-238.62 778.4,-238.62 778.4,-238.62 778.4,-238.62 778.4,-363.65 778.4,-363.65"/>
<polygon fill="#8dd3c7" stroke="#8dd3c7" stroke-width="2" points="780.9,-365.15 775.9,-365.15 775.9,-364.15 780.9,-364.15 780.9,-365.15"/>
<polyline fill="none" stroke="#8dd3c7" stroke-width="2" points="778.4,-365.65 778.4,-363.15"/>
</g>
<!-- ANT7110 -->
<g id="node16" class="node">
<title>ANT7110</title>
<g id="a_node16"><a xlink:title="As diferentes perspectivas epistemológicas e metodológicas da produção do conhecimento antropológico. O método comparativo e o método etnográfico. Objetividade e subjetividade na pesquisa antropológica. Trabalho de campo, reflexividade e simetria. Ética na pesquisa.">
<polygon fill="#8dd3c7" stroke="#8dd3c7" points="559,-232.62 450,-232.62 450,-161.38 559,-161.38 559,-232.62"/>
<text text-anchor="middle" x="504.5" y="-215.32" font-family="Arial" font-size="14.00">ANT7110</text>
<text text-anchor="middle" x="504.5" y="-183.57" font-family="Arial" font-size="14.00">Metodologia da</text>
<text text-anchor="middle" x="504.5" y="-167.82" font-family="Arial" font-size="14.00">Pesquisa</text>
</a>
</g>
</g>
<!-- ANT7301&#45;&gt;ANT7110 -->
<!-- ANT7301&#45;&gt;ANT7211 -->
<!-- ANT7301&#45;&gt;ANT7401 -->
<!-- ANT7301&#45;&gt;ANT7205 -->
<g id="edge21" class="edge">
<title>ANT7301&#45;&gt;ANT7205</title>
<path fill="none" stroke="#8dd3c7" stroke-width="2" d="M413.46,-387.98C413.46,-387.98 592.04,-387.98 592.04,-387.98"/>
<polygon fill="#8dd3c7" stroke="#8dd3c7" stroke-width="2" points="593.54,-385.48 593.54,-390.48 592.54,-390.48 592.54,-385.48 593.54,-385.48"/>
<polyline fill="none" stroke="#8dd3c7" stroke-width="2" points="594.04,-387.98 591.54,-387.98"/>
</g>
<!-- ANT7301&#45;&gt;ANT7206 -->
<g id="edge32" class="edge">
<title>ANT7301&#45;&gt;ANT7206</title>
<path fill="none" stroke="#8dd3c7" stroke-width="2" d="M413.53,-359.88C519.2,-359.88 753.4,-359.88 753.4,-359.88 753.4,-359.88 753.4,-363.59 753.4,-363.59"/>
<polygon fill="#8dd3c7" stroke="#8dd3c7" stroke-width="2" points="755.9,-365.09 750.9,-365.09 750.9,-364.09 755.9,-364.09 755.9,-365.09"/>
<polyline fill="none" stroke="#8dd3c7" stroke-width="2" points="753.4,-365.59 753.4,-363.09"/>
</g>
<!-- ANT7110&#45;&gt;ANT7206 -->
<g id="edge24" class="edge">
<title>ANT7110&#45;&gt;ANT7206</title>
<path fill="none" stroke="#8dd3c7" stroke-width="2" d="M559.29,-197C642.3,-197 790.4,-197 790.4,-197 790.4,-197 790.4,-363.79 790.4,-363.79"/>
<polygon fill="#8dd3c7" stroke="#8dd3c7" stroke-width="2" points="792.9,-365.29 787.9,-365.29 787.9,-364.29 792.9,-364.29 792.9,-365.29"/>
<polyline fill="none" stroke="#8dd3c7" stroke-width="2" points="790.4,-365.79 790.4,-363.29"/>
</g>
<!-- ANT7211&#45;&gt;ANT7205 -->
<g id="edge20" class="edge">
<title>ANT7211&#45;&gt;ANT7205</title>
<path fill="none" stroke="#8dd3c7" stroke-width="2" d="M555.01,-114.5C603.17,-114.5 668.4,-114.5 668.4,-114.5 668.4,-114.5 668.4,-363.38 668.4,-363.38"/>
<polygon fill="#8dd3c7" stroke="#8dd3c7" stroke-width="2" points="670.9,-364.88 665.9,-364.88 665.9,-363.88 670.9,-363.88 670.9,-364.88"/>
<polyline fill="none" stroke="#8dd3c7" stroke-width="2" points="668.4,-365.38 668.4,-362.88"/>
</g>
<!-- ANT7211&#45;&gt;ANT7206 -->
<g id="edge31" class="edge">
<title>ANT7211&#45;&gt;ANT7206</title>
<path fill="none" stroke="#8dd3c7" stroke-width="2" d="M555.11,-85.5C646.21,-85.5 828.4,-85.5 828.4,-85.5 828.4,-85.5 828.4,-363.5 828.4,-363.5"/>
<polygon fill="#8dd3c7" stroke="#8dd3c7" stroke-width="2" points="830.9,-365 825.9,-365 825.9,-364 830.9,-364 830.9,-365"/>
<polyline fill="none" stroke="#8dd3c7" stroke-width="2" points="828.4,-365.5 828.4,-363"/>
</g>
<!-- ANT7401&#45;&gt;ANT7205 -->
<g id="edge22" class="edge">
<title>ANT7401&#45;&gt;ANT7205</title>
<path fill="none" stroke="#8dd3c7" stroke-width="2" d="M505.4,-353.8C505.4,-366.82 505.4,-377.18 505.4,-377.18 505.4,-377.18 592.11,-377.18 592.11,-377.18"/>
<polygon fill="#8dd3c7" stroke="#8dd3c7" stroke-width="2" points="593.61,-374.68 593.61,-379.68 592.61,-379.68 592.61,-374.68 593.61,-374.68"/>
<polyline fill="none" stroke="#8dd3c7" stroke-width="2" points="594.11,-377.18 591.61,-377.18"/>
</g>
<!-- ANT7401&#45;&gt;ANT7205 -->
<!-- ANT7401&#45;&gt;ANT7206 -->
<g id="edge33" class="edge">
<title>ANT7401&#45;&gt;ANT7206</title>
<path fill="none" stroke="#8dd3c7" stroke-width="2" d="M555.11,-326C630.98,-326 765.4,-326 765.4,-326 765.4,-326 765.4,-363.73 765.4,-363.73"/>
<polygon fill="#8dd3c7" stroke="#8dd3c7" stroke-width="2" points="767.9,-365.23 762.9,-365.23 762.9,-364.23 767.9,-364.23 767.9,-365.23"/>
<polyline fill="none" stroke="#8dd3c7" stroke-width="2" points="765.4,-365.73 765.4,-363.23"/>
</g>
<!-- ANT7205&#45;&gt;ANT7206 -->
<g id="edge29" class="edge">
<title>ANT7205&#45;&gt;ANT7206</title>
<path fill="none" stroke="#8dd3c7" stroke-width="2" d="M704.38,-390.12C704.38,-390.12 737.08,-390.12 737.08,-390.12"/>
<polygon fill="#8dd3c7" stroke="#8dd3c7" stroke-width="2" points="738.58,-387.63 738.58,-392.63 737.58,-392.63 737.58,-387.63 738.58,-387.63"/>
<polyline fill="none" stroke="#8dd3c7" stroke-width="2" points="739.08,-390.13 736.58,-390.13"/>
</g>
<!-- ANT7205&#45;&gt;ANT7206 -->
<!-- ANT7207 -->
<g id="node21" class="node">
<title>ANT7207</title>
<g id="a_node21"><a xlink:title="Realização da pesquisa para a monografia, sob a supervisão de um professor orientador, indicado de acordo com a regulamentação do TCC.">
<polygon fill="#fb8072" stroke="#fb8072" points="977.6,-437.62 876.8,-437.62 876.8,-366.38 977.6,-366.38 977.6,-437.62"/>
<text text-anchor="middle" x="927.2" y="-420.32" font-family="Arial" font-size="14.00">ANT7207</text>
<text text-anchor="middle" x="927.2" y="-388.57" font-family="Arial" font-size="14.00">TCC I Prática</text>
<text text-anchor="middle" x="927.2" y="-372.82" font-family="Arial" font-size="14.00">de Pesquisa</text>
</a>
</g>
</g>
<!-- ANT7206&#45;&gt;ANT7207 -->
<g id="edge34" class="edge">
<title>ANT7206&#45;&gt;ANT7207</title>
<path fill="none" stroke="#fb8072" stroke-width="2" d="M840.95,-390.12C840.95,-390.12 873.9,-390.12 873.9,-390.12"/>
<polygon fill="#fb8072" stroke="#fb8072" stroke-width="2" points="875.4,-387.63 875.4,-392.63 874.4,-392.63 874.4,-387.63 875.4,-387.63"/>
<polyline fill="none" stroke="#fb8072" stroke-width="2" points="875.9,-390.13 873.4,-390.13"/>
</g>
<!-- ANT7206&#45;&gt;ANT7207 -->
<!-- ANT7208 -->
<g id="node22" class="node">
<title>ANT7208</title>
<g id="a_node22"><a xlink:title="Elaboração e defesa da monografia, sob a supervisão de um professor orientador, indicado de acordo com a regulamentação do TCC.">
<polygon fill="#fb8072" stroke="#fb8072" points="1114.4,-401.38 1013.6,-401.38 1013.6,-298.62 1114.4,-298.62 1114.4,-401.38"/>
<text text-anchor="middle" x="1064" y="-384.07" font-family="Arial" font-size="14.00">ANT7208</text>
<text text-anchor="middle" x="1064" y="-352.32" font-family="Arial" font-size="14.00">TCC II &#45;</text>
<text text-anchor="middle" x="1064" y="-336.57" font-family="Arial" font-size="14.00">Trabalho de</text>
<text text-anchor="middle" x="1064" y="-320.82" font-family="Arial" font-size="14.00">Conclusão de</text>
<text text-anchor="middle" x="1064" y="-305.07" font-family="Arial" font-size="14.00">Curso</text>
</a>
</g>
</g>
<!-- ANT7207&#45;&gt;ANT7208 -->
<g id="edge35" class="edge">
<title>ANT7207&#45;&gt;ANT7208</title>
<path fill="none" stroke="#fb8072" stroke-width="2" d="M977.75,-378.04C977.75,-378.04 1010.7,-378.04 1010.7,-378.04"/>
<polygon fill="#fb8072" stroke="#fb8072" stroke-width="2" points="1012.2,-375.54 1012.2,-380.54 1011.2,-380.54 1011.2,-375.54 1012.2,-375.54"/>
<polyline fill="none" stroke="#fb8072" stroke-width="2" points="1012.7,-378.04 1010.2,-378.04"/>
</g>
<!-- ANT7207&#45;&gt;ANT7208 -->
<!-- ANT7212 -->
<g id="node23" class="node">
<title>ANT7212</title>
<g id="a_node23"><a xlink:title="Redação, leitura e discussão do texto da monografia.">
<polygon fill="#8dd3c7" stroke="#8dd3c7" points="1114.4,-490.62 1013.6,-490.62 1013.6,-419.38 1114.4,-419.38 1114.4,-490.62"/>
<text text-anchor="middle" x="1064" y="-473.32" font-family="Arial" font-size="14.00">ANT7212</text>
<text text-anchor="middle" x="1064" y="-441.57" font-family="Arial" font-size="14.00">Seminário de</text>
<text text-anchor="middle" x="1064" y="-425.82" font-family="Arial" font-size="14.00">Escrita</text>
</a>
</g>
</g>
<!-- ANT7207&#45;&gt;ANT7212 -->
<g id="edge36" class="edge">
<title>ANT7207&#45;&gt;ANT7212</title>
<path fill="none" stroke="#8dd3c7" stroke-width="2" d="M977.75,-425.46C977.75,-425.46 1010.7,-425.46 1010.7,-425.46"/>
<polygon fill="#8dd3c7" stroke="#8dd3c7" stroke-width="2" points="1012.2,-422.96 1012.2,-427.96 1011.2,-427.96 1011.2,-422.96 1012.2,-422.96"/>
<polyline fill="none" stroke="#8dd3c7" stroke-width="2" points="1012.7,-425.46 1010.2,-425.46"/>
</g>
<!-- ANT7207&#45;&gt;ANT7212 -->
</g>
</svg>
