<?xml version="1.0" encoding="UTF-8" standalone="no"?>
<!DOCTYPE svg PUBLIC "-//W3C//DTD SVG 1.1//EN"
 "http://www.w3.org/Graphics/SVG/1.1/DTD/svg11.dtd">
<!-- Generated by graphviz version 9.0.0 (0)
 -->
<!-- Title: grafo_materias Pages: 1 -->
<svg width="1239pt" height="673pt"
 viewBox="0.00 0.00 1238.50 673.00" xmlns="http://www.w3.org/2000/svg" xmlns:xlink="http://www.w3.org/1999/xlink">
<g id="graph0" class="graph" transform="scale(1 1) rotate(0) translate(4 669)">
<title>grafo_materias</title>
<polygon fill="none" stroke="none" points="-4,4 -4,-669 1234.5,-669 1234.5,4 -4,4"/>
<g id="clust1" class="cluster">
<title>cluster_everything</title>
<polygon fill="none" stroke="none" points="8,-8 8,-657 1222.5,-657 1222.5,-8 8,-8"/>
</g>
<g id="clust2" class="cluster">
<title>cluster_header</title>
<polygon fill="none" stroke="none" points="20.47,-597 20.47,-649 1204.78,-649 1204.78,-597 20.47,-597"/>
</g>
<g id="clust3" class="cluster">
<title>cluster_0</title>
<polygon fill="none" stroke="none" points="16,-190 16,-561 141.75,-561 141.75,-190 16,-190"/>
</g>
<g id="clust4" class="cluster">
<title>cluster_1</title>
<polygon fill="none" stroke="none" points="161.75,-16 161.75,-460 304,-460 304,-16 161.75,-16"/>
</g>
<g id="clust5" class="cluster">
<title>cluster_2</title>
<polygon fill="none" stroke="none" points="324,-67 324,-575 453.5,-575 453.5,-67 324,-67"/>
</g>
<g id="clust6" class="cluster">
<title>cluster_3</title>
<polygon fill="none" stroke="none" points="473.5,-28 473.5,-399 613.5,-399 613.5,-28 473.5,-28"/>
</g>
<g id="clust7" class="cluster">
<title>cluster_4</title>
<polygon fill="none" stroke="none" points="633.5,-28 633.5,-535 763.75,-535 763.75,-28 633.5,-28"/>
</g>
<g id="clust8" class="cluster">
<title>cluster_5</title>
<polygon fill="none" stroke="none" points="783.75,-168 783.75,-555 913.25,-555 913.25,-168 783.75,-168"/>
</g>
<g id="clust9" class="cluster">
<title>cluster_6</title>
<polygon fill="none" stroke="none" points="933.25,-362 933.25,-539 1058.25,-539 1058.25,-362 933.25,-362"/>
</g>
<g id="clust10" class="cluster">
<title>cluster_7</title>
<polygon fill="none" stroke="none" points="1078.25,-205 1078.25,-503 1214.5,-503 1214.5,-205 1078.25,-205"/>
</g>
<!-- 1ª Fase -->
<g id="node1" class="node">
<title>1ª Fase</title>
<polygon fill="lightgrey" stroke="black" points="129.28,-641 28.48,-641 28.48,-605 129.28,-605 129.28,-641"/>
<text text-anchor="middle" x="78.88" y="-617.58" font-family="Arial" font-size="14.00">1ª Fase</text>
</g>
<!-- 2ª Fase -->
<g id="node2" class="node">
<title>2ª Fase</title>
<polygon fill="lightgrey" stroke="black" points="283.27,-641 182.47,-641 182.47,-605 283.27,-605 283.27,-641"/>
<text text-anchor="middle" x="232.88" y="-617.58" font-family="Arial" font-size="14.00">2ª Fase</text>
</g>
<!-- 1ª Fase&#45;&gt;2ª Fase -->
<!-- 3ª Fase -->
<g id="node3" class="node">
<title>3ª Fase</title>
<polygon fill="lightgrey" stroke="black" points="439.15,-641 338.35,-641 338.35,-605 439.15,-605 439.15,-641"/>
<text text-anchor="middle" x="388.75" y="-617.58" font-family="Arial" font-size="14.00">3ª Fase</text>
</g>
<!-- 2ª Fase&#45;&gt;3ª Fase -->
<!-- 4ª Fase -->
<g id="node4" class="node">
<title>4ª Fase</title>
<polygon fill="lightgrey" stroke="black" points="593.9,-641 493.1,-641 493.1,-605 593.9,-605 593.9,-641"/>
<text text-anchor="middle" x="543.5" y="-617.58" font-family="Arial" font-size="14.00">4ª Fase</text>
</g>
<!-- 3ª Fase&#45;&gt;4ª Fase -->
<!-- 5ª Fase -->
<g id="node5" class="node">
<title>5ª Fase</title>
<polygon fill="lightgrey" stroke="black" points="749.02,-641 648.23,-641 648.23,-605 749.02,-605 749.02,-641"/>
<text text-anchor="middle" x="698.62" y="-617.58" font-family="Arial" font-size="14.00">5ª Fase</text>
</g>
<!-- 4ª Fase&#45;&gt;5ª Fase -->
<!-- 6ª Fase -->
<g id="node6" class="node">
<title>6ª Fase</title>
<polygon fill="lightgrey" stroke="black" points="898.9,-641 798.1,-641 798.1,-605 898.9,-605 898.9,-641"/>
<text text-anchor="middle" x="848.5" y="-617.58" font-family="Arial" font-size="14.00">6ª Fase</text>
</g>
<!-- 5ª Fase&#45;&gt;6ª Fase -->
<!-- 7ª Fase -->
<g id="node7" class="node">
<title>7ª Fase</title>
<polygon fill="lightgrey" stroke="black" points="1046.15,-641 945.35,-641 945.35,-605 1046.15,-605 1046.15,-641"/>
<text text-anchor="middle" x="995.75" y="-617.58" font-family="Arial" font-size="14.00">7ª Fase</text>
</g>
<!-- 6ª Fase&#45;&gt;7ª Fase -->
<!-- 8ª Fase -->
<g id="node8" class="node">
<title>8ª Fase</title>
<polygon fill="lightgrey" stroke="black" points="1196.78,-641 1095.97,-641 1095.97,-605 1196.78,-605 1196.78,-641"/>
<text text-anchor="middle" x="1146.38" y="-617.58" font-family="Arial" font-size="14.00">8ª Fase</text>
</g>
<!-- 7ª Fase&#45;&gt;8ª Fase -->
<!-- ANT7101 -->
<g id="node9" class="node">
<title>ANT7101</title>
<g id="a_node9"><a xlink:title="A constituição da Antropologia como disciplina e seu campo de estudo. A crítica ao etnocentrismo e o relativismo cultural. Questões de método: trabalho de campo e observação participante. Os precursores e o evolucionismo social na conformação da Antropologia como disciplina.">
<polygon fill="#8dd3c7" stroke="#8dd3c7" points="133.75,-374.38 24,-374.38 24,-271.62 133.75,-271.62 133.75,-374.38"/>
<text text-anchor="middle" x="78.88" y="-357.07" font-family="Arial" font-size="14.00">ANT7101</text>
<text text-anchor="middle" x="78.88" y="-325.32" font-family="Arial" font-size="14.00">Introdução à</text>
<text text-anchor="middle" x="78.88" y="-309.57" font-family="Arial" font-size="14.00">Antropologia</text>
<text text-anchor="middle" x="78.88" y="-293.82" font-family="Arial" font-size="14.00">(PCC 36 horas&#45;</text>
<text text-anchor="middle" x="78.88" y="-278.07" font-family="Arial" font-size="14.00">aula)</text>
</a>
</g>
</g>
<!-- ANT7104 -->
<g id="node13" class="node">
<title>ANT7104</title>
<g id="a_node13"><a xlink:title="Formação da identidade Nacional. A Semana de Arte de 22. Patrimônio cultural, Histórico e Cultural. Patrimônio material e imaterial.">
<polygon fill="#8dd3c7" stroke="#8dd3c7" points="283.27,-111.5 182.47,-111.5 182.47,-24.5 283.27,-24.5 283.27,-111.5"/>
<text text-anchor="middle" x="232.88" y="-94.2" font-family="Arial" font-size="14.00">ANT7104</text>
<text text-anchor="middle" x="232.88" y="-62.45" font-family="Arial" font-size="14.00">Patrimônio</text>
<text text-anchor="middle" x="232.88" y="-46.7" font-family="Arial" font-size="14.00">Histórico e</text>
<text text-anchor="middle" x="232.88" y="-30.95" font-family="Arial" font-size="14.00">Cultural</text>
</a>
</g>
</g>
<!-- ANT7101&#45;&gt;ANT7104 -->
<!-- CIN7138 -->
<g id="node14" class="node">
<title>CIN7138</title>
<g id="a_node14"><a xlink:title="Busca identificar a perspectiva histórico/social da Ciência da Informação no mundo e no Brasil. Compreender os aportes teóricos e seus pioneiros. Inserção da Ciência da Informação nas Ciências Sociais Aplicadas segundo seu objeto de estudo, suas teorias e sua interdisciplinaridade.">
<polygon fill="#ffffb3" stroke="#ffffb3" points="283.27,-289.5 182.47,-289.5 182.47,-202.5 283.27,-202.5 283.27,-289.5"/>
<text text-anchor="middle" x="232.88" y="-272.2" font-family="Arial" font-size="14.00">CIN7138</text>
<text text-anchor="middle" x="232.88" y="-240.45" font-family="Arial" font-size="14.00">Introdução à</text>
<text text-anchor="middle" x="232.88" y="-224.7" font-family="Arial" font-size="14.00">Ciência da</text>
<text text-anchor="middle" x="232.88" y="-208.95" font-family="Arial" font-size="14.00">Informação</text>
</a>
</g>
</g>
<!-- ANT7101&#45;&gt;CIN7138 -->
<!-- FIL7201 -->
<g id="node15" class="node">
<title>FIL7201</title>
<polygon fill="#fb8072" stroke="#fb8072" points="283.27,-362.75 182.47,-362.75 182.47,-307.25 283.27,-307.25 283.27,-362.75"/>
<text text-anchor="middle" x="232.88" y="-345.45" font-family="Arial" font-size="14.00">FIL7201</text>
<text text-anchor="middle" x="232.88" y="-313.7" font-family="Arial" font-size="14.00">Filosofia</text>
</g>
<!-- ANT7101&#45;&gt;FIL7201 -->
<!-- HST7900 -->
<g id="node16" class="node">
<title>HST7900</title>
<g id="a_node16"><a xlink:title="Discussão introdutória sobre a construção do conhecimento histórico através do estudo das fontes, da discussão bibliográfica e da forma da narrativa.">
<polygon fill="#8dd3c7" stroke="#8dd3c7" points="296,-184.75 169.75,-184.75 169.75,-129.25 296,-129.25 296,-184.75"/>
<text text-anchor="middle" x="232.88" y="-167.45" font-family="Arial" font-size="14.00">HST7900</text>
<text text-anchor="middle" x="232.88" y="-135.7" font-family="Arial" font-size="14.00">Memória e Museu</text>
</a>
</g>
</g>
<!-- ANT7101&#45;&gt;HST7900 -->
<!-- MUS7203 -->
<g id="node17" class="node">
<title>MUS7203</title>
<g id="a_node17"><a xlink:title="A formação da teoria museológica e seus diferentes caminhos epistemológicos no século XX. Museologia e interdisciplinaridade. Fato museal. Processos de musealização. Patrimonialização. O olhar museológico sobre a realidade.">
<polygon fill="#80b1d3" stroke="#80b1d3" points="283.27,-451.62 182.47,-451.62 182.47,-380.38 283.27,-380.38 283.27,-451.62"/>
<text text-anchor="middle" x="232.88" y="-434.32" font-family="Arial" font-size="14.00">MUS7203</text>
<text text-anchor="middle" x="232.88" y="-402.57" font-family="Arial" font-size="14.00">Teoria</text>
<text text-anchor="middle" x="232.88" y="-386.82" font-family="Arial" font-size="14.00">Museológica</text>
</a>
</g>
</g>
<!-- ANT7101&#45;&gt;MUS7203 -->
<!-- MUS7105 -->
<g id="node10" class="node">
<title>MUS7105</title>
<g id="a_node10"><a xlink:title="Metodologia, métodos e teorias do conhecimento; universidade e sociedade; redação de textos científicos: resumos, resenhas e fichamento; normas técnicas; ética e pesquisa científica.">
<polygon fill="#80b1d3" stroke="#80b1d3" points="129.28,-552.62 28.48,-552.62 28.48,-481.38 129.28,-481.38 129.28,-552.62"/>
<text text-anchor="middle" x="78.88" y="-535.33" font-family="Arial" font-size="14.00">MUS7105</text>
<text text-anchor="middle" x="78.88" y="-503.57" font-family="Arial" font-size="14.00">Metodologia</text>
<text text-anchor="middle" x="78.88" y="-487.82" font-family="Arial" font-size="14.00">Científica</text>
</a>
</g>
</g>
<!-- MUS7702 -->
<g id="node36" class="node">
<title>MUS7702</title>
<g id="a_node36"><a xlink:title="Pesquisa aplicada à Museologia. Código de Ética para museus e a Pesquisa Museológica. Elaboração do projeto do Trabalho de Conclusão do Curso.">
<polygon fill="#80b1d3" stroke="#80b1d3" points="1050.25,-530.62 941.25,-530.62 941.25,-459.38 1050.25,-459.38 1050.25,-530.62"/>
<text text-anchor="middle" x="995.75" y="-513.33" font-family="Arial" font-size="14.00">MUS7702</text>
<text text-anchor="middle" x="995.75" y="-481.57" font-family="Arial" font-size="14.00">Metodologia da</text>
<text text-anchor="middle" x="995.75" y="-465.82" font-family="Arial" font-size="14.00">Pesquisa</text>
</a>
</g>
</g>
<!-- MUS7105&#45;&gt;MUS7702 -->
<g id="edge16" class="edge">
<title>MUS7105&#45;&gt;MUS7702</title>
<path fill="none" stroke="#80b1d3" stroke-width="2" d="M79.5,-552.99C79.5,-569.62 79.5,-585.75 79.5,-585.75 79.5,-585.75 996.5,-585.75 996.5,-585.75 996.5,-585.75 996.5,-533.37 996.5,-533.37"/>
<polygon fill="#80b1d3" stroke="#80b1d3" stroke-width="2" points="994,-531.87 999,-531.87 999,-532.87 994,-532.87 994,-531.87"/>
<polyline fill="none" stroke="#80b1d3" stroke-width="2" points="996.5,-531.37 996.5,-533.87"/>
</g>
<!-- MUS7912 -->
<g id="node11" class="node">
<title>MUS7912</title>
<g id="a_node11"><a xlink:title="A formação sócio&#45;histórica do museu moderno. Ciência, modernidade e colonialidade. A Museologia como um campo do conhecimento. Desenvolvimento do conceito de museu. Tipologias de Museus.">
<polygon fill="#80b1d3" stroke="#80b1d3" points="129.28,-463.62 28.48,-463.62 28.48,-392.38 129.28,-392.38 129.28,-463.62"/>
<text text-anchor="middle" x="78.88" y="-446.32" font-family="Arial" font-size="14.00">MUS7912</text>
<text text-anchor="middle" x="78.88" y="-414.57" font-family="Arial" font-size="14.00">Introdução a</text>
<text text-anchor="middle" x="78.88" y="-398.82" font-family="Arial" font-size="14.00">Museologia</text>
</a>
</g>
</g>
<!-- MUS7912&#45;&gt;MUS7203 -->
<g id="edge8" class="edge">
<title>MUS7912&#45;&gt;MUS7203</title>
<path fill="none" stroke="#80b1d3" stroke-width="2" d="M129.73,-422C129.73,-422 179.58,-422 179.58,-422"/>
<polygon fill="#80b1d3" stroke="#80b1d3" stroke-width="2" points="181.08,-419.5 181.08,-424.5 180.08,-424.5 180.08,-419.5 181.08,-419.5"/>
<polyline fill="none" stroke="#80b1d3" stroke-width="2" points="181.58,-422 179.08,-422"/>
</g>
<!-- MUS7305 -->
<g id="node21" class="node">
<title>MUS7305</title>
<g id="a_node21"><a xlink:title="Teoria museológica e a contemporaneidade. Identidade e Memória. Nova Museologia e Museologia Social. Museus, biodiversidade e sustentabilidade sócio&#45; ambiental. Direitos Humanos. Acessibilidades. Museologia e questões sociais. Experiências contemporâneas nacionais e internacionais no campo dos museus.">
<polygon fill="#80b1d3" stroke="#80b1d3" points="445.5,-566.5 332,-566.5 332,-479.5 445.5,-479.5 445.5,-566.5"/>
<text text-anchor="middle" x="388.75" y="-549.2" font-family="Arial" font-size="14.00">MUS7305</text>
<text text-anchor="middle" x="388.75" y="-517.45" font-family="Arial" font-size="14.00">Pensamento</text>
<text text-anchor="middle" x="388.75" y="-501.7" font-family="Arial" font-size="14.00">Contemporâneo</text>
<text text-anchor="middle" x="388.75" y="-485.95" font-family="Arial" font-size="14.00">em Museologia</text>
</a>
</g>
</g>
<!-- MUS7912&#45;&gt;MUS7305 -->
<g id="edge9" class="edge">
<title>MUS7912&#45;&gt;MUS7305</title>
<path fill="none" stroke="#80b1d3" stroke-width="2" d="M129.44,-456.5C139.22,-456.5 146.5,-456.5 146.5,-456.5 146.5,-456.5 146.5,-528.88 146.5,-528.88 146.5,-528.88 329.15,-528.88 329.15,-528.88"/>
<polygon fill="#80b1d3" stroke="#80b1d3" stroke-width="2" points="330.65,-526.38 330.65,-531.38 329.65,-531.38 329.65,-526.38 330.65,-526.38"/>
<polyline fill="none" stroke="#80b1d3" stroke-width="2" points="331.15,-528.88 328.65,-528.88"/>
</g>
<!-- SPO7106 -->
<g id="node12" class="node">
<title>SPO7106</title>
<g id="a_node12"><a xlink:title="Origens e definição de Sociologia. As correntes clássicas: Marx, Durkheim e Weber. Estratificação Social. A reflexão sociológica sobre as transformações da modernidade: globalização, segunda modernidade, pós&#45;modernidade, sociedade informacional e de redes e outras abordagens. As transformações sociais do Brasil contemporâneo: globalização, democracia, reforma do Estado, cultura e movimentos sociais.">
<polygon fill="#fdb462" stroke="#fdb462" points="129.28,-253.75 28.48,-253.75 28.48,-198.25 129.28,-198.25 129.28,-253.75"/>
<text text-anchor="middle" x="78.88" y="-236.45" font-family="Arial" font-size="14.00">SPO7106</text>
<text text-anchor="middle" x="78.88" y="-204.7" font-family="Arial" font-size="14.00">Sociologia</text>
</a>
</g>
</g>
<!-- MUS7306 -->
<g id="node22" class="node">
<title>MUS7306</title>
<g id="a_node22"><a xlink:title="Informação e processos informacionais. Comunicação e Sociedade. Informação nos Museus. Comunicação em Museus. Informação, Indústria Cultural. Exposições e discursos.">
<polygon fill="#80b1d3" stroke="#80b1d3" points="439.15,-146.62 338.35,-146.62 338.35,-75.38 439.15,-75.38 439.15,-146.62"/>
<text text-anchor="middle" x="388.75" y="-129.32" font-family="Arial" font-size="14.00">MUS7306</text>
<text text-anchor="middle" x="388.75" y="-97.58" font-family="Arial" font-size="14.00">Comunicação</text>
<text text-anchor="middle" x="388.75" y="-81.83" font-family="Arial" font-size="14.00">Museológica</text>
</a>
</g>
</g>
<!-- CIN7138&#45;&gt;MUS7306 -->
<g id="edge10" class="edge">
<title>CIN7138&#45;&gt;MUS7306</title>
<path fill="none" stroke="#80b1d3" stroke-width="2" d="M283.71,-218.83C295.92,-218.83 305.5,-218.83 305.5,-218.83 305.5,-218.83 305.5,-135.04 305.5,-135.04 305.5,-135.04 335.43,-135.04 335.43,-135.04"/>
<polygon fill="#80b1d3" stroke="#80b1d3" stroke-width="2" points="336.92,-132.54 336.93,-137.54 335.93,-137.54 335.92,-132.54 336.92,-132.54"/>
<polyline fill="none" stroke="#80b1d3" stroke-width="2" points="337.43,-135.04 334.93,-135.04"/>
</g>
<!-- MUS7910 -->
<g id="node25" class="node">
<title>MUS7910</title>
<g id="a_node25"><a xlink:title="Discussão teórico&#45;prática acerca das atividades que envolvem os processos de documentação museológica ligado ao campo do Patrimônio, tais como: Registro; Catalogação; Classificação; Processamento e informação de acervos. Indexação de Acervos. Documento e Documentação em espaços museológicos. Organização e Representação da Informação e do Conhecimento. Gestão e Política de Acervos. Padrões Internacionais da Museologia. Indexação de Acervos. Termos e Conceitos: tesauros e vocabulários controlados. Processamento técnico em laboratório: Arrolamento; Inventário; Ficha de Catalogação; Descrição de Acervos; Numeração e Marcação de Acervos.">
<polygon fill="#80b1d3" stroke="#80b1d3" points="597.25,-107.62 489.75,-107.62 489.75,-36.38 597.25,-36.38 597.25,-107.62"/>
<text text-anchor="middle" x="543.5" y="-90.33" font-family="Arial" font-size="14.00">MUS7910</text>
<text text-anchor="middle" x="543.5" y="-58.58" font-family="Arial" font-size="14.00">Documentação</text>
<text text-anchor="middle" x="543.5" y="-42.83" font-family="Arial" font-size="14.00">Museológica</text>
</a>
</g>
</g>
<!-- CIN7138&#45;&gt;MUS7910 -->
<g id="edge12" class="edge">
<title>CIN7138&#45;&gt;MUS7910</title>
<path fill="none" stroke="#80b1d3" stroke-width="2" d="M283.58,-257.46C348.17,-257.46 451.5,-257.46 451.5,-257.46 451.5,-257.46 451.5,-96.88 451.5,-96.88 451.5,-96.88 486.95,-96.88 486.95,-96.88"/>
<polygon fill="#80b1d3" stroke="#80b1d3" stroke-width="2" points="488.45,-94.38 488.45,-99.38 487.45,-99.38 487.45,-94.38 488.45,-94.38"/>
<polyline fill="none" stroke="#80b1d3" stroke-width="2" points="488.95,-96.88 486.45,-96.88"/>
</g>
<!-- GCN7950 -->
<g id="node18" class="node">
<title>GCN7950</title>
<polygon fill="#80b1d3" stroke="#80b1d3" points="440.25,-251.5 337.25,-251.5 337.25,-164.5 440.25,-164.5 440.25,-251.5"/>
<text text-anchor="middle" x="388.75" y="-234.2" font-family="Arial" font-size="14.00">GCN7950</text>
<text text-anchor="middle" x="388.75" y="-202.45" font-family="Arial" font-size="14.00">Biogeografia e</text>
<text text-anchor="middle" x="388.75" y="-186.7" font-family="Arial" font-size="14.00">Patrimônio</text>
<text text-anchor="middle" x="388.75" y="-170.95" font-family="Arial" font-size="14.00">Natural</text>
</g>
<!-- MUS7203&#45;&gt;GCN7950 -->
<!-- HST7305 -->
<g id="node19" class="node">
<title>HST7305</title>
<polygon fill="#8dd3c7" stroke="#8dd3c7" points="439.15,-340.62 338.35,-340.62 338.35,-269.38 439.15,-269.38 439.15,-340.62"/>
<text text-anchor="middle" x="388.75" y="-323.32" font-family="Arial" font-size="14.00">HST7305</text>
<text text-anchor="middle" x="388.75" y="-291.57" font-family="Arial" font-size="14.00">História da</text>
<text text-anchor="middle" x="388.75" y="-275.82" font-family="Arial" font-size="14.00">Arte I</text>
</g>
<!-- MUS7203&#45;&gt;HST7305 -->
<!-- HST7928 -->
<g id="node20" class="node">
<title>HST7928</title>
<polygon fill="#8dd3c7" stroke="#8dd3c7" points="439.88,-461.38 337.62,-461.38 337.62,-358.62 439.88,-358.62 439.88,-461.38"/>
<text text-anchor="middle" x="388.75" y="-444.07" font-family="Arial" font-size="14.00">HST7928</text>
<text text-anchor="middle" x="388.75" y="-412.32" font-family="Arial" font-size="14.00">Acervos como</text>
<text text-anchor="middle" x="388.75" y="-396.57" font-family="Arial" font-size="14.00">fonte e objeto</text>
<text text-anchor="middle" x="388.75" y="-380.82" font-family="Arial" font-size="14.00">da pesquisa</text>
<text text-anchor="middle" x="388.75" y="-365.07" font-family="Arial" font-size="14.00">histórica</text>
</g>
<!-- MUS7203&#45;&gt;HST7928 -->
<!-- MUS7203&#45;&gt;MUS7305 -->
<!-- MUS7203&#45;&gt;MUS7306 -->
<!-- MUS7801 -->
<g id="node38" class="node">
<title>MUS7801</title>
<g id="a_node38"><a xlink:title="Estágio curricular supervisionado por um professor que ministre aulas no Curso de Graduação em Museologia e por um profissional da instituição museológica concedente do estágio, constando de atividades em áreas de atuação compatíveis com as atribuições dos profissionais museólogos e do campo da Museologia.">
<polygon fill="#80b1d3" stroke="#80b1d3" points="1196.78,-300.5 1095.97,-300.5 1095.97,-213.5 1196.78,-213.5 1196.78,-300.5"/>
<text text-anchor="middle" x="1146.38" y="-283.2" font-family="Arial" font-size="14.00">MUS7801</text>
<text text-anchor="middle" x="1146.38" y="-251.45" font-family="Arial" font-size="14.00">Estágio</text>
<text text-anchor="middle" x="1146.38" y="-235.7" font-family="Arial" font-size="14.00">Curricular</text>
<text text-anchor="middle" x="1146.38" y="-219.95" font-family="Arial" font-size="14.00">Obrigatório</text>
</a>
</g>
</g>
<!-- MUS7203&#45;&gt;MUS7801 -->
<g id="edge21" class="edge">
<title>MUS7203&#45;&gt;MUS7801</title>
<path fill="none" stroke="#80b1d3" stroke-width="2" d="M250.5,-451.82C250.5,-462.57 250.5,-471.56 250.5,-471.56 250.5,-471.56 457.5,-471.56 457.5,-471.56 457.5,-471.56 457.5,-235.12 457.5,-235.12 457.5,-235.12 1093.22,-235.12 1093.22,-235.12"/>
<polygon fill="#80b1d3" stroke="#80b1d3" stroke-width="2" points="1094.72,-232.63 1094.72,-237.63 1093.72,-237.63 1093.72,-232.63 1094.72,-232.63"/>
<polyline fill="none" stroke="#80b1d3" stroke-width="2" points="1095.22,-235.13 1092.72,-235.13"/>
</g>
<!-- HST7405 -->
<g id="node23" class="node">
<title>HST7405</title>
<g id="a_node23"><a xlink:title="Estudo das diversas manifestações artístico&#45;culturais na América Latina, do período colonial à contemporaneidade. Influência das matrizes ibéricas, indígenas e africanas na formação artístico&#45;cultural brasileira: manifestações culturais e artísticas do movimento modernista brasileiro até a contemporaneidade.">
<polygon fill="#8dd3c7" stroke="#8dd3c7" points="593.9,-390.62 493.1,-390.62 493.1,-319.38 593.9,-319.38 593.9,-390.62"/>
<text text-anchor="middle" x="543.5" y="-373.32" font-family="Arial" font-size="14.00">HST7405</text>
<text text-anchor="middle" x="543.5" y="-341.57" font-family="Arial" font-size="14.00">História da</text>
<text text-anchor="middle" x="543.5" y="-325.82" font-family="Arial" font-size="14.00">Arte II</text>
</a>
</g>
</g>
<!-- HST7305&#45;&gt;HST7405 -->
<g id="edge11" class="edge">
<title>HST7305&#45;&gt;HST7405</title>
<path fill="none" stroke="#8dd3c7" stroke-width="2" d="M439.42,-333.54C439.42,-333.54 490.22,-333.54 490.22,-333.54"/>
<polygon fill="#8dd3c7" stroke="#8dd3c7" stroke-width="2" points="491.72,-331.04 491.72,-336.04 490.72,-336.04 490.72,-331.04 491.72,-331.04"/>
<polyline fill="none" stroke="#8dd3c7" stroke-width="2" points="492.22,-333.54 489.72,-333.54"/>
</g>
<!-- MUS7305&#45;&gt;MUS7801 -->
<g id="edge22" class="edge">
<title>MUS7305&#45;&gt;MUS7801</title>
<path fill="none" stroke="#80b1d3" stroke-width="2" d="M445.79,-503C456.02,-503 463.5,-503 463.5,-503 463.5,-503 463.5,-238.5 463.5,-238.5 463.5,-238.5 1093.11,-238.5 1093.11,-238.5"/>
<polygon fill="#80b1d3" stroke="#80b1d3" stroke-width="2" points="1094.61,-236 1094.61,-241 1093.61,-241 1093.61,-236 1094.61,-236"/>
<polyline fill="none" stroke="#80b1d3" stroke-width="2" points="1095.11,-238.5 1092.61,-238.5"/>
</g>
<!-- MUS7306&#45;&gt;HST7405 -->
<!-- MUS7403 -->
<g id="node24" class="node">
<title>MUS7403</title>
<g id="a_node24"><a xlink:title="Histórico da preservação; Conceitos de preservação, conservação preventiva e conservação curativa; Legislação, cartas e recomendações nacionais e internacionais sobre preservação de bens culturais; Prevenção e segurança nos Museus; Ética profissional na conservação/restauro.">
<polygon fill="#80b1d3" stroke="#80b1d3" points="600.62,-228.38 486.38,-228.38 486.38,-125.62 600.62,-125.62 600.62,-228.38"/>
<text text-anchor="middle" x="543.5" y="-211.07" font-family="Arial" font-size="14.00">MUS7403</text>
<text text-anchor="middle" x="543.5" y="-179.32" font-family="Arial" font-size="14.00">Preservação e</text>
<text text-anchor="middle" x="543.5" y="-163.57" font-family="Arial" font-size="14.00">Conservação de</text>
<text text-anchor="middle" x="543.5" y="-147.82" font-family="Arial" font-size="14.00">Bens Culturais</text>
<text text-anchor="middle" x="543.5" y="-132.07" font-family="Arial" font-size="14.00">I</text>
</a>
</g>
</g>
<!-- MUS7306&#45;&gt;MUS7403 -->
<!-- MUS7306&#45;&gt;MUS7910 -->
<!-- MUS7922 -->
<g id="node26" class="node">
<title>MUS7922</title>
<g id="a_node26"><a xlink:title="Educação museal: conceitos e métodos. Os projetos político, poético e pedagógico. A função educacional dos museus. Educação para o patrimônio e educação museal: diálogos possíveis. A interação e a mediação na pedagogia museal. Metas, estratégia e objetivos da educação museal. Projeto pedagógico nos museus: aspectos da pedagogia museal. Interdisciplinaridade, transdisciplinaridade e multidisciplinaridade no pensamento educativo&#45;museal.">
<polygon fill="#80b1d3" stroke="#80b1d3" points="605.5,-301.75 481.5,-301.75 481.5,-246.25 605.5,-246.25 605.5,-301.75"/>
<text text-anchor="middle" x="543.5" y="-284.45" font-family="Arial" font-size="14.00">MUS7922</text>
<text text-anchor="middle" x="543.5" y="-252.7" font-family="Arial" font-size="14.00">Educação Museal</text>
</a>
</g>
</g>
<!-- MUS7306&#45;&gt;MUS7922 -->
<!-- MUS7505 -->
<g id="node30" class="node">
<title>MUS7505</title>
<g id="a_node30"><a xlink:title="Materiais e Métodos em conservação preventiva; Acervos orgânicos e inorgânicos; Tipologia de materiais que compõem acervos; Ambiente; Edificação; Mobiliário; Manuseio; Embalagem; Transporte; Reservas Técnicas e Exposição; Diagnóstico e Descrição do estado de conservação.">
<polygon fill="#80b1d3" stroke="#80b1d3" points="755.75,-138.38 641.5,-138.38 641.5,-35.63 755.75,-35.63 755.75,-138.38"/>
<text text-anchor="middle" x="698.62" y="-121.08" font-family="Arial" font-size="14.00">MUS7505</text>
<text text-anchor="middle" x="698.62" y="-89.33" font-family="Arial" font-size="14.00">Preservação e</text>
<text text-anchor="middle" x="698.62" y="-73.58" font-family="Arial" font-size="14.00">Conservação de</text>
<text text-anchor="middle" x="698.62" y="-57.83" font-family="Arial" font-size="14.00">Bens Culturais</text>
<text text-anchor="middle" x="698.62" y="-42.08" font-family="Arial" font-size="14.00">II</text>
</a>
</g>
</g>
<!-- MUS7403&#45;&gt;MUS7505 -->
<g id="edge13" class="edge">
<title>MUS7403&#45;&gt;MUS7505</title>
<path fill="none" stroke="#80b1d3" stroke-width="2" d="M600.82,-129.88C600.82,-129.88 638.52,-129.88 638.52,-129.88"/>
<polygon fill="#80b1d3" stroke="#80b1d3" stroke-width="2" points="640.02,-127.38 640.02,-132.38 639.02,-132.38 639.02,-127.38 640.02,-127.38"/>
<polyline fill="none" stroke="#80b1d3" stroke-width="2" points="640.52,-129.88 638.02,-129.88"/>
</g>
<!-- ANT7014 -->
<g id="node27" class="node">
<title>ANT7014</title>
<g id="a_node27"><a xlink:title="A arte como objeto de estudo antropológico: etnoestética, etnomusicologia, etnocoreologia e outros e sub&#45;campos da área. Arte como código sócio&#45;cultural: principais tendências teórico&#45;metodológicas. Arte e artisticidade. Arte e agência. Artes populares, eruditas, folclóricas e indígenas. Etnografias clássicas, modernas e recentes sobre a arte. Estudos recentes no Brasil.">
<polygon fill="#8dd3c7" stroke="#8dd3c7" points="753.88,-227.62 643.38,-227.62 643.38,-156.38 753.88,-156.38 753.88,-227.62"/>
<text text-anchor="middle" x="698.62" y="-210.32" font-family="Arial" font-size="14.00">ANT7014</text>
<text text-anchor="middle" x="698.62" y="-178.57" font-family="Arial" font-size="14.00">Antropologia da</text>
<text text-anchor="middle" x="698.62" y="-162.82" font-family="Arial" font-size="14.00">Arte</text>
</a>
</g>
</g>
<!-- MUS7922&#45;&gt;ANT7014 -->
<!-- HST5838 -->
<g id="node28" class="node">
<title>HST5838</title>
<g id="a_node28"><a xlink:title="Arqueologia brasileira. Natureza e objetivos da Arqueologia. Sítios arqueológicos brasileiros e evidenciação das estruturas arqueológicas. Populações pré&#45; históricas do Brasil.">
<polygon fill="#8dd3c7" stroke="#8dd3c7" points="754.25,-526.5 643,-526.5 643,-439.5 754.25,-439.5 754.25,-526.5"/>
<text text-anchor="middle" x="698.62" y="-509.2" font-family="Arial" font-size="14.00">HST5838</text>
<text text-anchor="middle" x="698.62" y="-477.45" font-family="Arial" font-size="14.00">Tópico Especial</text>
<text text-anchor="middle" x="698.62" y="-461.7" font-family="Arial" font-size="14.00">&#45; Introdução á</text>
<text text-anchor="middle" x="698.62" y="-445.95" font-family="Arial" font-size="14.00">Arqueologia</text>
</a>
</g>
</g>
<!-- MUS7922&#45;&gt;HST5838 -->
<!-- HST7403 -->
<g id="node29" class="node">
<title>HST7403</title>
<g id="a_node29"><a xlink:title="Estudo da trajetória histórica dos países da América de colonização espanhola, francesa e inglesa a partir dos processos de independência e as formas de abordagens didático&#45;pedagógicas.">
<polygon fill="#8dd3c7" stroke="#8dd3c7" points="749.02,-421.38 648.23,-421.38 648.23,-318.62 749.02,-318.62 749.02,-421.38"/>
<text text-anchor="middle" x="698.62" y="-404.07" font-family="Arial" font-size="14.00">HST7403</text>
<text text-anchor="middle" x="698.62" y="-372.32" font-family="Arial" font-size="14.00">História da</text>
<text text-anchor="middle" x="698.62" y="-356.57" font-family="Arial" font-size="14.00">América</text>
<text text-anchor="middle" x="698.62" y="-340.82" font-family="Arial" font-size="14.00">Independente</text>
<text text-anchor="middle" x="698.62" y="-325.07" font-family="Arial" font-size="14.00">(PCC 12h&#45;a)</text>
</a>
</g>
</g>
<!-- MUS7922&#45;&gt;HST7403 -->
<!-- MUS7922&#45;&gt;MUS7505 -->
<!-- MUS7506 -->
<g id="node31" class="node">
<title>MUS7506</title>
<g id="a_node31"><a xlink:title="Exposição como meio de comunicação. Discurso Expositivo. Teorias da Percepção e objetos museológicos. Tipologias de Exposição. Planejamento de exposições. Fundamentação teórica de projeto expositivo.">
<polygon fill="#80b1d3" stroke="#80b1d3" points="749.02,-300.75 648.23,-300.75 648.23,-245.25 749.02,-245.25 749.02,-300.75"/>
<text text-anchor="middle" x="698.62" y="-283.45" font-family="Arial" font-size="14.00">MUS7506</text>
<text text-anchor="middle" x="698.62" y="-251.7" font-family="Arial" font-size="14.00">Expografia I</text>
</a>
</g>
</g>
<!-- MUS7922&#45;&gt;MUS7506 -->
<!-- MUS7913 -->
<g id="node33" class="node">
<title>MUS7913</title>
<g id="a_node33"><a xlink:title="Direito de memória: fruição, interatividade, acessibilidades e outras demandas. O programa educativo no Plano Museológico. A ação cultural e educativa: pressupostos teórico&#45;metodológicos. Ação Educativa e avaliação. Elaboração de projeto educativo para exposição curricular.">
<polygon fill="#80b1d3" stroke="#80b1d3" points="902.62,-457.38 794.38,-457.38 794.38,-354.62 902.62,-354.62 902.62,-457.38"/>
<text text-anchor="middle" x="848.5" y="-440.07" font-family="Arial" font-size="14.00">MUS7913</text>
<text text-anchor="middle" x="848.5" y="-408.32" font-family="Arial" font-size="14.00">Ação Cultural e</text>
<text text-anchor="middle" x="848.5" y="-392.57" font-family="Arial" font-size="14.00">Educativa em</text>
<text text-anchor="middle" x="848.5" y="-376.82" font-family="Arial" font-size="14.00">Espaços</text>
<text text-anchor="middle" x="848.5" y="-361.07" font-family="Arial" font-size="14.00">Museológicos</text>
</a>
</g>
</g>
<!-- MUS7922&#45;&gt;MUS7913 -->
<g id="edge14" class="edge">
<title>MUS7922&#45;&gt;MUS7913</title>
<path fill="none" stroke="#80b1d3" stroke-width="2" d="M600.5,-301.97C600.5,-346.96 600.5,-430.44 600.5,-430.44 600.5,-430.44 791.58,-430.44 791.58,-430.44"/>
<polygon fill="#80b1d3" stroke="#80b1d3" stroke-width="2" points="793.08,-427.94 793.08,-432.94 792.08,-432.94 792.08,-427.94 793.08,-427.94"/>
<polyline fill="none" stroke="#80b1d3" stroke-width="2" points="793.58,-430.44 791.08,-430.44"/>
</g>
<!-- MUS7505&#45;&gt;MUS7801 -->
<g id="edge23" class="edge">
<title>MUS7505&#45;&gt;MUS7801</title>
<path fill="none" stroke="#80b1d3" stroke-width="2" d="M755.8,-87C876.55,-87 1146.5,-87 1146.5,-87 1146.5,-87 1146.5,-210.72 1146.5,-210.72"/>
<polygon fill="#80b1d3" stroke="#80b1d3" stroke-width="2" points="1149,-212.22 1144,-212.22 1144,-211.22 1149,-211.22 1149,-212.22"/>
<polyline fill="none" stroke="#80b1d3" stroke-width="2" points="1146.5,-212.72 1146.5,-210.22"/>
</g>
<!-- HST7604 -->
<g id="node32" class="node">
<title>HST7604</title>
<polygon fill="#8dd3c7" stroke="#8dd3c7" points="905.25,-336.5 791.75,-336.5 791.75,-249.5 905.25,-249.5 905.25,-336.5"/>
<text text-anchor="middle" x="848.5" y="-319.2" font-family="Arial" font-size="14.00">HST7604</text>
<text text-anchor="middle" x="848.5" y="-287.45" font-family="Arial" font-size="14.00">História do</text>
<text text-anchor="middle" x="848.5" y="-271.7" font-family="Arial" font-size="14.00">Brasil</text>
<text text-anchor="middle" x="848.5" y="-255.95" font-family="Arial" font-size="14.00">Contemporâneo</text>
</g>
<!-- MUS7506&#45;&gt;HST7604 -->
<!-- MUS7506&#45;&gt;MUS7913 -->
<!-- MUS7921 -->
<g id="node34" class="node">
<title>MUS7921</title>
<g id="a_node34"><a xlink:title="Planejamento de exposições. Projeto Expositivo. Expografia e Público. Estudo de elementos expositivos: Desenho de exposições, espaço e organização, iluminação, circulação, estudos de cor, textos e elementos auxiliares, materiais. Divulgação de Exposições. Cronograma e Orçamento.">
<polygon fill="#80b1d3" stroke="#80b1d3" points="898.9,-231.75 798.1,-231.75 798.1,-176.25 898.9,-176.25 898.9,-231.75"/>
<text text-anchor="middle" x="848.5" y="-214.45" font-family="Arial" font-size="14.00">MUS7921</text>
<text text-anchor="middle" x="848.5" y="-182.7" font-family="Arial" font-size="14.00">Expografia II</text>
</a>
</g>
</g>
<!-- MUS7506&#45;&gt;MUS7921 -->
<g id="edge15" class="edge">
<title>MUS7506&#45;&gt;MUS7921</title>
<path fill="none" stroke="#80b1d3" stroke-width="2" d="M749.47,-258.04C764.73,-258.04 777.5,-258.04 777.5,-258.04 777.5,-258.04 777.5,-193.38 777.5,-193.38 777.5,-193.38 795.16,-193.38 795.16,-193.38"/>
<polygon fill="#80b1d3" stroke="#80b1d3" stroke-width="2" points="796.66,-190.88 796.66,-195.88 795.66,-195.88 795.66,-190.88 796.66,-190.88"/>
<polyline fill="none" stroke="#80b1d3" stroke-width="2" points="797.16,-193.38 794.66,-193.38"/>
</g>
<!-- MUS7506&#45;&gt;MUS7921 -->
<!-- MUS7923 -->
<g id="node35" class="node">
<title>MUS7923</title>
<g id="a_node35"><a xlink:title="Noções de gerenciamento de museus: composição de recursos humanos e financeiros, estruturação espacial e documental das coleções, fruição e comunicação; Reconhecimento de legislações nacionais e internancionais que regem as práticas museológicas aplicadas a acervos; Código de conduta ética dos profissionais de museus; Estudo e análise de planos e programas museológicos em instituições com natureza de museu, públicas e privadas.">
<polygon fill="#80b1d3" stroke="#80b1d3" points="898.9,-546.62 798.1,-546.62 798.1,-475.38 898.9,-475.38 898.9,-546.62"/>
<text text-anchor="middle" x="848.5" y="-529.33" font-family="Arial" font-size="14.00">MUS7923</text>
<text text-anchor="middle" x="848.5" y="-497.57" font-family="Arial" font-size="14.00">Gestão de</text>
<text text-anchor="middle" x="848.5" y="-481.82" font-family="Arial" font-size="14.00">Museus</text>
</a>
</g>
</g>
<!-- MUS7506&#45;&gt;MUS7923 -->
<!-- MUS7506&#45;&gt;MUS7801 -->
<g id="edge24" class="edge">
<title>MUS7506&#45;&gt;MUS7801</title>
<path fill="none" stroke="#80b1d3" stroke-width="2" d="M699.5,-245.21C699.5,-243.16 699.5,-241.88 699.5,-241.88 699.5,-241.88 1093.05,-241.88 1093.05,-241.88"/>
<polygon fill="#80b1d3" stroke="#80b1d3" stroke-width="2" points="1094.55,-239.38 1094.55,-244.38 1093.55,-244.38 1093.55,-239.38 1094.55,-239.38"/>
<polyline fill="none" stroke="#80b1d3" stroke-width="2" points="1095.05,-241.88 1092.55,-241.88"/>
</g>
<!-- MUS7911 -->
<g id="node37" class="node">
<title>MUS7911</title>
<g id="a_node37"><a xlink:title="Montagem, Desmontagem &#45; aplicando os projetos elaborados nas disciplinas Expografia II e Ação Cultural e Educativa em Espaços Museológicos &#45; e Avaliação &#45; de acordo com os projetos: Circulação, Guia de Montagem, Cronograma Geral, Segurança, Orçamento, Educativo, Acessibilidade, Avaliação, Paleta de Cores, Iluminação, Textos e Legendas, Divulgação e Inauguração &#45; de uma Exposição Museológica.">
<polygon fill="#80b1d3" stroke="#80b1d3" points="1046.15,-441.62 945.35,-441.62 945.35,-370.38 1046.15,-370.38 1046.15,-441.62"/>
<text text-anchor="middle" x="995.75" y="-424.32" font-family="Arial" font-size="14.00">MUS7911</text>
<text text-anchor="middle" x="995.75" y="-392.57" font-family="Arial" font-size="14.00">Prática de</text>
<text text-anchor="middle" x="995.75" y="-376.82" font-family="Arial" font-size="14.00">Exposição</text>
</a>
</g>
</g>
<!-- MUS7913&#45;&gt;MUS7911 -->
<g id="edge17" class="edge">
<title>MUS7913&#45;&gt;MUS7911</title>
<path fill="none" stroke="#80b1d3" stroke-width="2" d="M902.91,-388.19C902.91,-388.19 942.48,-388.19 942.48,-388.19"/>
<polygon fill="#80b1d3" stroke="#80b1d3" stroke-width="2" points="943.98,-385.69 943.98,-390.69 942.98,-390.69 942.98,-385.69 943.98,-385.69"/>
<polyline fill="none" stroke="#80b1d3" stroke-width="2" points="944.48,-388.19 941.98,-388.19"/>
</g>
<!-- MUS7913&#45;&gt;MUS7911 -->
<g id="edge19" class="edge">
<title>MUS7913&#45;&gt;MUS7911</title>
<path fill="none" stroke="#80b1d3" stroke-width="2" d="M902.91,-406C902.91,-406 942.48,-406 942.48,-406"/>
<polygon fill="#80b1d3" stroke="#80b1d3" stroke-width="2" points="943.98,-403.5 943.98,-408.5 942.98,-408.5 942.98,-403.5 943.98,-403.5"/>
<polyline fill="none" stroke="#80b1d3" stroke-width="2" points="944.48,-406 941.98,-406"/>
</g>
<!-- MUS7921&#45;&gt;MUS7911 -->
<g id="edge18" class="edge">
<title>MUS7921&#45;&gt;MUS7911</title>
<path fill="none" stroke="#80b1d3" stroke-width="2" d="M899.24,-225.67C933.12,-225.67 971.5,-225.67 971.5,-225.67 971.5,-225.67 971.5,-367.44 971.5,-367.44"/>
<polygon fill="#80b1d3" stroke="#80b1d3" stroke-width="2" points="974,-368.94 969,-368.94 969,-367.94 974,-367.94 974,-368.94"/>
<polyline fill="none" stroke="#80b1d3" stroke-width="2" points="971.5,-369.44 971.5,-366.94"/>
</g>
<!-- MUS7921&#45;&gt;MUS7911 -->
<g id="edge20" class="edge">
<title>MUS7921&#45;&gt;MUS7911</title>
<path fill="none" stroke="#80b1d3" stroke-width="2" d="M899.02,-219.58C941.89,-219.58 996.5,-219.58 996.5,-219.58 996.5,-219.58 996.5,-367.56 996.5,-367.56"/>
<polygon fill="#80b1d3" stroke="#80b1d3" stroke-width="2" points="999,-369.06 994,-369.06 994,-368.06 999,-368.06 999,-369.06"/>
<polyline fill="none" stroke="#80b1d3" stroke-width="2" points="996.5,-369.56 996.5,-367.06"/>
</g>
<!-- MUS7923&#45;&gt;MUS7702 -->
<!-- MUS7923&#45;&gt;MUS7911 -->
<!-- MUS7802 -->
<g id="node39" class="node">
<title>MUS7802</title>
<g id="a_node39"><a xlink:title="Desenvolvimento e apresentação de trabalho monográfico.">
<polygon fill="#fb8072" stroke="#fb8072" points="1196.78,-494.5 1095.97,-494.5 1095.97,-407.5 1196.78,-407.5 1196.78,-494.5"/>
<text text-anchor="middle" x="1146.38" y="-477.2" font-family="Arial" font-size="14.00">MUS7802</text>
<text text-anchor="middle" x="1146.38" y="-445.45" font-family="Arial" font-size="14.00">Trabalho de</text>
<text text-anchor="middle" x="1146.38" y="-429.7" font-family="Arial" font-size="14.00">Conclusão de</text>
<text text-anchor="middle" x="1146.38" y="-413.95" font-family="Arial" font-size="14.00">Curso</text>
</a>
</g>
</g>
<!-- MUS7702&#45;&gt;MUS7802 -->
<g id="edge25" class="edge">
<title>MUS7702&#45;&gt;MUS7802</title>
<path fill="none" stroke="#fb8072" stroke-width="2" d="M1050.56,-476.94C1050.56,-476.94 1093.37,-476.94 1093.37,-476.94"/>
<polygon fill="#fb8072" stroke="#fb8072" stroke-width="2" points="1094.87,-474.44 1094.87,-479.44 1093.87,-479.44 1093.87,-474.44 1094.87,-474.44"/>
<polyline fill="none" stroke="#fb8072" stroke-width="2" points="1095.37,-476.94 1092.87,-476.94"/>
</g>
<!-- MUS7911&#45;&gt;MUS7801 -->
<!-- MUS7911&#45;&gt;MUS7802 -->
<!-- MUS7900 -->
<g id="node40" class="node">
<title>MUS7900</title>
<polygon fill="#80b1d3" stroke="#80b1d3" points="1206.5,-389.62 1086.25,-389.62 1086.25,-318.38 1206.5,-318.38 1206.5,-389.62"/>
<text text-anchor="middle" x="1146.38" y="-372.32" font-family="Arial" font-size="14.00">MUS7900</text>
<text text-anchor="middle" x="1146.38" y="-340.57" font-family="Arial" font-size="14.00">Atividades</text>
<text text-anchor="middle" x="1146.38" y="-324.82" font-family="Arial" font-size="14.00">Complementares</text>
</g>
<!-- MUS7911&#45;&gt;MUS7900 -->
</g>
</svg>
