<?xml version="1.0" encoding="UTF-8" standalone="no"?>
<!DOCTYPE svg PUBLIC "-//W3C//DTD SVG 1.1//EN"
 "http://www.w3.org/Graphics/SVG/1.1/DTD/svg11.dtd">
<!-- Generated by graphviz version 9.0.0 (0)
 -->
<!-- Title: grafo_materias Pages: 1 -->
<svg width="1140pt" height="693pt"
 viewBox="0.00 0.00 1140.40 693.00" xmlns="http://www.w3.org/2000/svg" xmlns:xlink="http://www.w3.org/1999/xlink">
<g id="graph0" class="graph" transform="scale(1 1) rotate(0) translate(4 689)">
<title>grafo_materias</title>
<polygon fill="none" stroke="none" points="-4,4 -4,-689 1136.4,-689 1136.4,4 -4,4"/>
<g id="clust1" class="cluster">
<title>cluster_everything</title>
<polygon fill="none" stroke="none" points="8,-8 8,-677 1124.4,-677 1124.4,-8 8,-8"/>
</g>
<g id="clust2" class="cluster">
<title>cluster_header</title>
<polygon fill="none" stroke="none" points="17.1,-617 17.1,-669 1116.4,-669 1116.4,-617 17.1,-617"/>
</g>
<g id="clust3" class="cluster">
<title>cluster_0</title>
<polygon fill="none" stroke="none" points="16,-29 16,-609 135,-609 135,-29 16,-29"/>
</g>
<g id="clust4" class="cluster">
<title>cluster_1</title>
<polygon fill="none" stroke="none" points="155,-28 155,-535 271.8,-535 271.8,-28 155,-28"/>
</g>
<g id="clust5" class="cluster">
<title>cluster_2</title>
<polygon fill="none" stroke="none" points="291.8,-131 291.8,-575 416.8,-575 416.8,-131 291.8,-131"/>
</g>
<g id="clust6" class="cluster">
<title>cluster_3</title>
<polygon fill="none" stroke="none" points="436.8,-119 436.8,-595 555.05,-595 555.05,-119 436.8,-119"/>
</g>
<g id="clust7" class="cluster">
<title>cluster_4</title>
<polygon fill="none" stroke="none" points="575.05,-79 575.05,-497 693.3,-497 693.3,-79 575.05,-79"/>
</g>
<g id="clust8" class="cluster">
<title>cluster_5</title>
<polygon fill="none" stroke="none" points="713.3,-42 713.3,-419 842.8,-419 842.8,-42 713.3,-42"/>
</g>
<g id="clust9" class="cluster">
<title>cluster_6</title>
<polygon fill="none" stroke="none" points="862.8,-73 862.8,-282 979.6,-282 979.6,-73 862.8,-73"/>
</g>
<g id="clust10" class="cluster">
<title>cluster_7</title>
<polygon fill="none" stroke="none" points="999.6,-194 999.6,-266 1116.4,-266 1116.4,-194 999.6,-194"/>
</g>
<!-- 1ª Fase -->
<g id="node1" class="node">
<title>1ª Fase</title>
<polygon fill="lightgrey" stroke="black" points="125.9,-661 25.1,-661 25.1,-625 125.9,-625 125.9,-661"/>
<text text-anchor="middle" x="75.5" y="-637.58" font-family="Arial" font-size="14.00">1ª Fase</text>
</g>
<!-- 2ª Fase -->
<g id="node2" class="node">
<title>2ª Fase</title>
<polygon fill="lightgrey" stroke="black" points="263.8,-661 163,-661 163,-625 263.8,-625 263.8,-661"/>
<text text-anchor="middle" x="213.4" y="-637.58" font-family="Arial" font-size="14.00">2ª Fase</text>
</g>
<!-- 1ª Fase&#45;&gt;2ª Fase -->
<!-- 3ª Fase -->
<g id="node3" class="node">
<title>3ª Fase</title>
<polygon fill="lightgrey" stroke="black" points="404.7,-661 303.9,-661 303.9,-625 404.7,-625 404.7,-661"/>
<text text-anchor="middle" x="354.3" y="-637.58" font-family="Arial" font-size="14.00">3ª Fase</text>
</g>
<!-- 2ª Fase&#45;&gt;3ª Fase -->
<!-- 4ª Fase -->
<g id="node4" class="node">
<title>4ª Fase</title>
<polygon fill="lightgrey" stroke="black" points="546.33,-661 445.53,-661 445.53,-625 546.33,-625 546.33,-661"/>
<text text-anchor="middle" x="495.93" y="-637.58" font-family="Arial" font-size="14.00">4ª Fase</text>
</g>
<!-- 3ª Fase&#45;&gt;4ª Fase -->
<!-- 5ª Fase -->
<g id="node5" class="node">
<title>5ª Fase</title>
<polygon fill="lightgrey" stroke="black" points="684.58,-661 583.78,-661 583.78,-625 684.58,-625 684.58,-661"/>
<text text-anchor="middle" x="634.18" y="-637.58" font-family="Arial" font-size="14.00">5ª Fase</text>
</g>
<!-- 4ª Fase&#45;&gt;5ª Fase -->
<!-- 6ª Fase -->
<g id="node6" class="node">
<title>6ª Fase</title>
<polygon fill="lightgrey" stroke="black" points="828.45,-661 727.65,-661 727.65,-625 828.45,-625 828.45,-661"/>
<text text-anchor="middle" x="778.05" y="-637.58" font-family="Arial" font-size="14.00">6ª Fase</text>
</g>
<!-- 5ª Fase&#45;&gt;6ª Fase -->
<!-- 7ª Fase -->
<g id="node7" class="node">
<title>7ª Fase</title>
<polygon fill="lightgrey" stroke="black" points="971.6,-661 870.8,-661 870.8,-625 971.6,-625 971.6,-661"/>
<text text-anchor="middle" x="921.2" y="-637.58" font-family="Arial" font-size="14.00">7ª Fase</text>
</g>
<!-- 6ª Fase&#45;&gt;7ª Fase -->
<!-- 8ª Fase -->
<g id="node8" class="node">
<title>8ª Fase</title>
<polygon fill="lightgrey" stroke="black" points="1108.4,-661 1007.6,-661 1007.6,-625 1108.4,-625 1108.4,-661"/>
<text text-anchor="middle" x="1058" y="-637.58" font-family="Arial" font-size="14.00">8ª Fase</text>
</g>
<!-- 7ª Fase&#45;&gt;8ª Fase -->
<!-- CIN7003 -->
<g id="node9" class="node">
<title>CIN7003</title>
<g id="a_node9"><a xlink:title="Métodos e técnicas da Pesquisa Bibliográfica; identificação e uso das fontes de informação; estudo e aplicação das normas de documentação da ABNT.">
<polygon fill="#8dd3c7" stroke="#8dd3c7" points="125.9,-228.62 25.1,-228.62 25.1,-157.38 125.9,-157.38 125.9,-228.62"/>
<text text-anchor="middle" x="75.5" y="-211.32" font-family="Arial" font-size="14.00">CIN7003</text>
<text text-anchor="middle" x="75.5" y="-179.57" font-family="Arial" font-size="14.00">Pesquisa</text>
<text text-anchor="middle" x="75.5" y="-163.82" font-family="Arial" font-size="14.00">Bibliográfica</text>
</a>
</g>
</g>
<!-- CNM7220 -->
<g id="node15" class="node">
<title>CNM7220</title>
<g id="a_node15"><a xlink:title="Teoria e Políticas de Comércio Exterior, Globalização e Integração Econômica; Integração Latino&#45;Americana e Mercosul; Técnicas e Procedimentos em Comércio Exterior; Mercado de Câmbio, Balanço de Pagamentos; Financiamento das Exportações e Importações.">
<polygon fill="#80b1d3" stroke="#80b1d3" points="263.8,-227.62 163,-227.62 163,-156.38 263.8,-156.38 263.8,-227.62"/>
<text text-anchor="middle" x="213.4" y="-210.32" font-family="Arial" font-size="14.00">CNM7220</text>
<text text-anchor="middle" x="213.4" y="-178.57" font-family="Arial" font-size="14.00">Comércio</text>
<text text-anchor="middle" x="213.4" y="-162.82" font-family="Arial" font-size="14.00">Exterior</text>
</a>
</g>
</g>
<!-- CIN7003&#45;&gt;CNM7220 -->
<!-- CNM7221 -->
<g id="node16" class="node">
<title>CNM7221</title>
<g id="a_node16"><a xlink:title="O pensamento dos clássicos sobre relações internacionais: Tucídides, Maquiavel, Hobbes, Kant, Locke e Grotius. Os liberais&#45;internacionacionalistas e o problema da paz. A hegemonia do realismo no contexto da guerra fria. A Escola Inglesa. O debate metodológico e a constituição das Relações Internacionais como ciência social.">
<polygon fill="#80b1d3" stroke="#80b1d3" points="263.8,-348.38 163,-348.38 163,-245.62 263.8,-245.62 263.8,-348.38"/>
<text text-anchor="middle" x="213.4" y="-331.07" font-family="Arial" font-size="14.00">CNM7221</text>
<text text-anchor="middle" x="213.4" y="-299.32" font-family="Arial" font-size="14.00">Teoria das</text>
<text text-anchor="middle" x="213.4" y="-283.57" font-family="Arial" font-size="14.00">Relações</text>
<text text-anchor="middle" x="213.4" y="-267.82" font-family="Arial" font-size="14.00">Internacionais</text>
<text text-anchor="middle" x="213.4" y="-252.07" font-family="Arial" font-size="14.00">I</text>
</a>
</g>
</g>
<!-- CIN7003&#45;&gt;CNM7221 -->
<!-- DIR7101 -->
<g id="node17" class="node">
<title>DIR7101</title>
<g id="a_node17"><a xlink:title="Visão abrangente da nova sistemática jurídica imposta pela Universalização das relações econômicas. Conceito de Direito Econômico Internacional. Definição e validade da nova &#39;lex mercatoria&#39; . Direito da integração. O caso da União Européia e demais tentativas regionais, particularmente as desenvolvidas nas Américas, como o Mercosul e o Nafta.">
<polygon fill="#fdb462" stroke="#fdb462" points="263.8,-437.62 163,-437.62 163,-366.38 263.8,-366.38 263.8,-437.62"/>
<text text-anchor="middle" x="213.4" y="-420.32" font-family="Arial" font-size="14.00">DIR7101</text>
<text text-anchor="middle" x="213.4" y="-388.57" font-family="Arial" font-size="14.00">Direito</text>
<text text-anchor="middle" x="213.4" y="-372.82" font-family="Arial" font-size="14.00">Internacional I</text>
</a>
</g>
</g>
<!-- CIN7003&#45;&gt;DIR7101 -->
<!-- HST7112 -->
<g id="node18" class="node">
<title>HST7112</title>
<g id="a_node18"><a xlink:title="Exame da evolução das relações internacionais do Congresso de Viena, no início do século XIX. Imperialismo e neocolonialismo (1870 a 1914). A Primeira Guerra Mundial e o Tratado de Versalhes. O período entreguerras. A Segunda Guerra Mundial. O mundo bipolar: EUA e URSS. A atual situação de unipolaridade, no início do Século XXI.">
<polygon fill="#ffffb3" stroke="#ffffb3" points="263.8,-138.38 163,-138.38 163,-35.63 263.8,-35.63 263.8,-138.38"/>
<text text-anchor="middle" x="213.4" y="-121.08" font-family="Arial" font-size="14.00">HST7112</text>
<text text-anchor="middle" x="213.4" y="-89.33" font-family="Arial" font-size="14.00">História das</text>
<text text-anchor="middle" x="213.4" y="-73.58" font-family="Arial" font-size="14.00">Relações</text>
<text text-anchor="middle" x="213.4" y="-57.83" font-family="Arial" font-size="14.00">Internacionais</text>
<text text-anchor="middle" x="213.4" y="-42.08" font-family="Arial" font-size="14.00">II</text>
</a>
</g>
</g>
<!-- CIN7003&#45;&gt;HST7112 -->
<!-- INE7004 -->
<g id="node19" class="node">
<title>INE7004</title>
<g id="a_node19"><a xlink:title="Análise descritiva e exploratória de dados uni&#45;variados. Análise de dados bi&#45;variados: análise de correlação e de regressão linear simples. Análise de séries temporais. Tópicos especiais (de atualização na área). Uso de recursos informáticos e de Software Estatístico.">
<polygon fill="#8dd3c7" stroke="#8dd3c7" points="263.8,-526.62 163,-526.62 163,-455.38 263.8,-455.38 263.8,-526.62"/>
<text text-anchor="middle" x="213.4" y="-509.32" font-family="Arial" font-size="14.00">INE7004</text>
<text text-anchor="middle" x="213.4" y="-477.57" font-family="Arial" font-size="14.00">Introdução á</text>
<text text-anchor="middle" x="213.4" y="-461.82" font-family="Arial" font-size="14.00">Estatística</text>
</a>
</g>
</g>
<!-- CIN7003&#45;&gt;INE7004 -->
<!-- CNM7210 -->
<g id="node10" class="node">
<title>CNM7210</title>
<g id="a_node10"><a xlink:title="A natureza das relações internacionais: campo de estudo e características, o meio internacional. Principais correntes teóricas das relações internacionais. Atores internacionais e o poder. Formação da política externa. O sistema internacional e seus elementos estruturantes. Cenário internacional: evolução e desafios contemporâneos.">
<polygon fill="#80b1d3" stroke="#80b1d3" points="125.9,-600.5 25.1,-600.5 25.1,-513.5 125.9,-513.5 125.9,-600.5"/>
<text text-anchor="middle" x="75.5" y="-583.2" font-family="Arial" font-size="14.00">CNM7210</text>
<text text-anchor="middle" x="75.5" y="-551.45" font-family="Arial" font-size="14.00">Introdução às</text>
<text text-anchor="middle" x="75.5" y="-535.7" font-family="Arial" font-size="14.00">Relações</text>
<text text-anchor="middle" x="75.5" y="-519.95" font-family="Arial" font-size="14.00">Internacionais</text>
</a>
</g>
</g>
<!-- CNM7210&#45;&gt;CNM7221 -->
<g id="edge8" class="edge">
<title>CNM7210&#45;&gt;CNM7221</title>
<path fill="none" stroke="#80b1d3" stroke-width="2" d="M126.33,-520.06C132.9,-520.06 137.4,-520.06 137.4,-520.06 137.4,-520.06 137.4,-341.88 137.4,-341.88 137.4,-341.88 160.21,-341.88 160.21,-341.88"/>
<polygon fill="#80b1d3" stroke="#80b1d3" stroke-width="2" points="161.71,-339.38 161.71,-344.38 160.71,-344.38 160.71,-339.38 161.71,-339.38"/>
<polyline fill="none" stroke="#80b1d3" stroke-width="2" points="162.21,-341.88 159.71,-341.88"/>
</g>
<!-- CNM7236 -->
<g id="node25" class="node">
<title>CNM7236</title>
<g id="a_node25"><a xlink:title="Segurança internacional: definições e evolução do conceito. A bipolaridade e a segurança tradicional. Dissuasão nuclear. Papel do sistema de segurança coletiva na segurança internacional. Segurança internacional Pós&#45;Guerra Fria: conflitos, desafios, papel das forças armadas. O Brasil no contexto da segurança internacional. &#45;">
<polygon fill="#80b1d3" stroke="#80b1d3" points="546.33,-586.62 445.53,-586.62 445.53,-515.38 546.33,-515.38 546.33,-586.62"/>
<text text-anchor="middle" x="495.93" y="-569.33" font-family="Arial" font-size="14.00">CNM7236</text>
<text text-anchor="middle" x="495.93" y="-537.58" font-family="Arial" font-size="14.00">Segurança</text>
<text text-anchor="middle" x="495.93" y="-521.83" font-family="Arial" font-size="14.00">Internacional</text>
</a>
</g>
</g>
<!-- CNM7210&#45;&gt;CNM7236 -->
<g id="edge13" class="edge">
<title>CNM7210&#45;&gt;CNM7236</title>
<path fill="none" stroke="#80b1d3" stroke-width="2" d="M126.21,-576.62C126.21,-576.62 442.53,-576.62 442.53,-576.62"/>
<polygon fill="#80b1d3" stroke="#80b1d3" stroke-width="2" points="444.03,-574.13 444.03,-579.13 443.03,-579.13 443.03,-574.13 444.03,-574.13"/>
<polyline fill="none" stroke="#80b1d3" stroke-width="2" points="444.53,-576.63 442.03,-576.63"/>
</g>
<!-- CNM5360 -->
<g id="node37" class="node">
<title>CNM5360</title>
<g id="a_node37"><a xlink:title="compreensão das relações entre a economia e a política; a formação do mercado mundial e do sistema de Estados; as teorias da globalização; trajetórias comparadas de desenvolvimento; relações entre poder, dinheiro e as organizações internacionais">
<polygon fill="#80b1d3" stroke="#80b1d3" points="971.6,-168.5 870.8,-168.5 870.8,-81.5 971.6,-81.5 971.6,-168.5"/>
<text text-anchor="middle" x="921.2" y="-151.2" font-family="Arial" font-size="14.00">CNM5360</text>
<text text-anchor="middle" x="921.2" y="-119.45" font-family="Arial" font-size="14.00">Economia</text>
<text text-anchor="middle" x="921.2" y="-103.7" font-family="Arial" font-size="14.00">Política</text>
<text text-anchor="middle" x="921.2" y="-87.95" font-family="Arial" font-size="14.00">Internacional</text>
</a>
</g>
</g>
<!-- CNM7210&#45;&gt;CNM5360 -->
<g id="edge21" class="edge">
<title>CNM7210&#45;&gt;CNM5360</title>
<path fill="none" stroke="#80b1d3" stroke-width="2" d="M126.24,-593.56C298.96,-593.56 853.4,-593.56 853.4,-593.56 853.4,-593.56 853.4,-139.5 853.4,-139.5 853.4,-139.5 868.01,-139.5 868.01,-139.5"/>
<polygon fill="#80b1d3" stroke="#80b1d3" stroke-width="2" points="869.51,-137 869.51,-142 868.51,-142 868.51,-137 869.51,-137"/>
<polyline fill="none" stroke="#80b1d3" stroke-width="2" points="870.01,-139.5 867.51,-139.5"/>
</g>
<!-- CNM7211 -->
<g id="node11" class="node">
<title>CNM7211</title>
<g id="a_node11"><a xlink:title="Ciência econômica: objeto que caracteriza as teorias econômicas. A escola clássica: objeto e método. A escola marxista: objeto e método. A escola neoclássica: objeto e método; equilíbrio parcial e geral. Valor e Preço nas teorias econômicas. Análise keynesiana: o princípio da demanda efetiva. O excedente econômico e a repartição da renda.">
<polygon fill="#80b1d3" stroke="#80b1d3" points="125.9,-406.62 25.1,-406.62 25.1,-335.38 125.9,-335.38 125.9,-406.62"/>
<text text-anchor="middle" x="75.5" y="-389.32" font-family="Arial" font-size="14.00">CNM7211</text>
<text text-anchor="middle" x="75.5" y="-357.57" font-family="Arial" font-size="14.00">Introdução à</text>
<text text-anchor="middle" x="75.5" y="-341.82" font-family="Arial" font-size="14.00">Economia</text>
</a>
</g>
</g>
<!-- CNM7230 -->
<g id="node20" class="node">
<title>CNM7230</title>
<g id="a_node20"><a xlink:title="Modelo IS&#45;LM e politicas macroeconômicas numa economia fechada; Modelo IS&#45;LM&#45;BP e políticas macroeconômicas numa economia aberta; Minsky e a hipótese de fragilidade financeira; estudo das crises financeiras recentes.">
<polygon fill="#80b1d3" stroke="#80b1d3" points="404.7,-477.62 303.9,-477.62 303.9,-406.38 404.7,-406.38 404.7,-477.62"/>
<text text-anchor="middle" x="354.3" y="-460.32" font-family="Arial" font-size="14.00">CNM7230</text>
<text text-anchor="middle" x="354.3" y="-428.57" font-family="Arial" font-size="14.00">Macro (Macro</text>
<text text-anchor="middle" x="354.3" y="-412.82" font-family="Arial" font-size="14.00">Aberta)</text>
</a>
</g>
</g>
<!-- CNM7211&#45;&gt;CNM7230 -->
<g id="edge10" class="edge">
<title>CNM7211&#45;&gt;CNM7230</title>
<path fill="none" stroke="#80b1d3" stroke-width="2" d="M126.27,-393.21C136.09,-393.21 143.4,-393.21 143.4,-393.21 143.4,-393.21 143.4,-443.54 143.4,-443.54 143.4,-443.54 301.02,-443.54 301.02,-443.54"/>
<polygon fill="#80b1d3" stroke="#80b1d3" stroke-width="2" points="302.52,-441.04 302.52,-446.04 301.52,-446.04 301.52,-441.04 302.52,-441.04"/>
<polyline fill="none" stroke="#80b1d3" stroke-width="2" points="303.02,-443.54 300.52,-443.54"/>
</g>
<!-- CNM7211&#45;&gt;CNM5360 -->
<g id="edge22" class="edge">
<title>CNM7211&#45;&gt;CNM5360</title>
<path fill="none" stroke="#80b1d3" stroke-width="2" d="M126.18,-357.38C183.34,-357.38 268.4,-357.38 268.4,-357.38 268.4,-357.38 268.4,-42.81 268.4,-42.81 268.4,-42.81 921.4,-42.81 921.4,-42.81 921.4,-42.81 921.4,-78.52 921.4,-78.52"/>
<polygon fill="#80b1d3" stroke="#80b1d3" stroke-width="2" points="923.9,-80.02 918.9,-80.02 918.9,-79.02 923.9,-79.02 923.9,-80.02"/>
<polyline fill="none" stroke="#80b1d3" stroke-width="2" points="921.4,-80.52 921.4,-78.02"/>
</g>
<!-- DIR7100 -->
<g id="node12" class="node">
<title>DIR7100</title>
<g id="a_node12"><a xlink:title="Noções de Direito. Constituição. Estado. Governo. Administração Pública. Agentes públicos. Atos administrativos. Licitações e contratos administrativos. Sistema Tributário Nacional">
<polygon fill="#fdb462" stroke="#fdb462" points="127,-317.62 24,-317.62 24,-246.38 127,-246.38 127,-317.62"/>
<text text-anchor="middle" x="75.5" y="-300.32" font-family="Arial" font-size="14.00">DIR7100</text>
<text text-anchor="middle" x="75.5" y="-268.57" font-family="Arial" font-size="14.00">Instituições de</text>
<text text-anchor="middle" x="75.5" y="-252.82" font-family="Arial" font-size="14.00">Direito Público</text>
</a>
</g>
</g>
<!-- HST7111 -->
<g id="node13" class="node">
<title>HST7111</title>
<g id="a_node13"><a xlink:title="Formação e desenvolvimento da diplomacia e do equilíbrio entre Estados europeus, do renascimento até a revolução francesa e a era napoleônica.">
<polygon fill="#ffffb3" stroke="#ffffb3" points="125.9,-139.38 25.1,-139.38 25.1,-36.63 125.9,-36.63 125.9,-139.38"/>
<text text-anchor="middle" x="75.5" y="-122.08" font-family="Arial" font-size="14.00">HST7111</text>
<text text-anchor="middle" x="75.5" y="-90.33" font-family="Arial" font-size="14.00">História das</text>
<text text-anchor="middle" x="75.5" y="-74.58" font-family="Arial" font-size="14.00">Relações</text>
<text text-anchor="middle" x="75.5" y="-58.83" font-family="Arial" font-size="14.00">Internacionais</text>
<text text-anchor="middle" x="75.5" y="-43.08" font-family="Arial" font-size="14.00">I</text>
</a>
</g>
</g>
<!-- HST7111&#45;&gt;HST7112 -->
<g id="edge9" class="edge">
<title>HST7111&#45;&gt;HST7112</title>
<path fill="none" stroke="#ffffb3" stroke-width="2" d="M126.07,-70.54C126.07,-70.54 160.34,-70.54 160.34,-70.54"/>
<polygon fill="#ffffb3" stroke="#ffffb3" stroke-width="2" points="161.84,-68.04 161.84,-73.04 160.84,-73.04 160.84,-68.04 161.84,-68.04"/>
<polyline fill="none" stroke="#ffffb3" stroke-width="2" points="162.34,-70.54 159.84,-70.54"/>
</g>
<!-- SPO7002 -->
<g id="node14" class="node">
<title>SPO7002</title>
<g id="a_node14"><a xlink:title="O surgimento do conceito de política; política e teoria política na antiguidade grecoromana; as diferentes dimensões do objeto da Ciência Política; o Estado moderno e a transformação da política clássica; conceitos fundamentais da ciência Política: poder, dominação, representação, participação, democracia, igualdade, liberdade.">
<polygon fill="#fb8072" stroke="#fb8072" points="125.9,-495.62 25.1,-495.62 25.1,-424.38 125.9,-424.38 125.9,-495.62"/>
<text text-anchor="middle" x="75.5" y="-478.32" font-family="Arial" font-size="14.00">SPO7002</text>
<text text-anchor="middle" x="75.5" y="-446.57" font-family="Arial" font-size="14.00">Ciência</text>
<text text-anchor="middle" x="75.5" y="-430.82" font-family="Arial" font-size="14.00">Política</text>
</a>
</g>
</g>
<!-- SPO7004 -->
<g id="node24" class="node">
<title>SPO7004</title>
<g id="a_node24"><a xlink:title="Contribuições clássicas da teoria política moderna, entre o contexto do Renascimento e meados do século XIX. Maquiavel e o Estado moderno. O republicanismo moderno (Harrington, Milton, Morus). Vertentes do contratualismo (Hobbes, Locke, Rousseau). Conservadorismo e liberalismo na Europa (Burke, Montesquieu, Tocqueville, e Mill). Marx e o marxismo. Os &quot;federalistas&quot; e a revolução americana (Madison, Jay, Hamilton).">
<polygon fill="#fb8072" stroke="#fb8072" points="404.7,-566.62 303.9,-566.62 303.9,-495.38 404.7,-495.38 404.7,-566.62"/>
<text text-anchor="middle" x="354.3" y="-549.33" font-family="Arial" font-size="14.00">SPO7004</text>
<text text-anchor="middle" x="354.3" y="-517.58" font-family="Arial" font-size="14.00">Teoria Politica</text>
<text text-anchor="middle" x="354.3" y="-501.82" font-family="Arial" font-size="14.00">I</text>
</a>
</g>
</g>
<!-- SPO7002&#45;&gt;SPO7004 -->
<g id="edge12" class="edge">
<title>SPO7002&#45;&gt;SPO7004</title>
<path fill="none" stroke="#fb8072" stroke-width="2" d="M126.15,-449.46C186.83,-449.46 280.4,-449.46 280.4,-449.46 280.4,-449.46 280.4,-505.79 280.4,-505.79 280.4,-505.79 301.28,-505.79 301.28,-505.79"/>
<polygon fill="#fb8072" stroke="#fb8072" stroke-width="2" points="302.78,-503.29 302.78,-508.29 301.78,-508.29 301.78,-503.29 302.78,-503.29"/>
<polyline fill="none" stroke="#fb8072" stroke-width="2" points="303.28,-505.79 300.78,-505.79"/>
</g>
<!-- CNM7232 -->
<g id="node30" class="node">
<title>CNM7232</title>
<g id="a_node30"><a xlink:title="Transnacionalismo e interdependência complexa. As reformulações do realismo a partir da teoria neo&#45;realista de Kenneth Waltz. As reformulações do liberalismo e o debate neo&#45;neo. Os enfoques construtivistas. Os pós&#45;modernismos. Questões normativas em relações internacionais.">
<polygon fill="#80b1d3" stroke="#80b1d3" points="684.58,-189.38 583.78,-189.38 583.78,-86.62 684.58,-86.62 684.58,-189.38"/>
<text text-anchor="middle" x="634.18" y="-172.07" font-family="Arial" font-size="14.00">CNM7232</text>
<text text-anchor="middle" x="634.18" y="-140.32" font-family="Arial" font-size="14.00">Teoria das</text>
<text text-anchor="middle" x="634.18" y="-124.58" font-family="Arial" font-size="14.00">Relações</text>
<text text-anchor="middle" x="634.18" y="-108.83" font-family="Arial" font-size="14.00">Internacionais</text>
<text text-anchor="middle" x="634.18" y="-93.08" font-family="Arial" font-size="14.00">II</text>
</a>
</g>
</g>
<!-- CNM7221&#45;&gt;CNM7232 -->
<g id="edge14" class="edge">
<title>CNM7221&#45;&gt;CNM7232</title>
<path fill="none" stroke="#80b1d3" stroke-width="2" d="M264.25,-280.62C271.42,-280.62 276.4,-280.62 276.4,-280.62 276.4,-280.62 276.4,-107.06 276.4,-107.06 276.4,-107.06 580.79,-107.06 580.79,-107.06"/>
<polygon fill="#80b1d3" stroke="#80b1d3" stroke-width="2" points="582.29,-104.56 582.29,-109.56 581.29,-109.56 581.29,-104.56 582.29,-104.56"/>
<polyline fill="none" stroke="#80b1d3" stroke-width="2" points="582.79,-107.06 580.29,-107.06"/>
</g>
<!-- CNM7264 -->
<g id="node36" class="node">
<title>CNM7264</title>
<g id="a_node36"><a xlink:title="Problemas e debates de teoria e método. Abordagens metodológica nas Ciências Sociais e Relações Internacionais. Técnicas e estratégias de pesquisa. Introdução à elaboração de projetos.">
<polygon fill="#80b1d3" stroke="#80b1d3" points="828.45,-200 727.65,-200 727.65,-50 828.45,-50 828.45,-200"/>
<text text-anchor="middle" x="778.05" y="-182.7" font-family="Arial" font-size="14.00">CNM7264</text>
<text text-anchor="middle" x="778.05" y="-150.95" font-family="Arial" font-size="14.00">Métodos e</text>
<text text-anchor="middle" x="778.05" y="-135.2" font-family="Arial" font-size="14.00">Técnicas de</text>
<text text-anchor="middle" x="778.05" y="-119.45" font-family="Arial" font-size="14.00">Pesquisa na</text>
<text text-anchor="middle" x="778.05" y="-103.7" font-family="Arial" font-size="14.00">Ciências</text>
<text text-anchor="middle" x="778.05" y="-87.95" font-family="Arial" font-size="14.00">Sociais e</text>
<text text-anchor="middle" x="778.05" y="-72.2" font-family="Arial" font-size="14.00">Relações</text>
<text text-anchor="middle" x="778.05" y="-56.45" font-family="Arial" font-size="14.00">Internacionais</text>
</a>
</g>
</g>
<!-- CNM7221&#45;&gt;CNM7264 -->
<g id="edge19" class="edge">
<title>CNM7221&#45;&gt;CNM7264</title>
<path fill="none" stroke="#80b1d3" stroke-width="2" d="M264.2,-263.12C269.16,-263.12 272.4,-263.12 272.4,-263.12 272.4,-263.12 272.4,-68.31 272.4,-68.31 272.4,-68.31 724.75,-68.31 724.75,-68.31"/>
<polygon fill="#80b1d3" stroke="#80b1d3" stroke-width="2" points="726.25,-65.81 726.25,-70.81 725.25,-70.81 725.25,-65.81 726.25,-65.81"/>
<polyline fill="none" stroke="#80b1d3" stroke-width="2" points="726.75,-68.31 724.25,-68.31"/>
</g>
<!-- DIR7102 -->
<g id="node23" class="node">
<title>DIR7102</title>
<g id="a_node23"><a xlink:title="&#45;Direito da Guerra, Segurança Internacional e Desarmamento. Jurisdição Internacional e Tribunais Internacionais. O Direito Internacional Penal. Responsabilidade Internacional do Estado. Direito Internacional do Desenvolvimento e Processos de Integração. O direito Internacional Privado: princípios, fundamentos e teorias. Contratos e Acordos Internacionais.">
<polygon fill="#fdb462" stroke="#fdb462" points="404.7,-226.5 303.9,-226.5 303.9,-139.5 404.7,-139.5 404.7,-226.5"/>
<text text-anchor="middle" x="354.3" y="-209.2" font-family="Arial" font-size="14.00">DIR7102</text>
<text text-anchor="middle" x="354.3" y="-177.45" font-family="Arial" font-size="14.00">Direito</text>
<text text-anchor="middle" x="354.3" y="-161.7" font-family="Arial" font-size="14.00">Internacional</text>
<text text-anchor="middle" x="354.3" y="-145.95" font-family="Arial" font-size="14.00">II</text>
</a>
</g>
</g>
<!-- DIR7101&#45;&gt;DIR7102 -->
<g id="edge11" class="edge">
<title>DIR7101&#45;&gt;DIR7102</title>
<path fill="none" stroke="#fdb462" stroke-width="2" d="M264.24,-373.83C275.62,-373.83 284.4,-373.83 284.4,-373.83 284.4,-373.83 284.4,-179.75 284.4,-179.75 284.4,-179.75 301,-179.75 301,-179.75"/>
<polygon fill="#fdb462" stroke="#fdb462" stroke-width="2" points="302.5,-177.25 302.5,-182.25 301.5,-182.25 301.5,-177.25 302.5,-177.25"/>
<polyline fill="none" stroke="#fdb462" stroke-width="2" points="303,-179.75 300.5,-179.75"/>
</g>
<!-- INE7004&#45;&gt;CNM7230 -->
<!-- CNM7244 -->
<g id="node21" class="node">
<title>CNM7244</title>
<g id="a_node21"><a xlink:title="&#45;Caracterização das organizações internacionais. Evolução das Organizações Internacionais e Formação dos Estados Nacionais. Cooperação e Conflito. Organizações Internacionais e Cooperação Econômica.">
<polygon fill="#80b1d3" stroke="#80b1d3" points="404.7,-315.62 303.9,-315.62 303.9,-244.38 404.7,-244.38 404.7,-315.62"/>
<text text-anchor="middle" x="354.3" y="-298.32" font-family="Arial" font-size="14.00">CNM7244</text>
<text text-anchor="middle" x="354.3" y="-266.57" font-family="Arial" font-size="14.00">Organizações</text>
<text text-anchor="middle" x="354.3" y="-250.82" font-family="Arial" font-size="14.00">Internacionais</text>
</a>
</g>
</g>
<!-- INE7004&#45;&gt;CNM7244 -->
<!-- CNM7500 -->
<g id="node22" class="node">
<title>CNM7500</title>
<g id="a_node22"><a xlink:title="O poder de mercado, monopólio e concorrência monopolística. Oligopólio, modelos clássicos, Teoria dos Jogos. Mercados de fatores e oferta de trabalho. Equilíbrio geral: troca e produção. Teoria do bem&#45;estar: eficiência e equidade. Externalidades e bens públicos. Informação assimétrica.">
<polygon fill="#80b1d3" stroke="#80b1d3" points="408.8,-388.75 299.8,-388.75 299.8,-333.25 408.8,-333.25 408.8,-388.75"/>
<text text-anchor="middle" x="354.3" y="-371.45" font-family="Arial" font-size="14.00">CNM7500</text>
<text text-anchor="middle" x="354.3" y="-339.7" font-family="Arial" font-size="14.00">Microeconomia</text>
</a>
</g>
</g>
<!-- INE7004&#45;&gt;CNM7500 -->
<!-- INE7004&#45;&gt;DIR7102 -->
<!-- INE7004&#45;&gt;SPO7004 -->
<!-- SPO7004&#45;&gt;CNM7236 -->
<!-- CNM7240 -->
<g id="node26" class="node">
<title>CNM7240</title>
<g id="a_node26"><a xlink:title="As diferentes fases e interpretações da formação econômica brasileira. O sistema colonial e a escravidão. A emergência do trabalho assalariado e as origens do desenvolvimento industrial brasileiro.&#45;">
<polygon fill="#80b1d3" stroke="#80b1d3" points="547.05,-497.5 444.8,-497.5 444.8,-410.5 547.05,-410.5 547.05,-497.5"/>
<text text-anchor="middle" x="495.93" y="-480.2" font-family="Arial" font-size="14.00">CNM7240</text>
<text text-anchor="middle" x="495.93" y="-448.45" font-family="Arial" font-size="14.00">Formação</text>
<text text-anchor="middle" x="495.93" y="-432.7" font-family="Arial" font-size="14.00">Econômica do</text>
<text text-anchor="middle" x="495.93" y="-416.95" font-family="Arial" font-size="14.00">Brasil I</text>
</a>
</g>
</g>
<!-- SPO7004&#45;&gt;CNM7240 -->
<!-- CNM7242 -->
<g id="node27" class="node">
<title>CNM7242</title>
<g id="a_node27"><a xlink:title="&#45;A geografia econômica tradicional. As teorias da organização econômica do espaço. O desenvolvimento desigual. A divisão territorial e internacional do trabalho. O espaço capitalista contemporâneo: fordismo e acumulação flexível nos territórios. A globalização contemporânea.">
<polygon fill="#80b1d3" stroke="#80b1d3" points="546.33,-214.5 445.53,-214.5 445.53,-127.5 546.33,-127.5 546.33,-214.5"/>
<text text-anchor="middle" x="495.93" y="-197.2" font-family="Arial" font-size="14.00">CNM7242</text>
<text text-anchor="middle" x="495.93" y="-165.45" font-family="Arial" font-size="14.00">Geografia</text>
<text text-anchor="middle" x="495.93" y="-149.7" font-family="Arial" font-size="14.00">Econômica</text>
<text text-anchor="middle" x="495.93" y="-133.95" font-family="Arial" font-size="14.00">Internacional</text>
</a>
</g>
</g>
<!-- SPO7004&#45;&gt;CNM7242 -->
<!-- CNM7245 -->
<g id="node28" class="node">
<title>CNM7245</title>
<g id="a_node28"><a xlink:title="Teoria Clássica do Comércio Internacional. Teoria Neoclássica do Comércio Internacional. Estratégias de Desenvolvimento Comparadas. Protecionismo e Liberalismo Comercial. Blocos Regionalismo e Regionalismo Aberto&#45;">
<polygon fill="#80b1d3" stroke="#80b1d3" points="546.33,-392.62 445.53,-392.62 445.53,-321.38 546.33,-321.38 546.33,-392.62"/>
<text text-anchor="middle" x="495.93" y="-375.32" font-family="Arial" font-size="14.00">CNM7245</text>
<text text-anchor="middle" x="495.93" y="-343.57" font-family="Arial" font-size="14.00">Economia</text>
<text text-anchor="middle" x="495.93" y="-327.82" font-family="Arial" font-size="14.00">Internacional I</text>
</a>
</g>
</g>
<!-- SPO7004&#45;&gt;CNM7245 -->
<!-- CNM7253 -->
<g id="node29" class="node">
<title>CNM7253</title>
<g id="a_node29"><a xlink:title="Aspectos gerais dos conflitos internacionais. Fontes das normas relativas às soluções pacíficas de conflitos entre Estados. Formas extrajudiciárias e judiciárias. A negociação diplomática: procedimentos, condução, intervenção de terceiros, formação de grupos (institucionalizados ou não), soluções negociadas. Bons Ofícios e Mediação. Procedimentos. Soluções e sua execução. O papel do Secretário Geral da ONU e da OEA. A Conciliação Internacional: regras, procedimentos, tipicidades. A arbitragem internacional entre Estados: &quot;ad hoc&quot; e institucionalizada. Fases dos procedimentos. Natureza do laudo arbitral. A fase pós&#45;arbitral: a questão da executoriedade do laudo arbitral.&#45;">
<polygon fill="#80b1d3" stroke="#80b1d3" points="546.33,-303.62 445.53,-303.62 445.53,-232.38 546.33,-232.38 546.33,-303.62"/>
<text text-anchor="middle" x="495.93" y="-286.32" font-family="Arial" font-size="14.00">CNM7253</text>
<text text-anchor="middle" x="495.93" y="-254.57" font-family="Arial" font-size="14.00">Negociação</text>
<text text-anchor="middle" x="495.93" y="-238.82" font-family="Arial" font-size="14.00">Internacional</text>
</a>
</g>
</g>
<!-- SPO7004&#45;&gt;CNM7253 -->
<!-- SPO7006 -->
<g id="node33" class="node">
<title>SPO7006</title>
<g id="a_node33"><a xlink:title="Estudo das principais correntes do pensamento político entre fins do século XIX e a atualidade. A teoria clássica das elites: Pareto, Mosca, Michels. A sociologia política de Max Weber. O marxismo de Gramsci. A teoria política no pós&#45;segunda guerra: Pluralismo (Shumpeter, Dahl, Downs, Lindblon). Neomarxismo (Poulantzas, Offe, Przeworski, Elster). Neoinstitucionalismo (Skocpol, Tilly, Evans, Hall, North, Riker). Neo&#45;republicanismo (Arendt, Taylor, Pocock, Skinner, Pettit). O estado atual da teoria democrática.">
<polygon fill="#fb8072" stroke="#fb8072" points="684.58,-278.62 583.78,-278.62 583.78,-207.38 684.58,-207.38 684.58,-278.62"/>
<text text-anchor="middle" x="634.18" y="-261.32" font-family="Arial" font-size="14.00">SPO7006</text>
<text text-anchor="middle" x="634.18" y="-229.57" font-family="Arial" font-size="14.00">Teoria Política</text>
<text text-anchor="middle" x="634.18" y="-213.82" font-family="Arial" font-size="14.00">II</text>
</a>
</g>
</g>
<!-- SPO7004&#45;&gt;SPO7006 -->
<g id="edge17" class="edge">
<title>SPO7004&#45;&gt;SPO7006</title>
<path fill="none" stroke="#fb8072" stroke-width="2" d="M405.07,-512.4C470.07,-512.4 574.4,-512.4 574.4,-512.4 574.4,-512.4 574.4,-267.06 574.4,-267.06 574.4,-267.06 580.98,-267.06 580.98,-267.06"/>
<polygon fill="#fb8072" stroke="#fb8072" stroke-width="2" points="582.48,-264.56 582.48,-269.56 581.48,-269.56 581.48,-264.56 582.48,-264.56"/>
<polyline fill="none" stroke="#fb8072" stroke-width="2" points="582.98,-267.06 580.48,-267.06"/>
</g>
<!-- CNM7251 -->
<g id="node31" class="node">
<title>CNM7251</title>
<g id="a_node31"><a xlink:title="&#45;Síntese das características do processo de nascimento e consolidação da estrutura produtiva industrial até 1930. A crise da economia agro&#45;exportadora e a mudança do quadro político: nova forma de estado. Rumo a industrialização: processo de substituição de importações no contexto da industrialização restringida. O projeto nacional desenvolvimentista de Vargas e direção da política econômica até 1955. A internacionalização da economia brasileira e a estruturação do novo padrão de industrialização a partir de Kubistshek &#45; Plano de Metas. O desenvolvimento e as crises econômicas e políticas no limiar dos anos 60. Afirmação do projeto desenvolvimentista internacionalizante sob governo militar: estratégias, reformas institucionais e política econômica 1964/67. O ciclo de crescimento expansivo e suas contradições: 1968/73. A estratégia de desenvolvimento 1974/79 &#45; II PND: proposta de alteração no padrão de industrialização. Características da política econômica sob cenário econômico adverso da segunda metade dos anos 70.">
<polygon fill="#80b1d3" stroke="#80b1d3" points="685.3,-488.5 583.05,-488.5 583.05,-401.5 685.3,-401.5 685.3,-488.5"/>
<text text-anchor="middle" x="634.18" y="-471.2" font-family="Arial" font-size="14.00">CNM7251</text>
<text text-anchor="middle" x="634.18" y="-439.45" font-family="Arial" font-size="14.00">Formação</text>
<text text-anchor="middle" x="634.18" y="-423.7" font-family="Arial" font-size="14.00">Econômica do</text>
<text text-anchor="middle" x="634.18" y="-407.95" font-family="Arial" font-size="14.00">Brasil II</text>
</a>
</g>
</g>
<!-- CNM7240&#45;&gt;CNM7251 -->
<g id="edge15" class="edge">
<title>CNM7240&#45;&gt;CNM7251</title>
<path fill="none" stroke="#80b1d3" stroke-width="2" d="M547.4,-462.5C547.4,-462.5 580.15,-462.5 580.15,-462.5"/>
<polygon fill="#80b1d3" stroke="#80b1d3" stroke-width="2" points="581.65,-460 581.65,-465 580.65,-465 580.65,-460 581.65,-460"/>
<polyline fill="none" stroke="#80b1d3" stroke-width="2" points="582.15,-462.5 579.65,-462.5"/>
</g>
<!-- CNM7252 -->
<g id="node32" class="node">
<title>CNM7252</title>
<g id="a_node32"><a xlink:title="&#45;Análise das teorias do investimento internacional. Evolução das finanças internacionais e o papel dos novos atores institucionais nos processos de intermediação e nos fluxos internacionais de capital. A economia política internacional. Estado, Capital e Relações de Poder no plano internacional">
<polygon fill="#80b1d3" stroke="#80b1d3" points="684.58,-383.5 583.78,-383.5 583.78,-296.5 684.58,-296.5 684.58,-383.5"/>
<text text-anchor="middle" x="634.18" y="-366.2" font-family="Arial" font-size="14.00">CNM7252</text>
<text text-anchor="middle" x="634.18" y="-334.45" font-family="Arial" font-size="14.00">Economia</text>
<text text-anchor="middle" x="634.18" y="-318.7" font-family="Arial" font-size="14.00">Internacional</text>
<text text-anchor="middle" x="634.18" y="-302.95" font-family="Arial" font-size="14.00">II (Finanças)</text>
</a>
</g>
</g>
<!-- CNM7245&#45;&gt;CNM7252 -->
<g id="edge16" class="edge">
<title>CNM7245&#45;&gt;CNM7252</title>
<path fill="none" stroke="#80b1d3" stroke-width="2" d="M546.62,-352.44C546.62,-352.44 580.99,-352.44 580.99,-352.44"/>
<polygon fill="#80b1d3" stroke="#80b1d3" stroke-width="2" points="582.49,-349.94 582.49,-354.94 581.49,-354.94 581.49,-349.94 582.49,-349.94"/>
<polyline fill="none" stroke="#80b1d3" stroke-width="2" points="582.99,-352.44 580.49,-352.44"/>
</g>
<!-- CNM7253&#45;&gt;CNM7232 -->
<!-- CNM7253&#45;&gt;CNM7251 -->
<!-- CNM7253&#45;&gt;CNM7252 -->
<!-- CNM7253&#45;&gt;SPO7006 -->
<!-- CNM7232&#45;&gt;CNM7264 -->
<g id="edge20" class="edge">
<title>CNM7232&#45;&gt;CNM7264</title>
<path fill="none" stroke="#80b1d3" stroke-width="2" d="M684.9,-138C684.9,-138 724.8,-138 724.8,-138"/>
<polygon fill="#80b1d3" stroke="#80b1d3" stroke-width="2" points="726.3,-135.5 726.3,-140.5 725.3,-140.5 725.3,-135.5 726.3,-135.5"/>
<polyline fill="none" stroke="#80b1d3" stroke-width="2" points="726.8,-138 724.3,-138"/>
</g>
<!-- CNM7263 -->
<g id="node35" class="node">
<title>CNM7263</title>
<g id="a_node35"><a xlink:title="Periodização do processo econômicos/financeiro dos anos 70 e 80. A controvérsia sobre desenvolvimento e crise dos anos 70. As contradições internacionais e nacionais. A formação do capital financeiro e dos complexos agroindustriais nos anos 70/80. O processo cíclico (crise&#45;recuperação&#45;crise) de l99l a l990: crise econômica. Crise da divida externa, crise financeira do Estado, inflação, Os planos de estabilização (do Plano Cruzado ao Plano Collor). Analise Conjuntural Prospectiva.&#45;">
<polygon fill="#80b1d3" stroke="#80b1d3" points="834.8,-410.5 721.3,-410.5 721.3,-323.5 834.8,-323.5 834.8,-410.5"/>
<text text-anchor="middle" x="778.05" y="-393.2" font-family="Arial" font-size="14.00">CNM7263</text>
<text text-anchor="middle" x="778.05" y="-361.45" font-family="Arial" font-size="14.00">Economia</text>
<text text-anchor="middle" x="778.05" y="-345.7" font-family="Arial" font-size="14.00">Brasileira</text>
<text text-anchor="middle" x="778.05" y="-329.95" font-family="Arial" font-size="14.00">Contemporânea</text>
</a>
</g>
</g>
<!-- CNM7251&#45;&gt;CNM7263 -->
<g id="edge18" class="edge">
<title>CNM7251&#45;&gt;CNM7263</title>
<path fill="none" stroke="#80b1d3" stroke-width="2" d="M685.71,-406C685.71,-406 718.52,-406 718.52,-406"/>
<polygon fill="#80b1d3" stroke="#80b1d3" stroke-width="2" points="720.02,-403.5 720.02,-408.5 719.02,-408.5 719.02,-403.5 720.02,-403.5"/>
<polyline fill="none" stroke="#80b1d3" stroke-width="2" points="720.52,-406 718.02,-406"/>
</g>
<!-- CNM7261 -->
<g id="node34" class="node">
<title>CNM7261</title>
<g id="a_node34"><a xlink:title="&#45;Fundamentos históricos da política externa do Brasil. A participação diplomática na formação do espaço nacional. História Diplomática do Brasil independente, destacando o papel do Estado e dos principais atores brasileiros no contexto internacional.">
<polygon fill="#80b1d3" stroke="#80b1d3" points="828.45,-305.5 727.65,-305.5 727.65,-218.5 828.45,-218.5 828.45,-305.5"/>
<text text-anchor="middle" x="778.05" y="-288.2" font-family="Arial" font-size="14.00">CNM7261</text>
<text text-anchor="middle" x="778.05" y="-256.45" font-family="Arial" font-size="14.00">Política</text>
<text text-anchor="middle" x="778.05" y="-240.7" font-family="Arial" font-size="14.00">Externa</text>
<text text-anchor="middle" x="778.05" y="-224.95" font-family="Arial" font-size="14.00">Brasileira I</text>
</a>
</g>
</g>
<!-- SPO7006&#45;&gt;CNM7261 -->
<!-- SPO7006&#45;&gt;CNM7263 -->
<!-- SPO7006&#45;&gt;CNM7264 -->
<!-- CNM7272 -->
<g id="node38" class="node">
<title>CNM7272</title>
<g id="a_node38"><a xlink:title="&#45;Bases históricas da política externa brasileira. Paradigmas dominantes na Guerra Fria. Sistema político brasileiro e política externa. Paradigmas contemporâneos. Regionalismo e globalização na formulação da política externa. Atores estatais e não&#45;estatais no processo decisório.">
<polygon fill="#80b1d3" stroke="#80b1d3" points="971.6,-273.5 870.8,-273.5 870.8,-186.5 971.6,-186.5 971.6,-273.5"/>
<text text-anchor="middle" x="921.2" y="-256.2" font-family="Arial" font-size="14.00">CNM7272</text>
<text text-anchor="middle" x="921.2" y="-224.45" font-family="Arial" font-size="14.00">Política</text>
<text text-anchor="middle" x="921.2" y="-208.7" font-family="Arial" font-size="14.00">Externa</text>
<text text-anchor="middle" x="921.2" y="-192.95" font-family="Arial" font-size="14.00">Brasileira II</text>
</a>
</g>
</g>
<!-- CNM7261&#45;&gt;CNM7272 -->
<g id="edge23" class="edge">
<title>CNM7261&#45;&gt;CNM7272</title>
<path fill="none" stroke="#80b1d3" stroke-width="2" d="M828.92,-246C828.92,-246 867.99,-246 867.99,-246"/>
<polygon fill="#80b1d3" stroke="#80b1d3" stroke-width="2" points="869.49,-243.5 869.49,-248.5 868.49,-248.5 868.49,-243.5 869.49,-243.5"/>
<polyline fill="none" stroke="#80b1d3" stroke-width="2" points="869.99,-246 867.49,-246"/>
</g>
<!-- CNM7264&#45;&gt;CNM5360 -->
<!-- CNM7264&#45;&gt;CNM7272 -->
<!-- CNM7280 -->
<g id="node39" class="node">
<title>CNM7280</title>
<polygon fill="#80b1d3" stroke="#80b1d3" points="1108.4,-257.75 1007.6,-257.75 1007.6,-202.25 1108.4,-202.25 1108.4,-257.75"/>
<text text-anchor="middle" x="1058" y="-240.45" font-family="Arial" font-size="14.00">CNM7280</text>
<text text-anchor="middle" x="1058" y="-208.7" font-family="Arial" font-size="14.00">Monografia</text>
</g>
<!-- CNM7272&#45;&gt;CNM7280 -->
</g>
</svg>
