<?xml version="1.0" encoding="UTF-8" standalone="no"?>
<!DOCTYPE svg PUBLIC "-//W3C//DTD SVG 1.1//EN"
 "http://www.w3.org/Graphics/SVG/1.1/DTD/svg11.dtd">
<!-- Generated by graphviz version 9.0.0 (0)
 -->
<!-- Title: grafo_materias Pages: 1 -->
<svg width="1790pt" height="1075pt"
 viewBox="0.00 0.00 1790.25 1075.00" xmlns="http://www.w3.org/2000/svg" xmlns:xlink="http://www.w3.org/1999/xlink">
<g id="graph0" class="graph" transform="scale(1 1) rotate(0) translate(4 1071)">
<title>grafo_materias</title>
<polygon fill="none" stroke="none" points="-4,4 -4,-1071 1786.25,-1071 1786.25,4 -4,4"/>
<g id="clust1" class="cluster">
<title>cluster_everything</title>
<polygon fill="none" stroke="none" points="8,-8 8,-1059 1774.25,-1059 1774.25,-8 8,-8"/>
</g>
<g id="clust2" class="cluster">
<title>cluster_header</title>
<polygon fill="none" stroke="none" points="22.35,-999 22.35,-1051 1757.65,-1051 1757.65,-999 22.35,-999"/>
</g>
<g id="clust3" class="cluster">
<title>cluster_0</title>
<polygon fill="none" stroke="none" points="16,-304 16,-813 145.5,-813 145.5,-304 16,-304"/>
</g>
<g id="clust4" class="cluster">
<title>cluster_1</title>
<polygon fill="none" stroke="none" points="165.5,-467 165.5,-991 330.25,-991 330.25,-467 165.5,-467"/>
</g>
<g id="clust5" class="cluster">
<title>cluster_2</title>
<polygon fill="none" stroke="none" points="350.25,-16 350.25,-991 507.5,-991 507.5,-16 350.25,-16"/>
</g>
<g id="clust6" class="cluster">
<title>cluster_3</title>
<polygon fill="none" stroke="none" points="527.5,-16 527.5,-976 684.75,-976 684.75,-16 527.5,-16"/>
</g>
<g id="clust7" class="cluster">
<title>cluster_4</title>
<polygon fill="none" stroke="none" points="704.75,-16 704.75,-702 838.75,-702 838.75,-16 704.75,-16"/>
</g>
<g id="clust8" class="cluster">
<title>cluster_5</title>
<polygon fill="none" stroke="none" points="882.75,-105 882.75,-344 1006.25,-344 1006.25,-105 882.75,-105"/>
</g>
<g id="clust9" class="cluster">
<title>cluster_6</title>
<polygon fill="none" stroke="none" points="1079.47,-162 1079.47,-308 1196.28,-308 1196.28,-162 1079.47,-162"/>
</g>
<g id="clust10" class="cluster">
<title>cluster_7</title>
<polygon fill="none" stroke="none" points="1265.38,-181 1265.38,-358 1397.12,-358 1397.12,-181 1265.38,-181"/>
</g>
<g id="clust11" class="cluster">
<title>cluster_8</title>
<polygon fill="none" stroke="none" points="1466.22,-266 1466.22,-427 1583.03,-427 1583.03,-266 1466.22,-266"/>
</g>
<g id="clust12" class="cluster">
<title>cluster_9</title>
<polygon fill="none" stroke="none" points="1632.25,-16 1632.25,-807 1766.25,-807 1766.25,-16 1632.25,-16"/>
</g>
<!-- 1ª FASE -->
<g id="node1" class="node">
<title>1ª FASE</title>
<polygon fill="lightgrey" stroke="black" points="131.15,-1043 30.35,-1043 30.35,-1007 131.15,-1007 131.15,-1043"/>
<text text-anchor="middle" x="80.75" y="-1019.58" font-family="Arial" font-size="14.00">1ª FASE</text>
</g>
<!-- 2ª FASE -->
<g id="node2" class="node">
<title>2ª FASE</title>
<polygon fill="lightgrey" stroke="black" points="298.27,-1043 197.47,-1043 197.47,-1007 298.27,-1007 298.27,-1043"/>
<text text-anchor="middle" x="247.88" y="-1019.58" font-family="Arial" font-size="14.00">2ª FASE</text>
</g>
<!-- 1ª FASE&#45;&gt;2ª FASE -->
<!-- 3ª Fase -->
<g id="node3" class="node">
<title>3ª Fase</title>
<polygon fill="lightgrey" stroke="black" points="479.27,-1043 378.48,-1043 378.48,-1007 479.27,-1007 479.27,-1043"/>
<text text-anchor="middle" x="428.88" y="-1019.58" font-family="Arial" font-size="14.00">3ª Fase</text>
</g>
<!-- 2ª FASE&#45;&gt;3ª Fase -->
<!-- 4ª Fase -->
<g id="node4" class="node">
<title>4ª Fase</title>
<polygon fill="lightgrey" stroke="black" points="656.52,-1043 555.73,-1043 555.73,-1007 656.52,-1007 656.52,-1043"/>
<text text-anchor="middle" x="606.12" y="-1019.58" font-family="Arial" font-size="14.00">4ª Fase</text>
</g>
<!-- 3ª Fase&#45;&gt;4ª Fase -->
<!-- 5ª Fase -->
<g id="node5" class="node">
<title>5ª Fase</title>
<polygon fill="lightgrey" stroke="black" points="822.15,-1043 721.35,-1043 721.35,-1007 822.15,-1007 822.15,-1043"/>
<text text-anchor="middle" x="771.75" y="-1019.58" font-family="Arial" font-size="14.00">5ª Fase</text>
</g>
<!-- 4ª Fase&#45;&gt;5ª Fase -->
<!-- 5ª Fase&#45; Terminalidade -->
<g id="node6" class="node">
<title>5ª Fase&#45; Terminalidade</title>
<polygon fill="lightgrey" stroke="black" points="1022.25,-1043 866.75,-1043 866.75,-1007 1022.25,-1007 1022.25,-1043"/>
<text text-anchor="middle" x="944.5" y="-1019.58" font-family="Arial" font-size="14.00">5ª Fase&#45; Terminalidade</text>
</g>
<!-- 5ª Fase&#45;&gt;5ª Fase&#45; Terminalidade -->
<!-- 5ª Fase &#45; Terminalidade -->
<g id="node7" class="node">
<title>5ª Fase &#45; Terminalidade</title>
<polygon fill="lightgrey" stroke="black" points="1217.5,-1043 1058.25,-1043 1058.25,-1007 1217.5,-1007 1217.5,-1043"/>
<text text-anchor="middle" x="1137.88" y="-1019.58" font-family="Arial" font-size="14.00">5ª Fase &#45; Terminalidade</text>
</g>
<!-- 5ª Fase&#45; Terminalidade&#45;&gt;5ª Fase &#45; Terminalidade -->
<!-- 6ª Fase &#45;Terminalidade -->
<g id="node8" class="node">
<title>6ª Fase &#45;Terminalidade</title>
<polygon fill="lightgrey" stroke="black" points="1409,-1043 1253.5,-1043 1253.5,-1007 1409,-1007 1409,-1043"/>
<text text-anchor="middle" x="1331.25" y="-1019.58" font-family="Arial" font-size="14.00">6ª Fase &#45;Terminalidade</text>
</g>
<!-- 5ª Fase &#45; Terminalidade&#45;&gt;6ª Fase &#45;Terminalidade -->
<!-- 6ª Fase &#45; Terminalidade -->
<g id="node9" class="node">
<title>6ª Fase &#45; Terminalidade</title>
<polygon fill="lightgrey" stroke="black" points="1604.25,-1043 1445,-1043 1445,-1007 1604.25,-1007 1604.25,-1043"/>
<text text-anchor="middle" x="1524.62" y="-1019.58" font-family="Arial" font-size="14.00">6ª Fase &#45; Terminalidade</text>
</g>
<!-- 6ª Fase &#45;Terminalidade&#45;&gt;6ª Fase &#45; Terminalidade -->
<!-- 6ª Fase -->
<g id="node10" class="node">
<title>6ª Fase</title>
<polygon fill="lightgrey" stroke="black" points="1749.65,-1043 1648.85,-1043 1648.85,-1007 1749.65,-1007 1749.65,-1043"/>
<text text-anchor="middle" x="1699.25" y="-1019.58" font-family="Arial" font-size="14.00">6ª Fase</text>
</g>
<!-- 6ª Fase &#45; Terminalidade&#45;&gt;6ª Fase -->
<!-- ANT8104 -->
<g id="node11" class="node">
<title>ANT8104</title>
<polygon fill="#8dd3c7" stroke="#8dd3c7" points="134.5,-804.75 27,-804.75 27,-749.25 134.5,-749.25 134.5,-804.75"/>
<text text-anchor="middle" x="80.75" y="-787.45" font-family="Arial" font-size="14.00">ANT8104</text>
<text text-anchor="middle" x="80.75" y="-755.7" font-family="Arial" font-size="14.00">Memória Viva I</text>
</g>
<!-- ANT8404 -->
<g id="node16" class="node">
<title>ANT8404</title>
<polygon fill="#8dd3c7" stroke="#8dd3c7" points="299.38,-982.75 196.38,-982.75 196.38,-927.25 299.38,-927.25 299.38,-982.75"/>
<text text-anchor="middle" x="247.88" y="-965.45" font-family="Arial" font-size="14.00">ANT8404</text>
<text text-anchor="middle" x="247.88" y="-933.7" font-family="Arial" font-size="14.00">Antropologia II</text>
</g>
<!-- ANT8104&#45;&gt;ANT8404 -->
<!-- EED8007 -->
<g id="node17" class="node">
<title>EED8007</title>
<polygon fill="#ffffb3" stroke="#ffffb3" points="298.27,-909.5 197.47,-909.5 197.47,-822.5 298.27,-822.5 298.27,-909.5"/>
<text text-anchor="middle" x="247.88" y="-892.2" font-family="Arial" font-size="14.00">EED8007</text>
<text text-anchor="middle" x="247.88" y="-860.45" font-family="Arial" font-size="14.00">Organização</text>
<text text-anchor="middle" x="247.88" y="-844.7" font-family="Arial" font-size="14.00">Escolar (PCC</text>
<text text-anchor="middle" x="247.88" y="-828.95" font-family="Arial" font-size="14.00">18h&#45;a)</text>
</g>
<!-- ANT8104&#45;&gt;EED8007 -->
<!-- ENS8602 -->
<g id="node18" class="node">
<title>ENS8602</title>
<polygon fill="#fb8072" stroke="#fb8072" points="305,-804.75 190.75,-804.75 190.75,-749.25 305,-749.25 305,-804.75"/>
<text text-anchor="middle" x="247.88" y="-787.45" font-family="Arial" font-size="14.00">ENS8602</text>
<text text-anchor="middle" x="247.88" y="-755.7" font-family="Arial" font-size="14.00">Gestão da Água</text>
</g>
<!-- ANT8104&#45;&gt;ENS8602 -->
<!-- HST8217 -->
<g id="node19" class="node">
<title>HST8217</title>
<polygon fill="#80b1d3" stroke="#80b1d3" points="322.25,-731 173.5,-731 173.5,-581 322.25,-581 322.25,-731"/>
<text text-anchor="middle" x="247.88" y="-713.7" font-family="Arial" font-size="14.00">HST8217</text>
<text text-anchor="middle" x="247.88" y="-681.95" font-family="Arial" font-size="14.00">Fundamentos da</text>
<text text-anchor="middle" x="247.88" y="-666.2" font-family="Arial" font-size="14.00">Educação:</text>
<text text-anchor="middle" x="247.88" y="-650.45" font-family="Arial" font-size="14.00">Teorias e</text>
<text text-anchor="middle" x="247.88" y="-634.7" font-family="Arial" font-size="14.00">Práticas de</text>
<text text-anchor="middle" x="247.88" y="-618.95" font-family="Arial" font-size="14.00">Ensino/Aprendizagem</text>
<text text-anchor="middle" x="247.88" y="-603.2" font-family="Arial" font-size="14.00">na Diversidade</text>
<text text-anchor="middle" x="247.88" y="-587.45" font-family="Arial" font-size="14.00">(PCC 54h&#45;a)</text>
</g>
<!-- ANT8104&#45;&gt;HST8217 -->
<!-- HST8402 -->
<g id="node20" class="node">
<title>HST8402</title>
<polygon fill="#80b1d3" stroke="#80b1d3" points="299.38,-562.5 196.38,-562.5 196.38,-475.5 299.38,-475.5 299.38,-562.5"/>
<text text-anchor="middle" x="247.88" y="-545.2" font-family="Arial" font-size="14.00">HST8402</text>
<text text-anchor="middle" x="247.88" y="-513.45" font-family="Arial" font-size="14.00">Histórica</text>
<text text-anchor="middle" x="247.88" y="-497.7" font-family="Arial" font-size="14.00">Indígena pré e</text>
<text text-anchor="middle" x="247.88" y="-481.95" font-family="Arial" font-size="14.00">pós&#45;colonial II</text>
</g>
<!-- ANT8104&#45;&gt;HST8402 -->
<!-- ANT8304 -->
<g id="node12" class="node">
<title>ANT8304</title>
<polygon fill="#8dd3c7" stroke="#8dd3c7" points="131.15,-730.75 30.35,-730.75 30.35,-675.25 131.15,-675.25 131.15,-730.75"/>
<text text-anchor="middle" x="80.75" y="-713.45" font-family="Arial" font-size="14.00">ANT8304</text>
<text text-anchor="middle" x="80.75" y="-681.7" font-family="Arial" font-size="14.00">Antropologia I</text>
</g>
<!-- HST8117 -->
<g id="node13" class="node">
<title>HST8117</title>
<polygon fill="#80b1d3" stroke="#80b1d3" points="137.5,-657.12 24,-657.12 24,-522.88 137.5,-522.88 137.5,-657.12"/>
<text text-anchor="middle" x="80.75" y="-639.83" font-family="Arial" font-size="14.00">HST8117</text>
<text text-anchor="middle" x="80.75" y="-608.08" font-family="Arial" font-size="14.00">Projetos de</text>
<text text-anchor="middle" x="80.75" y="-592.33" font-family="Arial" font-size="14.00">Ensino,</text>
<text text-anchor="middle" x="80.75" y="-576.58" font-family="Arial" font-size="14.00">Pesquisae ação</text>
<text text-anchor="middle" x="80.75" y="-560.83" font-family="Arial" font-size="14.00">I (PCC de 54h&#45;a</text>
<text text-anchor="middle" x="80.75" y="-545.08" font-family="Arial" font-size="14.00">e Extensão de</text>
<text text-anchor="middle" x="80.75" y="-529.33" font-family="Arial" font-size="14.00">36h&#45;a)</text>
</g>
<!-- HST8322 -->
<g id="node14" class="node">
<title>HST8322</title>
<polygon fill="#80b1d3" stroke="#80b1d3" points="133,-504.5 28.5,-504.5 28.5,-417.5 133,-417.5 133,-504.5"/>
<text text-anchor="middle" x="80.75" y="-487.2" font-family="Arial" font-size="14.00">HST8322</text>
<text text-anchor="middle" x="80.75" y="-455.45" font-family="Arial" font-size="14.00">História</text>
<text text-anchor="middle" x="80.75" y="-439.7" font-family="Arial" font-size="14.00">Indígena Pré e</text>
<text text-anchor="middle" x="80.75" y="-423.95" font-family="Arial" font-size="14.00">Pós&#45;Colonial I</text>
</g>
<!-- MUS7924 -->
<g id="node15" class="node">
<title>MUS7924</title>
<polygon fill="#fdb462" stroke="#fdb462" points="131.15,-399.5 30.35,-399.5 30.35,-312.5 131.15,-312.5 131.15,-399.5"/>
<text text-anchor="middle" x="80.75" y="-382.2" font-family="Arial" font-size="14.00">MUS7924</text>
<text text-anchor="middle" x="80.75" y="-350.45" font-family="Arial" font-size="14.00">Patrimônio</text>
<text text-anchor="middle" x="80.75" y="-334.7" font-family="Arial" font-size="14.00">Material e</text>
<text text-anchor="middle" x="80.75" y="-318.95" font-family="Arial" font-size="14.00">Imaterial</text>
</g>
<!-- DIR8302 -->
<g id="node21" class="node">
<title>DIR8302</title>
<polygon fill="#8dd3c7" stroke="#8dd3c7" points="479.27,-982.62 378.48,-982.62 378.48,-911.38 479.27,-911.38 479.27,-982.62"/>
<text text-anchor="middle" x="428.88" y="-965.33" font-family="Arial" font-size="14.00">DIR8302</text>
<text text-anchor="middle" x="428.88" y="-933.58" font-family="Arial" font-size="14.00">Direitos</text>
<text text-anchor="middle" x="428.88" y="-917.83" font-family="Arial" font-size="14.00">Indígenas I</text>
</g>
<!-- HST8402&#45;&gt;DIR8302 -->
<!-- HST8120 -->
<g id="node22" class="node">
<title>HST8120</title>
<polygon fill="#80b1d3" stroke="#80b1d3" points="483.75,-893.62 374,-893.62 374,-822.38 483.75,-822.38 483.75,-893.62"/>
<text text-anchor="middle" x="428.88" y="-876.33" font-family="Arial" font-size="14.00">HST8120</text>
<text text-anchor="middle" x="428.88" y="-844.58" font-family="Arial" font-size="14.00">Língua Guarani</text>
<text text-anchor="middle" x="428.88" y="-828.83" font-family="Arial" font-size="14.00">I</text>
</g>
<!-- HST8402&#45;&gt;HST8120 -->
<!-- HST8121 -->
<g id="node23" class="node">
<title>HST8121</title>
<polygon fill="#80b1d3" stroke="#80b1d3" points="487.88,-804.62 369.88,-804.62 369.88,-733.38 487.88,-733.38 487.88,-804.62"/>
<text text-anchor="middle" x="428.88" y="-787.33" font-family="Arial" font-size="14.00">HST8121</text>
<text text-anchor="middle" x="428.88" y="-755.58" font-family="Arial" font-size="14.00">Língua Kaingang</text>
<text text-anchor="middle" x="428.88" y="-739.83" font-family="Arial" font-size="14.00">I</text>
</g>
<!-- HST8402&#45;&gt;HST8121 -->
<!-- HST8122 -->
<g id="node24" class="node">
<title>HST8122</title>
<polygon fill="#80b1d3" stroke="#80b1d3" points="487.12,-715.5 370.62,-715.5 370.62,-628.5 487.12,-628.5 487.12,-715.5"/>
<text text-anchor="middle" x="428.88" y="-698.2" font-family="Arial" font-size="14.00">HST8122</text>
<text text-anchor="middle" x="428.88" y="-666.45" font-family="Arial" font-size="14.00">Língua</text>
<text text-anchor="middle" x="428.88" y="-650.7" font-family="Arial" font-size="14.00">Laklãnõ&#45;Xokleng</text>
<text text-anchor="middle" x="428.88" y="-634.95" font-family="Arial" font-size="14.00">I</text>
</g>
<!-- HST8402&#45;&gt;HST8122 -->
<!-- HST8123 -->
<g id="node25" class="node">
<title>HST8123</title>
<polygon fill="#80b1d3" stroke="#80b1d3" points="498,-610.38 359.75,-610.38 359.75,-507.62 498,-507.62 498,-610.38"/>
<text text-anchor="middle" x="428.88" y="-593.08" font-family="Arial" font-size="14.00">HST8123</text>
<text text-anchor="middle" x="428.88" y="-561.33" font-family="Arial" font-size="14.00">Língua</text>
<text text-anchor="middle" x="428.88" y="-545.58" font-family="Arial" font-size="14.00">Português&#45;Brasileiro</text>
<text text-anchor="middle" x="428.88" y="-529.83" font-family="Arial" font-size="14.00">I: Turma</text>
<text text-anchor="middle" x="428.88" y="-514.08" font-family="Arial" font-size="14.00">Guarani</text>
</g>
<!-- HST8402&#45;&gt;HST8123 -->
<!-- HST8124 -->
<g id="node26" class="node">
<title>HST8124</title>
<polygon fill="#80b1d3" stroke="#80b1d3" points="494.62,-489.38 363.12,-489.38 363.12,-386.62 494.62,-386.62 494.62,-489.38"/>
<text text-anchor="middle" x="428.88" y="-472.07" font-family="Arial" font-size="14.00">HST8124</text>
<text text-anchor="middle" x="428.88" y="-440.32" font-family="Arial" font-size="14.00">Língua</text>
<text text-anchor="middle" x="428.88" y="-424.57" font-family="Arial" font-size="14.00">Português&#45;Braileiro</text>
<text text-anchor="middle" x="428.88" y="-408.82" font-family="Arial" font-size="14.00">I: Turma</text>
<text text-anchor="middle" x="428.88" y="-393.07" font-family="Arial" font-size="14.00">Kaingang</text>
</g>
<!-- HST8402&#45;&gt;HST8124 -->
<!-- HST8125 -->
<g id="node27" class="node">
<title>HST8125</title>
<polygon fill="#80b1d3" stroke="#80b1d3" points="499.5,-368.38 358.25,-368.38 358.25,-265.62 499.5,-265.62 499.5,-368.38"/>
<text text-anchor="middle" x="428.88" y="-351.07" font-family="Arial" font-size="14.00">HST8125</text>
<text text-anchor="middle" x="428.88" y="-319.32" font-family="Arial" font-size="14.00">Língua</text>
<text text-anchor="middle" x="428.88" y="-303.57" font-family="Arial" font-size="14.00">Português&#45;Brasilleiro</text>
<text text-anchor="middle" x="428.88" y="-287.82" font-family="Arial" font-size="14.00">I: Laklãnõ&#45;</text>
<text text-anchor="middle" x="428.88" y="-272.07" font-family="Arial" font-size="14.00">Xokleng</text>
</g>
<!-- HST8402&#45;&gt;HST8125 -->
<!-- HST8218 -->
<g id="node28" class="node">
<title>HST8218</title>
<polygon fill="#80b1d3" stroke="#80b1d3" points="487.5,-247.38 370.25,-247.38 370.25,-144.62 487.5,-144.62 487.5,-247.38"/>
<text text-anchor="middle" x="428.88" y="-230.07" font-family="Arial" font-size="14.00">HST8218</text>
<text text-anchor="middle" x="428.88" y="-198.32" font-family="Arial" font-size="14.00">Projetos de</text>
<text text-anchor="middle" x="428.88" y="-182.57" font-family="Arial" font-size="14.00">Ensino,</text>
<text text-anchor="middle" x="428.88" y="-166.82" font-family="Arial" font-size="14.00">Pesquisa e Ação</text>
<text text-anchor="middle" x="428.88" y="-151.07" font-family="Arial" font-size="14.00">II (PCC 54h&#45;a)</text>
</g>
<!-- HST8402&#45;&gt;HST8218 -->
<!-- PSI5161 -->
<g id="node29" class="node">
<title>PSI5161</title>
<polygon fill="#80b1d3" stroke="#80b1d3" points="487.12,-126.38 370.62,-126.38 370.62,-23.63 487.12,-23.63 487.12,-126.38"/>
<text text-anchor="middle" x="428.88" y="-109.08" font-family="Arial" font-size="14.00">PSI5161</text>
<text text-anchor="middle" x="428.88" y="-77.33" font-family="Arial" font-size="14.00">Psicologia</text>
<text text-anchor="middle" x="428.88" y="-61.58" font-family="Arial" font-size="14.00">Educacional e</text>
<text text-anchor="middle" x="428.88" y="-45.83" font-family="Arial" font-size="14.00">Povos Indígenas</text>
<text text-anchor="middle" x="428.88" y="-30.07" font-family="Arial" font-size="14.00">(PCC 12h&#45;a)</text>
</g>
<!-- HST8402&#45;&gt;PSI5161 -->
<!-- DIR8402 -->
<g id="node30" class="node">
<title>DIR8402</title>
<polygon fill="#8dd3c7" stroke="#8dd3c7" points="656.52,-967.62 555.73,-967.62 555.73,-896.38 656.52,-896.38 656.52,-967.62"/>
<text text-anchor="middle" x="606.12" y="-950.33" font-family="Arial" font-size="14.00">DIR8402</text>
<text text-anchor="middle" x="606.12" y="-918.58" font-family="Arial" font-size="14.00">Direitos</text>
<text text-anchor="middle" x="606.12" y="-902.83" font-family="Arial" font-size="14.00">Indígenas II</text>
</g>
<!-- PSI5161&#45;&gt;DIR8402 -->
<!-- GCN8501 -->
<g id="node31" class="node">
<title>GCN8501</title>
<polygon fill="#fdb462" stroke="#fdb462" points="665.12,-878.25 547.12,-878.25 547.12,-759.75 665.12,-759.75 665.12,-878.25"/>
<text text-anchor="middle" x="606.12" y="-860.95" font-family="Arial" font-size="14.00">GCN8501</text>
<text text-anchor="middle" x="606.12" y="-829.2" font-family="Arial" font-size="14.00">Cartografia e</text>
<text text-anchor="middle" x="606.12" y="-813.45" font-family="Arial" font-size="14.00">Reconhecimento</text>
<text text-anchor="middle" x="606.12" y="-797.7" font-family="Arial" font-size="14.00">do Espaço</text>
<text text-anchor="middle" x="606.12" y="-781.95" font-family="Arial" font-size="14.00">Geográfico</text>
<text text-anchor="middle" x="606.12" y="-766.2" font-family="Arial" font-size="14.00">Indígena</text>
</g>
<!-- PSI5161&#45;&gt;GCN8501 -->
<!-- HST8220 -->
<g id="node32" class="node">
<title>HST8220</title>
<polygon fill="#80b1d3" stroke="#80b1d3" points="661,-741.62 551.25,-741.62 551.25,-670.38 661,-670.38 661,-741.62"/>
<text text-anchor="middle" x="606.12" y="-724.33" font-family="Arial" font-size="14.00">HST8220</text>
<text text-anchor="middle" x="606.12" y="-692.58" font-family="Arial" font-size="14.00">Língua Guarani</text>
<text text-anchor="middle" x="606.12" y="-676.83" font-family="Arial" font-size="14.00">II</text>
</g>
<!-- PSI5161&#45;&gt;HST8220 -->
<!-- HST8221 -->
<g id="node33" class="node">
<title>HST8221</title>
<polygon fill="#80b1d3" stroke="#80b1d3" points="665.12,-652.62 547.12,-652.62 547.12,-581.38 665.12,-581.38 665.12,-652.62"/>
<text text-anchor="middle" x="606.12" y="-635.33" font-family="Arial" font-size="14.00">HST8221</text>
<text text-anchor="middle" x="606.12" y="-603.58" font-family="Arial" font-size="14.00">Língua Kaingang</text>
<text text-anchor="middle" x="606.12" y="-587.83" font-family="Arial" font-size="14.00">II</text>
</g>
<!-- PSI5161&#45;&gt;HST8221 -->
<!-- HST8222 -->
<g id="node34" class="node">
<title>HST8222</title>
<polygon fill="#80b1d3" stroke="#80b1d3" points="664.38,-563.5 547.88,-563.5 547.88,-476.5 664.38,-476.5 664.38,-563.5"/>
<text text-anchor="middle" x="606.12" y="-546.2" font-family="Arial" font-size="14.00">HST8222</text>
<text text-anchor="middle" x="606.12" y="-514.45" font-family="Arial" font-size="14.00">Língua</text>
<text text-anchor="middle" x="606.12" y="-498.7" font-family="Arial" font-size="14.00">Laklãnõ&#45;Xokleng</text>
<text text-anchor="middle" x="606.12" y="-482.95" font-family="Arial" font-size="14.00">II</text>
</g>
<!-- PSI5161&#45;&gt;HST8222 -->
<!-- HST8223 -->
<g id="node35" class="node">
<title>HST8223</title>
<polygon fill="#80b1d3" stroke="#80b1d3" points="676.75,-458.38 535.5,-458.38 535.5,-355.62 676.75,-355.62 676.75,-458.38"/>
<text text-anchor="middle" x="606.12" y="-441.07" font-family="Arial" font-size="14.00">HST8223</text>
<text text-anchor="middle" x="606.12" y="-409.32" font-family="Arial" font-size="14.00">Língua</text>
<text text-anchor="middle" x="606.12" y="-393.57" font-family="Arial" font-size="14.00">Português&#45;Brasilleiro</text>
<text text-anchor="middle" x="606.12" y="-377.82" font-family="Arial" font-size="14.00">II: Turma</text>
<text text-anchor="middle" x="606.12" y="-362.07" font-family="Arial" font-size="14.00">Guarani</text>
</g>
<!-- PSI5161&#45;&gt;HST8223 -->
<!-- HST8224 -->
<g id="node36" class="node">
<title>HST8224</title>
<polygon fill="#80b1d3" stroke="#80b1d3" points="664.38,-337.5 547.88,-337.5 547.88,-250.5 664.38,-250.5 664.38,-337.5"/>
<text text-anchor="middle" x="606.12" y="-320.2" font-family="Arial" font-size="14.00">HST8224</text>
<text text-anchor="middle" x="606.12" y="-288.45" font-family="Arial" font-size="14.00">Língua</text>
<text text-anchor="middle" x="606.12" y="-272.7" font-family="Arial" font-size="14.00">Português II:</text>
<text text-anchor="middle" x="606.12" y="-256.95" font-family="Arial" font-size="14.00">Turma Kaingang</text>
</g>
<!-- PSI5161&#45;&gt;HST8224 -->
<!-- HST8225 -->
<g id="node37" class="node">
<title>HST8225</title>
<polygon fill="#80b1d3" stroke="#80b1d3" points="675.25,-232.38 537,-232.38 537,-129.62 675.25,-129.62 675.25,-232.38"/>
<text text-anchor="middle" x="606.12" y="-215.07" font-family="Arial" font-size="14.00">HST8225</text>
<text text-anchor="middle" x="606.12" y="-183.32" font-family="Arial" font-size="14.00">Língua</text>
<text text-anchor="middle" x="606.12" y="-167.57" font-family="Arial" font-size="14.00">Português&#45;Brasileiro</text>
<text text-anchor="middle" x="606.12" y="-151.82" font-family="Arial" font-size="14.00">II: Turma</text>
<text text-anchor="middle" x="606.12" y="-136.07" font-family="Arial" font-size="14.00">Laklãnõ&#45;Xokleng</text>
</g>
<!-- PSI5161&#45;&gt;HST8225 -->
<!-- MEN8510 -->
<g id="node38" class="node">
<title>MEN8510</title>
<polygon fill="#ffffb3" stroke="#ffffb3" points="660.62,-111.5 551.62,-111.5 551.62,-24.5 660.62,-24.5 660.62,-111.5"/>
<text text-anchor="middle" x="606.12" y="-94.2" font-family="Arial" font-size="14.00">MEN8510</text>
<text text-anchor="middle" x="606.12" y="-62.45" font-family="Arial" font-size="14.00">Metodologia de</text>
<text text-anchor="middle" x="606.12" y="-46.7" font-family="Arial" font-size="14.00">Ensino (PCC</text>
<text text-anchor="middle" x="606.12" y="-30.95" font-family="Arial" font-size="14.00">36h&#45;a)</text>
</g>
<!-- PSI5161&#45;&gt;MEN8510 -->
<!-- HST8330 -->
<g id="node39" class="node">
<title>HST8330</title>
<polygon fill="#80b1d3" stroke="#80b1d3" points="826.62,-693.62 716.88,-693.62 716.88,-622.38 826.62,-622.38 826.62,-693.62"/>
<text text-anchor="middle" x="771.75" y="-676.33" font-family="Arial" font-size="14.00">HST8330</text>
<text text-anchor="middle" x="771.75" y="-644.58" font-family="Arial" font-size="14.00">Língua Guarani</text>
<text text-anchor="middle" x="771.75" y="-628.83" font-family="Arial" font-size="14.00">III</text>
</g>
<!-- MEN8510&#45;&gt;HST8330 -->
<!-- HST8331 -->
<g id="node40" class="node">
<title>HST8331</title>
<polygon fill="#80b1d3" stroke="#80b1d3" points="830.75,-604.62 712.75,-604.62 712.75,-533.38 830.75,-533.38 830.75,-604.62"/>
<text text-anchor="middle" x="771.75" y="-587.33" font-family="Arial" font-size="14.00">HST8331</text>
<text text-anchor="middle" x="771.75" y="-555.58" font-family="Arial" font-size="14.00">Língua Kaingang</text>
<text text-anchor="middle" x="771.75" y="-539.83" font-family="Arial" font-size="14.00">III</text>
</g>
<!-- MEN8510&#45;&gt;HST8331 -->
<!-- HST8332 -->
<g id="node41" class="node">
<title>HST8332</title>
<polygon fill="#80b1d3" stroke="#80b1d3" points="830,-515.5 713.5,-515.5 713.5,-428.5 830,-428.5 830,-515.5"/>
<text text-anchor="middle" x="771.75" y="-498.2" font-family="Arial" font-size="14.00">HST8332</text>
<text text-anchor="middle" x="771.75" y="-466.45" font-family="Arial" font-size="14.00">Língua</text>
<text text-anchor="middle" x="771.75" y="-450.7" font-family="Arial" font-size="14.00">Laklãnõ&#45;Xokleng</text>
<text text-anchor="middle" x="771.75" y="-434.95" font-family="Arial" font-size="14.00">III</text>
</g>
<!-- MEN8510&#45;&gt;HST8332 -->
<!-- LSB7244 -->
<g id="node42" class="node">
<title>LSB7244</title>
<g id="a_node42"><a xlink:title="Prática de conversação em Libras habilitando o aluno a se comunicar nível básico. Mitos e Crenças relacionadas à Língua Brasileira de Sinais (Libras) e aos Surdos. Noções sobre os estudos linguísticos das línguas de sinais em diferentes níveis da descrição linguística. Conceitos básicos da Língua Brasileira de Sinais como iconicidade e arbitrariedade e aspectos culturais e históricos específicos da comunidade surda brasileira. Educação de surdos, papéis dos professores e de intérpretes de libras&#45;português em uma perspectiva inclusiva. Atividades de prática como componente curricular aplicadas à comunicação em Libras.">
<polygon fill="#fb8072" stroke="#fb8072" points="822.5,-410.38 721,-410.38 721,-307.62 822.5,-307.62 822.5,-410.38"/>
<text text-anchor="middle" x="771.75" y="-393.07" font-family="Arial" font-size="14.00">LSB7244</text>
<text text-anchor="middle" x="771.75" y="-361.32" font-family="Arial" font-size="14.00">Língua</text>
<text text-anchor="middle" x="771.75" y="-345.57" font-family="Arial" font-size="14.00">Brasileira de</text>
<text text-anchor="middle" x="771.75" y="-329.82" font-family="Arial" font-size="14.00">Sinais &#45; Libras</text>
<text text-anchor="middle" x="771.75" y="-314.07" font-family="Arial" font-size="14.00">I (PCC 18h&#45;a)</text>
</a>
</g>
</g>
<!-- MEN8510&#45;&gt;LSB7244 -->
<!-- MEN8511 -->
<g id="node43" class="node">
<title>MEN8511</title>
<polygon fill="#ffffb3" stroke="#ffffb3" points="828.5,-289.62 715,-289.62 715,-218.38 828.5,-218.38 828.5,-289.62"/>
<text text-anchor="middle" x="771.75" y="-272.32" font-family="Arial" font-size="14.00">MEN8511</text>
<text text-anchor="middle" x="771.75" y="-240.57" font-family="Arial" font-size="14.00">Estágio Guarani</text>
<text text-anchor="middle" x="771.75" y="-224.82" font-family="Arial" font-size="14.00">I</text>
</g>
<!-- MEN8510&#45;&gt;MEN8511 -->
<!-- MEN8512 -->
<g id="node44" class="node">
<title>MEN8512</title>
<polygon fill="#ffffb3" stroke="#ffffb3" points="822.15,-200.62 721.35,-200.62 721.35,-129.38 822.15,-129.38 822.15,-200.62"/>
<text text-anchor="middle" x="771.75" y="-183.32" font-family="Arial" font-size="14.00">MEN8512</text>
<text text-anchor="middle" x="771.75" y="-151.57" font-family="Arial" font-size="14.00">Estágio</text>
<text text-anchor="middle" x="771.75" y="-135.82" font-family="Arial" font-size="14.00">Kaingang I</text>
</g>
<!-- MEN8510&#45;&gt;MEN8512 -->
<!-- MEN8513 -->
<g id="node45" class="node">
<title>MEN8513</title>
<polygon fill="#ffffb3" stroke="#ffffb3" points="830,-111.5 713.5,-111.5 713.5,-24.5 830,-24.5 830,-111.5"/>
<text text-anchor="middle" x="771.75" y="-94.2" font-family="Arial" font-size="14.00">MEN8513</text>
<text text-anchor="middle" x="771.75" y="-62.45" font-family="Arial" font-size="14.00">Estágio</text>
<text text-anchor="middle" x="771.75" y="-46.7" font-family="Arial" font-size="14.00">Laklãnõ&#45;Xokleng</text>
<text text-anchor="middle" x="771.75" y="-30.95" font-family="Arial" font-size="14.00">I</text>
</g>
<!-- MEN8510&#45;&gt;MEN8513 -->
<!-- ANT8511 -->
<g id="node46" class="node">
<title>ANT8511</title>
<polygon fill="#8dd3c7" stroke="#8dd3c7" points="998.25,-336.38 890.75,-336.38 890.75,-233.62 998.25,-233.62 998.25,-336.38"/>
<text text-anchor="middle" x="944.5" y="-319.07" font-family="Arial" font-size="14.00">ANT8511</text>
<text text-anchor="middle" x="944.5" y="-287.32" font-family="Arial" font-size="14.00">Controle e</text>
<text text-anchor="middle" x="944.5" y="-271.57" font-family="Arial" font-size="14.00">Monitoramento</text>
<text text-anchor="middle" x="944.5" y="-255.82" font-family="Arial" font-size="14.00">de Áreas</text>
<text text-anchor="middle" x="944.5" y="-240.07" font-family="Arial" font-size="14.00">Indígenas</text>
</g>
<!-- MEN8513&#45;&gt;ANT8511 -->
<!-- ECZ8511 -->
<g id="node47" class="node">
<title>ECZ8511</title>
<polygon fill="#8dd3c7" stroke="#8dd3c7" points="998.25,-215.38 890.75,-215.38 890.75,-112.62 998.25,-112.62 998.25,-215.38"/>
<text text-anchor="middle" x="944.5" y="-198.07" font-family="Arial" font-size="14.00">ECZ8511</text>
<text text-anchor="middle" x="944.5" y="-166.32" font-family="Arial" font-size="14.00">Saberes</text>
<text text-anchor="middle" x="944.5" y="-150.57" font-family="Arial" font-size="14.00">Tradicionais no</text>
<text text-anchor="middle" x="944.5" y="-134.82" font-family="Arial" font-size="14.00">Bioma Mata</text>
<text text-anchor="middle" x="944.5" y="-119.08" font-family="Arial" font-size="14.00">Atlântica</text>
</g>
<!-- MEN8513&#45;&gt;ECZ8511 -->
<!-- ANT8522 -->
<g id="node48" class="node">
<title>ANT8522</title>
<polygon fill="#8dd3c7" stroke="#8dd3c7" points="1188.28,-299.75 1087.47,-299.75 1087.47,-244.25 1188.28,-244.25 1188.28,-299.75"/>
<text text-anchor="middle" x="1137.88" y="-282.45" font-family="Arial" font-size="14.00">ANT8522</text>
<text text-anchor="middle" x="1137.88" y="-250.7" font-family="Arial" font-size="14.00">Artes I</text>
</g>
<!-- ECZ8511&#45;&gt;ANT8522 -->
<!-- ANT8523 -->
<g id="node49" class="node">
<title>ANT8523</title>
<polygon fill="#8dd3c7" stroke="#8dd3c7" points="1188.28,-225.75 1087.47,-225.75 1087.47,-170.25 1188.28,-170.25 1188.28,-225.75"/>
<text text-anchor="middle" x="1137.88" y="-208.45" font-family="Arial" font-size="14.00">ANT8523</text>
<text text-anchor="middle" x="1137.88" y="-176.7" font-family="Arial" font-size="14.00">Literatura I</text>
</g>
<!-- ECZ8511&#45;&gt;ANT8523 -->
<!-- ANT8611 -->
<g id="node50" class="node">
<title>ANT8611</title>
<polygon fill="#8dd3c7" stroke="#8dd3c7" points="1386.88,-349.75 1275.62,-349.75 1275.62,-294.25 1386.88,-294.25 1386.88,-349.75"/>
<text text-anchor="middle" x="1331.25" y="-332.45" font-family="Arial" font-size="14.00">ANT8611</text>
<text text-anchor="middle" x="1331.25" y="-300.7" font-family="Arial" font-size="14.00">Saúde Indígena</text>
</g>
<!-- ANT8523&#45;&gt;ANT8611 -->
<!-- ECZ8611 -->
<g id="node51" class="node">
<title>ECZ8611</title>
<polygon fill="#8dd3c7" stroke="#8dd3c7" points="1389.12,-276.5 1273.38,-276.5 1273.38,-189.5 1389.12,-189.5 1389.12,-276.5"/>
<text text-anchor="middle" x="1331.25" y="-259.2" font-family="Arial" font-size="14.00">ECZ8611</text>
<text text-anchor="middle" x="1331.25" y="-227.45" font-family="Arial" font-size="14.00">Projetos para</text>
<text text-anchor="middle" x="1331.25" y="-211.7" font-family="Arial" font-size="14.00">Sustentabilidade</text>
<text text-anchor="middle" x="1331.25" y="-195.95" font-family="Arial" font-size="14.00">(EXT 36h&#45;a)</text>
</g>
<!-- ANT8523&#45;&gt;ECZ8611 -->
<!-- ANT8622 -->
<g id="node52" class="node">
<title>ANT8622</title>
<polygon fill="#8dd3c7" stroke="#8dd3c7" points="1575.03,-418.62 1474.22,-418.62 1474.22,-347.38 1575.03,-347.38 1575.03,-418.62"/>
<text text-anchor="middle" x="1524.62" y="-401.32" font-family="Arial" font-size="14.00">ANT8622</text>
<text text-anchor="middle" x="1524.62" y="-369.57" font-family="Arial" font-size="14.00">Artes II (EXT</text>
<text text-anchor="middle" x="1524.62" y="-353.82" font-family="Arial" font-size="14.00">36h&#45;a)</text>
</g>
<!-- ECZ8611&#45;&gt;ANT8622 -->
<!-- ANT8623 -->
<g id="node53" class="node">
<title>ANT8623</title>
<polygon fill="#8dd3c7" stroke="#8dd3c7" points="1575.03,-329.75 1474.22,-329.75 1474.22,-274.25 1575.03,-274.25 1575.03,-329.75"/>
<text text-anchor="middle" x="1524.62" y="-312.45" font-family="Arial" font-size="14.00">ANT8623</text>
<text text-anchor="middle" x="1524.62" y="-280.7" font-family="Arial" font-size="14.00">Literatura II</text>
</g>
<!-- ECZ8611&#45;&gt;ANT8623 -->
<!-- ART8001 -->
<g id="node54" class="node">
<title>ART8001</title>
<polygon fill="#80b1d3" stroke="#80b1d3" points="1749.65,-798.5 1648.85,-798.5 1648.85,-711.5 1749.65,-711.5 1749.65,-798.5"/>
<text text-anchor="middle" x="1699.25" y="-781.2" font-family="Arial" font-size="14.00">ART8001</text>
<text text-anchor="middle" x="1699.25" y="-749.45" font-family="Arial" font-size="14.00">Audiovisual I</text>
<text text-anchor="middle" x="1699.25" y="-733.7" font-family="Arial" font-size="14.00">(PCC 36h&#45;a e</text>
<text text-anchor="middle" x="1699.25" y="-717.95" font-family="Arial" font-size="14.00">EXT 36h&#45;a)</text>
</g>
<!-- ANT8623&#45;&gt;ART8001 -->
<!-- HST8406 -->
<g id="node55" class="node">
<title>HST8406</title>
<polygon fill="#80b1d3" stroke="#80b1d3" points="1757.12,-693.38 1641.38,-693.38 1641.38,-590.62 1757.12,-590.62 1757.12,-693.38"/>
<text text-anchor="middle" x="1699.25" y="-676.08" font-family="Arial" font-size="14.00">HST8406</text>
<text text-anchor="middle" x="1699.25" y="-644.33" font-family="Arial" font-size="14.00">Projeto de</text>
<text text-anchor="middle" x="1699.25" y="-628.58" font-family="Arial" font-size="14.00">Ensino,</text>
<text text-anchor="middle" x="1699.25" y="-612.83" font-family="Arial" font-size="14.00">Pesquisa e ação</text>
<text text-anchor="middle" x="1699.25" y="-597.08" font-family="Arial" font-size="14.00">III (PCC 54h&#45;a)</text>
</g>
<!-- ANT8623&#45;&gt;HST8406 -->
<!-- HST8420 -->
<g id="node56" class="node">
<title>HST8420</title>
<polygon fill="#80b1d3" stroke="#80b1d3" points="1754.12,-572.62 1644.38,-572.62 1644.38,-501.38 1754.12,-501.38 1754.12,-572.62"/>
<text text-anchor="middle" x="1699.25" y="-555.33" font-family="Arial" font-size="14.00">HST8420</text>
<text text-anchor="middle" x="1699.25" y="-523.58" font-family="Arial" font-size="14.00">Língua Guarani</text>
<text text-anchor="middle" x="1699.25" y="-507.82" font-family="Arial" font-size="14.00">IV</text>
</g>
<!-- ANT8623&#45;&gt;HST8420 -->
<!-- HST8421 -->
<g id="node57" class="node">
<title>HST8421</title>
<polygon fill="#80b1d3" stroke="#80b1d3" points="1758.25,-483.62 1640.25,-483.62 1640.25,-412.38 1758.25,-412.38 1758.25,-483.62"/>
<text text-anchor="middle" x="1699.25" y="-466.32" font-family="Arial" font-size="14.00">HST8421</text>
<text text-anchor="middle" x="1699.25" y="-434.57" font-family="Arial" font-size="14.00">Língua Kaingang</text>
<text text-anchor="middle" x="1699.25" y="-418.82" font-family="Arial" font-size="14.00">IV</text>
</g>
<!-- ANT8623&#45;&gt;HST8421 -->
<!-- HST8422 -->
<g id="node58" class="node">
<title>HST8422</title>
<polygon fill="#80b1d3" stroke="#80b1d3" points="1757.5,-394.5 1641,-394.5 1641,-307.5 1757.5,-307.5 1757.5,-394.5"/>
<text text-anchor="middle" x="1699.25" y="-377.2" font-family="Arial" font-size="14.00">HST8422</text>
<text text-anchor="middle" x="1699.25" y="-345.45" font-family="Arial" font-size="14.00">Língua</text>
<text text-anchor="middle" x="1699.25" y="-329.7" font-family="Arial" font-size="14.00">Laklãnõ&#45;Xokleng</text>
<text text-anchor="middle" x="1699.25" y="-313.95" font-family="Arial" font-size="14.00">IV</text>
</g>
<!-- ANT8623&#45;&gt;HST8422 -->
<!-- MEN8611 -->
<g id="node59" class="node">
<title>MEN8611</title>
<polygon fill="#ffffb3" stroke="#ffffb3" points="1756,-289.62 1642.5,-289.62 1642.5,-218.38 1756,-218.38 1756,-289.62"/>
<text text-anchor="middle" x="1699.25" y="-272.32" font-family="Arial" font-size="14.00">MEN8611</text>
<text text-anchor="middle" x="1699.25" y="-240.57" font-family="Arial" font-size="14.00">Estágio Guarani</text>
<text text-anchor="middle" x="1699.25" y="-224.82" font-family="Arial" font-size="14.00">II</text>
</g>
<!-- ANT8623&#45;&gt;MEN8611 -->
<!-- MEN8612 -->
<g id="node60" class="node">
<title>MEN8612</title>
<polygon fill="#ffffb3" stroke="#ffffb3" points="1749.65,-200.62 1648.85,-200.62 1648.85,-129.38 1749.65,-129.38 1749.65,-200.62"/>
<text text-anchor="middle" x="1699.25" y="-183.32" font-family="Arial" font-size="14.00">MEN8612</text>
<text text-anchor="middle" x="1699.25" y="-151.57" font-family="Arial" font-size="14.00">Estágio</text>
<text text-anchor="middle" x="1699.25" y="-135.82" font-family="Arial" font-size="14.00">Kaingang II</text>
</g>
<!-- ANT8623&#45;&gt;MEN8612 -->
<!-- MEN8613 -->
<g id="node61" class="node">
<title>MEN8613</title>
<polygon fill="#ffffb3" stroke="#ffffb3" points="1757.5,-111.5 1641,-111.5 1641,-24.5 1757.5,-24.5 1757.5,-111.5"/>
<text text-anchor="middle" x="1699.25" y="-94.2" font-family="Arial" font-size="14.00">MEN8613</text>
<text text-anchor="middle" x="1699.25" y="-62.45" font-family="Arial" font-size="14.00">Estágio</text>
<text text-anchor="middle" x="1699.25" y="-46.7" font-family="Arial" font-size="14.00">Laklãnõ&#45;Xokleng</text>
<text text-anchor="middle" x="1699.25" y="-30.95" font-family="Arial" font-size="14.00">II</text>
</g>
<!-- ANT8623&#45;&gt;MEN8613 -->
</g>
</svg>
