<?xml version="1.0" encoding="UTF-8" standalone="no"?>
<!DOCTYPE svg PUBLIC "-//W3C//DTD SVG 1.1//EN"
 "http://www.w3.org/Graphics/SVG/1.1/DTD/svg11.dtd">
<!-- Generated by graphviz version 9.0.0 (0)
 -->
<!-- Title: grafo_materias Pages: 1 -->
<svg width="1039pt" height="533pt"
 viewBox="0.00 0.00 1038.85 533.00" xmlns="http://www.w3.org/2000/svg" xmlns:xlink="http://www.w3.org/1999/xlink">
<g id="graph0" class="graph" transform="scale(1 1) rotate(0) translate(4 529)">
<title>grafo_materias</title>
<polygon fill="none" stroke="none" points="-4,4 -4,-529 1034.85,-529 1034.85,4 -4,4"/>
<g id="clust1" class="cluster">
<title>cluster_everything</title>
<polygon fill="none" stroke="none" points="8,-8 8,-517 1022.85,-517 1022.85,-8 8,-8"/>
</g>
<g id="clust2" class="cluster">
<title>cluster_header</title>
<polygon fill="none" stroke="none" points="21.23,-457 21.23,-509 1014.85,-509 1014.85,-457 21.23,-457"/>
</g>
<g id="clust3" class="cluster">
<title>cluster_0</title>
<polygon fill="none" stroke="none" points="16,-16 16,-435 143.25,-435 143.25,-16 16,-16"/>
</g>
<g id="clust4" class="cluster">
<title>cluster_1</title>
<polygon fill="none" stroke="none" points="163.25,-16 163.25,-434 293.5,-434 293.5,-16 163.25,-16"/>
</g>
<g id="clust5" class="cluster">
<title>cluster_2</title>
<polygon fill="none" stroke="none" points="313.5,-16 313.5,-449 453.5,-449 453.5,-16 313.5,-16"/>
</g>
<g id="clust6" class="cluster">
<title>cluster_3</title>
<polygon fill="none" stroke="none" points="473.5,-30 473.5,-449 603,-449 603,-30 473.5,-30"/>
</g>
<g id="clust7" class="cluster">
<title>cluster_4</title>
<polygon fill="none" stroke="none" points="623,-99 623,-233 741.25,-233 741.25,-99 623,-99"/>
</g>
<g id="clust8" class="cluster">
<title>cluster_5</title>
<polygon fill="none" stroke="none" points="761.25,-56 761.25,-202 878.05,-202 878.05,-56 761.25,-56"/>
</g>
<g id="clust9" class="cluster">
<title>cluster_6</title>
<polygon fill="none" stroke="none" points="898.05,-56 898.05,-202 1014.85,-202 1014.85,-56 898.05,-56"/>
</g>
<!-- 2ª Fase -->
<g id="node1" class="node">
<title>2ª Fase</title>
<polygon fill="lightgrey" stroke="black" points="130.03,-501 29.23,-501 29.23,-465 130.03,-465 130.03,-501"/>
<text text-anchor="middle" x="79.62" y="-477.57" font-family="Arial" font-size="14.00">2ª Fase</text>
</g>
<!-- 3ª Fase -->
<g id="node2" class="node">
<title>3ª Fase</title>
<polygon fill="lightgrey" stroke="black" points="278.77,-501 177.97,-501 177.97,-465 278.77,-465 278.77,-501"/>
<text text-anchor="middle" x="228.38" y="-477.57" font-family="Arial" font-size="14.00">3ª Fase</text>
</g>
<!-- 2ª Fase&#45;&gt;3ª Fase -->
<!-- 4ª Fase -->
<g id="node3" class="node">
<title>4ª Fase</title>
<polygon fill="lightgrey" stroke="black" points="433.9,-501 333.1,-501 333.1,-465 433.9,-465 433.9,-501"/>
<text text-anchor="middle" x="383.5" y="-477.57" font-family="Arial" font-size="14.00">4ª Fase</text>
</g>
<!-- 3ª Fase&#45;&gt;4ª Fase -->
<!-- 5ª Fase -->
<g id="node4" class="node">
<title>5ª Fase</title>
<polygon fill="lightgrey" stroke="black" points="588.65,-501 487.85,-501 487.85,-465 588.65,-465 588.65,-501"/>
<text text-anchor="middle" x="538.25" y="-477.57" font-family="Arial" font-size="14.00">5ª Fase</text>
</g>
<!-- 4ª Fase&#45;&gt;5ª Fase -->
<!-- 6ª Fase -->
<g id="node5" class="node">
<title>6ª Fase</title>
<polygon fill="lightgrey" stroke="black" points="732.52,-501 631.73,-501 631.73,-465 732.52,-465 732.52,-501"/>
<text text-anchor="middle" x="682.12" y="-477.57" font-family="Arial" font-size="14.00">6ª Fase</text>
</g>
<!-- 5ª Fase&#45;&gt;6ª Fase -->
<!-- 7ª Fase -->
<g id="node6" class="node">
<title>7ª Fase</title>
<polygon fill="lightgrey" stroke="black" points="870.05,-501 769.25,-501 769.25,-465 870.05,-465 870.05,-501"/>
<text text-anchor="middle" x="819.65" y="-477.57" font-family="Arial" font-size="14.00">7ª Fase</text>
</g>
<!-- 6ª Fase&#45;&gt;7ª Fase -->
<!-- 8ª Fase -->
<g id="node7" class="node">
<title>8ª Fase</title>
<polygon fill="lightgrey" stroke="black" points="1006.85,-501 906.05,-501 906.05,-465 1006.85,-465 1006.85,-501"/>
<text text-anchor="middle" x="956.45" y="-477.57" font-family="Arial" font-size="14.00">8ª Fase</text>
</g>
<!-- 7ª Fase&#45;&gt;8ª Fase -->
<!-- EED5331 -->
<g id="node8" class="node">
<title>EED5331</title>
<g id="a_node8"><a xlink:title="Conceito de educação: elaborações e práticas em torno da formação moral, intelectual e estética do homem. Conceito de pedagogia: pedagogia da essência e pedagogia da existência &#45; referências clássicas, modernas e contemporâneas. Pensamento pedagógico brasileiro.">
<polygon fill="#8dd3c7" stroke="#8dd3c7" points="130.03,-426.62 29.23,-426.62 29.23,-355.38 130.03,-355.38 130.03,-426.62"/>
<text text-anchor="middle" x="79.62" y="-409.32" font-family="Arial" font-size="14.00">EED5331</text>
<text text-anchor="middle" x="79.62" y="-377.57" font-family="Arial" font-size="14.00">Teorias da</text>
<text text-anchor="middle" x="79.62" y="-361.82" font-family="Arial" font-size="14.00">Educação</text>
</a>
</g>
</g>
<!-- HST7202 -->
<g id="node12" class="node">
<title>HST7202</title>
<g id="a_node12"><a xlink:title="Estudo das diferentes estruturas sócio&#45;políticas da África entre os séculos XVI e XX, os processos de constituição dos sistemas coloniais e de descolonização e as formas de abordagens didático&#45;pedagógicas.">
<polygon fill="#80b1d3" stroke="#80b1d3" points="278.77,-336.5 177.97,-336.5 177.97,-249.5 278.77,-249.5 278.77,-336.5"/>
<text text-anchor="middle" x="228.38" y="-319.2" font-family="Arial" font-size="14.00">HST7202</text>
<text text-anchor="middle" x="228.38" y="-287.45" font-family="Arial" font-size="14.00">História da</text>
<text text-anchor="middle" x="228.38" y="-271.7" font-family="Arial" font-size="14.00">África ( PCC</text>
<text text-anchor="middle" x="228.38" y="-255.95" font-family="Arial" font-size="14.00">12h&#45;a)</text>
</a>
</g>
</g>
<!-- EED5331&#45;&gt;HST7202 -->
<!-- HST7301 -->
<g id="node13" class="node">
<title>HST7301</title>
<g id="a_node13"><a xlink:title="Estudo em torno da formação do mundo moderno com ênfase nos aspectos sociais, econômicos e culturais que moldaram a sociedade ocidental, suas abordagens teóricas e de ensino.">
<polygon fill="#80b1d3" stroke="#80b1d3" points="283.62,-231.5 173.12,-231.5 173.12,-144.5 283.62,-144.5 283.62,-231.5"/>
<text text-anchor="middle" x="228.38" y="-214.2" font-family="Arial" font-size="14.00">HST7301</text>
<text text-anchor="middle" x="228.38" y="-182.45" font-family="Arial" font-size="14.00">História</text>
<text text-anchor="middle" x="228.38" y="-166.7" font-family="Arial" font-size="14.00">Moderna ( PCC</text>
<text text-anchor="middle" x="228.38" y="-150.95" font-family="Arial" font-size="14.00">12h&#45;a)</text>
</a>
</g>
</g>
<!-- EED5331&#45;&gt;HST7301 -->
<!-- HST7302 -->
<g id="node14" class="node">
<title>HST7302</title>
<g id="a_node14"><a xlink:title="Estudo da conquista e colonização da América espanhola e anglo&#45;saxônica e as formas de abordagens didático&#45;pedagógicas.">
<polygon fill="#80b1d3" stroke="#80b1d3" points="281,-126.38 175.75,-126.38 175.75,-23.63 281,-23.63 281,-126.38"/>
<text text-anchor="middle" x="228.38" y="-109.08" font-family="Arial" font-size="14.00">HST7302</text>
<text text-anchor="middle" x="228.38" y="-77.33" font-family="Arial" font-size="14.00">História da</text>
<text text-anchor="middle" x="228.38" y="-61.58" font-family="Arial" font-size="14.00">América</text>
<text text-anchor="middle" x="228.38" y="-45.83" font-family="Arial" font-size="14.00">Colonial ( PCC</text>
<text text-anchor="middle" x="228.38" y="-30.07" font-family="Arial" font-size="14.00">12h&#45;a)</text>
</a>
</g>
</g>
<!-- EED5331&#45;&gt;HST7302 -->
<!-- MEN5602 -->
<g id="node15" class="node">
<title>MEN5602</title>
<g id="a_node15"><a xlink:title="&#45; Educação escolar como fenômeno histórico&#45;social. Currículo e trabalho pedagógico no contexto escolar. As relações de ensino&#45;aprendizagem em contexto escolar. Mediações pedagógicas e suas relações com o ensino da área específica do curso.">
<polygon fill="#fdb462" stroke="#fdb462" points="285.5,-425.62 171.25,-425.62 171.25,-354.38 285.5,-354.38 285.5,-425.62"/>
<text text-anchor="middle" x="228.38" y="-408.32" font-family="Arial" font-size="14.00">MEN5602</text>
<text text-anchor="middle" x="228.38" y="-376.57" font-family="Arial" font-size="14.00">Didática B (PCC</text>
<text text-anchor="middle" x="228.38" y="-360.82" font-family="Arial" font-size="14.00">12h&#45;a)</text>
</a>
</g>
</g>
<!-- EED5331&#45;&gt;MEN5602 -->
<!-- HST7201 -->
<g id="node9" class="node">
<title>HST7201</title>
<g id="a_node9"><a xlink:title="Estudo da Idade Média, suas abordagens historiográficas e suas perspectivas teóricas e de prática de ensino.">
<polygon fill="#80b1d3" stroke="#80b1d3" points="135.25,-337.5 24,-337.5 24,-250.5 135.25,-250.5 135.25,-337.5"/>
<text text-anchor="middle" x="79.62" y="-320.2" font-family="Arial" font-size="14.00">HST7201</text>
<text text-anchor="middle" x="79.62" y="-288.45" font-family="Arial" font-size="14.00">História</text>
<text text-anchor="middle" x="79.62" y="-272.7" font-family="Arial" font-size="14.00">Medieval ( PCC</text>
<text text-anchor="middle" x="79.62" y="-256.95" font-family="Arial" font-size="14.00">12h&#45;a)</text>
</a>
</g>
</g>
<!-- HST7303 -->
<g id="node10" class="node">
<title>HST7303</title>
<g id="a_node10"><a xlink:title="Estudo da ocupação e colonização da América pelos portugueses e das formas de abordagem didático&#45;pedagógicas.">
<polygon fill="#80b1d3" stroke="#80b1d3" points="130.03,-232.38 29.23,-232.38 29.23,-129.62 130.03,-129.62 130.03,-232.38"/>
<text text-anchor="middle" x="79.62" y="-215.07" font-family="Arial" font-size="14.00">HST7303</text>
<text text-anchor="middle" x="79.62" y="-183.32" font-family="Arial" font-size="14.00">História da</text>
<text text-anchor="middle" x="79.62" y="-167.57" font-family="Arial" font-size="14.00">América</text>
<text text-anchor="middle" x="79.62" y="-151.82" font-family="Arial" font-size="14.00">Portuguesa (</text>
<text text-anchor="middle" x="79.62" y="-136.07" font-family="Arial" font-size="14.00">PCC 12h&#45; a)</text>
</a>
</g>
</g>
<!-- HST7304 -->
<g id="node11" class="node">
<title>HST7304</title>
<g id="a_node11"><a xlink:title="Estudo das populações indígenas no Brasil e das políticas indigenistas, bem como sobre as diferentes abordagens historiográficas relativas à representação dessas populações entre os séculos XVI e XXI e suas perspectivas teóricas e de ensino.">
<polygon fill="#80b1d3" stroke="#80b1d3" points="132.25,-111.5 27,-111.5 27,-24.5 132.25,-24.5 132.25,-111.5"/>
<text text-anchor="middle" x="79.62" y="-94.2" font-family="Arial" font-size="14.00">HST7304</text>
<text text-anchor="middle" x="79.62" y="-62.45" font-family="Arial" font-size="14.00">História</text>
<text text-anchor="middle" x="79.62" y="-46.7" font-family="Arial" font-size="14.00">Indígena (PCC</text>
<text text-anchor="middle" x="79.62" y="-30.95" font-family="Arial" font-size="14.00">12h&#45;a)</text>
</a>
</g>
</g>
<!-- HST7401 -->
<g id="node16" class="node">
<title>HST7401</title>
<g id="a_node16"><a xlink:title="Estudo dos fundamentos teóricos das concepções modernas em História e dos modelos históricos dos séculos XVIII e XIX.">
<polygon fill="#80b1d3" stroke="#80b1d3" points="433.9,-320.62 333.1,-320.62 333.1,-249.38 433.9,-249.38 433.9,-320.62"/>
<text text-anchor="middle" x="383.5" y="-303.32" font-family="Arial" font-size="14.00">HST7401</text>
<text text-anchor="middle" x="383.5" y="-271.57" font-family="Arial" font-size="14.00">Teoria da</text>
<text text-anchor="middle" x="383.5" y="-255.82" font-family="Arial" font-size="14.00">História I</text>
</a>
</g>
</g>
<!-- MEN5602&#45;&gt;HST7401 -->
<!-- HST7402 -->
<g id="node17" class="node">
<title>HST7402</title>
<polygon fill="#80b1d3" stroke="#80b1d3" points="444,-231.5 323,-231.5 323,-144.5 444,-144.5 444,-231.5"/>
<text text-anchor="middle" x="383.5" y="-214.2" font-family="Arial" font-size="14.00">HST7402</text>
<text text-anchor="middle" x="383.5" y="-182.45" font-family="Arial" font-size="14.00">História</text>
<text text-anchor="middle" x="383.5" y="-166.7" font-family="Arial" font-size="14.00">Contemporânea I</text>
<text text-anchor="middle" x="383.5" y="-150.95" font-family="Arial" font-size="14.00">(PCC 12h&#45;a)</text>
</g>
<!-- MEN5602&#45;&gt;HST7402 -->
<!-- HST7403 -->
<g id="node18" class="node">
<title>HST7403</title>
<g id="a_node18"><a xlink:title="Estudo da trajetória histórica dos países da América de colonização espanhola, francesa e inglesa a partir dos processos de independência e as formas de abordagens didático&#45;pedagógicas.">
<polygon fill="#80b1d3" stroke="#80b1d3" points="433.9,-126.38 333.1,-126.38 333.1,-23.63 433.9,-23.63 433.9,-126.38"/>
<text text-anchor="middle" x="383.5" y="-109.08" font-family="Arial" font-size="14.00">HST7403</text>
<text text-anchor="middle" x="383.5" y="-77.33" font-family="Arial" font-size="14.00">História da</text>
<text text-anchor="middle" x="383.5" y="-61.58" font-family="Arial" font-size="14.00">América</text>
<text text-anchor="middle" x="383.5" y="-45.83" font-family="Arial" font-size="14.00">Independente</text>
<text text-anchor="middle" x="383.5" y="-30.07" font-family="Arial" font-size="14.00">(PCC 12h&#45;a)</text>
</a>
</g>
</g>
<!-- MEN5602&#45;&gt;HST7403 -->
<!-- HST7404 -->
<g id="node19" class="node">
<title>HST7404</title>
<g id="a_node19"><a xlink:title="Estudo do processo de independência do Brasil, a construção do Estado Nacional e a sociedade brasileira durante o século XIX. As formas de abordagens didático&#45;pedagógicas.">
<polygon fill="#80b1d3" stroke="#80b1d3" points="445.5,-441.38 321.5,-441.38 321.5,-338.62 445.5,-338.62 445.5,-441.38"/>
<text text-anchor="middle" x="383.5" y="-424.07" font-family="Arial" font-size="14.00">HST7404</text>
<text text-anchor="middle" x="383.5" y="-392.32" font-family="Arial" font-size="14.00">História do</text>
<text text-anchor="middle" x="383.5" y="-376.57" font-family="Arial" font-size="14.00">Brasil</text>
<text text-anchor="middle" x="383.5" y="-360.82" font-family="Arial" font-size="14.00">Monárquico (PCC</text>
<text text-anchor="middle" x="383.5" y="-345.07" font-family="Arial" font-size="14.00">12h&#45;a)</text>
</a>
</g>
</g>
<!-- MEN5602&#45;&gt;HST7404 -->
<!-- HST7501 -->
<g id="node20" class="node">
<title>HST7501</title>
<g id="a_node20"><a xlink:title="A ditadura militar no Brasil foi instaurada num momento de crescente participação feminina no espaço público, fruto do intenso processo de mudanças nas relações de gênero se desenvolvia no período. Um contingente apreciável de mulheres uniu&#45;se aos homens na luta por uma sociedade mais igualitária e justa. A repressão às organizações de esquerda foi extremamente violenta, tendo sido denunciada por pessoas ligadas à defesa dos Direitos Humanos. Através da categoria gênero, pode&#45;se refletir sobre como essa repressão, que atingiu homens e mulheres, foi vivenciada e denunciada por suas vítimas. A partir de uma análise de caso do Brasil, serão feitas comparações com outros países do Cone Sul: Argentina, Uruguai e Chile.">
<polygon fill="#80b1d3" stroke="#80b1d3" points="588.65,-109.62 487.85,-109.62 487.85,-38.38 588.65,-38.38 588.65,-109.62"/>
<text text-anchor="middle" x="538.25" y="-92.33" font-family="Arial" font-size="14.00">HST7501</text>
<text text-anchor="middle" x="538.25" y="-60.58" font-family="Arial" font-size="14.00">Teoria da</text>
<text text-anchor="middle" x="538.25" y="-44.83" font-family="Arial" font-size="14.00">História II</text>
</a>
</g>
</g>
<!-- HST7401&#45;&gt;HST7501 -->
<g id="edge7" class="edge">
<title>HST7401&#45;&gt;HST7501</title>
<path fill="none" stroke="#80b1d3" stroke-width="2" d="M434.21,-285C445.83,-285 454.85,-285 454.85,-285 454.85,-285 454.85,-62.12 454.85,-62.12 454.85,-62.12 485.31,-62.12 485.31,-62.12"/>
<polygon fill="#80b1d3" stroke="#80b1d3" stroke-width="2" points="486.81,-59.63 486.81,-64.63 485.81,-64.63 485.81,-59.63 486.81,-59.63"/>
<polyline fill="none" stroke="#80b1d3" stroke-width="2" points="487.31,-62.13 484.81,-62.13"/>
</g>
<!-- HST7404&#45;&gt;HST7501 -->
<!-- HST7502 -->
<g id="node21" class="node">
<title>HST7502</title>
<g id="a_node21"><a xlink:title="Estudo da sociedade brasileira da proclamação da república até a primeira metade do século XX. As formas de abordagens didático&#45;pedagógicas.">
<polygon fill="#80b1d3" stroke="#80b1d3" points="588.65,-335.38 487.85,-335.38 487.85,-232.62 588.65,-232.62 588.65,-335.38"/>
<text text-anchor="middle" x="538.25" y="-318.07" font-family="Arial" font-size="14.00">HST7502</text>
<text text-anchor="middle" x="538.25" y="-286.32" font-family="Arial" font-size="14.00">História do</text>
<text text-anchor="middle" x="538.25" y="-270.57" font-family="Arial" font-size="14.00">Brasil</text>
<text text-anchor="middle" x="538.25" y="-254.82" font-family="Arial" font-size="14.00">Republicano I</text>
<text text-anchor="middle" x="538.25" y="-239.07" font-family="Arial" font-size="14.00">(PCC 12h&#45; a)</text>
</a>
</g>
</g>
<!-- HST7404&#45;&gt;HST7502 -->
<!-- HST7601 -->
<g id="node22" class="node">
<title>HST7601</title>
<g id="a_node22"><a xlink:title="Estudo do século XX, da Primeira Guerra Mundial à globalização, suas abordagens teóricas e de ensino.">
<polygon fill="#80b1d3" stroke="#80b1d3" points="595,-440.5 481.5,-440.5 481.5,-353.5 595,-353.5 595,-440.5"/>
<text text-anchor="middle" x="538.25" y="-423.2" font-family="Arial" font-size="14.00">HST7601</text>
<text text-anchor="middle" x="538.25" y="-391.45" font-family="Arial" font-size="14.00">História</text>
<text text-anchor="middle" x="538.25" y="-375.7" font-family="Arial" font-size="14.00">Contemporânea</text>
<text text-anchor="middle" x="538.25" y="-359.95" font-family="Arial" font-size="14.00">II (PCC 12h&#45;a)</text>
</a>
</g>
</g>
<!-- HST7404&#45;&gt;HST7601 -->
<!-- HST7603 -->
<g id="node23" class="node">
<title>HST7603</title>
<g id="a_node23"><a xlink:title="Estudo da História e da historiografia catarinense e as formas de abordagens didático&#45;pedagógicas.">
<polygon fill="#80b1d3" stroke="#80b1d3" points="591.25,-214.5 485.25,-214.5 485.25,-127.5 591.25,-127.5 591.25,-214.5"/>
<text text-anchor="middle" x="538.25" y="-197.2" font-family="Arial" font-size="14.00">HST7603</text>
<text text-anchor="middle" x="538.25" y="-165.45" font-family="Arial" font-size="14.00">História de</text>
<text text-anchor="middle" x="538.25" y="-149.7" font-family="Arial" font-size="14.00">Santa Catarina</text>
<text text-anchor="middle" x="538.25" y="-133.95" font-family="Arial" font-size="14.00">(PCC 12h&#45;a)</text>
</a>
</g>
</g>
<!-- HST7404&#45;&gt;HST7603 -->
<!-- HST8426 -->
<g id="node25" class="node">
<title>HST8426</title>
<polygon fill="#fb8072" stroke="#fb8072" points="870.05,-119.75 769.25,-119.75 769.25,-64.25 870.05,-64.25 870.05,-119.75"/>
<text text-anchor="middle" x="819.65" y="-102.45" font-family="Arial" font-size="14.00">HST8426</text>
<text text-anchor="middle" x="819.65" y="-70.7" font-family="Arial" font-size="14.00">TCC I</text>
</g>
<!-- HST7501&#45;&gt;HST8426 -->
<g id="edge8" class="edge">
<title>HST7501&#45;&gt;HST8426</title>
<path fill="none" stroke="#fb8072" stroke-width="2" d="M588.88,-85.5C588.88,-85.5 766.45,-85.5 766.45,-85.5"/>
<polygon fill="#fb8072" stroke="#fb8072" stroke-width="2" points="767.95,-83 767.95,-88 766.95,-88 766.95,-83 767.95,-83"/>
<polyline fill="none" stroke="#fb8072" stroke-width="2" points="768.45,-85.5 765.95,-85.5"/>
</g>
<!-- HST7602 -->
<g id="node24" class="node">
<title>HST7602</title>
<g id="a_node24"><a xlink:title="Estudo da sociedade brasileira contemporânea a partir de 1945 e as formas de abordagens didático&#45;pedagógicas.">
<polygon fill="#80b1d3" stroke="#80b1d3" points="733.25,-225.25 631,-225.25 631,-106.75 733.25,-106.75 733.25,-225.25"/>
<text text-anchor="middle" x="682.12" y="-207.95" font-family="Arial" font-size="14.00">HST7602</text>
<text text-anchor="middle" x="682.12" y="-176.2" font-family="Arial" font-size="14.00">História do</text>
<text text-anchor="middle" x="682.12" y="-160.45" font-family="Arial" font-size="14.00">Brasil</text>
<text text-anchor="middle" x="682.12" y="-144.7" font-family="Arial" font-size="14.00">Republicano II</text>
<text text-anchor="middle" x="682.12" y="-128.95" font-family="Arial" font-size="14.00">&#45; PCC 12</text>
<text text-anchor="middle" x="682.12" y="-113.2" font-family="Arial" font-size="14.00">horas&#45;aula</text>
</a>
</g>
</g>
<!-- HST7603&#45;&gt;HST7602 -->
<!-- HST7602&#45;&gt;HST8426 -->
<!-- HST8456 -->
<g id="node26" class="node">
<title>HST8456</title>
<g id="a_node26"><a xlink:title="A disciplina visa fornecer subsídios preliminares para a disseminação do conhecimento histórico para variados públicos fora do âmbito acadêmico. Nela, são trabalhadas possibilidades de apropriação historiográfica das tecnologias audiovisuais, digitais e virtuais para promover a divulgação científica e a inserção do ensino de história no espaço público.">
<polygon fill="#80b1d3" stroke="#80b1d3" points="870.05,-193.75 769.25,-193.75 769.25,-138.25 870.05,-138.25 870.05,-193.75"/>
<text text-anchor="middle" x="819.65" y="-176.45" font-family="Arial" font-size="14.00">HST8456</text>
<text text-anchor="middle" x="819.65" y="-144.7" font-family="Arial" font-size="14.00">Extensão I</text>
</a>
</g>
</g>
<!-- HST7602&#45;&gt;HST8456 -->
<!-- HST8427 -->
<g id="node27" class="node">
<title>HST8427</title>
<polygon fill="#fb8072" stroke="#fb8072" points="1006.85,-119.75 906.05,-119.75 906.05,-64.25 1006.85,-64.25 1006.85,-119.75"/>
<text text-anchor="middle" x="956.45" y="-102.45" font-family="Arial" font-size="14.00">HST8427</text>
<text text-anchor="middle" x="956.45" y="-70.7" font-family="Arial" font-size="14.00">TCC II</text>
</g>
<!-- HST8426&#45;&gt;HST8427 -->
<g id="edge9" class="edge">
<title>HST8426&#45;&gt;HST8427</title>
<path fill="none" stroke="#fb8072" stroke-width="2" d="M870.2,-82.75C870.2,-82.75 903.15,-82.75 903.15,-82.75"/>
<polygon fill="#fb8072" stroke="#fb8072" stroke-width="2" points="904.65,-80.25 904.65,-85.25 903.65,-85.25 903.65,-80.25 904.65,-80.25"/>
<polyline fill="none" stroke="#fb8072" stroke-width="2" points="905.15,-82.75 902.65,-82.75"/>
</g>
<!-- HST8456&#45;&gt;HST8427 -->
<!-- HST8457 -->
<g id="node28" class="node">
<title>HST8457</title>
<g id="a_node28"><a xlink:title="A disciplina se destina a coordenar práticas e experimentações diversas, aproveitando tecnologias audiovisuais, digitais e virtuais, mas incluindo atividades de extensão em sua variedade de modalidades, recursos e suportes na forma de oficinas, cursos e atividades diversas de extensão universitária na área de História relacionadas à divulgação científica, à formação continuada de professores, à produção textual, ao estudo da paleografia.">
<polygon fill="#80b1d3" stroke="#80b1d3" points="1006.85,-193.75 906.05,-193.75 906.05,-138.25 1006.85,-138.25 1006.85,-193.75"/>
<text text-anchor="middle" x="956.45" y="-176.45" font-family="Arial" font-size="14.00">HST8457</text>
<text text-anchor="middle" x="956.45" y="-144.7" font-family="Arial" font-size="14.00">Extensão II</text>
</a>
</g>
</g>
<!-- HST8456&#45;&gt;HST8457 -->
</g>
</svg>
