<?xml version="1.0" encoding="UTF-8" standalone="no"?>
<!DOCTYPE svg PUBLIC "-//W3C//DTD SVG 1.1//EN"
 "http://www.w3.org/Graphics/SVG/1.1/DTD/svg11.dtd">
<!-- Generated by graphviz version 9.0.0 (0)
 -->
<!-- Title: grafo_materias Pages: 1 -->
<svg width="1218pt" height="624pt"
 viewBox="0.00 0.00 1218.25 624.00" xmlns="http://www.w3.org/2000/svg" xmlns:xlink="http://www.w3.org/1999/xlink">
<g id="graph0" class="graph" transform="scale(1 1) rotate(0) translate(4 620)">
<title>grafo_materias</title>
<polygon fill="none" stroke="none" points="-4,4 -4,-620 1214.25,-620 1214.25,4 -4,4"/>
<g id="clust1" class="cluster">
<title>cluster_everything</title>
<polygon fill="none" stroke="none" points="8,-8 8,-608 1202.25,-608 1202.25,-8 8,-8"/>
</g>
<g id="clust2" class="cluster">
<title>cluster_header</title>
<polygon fill="none" stroke="none" points="21.22,-548 21.22,-600 1190.15,-600 1190.15,-548 21.22,-548"/>
</g>
<g id="clust3" class="cluster">
<title>cluster_0</title>
<polygon fill="none" stroke="none" points="16,-16 16,-435 143.25,-435 143.25,-16 16,-16"/>
</g>
<g id="clust4" class="cluster">
<title>cluster_1</title>
<polygon fill="none" stroke="none" points="163.25,-76 163.25,-494 293.5,-494 293.5,-76 163.25,-76"/>
</g>
<g id="clust5" class="cluster">
<title>cluster_2</title>
<polygon fill="none" stroke="none" points="313.5,-75 313.5,-509 453.5,-509 453.5,-75 313.5,-75"/>
</g>
<g id="clust6" class="cluster">
<title>cluster_3</title>
<polygon fill="none" stroke="none" points="473.5,-50 473.5,-469 603,-469 603,-50 473.5,-50"/>
</g>
<g id="clust7" class="cluster">
<title>cluster_4</title>
<polygon fill="none" stroke="none" points="623,-28 623,-526 759.25,-526 759.25,-28 623,-28"/>
</g>
<g id="clust8" class="cluster">
<title>cluster_5</title>
<polygon fill="none" stroke="none" points="779.25,-42 779.25,-429 904.25,-429 904.25,-42 779.25,-42"/>
</g>
<g id="clust9" class="cluster">
<title>cluster_6</title>
<polygon fill="none" stroke="none" points="924.25,-42 924.25,-293 1049.25,-293 1049.25,-42 924.25,-42"/>
</g>
<g id="clust10" class="cluster">
<title>cluster_7</title>
<polygon fill="none" stroke="none" points="1069.25,-189 1069.25,-293 1194.25,-293 1194.25,-189 1069.25,-189"/>
</g>
<!-- 2ª Fase -->
<g id="node1" class="node">
<title>2ª Fase</title>
<polygon fill="lightgrey" stroke="black" points="130.03,-592 29.23,-592 29.23,-556 130.03,-556 130.03,-592"/>
<text text-anchor="middle" x="79.62" y="-568.58" font-family="Arial" font-size="14.00">2ª Fase</text>
</g>
<!-- 3ª Fase -->
<g id="node2" class="node">
<title>3ª Fase</title>
<polygon fill="lightgrey" stroke="black" points="278.77,-592 177.97,-592 177.97,-556 278.77,-556 278.77,-592"/>
<text text-anchor="middle" x="228.38" y="-568.58" font-family="Arial" font-size="14.00">3ª Fase</text>
</g>
<!-- 2ª Fase&#45;&gt;3ª Fase -->
<!-- 4ª Fase -->
<g id="node3" class="node">
<title>4ª Fase</title>
<polygon fill="lightgrey" stroke="black" points="433.9,-592 333.1,-592 333.1,-556 433.9,-556 433.9,-592"/>
<text text-anchor="middle" x="383.5" y="-568.58" font-family="Arial" font-size="14.00">4ª Fase</text>
</g>
<!-- 3ª Fase&#45;&gt;4ª Fase -->
<!-- 5ª Fase -->
<g id="node4" class="node">
<title>5ª Fase</title>
<polygon fill="lightgrey" stroke="black" points="588.65,-592 487.85,-592 487.85,-556 588.65,-556 588.65,-592"/>
<text text-anchor="middle" x="538.25" y="-568.58" font-family="Arial" font-size="14.00">5ª Fase</text>
</g>
<!-- 4ª Fase&#45;&gt;5ª Fase -->
<!-- 6ª Fase -->
<g id="node5" class="node">
<title>6ª Fase</title>
<polygon fill="lightgrey" stroke="black" points="741.52,-592 640.73,-592 640.73,-556 741.52,-556 741.52,-592"/>
<text text-anchor="middle" x="691.12" y="-568.58" font-family="Arial" font-size="14.00">6ª Fase</text>
</g>
<!-- 5ª Fase&#45;&gt;6ª Fase -->
<!-- 7ª Fase -->
<g id="node6" class="node">
<title>7ª Fase</title>
<polygon fill="lightgrey" stroke="black" points="892.15,-592 791.35,-592 791.35,-556 892.15,-556 892.15,-592"/>
<text text-anchor="middle" x="841.75" y="-568.58" font-family="Arial" font-size="14.00">7ª Fase</text>
</g>
<!-- 6ª Fase&#45;&gt;7ª Fase -->
<!-- 8ª Fase -->
<g id="node7" class="node">
<title>8ª Fase</title>
<polygon fill="lightgrey" stroke="black" points="1037.15,-592 936.35,-592 936.35,-556 1037.15,-556 1037.15,-592"/>
<text text-anchor="middle" x="986.75" y="-568.58" font-family="Arial" font-size="14.00">8ª Fase</text>
</g>
<!-- 7ª Fase&#45;&gt;8ª Fase -->
<!-- 9ª Fase -->
<g id="node8" class="node">
<title>9ª Fase</title>
<polygon fill="lightgrey" stroke="black" points="1182.15,-592 1081.35,-592 1081.35,-556 1182.15,-556 1182.15,-592"/>
<text text-anchor="middle" x="1131.75" y="-568.58" font-family="Arial" font-size="14.00">9ª Fase</text>
</g>
<!-- 8ª Fase&#45;&gt;9ª Fase -->
<!-- EED5331 -->
<g id="node9" class="node">
<title>EED5331</title>
<g id="a_node9"><a xlink:title="Conceito de educação: elaborações e práticas em torno da formação moral, intelectual e estética do homem. Conceito de pedagogia: pedagogia da essência e pedagogia da existência &#45; referências clássicas, modernas e contemporâneas. Pensamento pedagógico brasileiro.">
<polygon fill="#8dd3c7" stroke="#8dd3c7" points="130.03,-426.62 29.23,-426.62 29.23,-355.38 130.03,-355.38 130.03,-426.62"/>
<text text-anchor="middle" x="79.62" y="-409.32" font-family="Arial" font-size="14.00">EED5331</text>
<text text-anchor="middle" x="79.62" y="-377.57" font-family="Arial" font-size="14.00">Teorias da</text>
<text text-anchor="middle" x="79.62" y="-361.82" font-family="Arial" font-size="14.00">Educação</text>
</a>
</g>
</g>
<!-- HST7202 -->
<g id="node13" class="node">
<title>HST7202</title>
<g id="a_node13"><a xlink:title="Estudo das diferentes estruturas sócio&#45;políticas da África entre os séculos XVI e XX, os processos de constituição dos sistemas coloniais e de descolonização e as formas de abordagens didático&#45;pedagógicas.">
<polygon fill="#80b1d3" stroke="#80b1d3" points="278.77,-396.5 177.97,-396.5 177.97,-309.5 278.77,-309.5 278.77,-396.5"/>
<text text-anchor="middle" x="228.38" y="-379.2" font-family="Arial" font-size="14.00">HST7202</text>
<text text-anchor="middle" x="228.38" y="-347.45" font-family="Arial" font-size="14.00">História da</text>
<text text-anchor="middle" x="228.38" y="-331.7" font-family="Arial" font-size="14.00">África ( PCC</text>
<text text-anchor="middle" x="228.38" y="-315.95" font-family="Arial" font-size="14.00">12h&#45;a)</text>
</a>
</g>
</g>
<!-- EED5331&#45;&gt;HST7202 -->
<!-- HST7301 -->
<g id="node14" class="node">
<title>HST7301</title>
<g id="a_node14"><a xlink:title="Estudo em torno da formação do mundo moderno com ênfase nos aspectos sociais, econômicos e culturais que moldaram a sociedade ocidental, suas abordagens teóricas e de ensino.">
<polygon fill="#80b1d3" stroke="#80b1d3" points="283.62,-291.5 173.12,-291.5 173.12,-204.5 283.62,-204.5 283.62,-291.5"/>
<text text-anchor="middle" x="228.38" y="-274.2" font-family="Arial" font-size="14.00">HST7301</text>
<text text-anchor="middle" x="228.38" y="-242.45" font-family="Arial" font-size="14.00">História</text>
<text text-anchor="middle" x="228.38" y="-226.7" font-family="Arial" font-size="14.00">Moderna ( PCC</text>
<text text-anchor="middle" x="228.38" y="-210.95" font-family="Arial" font-size="14.00">12h&#45;a)</text>
</a>
</g>
</g>
<!-- EED5331&#45;&gt;HST7301 -->
<!-- HST7302 -->
<g id="node15" class="node">
<title>HST7302</title>
<g id="a_node15"><a xlink:title="Estudo da conquista e colonização da América espanhola e anglo&#45;saxônica e as formas de abordagens didático&#45;pedagógicas.">
<polygon fill="#80b1d3" stroke="#80b1d3" points="281,-186.38 175.75,-186.38 175.75,-83.62 281,-83.62 281,-186.38"/>
<text text-anchor="middle" x="228.38" y="-169.07" font-family="Arial" font-size="14.00">HST7302</text>
<text text-anchor="middle" x="228.38" y="-137.32" font-family="Arial" font-size="14.00">História da</text>
<text text-anchor="middle" x="228.38" y="-121.58" font-family="Arial" font-size="14.00">América</text>
<text text-anchor="middle" x="228.38" y="-105.83" font-family="Arial" font-size="14.00">Colonial ( PCC</text>
<text text-anchor="middle" x="228.38" y="-90.08" font-family="Arial" font-size="14.00">12h&#45;a)</text>
</a>
</g>
</g>
<!-- EED5331&#45;&gt;HST7302 -->
<!-- MEN5602 -->
<g id="node16" class="node">
<title>MEN5602</title>
<g id="a_node16"><a xlink:title="&#45; Educação escolar como fenômeno histórico&#45;social. Currículo e trabalho pedagógico no contexto escolar. As relações de ensino&#45;aprendizagem em contexto escolar. Mediações pedagógicas e suas relações com o ensino da área específica do curso.">
<polygon fill="#fdb462" stroke="#fdb462" points="285.5,-485.62 171.25,-485.62 171.25,-414.38 285.5,-414.38 285.5,-485.62"/>
<text text-anchor="middle" x="228.38" y="-468.32" font-family="Arial" font-size="14.00">MEN5602</text>
<text text-anchor="middle" x="228.38" y="-436.57" font-family="Arial" font-size="14.00">Didática B (PCC</text>
<text text-anchor="middle" x="228.38" y="-420.82" font-family="Arial" font-size="14.00">12h&#45;a)</text>
</a>
</g>
</g>
<!-- EED5331&#45;&gt;MEN5602 -->
<!-- HST7201 -->
<g id="node10" class="node">
<title>HST7201</title>
<g id="a_node10"><a xlink:title="Estudo da Idade Média, suas abordagens historiográficas e suas perspectivas teóricas e de prática de ensino.">
<polygon fill="#80b1d3" stroke="#80b1d3" points="135.25,-337.5 24,-337.5 24,-250.5 135.25,-250.5 135.25,-337.5"/>
<text text-anchor="middle" x="79.62" y="-320.2" font-family="Arial" font-size="14.00">HST7201</text>
<text text-anchor="middle" x="79.62" y="-288.45" font-family="Arial" font-size="14.00">História</text>
<text text-anchor="middle" x="79.62" y="-272.7" font-family="Arial" font-size="14.00">Medieval ( PCC</text>
<text text-anchor="middle" x="79.62" y="-256.95" font-family="Arial" font-size="14.00">12h&#45;a)</text>
</a>
</g>
</g>
<!-- HST7303 -->
<g id="node11" class="node">
<title>HST7303</title>
<g id="a_node11"><a xlink:title="Estudo da ocupação e colonização da América pelos portugueses e das formas de abordagem didático&#45;pedagógicas.">
<polygon fill="#80b1d3" stroke="#80b1d3" points="130.03,-232.38 29.23,-232.38 29.23,-129.62 130.03,-129.62 130.03,-232.38"/>
<text text-anchor="middle" x="79.62" y="-215.07" font-family="Arial" font-size="14.00">HST7303</text>
<text text-anchor="middle" x="79.62" y="-183.32" font-family="Arial" font-size="14.00">História da</text>
<text text-anchor="middle" x="79.62" y="-167.57" font-family="Arial" font-size="14.00">América</text>
<text text-anchor="middle" x="79.62" y="-151.82" font-family="Arial" font-size="14.00">Portuguesa (</text>
<text text-anchor="middle" x="79.62" y="-136.07" font-family="Arial" font-size="14.00">PCC 12h&#45; a)</text>
</a>
</g>
</g>
<!-- HST7304 -->
<g id="node12" class="node">
<title>HST7304</title>
<g id="a_node12"><a xlink:title="Estudo das populações indígenas no Brasil e das políticas indigenistas, bem como sobre as diferentes abordagens historiográficas relativas à representação dessas populações entre os séculos XVI e XXI e suas perspectivas teóricas e de ensino.">
<polygon fill="#80b1d3" stroke="#80b1d3" points="132.25,-111.5 27,-111.5 27,-24.5 132.25,-24.5 132.25,-111.5"/>
<text text-anchor="middle" x="79.62" y="-94.2" font-family="Arial" font-size="14.00">HST7304</text>
<text text-anchor="middle" x="79.62" y="-62.45" font-family="Arial" font-size="14.00">História</text>
<text text-anchor="middle" x="79.62" y="-46.7" font-family="Arial" font-size="14.00">Indígena (PCC</text>
<text text-anchor="middle" x="79.62" y="-30.95" font-family="Arial" font-size="14.00">12h&#45;a)</text>
</a>
</g>
</g>
<!-- HST7401 -->
<g id="node17" class="node">
<title>HST7401</title>
<g id="a_node17"><a xlink:title="Estudo dos fundamentos teóricos das concepções modernas em História e dos modelos históricos dos séculos XVIII e XIX.">
<polygon fill="#80b1d3" stroke="#80b1d3" points="433.9,-259.62 333.1,-259.62 333.1,-188.38 433.9,-188.38 433.9,-259.62"/>
<text text-anchor="middle" x="383.5" y="-242.32" font-family="Arial" font-size="14.00">HST7401</text>
<text text-anchor="middle" x="383.5" y="-210.57" font-family="Arial" font-size="14.00">Teoria da</text>
<text text-anchor="middle" x="383.5" y="-194.82" font-family="Arial" font-size="14.00">História I</text>
</a>
</g>
</g>
<!-- MEN5602&#45;&gt;HST7401 -->
<!-- HST7402 -->
<g id="node18" class="node">
<title>HST7402</title>
<polygon fill="#80b1d3" stroke="#80b1d3" points="444,-170.5 323,-170.5 323,-83.5 444,-83.5 444,-170.5"/>
<text text-anchor="middle" x="383.5" y="-153.2" font-family="Arial" font-size="14.00">HST7402</text>
<text text-anchor="middle" x="383.5" y="-121.45" font-family="Arial" font-size="14.00">História</text>
<text text-anchor="middle" x="383.5" y="-105.7" font-family="Arial" font-size="14.00">Contemporânea I</text>
<text text-anchor="middle" x="383.5" y="-89.95" font-family="Arial" font-size="14.00">(PCC 12h&#45;a)</text>
</g>
<!-- MEN5602&#45;&gt;HST7402 -->
<!-- HST7403 -->
<g id="node19" class="node">
<title>HST7403</title>
<g id="a_node19"><a xlink:title="Estudo da trajetória histórica dos países da América de colonização espanhola, francesa e inglesa a partir dos processos de independência e as formas de abordagens didático&#45;pedagógicas.">
<polygon fill="#80b1d3" stroke="#80b1d3" points="433.9,-501.38 333.1,-501.38 333.1,-398.62 433.9,-398.62 433.9,-501.38"/>
<text text-anchor="middle" x="383.5" y="-484.07" font-family="Arial" font-size="14.00">HST7403</text>
<text text-anchor="middle" x="383.5" y="-452.32" font-family="Arial" font-size="14.00">História da</text>
<text text-anchor="middle" x="383.5" y="-436.57" font-family="Arial" font-size="14.00">América</text>
<text text-anchor="middle" x="383.5" y="-420.82" font-family="Arial" font-size="14.00">Independente</text>
<text text-anchor="middle" x="383.5" y="-405.07" font-family="Arial" font-size="14.00">(PCC 12h&#45;a)</text>
</a>
</g>
</g>
<!-- MEN5602&#45;&gt;HST7403 -->
<!-- HST7404 -->
<g id="node20" class="node">
<title>HST7404</title>
<g id="a_node20"><a xlink:title="Estudo do processo de independência do Brasil, a construção do Estado Nacional e a sociedade brasileira durante o século XIX. As formas de abordagens didático&#45;pedagógicas.">
<polygon fill="#80b1d3" stroke="#80b1d3" points="445.5,-380.38 321.5,-380.38 321.5,-277.62 445.5,-277.62 445.5,-380.38"/>
<text text-anchor="middle" x="383.5" y="-363.07" font-family="Arial" font-size="14.00">HST7404</text>
<text text-anchor="middle" x="383.5" y="-331.32" font-family="Arial" font-size="14.00">História do</text>
<text text-anchor="middle" x="383.5" y="-315.57" font-family="Arial" font-size="14.00">Brasil</text>
<text text-anchor="middle" x="383.5" y="-299.82" font-family="Arial" font-size="14.00">Monárquico (PCC</text>
<text text-anchor="middle" x="383.5" y="-284.07" font-family="Arial" font-size="14.00">12h&#45;a)</text>
</a>
</g>
</g>
<!-- MEN5602&#45;&gt;HST7404 -->
<!-- MEN7017 -->
<g id="node35" class="node">
<title>MEN7017</title>
<polygon fill="#fdb462" stroke="#fdb462" points="1041.25,-284.5 932.25,-284.5 932.25,-197.5 1041.25,-197.5 1041.25,-284.5"/>
<text text-anchor="middle" x="986.75" y="-267.2" font-family="Arial" font-size="14.00">MEN7017</text>
<text text-anchor="middle" x="986.75" y="-235.45" font-family="Arial" font-size="14.00">Estágio</text>
<text text-anchor="middle" x="986.75" y="-219.7" font-family="Arial" font-size="14.00">Supervisionado</text>
<text text-anchor="middle" x="986.75" y="-203.95" font-family="Arial" font-size="14.00">de História I</text>
</g>
<!-- MEN5602&#45;&gt;MEN7017 -->
<g id="edge11" class="edge">
<title>MEN5602&#45;&gt;MEN7017</title>
<path fill="none" stroke="#fdb462" stroke-width="2" d="M229.25,-485.94C229.25,-509.94 229.25,-537.12 229.25,-537.12 229.25,-537.12 987.25,-537.12 987.25,-537.12 987.25,-537.12 987.25,-287.19 987.25,-287.19"/>
<polygon fill="#fdb462" stroke="#fdb462" stroke-width="2" points="984.75,-285.69 989.75,-285.69 989.75,-286.69 984.75,-286.69 984.75,-285.69"/>
<polyline fill="none" stroke="#fdb462" stroke-width="2" points="987.25,-285.19 987.25,-287.69"/>
</g>
<!-- HST7501 -->
<g id="node21" class="node">
<title>HST7501</title>
<g id="a_node21"><a xlink:title="A ditadura militar no Brasil foi instaurada num momento de crescente participação feminina no espaço público, fruto do intenso processo de mudanças nas relações de gênero se desenvolvia no período. Um contingente apreciável de mulheres uniu&#45;se aos homens na luta por uma sociedade mais igualitária e justa. A repressão às organizações de esquerda foi extremamente violenta, tendo sido denunciada por pessoas ligadas à defesa dos Direitos Humanos. Através da categoria gênero, pode&#45;se refletir sobre como essa repressão, que atingiu homens e mulheres, foi vivenciada e denunciada por suas vítimas. A partir de uma análise de caso do Brasil, serão feitas comparações com outros países do Cone Sul: Argentina, Uruguai e Chile.">
<polygon fill="#80b1d3" stroke="#80b1d3" points="588.65,-129.62 487.85,-129.62 487.85,-58.38 588.65,-58.38 588.65,-129.62"/>
<text text-anchor="middle" x="538.25" y="-112.33" font-family="Arial" font-size="14.00">HST7501</text>
<text text-anchor="middle" x="538.25" y="-80.58" font-family="Arial" font-size="14.00">Teoria da</text>
<text text-anchor="middle" x="538.25" y="-64.83" font-family="Arial" font-size="14.00">História II</text>
</a>
</g>
</g>
<!-- HST7401&#45;&gt;HST7501 -->
<g id="edge8" class="edge">
<title>HST7401&#45;&gt;HST7501</title>
<path fill="none" stroke="#80b1d3" stroke-width="2" d="M434.19,-209.04C447.52,-209.04 458.25,-209.04 458.25,-209.04 458.25,-209.04 458.25,-98.88 458.25,-98.88 458.25,-98.88 485.08,-98.88 485.08,-98.88"/>
<polygon fill="#80b1d3" stroke="#80b1d3" stroke-width="2" points="486.58,-96.38 486.58,-101.38 485.58,-101.38 485.58,-96.38 486.58,-96.38"/>
<polyline fill="none" stroke="#80b1d3" stroke-width="2" points="487.08,-98.88 484.58,-98.88"/>
</g>
<!-- HST7404&#45;&gt;HST7501 -->
<!-- HST7502 -->
<g id="node22" class="node">
<title>HST7502</title>
<g id="a_node22"><a xlink:title="Estudo da sociedade brasileira da proclamação da república até a primeira metade do século XX. As formas de abordagens didático&#45;pedagógicas.">
<polygon fill="#80b1d3" stroke="#80b1d3" points="588.65,-250.38 487.85,-250.38 487.85,-147.62 588.65,-147.62 588.65,-250.38"/>
<text text-anchor="middle" x="538.25" y="-233.07" font-family="Arial" font-size="14.00">HST7502</text>
<text text-anchor="middle" x="538.25" y="-201.32" font-family="Arial" font-size="14.00">História do</text>
<text text-anchor="middle" x="538.25" y="-185.57" font-family="Arial" font-size="14.00">Brasil</text>
<text text-anchor="middle" x="538.25" y="-169.82" font-family="Arial" font-size="14.00">Republicano I</text>
<text text-anchor="middle" x="538.25" y="-154.07" font-family="Arial" font-size="14.00">(PCC 12h&#45; a)</text>
</a>
</g>
</g>
<!-- HST7404&#45;&gt;HST7502 -->
<!-- HST7601 -->
<g id="node23" class="node">
<title>HST7601</title>
<g id="a_node23"><a xlink:title="Estudo do século XX, da Primeira Guerra Mundial à globalização, suas abordagens teóricas e de ensino.">
<polygon fill="#80b1d3" stroke="#80b1d3" points="595,-355.5 481.5,-355.5 481.5,-268.5 595,-268.5 595,-355.5"/>
<text text-anchor="middle" x="538.25" y="-338.2" font-family="Arial" font-size="14.00">HST7601</text>
<text text-anchor="middle" x="538.25" y="-306.45" font-family="Arial" font-size="14.00">História</text>
<text text-anchor="middle" x="538.25" y="-290.7" font-family="Arial" font-size="14.00">Contemporânea</text>
<text text-anchor="middle" x="538.25" y="-274.95" font-family="Arial" font-size="14.00">II (PCC 12h&#45;a)</text>
</a>
</g>
</g>
<!-- HST7404&#45;&gt;HST7601 -->
<!-- HST7603 -->
<g id="node24" class="node">
<title>HST7603</title>
<g id="a_node24"><a xlink:title="Estudo da História e da historiografia catarinense e as formas de abordagens didático&#45;pedagógicas.">
<polygon fill="#80b1d3" stroke="#80b1d3" points="591.25,-460.5 485.25,-460.5 485.25,-373.5 591.25,-373.5 591.25,-460.5"/>
<text text-anchor="middle" x="538.25" y="-443.2" font-family="Arial" font-size="14.00">HST7603</text>
<text text-anchor="middle" x="538.25" y="-411.45" font-family="Arial" font-size="14.00">História de</text>
<text text-anchor="middle" x="538.25" y="-395.7" font-family="Arial" font-size="14.00">Santa Catarina</text>
<text text-anchor="middle" x="538.25" y="-379.95" font-family="Arial" font-size="14.00">(PCC 12h&#45;a)</text>
</a>
</g>
</g>
<!-- HST7404&#45;&gt;HST7603 -->
<!-- HST8426 -->
<g id="node29" class="node">
<title>HST8426</title>
<polygon fill="#fb8072" stroke="#fb8072" points="892.15,-105.75 791.35,-105.75 791.35,-50.25 892.15,-50.25 892.15,-105.75"/>
<text text-anchor="middle" x="841.75" y="-88.45" font-family="Arial" font-size="14.00">HST8426</text>
<text text-anchor="middle" x="841.75" y="-56.7" font-family="Arial" font-size="14.00">TCC I</text>
</g>
<!-- HST7501&#45;&gt;HST8426 -->
<g id="edge9" class="edge">
<title>HST7501&#45;&gt;HST8426</title>
<path fill="none" stroke="#fb8072" stroke-width="2" d="M538.25,-58.17C538.25,-43.76 538.25,-30.5 538.25,-30.5 538.25,-30.5 842.25,-30.5 842.25,-30.5 842.25,-30.5 842.25,-47.32 842.25,-47.32"/>
<polygon fill="#fb8072" stroke="#fb8072" stroke-width="2" points="844.75,-48.82 839.75,-48.82 839.75,-47.82 844.75,-47.82 844.75,-48.82"/>
<polyline fill="none" stroke="#fb8072" stroke-width="2" points="842.25,-49.32 842.25,-46.82"/>
</g>
<!-- EED8007 -->
<g id="node25" class="node">
<title>EED8007</title>
<polygon fill="#8dd3c7" stroke="#8dd3c7" points="741.52,-123.5 640.73,-123.5 640.73,-36.5 741.52,-36.5 741.52,-123.5"/>
<text text-anchor="middle" x="691.12" y="-106.2" font-family="Arial" font-size="14.00">EED8007</text>
<text text-anchor="middle" x="691.12" y="-74.45" font-family="Arial" font-size="14.00">Organização</text>
<text text-anchor="middle" x="691.12" y="-58.7" font-family="Arial" font-size="14.00">Escolar (PCC</text>
<text text-anchor="middle" x="691.12" y="-42.95" font-family="Arial" font-size="14.00">18h&#45;a)</text>
</g>
<!-- HST7603&#45;&gt;EED8007 -->
<!-- HST7602 -->
<g id="node26" class="node">
<title>HST7602</title>
<g id="a_node26"><a xlink:title="Estudo da sociedade brasileira contemporânea a partir de 1945 e as formas de abordagens didático&#45;pedagógicas.">
<polygon fill="#80b1d3" stroke="#80b1d3" points="742.25,-518.25 640,-518.25 640,-399.75 742.25,-399.75 742.25,-518.25"/>
<text text-anchor="middle" x="691.12" y="-500.95" font-family="Arial" font-size="14.00">HST7602</text>
<text text-anchor="middle" x="691.12" y="-469.2" font-family="Arial" font-size="14.00">História do</text>
<text text-anchor="middle" x="691.12" y="-453.45" font-family="Arial" font-size="14.00">Brasil</text>
<text text-anchor="middle" x="691.12" y="-437.7" font-family="Arial" font-size="14.00">Republicano II</text>
<text text-anchor="middle" x="691.12" y="-421.95" font-family="Arial" font-size="14.00">&#45; PCC 12</text>
<text text-anchor="middle" x="691.12" y="-406.2" font-family="Arial" font-size="14.00">horas&#45;aula</text>
</a>
</g>
</g>
<!-- HST7603&#45;&gt;HST7602 -->
<!-- MEN7003 -->
<g id="node27" class="node">
<title>MEN7003</title>
<g id="a_node27"><a xlink:title="&#45; Características do estado da arte do ensino de História e sua relação com a pesquisa em ensino, os congressos e as publicações específicas da área de ensino, os cursos de pós&#45;graduação em ensino e a metodologia de ensino. O ensino na área de História, seus processos em diferentes espaços educativos.">
<polygon fill="#fdb462" stroke="#fdb462" points="741.52,-381.38 640.73,-381.38 640.73,-278.62 741.52,-278.62 741.52,-381.38"/>
<text text-anchor="middle" x="691.12" y="-364.07" font-family="Arial" font-size="14.00">MEN7003</text>
<text text-anchor="middle" x="691.12" y="-332.32" font-family="Arial" font-size="14.00">Seminário de</text>
<text text-anchor="middle" x="691.12" y="-316.57" font-family="Arial" font-size="14.00">Pesquisa em</text>
<text text-anchor="middle" x="691.12" y="-300.82" font-family="Arial" font-size="14.00">Ensino ( PCC</text>
<text text-anchor="middle" x="691.12" y="-285.07" font-family="Arial" font-size="14.00">72h&#45;a)</text>
</a>
</g>
</g>
<!-- HST7603&#45;&gt;MEN7003 -->
<!-- PSI5137 -->
<g id="node28" class="node">
<title>PSI5137</title>
<g id="a_node28"><a xlink:title="Introdução à Psicologia como ciência: histórico, objetivo e métodos. Interações sociais no contexto educacional e o lugar do professor. Introdução ao estudo do desenvolvimento e de aprendizagem &#45; infância, adolescência, idade adulta. Contribuições da Psicologia na prática escolar cotidiana e na compreensão do fracasso escolar. Prática como componente curricular.">
<polygon fill="#ffffb3" stroke="#ffffb3" points="751.25,-260.25 631,-260.25 631,-141.75 751.25,-141.75 751.25,-260.25"/>
<text text-anchor="middle" x="691.12" y="-242.95" font-family="Arial" font-size="14.00">PSI5137</text>
<text text-anchor="middle" x="691.12" y="-211.2" font-family="Arial" font-size="14.00">Psicologia</text>
<text text-anchor="middle" x="691.12" y="-195.45" font-family="Arial" font-size="14.00">Educacional:</text>
<text text-anchor="middle" x="691.12" y="-179.7" font-family="Arial" font-size="14.00">Desenvolvimento</text>
<text text-anchor="middle" x="691.12" y="-163.95" font-family="Arial" font-size="14.00">e Aprendizagem</text>
<text text-anchor="middle" x="691.12" y="-148.2" font-family="Arial" font-size="14.00">(PCC 12h&#45;a)</text>
</a>
</g>
</g>
<!-- HST7603&#45;&gt;PSI5137 -->
<!-- PSI5137&#45;&gt;HST8426 -->
<!-- HST8456 -->
<g id="node30" class="node">
<title>HST8456</title>
<g id="a_node30"><a xlink:title="A disciplina visa fornecer subsídios preliminares para a disseminação do conhecimento histórico para variados públicos fora do âmbito acadêmico. Nela, são trabalhadas possibilidades de apropriação historiográfica das tecnologias audiovisuais, digitais e virtuais para promover a divulgação científica e a inserção do ensino de história no espaço público.">
<polygon fill="#80b1d3" stroke="#80b1d3" points="892.15,-420.75 791.35,-420.75 791.35,-365.25 892.15,-365.25 892.15,-420.75"/>
<text text-anchor="middle" x="841.75" y="-403.45" font-family="Arial" font-size="14.00">HST8456</text>
<text text-anchor="middle" x="841.75" y="-371.7" font-family="Arial" font-size="14.00">Extensão I</text>
</a>
</g>
</g>
<!-- PSI5137&#45;&gt;HST8456 -->
<!-- LSB7244 -->
<g id="node31" class="node">
<title>LSB7244</title>
<g id="a_node31"><a xlink:title="Prática de conversação em Libras habilitando o aluno a se comunicar nível básico. Mitos e Crenças relacionadas à Língua Brasileira de Sinais (Libras) e aos Surdos. Noções sobre os estudos linguísticos das línguas de sinais em diferentes níveis da descrição linguística. Conceitos básicos da Língua Brasileira de Sinais como iconicidade e arbitrariedade e aspectos culturais e históricos específicos da comunidade surda brasileira. Educação de surdos, papéis dos professores e de intérpretes de libras&#45;português em uma perspectiva inclusiva. Atividades de prática como componente curricular aplicadas à comunicação em Libras.">
<polygon fill="#fb8072" stroke="#fb8072" points="892.5,-347.38 791,-347.38 791,-244.62 892.5,-244.62 892.5,-347.38"/>
<text text-anchor="middle" x="841.75" y="-330.07" font-family="Arial" font-size="14.00">LSB7244</text>
<text text-anchor="middle" x="841.75" y="-298.32" font-family="Arial" font-size="14.00">Língua</text>
<text text-anchor="middle" x="841.75" y="-282.57" font-family="Arial" font-size="14.00">Brasileira de</text>
<text text-anchor="middle" x="841.75" y="-266.82" font-family="Arial" font-size="14.00">Sinais &#45; Libras</text>
<text text-anchor="middle" x="841.75" y="-251.07" font-family="Arial" font-size="14.00">I (PCC 18h&#45;a)</text>
</a>
</g>
</g>
<!-- PSI5137&#45;&gt;LSB7244 -->
<!-- MEN7005 -->
<g id="node32" class="node">
<title>MEN7005</title>
<g id="a_node32"><a xlink:title="&#45;As relações entre História, Educação e Cultura. A cultura imagética, o livro didático e o ensino de História. A pesquisa no ensino de História. A constituição da História como disciplina no contexto da educação escolarizada no Brasil.">
<polygon fill="#fdb462" stroke="#fdb462" points="896.25,-226.38 787.25,-226.38 787.25,-123.62 896.25,-123.62 896.25,-226.38"/>
<text text-anchor="middle" x="841.75" y="-209.07" font-family="Arial" font-size="14.00">MEN7005</text>
<text text-anchor="middle" x="841.75" y="-177.32" font-family="Arial" font-size="14.00">Metodologia do</text>
<text text-anchor="middle" x="841.75" y="-161.57" font-family="Arial" font-size="14.00">Ensino de</text>
<text text-anchor="middle" x="841.75" y="-145.82" font-family="Arial" font-size="14.00">História &#45; PCC</text>
<text text-anchor="middle" x="841.75" y="-130.07" font-family="Arial" font-size="14.00">36 horas/aula</text>
</a>
</g>
</g>
<!-- PSI5137&#45;&gt;MEN7005 -->
<!-- HST8427 -->
<g id="node33" class="node">
<title>HST8427</title>
<polygon fill="#fb8072" stroke="#fb8072" points="1037.15,-105.75 936.35,-105.75 936.35,-50.25 1037.15,-50.25 1037.15,-105.75"/>
<text text-anchor="middle" x="986.75" y="-88.45" font-family="Arial" font-size="14.00">HST8427</text>
<text text-anchor="middle" x="986.75" y="-56.7" font-family="Arial" font-size="14.00">TCC II</text>
</g>
<!-- HST8426&#45;&gt;HST8427 -->
<g id="edge10" class="edge">
<title>HST8426&#45;&gt;HST8427</title>
<path fill="none" stroke="#fb8072" stroke-width="2" d="M892.46,-68.75C892.46,-68.75 933.81,-68.75 933.81,-68.75"/>
<polygon fill="#fb8072" stroke="#fb8072" stroke-width="2" points="935.31,-66.25 935.31,-71.25 934.31,-71.25 934.31,-66.25 935.31,-66.25"/>
<polyline fill="none" stroke="#fb8072" stroke-width="2" points="935.81,-68.75 933.31,-68.75"/>
</g>
<!-- MEN7005&#45;&gt;HST8427 -->
<!-- HST8457 -->
<g id="node34" class="node">
<title>HST8457</title>
<g id="a_node34"><a xlink:title="A disciplina se destina a coordenar práticas e experimentações diversas, aproveitando tecnologias audiovisuais, digitais e virtuais, mas incluindo atividades de extensão em sua variedade de modalidades, recursos e suportes na forma de oficinas, cursos e atividades diversas de extensão universitária na área de História relacionadas à divulgação científica, à formação continuada de professores, à produção textual, ao estudo da paleografia.">
<polygon fill="#80b1d3" stroke="#80b1d3" points="1037.15,-179.75 936.35,-179.75 936.35,-124.25 1037.15,-124.25 1037.15,-179.75"/>
<text text-anchor="middle" x="986.75" y="-162.45" font-family="Arial" font-size="14.00">HST8457</text>
<text text-anchor="middle" x="986.75" y="-130.7" font-family="Arial" font-size="14.00">Extensão II</text>
</a>
</g>
</g>
<!-- MEN7005&#45;&gt;HST8457 -->
<!-- MEN7005&#45;&gt;MEN7017 -->
<g id="edge12" class="edge">
<title>MEN7005&#45;&gt;MEN7017</title>
<path fill="none" stroke="#fdb462" stroke-width="2" d="M896.57,-207.12C896.57,-207.12 929.35,-207.12 929.35,-207.12"/>
<polygon fill="#fdb462" stroke="#fdb462" stroke-width="2" points="930.85,-204.63 930.85,-209.63 929.85,-209.63 929.85,-204.63 930.85,-204.63"/>
<polyline fill="none" stroke="#fdb462" stroke-width="2" points="931.35,-207.13 928.85,-207.13"/>
</g>
<!-- MEN7005&#45;&gt;MEN7017 -->
<!-- MEN7018 -->
<g id="node36" class="node">
<title>MEN7018</title>
<g id="a_node36"><a xlink:title="Implementação do projeto de ensino e planos de aulas. Participação no conjunto das atividades do campo de estágio. Sistematização e socialização do estágio.">
<polygon fill="#fdb462" stroke="#fdb462" points="1186.25,-284.5 1077.25,-284.5 1077.25,-197.5 1186.25,-197.5 1186.25,-284.5"/>
<text text-anchor="middle" x="1131.75" y="-267.2" font-family="Arial" font-size="14.00">MEN7018</text>
<text text-anchor="middle" x="1131.75" y="-235.45" font-family="Arial" font-size="14.00">Estágio</text>
<text text-anchor="middle" x="1131.75" y="-219.7" font-family="Arial" font-size="14.00">Supervisionado</text>
<text text-anchor="middle" x="1131.75" y="-203.95" font-family="Arial" font-size="14.00">de História II</text>
</a>
</g>
</g>
<!-- MEN7017&#45;&gt;MEN7018 -->
<g id="edge13" class="edge">
<title>MEN7017&#45;&gt;MEN7018</title>
<path fill="none" stroke="#fdb462" stroke-width="2" d="M1041.57,-226.5C1041.57,-226.5 1074.35,-226.5 1074.35,-226.5"/>
<polygon fill="#fdb462" stroke="#fdb462" stroke-width="2" points="1075.85,-224 1075.85,-229 1074.85,-229 1074.85,-224 1075.85,-224"/>
<polyline fill="none" stroke="#fdb462" stroke-width="2" points="1076.35,-226.5 1073.85,-226.5"/>
</g>
<!-- MEN7017&#45;&gt;MEN7018 -->
</g>
</svg>
