<?xml version="1.0" encoding="UTF-8" standalone="no"?>
<!DOCTYPE svg PUBLIC "-//W3C//DTD SVG 1.1//EN"
 "http://www.w3.org/Graphics/SVG/1.1/DTD/svg11.dtd">
<!-- Generated by graphviz version 9.0.0 (0)
 -->
<!-- Title: grafo_materias Pages: 1 -->
<svg width="593pt" height="697pt"
 viewBox="0.00 0.00 592.60 697.00" xmlns="http://www.w3.org/2000/svg" xmlns:xlink="http://www.w3.org/1999/xlink">
<g id="graph0" class="graph" transform="scale(1 1) rotate(0) translate(4 693)">
<title>grafo_materias</title>
<polygon fill="none" stroke="none" points="-4,4 -4,-693 588.6,-693 588.6,4 -4,4"/>
<g id="clust1" class="cluster">
<title>cluster_everything</title>
<polygon fill="none" stroke="none" points="8,-8 8,-681 576.6,-681 576.6,-8 8,-8"/>
</g>
<g id="clust2" class="cluster">
<title>cluster_header</title>
<polygon fill="none" stroke="none" points="18.23,-621 18.23,-673 558.12,-673 558.12,-621 18.23,-621"/>
</g>
<g id="clust3" class="cluster">
<title>cluster_0</title>
<polygon fill="none" stroke="none" points="16,-32 16,-508 137.25,-508 137.25,-32 16,-32"/>
</g>
<g id="clust4" class="cluster">
<title>cluster_1</title>
<polygon fill="none" stroke="none" points="157.25,-137 157.25,-613 274.05,-613 274.05,-137 157.25,-137"/>
</g>
<g id="clust5" class="cluster">
<title>cluster_2</title>
<polygon fill="none" stroke="none" points="294.05,-145 294.05,-443 410.85,-443 410.85,-145 294.05,-145"/>
</g>
<g id="clust6" class="cluster">
<title>cluster_3</title>
<polygon fill="none" stroke="none" points="430.85,-16 430.85,-613 568.6,-613 568.6,-16 430.85,-16"/>
</g>
<!-- Fase 01 -->
<g id="node1" class="node">
<title>Fase 01</title>
<polygon fill="lightgrey" stroke="black" points="127.03,-665 26.23,-665 26.23,-629 127.03,-629 127.03,-665"/>
<text text-anchor="middle" x="76.62" y="-641.58" font-family="Arial" font-size="14.00">Fase 01</text>
</g>
<!-- Fase 02 -->
<g id="node2" class="node">
<title>Fase 02</title>
<polygon fill="lightgrey" stroke="black" points="266.05,-665 165.25,-665 165.25,-629 266.05,-629 266.05,-665"/>
<text text-anchor="middle" x="215.65" y="-641.58" font-family="Arial" font-size="14.00">Fase 02</text>
</g>
<!-- Fase 01&#45;&gt;Fase 02 -->
<!-- Fase 03 -->
<g id="node3" class="node">
<title>Fase 03</title>
<polygon fill="lightgrey" stroke="black" points="402.85,-665 302.05,-665 302.05,-629 402.85,-629 402.85,-665"/>
<text text-anchor="middle" x="352.45" y="-641.58" font-family="Arial" font-size="14.00">Fase 03</text>
</g>
<!-- Fase 02&#45;&gt;Fase 03 -->
<!-- Fase 04 -->
<g id="node4" class="node">
<title>Fase 04</title>
<polygon fill="lightgrey" stroke="black" points="550.12,-665 449.33,-665 449.33,-629 550.12,-629 550.12,-665"/>
<text text-anchor="middle" x="499.73" y="-641.58" font-family="Arial" font-size="14.00">Fase 04</text>
</g>
<!-- Fase 03&#45;&gt;Fase 04 -->
<!-- LLE5361 -->
<g id="node5" class="node">
<title>LLE5361</title>
<g id="a_node5"><a xlink:title="Introdução ao aprendizado do léxico e das estruturas gramaticais básicas do Espanhol. Desenvolvimento inicial da leitura, compreensão oral e produção oral e escrita.">
<polygon fill="#8dd3c7" stroke="#8dd3c7" points="127.03,-499.62 26.23,-499.62 26.23,-428.38 127.03,-428.38 127.03,-499.62"/>
<text text-anchor="middle" x="76.62" y="-482.32" font-family="Arial" font-size="14.00">LLE5361</text>
<text text-anchor="middle" x="76.62" y="-450.57" font-family="Arial" font-size="14.00">Língua</text>
<text text-anchor="middle" x="76.62" y="-434.82" font-family="Arial" font-size="14.00">Espanhola I</text>
</a>
</g>
</g>
<!-- LLE5362 -->
<g id="node10" class="node">
<title>LLE5362</title>
<g id="a_node10"><a xlink:title="Continuidade do aprendizado do léxico e das estruturas gramaticais básicas do Espanhol e aprofundamento da leitura, compreensão oral, produção oral e escrita.">
<polygon fill="#8dd3c7" stroke="#8dd3c7" points="266.05,-604.62 165.25,-604.62 165.25,-533.38 266.05,-533.38 266.05,-604.62"/>
<text text-anchor="middle" x="215.65" y="-587.33" font-family="Arial" font-size="14.00">LLE5362</text>
<text text-anchor="middle" x="215.65" y="-555.58" font-family="Arial" font-size="14.00">Língua</text>
<text text-anchor="middle" x="215.65" y="-539.83" font-family="Arial" font-size="14.00">Espanhola II</text>
</a>
</g>
</g>
<!-- LLE5361&#45;&gt;LLE5362 -->
<g id="edge4" class="edge">
<title>LLE5361&#45;&gt;LLE5362</title>
<path fill="none" stroke="#8dd3c7" stroke-width="2" d="M60.6,-500.02C60.6,-534.36 60.6,-580.88 60.6,-580.88 60.6,-580.88 162.38,-580.88 162.38,-580.88"/>
<polygon fill="#8dd3c7" stroke="#8dd3c7" stroke-width="2" points="163.88,-578.38 163.88,-583.38 162.88,-583.38 162.88,-578.38 163.88,-578.38"/>
<polyline fill="none" stroke="#8dd3c7" stroke-width="2" points="164.38,-580.88 161.88,-580.88"/>
</g>
<!-- LLE5361&#45;&gt;LLE5362 -->
<!-- LLE5372 -->
<g id="node11" class="node">
<title>LLE5372</title>
<g id="a_node11"><a xlink:title="Desenvolvimento da habilidade de tradução do Espanhol para o Português.">
<polygon fill="#8dd3c7" stroke="#8dd3c7" points="266.05,-394.62 165.25,-394.62 165.25,-323.38 266.05,-323.38 266.05,-394.62"/>
<text text-anchor="middle" x="215.65" y="-377.32" font-family="Arial" font-size="14.00">LLE5372</text>
<text text-anchor="middle" x="215.65" y="-345.57" font-family="Arial" font-size="14.00">Pratica de</text>
<text text-anchor="middle" x="215.65" y="-329.82" font-family="Arial" font-size="14.00">Tradução II</text>
</a>
</g>
</g>
<!-- LLE5361&#45;&gt;LLE5372 -->
<!-- LLV5102 -->
<g id="node12" class="node">
<title>LLV5102</title>
<g id="a_node12"><a xlink:title="Sentido e referência. Enunciado e Enunciação. Semântica e pragmática. Regras conversacionais. Princípios de semântica formal.">
<polygon fill="#80b1d3" stroke="#80b1d3" points="266.05,-305.75 165.25,-305.75 165.25,-250.25 266.05,-250.25 266.05,-305.75"/>
<text text-anchor="middle" x="215.65" y="-288.45" font-family="Arial" font-size="14.00">LLV5102</text>
<text text-anchor="middle" x="215.65" y="-256.7" font-family="Arial" font-size="14.00">Semântica</text>
</a>
</g>
</g>
<!-- LLE5361&#45;&gt;LLV5102 -->
<!-- LLV5240 -->
<g id="node13" class="node">
<title>LLV5240</title>
<g id="a_node13"><a xlink:title="Leitura e análise de textos canônicos na Literatura Brasileira, abordando os seguintes aspectos e textos: a) da colônia ao romantismo &#45; construção da identidade nacional a partir do mapeamento territorial; o barroco e a internacionalização da cultura: leitura da poesia de Gregório de Matos; Alencar e as ficções fundacionais: leitura de um romance indianista e de um urbano; b) Do Império à República Velha &#45; o oitocentos brasileiro, literatura e cultura brasileiras pós&#45;românticas: a ficção moderna de Machado de Assis: leitura de um romance ou de contos; c) 1920/1990 &#45; a literatura da modernidade &#45; modernismo e pós&#45; modernismo &#45; o lirismo moderno: leitura da poesia de Bandeira e Drummond; permanência e transformação do regional: leitura de um romance de Graciliano Ramos (Vidas secas ou São Bernardo) e do `Grande sertão: veredas`, de Guimarães Rosa; as narrativas de introspecção pessoal &#45; Clarice Lispector :leitura de contos ou de um romance.">
<polygon fill="#80b1d3" stroke="#80b1d3" points="266.05,-515.38 165.25,-515.38 165.25,-412.62 266.05,-412.62 266.05,-515.38"/>
<text text-anchor="middle" x="215.65" y="-498.07" font-family="Arial" font-size="14.00">LLV5240</text>
<text text-anchor="middle" x="215.65" y="-466.32" font-family="Arial" font-size="14.00">Introdução ao</text>
<text text-anchor="middle" x="215.65" y="-450.57" font-family="Arial" font-size="14.00">Estudo da</text>
<text text-anchor="middle" x="215.65" y="-434.82" font-family="Arial" font-size="14.00">Literatura</text>
<text text-anchor="middle" x="215.65" y="-419.07" font-family="Arial" font-size="14.00">Brasileira</text>
</a>
</g>
</g>
<!-- LLE5361&#45;&gt;LLV5240 -->
<!-- LLV5802 -->
<g id="node14" class="node">
<title>LLV5802</title>
<g id="a_node14"><a xlink:title="Introdução à língua latina; características; sintaxe dos casos.">
<polygon fill="#80b1d3" stroke="#80b1d3" points="266.05,-232.5 165.25,-232.5 165.25,-145.5 266.05,-145.5 266.05,-232.5"/>
<text text-anchor="middle" x="215.65" y="-215.2" font-family="Arial" font-size="14.00">LLV5802</text>
<text text-anchor="middle" x="215.65" y="-183.45" font-family="Arial" font-size="14.00">Língua e</text>
<text text-anchor="middle" x="215.65" y="-167.7" font-family="Arial" font-size="14.00">Cultura Latina</text>
<text text-anchor="middle" x="215.65" y="-151.95" font-family="Arial" font-size="14.00">II</text>
</a>
</g>
</g>
<!-- LLE5361&#45;&gt;LLV5802 -->
<!-- LLE5371 -->
<g id="node6" class="node">
<title>LLE5371</title>
<g id="a_node6"><a xlink:title="Introdução à prática da tradução, com ênfase nas diferenças gramaticais e colocacionais entre o Espanhol e o Português.">
<polygon fill="#8dd3c7" stroke="#8dd3c7" points="127.03,-410.62 26.23,-410.62 26.23,-339.38 127.03,-339.38 127.03,-410.62"/>
<text text-anchor="middle" x="76.62" y="-393.32" font-family="Arial" font-size="14.00">LLE5371</text>
<text text-anchor="middle" x="76.62" y="-361.57" font-family="Arial" font-size="14.00">Pratica de</text>
<text text-anchor="middle" x="76.62" y="-345.82" font-family="Arial" font-size="14.00">Tradução I</text>
</a>
</g>
</g>
<!-- LLE5371&#45;&gt;LLE5372 -->
<g id="edge5" class="edge">
<title>LLE5371&#45;&gt;LLE5372</title>
<path fill="none" stroke="#8dd3c7" stroke-width="2" d="M127.21,-357.79C127.21,-357.79 162.37,-357.79 162.37,-357.79"/>
<polygon fill="#8dd3c7" stroke="#8dd3c7" stroke-width="2" points="163.87,-355.29 163.87,-360.29 162.87,-360.29 162.87,-355.29 163.87,-355.29"/>
<polyline fill="none" stroke="#8dd3c7" stroke-width="2" points="164.37,-357.79 161.87,-357.79"/>
</g>
<!-- LLV5101 -->
<g id="node7" class="node">
<title>LLV5101</title>
<g id="a_node7"><a xlink:title="Os conceitos de gramática. Recuperação da história da gramática clássica na estrutura das gramáticas tradicionais.">
<polygon fill="#80b1d3" stroke="#80b1d3" points="129.25,-321.5 24,-321.5 24,-234.5 129.25,-234.5 129.25,-321.5"/>
<text text-anchor="middle" x="76.62" y="-304.2" font-family="Arial" font-size="14.00">LLV5101</text>
<text text-anchor="middle" x="76.62" y="-272.45" font-family="Arial" font-size="14.00">Introdução aos</text>
<text text-anchor="middle" x="76.62" y="-256.7" font-family="Arial" font-size="14.00">Estudos</text>
<text text-anchor="middle" x="76.62" y="-240.95" font-family="Arial" font-size="14.00">Gramaticais</text>
</a>
</g>
</g>
<!-- LLV5101&#45;&gt;LLV5102 -->
<g id="edge6" class="edge">
<title>LLV5101&#45;&gt;LLV5102</title>
<path fill="none" stroke="#80b1d3" stroke-width="2" d="M129.58,-268.75C129.58,-268.75 162.63,-268.75 162.63,-268.75"/>
<polygon fill="#80b1d3" stroke="#80b1d3" stroke-width="2" points="164.13,-266.25 164.13,-271.25 163.13,-271.25 163.13,-266.25 164.13,-266.25"/>
<polyline fill="none" stroke="#80b1d3" stroke-width="2" points="164.63,-268.75 162.13,-268.75"/>
</g>
<!-- LLV5801 -->
<g id="node8" class="node">
<title>LLV5801</title>
<g id="a_node8"><a xlink:title="História de Roma. Panorama da literatura latina.">
<polygon fill="#80b1d3" stroke="#80b1d3" points="127.03,-216.5 26.23,-216.5 26.23,-129.5 127.03,-129.5 127.03,-216.5"/>
<text text-anchor="middle" x="76.62" y="-199.2" font-family="Arial" font-size="14.00">LLV5801</text>
<text text-anchor="middle" x="76.62" y="-167.45" font-family="Arial" font-size="14.00">Língua e</text>
<text text-anchor="middle" x="76.62" y="-151.7" font-family="Arial" font-size="14.00">Cultura Latina</text>
<text text-anchor="middle" x="76.62" y="-135.95" font-family="Arial" font-size="14.00">I</text>
</a>
</g>
</g>
<!-- LLV5801&#45;&gt;LLV5802 -->
<g id="edge7" class="edge">
<title>LLV5801&#45;&gt;LLV5802</title>
<path fill="none" stroke="#80b1d3" stroke-width="2" d="M127.21,-181C127.21,-181 162.37,-181 162.37,-181"/>
<polygon fill="#80b1d3" stroke="#80b1d3" stroke-width="2" points="163.87,-178.5 163.87,-183.5 162.87,-183.5 162.87,-178.5 163.87,-178.5"/>
<polyline fill="none" stroke="#80b1d3" stroke-width="2" points="164.37,-181 161.87,-181"/>
</g>
<!-- LLV5931 -->
<g id="node9" class="node">
<title>LLV5931</title>
<g id="a_node9"><a xlink:title="Leitura e análise de textos canônicos na Literatura Ocidental, abordando os seguintes aspectos e textos: a) poéticas clássicas &#45; mimese e níveis de representação; a Poética de Aristóteles, uma tragédia grega e a Odisséia (Homero); b) poéticas modernas &#45; mescla e hibridismo: o &#39;Prefácio&#39; a Cromwell, de Vitor Hugo; &#39;O Pintor da vida moderna&#39;, de Baudelaire; uma peça de Schkespeare e um conto de Machado de Assis; c) poéticas contemporâneas &#45; a crise da representação: O grau zero da escritura, de Roland Barthes; Esperando Godot, de Beckett; um conto de Guimarães Rosa; &#39;Pierre Menard, autor do Quixote&#39;, de Borges, e poemas de João Cabral de Melo Neto.">
<polygon fill="#80b1d3" stroke="#80b1d3" points="127.03,-111.62 26.23,-111.62 26.23,-40.38 127.03,-40.38 127.03,-111.62"/>
<text text-anchor="middle" x="76.62" y="-94.33" font-family="Arial" font-size="14.00">LLV5931</text>
<text text-anchor="middle" x="76.62" y="-62.58" font-family="Arial" font-size="14.00">Teoria da</text>
<text text-anchor="middle" x="76.62" y="-46.83" font-family="Arial" font-size="14.00">Literatura I</text>
</a>
</g>
</g>
<!-- LLE5363 -->
<g id="node15" class="node">
<title>LLE5363</title>
<g id="a_node15"><a xlink:title="Aquisição de fluidez oral na discussão de temas variados. Redação de textos curtos e de extensão média sobre tópicos atuais.">
<polygon fill="#8dd3c7" stroke="#8dd3c7" points="402.85,-434.62 302.05,-434.62 302.05,-363.38 402.85,-363.38 402.85,-434.62"/>
<text text-anchor="middle" x="352.45" y="-417.32" font-family="Arial" font-size="14.00">LLE5363</text>
<text text-anchor="middle" x="352.45" y="-385.57" font-family="Arial" font-size="14.00">Língua</text>
<text text-anchor="middle" x="352.45" y="-369.82" font-family="Arial" font-size="14.00">Espanhola III</text>
</a>
</g>
</g>
<!-- LLE5362&#45;&gt;LLE5363 -->
<g id="edge8" class="edge">
<title>LLE5362&#45;&gt;LLE5363</title>
<path fill="none" stroke="#8dd3c7" stroke-width="2" d="M266.24,-586.81C299.39,-586.81 336.6,-586.81 336.6,-586.81 336.6,-586.81 336.6,-437.27 336.6,-437.27"/>
<polygon fill="#8dd3c7" stroke="#8dd3c7" stroke-width="2" points="334.1,-435.77 339.1,-435.77 339.1,-436.77 334.1,-436.77 334.1,-435.77"/>
<polyline fill="none" stroke="#8dd3c7" stroke-width="2" points="336.6,-435.27 336.6,-437.77"/>
</g>
<!-- LLV5802&#45;&gt;LLE5363 -->
<!-- LLE5381 -->
<g id="node16" class="node">
<title>LLE5381</title>
<g id="a_node16"><a xlink:title="Introdução ao estudo do texto literário hispânico. Procedimentos específicos de poesia, prosa, teatro e ensaio. Figuras do discurso literário.">
<polygon fill="#8dd3c7" stroke="#8dd3c7" points="402.85,-224.62 302.05,-224.62 302.05,-153.38 402.85,-153.38 402.85,-224.62"/>
<text text-anchor="middle" x="352.45" y="-207.32" font-family="Arial" font-size="14.00">LLE5381</text>
<text text-anchor="middle" x="352.45" y="-175.57" font-family="Arial" font-size="14.00">Literatura</text>
<text text-anchor="middle" x="352.45" y="-159.82" font-family="Arial" font-size="14.00">Hispânica I</text>
</a>
</g>
</g>
<!-- LLV5802&#45;&gt;LLE5381 -->
<!-- LLV5260 -->
<g id="node17" class="node">
<title>LLV5260</title>
<g id="a_node17"><a xlink:title="Leitura e análise de textos canônicos na Literatura Portuguesa, abordando os seguintes aspectos e textos: a) a literatura e a construção da nacionalidade portuguesa &#45; a lírica trovadoresca: leitura de cantigas de amigo, de amor, de escárnio; o teatro de Gil Vicente: leitura de um dos autos; b) tradição e renovação, o paradigma do escritor clássico: leitura de poemas líricos de Camões; c) Barroco &#45; norma e transgressão &#45; releituras do lírico e do satírico: Bocage; d) o conflito campo/cidade &#45; Eça de Queiroz: leitura de um romance; e) Metáforas da modernidade na literatura portuguesa do século XX: novecentos e vanguarda; multiplicidades do moderno : leitura de poemas de Fernando Pessoa e de seus heterônimos; da verossimilhança realista &#45; Alves Redol : leitura de um romance, à verossimilhança intertextual &#45; José Saramago: leitura de um romance).">
<polygon fill="#80b1d3" stroke="#80b1d3" points="402.85,-345.38 302.05,-345.38 302.05,-242.62 402.85,-242.62 402.85,-345.38"/>
<text text-anchor="middle" x="352.45" y="-328.07" font-family="Arial" font-size="14.00">LLV5260</text>
<text text-anchor="middle" x="352.45" y="-296.32" font-family="Arial" font-size="14.00">Introdução ao</text>
<text text-anchor="middle" x="352.45" y="-280.57" font-family="Arial" font-size="14.00">Estudo da</text>
<text text-anchor="middle" x="352.45" y="-264.82" font-family="Arial" font-size="14.00">Literatura</text>
<text text-anchor="middle" x="352.45" y="-249.07" font-family="Arial" font-size="14.00">Portuguesa</text>
</a>
</g>
</g>
<!-- LLV5802&#45;&gt;LLV5260 -->
<!-- LLE5364 -->
<g id="node20" class="node">
<title>LLE5364</title>
<g id="a_node20"><a xlink:title="Estudo sistemático da morfologia do Espanhol.">
<polygon fill="#8dd3c7" stroke="#8dd3c7" points="550.12,-604.62 449.33,-604.62 449.33,-533.38 550.12,-533.38 550.12,-604.62"/>
<text text-anchor="middle" x="499.73" y="-587.33" font-family="Arial" font-size="14.00">LLE5364</text>
<text text-anchor="middle" x="499.73" y="-555.58" font-family="Arial" font-size="14.00">Língua</text>
<text text-anchor="middle" x="499.73" y="-539.83" font-family="Arial" font-size="14.00">Espanhola IV</text>
</a>
</g>
</g>
<!-- LLE5363&#45;&gt;LLE5364 -->
<g id="edge9" class="edge">
<title>LLE5363&#45;&gt;LLE5364</title>
<path fill="none" stroke="#8dd3c7" stroke-width="2" d="M369.6,-435.05C369.6,-484.95 369.6,-569 369.6,-569 369.6,-569 446.54,-569 446.54,-569"/>
<polygon fill="#8dd3c7" stroke="#8dd3c7" stroke-width="2" points="448.04,-566.5 448.04,-571.5 447.04,-571.5 447.04,-566.5 448.04,-566.5"/>
<polyline fill="none" stroke="#8dd3c7" stroke-width="2" points="448.54,-569 446.04,-569"/>
</g>
<!-- LLE5331 -->
<g id="node18" class="node">
<title>LLE5331</title>
<g id="a_node18"><a xlink:title="Explicação e análise de poemas e contos hispânicos.">
<polygon fill="#8dd3c7" stroke="#8dd3c7" points="550.12,-410.38 449.33,-410.38 449.33,-307.62 550.12,-307.62 550.12,-410.38"/>
<text text-anchor="middle" x="499.73" y="-393.07" font-family="Arial" font-size="14.00">LLE5331</text>
<text text-anchor="middle" x="499.73" y="-361.32" font-family="Arial" font-size="14.00">Explicação e</text>
<text text-anchor="middle" x="499.73" y="-345.57" font-family="Arial" font-size="14.00">Análise de</text>
<text text-anchor="middle" x="499.73" y="-329.82" font-family="Arial" font-size="14.00">Textos</text>
<text text-anchor="middle" x="499.73" y="-314.07" font-family="Arial" font-size="14.00">Literários I</text>
</a>
</g>
</g>
<!-- LLV5260&#45;&gt;LLE5331 -->
<!-- LLE5341 -->
<g id="node19" class="node">
<title>LLE5341</title>
<g id="a_node19"><a xlink:title="Introdução à prática da versão, com ênfase nas diferenças gramaticais e colocacionais entre o Espanhol e o Português.">
<polygon fill="#8dd3c7" stroke="#8dd3c7" points="550.12,-289.62 449.33,-289.62 449.33,-218.38 550.12,-218.38 550.12,-289.62"/>
<text text-anchor="middle" x="499.73" y="-272.32" font-family="Arial" font-size="14.00">LLE5341</text>
<text text-anchor="middle" x="499.73" y="-240.57" font-family="Arial" font-size="14.00">Pratica de</text>
<text text-anchor="middle" x="499.73" y="-224.82" font-family="Arial" font-size="14.00">Versão I</text>
</a>
</g>
</g>
<!-- LLV5260&#45;&gt;LLE5341 -->
<!-- LLV5260&#45;&gt;LLE5364 -->
<!-- LLE5382 -->
<g id="node21" class="node">
<title>LLE5382</title>
<g id="a_node21"><a xlink:title="Panorama histórico das literaturas espanholas, com leitura e análise de obras representativas.">
<polygon fill="#8dd3c7" stroke="#8dd3c7" points="550.12,-95.62 449.33,-95.62 449.33,-24.38 550.12,-24.38 550.12,-95.62"/>
<text text-anchor="middle" x="499.73" y="-78.33" font-family="Arial" font-size="14.00">LLE5382</text>
<text text-anchor="middle" x="499.73" y="-46.58" font-family="Arial" font-size="14.00">Literatura</text>
<text text-anchor="middle" x="499.73" y="-30.82" font-family="Arial" font-size="14.00">Hispânica II</text>
</a>
</g>
</g>
<!-- LLV5260&#45;&gt;LLE5382 -->
<!-- LLE5392 -->
<g id="node22" class="node">
<title>LLE5392</title>
<polygon fill="#8dd3c7" stroke="#8dd3c7" points="560.6,-515.5 438.85,-515.5 438.85,-428.5 560.6,-428.5 560.6,-515.5"/>
<text text-anchor="middle" x="499.73" y="-498.2" font-family="Arial" font-size="14.00">LLE5392</text>
<text text-anchor="middle" x="499.73" y="-466.45" font-family="Arial" font-size="14.00">Pratica de</text>
<text text-anchor="middle" x="499.73" y="-450.7" font-family="Arial" font-size="14.00">Composição Oral</text>
<text text-anchor="middle" x="499.73" y="-434.95" font-family="Arial" font-size="14.00">I</text>
</g>
<!-- LLV5260&#45;&gt;LLE5392 -->
<!-- LLE5393 -->
<g id="node23" class="node">
<title>LLE5393</title>
<g id="a_node23"><a xlink:title="Introdução à prática de composição oral e escrita, com ênfase nos procedimentos composicionais em nível de frase, parágrafo e totalidade do texto.">
<polygon fill="#8dd3c7" stroke="#8dd3c7" points="550.12,-200.5 449.33,-200.5 449.33,-113.5 550.12,-113.5 550.12,-200.5"/>
<text text-anchor="middle" x="499.73" y="-183.2" font-family="Arial" font-size="14.00">LLE5393</text>
<text text-anchor="middle" x="499.73" y="-151.45" font-family="Arial" font-size="14.00">Pratica de</text>
<text text-anchor="middle" x="499.73" y="-135.7" font-family="Arial" font-size="14.00">Composição</text>
<text text-anchor="middle" x="499.73" y="-119.95" font-family="Arial" font-size="14.00">Escrita I</text>
</a>
</g>
</g>
<!-- LLV5260&#45;&gt;LLE5393 -->
</g>
</svg>
