<?xml version="1.0" encoding="UTF-8" standalone="no"?>
<!DOCTYPE svg PUBLIC "-//W3C//DTD SVG 1.1//EN"
 "http://www.w3.org/Graphics/SVG/1.1/DTD/svg11.dtd">
<!-- Generated by graphviz version 9.0.0 (0)
 -->
<!-- Title: grafo_materias Pages: 1 -->
<svg width="625pt" height="1145pt"
 viewBox="0.00 0.00 624.75 1145.00" xmlns="http://www.w3.org/2000/svg" xmlns:xlink="http://www.w3.org/1999/xlink">
<g id="graph0" class="graph" transform="scale(1 1) rotate(0) translate(4 1141)">
<title>grafo_materias</title>
<polygon fill="none" stroke="none" points="-4,4 -4,-1141 620.75,-1141 620.75,4 -4,4"/>
<g id="clust1" class="cluster">
<title>cluster_everything</title>
<polygon fill="none" stroke="none" points="8,-8 8,-1129 608.75,-1129 608.75,-8 8,-8"/>
</g>
<g id="clust2" class="cluster">
<title>cluster_header</title>
<polygon fill="none" stroke="none" points="22.73,-1069 22.73,-1121 592.15,-1121 592.15,-1069 22.73,-1069"/>
</g>
<g id="clust3" class="cluster">
<title>cluster_0</title>
<polygon fill="none" stroke="none" points="16,-441 16,-997 146.25,-997 146.25,-441 16,-441"/>
</g>
<g id="clust4" class="cluster">
<title>cluster_1</title>
<polygon fill="none" stroke="none" points="166.25,-404 166.25,-959 296.5,-959 296.5,-404 166.25,-404"/>
</g>
<g id="clust5" class="cluster">
<title>cluster_2</title>
<polygon fill="none" stroke="none" points="316.5,-16 316.5,-1061 446.75,-1061 446.75,-16 316.5,-16"/>
</g>
<g id="clust6" class="cluster">
<title>cluster_3</title>
<polygon fill="none" stroke="none" points="466.75,-427 466.75,-893 600.75,-893 600.75,-427 466.75,-427"/>
</g>
<!-- Fase 01 -->
<g id="node1" class="node">
<title>Fase 01</title>
<polygon fill="lightgrey" stroke="black" points="131.53,-1113 30.73,-1113 30.73,-1077 131.53,-1077 131.53,-1113"/>
<text text-anchor="middle" x="81.12" y="-1089.58" font-family="Arial" font-size="14.00">Fase 01</text>
</g>
<!-- Fase 02 -->
<g id="node2" class="node">
<title>Fase 02</title>
<polygon fill="lightgrey" stroke="black" points="281.77,-1113 180.97,-1113 180.97,-1077 281.77,-1077 281.77,-1113"/>
<text text-anchor="middle" x="231.38" y="-1089.58" font-family="Arial" font-size="14.00">Fase 02</text>
</g>
<!-- Fase 01&#45;&gt;Fase 02 -->
<!-- Fase 03 -->
<g id="node3" class="node">
<title>Fase 03</title>
<polygon fill="lightgrey" stroke="black" points="432.02,-1113 331.23,-1113 331.23,-1077 432.02,-1077 432.02,-1113"/>
<text text-anchor="middle" x="381.62" y="-1089.58" font-family="Arial" font-size="14.00">Fase 03</text>
</g>
<!-- Fase 02&#45;&gt;Fase 03 -->
<!-- Fase 04 -->
<g id="node4" class="node">
<title>Fase 04</title>
<polygon fill="lightgrey" stroke="black" points="584.15,-1113 483.35,-1113 483.35,-1077 584.15,-1077 584.15,-1113"/>
<text text-anchor="middle" x="533.75" y="-1089.58" font-family="Arial" font-size="14.00">Fase 04</text>
</g>
<!-- Fase 03&#45;&gt;Fase 04 -->
<!-- LLE5011 -->
<g id="node5" class="node">
<title>LLE5011</title>
<g id="a_node5"><a xlink:title="Introdução à compreensão e produção escrita, na língua inglesa, a nível básico.">
<polygon fill="#8dd3c7" stroke="#8dd3c7" points="137.5,-778.25 24.75,-778.25 24.75,-659.75 137.5,-659.75 137.5,-778.25"/>
<text text-anchor="middle" x="81.12" y="-760.95" font-family="Arial" font-size="14.00">LLE5011</text>
<text text-anchor="middle" x="81.12" y="-729.2" font-family="Arial" font-size="14.00">Compreensão e</text>
<text text-anchor="middle" x="81.12" y="-713.45" font-family="Arial" font-size="14.00">Produção</text>
<text text-anchor="middle" x="81.12" y="-697.7" font-family="Arial" font-size="14.00">Escrita em</text>
<text text-anchor="middle" x="81.12" y="-681.95" font-family="Arial" font-size="14.00">Língua Inglesa</text>
<text text-anchor="middle" x="81.12" y="-666.2" font-family="Arial" font-size="14.00">I</text>
</a>
</g>
</g>
<!-- LLE5012 -->
<g id="node10" class="node">
<title>LLE5012</title>
<g id="a_node10"><a xlink:title="Desenvolvimento da compreensão e produção escrita, na língua inglesa, a nível pré&#45;intermediário.">
<polygon fill="#8dd3c7" stroke="#8dd3c7" points="287.75,-951.25 175,-951.25 175,-832.75 287.75,-832.75 287.75,-951.25"/>
<text text-anchor="middle" x="231.38" y="-933.95" font-family="Arial" font-size="14.00">LLE5012</text>
<text text-anchor="middle" x="231.38" y="-902.2" font-family="Arial" font-size="14.00">Compreensão e</text>
<text text-anchor="middle" x="231.38" y="-886.45" font-family="Arial" font-size="14.00">Produção</text>
<text text-anchor="middle" x="231.38" y="-870.7" font-family="Arial" font-size="14.00">Escrita em</text>
<text text-anchor="middle" x="231.38" y="-854.95" font-family="Arial" font-size="14.00">Língua Inglesa</text>
<text text-anchor="middle" x="231.38" y="-839.2" font-family="Arial" font-size="14.00">II</text>
</a>
</g>
</g>
<!-- LLE5011&#45;&gt;LLE5012 -->
<g id="edge4" class="edge">
<title>LLE5011&#45;&gt;LLE5012</title>
<path fill="none" stroke="#8dd3c7" stroke-width="2" d="M137.72,-764.92C150.69,-764.92 160.75,-764.92 160.75,-764.92 160.75,-764.92 160.75,-866.06 160.75,-866.06 160.75,-866.06 172.2,-866.06 172.2,-866.06"/>
<polygon fill="#8dd3c7" stroke="#8dd3c7" stroke-width="2" points="173.7,-863.56 173.7,-868.56 172.7,-868.56 172.7,-863.56 173.7,-863.56"/>
<polyline fill="none" stroke="#8dd3c7" stroke-width="2" points="174.2,-866.06 171.7,-866.06"/>
</g>
<!-- LLE5011&#45;&gt;LLE5012 -->
<!-- LLE5022 -->
<g id="node11" class="node">
<title>LLE5022</title>
<g id="a_node11"><a xlink:title="Prática de compreensão e expressão oral em língua inglesa e estudo da gramática e pronúncia a nível pré&#45;intermediário.">
<polygon fill="#8dd3c7" stroke="#8dd3c7" points="288.5,-814.38 174.25,-814.38 174.25,-711.62 288.5,-711.62 288.5,-814.38"/>
<text text-anchor="middle" x="231.38" y="-797.08" font-family="Arial" font-size="14.00">LLE5022</text>
<text text-anchor="middle" x="231.38" y="-765.33" font-family="Arial" font-size="14.00">Expressão Oral</text>
<text text-anchor="middle" x="231.38" y="-749.58" font-family="Arial" font-size="14.00">e Gramática em</text>
<text text-anchor="middle" x="231.38" y="-733.83" font-family="Arial" font-size="14.00">Língua Inglesa</text>
<text text-anchor="middle" x="231.38" y="-718.08" font-family="Arial" font-size="14.00">II</text>
</a>
</g>
</g>
<!-- LLE5011&#45;&gt;LLE5022 -->
<g id="edge6" class="edge">
<title>LLE5011&#45;&gt;LLE5022</title>
<path fill="none" stroke="#8dd3c7" stroke-width="2" d="M137.93,-724.95C137.93,-724.95 171.49,-724.95 171.49,-724.95"/>
<polygon fill="#8dd3c7" stroke="#8dd3c7" stroke-width="2" points="172.99,-722.45 172.99,-727.45 171.99,-727.45 171.99,-722.45 172.99,-722.45"/>
<polyline fill="none" stroke="#8dd3c7" stroke-width="2" points="173.49,-724.95 170.99,-724.95"/>
</g>
<!-- LLE5011&#45;&gt;LLE5022 -->
<!-- LLV5102 -->
<g id="node12" class="node">
<title>LLV5102</title>
<g id="a_node12"><a xlink:title="Sentido e referência. Enunciado e Enunciação. Semântica e pragmática. Regras conversacionais. Princípios de semântica formal.">
<polygon fill="#80b1d3" stroke="#80b1d3" points="281.77,-572.75 180.97,-572.75 180.97,-517.25 281.77,-517.25 281.77,-572.75"/>
<text text-anchor="middle" x="231.38" y="-555.45" font-family="Arial" font-size="14.00">LLV5102</text>
<text text-anchor="middle" x="231.38" y="-523.7" font-family="Arial" font-size="14.00">Semântica</text>
</a>
</g>
</g>
<!-- LLE5011&#45;&gt;LLV5102 -->
<!-- LLV5240 -->
<g id="node13" class="node">
<title>LLV5240</title>
<g id="a_node13"><a xlink:title="Leitura e análise de textos canônicos na Literatura Brasileira, abordando os seguintes aspectos e textos: a) da colônia ao romantismo &#45; construção da identidade nacional a partir do mapeamento territorial; o barroco e a internacionalização da cultura: leitura da poesia de Gregório de Matos; Alencar e as ficções fundacionais: leitura de um romance indianista e de um urbano; b) Do Império à República Velha &#45; o oitocentos brasileiro, literatura e cultura brasileiras pós&#45;românticas: a ficção moderna de Machado de Assis: leitura de um romance ou de contos; c) 1920/1990 &#45; a literatura da modernidade &#45; modernismo e pós&#45; modernismo &#45; o lirismo moderno: leitura da poesia de Bandeira e Drummond; permanência e transformação do regional: leitura de um romance de Graciliano Ramos (Vidas secas ou São Bernardo) e do `Grande sertão: veredas`, de Guimarães Rosa; as narrativas de introspecção pessoal &#45; Clarice Lispector :leitura de contos ou de um romance.">
<polygon fill="#80b1d3" stroke="#80b1d3" points="281.77,-693.38 180.97,-693.38 180.97,-590.62 281.77,-590.62 281.77,-693.38"/>
<text text-anchor="middle" x="231.38" y="-676.08" font-family="Arial" font-size="14.00">LLV5240</text>
<text text-anchor="middle" x="231.38" y="-644.33" font-family="Arial" font-size="14.00">Introdução ao</text>
<text text-anchor="middle" x="231.38" y="-628.58" font-family="Arial" font-size="14.00">Estudo da</text>
<text text-anchor="middle" x="231.38" y="-612.83" font-family="Arial" font-size="14.00">Literatura</text>
<text text-anchor="middle" x="231.38" y="-597.08" font-family="Arial" font-size="14.00">Brasileira</text>
</a>
</g>
</g>
<!-- LLE5011&#45;&gt;LLV5240 -->
<!-- LLV5802 -->
<g id="node14" class="node">
<title>LLV5802</title>
<g id="a_node14"><a xlink:title="Introdução à língua latina; características; sintaxe dos casos.">
<polygon fill="#80b1d3" stroke="#80b1d3" points="281.77,-499.5 180.97,-499.5 180.97,-412.5 281.77,-412.5 281.77,-499.5"/>
<text text-anchor="middle" x="231.38" y="-482.2" font-family="Arial" font-size="14.00">LLV5802</text>
<text text-anchor="middle" x="231.38" y="-450.45" font-family="Arial" font-size="14.00">Língua e</text>
<text text-anchor="middle" x="231.38" y="-434.7" font-family="Arial" font-size="14.00">Cultura Latina</text>
<text text-anchor="middle" x="231.38" y="-418.95" font-family="Arial" font-size="14.00">II</text>
</a>
</g>
</g>
<!-- LLE5011&#45;&gt;LLV5802 -->
<!-- LLE5021 -->
<g id="node6" class="node">
<title>LLE5021</title>
<g id="a_node6"><a xlink:title="Prática de compreensão e expressão oral em língua inglesa e fundamentos da gramática e pronúncia a nível básico.">
<polygon fill="#8dd3c7" stroke="#8dd3c7" points="138.25,-899.38 24,-899.38 24,-796.62 138.25,-796.62 138.25,-899.38"/>
<text text-anchor="middle" x="81.12" y="-882.08" font-family="Arial" font-size="14.00">LLE5021</text>
<text text-anchor="middle" x="81.12" y="-850.33" font-family="Arial" font-size="14.00">Expressão Oral</text>
<text text-anchor="middle" x="81.12" y="-834.58" font-family="Arial" font-size="14.00">e Gramática em</text>
<text text-anchor="middle" x="81.12" y="-818.83" font-family="Arial" font-size="14.00">Língua Inglesa</text>
<text text-anchor="middle" x="81.12" y="-803.08" font-family="Arial" font-size="14.00">I</text>
</a>
</g>
</g>
<!-- LLE5021&#45;&gt;LLE5012 -->
<g id="edge5" class="edge">
<title>LLE5021&#45;&gt;LLE5012</title>
<path fill="none" stroke="#8dd3c7" stroke-width="2" d="M138.36,-882.72C138.36,-882.72 172.3,-882.72 172.3,-882.72"/>
<polygon fill="#8dd3c7" stroke="#8dd3c7" stroke-width="2" points="173.8,-880.22 173.8,-885.22 172.8,-885.22 172.8,-880.22 173.8,-880.22"/>
<polyline fill="none" stroke="#8dd3c7" stroke-width="2" points="174.3,-882.72 171.8,-882.72"/>
</g>
<!-- LLE5021&#45;&gt;LLE5022 -->
<g id="edge7" class="edge">
<title>LLE5021&#45;&gt;LLE5022</title>
<path fill="none" stroke="#8dd3c7" stroke-width="2" d="M138.36,-805.5C138.36,-805.5 171.3,-805.5 171.3,-805.5"/>
<polygon fill="#8dd3c7" stroke="#8dd3c7" stroke-width="2" points="172.8,-803 172.8,-808 171.8,-808 171.8,-803 172.8,-803"/>
<polyline fill="none" stroke="#8dd3c7" stroke-width="2" points="173.3,-805.5 170.8,-805.5"/>
</g>
<!-- LLV5101 -->
<g id="node7" class="node">
<title>LLV5101</title>
<g id="a_node7"><a xlink:title="Os conceitos de gramática. Recuperação da história da gramática clássica na estrutura das gramáticas tradicionais.">
<polygon fill="#80b1d3" stroke="#80b1d3" points="133.75,-641.5 28.5,-641.5 28.5,-554.5 133.75,-554.5 133.75,-641.5"/>
<text text-anchor="middle" x="81.12" y="-624.2" font-family="Arial" font-size="14.00">LLV5101</text>
<text text-anchor="middle" x="81.12" y="-592.45" font-family="Arial" font-size="14.00">Introdução aos</text>
<text text-anchor="middle" x="81.12" y="-576.7" font-family="Arial" font-size="14.00">Estudos</text>
<text text-anchor="middle" x="81.12" y="-560.95" font-family="Arial" font-size="14.00">Gramaticais</text>
</a>
</g>
</g>
<!-- LLV5101&#45;&gt;LLV5102 -->
<g id="edge8" class="edge">
<title>LLV5101&#45;&gt;LLV5102</title>
<path fill="none" stroke="#80b1d3" stroke-width="2" d="M134.1,-560.58C134.1,-560.58 178.15,-560.58 178.15,-560.58"/>
<polygon fill="#80b1d3" stroke="#80b1d3" stroke-width="2" points="179.65,-558.08 179.65,-563.08 178.65,-563.08 178.65,-558.08 179.65,-558.08"/>
<polyline fill="none" stroke="#80b1d3" stroke-width="2" points="180.15,-560.58 177.65,-560.58"/>
</g>
<!-- LLV5801 -->
<g id="node8" class="node">
<title>LLV5801</title>
<g id="a_node8"><a xlink:title="História de Roma. Panorama da literatura latina.">
<polygon fill="#80b1d3" stroke="#80b1d3" points="131.53,-536.5 30.73,-536.5 30.73,-449.5 131.53,-449.5 131.53,-536.5"/>
<text text-anchor="middle" x="81.12" y="-519.2" font-family="Arial" font-size="14.00">LLV5801</text>
<text text-anchor="middle" x="81.12" y="-487.45" font-family="Arial" font-size="14.00">Língua e</text>
<text text-anchor="middle" x="81.12" y="-471.7" font-family="Arial" font-size="14.00">Cultura Latina</text>
<text text-anchor="middle" x="81.12" y="-455.95" font-family="Arial" font-size="14.00">I</text>
</a>
</g>
</g>
<!-- LLV5801&#45;&gt;LLV5802 -->
<g id="edge9" class="edge">
<title>LLV5801&#45;&gt;LLV5802</title>
<path fill="none" stroke="#80b1d3" stroke-width="2" d="M131.99,-466.17C131.99,-466.17 178.06,-466.17 178.06,-466.17"/>
<polygon fill="#80b1d3" stroke="#80b1d3" stroke-width="2" points="179.56,-463.67 179.56,-468.67 178.56,-468.67 178.56,-463.67 179.56,-463.67"/>
<polyline fill="none" stroke="#80b1d3" stroke-width="2" points="180.06,-466.17 177.56,-466.17"/>
</g>
<!-- LLV5931 -->
<g id="node9" class="node">
<title>LLV5931</title>
<g id="a_node9"><a xlink:title="Leitura e análise de textos canônicos na Literatura Ocidental, abordando os seguintes aspectos e textos: a) poéticas clássicas &#45; mimese e níveis de representação; a Poética de Aristóteles, uma tragédia grega e a Odisséia (Homero); b) poéticas modernas &#45; mescla e hibridismo: o &#39;Prefácio&#39; a Cromwell, de Vitor Hugo; &#39;O Pintor da vida moderna&#39;, de Baudelaire; uma peça de Schkespeare e um conto de Machado de Assis; c) poéticas contemporâneas &#45; a crise da representação: O grau zero da escritura, de Roland Barthes; Esperando Godot, de Beckett; um conto de Guimarães Rosa; &#39;Pierre Menard, autor do Quixote&#39;, de Borges, e poemas de João Cabral de Melo Neto.">
<polygon fill="#80b1d3" stroke="#80b1d3" points="131.53,-988.62 30.73,-988.62 30.73,-917.38 131.53,-917.38 131.53,-988.62"/>
<text text-anchor="middle" x="81.12" y="-971.33" font-family="Arial" font-size="14.00">LLV5931</text>
<text text-anchor="middle" x="81.12" y="-939.58" font-family="Arial" font-size="14.00">Teoria da</text>
<text text-anchor="middle" x="81.12" y="-923.83" font-family="Arial" font-size="14.00">Literatura I</text>
</a>
</g>
</g>
<!-- LLE5050 -->
<g id="node21" class="node">
<title>LLE5050</title>
<g id="a_node21"><a xlink:title="Introdução aos gêneros, abordagens e terminologia da tradição anglo&#45;americana, enfocando a contemporaneidade nas literaturas de língua inglesa.">
<polygon fill="#8dd3c7" stroke="#8dd3c7" points="433.88,-1052.5 329.38,-1052.5 329.38,-965.5 433.88,-965.5 433.88,-1052.5"/>
<text text-anchor="middle" x="381.62" y="-1035.2" font-family="Arial" font-size="14.00">LLE5050</text>
<text text-anchor="middle" x="381.62" y="-1003.45" font-family="Arial" font-size="14.00">Introdução a</text>
<text text-anchor="middle" x="381.62" y="-987.7" font-family="Arial" font-size="14.00">Literatura da</text>
<text text-anchor="middle" x="381.62" y="-971.95" font-family="Arial" font-size="14.00">Língua Inglesa</text>
</a>
</g>
</g>
<!-- LLV5931&#45;&gt;LLE5050 -->
<g id="edge21" class="edge">
<title>LLV5931&#45;&gt;LLE5050</title>
<path fill="none" stroke="#8dd3c7" stroke-width="2" d="M131.76,-984C131.76,-984 326.51,-984 326.51,-984"/>
<polygon fill="#8dd3c7" stroke="#8dd3c7" stroke-width="2" points="328.01,-981.5 328.01,-986.5 327.01,-986.5 327.01,-981.5 328.01,-981.5"/>
<polyline fill="none" stroke="#8dd3c7" stroke-width="2" points="328.51,-984 326.01,-984"/>
</g>
<!-- LLE5013 -->
<g id="node15" class="node">
<title>LLE5013</title>
<g id="a_node15"><a xlink:title="Desenvolvimento da compreensão e produção escrita, na língua inglesa, a nível intermediário.">
<polygon fill="#8dd3c7" stroke="#8dd3c7" points="438,-674.25 325.25,-674.25 325.25,-555.75 438,-555.75 438,-674.25"/>
<text text-anchor="middle" x="381.62" y="-656.95" font-family="Arial" font-size="14.00">LLE5013</text>
<text text-anchor="middle" x="381.62" y="-625.2" font-family="Arial" font-size="14.00">Compreensão e</text>
<text text-anchor="middle" x="381.62" y="-609.45" font-family="Arial" font-size="14.00">Produção</text>
<text text-anchor="middle" x="381.62" y="-593.7" font-family="Arial" font-size="14.00">Escrita em</text>
<text text-anchor="middle" x="381.62" y="-577.95" font-family="Arial" font-size="14.00">Língua Inglesa</text>
<text text-anchor="middle" x="381.62" y="-562.2" font-family="Arial" font-size="14.00">III</text>
</a>
</g>
</g>
<!-- LLE5012&#45;&gt;LLE5013 -->
<g id="edge10" class="edge">
<title>LLE5012&#45;&gt;LLE5013</title>
<path fill="none" stroke="#8dd3c7" stroke-width="2" d="M287.92,-838.69C300.28,-838.69 309.75,-838.69 309.75,-838.69 309.75,-838.69 309.75,-646.38 309.75,-646.38 309.75,-646.38 322.49,-646.38 322.49,-646.38"/>
<polygon fill="#8dd3c7" stroke="#8dd3c7" stroke-width="2" points="323.99,-643.88 323.99,-648.88 322.99,-648.88 322.99,-643.88 323.99,-643.88"/>
<polyline fill="none" stroke="#8dd3c7" stroke-width="2" points="324.49,-646.38 321.99,-646.38"/>
</g>
<!-- LLE5023 -->
<g id="node16" class="node">
<title>LLE5023</title>
<g id="a_node16"><a xlink:title="Prática de compreensão e expressão oral em língua inglesa e estudo da gramática e pronúncia a nível intermediário.">
<polygon fill="#8dd3c7" stroke="#8dd3c7" points="438.75,-947.38 324.5,-947.38 324.5,-844.62 438.75,-844.62 438.75,-947.38"/>
<text text-anchor="middle" x="381.62" y="-930.08" font-family="Arial" font-size="14.00">LLE5023</text>
<text text-anchor="middle" x="381.62" y="-898.33" font-family="Arial" font-size="14.00">Expressão Oral</text>
<text text-anchor="middle" x="381.62" y="-882.58" font-family="Arial" font-size="14.00">e Gramática em</text>
<text text-anchor="middle" x="381.62" y="-866.83" font-family="Arial" font-size="14.00">Língua Inglesa</text>
<text text-anchor="middle" x="381.62" y="-851.08" font-family="Arial" font-size="14.00">III</text>
</a>
</g>
</g>
<!-- LLE5012&#45;&gt;LLE5023 -->
<g id="edge12" class="edge">
<title>LLE5012&#45;&gt;LLE5023</title>
<path fill="none" stroke="#8dd3c7" stroke-width="2" d="M288.18,-921.69C288.18,-921.69 321.74,-921.69 321.74,-921.69"/>
<polygon fill="#8dd3c7" stroke="#8dd3c7" stroke-width="2" points="323.24,-919.19 323.24,-924.19 322.24,-924.19 322.24,-919.19 323.24,-919.19"/>
<polyline fill="none" stroke="#8dd3c7" stroke-width="2" points="323.74,-921.69 321.24,-921.69"/>
</g>
<!-- LLE5031 -->
<g id="node17" class="node">
<title>LLE5031</title>
<g id="a_node17"><a xlink:title="Desenvolvimento de estratégias de leitura e aplicação prática em leitura intensiva na língua inglesa.">
<polygon fill="#8dd3c7" stroke="#8dd3c7" points="437.25,-537.25 326,-537.25 326,-418.75 437.25,-418.75 437.25,-537.25"/>
<text text-anchor="middle" x="381.62" y="-519.95" font-family="Arial" font-size="14.00">LLE5031</text>
<text text-anchor="middle" x="381.62" y="-488.2" font-family="Arial" font-size="14.00">Tópico Especial</text>
<text text-anchor="middle" x="381.62" y="-472.45" font-family="Arial" font-size="14.00">de Língua</text>
<text text-anchor="middle" x="381.62" y="-456.7" font-family="Arial" font-size="14.00">Inglesa:</text>
<text text-anchor="middle" x="381.62" y="-440.95" font-family="Arial" font-size="14.00">Laboratório de</text>
<text text-anchor="middle" x="381.62" y="-425.2" font-family="Arial" font-size="14.00">Leitura</text>
</a>
</g>
</g>
<!-- LLE5012&#45;&gt;LLE5031 -->
<g id="edge14" class="edge">
<title>LLE5012&#45;&gt;LLE5031</title>
<path fill="none" stroke="#8dd3c7" stroke-width="2" d="M288.24,-835.72C293.98,-835.72 297.75,-835.72 297.75,-835.72 297.75,-835.72 297.75,-527.25 297.75,-527.25 297.75,-527.25 323.18,-527.25 323.18,-527.25"/>
<polygon fill="#8dd3c7" stroke="#8dd3c7" stroke-width="2" points="324.68,-524.75 324.68,-529.75 323.68,-529.75 323.68,-524.75 324.68,-524.75"/>
<polyline fill="none" stroke="#8dd3c7" stroke-width="2" points="325.18,-527.25 322.68,-527.25"/>
</g>
<!-- LLE5034 -->
<g id="node20" class="node">
<title>LLE5034</title>
<g id="a_node20"><a xlink:title="Introdução às técnicas de estudo e aplicação prática em leitura extensiva na língua inglesa.">
<polygon fill="#8dd3c7" stroke="#8dd3c7" points="437.25,-826.12 326,-826.12 326,-691.88 437.25,-691.88 437.25,-826.12"/>
<text text-anchor="middle" x="381.62" y="-808.83" font-family="Arial" font-size="14.00">LLE5034</text>
<text text-anchor="middle" x="381.62" y="-777.08" font-family="Arial" font-size="14.00">Tópico Especial</text>
<text text-anchor="middle" x="381.62" y="-761.33" font-family="Arial" font-size="14.00">de Língua</text>
<text text-anchor="middle" x="381.62" y="-745.58" font-family="Arial" font-size="14.00">Inglesa:</text>
<text text-anchor="middle" x="381.62" y="-729.83" font-family="Arial" font-size="14.00">Laboratório</text>
<text text-anchor="middle" x="381.62" y="-714.08" font-family="Arial" font-size="14.00">Estratégia de</text>
<text text-anchor="middle" x="381.62" y="-698.33" font-family="Arial" font-size="14.00">Estudo</text>
</a>
</g>
</g>
<!-- LLE5012&#45;&gt;LLE5034 -->
<g id="edge17" class="edge">
<title>LLE5012&#45;&gt;LLE5034</title>
<path fill="none" stroke="#8dd3c7" stroke-width="2" d="M288.23,-841.66C330.81,-841.66 381.75,-841.66 381.75,-841.66 381.75,-841.66 381.75,-829 381.75,-829"/>
<polygon fill="#8dd3c7" stroke="#8dd3c7" stroke-width="2" points="379.25,-827.5 384.25,-827.5 384.25,-828.5 379.25,-828.5 379.25,-827.5"/>
<polyline fill="none" stroke="#8dd3c7" stroke-width="2" points="381.75,-827 381.75,-829.5"/>
</g>
<!-- LLE5012&#45;&gt;LLE5050 -->
<g id="edge19" class="edge">
<title>LLE5012&#45;&gt;LLE5050</title>
<path fill="none" stroke="#8dd3c7" stroke-width="2" d="M231.75,-951.73C231.75,-967.09 231.75,-979.38 231.75,-979.38 231.75,-979.38 326.71,-979.38 326.71,-979.38"/>
<polygon fill="#8dd3c7" stroke="#8dd3c7" stroke-width="2" points="328.21,-976.88 328.21,-981.88 327.21,-981.88 327.21,-976.88 328.21,-976.88"/>
<polyline fill="none" stroke="#8dd3c7" stroke-width="2" points="328.71,-979.38 326.21,-979.38"/>
</g>
<!-- LLE5022&#45;&gt;LLE5013 -->
<g id="edge11" class="edge">
<title>LLE5022&#45;&gt;LLE5013</title>
<path fill="none" stroke="#8dd3c7" stroke-width="2" d="M288.89,-755.66C299.2,-755.66 306.75,-755.66 306.75,-755.66 306.75,-755.66 306.75,-618.5 306.75,-618.5 306.75,-618.5 322.38,-618.5 322.38,-618.5"/>
<polygon fill="#8dd3c7" stroke="#8dd3c7" stroke-width="2" points="323.88,-616 323.88,-621 322.88,-621 322.88,-616 323.88,-616"/>
<polyline fill="none" stroke="#8dd3c7" stroke-width="2" points="324.38,-618.5 321.88,-618.5"/>
</g>
<!-- LLE5022&#45;&gt;LLE5023 -->
<g id="edge13" class="edge">
<title>LLE5022&#45;&gt;LLE5023</title>
<path fill="none" stroke="#8dd3c7" stroke-width="2" d="M288.77,-770.34C302.24,-770.34 312.75,-770.34 312.75,-770.34 312.75,-770.34 312.75,-896 312.75,-896 312.75,-896 321.62,-896 321.62,-896"/>
<polygon fill="#8dd3c7" stroke="#8dd3c7" stroke-width="2" points="323.12,-893.5 323.12,-898.5 322.12,-898.5 322.12,-893.5 323.12,-893.5"/>
<polyline fill="none" stroke="#8dd3c7" stroke-width="2" points="323.62,-896 321.12,-896"/>
</g>
<!-- LLE5032 -->
<g id="node18" class="node">
<title>LLE5032</title>
<g id="a_node18"><a xlink:title="Prática intensiva de percepção e produção de aspectos segmentais e suprasegmentais e processos fonológicos mais produtivos da língua inglesa.">
<polygon fill="#8dd3c7" stroke="#8dd3c7" points="437.25,-263.25 326,-263.25 326,-144.75 437.25,-144.75 437.25,-263.25"/>
<text text-anchor="middle" x="381.62" y="-245.95" font-family="Arial" font-size="14.00">LLE5032</text>
<text text-anchor="middle" x="381.62" y="-214.2" font-family="Arial" font-size="14.00">Tópico Especial</text>
<text text-anchor="middle" x="381.62" y="-198.45" font-family="Arial" font-size="14.00">de Língua</text>
<text text-anchor="middle" x="381.62" y="-182.7" font-family="Arial" font-size="14.00">Inglesa:</text>
<text text-anchor="middle" x="381.62" y="-166.95" font-family="Arial" font-size="14.00">Laboratório de</text>
<text text-anchor="middle" x="381.62" y="-151.2" font-family="Arial" font-size="14.00">Pronúncia</text>
</a>
</g>
</g>
<!-- LLE5022&#45;&gt;LLE5032 -->
<g id="edge15" class="edge">
<title>LLE5022&#45;&gt;LLE5032</title>
<path fill="none" stroke="#8dd3c7" stroke-width="2" d="M288.84,-726.3C290.69,-726.3 291.75,-726.3 291.75,-726.3 291.75,-726.3 291.75,-223.75 291.75,-223.75 291.75,-223.75 323.23,-223.75 323.23,-223.75"/>
<polygon fill="#8dd3c7" stroke="#8dd3c7" stroke-width="2" points="324.73,-221.25 324.73,-226.25 323.73,-226.25 323.73,-221.25 324.73,-221.25"/>
<polyline fill="none" stroke="#8dd3c7" stroke-width="2" points="325.23,-223.75 322.73,-223.75"/>
</g>
<!-- LLE5033 -->
<g id="node19" class="node">
<title>LLE5033</title>
<g id="a_node19"><a xlink:title="Desenvolvimento de estratégias de produção textual e aplicação prática através de redações na língua inglesa.">
<polygon fill="#8dd3c7" stroke="#8dd3c7" points="437.25,-400.25 326,-400.25 326,-281.75 437.25,-281.75 437.25,-400.25"/>
<text text-anchor="middle" x="381.62" y="-382.95" font-family="Arial" font-size="14.00">LLE5033</text>
<text text-anchor="middle" x="381.62" y="-351.2" font-family="Arial" font-size="14.00">Tópico Especial</text>
<text text-anchor="middle" x="381.62" y="-335.45" font-family="Arial" font-size="14.00">de Língua</text>
<text text-anchor="middle" x="381.62" y="-319.7" font-family="Arial" font-size="14.00">Inglesa:</text>
<text text-anchor="middle" x="381.62" y="-303.95" font-family="Arial" font-size="14.00">Laboratório de</text>
<text text-anchor="middle" x="381.62" y="-288.2" font-family="Arial" font-size="14.00">Escrita</text>
</a>
</g>
</g>
<!-- LLE5022&#45;&gt;LLE5033 -->
<g id="edge16" class="edge">
<title>LLE5022&#45;&gt;LLE5033</title>
<path fill="none" stroke="#8dd3c7" stroke-width="2" d="M288.9,-740.98C292.52,-740.98 294.75,-740.98 294.75,-740.98 294.75,-740.98 294.75,-360.75 294.75,-360.75 294.75,-360.75 323.12,-360.75 323.12,-360.75"/>
<polygon fill="#8dd3c7" stroke="#8dd3c7" stroke-width="2" points="324.62,-358.25 324.62,-363.25 323.62,-363.25 323.62,-358.25 324.62,-358.25"/>
<polyline fill="none" stroke="#8dd3c7" stroke-width="2" points="325.12,-360.75 322.62,-360.75"/>
</g>
<!-- LLE5022&#45;&gt;LLE5034 -->
<g id="edge18" class="edge">
<title>LLE5022&#45;&gt;LLE5034</title>
<path fill="none" stroke="#8dd3c7" stroke-width="2" d="M288.61,-799.7C288.61,-799.7 323.05,-799.7 323.05,-799.7"/>
<polygon fill="#8dd3c7" stroke="#8dd3c7" stroke-width="2" points="324.55,-797.2 324.55,-802.2 323.55,-802.2 323.55,-797.2 324.55,-797.2"/>
<polyline fill="none" stroke="#8dd3c7" stroke-width="2" points="325.05,-799.7 322.55,-799.7"/>
</g>
<!-- LLE5022&#45;&gt;LLE5050 -->
<g id="edge20" class="edge">
<title>LLE5022&#45;&gt;LLE5050</title>
<path fill="none" stroke="#8dd3c7" stroke-width="2" d="M288.98,-785.02C296,-785.02 300.75,-785.02 300.75,-785.02 300.75,-785.02 300.75,-974.75 300.75,-974.75 300.75,-974.75 326.54,-974.75 326.54,-974.75"/>
<polygon fill="#8dd3c7" stroke="#8dd3c7" stroke-width="2" points="328.04,-972.25 328.04,-977.25 327.04,-977.25 327.04,-972.25 328.04,-972.25"/>
<polyline fill="none" stroke="#8dd3c7" stroke-width="2" points="328.54,-974.75 326.04,-974.75"/>
</g>
<!-- LLV5802&#45;&gt;LLE5013 -->
<!-- LLV5802&#45;&gt;LLE5023 -->
<!-- LLV5802&#45;&gt;LLE5031 -->
<!-- LLV5802&#45;&gt;LLE5032 -->
<!-- LLV5802&#45;&gt;LLE5033 -->
<!-- LLV5802&#45;&gt;LLE5034 -->
<!-- LLV5802&#45;&gt;LLE5050 -->
<!-- LLV5260 -->
<g id="node22" class="node">
<title>LLV5260</title>
<g id="a_node22"><a xlink:title="Leitura e análise de textos canônicos na Literatura Portuguesa, abordando os seguintes aspectos e textos: a) a literatura e a construção da nacionalidade portuguesa &#45; a lírica trovadoresca: leitura de cantigas de amigo, de amor, de escárnio; o teatro de Gil Vicente: leitura de um dos autos; b) tradição e renovação, o paradigma do escritor clássico: leitura de poemas líricos de Camões; c) Barroco &#45; norma e transgressão &#45; releituras do lírico e do satírico: Bocage; d) o conflito campo/cidade &#45; Eça de Queiroz: leitura de um romance; e) Metáforas da modernidade na literatura portuguesa do século XX: novecentos e vanguarda; multiplicidades do moderno : leitura de poemas de Fernando Pessoa e de seus heterônimos; da verossimilhança realista &#45; Alves Redol : leitura de um romance, à verossimilhança intertextual &#45; José Saramago: leitura de um romance).">
<polygon fill="#80b1d3" stroke="#80b1d3" points="432.02,-126.38 331.23,-126.38 331.23,-23.63 432.02,-23.63 432.02,-126.38"/>
<text text-anchor="middle" x="381.62" y="-109.08" font-family="Arial" font-size="14.00">LLV5260</text>
<text text-anchor="middle" x="381.62" y="-77.33" font-family="Arial" font-size="14.00">Introdução ao</text>
<text text-anchor="middle" x="381.62" y="-61.58" font-family="Arial" font-size="14.00">Estudo da</text>
<text text-anchor="middle" x="381.62" y="-45.83" font-family="Arial" font-size="14.00">Literatura</text>
<text text-anchor="middle" x="381.62" y="-30.07" font-family="Arial" font-size="14.00">Portuguesa</text>
</a>
</g>
</g>
<!-- LLV5802&#45;&gt;LLV5260 -->
<!-- LLE5014 -->
<g id="node23" class="node">
<title>LLE5014</title>
<g id="a_node23"><a xlink:title="Aperfeiçoamento da compreensão e produção escrita , na língua inglesa, a nível pré&#45;avançado.">
<polygon fill="#8dd3c7" stroke="#8dd3c7" points="590.12,-553.25 477.38,-553.25 477.38,-434.75 590.12,-434.75 590.12,-553.25"/>
<text text-anchor="middle" x="533.75" y="-535.95" font-family="Arial" font-size="14.00">LLE5014</text>
<text text-anchor="middle" x="533.75" y="-504.2" font-family="Arial" font-size="14.00">Compreensão e</text>
<text text-anchor="middle" x="533.75" y="-488.45" font-family="Arial" font-size="14.00">Produção</text>
<text text-anchor="middle" x="533.75" y="-472.7" font-family="Arial" font-size="14.00">Escrita em</text>
<text text-anchor="middle" x="533.75" y="-456.95" font-family="Arial" font-size="14.00">Língua Inglesa</text>
<text text-anchor="middle" x="533.75" y="-441.2" font-family="Arial" font-size="14.00">IV</text>
</a>
</g>
</g>
<!-- LLE5013&#45;&gt;LLE5014 -->
<g id="edge22" class="edge">
<title>LLE5013&#45;&gt;LLE5014</title>
<path fill="none" stroke="#8dd3c7" stroke-width="2" d="M381.75,-555.53C381.75,-547.84 381.75,-542.58 381.75,-542.58 381.75,-542.58 474.65,-542.58 474.65,-542.58"/>
<polygon fill="#8dd3c7" stroke="#8dd3c7" stroke-width="2" points="476.15,-540.08 476.15,-545.08 475.15,-545.08 475.15,-540.08 476.15,-540.08"/>
<polyline fill="none" stroke="#8dd3c7" stroke-width="2" points="476.65,-542.58 474.15,-542.58"/>
</g>
<!-- LLE5024 -->
<g id="node24" class="node">
<title>LLE5024</title>
<g id="a_node24"><a xlink:title="Prática de compreensão e expressão oral em língua inglesa e estudo da gramática a nível pós&#45;intermediário.">
<polygon fill="#8dd3c7" stroke="#8dd3c7" points="590.88,-779.38 476.62,-779.38 476.62,-676.62 590.88,-676.62 590.88,-779.38"/>
<text text-anchor="middle" x="533.75" y="-762.08" font-family="Arial" font-size="14.00">LLE5024</text>
<text text-anchor="middle" x="533.75" y="-730.33" font-family="Arial" font-size="14.00">Expressão Oral</text>
<text text-anchor="middle" x="533.75" y="-714.58" font-family="Arial" font-size="14.00">e Gramática em</text>
<text text-anchor="middle" x="533.75" y="-698.83" font-family="Arial" font-size="14.00">Língua Inglesa</text>
<text text-anchor="middle" x="533.75" y="-683.08" font-family="Arial" font-size="14.00">IV</text>
</a>
</g>
</g>
<!-- LLE5013&#45;&gt;LLE5024 -->
<g id="edge24" class="edge">
<title>LLE5013&#45;&gt;LLE5024</title>
<path fill="none" stroke="#8dd3c7" stroke-width="2" d="M381.75,-674.61C381.75,-681.87 381.75,-686.79 381.75,-686.79 381.75,-686.79 473.79,-686.79 473.79,-686.79"/>
<polygon fill="#8dd3c7" stroke="#8dd3c7" stroke-width="2" points="475.29,-684.29 475.29,-689.29 474.29,-689.29 474.29,-684.29 475.29,-684.29"/>
<polyline fill="none" stroke="#8dd3c7" stroke-width="2" points="475.79,-686.79 473.29,-686.79"/>
</g>
<!-- LLE5040 -->
<g id="node25" class="node">
<title>LLE5040</title>
<g id="a_node25"><a xlink:title="Prática intensiva de transcrição fonética, teoria e prática da estrutura silábica, aspectos suprasegmentais e processos fonológicos mais produtivos da língua inglesa.">
<polygon fill="#8dd3c7" stroke="#8dd3c7" points="590.5,-658.5 477,-658.5 477,-571.5 590.5,-571.5 590.5,-658.5"/>
<text text-anchor="middle" x="533.75" y="-641.2" font-family="Arial" font-size="14.00">LLE5040</text>
<text text-anchor="middle" x="533.75" y="-609.45" font-family="Arial" font-size="14.00">Fonética e Fono</text>
<text text-anchor="middle" x="533.75" y="-593.7" font-family="Arial" font-size="14.00">da Língua</text>
<text text-anchor="middle" x="533.75" y="-577.95" font-family="Arial" font-size="14.00">Inglesa</text>
</a>
</g>
</g>
<!-- LLE5013&#45;&gt;LLE5040 -->
<g id="edge26" class="edge">
<title>LLE5013&#45;&gt;LLE5040</title>
<path fill="none" stroke="#8dd3c7" stroke-width="2" d="M438.27,-615C438.27,-615 474.05,-615 474.05,-615"/>
<polygon fill="#8dd3c7" stroke="#8dd3c7" stroke-width="2" points="475.55,-612.5 475.55,-617.5 474.55,-617.5 474.55,-612.5 475.55,-612.5"/>
<polyline fill="none" stroke="#8dd3c7" stroke-width="2" points="476.05,-615 473.55,-615"/>
</g>
<!-- LLE5023&#45;&gt;LLE5014 -->
<g id="edge23" class="edge">
<title>LLE5023&#45;&gt;LLE5014</title>
<path fill="none" stroke="#8dd3c7" stroke-width="2" d="M439.22,-854.59C450.93,-854.59 459.75,-854.59 459.75,-854.59 459.75,-854.59 459.75,-547.92 459.75,-547.92 459.75,-547.92 474.41,-547.92 474.41,-547.92"/>
<polygon fill="#8dd3c7" stroke="#8dd3c7" stroke-width="2" points="475.91,-545.42 475.91,-550.42 474.91,-550.42 474.91,-545.42 475.91,-545.42"/>
<polyline fill="none" stroke="#8dd3c7" stroke-width="2" points="476.41,-547.92 473.91,-547.92"/>
</g>
<!-- LLE5023&#45;&gt;LLE5024 -->
<g id="edge25" class="edge">
<title>LLE5023&#45;&gt;LLE5024</title>
<path fill="none" stroke="#8dd3c7" stroke-width="2" d="M438.93,-874.53C455.76,-874.53 469.75,-874.53 469.75,-874.53 469.75,-874.53 469.75,-735.62 469.75,-735.62 469.75,-735.62 474.1,-735.62 474.1,-735.62"/>
<polygon fill="#8dd3c7" stroke="#8dd3c7" stroke-width="2" points="475.6,-733.13 475.6,-738.13 474.6,-738.13 474.6,-733.13 475.6,-733.13"/>
<polyline fill="none" stroke="#8dd3c7" stroke-width="2" points="476.1,-735.63 473.6,-735.63"/>
</g>
<!-- LLE5023&#45;&gt;LLE5040 -->
<g id="edge27" class="edge">
<title>LLE5023&#45;&gt;LLE5040</title>
<path fill="none" stroke="#8dd3c7" stroke-width="2" d="M438.9,-864.56C453.3,-864.56 464.75,-864.56 464.75,-864.56 464.75,-864.56 464.75,-636.75 464.75,-636.75 464.75,-636.75 474.27,-636.75 474.27,-636.75"/>
<polygon fill="#8dd3c7" stroke="#8dd3c7" stroke-width="2" points="475.77,-634.25 475.77,-639.25 474.77,-639.25 474.77,-634.25 475.77,-634.25"/>
<polyline fill="none" stroke="#8dd3c7" stroke-width="2" points="476.27,-636.75 473.77,-636.75"/>
</g>
<!-- LLE5055 -->
<g id="node26" class="node">
<title>LLE5055</title>
<g id="a_node26"><a xlink:title="Principais autores, temas e movimentos da literatura dos Estados Unidos do Século XIX">
<polygon fill="#8dd3c7" stroke="#8dd3c7" points="592.75,-884.5 474.75,-884.5 474.75,-797.5 592.75,-797.5 592.75,-884.5"/>
<text text-anchor="middle" x="533.75" y="-867.2" font-family="Arial" font-size="14.00">LLE5055</text>
<text text-anchor="middle" x="533.75" y="-835.45" font-family="Arial" font-size="14.00">Literatura</text>
<text text-anchor="middle" x="533.75" y="-819.7" font-family="Arial" font-size="14.00">Norte Americana</text>
<text text-anchor="middle" x="533.75" y="-803.95" font-family="Arial" font-size="14.00">I</text>
</a>
</g>
</g>
<!-- LLE5050&#45;&gt;LLE5055 -->
<g id="edge28" class="edge">
<title>LLE5050&#45;&gt;LLE5055</title>
<path fill="none" stroke="#8dd3c7" stroke-width="2" d="M434.13,-1009C457.46,-1009 479.75,-1009 479.75,-1009 479.75,-1009 479.75,-887.2 479.75,-887.2"/>
<polygon fill="#8dd3c7" stroke="#8dd3c7" stroke-width="2" points="477.25,-885.7 482.25,-885.7 482.25,-886.7 477.25,-886.7 477.25,-885.7"/>
<polyline fill="none" stroke="#8dd3c7" stroke-width="2" points="479.75,-885.2 479.75,-887.7"/>
</g>
<!-- LLV5260&#45;&gt;LLE5014 -->
<!-- LLV5260&#45;&gt;LLE5024 -->
<!-- LLV5260&#45;&gt;LLE5040 -->
<!-- LLV5260&#45;&gt;LLE5055 -->
</g>
</svg>
