<?xml version="1.0" encoding="UTF-8" standalone="no"?>
<!DOCTYPE svg PUBLIC "-//W3C//DTD SVG 1.1//EN"
 "http://www.w3.org/Graphics/SVG/1.1/DTD/svg11.dtd">
<!-- Generated by graphviz version 9.0.0 (0)
 -->
<!-- Title: grafo_materias Pages: 1 -->
<svg width="581pt" height="501pt"
 viewBox="0.00 0.00 580.50 501.00" xmlns="http://www.w3.org/2000/svg" xmlns:xlink="http://www.w3.org/1999/xlink">
<g id="graph0" class="graph" transform="scale(1 1) rotate(0) translate(4 497)">
<title>grafo_materias</title>
<polygon fill="none" stroke="none" points="-4,4 -4,-497 576.5,-497 576.5,4 -4,4"/>
<g id="clust1" class="cluster">
<title>cluster_everything</title>
<polygon fill="none" stroke="none" points="8,-8 8,-485 564.5,-485 564.5,-8 8,-8"/>
</g>
<g id="clust2" class="cluster">
<title>cluster_header</title>
<polygon fill="none" stroke="none" points="18.23,-425 18.23,-477 555.02,-477 555.02,-425 18.23,-425"/>
</g>
<g id="clust3" class="cluster">
<title>cluster_0</title>
<polygon fill="none" stroke="none" points="16,-16 16,-403 137.25,-403 137.25,-16 16,-16"/>
</g>
<g id="clust4" class="cluster">
<title>cluster_1</title>
<polygon fill="none" stroke="none" points="157.25,-16 157.25,-403 277,-403 277,-16 157.25,-16"/>
</g>
<g id="clust5" class="cluster">
<title>cluster_2</title>
<polygon fill="none" stroke="none" points="297,-61 297,-358 416.75,-358 416.75,-61 297,-61"/>
</g>
<g id="clust6" class="cluster">
<title>cluster_3</title>
<polygon fill="none" stroke="none" points="436.75,-92 436.75,-269 556.5,-269 556.5,-92 436.75,-92"/>
</g>
<!-- Fase 01 -->
<g id="node1" class="node">
<title>Fase 01</title>
<polygon fill="lightgrey" stroke="black" points="127.03,-469 26.23,-469 26.23,-433 127.03,-433 127.03,-469"/>
<text text-anchor="middle" x="76.62" y="-445.57" font-family="Arial" font-size="14.00">Fase 01</text>
</g>
<!-- Fase 02 -->
<g id="node2" class="node">
<title>Fase 02</title>
<polygon fill="lightgrey" stroke="black" points="267.52,-469 166.72,-469 166.72,-433 267.52,-433 267.52,-469"/>
<text text-anchor="middle" x="217.12" y="-445.57" font-family="Arial" font-size="14.00">Fase 02</text>
</g>
<!-- Fase 01&#45;&gt;Fase 02 -->
<!-- Fase 03 -->
<g id="node3" class="node">
<title>Fase 03</title>
<polygon fill="lightgrey" stroke="black" points="407.27,-469 306.48,-469 306.48,-433 407.27,-433 407.27,-469"/>
<text text-anchor="middle" x="356.88" y="-445.57" font-family="Arial" font-size="14.00">Fase 03</text>
</g>
<!-- Fase 02&#45;&gt;Fase 03 -->
<!-- Fase 04 -->
<g id="node4" class="node">
<title>Fase 04</title>
<polygon fill="lightgrey" stroke="black" points="547.02,-469 446.23,-469 446.23,-433 547.02,-433 547.02,-469"/>
<text text-anchor="middle" x="496.62" y="-445.57" font-family="Arial" font-size="14.00">Fase 04</text>
</g>
<!-- Fase 03&#45;&gt;Fase 04 -->
<!-- LLE5561 -->
<g id="node5" class="node">
<title>LLE5561</title>
<g id="a_node5"><a xlink:title="Estudo das estruturas básicas da língua italiana, enfatizando a compreensão e a expressão oral. Tópicos de cultura italiana.">
<polygon fill="#8dd3c7" stroke="#8dd3c7" points="128.88,-305.62 24.38,-305.62 24.38,-234.38 128.88,-234.38 128.88,-305.62"/>
<text text-anchor="middle" x="76.62" y="-288.32" font-family="Arial" font-size="14.00">LLE5561</text>
<text text-anchor="middle" x="76.62" y="-256.57" font-family="Arial" font-size="14.00">Língua Italiana</text>
<text text-anchor="middle" x="76.62" y="-240.82" font-family="Arial" font-size="14.00">I</text>
</a>
</g>
</g>
<!-- LLE5562 -->
<g id="node9" class="node">
<title>LLE5562</title>
<g id="a_node9"><a xlink:title="Aquisição progressiva de estruturas mais complexas da língua italiana, enfatizando a compreensão e a expressão oral. Tópicos de cultura italiana.">
<polygon fill="#8dd3c7" stroke="#8dd3c7" points="269,-394.62 165.25,-394.62 165.25,-323.38 269,-323.38 269,-394.62"/>
<text text-anchor="middle" x="217.12" y="-377.32" font-family="Arial" font-size="14.00">LLE5562</text>
<text text-anchor="middle" x="217.12" y="-345.57" font-family="Arial" font-size="14.00">Lingua Italiana</text>
<text text-anchor="middle" x="217.12" y="-329.82" font-family="Arial" font-size="14.00">II</text>
</a>
</g>
</g>
<!-- LLE5561&#45;&gt;LLE5562 -->
<g id="edge4" class="edge">
<title>LLE5561&#45;&gt;LLE5562</title>
<path fill="none" stroke="#8dd3c7" stroke-width="2" d="M129.04,-293.54C141.62,-293.54 151.5,-293.54 151.5,-293.54 151.5,-293.54 151.5,-370.88 151.5,-370.88 151.5,-370.88 162.28,-370.88 162.28,-370.88"/>
<polygon fill="#8dd3c7" stroke="#8dd3c7" stroke-width="2" points="163.78,-368.38 163.78,-373.38 162.78,-373.38 162.78,-368.38 163.78,-368.38"/>
<polyline fill="none" stroke="#8dd3c7" stroke-width="2" points="164.28,-370.88 161.78,-370.88"/>
</g>
<!-- LLE5561&#45;&gt;LLE5562 -->
<!-- LLV5102 -->
<g id="node10" class="node">
<title>LLV5102</title>
<g id="a_node10"><a xlink:title="Sentido e referência. Enunciado e Enunciação. Semântica e pragmática. Regras conversacionais. Princípios de semântica formal.">
<polygon fill="#80b1d3" stroke="#80b1d3" points="267.52,-184.75 166.72,-184.75 166.72,-129.25 267.52,-129.25 267.52,-184.75"/>
<text text-anchor="middle" x="217.12" y="-167.45" font-family="Arial" font-size="14.00">LLV5102</text>
<text text-anchor="middle" x="217.12" y="-135.7" font-family="Arial" font-size="14.00">Semântica</text>
</a>
</g>
</g>
<!-- LLE5561&#45;&gt;LLV5102 -->
<!-- LLV5240 -->
<g id="node11" class="node">
<title>LLV5240</title>
<g id="a_node11"><a xlink:title="Leitura e análise de textos canônicos na Literatura Brasileira, abordando os seguintes aspectos e textos: a) da colônia ao romantismo &#45; construção da identidade nacional a partir do mapeamento territorial; o barroco e a internacionalização da cultura: leitura da poesia de Gregório de Matos; Alencar e as ficções fundacionais: leitura de um romance indianista e de um urbano; b) Do Império à República Velha &#45; o oitocentos brasileiro, literatura e cultura brasileiras pós&#45;românticas: a ficção moderna de Machado de Assis: leitura de um romance ou de contos; c) 1920/1990 &#45; a literatura da modernidade &#45; modernismo e pós&#45; modernismo &#45; o lirismo moderno: leitura da poesia de Bandeira e Drummond; permanência e transformação do regional: leitura de um romance de Graciliano Ramos (Vidas secas ou São Bernardo) e do `Grande sertão: veredas`, de Guimarães Rosa; as narrativas de introspecção pessoal &#45; Clarice Lispector :leitura de contos ou de um romance.">
<polygon fill="#80b1d3" stroke="#80b1d3" points="267.52,-305.38 166.72,-305.38 166.72,-202.62 267.52,-202.62 267.52,-305.38"/>
<text text-anchor="middle" x="217.12" y="-288.07" font-family="Arial" font-size="14.00">LLV5240</text>
<text text-anchor="middle" x="217.12" y="-256.32" font-family="Arial" font-size="14.00">Introdução ao</text>
<text text-anchor="middle" x="217.12" y="-240.57" font-family="Arial" font-size="14.00">Estudo da</text>
<text text-anchor="middle" x="217.12" y="-224.82" font-family="Arial" font-size="14.00">Literatura</text>
<text text-anchor="middle" x="217.12" y="-209.07" font-family="Arial" font-size="14.00">Brasileira</text>
</a>
</g>
</g>
<!-- LLE5561&#45;&gt;LLV5240 -->
<!-- LLV5802 -->
<g id="node12" class="node">
<title>LLV5802</title>
<g id="a_node12"><a xlink:title="Introdução à língua latina; características; sintaxe dos casos.">
<polygon fill="#80b1d3" stroke="#80b1d3" points="267.52,-111.5 166.72,-111.5 166.72,-24.5 267.52,-24.5 267.52,-111.5"/>
<text text-anchor="middle" x="217.12" y="-94.2" font-family="Arial" font-size="14.00">LLV5802</text>
<text text-anchor="middle" x="217.12" y="-62.45" font-family="Arial" font-size="14.00">Língua e</text>
<text text-anchor="middle" x="217.12" y="-46.7" font-family="Arial" font-size="14.00">Cultura Latina</text>
<text text-anchor="middle" x="217.12" y="-30.95" font-family="Arial" font-size="14.00">II</text>
</a>
</g>
</g>
<!-- LLE5561&#45;&gt;LLV5802 -->
<!-- LLV5101 -->
<g id="node6" class="node">
<title>LLV5101</title>
<g id="a_node6"><a xlink:title="Os conceitos de gramática. Recuperação da história da gramática clássica na estrutura das gramáticas tradicionais.">
<polygon fill="#80b1d3" stroke="#80b1d3" points="129.25,-216.5 24,-216.5 24,-129.5 129.25,-129.5 129.25,-216.5"/>
<text text-anchor="middle" x="76.62" y="-199.2" font-family="Arial" font-size="14.00">LLV5101</text>
<text text-anchor="middle" x="76.62" y="-167.45" font-family="Arial" font-size="14.00">Introdução aos</text>
<text text-anchor="middle" x="76.62" y="-151.7" font-family="Arial" font-size="14.00">Estudos</text>
<text text-anchor="middle" x="76.62" y="-135.95" font-family="Arial" font-size="14.00">Gramaticais</text>
</a>
</g>
</g>
<!-- LLV5101&#45;&gt;LLV5102 -->
<g id="edge5" class="edge">
<title>LLV5101&#45;&gt;LLV5102</title>
<path fill="none" stroke="#80b1d3" stroke-width="2" d="M129.74,-147.92C129.74,-147.92 163.76,-147.92 163.76,-147.92"/>
<polygon fill="#80b1d3" stroke="#80b1d3" stroke-width="2" points="165.26,-145.42 165.26,-150.42 164.26,-150.42 164.26,-145.42 165.26,-145.42"/>
<polyline fill="none" stroke="#80b1d3" stroke-width="2" points="165.76,-147.92 163.26,-147.92"/>
</g>
<!-- LLV5801 -->
<g id="node7" class="node">
<title>LLV5801</title>
<g id="a_node7"><a xlink:title="História de Roma. Panorama da literatura latina.">
<polygon fill="#80b1d3" stroke="#80b1d3" points="127.03,-111.5 26.23,-111.5 26.23,-24.5 127.03,-24.5 127.03,-111.5"/>
<text text-anchor="middle" x="76.62" y="-94.2" font-family="Arial" font-size="14.00">LLV5801</text>
<text text-anchor="middle" x="76.62" y="-62.45" font-family="Arial" font-size="14.00">Língua e</text>
<text text-anchor="middle" x="76.62" y="-46.7" font-family="Arial" font-size="14.00">Cultura Latina</text>
<text text-anchor="middle" x="76.62" y="-30.95" font-family="Arial" font-size="14.00">I</text>
</a>
</g>
</g>
<!-- LLV5801&#45;&gt;LLV5802 -->
<g id="edge6" class="edge">
<title>LLV5801&#45;&gt;LLV5802</title>
<path fill="none" stroke="#80b1d3" stroke-width="2" d="M127.35,-53.5C127.35,-53.5 163.98,-53.5 163.98,-53.5"/>
<polygon fill="#80b1d3" stroke="#80b1d3" stroke-width="2" points="165.48,-51 165.48,-56 164.48,-56 164.48,-51 165.48,-51"/>
<polyline fill="none" stroke="#80b1d3" stroke-width="2" points="165.98,-53.5 163.48,-53.5"/>
</g>
<!-- LLV5931 -->
<g id="node8" class="node">
<title>LLV5931</title>
<g id="a_node8"><a xlink:title="Leitura e análise de textos canônicos na Literatura Ocidental, abordando os seguintes aspectos e textos: a) poéticas clássicas &#45; mimese e níveis de representação; a Poética de Aristóteles, uma tragédia grega e a Odisséia (Homero); b) poéticas modernas &#45; mescla e hibridismo: o &#39;Prefácio&#39; a Cromwell, de Vitor Hugo; &#39;O Pintor da vida moderna&#39;, de Baudelaire; uma peça de Schkespeare e um conto de Machado de Assis; c) poéticas contemporâneas &#45; a crise da representação: O grau zero da escritura, de Roland Barthes; Esperando Godot, de Beckett; um conto de Guimarães Rosa; &#39;Pierre Menard, autor do Quixote&#39;, de Borges, e poemas de João Cabral de Melo Neto.">
<polygon fill="#80b1d3" stroke="#80b1d3" points="127.03,-394.62 26.23,-394.62 26.23,-323.38 127.03,-323.38 127.03,-394.62"/>
<text text-anchor="middle" x="76.62" y="-377.32" font-family="Arial" font-size="14.00">LLV5931</text>
<text text-anchor="middle" x="76.62" y="-345.57" font-family="Arial" font-size="14.00">Teoria da</text>
<text text-anchor="middle" x="76.62" y="-329.82" font-family="Arial" font-size="14.00">Literatura I</text>
</a>
</g>
</g>
<!-- LLE5571 -->
<g id="node17" class="node">
<title>LLE5571</title>
<g id="a_node17"><a xlink:title="O conto: estudo de textos expressivos da literatura italiana.">
<polygon fill="#8dd3c7" stroke="#8dd3c7" points="547.02,-260.62 446.23,-260.62 446.23,-189.38 547.02,-189.38 547.02,-260.62"/>
<text text-anchor="middle" x="496.62" y="-243.32" font-family="Arial" font-size="14.00">LLE5571</text>
<text text-anchor="middle" x="496.62" y="-211.57" font-family="Arial" font-size="14.00">Literatura</text>
<text text-anchor="middle" x="496.62" y="-195.82" font-family="Arial" font-size="14.00">Italiana I</text>
</a>
</g>
</g>
<!-- LLV5931&#45;&gt;LLE5571 -->
<g id="edge11" class="edge">
<title>LLV5931&#45;&gt;LLE5571</title>
<path fill="none" stroke="#8dd3c7" stroke-width="2" d="M77.5,-394.95C77.5,-405.28 77.5,-413.81 77.5,-413.81 77.5,-413.81 497.5,-413.81 497.5,-413.81 497.5,-413.81 497.5,-263.46 497.5,-263.46"/>
<polygon fill="#8dd3c7" stroke="#8dd3c7" stroke-width="2" points="495,-261.96 500,-261.96 500,-262.96 495,-262.96 495,-261.96"/>
<polyline fill="none" stroke="#8dd3c7" stroke-width="2" points="497.5,-261.46 497.5,-263.96"/>
</g>
<!-- LLE5363 -->
<g id="node13" class="node">
<title>LLE5363</title>
<g id="a_node13"><a xlink:title="Aquisição de fluidez oral na discussão de temas variados. Redação de textos curtos e de extensão média sobre tópicos atuais.">
<polygon fill="#8dd3c7" stroke="#8dd3c7" points="407.27,-349.62 306.48,-349.62 306.48,-278.38 407.27,-278.38 407.27,-349.62"/>
<text text-anchor="middle" x="356.88" y="-332.32" font-family="Arial" font-size="14.00">LLE5363</text>
<text text-anchor="middle" x="356.88" y="-300.57" font-family="Arial" font-size="14.00">Língua</text>
<text text-anchor="middle" x="356.88" y="-284.82" font-family="Arial" font-size="14.00">Espanhola III</text>
</a>
</g>
</g>
<!-- LLE5562&#45;&gt;LLE5363 -->
<g id="edge7" class="edge">
<title>LLE5562&#45;&gt;LLE5363</title>
<path fill="none" stroke="#8dd3c7" stroke-width="2" d="M269.16,-340.88C269.16,-340.88 303.69,-340.88 303.69,-340.88"/>
<polygon fill="#8dd3c7" stroke="#8dd3c7" stroke-width="2" points="305.19,-338.38 305.19,-343.38 304.19,-343.38 304.19,-338.38 305.19,-338.38"/>
<polyline fill="none" stroke="#8dd3c7" stroke-width="2" points="305.69,-340.88 303.19,-340.88"/>
</g>
<!-- LLE5563 -->
<g id="node14" class="node">
<title>LLE5563</title>
<g id="a_node14"><a xlink:title="Domínio das estruturas mais avançadas da língua italiana, enfatizando a compreensão e a expressão oral. Tópicos de cultura italiana.">
<polygon fill="#8dd3c7" stroke="#8dd3c7" points="408.75,-260.62 305,-260.62 305,-189.38 408.75,-189.38 408.75,-260.62"/>
<text text-anchor="middle" x="356.88" y="-243.32" font-family="Arial" font-size="14.00">LLE5563</text>
<text text-anchor="middle" x="356.88" y="-211.57" font-family="Arial" font-size="14.00">Lingua Italiana</text>
<text text-anchor="middle" x="356.88" y="-195.82" font-family="Arial" font-size="14.00">III</text>
</a>
</g>
</g>
<!-- LLE5562&#45;&gt;LLE5563 -->
<g id="edge8" class="edge">
<title>LLE5562&#45;&gt;LLE5563</title>
<path fill="none" stroke="#8dd3c7" stroke-width="2" d="M269.18,-332.12C284.14,-332.12 296.5,-332.12 296.5,-332.12 296.5,-332.12 296.5,-231.62 296.5,-231.62 296.5,-231.62 302.14,-231.62 302.14,-231.62"/>
<polygon fill="#8dd3c7" stroke="#8dd3c7" stroke-width="2" points="303.64,-229.13 303.64,-234.13 302.64,-234.13 302.64,-229.13 303.64,-229.13"/>
<polyline fill="none" stroke="#8dd3c7" stroke-width="2" points="304.14,-231.63 301.64,-231.63"/>
</g>
<!-- LLV5802&#45;&gt;LLE5363 -->
<!-- LLV5802&#45;&gt;LLE5563 -->
<!-- LLV5260 -->
<g id="node15" class="node">
<title>LLV5260</title>
<g id="a_node15"><a xlink:title="Leitura e análise de textos canônicos na Literatura Portuguesa, abordando os seguintes aspectos e textos: a) a literatura e a construção da nacionalidade portuguesa &#45; a lírica trovadoresca: leitura de cantigas de amigo, de amor, de escárnio; o teatro de Gil Vicente: leitura de um dos autos; b) tradição e renovação, o paradigma do escritor clássico: leitura de poemas líricos de Camões; c) Barroco &#45; norma e transgressão &#45; releituras do lírico e do satírico: Bocage; d) o conflito campo/cidade &#45; Eça de Queiroz: leitura de um romance; e) Metáforas da modernidade na literatura portuguesa do século XX: novecentos e vanguarda; multiplicidades do moderno : leitura de poemas de Fernando Pessoa e de seus heterônimos; da verossimilhança realista &#45; Alves Redol : leitura de um romance, à verossimilhança intertextual &#45; José Saramago: leitura de um romance).">
<polygon fill="#80b1d3" stroke="#80b1d3" points="407.27,-171.38 306.48,-171.38 306.48,-68.62 407.27,-68.62 407.27,-171.38"/>
<text text-anchor="middle" x="356.88" y="-154.07" font-family="Arial" font-size="14.00">LLV5260</text>
<text text-anchor="middle" x="356.88" y="-122.33" font-family="Arial" font-size="14.00">Introdução ao</text>
<text text-anchor="middle" x="356.88" y="-106.58" font-family="Arial" font-size="14.00">Estudo da</text>
<text text-anchor="middle" x="356.88" y="-90.83" font-family="Arial" font-size="14.00">Literatura</text>
<text text-anchor="middle" x="356.88" y="-75.08" font-family="Arial" font-size="14.00">Portuguesa</text>
</a>
</g>
</g>
<!-- LLV5802&#45;&gt;LLV5260 -->
<!-- LLE5564 -->
<g id="node16" class="node">
<title>LLE5564</title>
<g id="a_node16"><a xlink:title="Abordagem semântica e funcional da língua italiana, com ênfase na produção oral. Tópicos de cultura italiana.">
<polygon fill="#8dd3c7" stroke="#8dd3c7" points="548.5,-171.62 444.75,-171.62 444.75,-100.38 548.5,-100.38 548.5,-171.62"/>
<text text-anchor="middle" x="496.62" y="-154.32" font-family="Arial" font-size="14.00">LLE5564</text>
<text text-anchor="middle" x="496.62" y="-122.58" font-family="Arial" font-size="14.00">Lingua Italiana</text>
<text text-anchor="middle" x="496.62" y="-106.83" font-family="Arial" font-size="14.00">IV</text>
</a>
</g>
</g>
<!-- LLE5563&#45;&gt;LLE5564 -->
<g id="edge9" class="edge">
<title>LLE5563&#45;&gt;LLE5564</title>
<path fill="none" stroke="#8dd3c7" stroke-width="2" d="M408.83,-225C422.5,-225 433.5,-225 433.5,-225 433.5,-225 433.5,-153.62 433.5,-153.62 433.5,-153.62 442,-153.62 442,-153.62"/>
<polygon fill="#8dd3c7" stroke="#8dd3c7" stroke-width="2" points="443.5,-151.13 443.5,-156.13 442.5,-156.13 442.5,-151.13 443.5,-151.13"/>
<polyline fill="none" stroke="#8dd3c7" stroke-width="2" points="444,-153.63 441.5,-153.63"/>
</g>
<!-- LLE5563&#45;&gt;LLE5571 -->
<g id="edge10" class="edge">
<title>LLE5563&#45;&gt;LLE5571</title>
<path fill="none" stroke="#8dd3c7" stroke-width="2" d="M408.91,-242.81C408.91,-242.81 443.44,-242.81 443.44,-242.81"/>
<polygon fill="#8dd3c7" stroke="#8dd3c7" stroke-width="2" points="444.94,-240.31 444.94,-245.31 443.94,-245.31 443.94,-240.31 444.94,-240.31"/>
<polyline fill="none" stroke="#8dd3c7" stroke-width="2" points="445.44,-242.81 442.94,-242.81"/>
</g>
<!-- LLV5260&#45;&gt;LLE5564 -->
<!-- LLV5260&#45;&gt;LLE5571 -->
</g>
</svg>
