<?xml version="1.0" encoding="UTF-8" standalone="no"?>
<!DOCTYPE svg PUBLIC "-//W3C//DTD SVG 1.1//EN"
 "http://www.w3.org/Graphics/SVG/1.1/DTD/svg11.dtd">
<!-- Generated by graphviz version 9.0.0 (0)
 -->
<!-- Title: grafo_materias Pages: 1 -->
<svg width="631pt" height="590pt"
 viewBox="0.00 0.00 630.75 590.00" xmlns="http://www.w3.org/2000/svg" xmlns:xlink="http://www.w3.org/1999/xlink">
<g id="graph0" class="graph" transform="scale(1 1) rotate(0) translate(4 586)">
<title>grafo_materias</title>
<polygon fill="none" stroke="none" points="-4,4 -4,-586 626.75,-586 626.75,4 -4,4"/>
<g id="clust1" class="cluster">
<title>cluster_everything</title>
<polygon fill="none" stroke="none" points="8,-8 8,-574 614.75,-574 614.75,-8 8,-8"/>
</g>
<g id="clust2" class="cluster">
<title>cluster_header</title>
<polygon fill="none" stroke="none" points="24.23,-514 24.23,-566 598.9,-566 598.9,-514 24.23,-514"/>
</g>
<g id="clust3" class="cluster">
<title>cluster_0</title>
<polygon fill="none" stroke="none" points="16,-23 16,-499 149.25,-499 149.25,-23 16,-23"/>
</g>
<g id="clust4" class="cluster">
<title>cluster_1</title>
<polygon fill="none" stroke="none" points="169.25,-16 169.25,-492 301.75,-492 301.75,-16 169.25,-16"/>
</g>
<g id="clust5" class="cluster">
<title>cluster_2</title>
<polygon fill="none" stroke="none" points="321.75,-106 321.75,-403 454.25,-403 454.25,-106 321.75,-106"/>
</g>
<g id="clust6" class="cluster">
<title>cluster_3</title>
<polygon fill="none" stroke="none" points="474.25,-203 474.25,-485 606.75,-485 606.75,-203 474.25,-203"/>
</g>
<!-- Fase 01 -->
<g id="node1" class="node">
<title>Fase 01</title>
<polygon fill="lightgrey" stroke="black" points="133.03,-558 32.23,-558 32.23,-522 133.03,-522 133.03,-558"/>
<text text-anchor="middle" x="82.62" y="-534.58" font-family="Arial" font-size="14.00">Fase 01</text>
</g>
<!-- Fase 02 -->
<g id="node2" class="node">
<title>Fase 02</title>
<polygon fill="lightgrey" stroke="black" points="285.9,-558 185.1,-558 185.1,-522 285.9,-522 285.9,-558"/>
<text text-anchor="middle" x="235.5" y="-534.58" font-family="Arial" font-size="14.00">Fase 02</text>
</g>
<!-- Fase 01&#45;&gt;Fase 02 -->
<!-- Fase 03 -->
<g id="node3" class="node">
<title>Fase 03</title>
<polygon fill="lightgrey" stroke="black" points="438.4,-558 337.6,-558 337.6,-522 438.4,-522 438.4,-558"/>
<text text-anchor="middle" x="388" y="-534.58" font-family="Arial" font-size="14.00">Fase 03</text>
</g>
<!-- Fase 02&#45;&gt;Fase 03 -->
<!-- Fase 04 -->
<g id="node4" class="node">
<title>Fase 04</title>
<polygon fill="lightgrey" stroke="black" points="590.9,-558 490.1,-558 490.1,-522 590.9,-522 590.9,-558"/>
<text text-anchor="middle" x="540.5" y="-534.58" font-family="Arial" font-size="14.00">Fase 04</text>
</g>
<!-- Fase 03&#45;&gt;Fase 04 -->
<!-- LLE5261 -->
<g id="node5" class="node">
<title>LLE5261</title>
<g id="a_node5"><a xlink:title="Iniciação às estruturas lingüísticas simples e ao vocabulário básico, com ênfase na compreensão e expressão orais.">
<polygon fill="#8dd3c7" stroke="#8dd3c7" points="141.25,-312.62 24,-312.62 24,-241.38 141.25,-241.38 141.25,-312.62"/>
<text text-anchor="middle" x="82.62" y="-295.32" font-family="Arial" font-size="14.00">LLE5261</text>
<text text-anchor="middle" x="82.62" y="-263.57" font-family="Arial" font-size="14.00">Língua Francesa</text>
<text text-anchor="middle" x="82.62" y="-247.82" font-family="Arial" font-size="14.00">I</text>
</a>
</g>
</g>
<!-- LLE5262 -->
<g id="node10" class="node">
<title>LLE5262</title>
<g id="a_node10"><a xlink:title="Aquisição progressiva das estruturas lingüísticas e do vocabulário de nível pré&#45;intermediário, com ênfase na compreensão e expressão orais.">
<polygon fill="#8dd3c7" stroke="#8dd3c7" points="293.75,-394.62 177.25,-394.62 177.25,-323.38 293.75,-323.38 293.75,-394.62"/>
<text text-anchor="middle" x="235.5" y="-377.32" font-family="Arial" font-size="14.00">LLE5262</text>
<text text-anchor="middle" x="235.5" y="-345.57" font-family="Arial" font-size="14.00">Lingua Francesa</text>
<text text-anchor="middle" x="235.5" y="-329.82" font-family="Arial" font-size="14.00">II</text>
</a>
</g>
</g>
<!-- LLE5261&#45;&gt;LLE5262 -->
<g id="edge4" class="edge">
<title>LLE5261&#45;&gt;LLE5262</title>
<path fill="none" stroke="#8dd3c7" stroke-width="2" d="M137.75,-313C137.75,-321.45 137.75,-328.04 137.75,-328.04 137.75,-328.04 174.45,-328.04 174.45,-328.04"/>
<polygon fill="#8dd3c7" stroke="#8dd3c7" stroke-width="2" points="175.95,-325.54 175.95,-330.54 174.95,-330.54 174.95,-325.54 175.95,-325.54"/>
<polyline fill="none" stroke="#8dd3c7" stroke-width="2" points="176.45,-328.04 173.95,-328.04"/>
</g>
<!-- LLE5261&#45;&gt;LLE5262 -->
<!-- LLE5272 -->
<g id="node11" class="node">
<title>LLE5272</title>
<g id="a_node11"><a xlink:title="Acesso à compreensão de textos escritos autênticos de nível médio e avançado.">
<polygon fill="#8dd3c7" stroke="#8dd3c7" points="285.9,-483.62 185.1,-483.62 185.1,-412.38 285.9,-412.38 285.9,-483.62"/>
<text text-anchor="middle" x="235.5" y="-466.32" font-family="Arial" font-size="14.00">LLE5272</text>
<text text-anchor="middle" x="235.5" y="-434.57" font-family="Arial" font-size="14.00">Leitura em</text>
<text text-anchor="middle" x="235.5" y="-418.82" font-family="Arial" font-size="14.00">Francês II</text>
</a>
</g>
</g>
<!-- LLE5261&#45;&gt;LLE5272 -->
<g id="edge6" class="edge">
<title>LLE5261&#45;&gt;LLE5272</title>
<path fill="none" stroke="#8dd3c7" stroke-width="2" d="M135.75,-312.82C135.75,-353.62 135.75,-414.71 135.75,-414.71 135.75,-414.71 182.25,-414.71 182.25,-414.71"/>
<polygon fill="#8dd3c7" stroke="#8dd3c7" stroke-width="2" points="183.75,-412.21 183.75,-417.21 182.75,-417.21 182.75,-412.21 183.75,-412.21"/>
<polyline fill="none" stroke="#8dd3c7" stroke-width="2" points="184.25,-414.71 181.75,-414.71"/>
</g>
<!-- LLE5261&#45;&gt;LLE5272 -->
<!-- LLV5102 -->
<g id="node12" class="node">
<title>LLV5102</title>
<g id="a_node12"><a xlink:title="Sentido e referência. Enunciado e Enunciação. Semântica e pragmática. Regras conversacionais. Princípios de semântica formal.">
<polygon fill="#80b1d3" stroke="#80b1d3" points="285.9,-184.75 185.1,-184.75 185.1,-129.25 285.9,-129.25 285.9,-184.75"/>
<text text-anchor="middle" x="235.5" y="-167.45" font-family="Arial" font-size="14.00">LLV5102</text>
<text text-anchor="middle" x="235.5" y="-135.7" font-family="Arial" font-size="14.00">Semântica</text>
</a>
</g>
</g>
<!-- LLE5261&#45;&gt;LLV5102 -->
<!-- LLV5240 -->
<g id="node13" class="node">
<title>LLV5240</title>
<g id="a_node13"><a xlink:title="Leitura e análise de textos canônicos na Literatura Brasileira, abordando os seguintes aspectos e textos: a) da colônia ao romantismo &#45; construção da identidade nacional a partir do mapeamento territorial; o barroco e a internacionalização da cultura: leitura da poesia de Gregório de Matos; Alencar e as ficções fundacionais: leitura de um romance indianista e de um urbano; b) Do Império à República Velha &#45; o oitocentos brasileiro, literatura e cultura brasileiras pós&#45;românticas: a ficção moderna de Machado de Assis: leitura de um romance ou de contos; c) 1920/1990 &#45; a literatura da modernidade &#45; modernismo e pós&#45; modernismo &#45; o lirismo moderno: leitura da poesia de Bandeira e Drummond; permanência e transformação do regional: leitura de um romance de Graciliano Ramos (Vidas secas ou São Bernardo) e do `Grande sertão: veredas`, de Guimarães Rosa; as narrativas de introspecção pessoal &#45; Clarice Lispector :leitura de contos ou de um romance.">
<polygon fill="#80b1d3" stroke="#80b1d3" points="285.9,-305.38 185.1,-305.38 185.1,-202.62 285.9,-202.62 285.9,-305.38"/>
<text text-anchor="middle" x="235.5" y="-288.07" font-family="Arial" font-size="14.00">LLV5240</text>
<text text-anchor="middle" x="235.5" y="-256.32" font-family="Arial" font-size="14.00">Introdução ao</text>
<text text-anchor="middle" x="235.5" y="-240.57" font-family="Arial" font-size="14.00">Estudo da</text>
<text text-anchor="middle" x="235.5" y="-224.82" font-family="Arial" font-size="14.00">Literatura</text>
<text text-anchor="middle" x="235.5" y="-209.07" font-family="Arial" font-size="14.00">Brasileira</text>
</a>
</g>
</g>
<!-- LLE5261&#45;&gt;LLV5240 -->
<!-- LLV5802 -->
<g id="node14" class="node">
<title>LLV5802</title>
<g id="a_node14"><a xlink:title="Introdução à língua latina; características; sintaxe dos casos.">
<polygon fill="#80b1d3" stroke="#80b1d3" points="285.9,-111.5 185.1,-111.5 185.1,-24.5 285.9,-24.5 285.9,-111.5"/>
<text text-anchor="middle" x="235.5" y="-94.2" font-family="Arial" font-size="14.00">LLV5802</text>
<text text-anchor="middle" x="235.5" y="-62.45" font-family="Arial" font-size="14.00">Língua e</text>
<text text-anchor="middle" x="235.5" y="-46.7" font-family="Arial" font-size="14.00">Cultura Latina</text>
<text text-anchor="middle" x="235.5" y="-30.95" font-family="Arial" font-size="14.00">II</text>
</a>
</g>
</g>
<!-- LLE5261&#45;&gt;LLV5802 -->
<!-- LLE5271 -->
<g id="node6" class="node">
<title>LLE5271</title>
<g id="a_node6"><a xlink:title="Acesso à compreensão de textos escritos autênticos de nível elementar e médio.">
<polygon fill="#8dd3c7" stroke="#8dd3c7" points="133.03,-401.62 32.23,-401.62 32.23,-330.38 133.03,-330.38 133.03,-401.62"/>
<text text-anchor="middle" x="82.62" y="-384.32" font-family="Arial" font-size="14.00">LLE5271</text>
<text text-anchor="middle" x="82.62" y="-352.57" font-family="Arial" font-size="14.00">Leitura em</text>
<text text-anchor="middle" x="82.62" y="-336.82" font-family="Arial" font-size="14.00">Francês I</text>
</a>
</g>
</g>
<!-- LLE5271&#45;&gt;LLE5262 -->
<g id="edge5" class="edge">
<title>LLE5271&#45;&gt;LLE5262</title>
<path fill="none" stroke="#8dd3c7" stroke-width="2" d="M133.11,-362.5C133.11,-362.5 174.35,-362.5 174.35,-362.5"/>
<polygon fill="#8dd3c7" stroke="#8dd3c7" stroke-width="2" points="175.85,-360 175.85,-365 174.85,-365 174.85,-360 175.85,-360"/>
<polyline fill="none" stroke="#8dd3c7" stroke-width="2" points="176.35,-362.5 173.85,-362.5"/>
</g>
<!-- LLE5271&#45;&gt;LLE5272 -->
<g id="edge7" class="edge">
<title>LLE5271&#45;&gt;LLE5272</title>
<path fill="none" stroke="#8dd3c7" stroke-width="2" d="M133.19,-399.88C177.79,-399.88 235.75,-399.88 235.75,-399.88 235.75,-399.88 235.75,-409.52 235.75,-409.52"/>
<polygon fill="#8dd3c7" stroke="#8dd3c7" stroke-width="2" points="238.25,-411.02 233.25,-411.02 233.25,-410.02 238.25,-410.02 238.25,-411.02"/>
<polyline fill="none" stroke="#8dd3c7" stroke-width="2" points="235.75,-411.52 235.75,-409.02"/>
</g>
<!-- LLV5101 -->
<g id="node7" class="node">
<title>LLV5101</title>
<g id="a_node7"><a xlink:title="Os conceitos de gramática. Recuperação da história da gramática clássica na estrutura das gramáticas tradicionais.">
<polygon fill="#80b1d3" stroke="#80b1d3" points="135.25,-223.5 30,-223.5 30,-136.5 135.25,-136.5 135.25,-223.5"/>
<text text-anchor="middle" x="82.62" y="-206.2" font-family="Arial" font-size="14.00">LLV5101</text>
<text text-anchor="middle" x="82.62" y="-174.45" font-family="Arial" font-size="14.00">Introdução aos</text>
<text text-anchor="middle" x="82.62" y="-158.7" font-family="Arial" font-size="14.00">Estudos</text>
<text text-anchor="middle" x="82.62" y="-142.95" font-family="Arial" font-size="14.00">Gramaticais</text>
</a>
</g>
</g>
<!-- LLV5101&#45;&gt;LLV5102 -->
<g id="edge8" class="edge">
<title>LLV5101&#45;&gt;LLV5102</title>
<path fill="none" stroke="#80b1d3" stroke-width="2" d="M135.66,-152.58C135.66,-152.58 182.11,-152.58 182.11,-152.58"/>
<polygon fill="#80b1d3" stroke="#80b1d3" stroke-width="2" points="183.61,-150.08 183.61,-155.08 182.61,-155.08 182.61,-150.08 183.61,-150.08"/>
<polyline fill="none" stroke="#80b1d3" stroke-width="2" points="184.11,-152.58 181.61,-152.58"/>
</g>
<!-- LLV5801 -->
<g id="node8" class="node">
<title>LLV5801</title>
<g id="a_node8"><a xlink:title="História de Roma. Panorama da literatura latina.">
<polygon fill="#80b1d3" stroke="#80b1d3" points="133.03,-118.5 32.23,-118.5 32.23,-31.5 133.03,-31.5 133.03,-118.5"/>
<text text-anchor="middle" x="82.62" y="-101.2" font-family="Arial" font-size="14.00">LLV5801</text>
<text text-anchor="middle" x="82.62" y="-69.45" font-family="Arial" font-size="14.00">Língua e</text>
<text text-anchor="middle" x="82.62" y="-53.7" font-family="Arial" font-size="14.00">Cultura Latina</text>
<text text-anchor="middle" x="82.62" y="-37.95" font-family="Arial" font-size="14.00">I</text>
</a>
</g>
</g>
<!-- LLV5801&#45;&gt;LLV5802 -->
<g id="edge9" class="edge">
<title>LLV5801&#45;&gt;LLV5802</title>
<path fill="none" stroke="#80b1d3" stroke-width="2" d="M133.11,-58.17C133.11,-58.17 182.31,-58.17 182.31,-58.17"/>
<polygon fill="#80b1d3" stroke="#80b1d3" stroke-width="2" points="183.81,-55.67 183.81,-60.67 182.81,-60.67 182.81,-55.67 183.81,-55.67"/>
<polyline fill="none" stroke="#80b1d3" stroke-width="2" points="184.31,-58.17 181.81,-58.17"/>
</g>
<!-- LLV5931 -->
<g id="node9" class="node">
<title>LLV5931</title>
<g id="a_node9"><a xlink:title="Leitura e análise de textos canônicos na Literatura Ocidental, abordando os seguintes aspectos e textos: a) poéticas clássicas &#45; mimese e níveis de representação; a Poética de Aristóteles, uma tragédia grega e a Odisséia (Homero); b) poéticas modernas &#45; mescla e hibridismo: o &#39;Prefácio&#39; a Cromwell, de Vitor Hugo; &#39;O Pintor da vida moderna&#39;, de Baudelaire; uma peça de Schkespeare e um conto de Machado de Assis; c) poéticas contemporâneas &#45; a crise da representação: O grau zero da escritura, de Roland Barthes; Esperando Godot, de Beckett; um conto de Guimarães Rosa; &#39;Pierre Menard, autor do Quixote&#39;, de Borges, e poemas de João Cabral de Melo Neto.">
<polygon fill="#80b1d3" stroke="#80b1d3" points="133.03,-490.62 32.23,-490.62 32.23,-419.38 133.03,-419.38 133.03,-490.62"/>
<text text-anchor="middle" x="82.62" y="-473.32" font-family="Arial" font-size="14.00">LLV5931</text>
<text text-anchor="middle" x="82.62" y="-441.57" font-family="Arial" font-size="14.00">Teoria da</text>
<text text-anchor="middle" x="82.62" y="-425.82" font-family="Arial" font-size="14.00">Literatura I</text>
</a>
</g>
</g>
<!-- LLE5281 -->
<g id="node20" class="node">
<title>LLE5281</title>
<g id="a_node20"><a xlink:title="Estudo da literatura francesa do Século XVII e XVIII.">
<polygon fill="#8dd3c7" stroke="#8dd3c7" points="590.9,-371.62 490.1,-371.62 490.1,-300.38 590.9,-300.38 590.9,-371.62"/>
<text text-anchor="middle" x="540.5" y="-354.32" font-family="Arial" font-size="14.00">LLE5281</text>
<text text-anchor="middle" x="540.5" y="-322.57" font-family="Arial" font-size="14.00">Literatura</text>
<text text-anchor="middle" x="540.5" y="-306.82" font-family="Arial" font-size="14.00">Francesa I</text>
</a>
</g>
</g>
<!-- LLV5931&#45;&gt;LLE5281 -->
<g id="edge17" class="edge">
<title>LLV5931&#45;&gt;LLE5281</title>
<path fill="none" stroke="#8dd3c7" stroke-width="2" d="M133.18,-451.5C144.76,-451.5 153.75,-451.5 153.75,-451.5 153.75,-451.5 153.75,-318 153.75,-318 153.75,-318 487.44,-318 487.44,-318"/>
<polygon fill="#8dd3c7" stroke="#8dd3c7" stroke-width="2" points="488.94,-315.5 488.94,-320.5 487.94,-320.5 487.94,-315.5 488.94,-315.5"/>
<polyline fill="none" stroke="#8dd3c7" stroke-width="2" points="489.44,-318 486.94,-318"/>
</g>
<!-- LLE5249 -->
<g id="node15" class="node">
<title>LLE5249</title>
<g id="a_node15"><a xlink:title="Noções de história, geografia e cultura da França e a &#39;Francofonia&#39;.">
<polygon fill="#8dd3c7" stroke="#8dd3c7" points="438.4,-305.62 337.6,-305.62 337.6,-234.38 438.4,-234.38 438.4,-305.62"/>
<text text-anchor="middle" x="388" y="-288.32" font-family="Arial" font-size="14.00">LLE5249</text>
<text text-anchor="middle" x="388" y="-256.57" font-family="Arial" font-size="14.00">Cultura</text>
<text text-anchor="middle" x="388" y="-240.82" font-family="Arial" font-size="14.00">Francesa</text>
</a>
</g>
</g>
<!-- LLE5262&#45;&gt;LLE5249 -->
<g id="edge10" class="edge">
<title>LLE5262&#45;&gt;LLE5249</title>
<path fill="none" stroke="#8dd3c7" stroke-width="2" d="M290.75,-323.07C290.75,-302.89 290.75,-281.71 290.75,-281.71 290.75,-281.71 334.88,-281.71 334.88,-281.71"/>
<polygon fill="#8dd3c7" stroke="#8dd3c7" stroke-width="2" points="336.38,-279.21 336.38,-284.21 335.38,-284.21 335.38,-279.21 336.38,-279.21"/>
<polyline fill="none" stroke="#8dd3c7" stroke-width="2" points="336.88,-281.71 334.38,-281.71"/>
</g>
<!-- LLE5263 -->
<g id="node16" class="node">
<title>LLE5263</title>
<g id="a_node16"><a xlink:title="Aquisição progressiva de estruturas lingüisticas e de vocabulário de nível intermediário.">
<polygon fill="#8dd3c7" stroke="#8dd3c7" points="446.25,-394.62 329.75,-394.62 329.75,-323.38 446.25,-323.38 446.25,-394.62"/>
<text text-anchor="middle" x="388" y="-377.32" font-family="Arial" font-size="14.00">LLE5263</text>
<text text-anchor="middle" x="388" y="-345.57" font-family="Arial" font-size="14.00">Lingua Francesa</text>
<text text-anchor="middle" x="388" y="-329.82" font-family="Arial" font-size="14.00">III</text>
</a>
</g>
</g>
<!-- LLE5262&#45;&gt;LLE5263 -->
<g id="edge11" class="edge">
<title>LLE5262&#45;&gt;LLE5263</title>
<path fill="none" stroke="#8dd3c7" stroke-width="2" d="M294.02,-359C294.02,-359 326.88,-359 326.88,-359"/>
<polygon fill="#8dd3c7" stroke="#8dd3c7" stroke-width="2" points="328.38,-356.5 328.38,-361.5 327.38,-361.5 327.38,-356.5 328.38,-356.5"/>
<polyline fill="none" stroke="#8dd3c7" stroke-width="2" points="328.88,-359 326.38,-359"/>
</g>
<!-- LLE5280 -->
<g id="node19" class="node">
<title>LLE5280</title>
<g id="a_node19"><a xlink:title="Visão global da história da literatura francesa da Idade Média aos nossos dias.">
<polygon fill="#8dd3c7" stroke="#8dd3c7" points="590.9,-476.5 490.1,-476.5 490.1,-389.5 590.9,-389.5 590.9,-476.5"/>
<text text-anchor="middle" x="540.5" y="-459.2" font-family="Arial" font-size="14.00">LLE5280</text>
<text text-anchor="middle" x="540.5" y="-427.45" font-family="Arial" font-size="14.00">Panorama da</text>
<text text-anchor="middle" x="540.5" y="-411.7" font-family="Arial" font-size="14.00">Literatura</text>
<text text-anchor="middle" x="540.5" y="-395.95" font-family="Arial" font-size="14.00">Francesa</text>
</a>
</g>
</g>
<!-- LLE5262&#45;&gt;LLE5280 -->
<g id="edge14" class="edge">
<title>LLE5262&#45;&gt;LLE5280</title>
<path fill="none" stroke="#8dd3c7" stroke-width="2" d="M290.75,-395.05C290.75,-396.97 290.75,-398.12 290.75,-398.12 290.75,-398.12 487.16,-398.12 487.16,-398.12"/>
<polygon fill="#8dd3c7" stroke="#8dd3c7" stroke-width="2" points="488.66,-395.63 488.66,-400.63 487.66,-400.63 487.66,-395.63 488.66,-395.63"/>
<polyline fill="none" stroke="#8dd3c7" stroke-width="2" points="489.16,-398.13 486.66,-398.13"/>
</g>
<!-- LLE5272&#45;&gt;LLE5263 -->
<g id="edge12" class="edge">
<title>LLE5272&#45;&gt;LLE5263</title>
<path fill="none" stroke="#8dd3c7" stroke-width="2" d="M286.35,-433.75C310.33,-433.75 333.75,-433.75 333.75,-433.75 333.75,-433.75 333.75,-397.56 333.75,-397.56"/>
<polygon fill="#8dd3c7" stroke="#8dd3c7" stroke-width="2" points="331.25,-396.06 336.25,-396.06 336.25,-397.06 331.25,-397.06 331.25,-396.06"/>
<polyline fill="none" stroke="#8dd3c7" stroke-width="2" points="333.75,-395.56 333.75,-398.06"/>
</g>
<!-- LLE5272&#45;&gt;LLE5280 -->
<g id="edge15" class="edge">
<title>LLE5272&#45;&gt;LLE5280</title>
<path fill="none" stroke="#8dd3c7" stroke-width="2" d="M286.21,-455.12C286.21,-455.12 487.17,-455.12 487.17,-455.12"/>
<polygon fill="#8dd3c7" stroke="#8dd3c7" stroke-width="2" points="488.67,-452.63 488.67,-457.63 487.67,-457.63 487.67,-452.63 488.67,-452.63"/>
<polyline fill="none" stroke="#8dd3c7" stroke-width="2" points="489.17,-455.13 486.67,-455.13"/>
</g>
<!-- LLV5802&#45;&gt;LLE5249 -->
<!-- LLV5802&#45;&gt;LLE5263 -->
<!-- LLV5260 -->
<g id="node17" class="node">
<title>LLV5260</title>
<g id="a_node17"><a xlink:title="Leitura e análise de textos canônicos na Literatura Portuguesa, abordando os seguintes aspectos e textos: a) a literatura e a construção da nacionalidade portuguesa &#45; a lírica trovadoresca: leitura de cantigas de amigo, de amor, de escárnio; o teatro de Gil Vicente: leitura de um dos autos; b) tradição e renovação, o paradigma do escritor clássico: leitura de poemas líricos de Camões; c) Barroco &#45; norma e transgressão &#45; releituras do lírico e do satírico: Bocage; d) o conflito campo/cidade &#45; Eça de Queiroz: leitura de um romance; e) Metáforas da modernidade na literatura portuguesa do século XX: novecentos e vanguarda; multiplicidades do moderno : leitura de poemas de Fernando Pessoa e de seus heterônimos; da verossimilhança realista &#45; Alves Redol : leitura de um romance, à verossimilhança intertextual &#45; José Saramago: leitura de um romance).">
<polygon fill="#80b1d3" stroke="#80b1d3" points="438.4,-216.38 337.6,-216.38 337.6,-113.62 438.4,-113.62 438.4,-216.38"/>
<text text-anchor="middle" x="388" y="-199.07" font-family="Arial" font-size="14.00">LLV5260</text>
<text text-anchor="middle" x="388" y="-167.32" font-family="Arial" font-size="14.00">Introdução ao</text>
<text text-anchor="middle" x="388" y="-151.57" font-family="Arial" font-size="14.00">Estudo da</text>
<text text-anchor="middle" x="388" y="-135.82" font-family="Arial" font-size="14.00">Literatura</text>
<text text-anchor="middle" x="388" y="-120.08" font-family="Arial" font-size="14.00">Portuguesa</text>
</a>
</g>
</g>
<!-- LLV5802&#45;&gt;LLV5260 -->
<!-- LLE5264 -->
<g id="node18" class="node">
<title>LLE5264</title>
<g id="a_node18"><a xlink:title="Aquisição progressiva de estruturas lingüísticas mais complexas e de vocabulário de nível intermediário.">
<polygon fill="#8dd3c7" stroke="#8dd3c7" points="598.75,-282.62 482.25,-282.62 482.25,-211.38 598.75,-211.38 598.75,-282.62"/>
<text text-anchor="middle" x="540.5" y="-265.32" font-family="Arial" font-size="14.00">LLE5264</text>
<text text-anchor="middle" x="540.5" y="-233.57" font-family="Arial" font-size="14.00">Lingua Francesa</text>
<text text-anchor="middle" x="540.5" y="-217.82" font-family="Arial" font-size="14.00">IV</text>
</a>
</g>
</g>
<!-- LLE5263&#45;&gt;LLE5264 -->
<g id="edge13" class="edge">
<title>LLE5263&#45;&gt;LLE5264</title>
<path fill="none" stroke="#8dd3c7" stroke-width="2" d="M442.75,-323C442.75,-294.16 442.75,-258.5 442.75,-258.5 442.75,-258.5 479.45,-258.5 479.45,-258.5"/>
<polygon fill="#8dd3c7" stroke="#8dd3c7" stroke-width="2" points="480.95,-256 480.95,-261 479.95,-261 479.95,-256 480.95,-256"/>
<polyline fill="none" stroke="#8dd3c7" stroke-width="2" points="481.45,-258.5 478.95,-258.5"/>
</g>
<!-- LLE5263&#45;&gt;LLE5281 -->
<g id="edge16" class="edge">
<title>LLE5263&#45;&gt;LLE5281</title>
<path fill="none" stroke="#8dd3c7" stroke-width="2" d="M446.52,-347.5C446.52,-347.5 487.34,-347.5 487.34,-347.5"/>
<polygon fill="#8dd3c7" stroke="#8dd3c7" stroke-width="2" points="488.84,-345 488.84,-350 487.84,-350 487.84,-345 488.84,-345"/>
<polyline fill="none" stroke="#8dd3c7" stroke-width="2" points="489.34,-347.5 486.84,-347.5"/>
</g>
<!-- LLV5260&#45;&gt;LLE5264 -->
<!-- LLV5260&#45;&gt;LLE5280 -->
<!-- LLV5260&#45;&gt;LLE5281 -->
</g>
</svg>
