<?xml version="1.0" encoding="UTF-8" standalone="no"?>
<!DOCTYPE svg PUBLIC "-//W3C//DTD SVG 1.1//EN"
 "http://www.w3.org/Graphics/SVG/1.1/DTD/svg11.dtd">
<!-- Generated by graphviz version 9.0.0 (0)
 -->
<!-- Title: grafo_materias Pages: 1 -->
<svg width="600pt" height="574pt"
 viewBox="0.00 0.00 600.05 574.00" xmlns="http://www.w3.org/2000/svg" xmlns:xlink="http://www.w3.org/1999/xlink">
<g id="graph0" class="graph" transform="scale(1 1) rotate(0) translate(4 570)">
<title>grafo_materias</title>
<polygon fill="none" stroke="none" points="-4,4 -4,-570 596.05,-570 596.05,4 -4,4"/>
<g id="clust1" class="cluster">
<title>cluster_everything</title>
<polygon fill="none" stroke="none" points="8,-8 8,-558 584.05,-558 584.05,-8 8,-8"/>
</g>
<g id="clust2" class="cluster">
<title>cluster_header</title>
<polygon fill="none" stroke="none" points="19.35,-498 19.35,-550 568.2,-550 568.2,-498 19.35,-498"/>
</g>
<g id="clust3" class="cluster">
<title>cluster_0</title>
<polygon fill="none" stroke="none" points="16,-16 16,-387 139.5,-387 139.5,-16 16,-16"/>
</g>
<g id="clust4" class="cluster">
<title>cluster_1</title>
<polygon fill="none" stroke="none" points="159.5,-16 159.5,-476 286.75,-476 286.75,-16 159.5,-16"/>
</g>
<g id="clust5" class="cluster">
<title>cluster_2</title>
<polygon fill="none" stroke="none" points="306.75,-16 306.75,-313 423.55,-313 423.55,-16 306.75,-16"/>
</g>
<g id="clust6" class="cluster">
<title>cluster_3</title>
<polygon fill="none" stroke="none" points="443.55,-55 443.55,-321 576.05,-321 576.05,-55 443.55,-55"/>
</g>
<!-- Fase 01 -->
<g id="node1" class="node">
<title>Fase 01</title>
<polygon fill="lightgrey" stroke="black" points="128.15,-542 27.35,-542 27.35,-506 128.15,-506 128.15,-542"/>
<text text-anchor="middle" x="77.75" y="-518.58" font-family="Arial" font-size="14.00">Fase 01</text>
</g>
<!-- Fase 02 -->
<g id="node2" class="node">
<title>Fase 02</title>
<polygon fill="lightgrey" stroke="black" points="273.52,-542 172.72,-542 172.72,-506 273.52,-506 273.52,-542"/>
<text text-anchor="middle" x="223.12" y="-518.58" font-family="Arial" font-size="14.00">Fase 02</text>
</g>
<!-- Fase 01&#45;&gt;Fase 02 -->
<!-- Fase 03 -->
<g id="node3" class="node">
<title>Fase 03</title>
<polygon fill="lightgrey" stroke="black" points="415.55,-542 314.75,-542 314.75,-506 415.55,-506 415.55,-542"/>
<text text-anchor="middle" x="365.15" y="-518.58" font-family="Arial" font-size="14.00">Fase 03</text>
</g>
<!-- Fase 02&#45;&gt;Fase 03 -->
<!-- Fase 04 -->
<g id="node4" class="node">
<title>Fase 04</title>
<polygon fill="lightgrey" stroke="black" points="560.2,-542 459.4,-542 459.4,-506 560.2,-506 560.2,-542"/>
<text text-anchor="middle" x="509.8" y="-518.58" font-family="Arial" font-size="14.00">Fase 04</text>
</g>
<!-- Fase 03&#45;&gt;Fase 04 -->
<!-- LLE5701 -->
<g id="node5" class="node">
<title>LLE5701</title>
<g id="a_node5"><a xlink:title="Estudo progressivo das estruturas básicas da Língua Alemã com ênfase na compreensão e expressão oral e escrita em situações variadas do cotidiano.">
<polygon fill="#8dd3c7" stroke="#8dd3c7" points="131.5,-289.75 24,-289.75 24,-234.25 131.5,-234.25 131.5,-289.75"/>
<text text-anchor="middle" x="77.75" y="-272.45" font-family="Arial" font-size="14.00">LLE5701</text>
<text text-anchor="middle" x="77.75" y="-240.7" font-family="Arial" font-size="14.00">Língua Alemã I</text>
</a>
</g>
</g>
<!-- LLE5440 -->
<g id="node9" class="node">
<title>LLE5440</title>
<g id="a_node9"><a xlink:title="História da língua alemã. Desenvolvimento político e cultural dos povos de língua alemã, (ministrado em Português).">
<polygon fill="#8dd3c7" stroke="#8dd3c7" points="273.52,-347.62 172.72,-347.62 172.72,-276.38 273.52,-276.38 273.52,-347.62"/>
<text text-anchor="middle" x="223.12" y="-330.32" font-family="Arial" font-size="14.00">LLE5440</text>
<text text-anchor="middle" x="223.12" y="-298.57" font-family="Arial" font-size="14.00">Estudos</text>
<text text-anchor="middle" x="223.12" y="-282.82" font-family="Arial" font-size="14.00">Culturais</text>
</a>
</g>
</g>
<!-- LLE5701&#45;&gt;LLE5440 -->
<!-- LLE5702 -->
<g id="node10" class="node">
<title>LLE5702</title>
<g id="a_node10"><a xlink:title="Estudo progressivo das estruturas básicas da Língua Alemã enfatizando a compreensão e a expressão oral bem como as habilidades básicas de produção escrita em situações cotidianas.">
<polygon fill="#8dd3c7" stroke="#8dd3c7" points="278.75,-258.75 167.5,-258.75 167.5,-203.25 278.75,-203.25 278.75,-258.75"/>
<text text-anchor="middle" x="223.12" y="-241.45" font-family="Arial" font-size="14.00">LLE5702</text>
<text text-anchor="middle" x="223.12" y="-209.7" font-family="Arial" font-size="14.00">Língua Alemã II</text>
</a>
</g>
</g>
<!-- LLE5701&#45;&gt;LLE5702 -->
<g id="edge4" class="edge">
<title>LLE5701&#45;&gt;LLE5702</title>
<path fill="none" stroke="#8dd3c7" stroke-width="2" d="M131.88,-248.95C131.88,-248.95 164.5,-248.95 164.5,-248.95"/>
<polygon fill="#8dd3c7" stroke="#8dd3c7" stroke-width="2" points="166,-246.45 166,-251.45 165,-251.45 165,-246.45 166,-246.45"/>
<polyline fill="none" stroke="#8dd3c7" stroke-width="2" points="166.5,-248.95 164,-248.95"/>
</g>
<!-- LLE5701&#45;&gt;LLE5702 -->
<!-- LLV5102 -->
<g id="node11" class="node">
<title>LLV5102</title>
<g id="a_node11"><a xlink:title="Sentido e referência. Enunciado e Enunciação. Semântica e pragmática. Regras conversacionais. Princípios de semântica formal.">
<polygon fill="#80b1d3" stroke="#80b1d3" points="273.52,-184.75 172.72,-184.75 172.72,-129.25 273.52,-129.25 273.52,-184.75"/>
<text text-anchor="middle" x="223.12" y="-167.45" font-family="Arial" font-size="14.00">LLV5102</text>
<text text-anchor="middle" x="223.12" y="-135.7" font-family="Arial" font-size="14.00">Semântica</text>
</a>
</g>
</g>
<!-- LLE5701&#45;&gt;LLV5102 -->
<!-- LLV5240 -->
<g id="node12" class="node">
<title>LLV5240</title>
<g id="a_node12"><a xlink:title="Leitura e análise de textos canônicos na Literatura Brasileira, abordando os seguintes aspectos e textos: a) da colônia ao romantismo &#45; construção da identidade nacional a partir do mapeamento territorial; o barroco e a internacionalização da cultura: leitura da poesia de Gregório de Matos; Alencar e as ficções fundacionais: leitura de um romance indianista e de um urbano; b) Do Império à República Velha &#45; o oitocentos brasileiro, literatura e cultura brasileiras pós&#45;românticas: a ficção moderna de Machado de Assis: leitura de um romance ou de contos; c) 1920/1990 &#45; a literatura da modernidade &#45; modernismo e pós&#45; modernismo &#45; o lirismo moderno: leitura da poesia de Bandeira e Drummond; permanência e transformação do regional: leitura de um romance de Graciliano Ramos (Vidas secas ou São Bernardo) e do `Grande sertão: veredas`, de Guimarães Rosa; as narrativas de introspecção pessoal &#45; Clarice Lispector :leitura de contos ou de um romance.">
<polygon fill="#80b1d3" stroke="#80b1d3" points="273.52,-468.38 172.72,-468.38 172.72,-365.62 273.52,-365.62 273.52,-468.38"/>
<text text-anchor="middle" x="223.12" y="-451.07" font-family="Arial" font-size="14.00">LLV5240</text>
<text text-anchor="middle" x="223.12" y="-419.32" font-family="Arial" font-size="14.00">Introdução ao</text>
<text text-anchor="middle" x="223.12" y="-403.57" font-family="Arial" font-size="14.00">Estudo da</text>
<text text-anchor="middle" x="223.12" y="-387.82" font-family="Arial" font-size="14.00">Literatura</text>
<text text-anchor="middle" x="223.12" y="-372.07" font-family="Arial" font-size="14.00">Brasileira</text>
</a>
</g>
</g>
<!-- LLE5701&#45;&gt;LLV5240 -->
<!-- LLV5802 -->
<g id="node13" class="node">
<title>LLV5802</title>
<g id="a_node13"><a xlink:title="Introdução à língua latina; características; sintaxe dos casos.">
<polygon fill="#80b1d3" stroke="#80b1d3" points="273.52,-111.5 172.72,-111.5 172.72,-24.5 273.52,-24.5 273.52,-111.5"/>
<text text-anchor="middle" x="223.12" y="-94.2" font-family="Arial" font-size="14.00">LLV5802</text>
<text text-anchor="middle" x="223.12" y="-62.45" font-family="Arial" font-size="14.00">Língua e</text>
<text text-anchor="middle" x="223.12" y="-46.7" font-family="Arial" font-size="14.00">Cultura Latina</text>
<text text-anchor="middle" x="223.12" y="-30.95" font-family="Arial" font-size="14.00">II</text>
</a>
</g>
</g>
<!-- LLE5701&#45;&gt;LLV5802 -->
<!-- LLV5101 -->
<g id="node6" class="node">
<title>LLV5101</title>
<g id="a_node6"><a xlink:title="Os conceitos de gramática. Recuperação da história da gramática clássica na estrutura das gramáticas tradicionais.">
<polygon fill="#80b1d3" stroke="#80b1d3" points="130.37,-216.5 25.12,-216.5 25.12,-129.5 130.37,-129.5 130.37,-216.5"/>
<text text-anchor="middle" x="77.75" y="-199.2" font-family="Arial" font-size="14.00">LLV5101</text>
<text text-anchor="middle" x="77.75" y="-167.45" font-family="Arial" font-size="14.00">Introdução aos</text>
<text text-anchor="middle" x="77.75" y="-151.7" font-family="Arial" font-size="14.00">Estudos</text>
<text text-anchor="middle" x="77.75" y="-135.95" font-family="Arial" font-size="14.00">Gramaticais</text>
</a>
</g>
</g>
<!-- LLV5101&#45;&gt;LLV5102 -->
<g id="edge5" class="edge">
<title>LLV5101&#45;&gt;LLV5102</title>
<path fill="none" stroke="#80b1d3" stroke-width="2" d="M130.64,-147.92C130.64,-147.92 169.95,-147.92 169.95,-147.92"/>
<polygon fill="#80b1d3" stroke="#80b1d3" stroke-width="2" points="171.45,-145.42 171.45,-150.42 170.45,-150.42 170.45,-145.42 171.45,-145.42"/>
<polyline fill="none" stroke="#80b1d3" stroke-width="2" points="171.95,-147.92 169.45,-147.92"/>
</g>
<!-- LLV5801 -->
<g id="node7" class="node">
<title>LLV5801</title>
<g id="a_node7"><a xlink:title="História de Roma. Panorama da literatura latina.">
<polygon fill="#80b1d3" stroke="#80b1d3" points="128.15,-111.5 27.35,-111.5 27.35,-24.5 128.15,-24.5 128.15,-111.5"/>
<text text-anchor="middle" x="77.75" y="-94.2" font-family="Arial" font-size="14.00">LLV5801</text>
<text text-anchor="middle" x="77.75" y="-62.45" font-family="Arial" font-size="14.00">Língua e</text>
<text text-anchor="middle" x="77.75" y="-46.7" font-family="Arial" font-size="14.00">Cultura Latina</text>
<text text-anchor="middle" x="77.75" y="-30.95" font-family="Arial" font-size="14.00">I</text>
</a>
</g>
</g>
<!-- LLV5801&#45;&gt;LLV5802 -->
<g id="edge6" class="edge">
<title>LLV5801&#45;&gt;LLV5802</title>
<path fill="none" stroke="#80b1d3" stroke-width="2" d="M128.6,-53.5C128.6,-53.5 170.05,-53.5 170.05,-53.5"/>
<polygon fill="#80b1d3" stroke="#80b1d3" stroke-width="2" points="171.55,-51 171.55,-56 170.55,-56 170.55,-51 171.55,-51"/>
<polyline fill="none" stroke="#80b1d3" stroke-width="2" points="172.05,-53.5 169.55,-53.5"/>
</g>
<!-- LLV5931 -->
<g id="node8" class="node">
<title>LLV5931</title>
<g id="a_node8"><a xlink:title="Leitura e análise de textos canônicos na Literatura Ocidental, abordando os seguintes aspectos e textos: a) poéticas clássicas &#45; mimese e níveis de representação; a Poética de Aristóteles, uma tragédia grega e a Odisséia (Homero); b) poéticas modernas &#45; mescla e hibridismo: o &#39;Prefácio&#39; a Cromwell, de Vitor Hugo; &#39;O Pintor da vida moderna&#39;, de Baudelaire; uma peça de Schkespeare e um conto de Machado de Assis; c) poéticas contemporâneas &#45; a crise da representação: O grau zero da escritura, de Roland Barthes; Esperando Godot, de Beckett; um conto de Guimarães Rosa; &#39;Pierre Menard, autor do Quixote&#39;, de Borges, e poemas de João Cabral de Melo Neto.">
<polygon fill="#80b1d3" stroke="#80b1d3" points="128.15,-378.62 27.35,-378.62 27.35,-307.38 128.15,-307.38 128.15,-378.62"/>
<text text-anchor="middle" x="77.75" y="-361.32" font-family="Arial" font-size="14.00">LLV5931</text>
<text text-anchor="middle" x="77.75" y="-329.57" font-family="Arial" font-size="14.00">Teoria da</text>
<text text-anchor="middle" x="77.75" y="-313.82" font-family="Arial" font-size="14.00">Literatura I</text>
</a>
</g>
</g>
<!-- LLE5446 -->
<g id="node17" class="node">
<title>LLE5446</title>
<g id="a_node17"><a xlink:title="Leitura de obras da Literatura Alemã do Século XX.">
<polygon fill="#8dd3c7" stroke="#8dd3c7" points="565.42,-312.5 454.17,-312.5 454.17,-225.5 565.42,-225.5 565.42,-312.5"/>
<text text-anchor="middle" x="509.8" y="-295.2" font-family="Arial" font-size="14.00">LLE5446</text>
<text text-anchor="middle" x="509.8" y="-263.45" font-family="Arial" font-size="14.00">Tópico Especial</text>
<text text-anchor="middle" x="509.8" y="-247.7" font-family="Arial" font-size="14.00">de Literatura</text>
<text text-anchor="middle" x="509.8" y="-231.95" font-family="Arial" font-size="14.00">Alemã I</text>
</a>
</g>
</g>
<!-- LLV5931&#45;&gt;LLE5446 -->
<g id="edge11" class="edge">
<title>LLV5931&#45;&gt;LLE5446</title>
<path fill="none" stroke="#8dd3c7" stroke-width="2" d="M128.61,-356.62C242.89,-356.62 510.05,-356.62 510.05,-356.62 510.05,-356.62 510.05,-315.31 510.05,-315.31"/>
<polygon fill="#8dd3c7" stroke="#8dd3c7" stroke-width="2" points="507.55,-313.81 512.55,-313.81 512.55,-314.81 507.55,-314.81 507.55,-313.81"/>
<polyline fill="none" stroke="#8dd3c7" stroke-width="2" points="510.05,-313.31 510.05,-315.81"/>
</g>
<!-- LLE5445 -->
<g id="node14" class="node">
<title>LLE5445</title>
<g id="a_node14"><a xlink:title="Estudo panorâmico da história da Literatura Alemã. Estudo dos gêneros poéticos. (ministrado em Português).">
<polygon fill="#8dd3c7" stroke="#8dd3c7" points="415.55,-304.62 314.75,-304.62 314.75,-233.38 415.55,-233.38 415.55,-304.62"/>
<text text-anchor="middle" x="365.15" y="-287.32" font-family="Arial" font-size="14.00">LLE5445</text>
<text text-anchor="middle" x="365.15" y="-255.57" font-family="Arial" font-size="14.00">Estudos</text>
<text text-anchor="middle" x="365.15" y="-239.82" font-family="Arial" font-size="14.00">Literários</text>
</a>
</g>
</g>
<!-- LLE5440&#45;&gt;LLE5445 -->
<g id="edge7" class="edge">
<title>LLE5440&#45;&gt;LLE5445</title>
<path fill="none" stroke="#8dd3c7" stroke-width="2" d="M274,-290.5C274,-290.5 312.13,-290.5 312.13,-290.5"/>
<polygon fill="#8dd3c7" stroke="#8dd3c7" stroke-width="2" points="313.63,-288 313.63,-293 312.63,-293 312.63,-288 313.63,-288"/>
<polyline fill="none" stroke="#8dd3c7" stroke-width="2" points="314.13,-290.5 311.63,-290.5"/>
</g>
<!-- LLE5440&#45;&gt;LLE5446 -->
<g id="edge9" class="edge">
<title>LLE5440&#45;&gt;LLE5446</title>
<path fill="none" stroke="#8dd3c7" stroke-width="2" d="M273.72,-308.56C273.72,-308.56 451.33,-308.56 451.33,-308.56"/>
<polygon fill="#8dd3c7" stroke="#8dd3c7" stroke-width="2" points="452.83,-306.06 452.83,-311.06 451.83,-311.06 451.83,-306.06 452.83,-306.06"/>
<polyline fill="none" stroke="#8dd3c7" stroke-width="2" points="453.33,-308.56 450.83,-308.56"/>
</g>
<!-- LLE5703 -->
<g id="node15" class="node">
<title>LLE5703</title>
<g id="a_node15"><a xlink:title="Estudo progressivo de estruturas básicas mais complexas da Língua Alemã, alcançando o domínio razoável do vocabulário básico referente a situações do cotidiano, fortalecendo ao mesmo tempo habilidades de compreensão oral e escrita.">
<polygon fill="#8dd3c7" stroke="#8dd3c7" points="415.55,-215.62 314.75,-215.62 314.75,-144.38 415.55,-144.38 415.55,-215.62"/>
<text text-anchor="middle" x="365.15" y="-198.32" font-family="Arial" font-size="14.00">LLE5703</text>
<text text-anchor="middle" x="365.15" y="-166.57" font-family="Arial" font-size="14.00">Língua Alemã</text>
<text text-anchor="middle" x="365.15" y="-150.82" font-family="Arial" font-size="14.00">III</text>
</a>
</g>
</g>
<!-- LLE5702&#45;&gt;LLE5703 -->
<g id="edge8" class="edge">
<title>LLE5702&#45;&gt;LLE5703</title>
<path fill="none" stroke="#8dd3c7" stroke-width="2" d="M278.85,-209.44C278.85,-209.44 312.17,-209.44 312.17,-209.44"/>
<polygon fill="#8dd3c7" stroke="#8dd3c7" stroke-width="2" points="313.67,-206.94 313.67,-211.94 312.67,-211.94 312.67,-206.94 313.67,-206.94"/>
<polyline fill="none" stroke="#8dd3c7" stroke-width="2" points="314.17,-209.44 311.67,-209.44"/>
</g>
<!-- LLV5802&#45;&gt;LLE5445 -->
<!-- LLV5802&#45;&gt;LLE5703 -->
<!-- LLV5260 -->
<g id="node16" class="node">
<title>LLV5260</title>
<g id="a_node16"><a xlink:title="Leitura e análise de textos canônicos na Literatura Portuguesa, abordando os seguintes aspectos e textos: a) a literatura e a construção da nacionalidade portuguesa &#45; a lírica trovadoresca: leitura de cantigas de amigo, de amor, de escárnio; o teatro de Gil Vicente: leitura de um dos autos; b) tradição e renovação, o paradigma do escritor clássico: leitura de poemas líricos de Camões; c) Barroco &#45; norma e transgressão &#45; releituras do lírico e do satírico: Bocage; d) o conflito campo/cidade &#45; Eça de Queiroz: leitura de um romance; e) Metáforas da modernidade na literatura portuguesa do século XX: novecentos e vanguarda; multiplicidades do moderno : leitura de poemas de Fernando Pessoa e de seus heterônimos; da verossimilhança realista &#45; Alves Redol : leitura de um romance, à verossimilhança intertextual &#45; José Saramago: leitura de um romance).">
<polygon fill="#80b1d3" stroke="#80b1d3" points="415.55,-126.38 314.75,-126.38 314.75,-23.63 415.55,-23.63 415.55,-126.38"/>
<text text-anchor="middle" x="365.15" y="-109.08" font-family="Arial" font-size="14.00">LLV5260</text>
<text text-anchor="middle" x="365.15" y="-77.33" font-family="Arial" font-size="14.00">Introdução ao</text>
<text text-anchor="middle" x="365.15" y="-61.58" font-family="Arial" font-size="14.00">Estudo da</text>
<text text-anchor="middle" x="365.15" y="-45.83" font-family="Arial" font-size="14.00">Literatura</text>
<text text-anchor="middle" x="365.15" y="-30.07" font-family="Arial" font-size="14.00">Portuguesa</text>
</a>
</g>
</g>
<!-- LLV5802&#45;&gt;LLV5260 -->
<!-- LLE5445&#45;&gt;LLE5446 -->
<g id="edge10" class="edge">
<title>LLE5445&#45;&gt;LLE5446</title>
<path fill="none" stroke="#8dd3c7" stroke-width="2" d="M415.74,-269C415.74,-269 451.56,-269 451.56,-269"/>
<polygon fill="#8dd3c7" stroke="#8dd3c7" stroke-width="2" points="453.06,-266.5 453.06,-271.5 452.06,-271.5 452.06,-266.5 453.06,-266.5"/>
<polyline fill="none" stroke="#8dd3c7" stroke-width="2" points="453.56,-269 451.06,-269"/>
</g>
<!-- LLE5704 -->
<g id="node18" class="node">
<title>LLE5704</title>
<g id="a_node18"><a xlink:title="Aperfeiçoamento da compreensão e da expressão oral e escrita, promovendo a fala e a leitura em velocidade normal, bem como do uso do vocabulário pertinente às situações e aos temas tratados.">
<polygon fill="#8dd3c7" stroke="#8dd3c7" points="568.05,-207.75 451.55,-207.75 451.55,-152.25 568.05,-152.25 568.05,-207.75"/>
<text text-anchor="middle" x="509.8" y="-190.45" font-family="Arial" font-size="14.00">LLE5704</text>
<text text-anchor="middle" x="509.8" y="-158.7" font-family="Arial" font-size="14.00">Língua Alemã IV</text>
</a>
</g>
</g>
<!-- LLE5703&#45;&gt;LLE5704 -->
<g id="edge12" class="edge">
<title>LLE5703&#45;&gt;LLE5704</title>
<path fill="none" stroke="#8dd3c7" stroke-width="2" d="M415.74,-180C415.74,-180 448.56,-180 448.56,-180"/>
<polygon fill="#8dd3c7" stroke="#8dd3c7" stroke-width="2" points="450.06,-177.5 450.06,-182.5 449.06,-182.5 449.06,-177.5 450.06,-177.5"/>
<polyline fill="none" stroke="#8dd3c7" stroke-width="2" points="450.56,-180 448.06,-180"/>
</g>
<!-- LLV5260&#45;&gt;LLE5446 -->
<!-- LLV5260&#45;&gt;LLE5704 -->
<!-- LLE5710 -->
<g id="node19" class="node">
<title>LLE5710</title>
<g id="a_node19"><a xlink:title="Introdução aos estudos tradutológicos (ministrado em Português).">
<polygon fill="#8dd3c7" stroke="#8dd3c7" points="560.2,-134.62 459.4,-134.62 459.4,-63.38 560.2,-63.38 560.2,-134.62"/>
<text text-anchor="middle" x="509.8" y="-117.33" font-family="Arial" font-size="14.00">LLE5710</text>
<text text-anchor="middle" x="509.8" y="-85.58" font-family="Arial" font-size="14.00">Teoria da</text>
<text text-anchor="middle" x="509.8" y="-69.83" font-family="Arial" font-size="14.00">Tradução</text>
</a>
</g>
</g>
<!-- LLV5260&#45;&gt;LLE5710 -->
</g>
</svg>
