<?xml version="1.0" encoding="UTF-8" standalone="no"?>
<!DOCTYPE svg PUBLIC "-//W3C//DTD SVG 1.1//EN"
 "http://www.w3.org/Graphics/SVG/1.1/DTD/svg11.dtd">
<!-- Generated by graphviz version 9.0.0 (0)
 -->
<!-- Title: grafo_materias Pages: 1 -->
<svg width="1192pt" height="752pt"
 viewBox="0.00 0.00 1192.15 752.00" xmlns="http://www.w3.org/2000/svg" xmlns:xlink="http://www.w3.org/1999/xlink">
<g id="graph0" class="graph" transform="scale(1 1) rotate(0) translate(4 748)">
<title>grafo_materias</title>
<polygon fill="none" stroke="none" points="-4,4 -4,-748 1188.15,-748 1188.15,4 -4,4"/>
<g id="clust1" class="cluster">
<title>cluster_everything</title>
<polygon fill="none" stroke="none" points="8,-8 8,-736 1176.15,-736 1176.15,-8 8,-8"/>
</g>
<g id="clust2" class="cluster">
<title>cluster_header</title>
<polygon fill="none" stroke="none" points="19.72,-676 19.72,-728 1168.15,-728 1168.15,-676 19.72,-676"/>
</g>
<g id="clust3" class="cluster">
<title>cluster_0</title>
<polygon fill="none" stroke="none" points="16,-16 16,-501 140.25,-501 140.25,-16 16,-16"/>
</g>
<g id="clust4" class="cluster">
<title>cluster_1</title>
<polygon fill="none" stroke="none" points="160.25,-16 160.25,-668 291.25,-668 291.25,-16 160.25,-16"/>
</g>
<g id="clust5" class="cluster">
<title>cluster_2</title>
<polygon fill="none" stroke="none" points="311.25,-194 311.25,-576 443,-576 443,-194 311.25,-194"/>
</g>
<g id="clust6" class="cluster">
<title>cluster_3</title>
<polygon fill="none" stroke="none" points="463,-16 463,-576 579.8,-576 579.8,-16 463,-16"/>
</g>
<g id="clust7" class="cluster">
<title>cluster_4</title>
<polygon fill="none" stroke="none" points="599.8,-122 599.8,-668 723.3,-668 723.3,-122 599.8,-122"/>
</g>
<g id="clust8" class="cluster">
<title>cluster_5</title>
<polygon fill="none" stroke="none" points="743.3,-288 743.3,-449 860.1,-449 860.1,-288 743.3,-288"/>
</g>
<g id="clust9" class="cluster">
<title>cluster_6</title>
<polygon fill="none" stroke="none" points="880.1,-199 880.1,-480 1031.35,-480 1031.35,-199 880.1,-199"/>
</g>
<g id="clust10" class="cluster">
<title>cluster_7</title>
<polygon fill="none" stroke="none" points="1051.35,-265 1051.35,-383 1168.15,-383 1168.15,-265 1051.35,-265"/>
</g>
<!-- Fase 01 -->
<g id="node1" class="node">
<title>Fase 01</title>
<polygon fill="lightgrey" stroke="black" points="128.53,-720 27.73,-720 27.73,-684 128.53,-684 128.53,-720"/>
<text text-anchor="middle" x="78.12" y="-696.58" font-family="Arial" font-size="14.00">Fase 01</text>
</g>
<!-- Fase 02 -->
<g id="node2" class="node">
<title>Fase 02</title>
<polygon fill="lightgrey" stroke="black" points="276.15,-720 175.35,-720 175.35,-684 276.15,-684 276.15,-720"/>
<text text-anchor="middle" x="225.75" y="-696.58" font-family="Arial" font-size="14.00">Fase 02</text>
</g>
<!-- Fase 01&#45;&gt;Fase 02 -->
<!-- Fase 03 -->
<g id="node3" class="node">
<title>Fase 03</title>
<polygon fill="lightgrey" stroke="black" points="427.53,-720 326.73,-720 326.73,-684 427.53,-684 427.53,-720"/>
<text text-anchor="middle" x="377.13" y="-696.58" font-family="Arial" font-size="14.00">Fase 03</text>
</g>
<!-- Fase 02&#45;&gt;Fase 03 -->
<!-- Fase 04 -->
<g id="node4" class="node">
<title>Fase 04</title>
<polygon fill="lightgrey" stroke="black" points="571.8,-720 471,-720 471,-684 571.8,-684 571.8,-720"/>
<text text-anchor="middle" x="521.4" y="-696.58" font-family="Arial" font-size="14.00">Fase 04</text>
</g>
<!-- Fase 03&#45;&gt;Fase 04 -->
<!-- Fase 05 -->
<g id="node5" class="node">
<title>Fase 05</title>
<polygon fill="lightgrey" stroke="black" points="711.95,-720 611.15,-720 611.15,-684 711.95,-684 711.95,-720"/>
<text text-anchor="middle" x="661.55" y="-696.58" font-family="Arial" font-size="14.00">Fase 05</text>
</g>
<!-- Fase 04&#45;&gt;Fase 05 -->
<!-- Fase 06 -->
<g id="node6" class="node">
<title>Fase 06</title>
<polygon fill="lightgrey" stroke="black" points="852.1,-720 751.3,-720 751.3,-684 852.1,-684 852.1,-720"/>
<text text-anchor="middle" x="801.7" y="-696.58" font-family="Arial" font-size="14.00">Fase 06</text>
</g>
<!-- Fase 05&#45;&gt;Fase 06 -->
<!-- Fase 07 -->
<g id="node7" class="node">
<title>Fase 07</title>
<polygon fill="lightgrey" stroke="black" points="1006.13,-720 905.33,-720 905.33,-684 1006.13,-684 1006.13,-720"/>
<text text-anchor="middle" x="955.73" y="-696.58" font-family="Arial" font-size="14.00">Fase 07</text>
</g>
<!-- Fase 06&#45;&gt;Fase 07 -->
<!-- Fase 08 -->
<g id="node8" class="node">
<title>Fase 08</title>
<polygon fill="lightgrey" stroke="black" points="1160.15,-720 1059.35,-720 1059.35,-684 1160.15,-684 1160.15,-720"/>
<text text-anchor="middle" x="1109.75" y="-696.58" font-family="Arial" font-size="14.00">Fase 08</text>
</g>
<!-- Fase 07&#45;&gt;Fase 08 -->
<!-- EGR5031 -->
<g id="node9" class="node">
<title>EGR5031</title>
<g id="a_node9"><a xlink:title="Design; A atividade como profissão; O exercício da profissão; Desenvolvimento de projeto: Fundamentos metodologicos. Metodologia clássica do design. Funcoes do produto. Análise morfológica.">
<polygon fill="#8dd3c7" stroke="#8dd3c7" points="128.53,-492.75 27.73,-492.75 27.73,-437.25 128.53,-437.25 128.53,-492.75"/>
<text text-anchor="middle" x="78.12" y="-475.45" font-family="Arial" font-size="14.00">EGR5031</text>
<text text-anchor="middle" x="78.12" y="-443.7" font-family="Arial" font-size="14.00">Projeto I</text>
</a>
</g>
</g>
<!-- EGR5032 -->
<g id="node15" class="node">
<title>EGR5032</title>
<g id="a_node15"><a xlink:title="Metodologia de Projeto">
<polygon fill="#8dd3c7" stroke="#8dd3c7" points="276.15,-659.75 175.35,-659.75 175.35,-604.25 276.15,-604.25 276.15,-659.75"/>
<text text-anchor="middle" x="225.75" y="-642.45" font-family="Arial" font-size="14.00">EGR5032</text>
<text text-anchor="middle" x="225.75" y="-610.7" font-family="Arial" font-size="14.00">Projeto II</text>
</a>
</g>
</g>
<!-- EGR5031&#45;&gt;EGR5032 -->
<g id="edge8" class="edge">
<title>EGR5031&#45;&gt;EGR5032</title>
<path fill="none" stroke="#8dd3c7" stroke-width="2" d="M53.15,-492.93C53.15,-542.63 53.15,-641.25 53.15,-641.25 53.15,-641.25 172.4,-641.25 172.4,-641.25"/>
<polygon fill="#8dd3c7" stroke="#8dd3c7" stroke-width="2" points="173.9,-638.75 173.9,-643.75 172.9,-643.75 172.9,-638.75 173.9,-638.75"/>
<polyline fill="none" stroke="#8dd3c7" stroke-width="2" points="174.4,-641.25 171.9,-641.25"/>
</g>
<!-- EGR5031&#45;&gt;EGR5032 -->
<!-- EGR5036 -->
<g id="node16" class="node">
<title>EGR5036</title>
<g id="a_node16"><a xlink:title="Princípios de teoria da forma; diferentes modelos de ordenamento formal na natureza e nos produtos da cultura humana. Estruturas formais e sistemas de proporção em organizações bidimensionais. Gestalt. Metamorfose e padrões de crescimento; analogias formais; dimensões simbólicas da forma.">
<polygon fill="#8dd3c7" stroke="#8dd3c7" points="283.25,-585.75 168.25,-585.75 168.25,-530.25 283.25,-530.25 283.25,-585.75"/>
<text text-anchor="middle" x="225.75" y="-568.45" font-family="Arial" font-size="14.00">EGR5036</text>
<text text-anchor="middle" x="225.75" y="-536.7" font-family="Arial" font-size="14.00">Teoria da Forma</text>
</a>
</g>
</g>
<!-- EGR5031&#45;&gt;EGR5036 -->
<!-- EGR5037 -->
<g id="node17" class="node">
<title>EGR5037</title>
<g id="a_node17"><a xlink:title="Introdução ao Design. Aspectos históricos e origens do Design Design e vanguardas artísticas. As influências dos designers de diferentes países. O design moderno e contemporâneo.">
<polygon fill="#8dd3c7" stroke="#8dd3c7" points="276.15,-111.5 175.35,-111.5 175.35,-24.5 276.15,-24.5 276.15,-111.5"/>
<text text-anchor="middle" x="225.75" y="-94.2" font-family="Arial" font-size="14.00">EGR5037</text>
<text text-anchor="middle" x="225.75" y="-62.45" font-family="Arial" font-size="14.00">História e</text>
<text text-anchor="middle" x="225.75" y="-46.7" font-family="Arial" font-size="14.00">Evolução do</text>
<text text-anchor="middle" x="225.75" y="-30.95" font-family="Arial" font-size="14.00">Design</text>
</a>
</g>
</g>
<!-- EGR5031&#45;&gt;EGR5037 -->
<!-- EGR5042 -->
<g id="node18" class="node">
<title>EGR5042</title>
<g id="a_node18"><a xlink:title="Softwares de modelagem 2D e 3D (3DMax, Maya, etc). Conceitos básicos de modelagem &#45; Tipos de modelagem &#45; Visualização em 3D &#45; Planos de trabalho e/ou referência &#45; Estratégias de criação de modelos &#45; Comandos de modelagem &#45; Edição de modelos &#45; Dimensionamento de 3D &#45; Tratamento superficial.">
<polygon fill="#8dd3c7" stroke="#8dd3c7" points="276.15,-511.75 175.35,-511.75 175.35,-456.25 276.15,-456.25 276.15,-511.75"/>
<text text-anchor="middle" x="225.75" y="-494.45" font-family="Arial" font-size="14.00">EGR5042</text>
<text text-anchor="middle" x="225.75" y="-462.7" font-family="Arial" font-size="14.00">Modelagem II</text>
</a>
</g>
</g>
<!-- EGR5031&#45;&gt;EGR5042 -->
<!-- EGR5056 -->
<g id="node19" class="node">
<title>EGR5056</title>
<g id="a_node19"><a xlink:title="Composição bidimensional. A representação das formas naturais e artificiais. Síntese formal. Leis da Simetria.">
<polygon fill="#8dd3c7" stroke="#8dd3c7" points="276.15,-437.75 175.35,-437.75 175.35,-382.25 276.15,-382.25 276.15,-437.75"/>
<text text-anchor="middle" x="225.75" y="-420.45" font-family="Arial" font-size="14.00">EGR5056</text>
<text text-anchor="middle" x="225.75" y="-388.7" font-family="Arial" font-size="14.00">Composição</text>
</a>
</g>
</g>
<!-- EGR5031&#45;&gt;EGR5056 -->
<!-- EGR5101 -->
<g id="node20" class="node">
<title>EGR5101</title>
<g id="a_node20"><a xlink:title="Introdução à Teoria da Comunicação aplicada ao Design. Introdução a semiologia, definição de termos, considerações históricas, divisão dos signos, textos narrativos, objeto&#45;signo, signo&#45;imagem, teoria dos signos de Peirce, significado e aplicação, dimensão sintática, dimensão semântica e dimensão pragmática, monosemia, polisemia, transição da semiótica a hermenêutica, grafismo, estado da arte.">
<polygon fill="#8dd3c7" stroke="#8dd3c7" points="276.15,-363.75 175.35,-363.75 175.35,-308.25 276.15,-308.25 276.15,-363.75"/>
<text text-anchor="middle" x="225.75" y="-346.45" font-family="Arial" font-size="14.00">EGR5101</text>
<text text-anchor="middle" x="225.75" y="-314.7" font-family="Arial" font-size="14.00">Semiótica</text>
</a>
</g>
</g>
<!-- EGR5031&#45;&gt;EGR5101 -->
<!-- EGR5141 -->
<g id="node21" class="node">
<title>EGR5141</title>
<g id="a_node21"><a xlink:title="Conceituação. Bloqueios e desbloqueadores. Técnicas de geração, sistematização e avaliação de idéias.">
<polygon fill="#8dd3c7" stroke="#8dd3c7" points="276.15,-289.75 175.35,-289.75 175.35,-234.25 276.15,-234.25 276.15,-289.75"/>
<text text-anchor="middle" x="225.75" y="-272.45" font-family="Arial" font-size="14.00">EGR5141</text>
<text text-anchor="middle" x="225.75" y="-240.7" font-family="Arial" font-size="14.00">Criatividade</text>
</a>
</g>
</g>
<!-- EGR5031&#45;&gt;EGR5141 -->
<!-- EGR5410 -->
<g id="node22" class="node">
<title>EGR5410</title>
<polygon fill="#8dd3c7" stroke="#8dd3c7" points="281.38,-216.5 170.13,-216.5 170.13,-129.5 281.38,-129.5 281.38,-216.5"/>
<text text-anchor="middle" x="225.75" y="-199.2" font-family="Arial" font-size="14.00">EGR5410</text>
<text text-anchor="middle" x="225.75" y="-167.45" font-family="Arial" font-size="14.00">Ferramentas</text>
<text text-anchor="middle" x="225.75" y="-151.7" font-family="Arial" font-size="14.00">para Ambientes</text>
<text text-anchor="middle" x="225.75" y="-135.95" font-family="Arial" font-size="14.00">Digitais</text>
</g>
<!-- EGR5031&#45;&gt;EGR5410 -->
<!-- EGR5033 -->
<g id="node10" class="node">
<title>EGR5033</title>
<g id="a_node10"><a xlink:title="Construções Geométricas; figuras planas e transformações bidimensionais. Desenho tridimensional">
<polygon fill="#8dd3c7" stroke="#8dd3c7" points="131.88,-419.62 24.38,-419.62 24.38,-348.38 131.88,-348.38 131.88,-419.62"/>
<text text-anchor="middle" x="78.12" y="-402.32" font-family="Arial" font-size="14.00">EGR5033</text>
<text text-anchor="middle" x="78.12" y="-370.57" font-family="Arial" font-size="14.00">Métodos de</text>
<text text-anchor="middle" x="78.12" y="-354.82" font-family="Arial" font-size="14.00">Representação</text>
</a>
</g>
</g>
<!-- EGR5034 -->
<g id="node11" class="node">
<title>EGR5034</title>
<g id="a_node11"><a xlink:title="Desenvolvimento da expressão gráfico&#45;plástica e da gramática visual (sintaxe). O desenho como expressão de sentimentos e conceitos. As ferramentas de desenho. A representação através das formas naturais e artificiais. Estudo de luz e sombra. Percepção e composição das estruturas formais.">
<polygon fill="#8dd3c7" stroke="#8dd3c7" points="128.53,-330.75 27.73,-330.75 27.73,-275.25 128.53,-275.25 128.53,-330.75"/>
<text text-anchor="middle" x="78.12" y="-313.45" font-family="Arial" font-size="14.00">EGR5034</text>
<text text-anchor="middle" x="78.12" y="-281.7" font-family="Arial" font-size="14.00">Desenho</text>
</a>
</g>
</g>
<!-- EGR5035 -->
<g id="node12" class="node">
<title>EGR5035</title>
<g id="a_node12"><a xlink:title="Estudos dos diferentes movimentos artísticos ocidentais. Artes visuais no Brasil. Estudo comparativo entre os vários movimentos artísticos com ênfase na cultura ocidental e contemporânea.">
<polygon fill="#8dd3c7" stroke="#8dd3c7" points="128.53,-257.62 27.73,-257.62 27.73,-186.38 128.53,-186.38 128.53,-257.62"/>
<text text-anchor="middle" x="78.12" y="-240.32" font-family="Arial" font-size="14.00">EGR5035</text>
<text text-anchor="middle" x="78.12" y="-208.57" font-family="Arial" font-size="14.00">História da</text>
<text text-anchor="middle" x="78.12" y="-192.82" font-family="Arial" font-size="14.00">Arte</text>
</a>
</g>
</g>
<!-- EGR5035&#45;&gt;EGR5037 -->
<g id="edge9" class="edge">
<title>EGR5035&#45;&gt;EGR5037</title>
<path fill="none" stroke="#8dd3c7" stroke-width="2" d="M128.8,-196.42C134.97,-196.42 139.15,-196.42 139.15,-196.42 139.15,-196.42 139.15,-100.92 139.15,-100.92 139.15,-100.92 172.37,-100.92 172.37,-100.92"/>
<polygon fill="#8dd3c7" stroke="#8dd3c7" stroke-width="2" points="173.87,-98.42 173.87,-103.42 172.87,-103.42 172.87,-98.42 173.87,-98.42"/>
<polyline fill="none" stroke="#8dd3c7" stroke-width="2" points="174.37,-100.92 171.87,-100.92"/>
</g>
<!-- EGR5041 -->
<g id="node13" class="node">
<title>EGR5041</title>
<g id="a_node13"><a xlink:title="Malhas e padrões para construções gráficas. Texturas. Dobraduras e modelagens em materiais diversos.">
<polygon fill="#8dd3c7" stroke="#8dd3c7" points="128.53,-168.75 27.73,-168.75 27.73,-113.25 128.53,-113.25 128.53,-168.75"/>
<text text-anchor="middle" x="78.12" y="-151.45" font-family="Arial" font-size="14.00">EGR5041</text>
<text text-anchor="middle" x="78.12" y="-119.7" font-family="Arial" font-size="14.00">Modelagem I</text>
</a>
</g>
</g>
<!-- EGR5110 -->
<g id="node14" class="node">
<title>EGR5110</title>
<g id="a_node14"><a xlink:title="Cor e percepção visual. Processos fisiológicos. Princípios básicos da física da cor. Cor&#45;Luz e cor&#45;pigmento. Esquemas de composição cromática: harmonias e contrastes. Sistemas de cores: CMYK, RGB, HSB, PANTONE características e usos. A cor em displays. Cor de processo e cor especial. O uso da cor no Design Gráfico. A cor no processo de projeto: conceituação x especificação.">
<polygon fill="#8dd3c7" stroke="#8dd3c7" points="132.25,-95.62 24,-95.62 24,-24.38 132.25,-24.38 132.25,-95.62"/>
<text text-anchor="middle" x="78.12" y="-78.33" font-family="Arial" font-size="14.00">EGR5110</text>
<text text-anchor="middle" x="78.12" y="-46.58" font-family="Arial" font-size="14.00">Teoria da Luz e</text>
<text text-anchor="middle" x="78.12" y="-30.82" font-family="Arial" font-size="14.00">Cor</text>
</a>
</g>
</g>
<!-- EGR5403 -->
<g id="node26" class="node">
<title>EGR5403</title>
<polygon fill="#8dd3c7" stroke="#8dd3c7" points="427.53,-567.75 326.73,-567.75 326.73,-512.25 427.53,-512.25 427.53,-567.75"/>
<text text-anchor="middle" x="377.13" y="-550.45" font-family="Arial" font-size="14.00">EGR5403</text>
<text text-anchor="middle" x="377.13" y="-518.7" font-family="Arial" font-size="14.00">Projeto III &#45; G</text>
</g>
<!-- EGR5032&#45;&gt;EGR5403 -->
<g id="edge10" class="edge">
<title>EGR5032&#45;&gt;EGR5403</title>
<path fill="none" stroke="#8dd3c7" stroke-width="2" d="M276.59,-622.75C320.57,-622.75 377.15,-622.75 377.15,-622.75 377.15,-622.75 377.15,-570.52 377.15,-570.52"/>
<polygon fill="#8dd3c7" stroke="#8dd3c7" stroke-width="2" points="374.65,-569.02 379.65,-569.02 379.65,-570.02 374.65,-570.02 374.65,-569.02"/>
<polyline fill="none" stroke="#8dd3c7" stroke-width="2" points="377.15,-568.52 377.15,-571.02"/>
</g>
<!-- EGR5003 -->
<g id="node23" class="node">
<title>EGR5003</title>
<polygon fill="#8dd3c7" stroke="#8dd3c7" points="427.53,-346.62 326.73,-346.62 326.73,-275.38 427.53,-275.38 427.53,-346.62"/>
<text text-anchor="middle" x="377.13" y="-329.32" font-family="Arial" font-size="14.00">EGR5003</text>
<text text-anchor="middle" x="377.13" y="-297.57" font-family="Arial" font-size="14.00">Produção</text>
<text text-anchor="middle" x="377.13" y="-281.82" font-family="Arial" font-size="14.00">Gráfica I</text>
</g>
<!-- EGR5410&#45;&gt;EGR5003 -->
<!-- EGR5038 -->
<g id="node24" class="node">
<title>EGR5038</title>
<g id="a_node24"><a xlink:title="Conceitos de Ergonomia física e cognitiva e sua relação com o Design.">
<polygon fill="#8dd3c7" stroke="#8dd3c7" points="427.53,-493.75 326.73,-493.75 326.73,-438.25 427.53,-438.25 427.53,-493.75"/>
<text text-anchor="middle" x="377.13" y="-476.45" font-family="Arial" font-size="14.00">EGR5038</text>
<text text-anchor="middle" x="377.13" y="-444.7" font-family="Arial" font-size="14.00">Ergonomia</text>
</a>
</g>
</g>
<!-- EGR5410&#45;&gt;EGR5038 -->
<!-- EGR5040 -->
<g id="node25" class="node">
<title>EGR5040</title>
<g id="a_node25"><a xlink:title="Design baseado no princípio das três ecologias. Lucro, Qualidade de Vida e Respeito ao Meio Ambiente. Princípios da Sustentabilidade aplicados ao Design.">
<polygon fill="#8dd3c7" stroke="#8dd3c7" points="435,-419.75 319.25,-419.75 319.25,-364.25 435,-364.25 435,-419.75"/>
<text text-anchor="middle" x="377.13" y="-402.45" font-family="Arial" font-size="14.00">EGR5040</text>
<text text-anchor="middle" x="377.13" y="-370.7" font-family="Arial" font-size="14.00">Sustentabilidade</text>
</a>
</g>
</g>
<!-- EGR5410&#45;&gt;EGR5040 -->
<!-- EGR5410&#45;&gt;EGR5403 -->
<!-- EGR5411 -->
<g id="node27" class="node">
<title>EGR5411</title>
<polygon fill="#8dd3c7" stroke="#8dd3c7" points="427.53,-257.75 326.73,-257.75 326.73,-202.25 427.53,-202.25 427.53,-257.75"/>
<text text-anchor="middle" x="377.13" y="-240.45" font-family="Arial" font-size="14.00">EGR5411</text>
<text text-anchor="middle" x="377.13" y="-208.7" font-family="Arial" font-size="14.00">Tipografia</text>
</g>
<!-- EGR5410&#45;&gt;EGR5411 -->
<!-- EGR5405 -->
<g id="node38" class="node">
<title>EGR5405</title>
<polygon fill="#8dd3c7" stroke="#8dd3c7" points="711.95,-659.75 611.15,-659.75 611.15,-604.25 711.95,-604.25 711.95,-659.75"/>
<text text-anchor="middle" x="661.55" y="-642.45" font-family="Arial" font-size="14.00">EGR5405</text>
<text text-anchor="middle" x="661.55" y="-610.7" font-family="Arial" font-size="14.00">Projeto V &#45; G</text>
</g>
<!-- EGR5410&#45;&gt;EGR5405 -->
<g id="edge17" class="edge">
<title>EGR5410&#45;&gt;EGR5405</title>
<path fill="none" stroke="#8dd3c7" stroke-width="2" d="M281.78,-194.75C287.44,-194.75 291.15,-194.75 291.15,-194.75 291.15,-194.75 291.15,-650.5 291.15,-650.5 291.15,-650.5 608.32,-650.5 608.32,-650.5"/>
<polygon fill="#8dd3c7" stroke="#8dd3c7" stroke-width="2" points="609.82,-648 609.82,-653 608.82,-653 608.82,-648 609.82,-648"/>
<polyline fill="none" stroke="#8dd3c7" stroke-width="2" points="610.32,-650.5 607.82,-650.5"/>
</g>
<!-- EGR5413 -->
<g id="node39" class="node">
<title>EGR5413</title>
<polygon fill="#8dd3c7" stroke="#8dd3c7" points="711.95,-511.75 611.15,-511.75 611.15,-456.25 711.95,-456.25 711.95,-511.75"/>
<text text-anchor="middle" x="661.55" y="-494.45" font-family="Arial" font-size="14.00">EGR5413</text>
<text text-anchor="middle" x="661.55" y="-462.7" font-family="Arial" font-size="14.00">Hipermídia</text>
</g>
<!-- EGR5410&#45;&gt;EGR5413 -->
<g id="edge19" class="edge">
<title>EGR5410&#45;&gt;EGR5413</title>
<path fill="none" stroke="#8dd3c7" stroke-width="2" d="M281.76,-212.43C294.9,-212.43 305.15,-212.43 305.15,-212.43 305.15,-212.43 305.15,-500.33 305.15,-500.33 305.15,-500.33 608.37,-500.33 608.37,-500.33"/>
<polygon fill="#8dd3c7" stroke="#8dd3c7" stroke-width="2" points="609.86,-497.83 609.87,-502.83 608.87,-502.83 608.86,-497.83 609.86,-497.83"/>
<polyline fill="none" stroke="#8dd3c7" stroke-width="2" points="610.37,-500.33 607.87,-500.33"/>
</g>
<!-- EGR5414 -->
<g id="node40" class="node">
<title>EGR5414</title>
<polygon fill="#8dd3c7" stroke="#8dd3c7" points="711.95,-585.75 611.15,-585.75 611.15,-530.25 711.95,-530.25 711.95,-585.75"/>
<text text-anchor="middle" x="661.55" y="-568.45" font-family="Arial" font-size="14.00">EGR5414</text>
<text text-anchor="middle" x="661.55" y="-536.7" font-family="Arial" font-size="14.00">Web</text>
</g>
<!-- EGR5410&#45;&gt;EGR5414 -->
<g id="edge21" class="edge">
<title>EGR5410&#45;&gt;EGR5414</title>
<path fill="none" stroke="#8dd3c7" stroke-width="2" d="M281.84,-174.42C386.98,-174.42 603.15,-174.42 603.15,-174.42 603.15,-174.42 603.15,-539.62 603.15,-539.62 603.15,-539.62 608.28,-539.62 608.28,-539.62"/>
<polygon fill="#8dd3c7" stroke="#8dd3c7" stroke-width="2" points="609.78,-537.13 609.78,-542.13 608.78,-542.13 608.78,-537.13 609.78,-537.13"/>
<polyline fill="none" stroke="#8dd3c7" stroke-width="2" points="610.28,-539.63 607.78,-539.63"/>
</g>
<!-- EGR5004 -->
<g id="node28" class="node">
<title>EGR5004</title>
<polygon fill="#8dd3c7" stroke="#8dd3c7" points="571.8,-405.62 471,-405.62 471,-334.38 571.8,-334.38 571.8,-405.62"/>
<text text-anchor="middle" x="521.4" y="-388.32" font-family="Arial" font-size="14.00">EGR5004</text>
<text text-anchor="middle" x="521.4" y="-356.57" font-family="Arial" font-size="14.00">Produção</text>
<text text-anchor="middle" x="521.4" y="-340.82" font-family="Arial" font-size="14.00">Gráfica II</text>
</g>
<!-- EGR5003&#45;&gt;EGR5004 -->
<g id="edge11" class="edge">
<title>EGR5003&#45;&gt;EGR5004</title>
<path fill="none" stroke="#8dd3c7" stroke-width="2" d="M427.99,-340.5C427.99,-340.5 468.01,-340.5 468.01,-340.5"/>
<polygon fill="#8dd3c7" stroke="#8dd3c7" stroke-width="2" points="469.51,-338 469.51,-343 468.51,-343 468.51,-338 469.51,-338"/>
<polyline fill="none" stroke="#8dd3c7" stroke-width="2" points="470.01,-340.5 467.51,-340.5"/>
</g>
<!-- EGR5412 -->
<g id="node34" class="node">
<title>EGR5412</title>
<polygon fill="#8dd3c7" stroke="#8dd3c7" points="571.8,-494.62 471,-494.62 471,-423.38 571.8,-423.38 571.8,-494.62"/>
<text text-anchor="middle" x="521.4" y="-477.32" font-family="Arial" font-size="14.00">EGR5412</text>
<text text-anchor="middle" x="521.4" y="-445.57" font-family="Arial" font-size="14.00">Editoração</text>
<text text-anchor="middle" x="521.4" y="-429.82" font-family="Arial" font-size="14.00">Eletrônica</text>
</g>
<!-- EGR5003&#45;&gt;EGR5412 -->
<g id="edge14" class="edge">
<title>EGR5003&#45;&gt;EGR5412</title>
<path fill="none" stroke="#8dd3c7" stroke-width="2" d="M428.02,-343.56C438.88,-343.56 447.15,-343.56 447.15,-343.56 447.15,-343.56 447.15,-432.96 447.15,-432.96 447.15,-432.96 468.14,-432.96 468.14,-432.96"/>
<polygon fill="#8dd3c7" stroke="#8dd3c7" stroke-width="2" points="469.64,-430.46 469.64,-435.46 468.64,-435.46 468.64,-430.46 469.64,-430.46"/>
<polyline fill="none" stroke="#8dd3c7" stroke-width="2" points="470.14,-432.96 467.64,-432.96"/>
</g>
<!-- EGR5003&#45;&gt;EGR5405 -->
<g id="edge15" class="edge">
<title>EGR5003&#45;&gt;EGR5405</title>
<path fill="none" stroke="#8dd3c7" stroke-width="2" d="M427.88,-325.56C435.65,-325.56 441.15,-325.56 441.15,-325.56 441.15,-325.56 441.15,-641.25 441.15,-641.25 441.15,-641.25 608.21,-641.25 608.21,-641.25"/>
<polygon fill="#8dd3c7" stroke="#8dd3c7" stroke-width="2" points="609.71,-638.75 609.71,-643.75 608.71,-643.75 608.71,-638.75 609.71,-638.75"/>
<polyline fill="none" stroke="#8dd3c7" stroke-width="2" points="610.21,-641.25 607.71,-641.25"/>
</g>
<!-- EGR5404 -->
<g id="node33" class="node">
<title>EGR5404</title>
<polygon fill="#8dd3c7" stroke="#8dd3c7" points="571.8,-567.75 471,-567.75 471,-512.25 571.8,-512.25 571.8,-567.75"/>
<text text-anchor="middle" x="521.4" y="-550.45" font-family="Arial" font-size="14.00">EGR5404</text>
<text text-anchor="middle" x="521.4" y="-518.7" font-family="Arial" font-size="14.00">Projeto IV &#45; G</text>
</g>
<!-- EGR5038&#45;&gt;EGR5404 -->
<g id="edge12" class="edge">
<title>EGR5038&#45;&gt;EGR5404</title>
<path fill="none" stroke="#8dd3c7" stroke-width="2" d="M427.83,-466C441.78,-466 453.15,-466 453.15,-466 453.15,-466 453.15,-540 453.15,-540 453.15,-540 468.23,-540 468.23,-540"/>
<polygon fill="#8dd3c7" stroke="#8dd3c7" stroke-width="2" points="469.73,-537.5 469.73,-542.5 468.73,-542.5 468.73,-537.5 469.73,-537.5"/>
<polyline fill="none" stroke="#8dd3c7" stroke-width="2" points="470.23,-540 467.73,-540"/>
</g>
<!-- EGR5403&#45;&gt;EGR5404 -->
<g id="edge13" class="edge">
<title>EGR5403&#45;&gt;EGR5404</title>
<path fill="none" stroke="#8dd3c7" stroke-width="2" d="M427.99,-553.88C427.99,-553.88 468.01,-553.88 468.01,-553.88"/>
<polygon fill="#8dd3c7" stroke="#8dd3c7" stroke-width="2" points="469.51,-551.38 469.51,-556.38 468.51,-556.38 468.51,-551.38 469.51,-551.38"/>
<polyline fill="none" stroke="#8dd3c7" stroke-width="2" points="470.01,-553.88 467.51,-553.88"/>
</g>
<!-- EGR5411&#45;&gt;EGR5004 -->
<!-- EGR5043 -->
<g id="node29" class="node">
<title>EGR5043</title>
<g id="a_node29"><a xlink:title="Incorporar elementos de gerencia de projetos, custos, etc Importância do Design como ferramenta estratégica; Conceitos e definições; processos e interdisciplinaridade; relação cliente e métodos de controle; aspectos financeiros; Tecnologia; o Designer como gestor no projeto gráfico. Teoria Geral da Administração (noções); Introdução ao empreendedorismo; Realidade do mercado profissional; Empreendedor Empresário X Empreendedor Empregado; O Profissional Designer Gráfico e o Empreendedor em Design.">
<polygon fill="#8dd3c7" stroke="#8dd3c7" points="571.8,-242.75 471,-242.75 471,-187.25 571.8,-187.25 571.8,-242.75"/>
<text text-anchor="middle" x="521.4" y="-225.45" font-family="Arial" font-size="14.00">EGR5043</text>
<text text-anchor="middle" x="521.4" y="-193.7" font-family="Arial" font-size="14.00">Gestão</text>
</a>
</g>
</g>
<!-- EGR5411&#45;&gt;EGR5043 -->
<!-- EGR5044 -->
<g id="node30" class="node">
<title>EGR5044</title>
<g id="a_node30"><a xlink:title="Teorias de arquitetura da informação para o Design. A organização da informação utilizando projetos estruturados e tecnológica de orientação a objetos.">
<polygon fill="#8dd3c7" stroke="#8dd3c7" points="571.8,-168.75 471,-168.75 471,-113.25 571.8,-113.25 571.8,-168.75"/>
<text text-anchor="middle" x="521.4" y="-151.45" font-family="Arial" font-size="14.00">EGR5044</text>
<text text-anchor="middle" x="521.4" y="-119.7" font-family="Arial" font-size="14.00">Info</text>
</a>
</g>
</g>
<!-- EGR5411&#45;&gt;EGR5044 -->
<!-- EGR5045 -->
<g id="node31" class="node">
<title>EGR5045</title>
<g id="a_node31"><a xlink:title="Fases do Método Estatístico, Estatística Descritiva e Estatística Indutiva.">
<polygon fill="#8dd3c7" stroke="#8dd3c7" points="571.8,-95.62 471,-95.62 471,-24.38 571.8,-24.38 571.8,-95.62"/>
<text text-anchor="middle" x="521.4" y="-78.33" font-family="Arial" font-size="14.00">EGR5045</text>
<text text-anchor="middle" x="521.4" y="-46.58" font-family="Arial" font-size="14.00">Pesquisa em</text>
<text text-anchor="middle" x="521.4" y="-30.82" font-family="Arial" font-size="14.00">Design</text>
</a>
</g>
</g>
<!-- EGR5411&#45;&gt;EGR5045 -->
<!-- EGR5187 -->
<g id="node32" class="node">
<title>EGR5187</title>
<g id="a_node32"><a xlink:title="Conceitos fundamentais. Problemas do MKT. A planificação do MKT. Estratégias de MKT. Comportamento do consumidor. Análise de mercado. Sistemas de informação em Marketing. Segmentação de mercado: Os mercados de trabalho. O Composto mercadológico (4P`s, 4C`s e 4A`s)">
<polygon fill="#8dd3c7" stroke="#8dd3c7" points="571.8,-316.75 471,-316.75 471,-261.25 571.8,-261.25 571.8,-316.75"/>
<text text-anchor="middle" x="521.4" y="-299.45" font-family="Arial" font-size="14.00">EGR5187</text>
<text text-anchor="middle" x="521.4" y="-267.7" font-family="Arial" font-size="14.00">Marketing</text>
</a>
</g>
</g>
<!-- EGR5411&#45;&gt;EGR5187 -->
<!-- EGR5411&#45;&gt;EGR5404 -->
<!-- EGR5411&#45;&gt;EGR5412 -->
<!-- EGR5404&#45;&gt;EGR5405 -->
<g id="edge16" class="edge">
<title>EGR5404&#45;&gt;EGR5405</title>
<path fill="none" stroke="#8dd3c7" stroke-width="2" d="M522.15,-568.1C522.15,-595.16 522.15,-632 522.15,-632 522.15,-632 608.33,-632 608.33,-632"/>
<polygon fill="#8dd3c7" stroke="#8dd3c7" stroke-width="2" points="609.83,-629.5 609.83,-634.5 608.83,-634.5 608.83,-629.5 609.83,-629.5"/>
<polyline fill="none" stroke="#8dd3c7" stroke-width="2" points="610.33,-632 607.83,-632"/>
</g>
<!-- EGR5404&#45;&gt;EGR5413 -->
<g id="edge18" class="edge">
<title>EGR5404&#45;&gt;EGR5413</title>
<path fill="none" stroke="#8dd3c7" stroke-width="2" d="M522.15,-511.96C522.15,-508.44 522.15,-506.04 522.15,-506.04 522.15,-506.04 608.33,-506.04 608.33,-506.04"/>
<polygon fill="#8dd3c7" stroke="#8dd3c7" stroke-width="2" points="609.83,-503.54 609.83,-508.54 608.83,-508.54 608.83,-503.54 609.83,-503.54"/>
<polyline fill="none" stroke="#8dd3c7" stroke-width="2" points="610.33,-506.04 607.83,-506.04"/>
</g>
<!-- EGR5404&#45;&gt;EGR5414 -->
<g id="edge20" class="edge">
<title>EGR5404&#45;&gt;EGR5414</title>
<path fill="none" stroke="#8dd3c7" stroke-width="2" d="M572,-558.38C572,-558.38 608.53,-558.38 608.53,-558.38"/>
<polygon fill="#8dd3c7" stroke="#8dd3c7" stroke-width="2" points="610.03,-555.88 610.03,-560.88 609.03,-560.88 609.03,-555.88 610.03,-555.88"/>
<polyline fill="none" stroke="#8dd3c7" stroke-width="2" points="610.53,-558.38 608.03,-558.38"/>
</g>
<!-- DIR5999 -->
<g id="node35" class="node">
<title>DIR5999</title>
<polygon fill="#80b1d3" stroke="#80b1d3" points="711.95,-290.5 611.15,-290.5 611.15,-203.5 711.95,-203.5 711.95,-290.5"/>
<text text-anchor="middle" x="661.55" y="-273.2" font-family="Arial" font-size="14.00">DIR5999</text>
<text text-anchor="middle" x="661.55" y="-241.45" font-family="Arial" font-size="14.00">Ética</text>
<text text-anchor="middle" x="661.55" y="-225.7" font-family="Arial" font-size="14.00">Profissional e</text>
<text text-anchor="middle" x="661.55" y="-209.95" font-family="Arial" font-size="14.00">Legislação</text>
</g>
<!-- EGR5412&#45;&gt;DIR5999 -->
<!-- EGR5051 -->
<g id="node36" class="node">
<title>EGR5051</title>
<g id="a_node36"><a xlink:title="Etapas e aplicações da captação e do processamento de imagens; aquisição e características de imagens; operações com imagens e aplicações.">
<polygon fill="#8dd3c7" stroke="#8dd3c7" points="711.95,-185.75 611.15,-185.75 611.15,-130.25 711.95,-130.25 711.95,-185.75"/>
<text text-anchor="middle" x="661.55" y="-168.45" font-family="Arial" font-size="14.00">EGR5051</text>
<text text-anchor="middle" x="661.55" y="-136.7" font-family="Arial" font-size="14.00">Fotografia I</text>
</a>
</g>
</g>
<!-- EGR5412&#45;&gt;EGR5051 -->
<!-- EGR5057 -->
<g id="node37" class="node">
<title>EGR5057</title>
<polygon fill="#8dd3c7" stroke="#8dd3c7" points="715.3,-437.75 607.8,-437.75 607.8,-382.25 715.3,-382.25 715.3,-437.75"/>
<text text-anchor="middle" x="661.55" y="-420.45" font-family="Arial" font-size="14.00">EGR5057</text>
<text text-anchor="middle" x="661.55" y="-388.7" font-family="Arial" font-size="14.00">Imagem Digital</text>
</g>
<!-- EGR5412&#45;&gt;EGR5057 -->
<!-- EGR5412&#45;&gt;EGR5405 -->
<!-- EGR5412&#45;&gt;EGR5413 -->
<!-- EGR5412&#45;&gt;EGR5414 -->
<!-- FIL5101 -->
<g id="node41" class="node">
<title>FIL5101</title>
<g id="a_node41"><a xlink:title="Filosofia e comunicação. O homem e a linguagem. Ética e comunicação. Expressão visual e estética.">
<polygon fill="#fdb462" stroke="#fdb462" points="711.95,-363.75 611.15,-363.75 611.15,-308.25 711.95,-308.25 711.95,-363.75"/>
<text text-anchor="middle" x="661.55" y="-346.45" font-family="Arial" font-size="14.00">FIL5101</text>
<text text-anchor="middle" x="661.55" y="-314.7" font-family="Arial" font-size="14.00">Filosofia I</text>
</a>
</g>
</g>
<!-- EGR5412&#45;&gt;FIL5101 -->
<!-- EGR5406 -->
<g id="node42" class="node">
<title>EGR5406</title>
<polygon fill="#8dd3c7" stroke="#8dd3c7" points="852.1,-440.75 751.3,-440.75 751.3,-385.25 852.1,-385.25 852.1,-440.75"/>
<text text-anchor="middle" x="801.7" y="-423.45" font-family="Arial" font-size="14.00">EGR5406</text>
<text text-anchor="middle" x="801.7" y="-391.7" font-family="Arial" font-size="14.00">Projeto VI &#45; G</text>
</g>
<!-- EGR5057&#45;&gt;EGR5406 -->
<g id="edge22" class="edge">
<title>EGR5057&#45;&gt;EGR5406</title>
<path fill="none" stroke="#8dd3c7" stroke-width="2" d="M715.74,-420.25C715.74,-420.25 748.38,-420.25 748.38,-420.25"/>
<polygon fill="#8dd3c7" stroke="#8dd3c7" stroke-width="2" points="749.87,-417.75 749.88,-422.75 748.88,-422.75 748.87,-417.75 749.87,-417.75"/>
<polyline fill="none" stroke="#8dd3c7" stroke-width="2" points="750.38,-420.25 747.88,-420.25"/>
</g>
<!-- EGR5405&#45;&gt;EGR5406 -->
<g id="edge23" class="edge">
<title>EGR5405&#45;&gt;EGR5406</title>
<path fill="none" stroke="#8dd3c7" stroke-width="2" d="M712.31,-632C752.58,-632 802.15,-632 802.15,-632 802.15,-632 802.15,-443.68 802.15,-443.68"/>
<polygon fill="#8dd3c7" stroke="#8dd3c7" stroke-width="2" points="799.65,-442.18 804.65,-442.18 804.65,-443.18 799.65,-443.18 799.65,-442.18"/>
<polyline fill="none" stroke="#8dd3c7" stroke-width="2" points="802.15,-441.68 802.15,-444.18"/>
</g>
<!-- FIL5101&#45;&gt;EGR5406 -->
<!-- SPO5113 -->
<g id="node43" class="node">
<title>SPO5113</title>
<g id="a_node43"><a xlink:title="Conceitos sociológicos e culturais. Modernidade: concepções. Pós&#45;modernidade: concepções. Cultura de massa: conceitos. Hibridação Cultural: o caso específico da América Latina.">
<polygon fill="#ffffb3" stroke="#ffffb3" points="852.1,-367.62 751.3,-367.62 751.3,-296.38 852.1,-296.38 852.1,-367.62"/>
<text text-anchor="middle" x="801.7" y="-350.32" font-family="Arial" font-size="14.00">SPO5113</text>
<text text-anchor="middle" x="801.7" y="-318.57" font-family="Arial" font-size="14.00">Sociologia e</text>
<text text-anchor="middle" x="801.7" y="-302.82" font-family="Arial" font-size="14.00">Cultura</text>
</a>
</g>
</g>
<!-- FIL5101&#45;&gt;SPO5113 -->
<!-- EGR5047 -->
<g id="node44" class="node">
<title>EGR5047</title>
<g id="a_node44"><a xlink:title="O Projeto de Conclusão de Curso: normas e procedimentos, documentação, determinação do orientador, montagem da proposta de projeto, etc.">
<polygon fill="#fb8072" stroke="#fb8072" points="1006.13,-472.38 905.33,-472.38 905.33,-369.62 1006.13,-369.62 1006.13,-472.38"/>
<text text-anchor="middle" x="955.73" y="-455.07" font-family="Arial" font-size="14.00">EGR5047</text>
<text text-anchor="middle" x="955.73" y="-423.32" font-family="Arial" font-size="14.00">Projeto VII</text>
<text text-anchor="middle" x="955.73" y="-407.57" font-family="Arial" font-size="14.00">(Projeto de</text>
<text text-anchor="middle" x="955.73" y="-391.82" font-family="Arial" font-size="14.00">conclusão de</text>
<text text-anchor="middle" x="955.73" y="-376.07" font-family="Arial" font-size="14.00">curso) (TCC)</text>
</a>
</g>
</g>
<!-- EGR5406&#45;&gt;EGR5047 -->
<g id="edge24" class="edge">
<title>EGR5406&#45;&gt;EGR5047</title>
<path fill="none" stroke="#fb8072" stroke-width="2" d="M852.56,-413C852.56,-413 902.42,-413 902.42,-413"/>
<polygon fill="#fb8072" stroke="#fb8072" stroke-width="2" points="903.92,-410.5 903.92,-415.5 902.92,-415.5 902.92,-410.5 903.92,-410.5"/>
<polyline fill="none" stroke="#fb8072" stroke-width="2" points="904.42,-413 901.92,-413"/>
</g>
<!-- SPO5113&#45;&gt;EGR5047 -->
<!-- EGR5049 -->
<g id="node45" class="node">
<title>EGR5049</title>
<g id="a_node45"><a xlink:title="Cumprimento do programa de atividades de estágio (PAE) em conformidade com as normas da UFSC, do Curso de Design/EGR e com a legislação federal e estadual.">
<polygon fill="#8dd3c7" stroke="#8dd3c7" points="1006.13,-278.62 905.33,-278.62 905.33,-207.38 1006.13,-207.38 1006.13,-278.62"/>
<text text-anchor="middle" x="955.73" y="-261.32" font-family="Arial" font-size="14.00">EGR5049</text>
<text text-anchor="middle" x="955.73" y="-229.57" font-family="Arial" font-size="14.00">Estágio</text>
<text text-anchor="middle" x="955.73" y="-213.82" font-family="Arial" font-size="14.00">Obrigatório</text>
</a>
</g>
</g>
<!-- SPO5113&#45;&gt;EGR5049 -->
<!-- EGR7195 -->
<g id="node46" class="node">
<title>EGR7195</title>
<g id="a_node46"><a xlink:title="Empreendedorismo. Conceitos e breve histórico. Profissional empreendedor. O empreendedor nas organizações. Design e empreendedorismo. Noções de Administração do seu próprio negócio. Plano de Negócios.">
<polygon fill="#8dd3c7" stroke="#8dd3c7" points="1023.35,-351.75 888.1,-351.75 888.1,-296.25 1023.35,-296.25 1023.35,-351.75"/>
<text text-anchor="middle" x="955.73" y="-334.45" font-family="Arial" font-size="14.00">EGR7195</text>
<text text-anchor="middle" x="955.73" y="-302.7" font-family="Arial" font-size="14.00">Empreendedorismo</text>
</a>
</g>
</g>
<!-- SPO5113&#45;&gt;EGR7195 -->
<!-- EGR5048 -->
<g id="node47" class="node">
<title>EGR5048</title>
<g id="a_node47"><a xlink:title="Desenvolvimento de Projeto de conclusão de curso [projeto / pesquisa].">
<polygon fill="#fb8072" stroke="#fb8072" points="1160.15,-375.38 1059.35,-375.38 1059.35,-272.62 1160.15,-272.62 1160.15,-375.38"/>
<text text-anchor="middle" x="1109.75" y="-358.07" font-family="Arial" font-size="14.00">EGR5048</text>
<text text-anchor="middle" x="1109.75" y="-326.32" font-family="Arial" font-size="14.00">Projeto VIII</text>
<text text-anchor="middle" x="1109.75" y="-310.57" font-family="Arial" font-size="14.00">(Projeto de</text>
<text text-anchor="middle" x="1109.75" y="-294.82" font-family="Arial" font-size="14.00">conclusão de</text>
<text text-anchor="middle" x="1109.75" y="-279.07" font-family="Arial" font-size="14.00">curso) (TCC)</text>
</a>
</g>
</g>
<!-- EGR7195&#45;&gt;EGR5048 -->
</g>
</svg>
