<?xml version="1.0" encoding="UTF-8" standalone="no"?>
<!DOCTYPE svg PUBLIC "-//W3C//DTD SVG 1.1//EN"
 "http://www.w3.org/Graphics/SVG/1.1/DTD/svg11.dtd">
<!-- Generated by graphviz version 9.0.0 (0)
 -->
<!-- Title: grafo_materias Pages: 1 -->
<svg width="1365pt" height="655pt"
 viewBox="0.00 0.00 1364.80 655.00" xmlns="http://www.w3.org/2000/svg" xmlns:xlink="http://www.w3.org/1999/xlink">
<g id="graph0" class="graph" transform="scale(1 1) rotate(0) translate(4 651)">
<title>grafo_materias</title>
<polygon fill="none" stroke="none" points="-4,4 -4,-651 1360.8,-651 1360.8,4 -4,4"/>
<g id="clust1" class="cluster">
<title>cluster_everything</title>
<polygon fill="none" stroke="none" points="8,-8 8,-639 1348.8,-639 1348.8,-8 8,-8"/>
</g>
<g id="clust2" class="cluster">
<title>cluster_header</title>
<polygon fill="none" stroke="none" points="22.72,-579 22.72,-631 1330.33,-631 1330.33,-579 22.72,-579"/>
</g>
<g id="clust3" class="cluster">
<title>cluster_0</title>
<polygon fill="none" stroke="none" points="16,-16 16,-571 146.25,-571 146.25,-16 16,-16"/>
</g>
<g id="clust4" class="cluster">
<title>cluster_1</title>
<polygon fill="none" stroke="none" points="166.25,-111 166.25,-561 296.5,-561 296.5,-111 166.25,-111"/>
</g>
<g id="clust5" class="cluster">
<title>cluster_2</title>
<polygon fill="none" stroke="none" points="316.5,-111 316.5,-530 446.75,-530 446.75,-111 316.5,-111"/>
</g>
<g id="clust6" class="cluster">
<title>cluster_3</title>
<polygon fill="none" stroke="none" points="466.75,-16 466.75,-403 600.75,-403 600.75,-16 466.75,-16"/>
</g>
<g id="clust7" class="cluster">
<title>cluster_4</title>
<polygon fill="none" stroke="none" points="620.75,-23 620.75,-441 762.25,-441 762.25,-23 620.75,-23"/>
</g>
<g id="clust8" class="cluster">
<title>cluster_5</title>
<polygon fill="none" stroke="none" points="782.25,-150 782.25,-537 899.05,-537 899.05,-150 782.25,-150"/>
</g>
<g id="clust9" class="cluster">
<title>cluster_6</title>
<polygon fill="none" stroke="none" points="919.05,-130 919.05,-533 1044.8,-533 1044.8,-130 919.05,-130"/>
</g>
<g id="clust10" class="cluster">
<title>cluster_7</title>
<polygon fill="none" stroke="none" points="1064.8,-243 1064.8,-541 1183.05,-541 1183.05,-243 1064.8,-243"/>
</g>
<g id="clust11" class="cluster">
<title>cluster_8</title>
<polygon fill="none" stroke="none" points="1203.05,-445 1203.05,-533 1340.8,-533 1340.8,-445 1203.05,-445"/>
</g>
<!-- Fase 01 -->
<g id="node1" class="node">
<title>Fase 01</title>
<polygon fill="lightgrey" stroke="black" points="131.53,-623 30.73,-623 30.73,-587 131.53,-587 131.53,-623"/>
<text text-anchor="middle" x="81.12" y="-599.58" font-family="Arial" font-size="14.00">Fase 01</text>
</g>
<!-- Fase 02 -->
<g id="node2" class="node">
<title>Fase 02</title>
<polygon fill="lightgrey" stroke="black" points="281.77,-623 180.97,-623 180.97,-587 281.77,-587 281.77,-623"/>
<text text-anchor="middle" x="231.38" y="-599.58" font-family="Arial" font-size="14.00">Fase 02</text>
</g>
<!-- Fase 01&#45;&gt;Fase 02 -->
<!-- Fase 03 -->
<g id="node3" class="node">
<title>Fase 03</title>
<polygon fill="lightgrey" stroke="black" points="432.02,-623 331.23,-623 331.23,-587 432.02,-587 432.02,-623"/>
<text text-anchor="middle" x="381.62" y="-599.58" font-family="Arial" font-size="14.00">Fase 03</text>
</g>
<!-- Fase 02&#45;&gt;Fase 03 -->
<!-- Fase 04 -->
<g id="node4" class="node">
<title>Fase 04</title>
<polygon fill="lightgrey" stroke="black" points="584.15,-623 483.35,-623 483.35,-587 584.15,-587 584.15,-623"/>
<text text-anchor="middle" x="533.75" y="-599.58" font-family="Arial" font-size="14.00">Fase 04</text>
</g>
<!-- Fase 03&#45;&gt;Fase 04 -->
<!-- Fase 05 -->
<g id="node5" class="node">
<title>Fase 05</title>
<polygon fill="lightgrey" stroke="black" points="741.9,-623 641.1,-623 641.1,-587 741.9,-587 741.9,-623"/>
<text text-anchor="middle" x="691.5" y="-599.58" font-family="Arial" font-size="14.00">Fase 05</text>
</g>
<!-- Fase 04&#45;&gt;Fase 05 -->
<!-- Fase 06 -->
<g id="node6" class="node">
<title>Fase 06</title>
<polygon fill="lightgrey" stroke="black" points="891.05,-623 790.25,-623 790.25,-587 891.05,-587 891.05,-623"/>
<text text-anchor="middle" x="840.65" y="-599.58" font-family="Arial" font-size="14.00">Fase 06</text>
</g>
<!-- Fase 05&#45;&gt;Fase 06 -->
<!-- Fase 07 -->
<g id="node7" class="node">
<title>Fase 07</title>
<polygon fill="lightgrey" stroke="black" points="1032.33,-623 931.52,-623 931.52,-587 1032.33,-587 1032.33,-623"/>
<text text-anchor="middle" x="981.92" y="-599.58" font-family="Arial" font-size="14.00">Fase 07</text>
</g>
<!-- Fase 06&#45;&gt;Fase 07 -->
<!-- Fase 08 -->
<g id="node8" class="node">
<title>Fase 08</title>
<polygon fill="lightgrey" stroke="black" points="1174.33,-623 1073.52,-623 1073.52,-587 1174.33,-587 1174.33,-623"/>
<text text-anchor="middle" x="1123.92" y="-599.58" font-family="Arial" font-size="14.00">Fase 08</text>
</g>
<!-- Fase 07&#45;&gt;Fase 08 -->
<!-- Fase 09 -->
<g id="node9" class="node">
<title>Fase 09</title>
<polygon fill="lightgrey" stroke="black" points="1322.33,-623 1221.52,-623 1221.52,-587 1322.33,-587 1322.33,-623"/>
<text text-anchor="middle" x="1271.92" y="-599.58" font-family="Arial" font-size="14.00">Fase 09</text>
</g>
<!-- Fase 08&#45;&gt;Fase 09 -->
<!-- CIN5100 -->
<g id="node10" class="node">
<title>CIN5100</title>
<g id="a_node10"><a xlink:title="Métodos e técnicas da Pesquisa Bibliográfica; identificação e uso das fontes de informação; estudo e aplicação das normas de documentação da ABNT.">
<polygon fill="#8dd3c7" stroke="#8dd3c7" points="131.53,-305.62 30.73,-305.62 30.73,-234.38 131.53,-234.38 131.53,-305.62"/>
<text text-anchor="middle" x="81.12" y="-288.32" font-family="Arial" font-size="14.00">CIN5100</text>
<text text-anchor="middle" x="81.12" y="-256.57" font-family="Arial" font-size="14.00">Pesquisa</text>
<text text-anchor="middle" x="81.12" y="-240.82" font-family="Arial" font-size="14.00">Bibliográfica</text>
</a>
</g>
</g>
<!-- INE5223 -->
<g id="node15" class="node">
<title>INE5223</title>
<g id="a_node15"><a xlink:title="Conceitos Básicos de Hardware.&#39; Principais unidades funcionais do computador. Conceitos Básicos de Software. Principais Softwares básicos. Principais Softwares aplicativos. Comandos mais comuns de um Sistema Operacional. Processadores de Textos: Edição, Formatação, trabalhos com blocos, uso de recursos especiais, impressão, trabalho com mala direta. Agenda Eletrônica. Automação de Escritórios.">
<polygon fill="#fb8072" stroke="#fb8072" points="281.77,-206.5 180.97,-206.5 180.97,-119.5 281.77,-119.5 281.77,-206.5"/>
<text text-anchor="middle" x="231.38" y="-189.2" font-family="Arial" font-size="14.00">INE5223</text>
<text text-anchor="middle" x="231.38" y="-157.45" font-family="Arial" font-size="14.00">Informática</text>
<text text-anchor="middle" x="231.38" y="-141.7" font-family="Arial" font-size="14.00">para</text>
<text text-anchor="middle" x="231.38" y="-125.95" font-family="Arial" font-size="14.00">Secretariado</text>
</a>
</g>
</g>
<!-- CIN5100&#45;&gt;INE5223 -->
<!-- LLE5012 -->
<g id="node16" class="node">
<title>LLE5012</title>
<g id="a_node16"><a xlink:title="Desenvolvimento da compreensão e produção escrita, na língua inglesa, a nível pré&#45;intermediário.">
<polygon fill="#80b1d3" stroke="#80b1d3" points="287.75,-553.25 175,-553.25 175,-434.75 287.75,-434.75 287.75,-553.25"/>
<text text-anchor="middle" x="231.38" y="-535.95" font-family="Arial" font-size="14.00">LLE5012</text>
<text text-anchor="middle" x="231.38" y="-504.2" font-family="Arial" font-size="14.00">Compreensão e</text>
<text text-anchor="middle" x="231.38" y="-488.45" font-family="Arial" font-size="14.00">Produção</text>
<text text-anchor="middle" x="231.38" y="-472.7" font-family="Arial" font-size="14.00">Escrita em</text>
<text text-anchor="middle" x="231.38" y="-456.95" font-family="Arial" font-size="14.00">Língua Inglesa</text>
<text text-anchor="middle" x="231.38" y="-441.2" font-family="Arial" font-size="14.00">II</text>
</a>
</g>
</g>
<!-- CIN5100&#45;&gt;LLE5012 -->
<!-- LLE5022 -->
<g id="node17" class="node">
<title>LLE5022</title>
<g id="a_node17"><a xlink:title="Prática de compreensão e expressão oral em língua inglesa e estudo da gramática e pronúncia a nível pré&#45;intermediário.">
<polygon fill="#80b1d3" stroke="#80b1d3" points="288.5,-416.38 174.25,-416.38 174.25,-313.62 288.5,-313.62 288.5,-416.38"/>
<text text-anchor="middle" x="231.38" y="-399.07" font-family="Arial" font-size="14.00">LLE5022</text>
<text text-anchor="middle" x="231.38" y="-367.32" font-family="Arial" font-size="14.00">Expressão Oral</text>
<text text-anchor="middle" x="231.38" y="-351.57" font-family="Arial" font-size="14.00">e Gramática em</text>
<text text-anchor="middle" x="231.38" y="-335.82" font-family="Arial" font-size="14.00">Língua Inglesa</text>
<text text-anchor="middle" x="231.38" y="-320.07" font-family="Arial" font-size="14.00">II</text>
</a>
</g>
</g>
<!-- CIN5100&#45;&gt;LLE5022 -->
<!-- LLV5122 -->
<g id="node18" class="node">
<title>LLV5122</title>
<g id="a_node18"><a xlink:title="Aspectos do emprego da norma padrão escrita &#45; estrutura frasal.">
<polygon fill="#fdb462" stroke="#fdb462" points="283.62,-295.62 179.12,-295.62 179.12,-224.38 283.62,-224.38 283.62,-295.62"/>
<text text-anchor="middle" x="231.38" y="-278.32" font-family="Arial" font-size="14.00">LLV5122</text>
<text text-anchor="middle" x="231.38" y="-246.57" font-family="Arial" font-size="14.00">Norma Padrão</text>
<text text-anchor="middle" x="231.38" y="-230.82" font-family="Arial" font-size="14.00">Escrita II</text>
</a>
</g>
</g>
<!-- CIN5100&#45;&gt;LLV5122 -->
<!-- LLE5011 -->
<g id="node11" class="node">
<title>LLE5011</title>
<g id="a_node11"><a xlink:title="Introdução à compreensão e produção escrita, na língua inglesa, a nível básico.">
<polygon fill="#80b1d3" stroke="#80b1d3" points="137.5,-442.25 24.75,-442.25 24.75,-323.75 137.5,-323.75 137.5,-442.25"/>
<text text-anchor="middle" x="81.12" y="-424.95" font-family="Arial" font-size="14.00">LLE5011</text>
<text text-anchor="middle" x="81.12" y="-393.2" font-family="Arial" font-size="14.00">Compreensão e</text>
<text text-anchor="middle" x="81.12" y="-377.45" font-family="Arial" font-size="14.00">Produção</text>
<text text-anchor="middle" x="81.12" y="-361.7" font-family="Arial" font-size="14.00">Escrita em</text>
<text text-anchor="middle" x="81.12" y="-345.95" font-family="Arial" font-size="14.00">Língua Inglesa</text>
<text text-anchor="middle" x="81.12" y="-330.2" font-family="Arial" font-size="14.00">I</text>
</a>
</g>
</g>
<!-- LLE5011&#45;&gt;LLE5012 -->
<g id="edge9" class="edge">
<title>LLE5011&#45;&gt;LLE5012</title>
<path fill="none" stroke="#80b1d3" stroke-width="2" d="M137.93,-439.75C137.93,-439.75 172.49,-439.75 172.49,-439.75"/>
<polygon fill="#80b1d3" stroke="#80b1d3" stroke-width="2" points="173.99,-437.25 173.99,-442.25 172.99,-442.25 172.99,-437.25 173.99,-437.25"/>
<polyline fill="none" stroke="#80b1d3" stroke-width="2" points="174.49,-439.75 171.99,-439.75"/>
</g>
<!-- LLE5011&#45;&gt;LLE5022 -->
<g id="edge11" class="edge">
<title>LLE5011&#45;&gt;LLE5022</title>
<path fill="none" stroke="#80b1d3" stroke-width="2" d="M137.93,-354.62C137.93,-354.62 171.49,-354.62 171.49,-354.62"/>
<polygon fill="#80b1d3" stroke="#80b1d3" stroke-width="2" points="172.99,-352.13 172.99,-357.13 171.99,-357.13 171.99,-352.13 172.99,-352.13"/>
<polyline fill="none" stroke="#80b1d3" stroke-width="2" points="173.49,-354.63 170.99,-354.63"/>
</g>
<!-- LLE5021 -->
<g id="node12" class="node">
<title>LLE5021</title>
<g id="a_node12"><a xlink:title="Prática de compreensão e expressão oral em língua inglesa e fundamentos da gramática e pronúncia a nível básico.">
<polygon fill="#80b1d3" stroke="#80b1d3" points="138.25,-563.38 24,-563.38 24,-460.62 138.25,-460.62 138.25,-563.38"/>
<text text-anchor="middle" x="81.12" y="-546.08" font-family="Arial" font-size="14.00">LLE5021</text>
<text text-anchor="middle" x="81.12" y="-514.33" font-family="Arial" font-size="14.00">Expressão Oral</text>
<text text-anchor="middle" x="81.12" y="-498.57" font-family="Arial" font-size="14.00">e Gramática em</text>
<text text-anchor="middle" x="81.12" y="-482.82" font-family="Arial" font-size="14.00">Língua Inglesa</text>
<text text-anchor="middle" x="81.12" y="-467.07" font-family="Arial" font-size="14.00">I</text>
</a>
</g>
</g>
<!-- LLE5021&#45;&gt;LLE5012 -->
<g id="edge10" class="edge">
<title>LLE5021&#45;&gt;LLE5012</title>
<path fill="none" stroke="#80b1d3" stroke-width="2" d="M138.36,-522.38C138.36,-522.38 172.3,-522.38 172.3,-522.38"/>
<polygon fill="#80b1d3" stroke="#80b1d3" stroke-width="2" points="173.8,-519.88 173.8,-524.88 172.8,-524.88 172.8,-519.88 173.8,-519.88"/>
<polyline fill="none" stroke="#80b1d3" stroke-width="2" points="174.3,-522.38 171.8,-522.38"/>
</g>
<!-- LLE5021&#45;&gt;LLE5022 -->
<g id="edge12" class="edge">
<title>LLE5021&#45;&gt;LLE5022</title>
<path fill="none" stroke="#80b1d3" stroke-width="2" d="M138.48,-491.5C149.04,-491.5 156.8,-491.5 156.8,-491.5 156.8,-491.5 156.8,-385.5 156.8,-385.5 156.8,-385.5 171.6,-385.5 171.6,-385.5"/>
<polygon fill="#80b1d3" stroke="#80b1d3" stroke-width="2" points="173.1,-383 173.1,-388 172.1,-388 172.1,-383 173.1,-383"/>
<polyline fill="none" stroke="#80b1d3" stroke-width="2" points="173.6,-385.5 171.1,-385.5"/>
</g>
<!-- LLV5603 -->
<g id="node13" class="node">
<title>LLV5603</title>
<g id="a_node13"><a xlink:title="Estudo e produção de textos técnico&#45;científicos relevantes para o desempenho das atividades acadêmicas, tais como: resumo, resenha, artigo e seminário.">
<polygon fill="#fdb462" stroke="#fdb462" points="131.53,-216.5 30.73,-216.5 30.73,-129.5 131.53,-129.5 131.53,-216.5"/>
<text text-anchor="middle" x="81.12" y="-199.2" font-family="Arial" font-size="14.00">LLV5603</text>
<text text-anchor="middle" x="81.12" y="-167.45" font-family="Arial" font-size="14.00">Produção</text>
<text text-anchor="middle" x="81.12" y="-151.7" font-family="Arial" font-size="14.00">Textual</text>
<text text-anchor="middle" x="81.12" y="-135.95" font-family="Arial" font-size="14.00">Acadêmica I</text>
</a>
</g>
</g>
<!-- MTM5160 -->
<g id="node14" class="node">
<title>MTM5160</title>
<g id="a_node14"><a xlink:title="Razão. Proporção. Regra de três. Porcentagem. Juro e desconto simples. Juro Composto. Rendas certas. Formação de preços. Introdução à estatística: coleta e apresentação de dados; Distribuição de frequência; medidas de posição e dispersão; probabilidades.">
<polygon fill="#ffffb3" stroke="#ffffb3" points="131.53,-111.5 30.73,-111.5 30.73,-24.5 131.53,-24.5 131.53,-111.5"/>
<text text-anchor="middle" x="81.12" y="-94.2" font-family="Arial" font-size="14.00">MTM5160</text>
<text text-anchor="middle" x="81.12" y="-62.45" font-family="Arial" font-size="14.00">Matemática</text>
<text text-anchor="middle" x="81.12" y="-46.7" font-family="Arial" font-size="14.00">Comercial e</text>
<text text-anchor="middle" x="81.12" y="-30.95" font-family="Arial" font-size="14.00">Financeira</text>
</a>
</g>
</g>
<!-- CIN5427 -->
<g id="node23" class="node">
<title>CIN5427</title>
<g id="a_node23"><a xlink:title="Gestão dos arquivos. Informação, documento, documentação arquivística. O arquivo como uma unidade de informação na organização pública e privada. Sistemas de Informação. Gestão, planejamento e organização de arquivos.">
<polygon fill="#8dd3c7" stroke="#8dd3c7" points="584.15,-111.5 483.35,-111.5 483.35,-24.5 584.15,-24.5 584.15,-111.5"/>
<text text-anchor="middle" x="533.75" y="-94.2" font-family="Arial" font-size="14.00">CIN5427</text>
<text text-anchor="middle" x="533.75" y="-62.45" font-family="Arial" font-size="14.00">Gestão da</text>
<text text-anchor="middle" x="533.75" y="-46.7" font-family="Arial" font-size="14.00">Informação e</text>
<text text-anchor="middle" x="533.75" y="-30.95" font-family="Arial" font-size="14.00">Arquivo</text>
</a>
</g>
</g>
<!-- INE5223&#45;&gt;CIN5427 -->
<g id="edge17" class="edge">
<title>INE5223&#45;&gt;CIN5427</title>
<path fill="none" stroke="#8dd3c7" stroke-width="2" d="M231.8,-119.12C231.8,-94.22 231.8,-68 231.8,-68 231.8,-68 480.37,-68 480.37,-68"/>
<polygon fill="#8dd3c7" stroke="#8dd3c7" stroke-width="2" points="481.87,-65.5 481.87,-70.5 480.87,-70.5 480.87,-65.5 481.87,-65.5"/>
<polyline fill="none" stroke="#8dd3c7" stroke-width="2" points="482.37,-68 479.87,-68"/>
</g>
<!-- LLE5013 -->
<g id="node20" class="node">
<title>LLE5013</title>
<g id="a_node20"><a xlink:title="Desenvolvimento da compreensão e produção escrita, na língua inglesa, a nível intermediário.">
<polygon fill="#80b1d3" stroke="#80b1d3" points="438,-448.25 325.25,-448.25 325.25,-329.75 438,-329.75 438,-448.25"/>
<text text-anchor="middle" x="381.62" y="-430.95" font-family="Arial" font-size="14.00">LLE5013</text>
<text text-anchor="middle" x="381.62" y="-399.2" font-family="Arial" font-size="14.00">Compreensão e</text>
<text text-anchor="middle" x="381.62" y="-383.45" font-family="Arial" font-size="14.00">Produção</text>
<text text-anchor="middle" x="381.62" y="-367.7" font-family="Arial" font-size="14.00">Escrita em</text>
<text text-anchor="middle" x="381.62" y="-351.95" font-family="Arial" font-size="14.00">Língua Inglesa</text>
<text text-anchor="middle" x="381.62" y="-336.2" font-family="Arial" font-size="14.00">III</text>
</a>
</g>
</g>
<!-- LLE5012&#45;&gt;LLE5013 -->
<g id="edge13" class="edge">
<title>LLE5012&#45;&gt;LLE5013</title>
<path fill="none" stroke="#80b1d3" stroke-width="2" d="M288.18,-443.75C288.18,-443.75 322.74,-443.75 322.74,-443.75"/>
<polygon fill="#80b1d3" stroke="#80b1d3" stroke-width="2" points="324.24,-441.25 324.24,-446.25 323.24,-446.25 323.24,-441.25 324.24,-441.25"/>
<polyline fill="none" stroke="#80b1d3" stroke-width="2" points="324.74,-443.75 322.24,-443.75"/>
</g>
<!-- LLE5023 -->
<g id="node21" class="node">
<title>LLE5023</title>
<g id="a_node21"><a xlink:title="Prática de compreensão e expressão oral em língua inglesa e estudo da gramática e pronúncia a nível intermediário.">
<polygon fill="#80b1d3" stroke="#80b1d3" points="438.75,-311.38 324.5,-311.38 324.5,-208.62 438.75,-208.62 438.75,-311.38"/>
<text text-anchor="middle" x="381.62" y="-294.07" font-family="Arial" font-size="14.00">LLE5023</text>
<text text-anchor="middle" x="381.62" y="-262.32" font-family="Arial" font-size="14.00">Expressão Oral</text>
<text text-anchor="middle" x="381.62" y="-246.57" font-family="Arial" font-size="14.00">e Gramática em</text>
<text text-anchor="middle" x="381.62" y="-230.82" font-family="Arial" font-size="14.00">Língua Inglesa</text>
<text text-anchor="middle" x="381.62" y="-215.07" font-family="Arial" font-size="14.00">III</text>
</a>
</g>
</g>
<!-- LLE5012&#45;&gt;LLE5023 -->
<g id="edge15" class="edge">
<title>LLE5012&#45;&gt;LLE5023</title>
<path fill="none" stroke="#80b1d3" stroke-width="2" d="M288.08,-439.25C297.25,-439.25 303.8,-439.25 303.8,-439.25 303.8,-439.25 303.8,-298.96 303.8,-298.96 303.8,-298.96 321.75,-298.96 321.75,-298.96"/>
<polygon fill="#80b1d3" stroke="#80b1d3" stroke-width="2" points="323.25,-296.46 323.25,-301.46 322.25,-301.46 322.25,-296.46 323.25,-296.46"/>
<polyline fill="none" stroke="#80b1d3" stroke-width="2" points="323.75,-298.96 321.25,-298.96"/>
</g>
<!-- LLE5022&#45;&gt;LLE5013 -->
<g id="edge14" class="edge">
<title>LLE5022&#45;&gt;LLE5013</title>
<path fill="none" stroke="#80b1d3" stroke-width="2" d="M288.61,-387.5C288.61,-387.5 322.55,-387.5 322.55,-387.5"/>
<polygon fill="#80b1d3" stroke="#80b1d3" stroke-width="2" points="324.05,-385 324.05,-390 323.05,-390 323.05,-385 324.05,-385"/>
<polyline fill="none" stroke="#80b1d3" stroke-width="2" points="324.55,-387.5 322.05,-387.5"/>
</g>
<!-- LLE5022&#45;&gt;LLE5023 -->
<g id="edge16" class="edge">
<title>LLE5022&#45;&gt;LLE5023</title>
<path fill="none" stroke="#80b1d3" stroke-width="2" d="M288.67,-324.38C331.18,-324.38 381.8,-324.38 381.8,-324.38 381.8,-324.38 381.8,-314.16 381.8,-314.16"/>
<polygon fill="#80b1d3" stroke="#80b1d3" stroke-width="2" points="379.3,-312.66 384.3,-312.66 384.3,-313.66 379.3,-313.66 379.3,-312.66"/>
<polyline fill="none" stroke="#80b1d3" stroke-width="2" points="381.8,-312.16 381.8,-314.66"/>
</g>
<!-- CAD5103 -->
<g id="node19" class="node">
<title>CAD5103</title>
<g id="a_node19"><a xlink:title="Origem da administração como ciência. As funções administrativas: planejamento, organização, coordenação, comando e controle.">
<polygon fill="#8dd3c7" stroke="#8dd3c7" points="436.5,-521.75 326.75,-521.75 326.75,-466.25 436.5,-466.25 436.5,-521.75"/>
<text text-anchor="middle" x="381.62" y="-504.45" font-family="Arial" font-size="14.00">CAD5103</text>
<text text-anchor="middle" x="381.62" y="-472.7" font-family="Arial" font-size="14.00">Administração I</text>
</a>
</g>
</g>
<!-- LLV5122&#45;&gt;CAD5103 -->
<!-- LLV5122&#45;&gt;LLE5013 -->
<!-- LLV5122&#45;&gt;LLE5023 -->
<!-- LLV5214 -->
<g id="node22" class="node">
<title>LLV5214</title>
<g id="a_node22"><a xlink:title="Estudo e produção de documentos e correspondências oficiais e empresariais.">
<polygon fill="#fdb462" stroke="#fdb462" points="437.62,-190.62 325.62,-190.62 325.62,-119.38 437.62,-119.38 437.62,-190.62"/>
<text text-anchor="middle" x="381.62" y="-173.32" font-family="Arial" font-size="14.00">LLV5214</text>
<text text-anchor="middle" x="381.62" y="-141.57" font-family="Arial" font-size="14.00">Redação Oficial</text>
<text text-anchor="middle" x="381.62" y="-125.83" font-family="Arial" font-size="14.00">Empresarial</text>
</a>
</g>
</g>
<!-- LLV5122&#45;&gt;LLV5214 -->
<!-- PSI5205 -->
<g id="node30" class="node">
<title>PSI5205</title>
<g id="a_node30"><a xlink:title="Processos humanos nas organizações. Integração indivíduo X organização. Organização como contexto social. Poder nas organizações e administração de conflitos.">
<polygon fill="#ffffb3" stroke="#ffffb3" points="744.88,-432.62 638.12,-432.62 638.12,-361.38 744.88,-361.38 744.88,-432.62"/>
<text text-anchor="middle" x="691.5" y="-415.32" font-family="Arial" font-size="14.00">PSI5205</text>
<text text-anchor="middle" x="691.5" y="-383.57" font-family="Arial" font-size="14.00">Psicologia</text>
<text text-anchor="middle" x="691.5" y="-367.82" font-family="Arial" font-size="14.00">Organizacional</text>
</a>
</g>
</g>
<!-- CAD5103&#45;&gt;PSI5205 -->
<g id="edge26" class="edge">
<title>CAD5103&#45;&gt;PSI5205</title>
<path fill="none" stroke="#ffffb3" stroke-width="2" d="M436.72,-480.12C525.85,-480.12 691.8,-480.12 691.8,-480.12 691.8,-480.12 691.8,-435.23 691.8,-435.23"/>
<polygon fill="#ffffb3" stroke="#ffffb3" stroke-width="2" points="689.3,-433.73 694.3,-433.73 694.3,-434.73 689.3,-434.73 689.3,-433.73"/>
<polyline fill="none" stroke="#ffffb3" stroke-width="2" points="691.8,-433.23 691.8,-435.73"/>
</g>
<!-- CAD5135 -->
<g id="node31" class="node">
<title>CAD5135</title>
<g id="a_node31"><a xlink:title="Origem; Conceituação; Objetivos; Processos; Desenvolvimento e Perspectivas da Administração de Recursos Humanos; Formulação de Políticas e Estratégias de Recursos Humanos; Administração de Cargos e Salários e Remuneração Variável; Plano de Benefícios Sociais; Qualidade de Vida no Trabalho; Temas Emergentes.">
<polygon fill="#8dd3c7" stroke="#8dd3c7" points="891.05,-528.5 790.25,-528.5 790.25,-441.5 891.05,-441.5 891.05,-528.5"/>
<text text-anchor="middle" x="840.65" y="-511.2" font-family="Arial" font-size="14.00">CAD5135</text>
<text text-anchor="middle" x="840.65" y="-479.45" font-family="Arial" font-size="14.00">Gestão de</text>
<text text-anchor="middle" x="840.65" y="-463.7" font-family="Arial" font-size="14.00">Recursos</text>
<text text-anchor="middle" x="840.65" y="-447.95" font-family="Arial" font-size="14.00">Humanos</text>
</a>
</g>
</g>
<!-- CAD5103&#45;&gt;CAD5135 -->
<g id="edge27" class="edge">
<title>CAD5103&#45;&gt;CAD5135</title>
<path fill="none" stroke="#8dd3c7" stroke-width="2" d="M436.99,-507.88C436.99,-507.88 787.51,-507.88 787.51,-507.88"/>
<polygon fill="#8dd3c7" stroke="#8dd3c7" stroke-width="2" points="789.01,-505.38 789.01,-510.38 788.01,-510.38 788.01,-505.38 789.01,-505.38"/>
<polyline fill="none" stroke="#8dd3c7" stroke-width="2" points="789.51,-507.88 787.01,-507.88"/>
</g>
<!-- CAD5161 -->
<g id="node32" class="node">
<title>CAD5161</title>
<g id="a_node32"><a xlink:title="Problemas da organização. A organização. Níveis Administrativos. Estruturas Organizacionais. Gráficos de Processamento. Formulários. Layout Administrativo. Manuais de Organização.">
<polygon fill="#8dd3c7" stroke="#8dd3c7" points="891.05,-423.62 790.25,-423.62 790.25,-352.38 891.05,-352.38 891.05,-423.62"/>
<text text-anchor="middle" x="840.65" y="-406.32" font-family="Arial" font-size="14.00">CAD5161</text>
<text text-anchor="middle" x="840.65" y="-374.57" font-family="Arial" font-size="14.00">Técnicas</text>
<text text-anchor="middle" x="840.65" y="-358.82" font-family="Arial" font-size="14.00">Secretariais</text>
</a>
</g>
</g>
<!-- CAD5103&#45;&gt;CAD5161 -->
<g id="edge28" class="edge">
<title>CAD5103&#45;&gt;CAD5161</title>
<path fill="none" stroke="#8dd3c7" stroke-width="2" d="M436.79,-494C540.19,-494 752.8,-494 752.8,-494 752.8,-494 752.8,-411.18 752.8,-411.18 752.8,-411.18 787.3,-411.18 787.3,-411.18"/>
<polygon fill="#8dd3c7" stroke="#8dd3c7" stroke-width="2" points="788.8,-408.68 788.8,-413.68 787.8,-413.68 787.8,-408.68 788.8,-408.68"/>
<polyline fill="none" stroke="#8dd3c7" stroke-width="2" points="789.3,-411.18 786.8,-411.18"/>
</g>
<!-- CAD5140 -->
<g id="node35" class="node">
<title>CAD5140</title>
<g id="a_node35"><a xlink:title="Teoria Geral da Administração. Temas atuais: globalização, estruturas tradicionais e atuais, gestão da Qualidade Total, benchmarking, burocracia e desburocratização, reengenharia: contribuições e problemas, downsizing, organizações que aprendem, planejamento estratégico, fusões, Incorporações e alianças estratégicas no mercado global, terceirização, gestão do conhecimento, tecnologias, teletrabalho, educação a distância">
<polygon fill="#8dd3c7" stroke="#8dd3c7" points="1036.8,-524.62 927.05,-524.62 927.05,-453.38 1036.8,-453.38 1036.8,-524.62"/>
<text text-anchor="middle" x="981.92" y="-507.32" font-family="Arial" font-size="14.00">CAD5140</text>
<text text-anchor="middle" x="981.92" y="-475.57" font-family="Arial" font-size="14.00">Novos Modelos</text>
<text text-anchor="middle" x="981.92" y="-459.82" font-family="Arial" font-size="14.00">de Gestão</text>
</a>
</g>
</g>
<!-- CAD5103&#45;&gt;CAD5140 -->
<g id="edge32" class="edge">
<title>CAD5103&#45;&gt;CAD5140</title>
<path fill="none" stroke="#8dd3c7" stroke-width="2" d="M381.8,-522.01C381.8,-534.45 381.8,-546.33 381.8,-546.33 381.8,-546.33 982.8,-546.33 982.8,-546.33 982.8,-546.33 982.8,-527.48 982.8,-527.48"/>
<polygon fill="#8dd3c7" stroke="#8dd3c7" stroke-width="2" points="980.3,-525.98 985.3,-525.98 985.3,-526.98 980.3,-526.98 980.3,-525.98"/>
<polyline fill="none" stroke="#8dd3c7" stroke-width="2" points="982.8,-525.48 982.8,-527.98"/>
</g>
<!-- LLE5041 -->
<g id="node25" class="node">
<title>LLE5041</title>
<polygon fill="#80b1d3" stroke="#80b1d3" points="584.15,-289.62 483.35,-289.62 483.35,-218.38 584.15,-218.38 584.15,-289.62"/>
<text text-anchor="middle" x="533.75" y="-272.32" font-family="Arial" font-size="14.00">LLE5041</text>
<text text-anchor="middle" x="533.75" y="-240.57" font-family="Arial" font-size="14.00">Inglês para</text>
<text text-anchor="middle" x="533.75" y="-224.82" font-family="Arial" font-size="14.00">Negócios I</text>
</g>
<!-- LLE5013&#45;&gt;LLE5041 -->
<g id="edge18" class="edge">
<title>LLE5013&#45;&gt;LLE5041</title>
<path fill="none" stroke="#80b1d3" stroke-width="2" d="M438.32,-351.33C451.01,-351.33 460.8,-351.33 460.8,-351.33 460.8,-351.33 460.8,-271.81 460.8,-271.81 460.8,-271.81 480.58,-271.81 480.58,-271.81"/>
<polygon fill="#80b1d3" stroke="#80b1d3" stroke-width="2" points="482.08,-269.31 482.08,-274.31 481.08,-274.31 481.08,-269.31 482.08,-269.31"/>
<polyline fill="none" stroke="#80b1d3" stroke-width="2" points="482.58,-271.81 480.08,-271.81"/>
</g>
<!-- LLE5046 -->
<g id="node26" class="node">
<title>LLE5046</title>
<polygon fill="#80b1d3" stroke="#80b1d3" points="584.15,-394.5 483.35,-394.5 483.35,-307.5 584.15,-307.5 584.15,-394.5"/>
<text text-anchor="middle" x="533.75" y="-377.2" font-family="Arial" font-size="14.00">LLE5046</text>
<text text-anchor="middle" x="533.75" y="-345.45" font-family="Arial" font-size="14.00">Escrita</text>
<text text-anchor="middle" x="533.75" y="-329.7" font-family="Arial" font-size="14.00">Comercial em</text>
<text text-anchor="middle" x="533.75" y="-313.95" font-family="Arial" font-size="14.00">Inglês I</text>
</g>
<!-- LLE5013&#45;&gt;LLE5046 -->
<g id="edge20" class="edge">
<title>LLE5013&#45;&gt;LLE5046</title>
<path fill="none" stroke="#80b1d3" stroke-width="2" d="M438.27,-372.92C438.27,-372.92 480.57,-372.92 480.57,-372.92"/>
<polygon fill="#80b1d3" stroke="#80b1d3" stroke-width="2" points="482.07,-370.42 482.07,-375.42 481.07,-375.42 481.07,-370.42 482.07,-370.42"/>
<polyline fill="none" stroke="#80b1d3" stroke-width="2" points="482.57,-372.92 480.07,-372.92"/>
</g>
<!-- LLE5155 -->
<g id="node41" class="node">
<title>LLE5155</title>
<g id="a_node41"><a xlink:title="Introdução ao estudo da literatura em língua inglesa, focalizando os vários gêneros &#45; ficção, poesia e drama &#45; e desenvolvendo a leitura crítica e analítica dos aspectos formais e temáticos de textos selecionados.">
<polygon fill="#80b1d3" stroke="#80b1d3" points="1174.33,-532.5 1073.52,-532.5 1073.52,-445.5 1174.33,-445.5 1174.33,-532.5"/>
<text text-anchor="middle" x="1123.92" y="-515.2" font-family="Arial" font-size="14.00">LLE5155</text>
<text text-anchor="middle" x="1123.92" y="-483.45" font-family="Arial" font-size="14.00">Literatura de</text>
<text text-anchor="middle" x="1123.92" y="-467.7" font-family="Arial" font-size="14.00">Expressão</text>
<text text-anchor="middle" x="1123.92" y="-451.95" font-family="Arial" font-size="14.00">Inglesa</text>
</a>
</g>
</g>
<!-- LLE5013&#45;&gt;LLE5155 -->
<g id="edge37" class="edge">
<title>LLE5013&#45;&gt;LLE5155</title>
<path fill="none" stroke="#80b1d3" stroke-width="2" d="M438.28,-413.56C443.45,-413.56 446.8,-413.56 446.8,-413.56 446.8,-413.56 446.8,-539.42 446.8,-539.42 446.8,-539.42 1124.8,-539.42 1124.8,-539.42 1124.8,-539.42 1124.8,-535.33 1124.8,-535.33"/>
<polygon fill="#80b1d3" stroke="#80b1d3" stroke-width="2" points="1122.3,-533.83 1127.3,-533.83 1127.3,-534.83 1122.3,-534.83 1122.3,-533.83"/>
<polyline fill="none" stroke="#80b1d3" stroke-width="2" points="1124.8,-533.33 1124.8,-535.83"/>
</g>
<!-- LLE5023&#45;&gt;LLE5041 -->
<g id="edge19" class="edge">
<title>LLE5023&#45;&gt;LLE5041</title>
<path fill="none" stroke="#80b1d3" stroke-width="2" d="M439.14,-254C439.14,-254 480.64,-254 480.64,-254"/>
<polygon fill="#80b1d3" stroke="#80b1d3" stroke-width="2" points="482.14,-251.5 482.14,-256.5 481.14,-256.5 481.14,-251.5 482.14,-251.5"/>
<polyline fill="none" stroke="#80b1d3" stroke-width="2" points="482.64,-254 480.14,-254"/>
</g>
<!-- LLE5023&#45;&gt;LLE5046 -->
<g id="edge21" class="edge">
<title>LLE5023&#45;&gt;LLE5046</title>
<path fill="none" stroke="#80b1d3" stroke-width="2" d="M439.16,-298.56C482.25,-298.56 533.8,-298.56 533.8,-298.56 533.8,-298.56 533.8,-304.72 533.8,-304.72"/>
<polygon fill="#80b1d3" stroke="#80b1d3" stroke-width="2" points="536.3,-306.22 531.3,-306.22 531.3,-305.22 536.3,-305.22 536.3,-306.22"/>
<polyline fill="none" stroke="#80b1d3" stroke-width="2" points="533.8,-306.72 533.8,-304.22"/>
</g>
<!-- LLV5214&#45;&gt;CIN5427 -->
<!-- FIL5160 -->
<g id="node24" class="node">
<title>FIL5160</title>
<polygon fill="#80b1d3" stroke="#80b1d3" points="592.75,-200.62 474.75,-200.62 474.75,-129.38 592.75,-129.38 592.75,-200.62"/>
<text text-anchor="middle" x="533.75" y="-183.32" font-family="Arial" font-size="14.00">FIL5160</text>
<text text-anchor="middle" x="533.75" y="-151.57" font-family="Arial" font-size="14.00">Fundamentos de</text>
<text text-anchor="middle" x="533.75" y="-135.82" font-family="Arial" font-size="14.00">Ética</text>
</g>
<!-- LLV5214&#45;&gt;FIL5160 -->
<!-- LLV5214&#45;&gt;LLE5041 -->
<!-- LLV5214&#45;&gt;LLE5046 -->
<!-- LLE5042 -->
<g id="node28" class="node">
<title>LLE5042</title>
<polygon fill="#80b1d3" stroke="#80b1d3" points="741.9,-238.62 641.1,-238.62 641.1,-167.38 741.9,-167.38 741.9,-238.62"/>
<text text-anchor="middle" x="691.5" y="-221.32" font-family="Arial" font-size="14.00">LLE5042</text>
<text text-anchor="middle" x="691.5" y="-189.57" font-family="Arial" font-size="14.00">Inglês para</text>
<text text-anchor="middle" x="691.5" y="-173.82" font-family="Arial" font-size="14.00">Negócios II</text>
</g>
<!-- LLE5041&#45;&gt;LLE5042 -->
<g id="edge22" class="edge">
<title>LLE5041&#45;&gt;LLE5042</title>
<path fill="none" stroke="#80b1d3" stroke-width="2" d="M584.53,-223.44C584.53,-223.44 638.31,-223.44 638.31,-223.44"/>
<polygon fill="#80b1d3" stroke="#80b1d3" stroke-width="2" points="639.81,-220.94 639.81,-225.94 638.81,-225.94 638.81,-220.94 639.81,-220.94"/>
<polyline fill="none" stroke="#80b1d3" stroke-width="2" points="640.31,-223.44 637.81,-223.44"/>
</g>
<!-- LLE5047 -->
<g id="node29" class="node">
<title>LLE5047</title>
<polygon fill="#80b1d3" stroke="#80b1d3" points="741.9,-343.5 641.1,-343.5 641.1,-256.5 741.9,-256.5 741.9,-343.5"/>
<text text-anchor="middle" x="691.5" y="-326.2" font-family="Arial" font-size="14.00">LLE5047</text>
<text text-anchor="middle" x="691.5" y="-294.45" font-family="Arial" font-size="14.00">Escrita</text>
<text text-anchor="middle" x="691.5" y="-278.7" font-family="Arial" font-size="14.00">Comercial em</text>
<text text-anchor="middle" x="691.5" y="-262.95" font-family="Arial" font-size="14.00">Inglês II</text>
</g>
<!-- LLE5041&#45;&gt;LLE5047 -->
<g id="edge24" class="edge">
<title>LLE5041&#45;&gt;LLE5047</title>
<path fill="none" stroke="#80b1d3" stroke-width="2" d="M584.53,-273.06C584.53,-273.06 638.31,-273.06 638.31,-273.06"/>
<polygon fill="#80b1d3" stroke="#80b1d3" stroke-width="2" points="639.81,-270.56 639.81,-275.56 638.81,-275.56 638.81,-270.56 639.81,-270.56"/>
<polyline fill="none" stroke="#80b1d3" stroke-width="2" points="640.31,-273.06 637.81,-273.06"/>
</g>
<!-- HST5210 -->
<g id="node27" class="node">
<title>HST5210</title>
<g id="a_node27"><a xlink:title="A análise histórica, política, econômica, social e cultural da América Latina.">
<polygon fill="#fdb462" stroke="#fdb462" points="754.25,-149.25 628.75,-149.25 628.75,-30.75 754.25,-30.75 754.25,-149.25"/>
<text text-anchor="middle" x="691.5" y="-131.95" font-family="Arial" font-size="14.00">HST5210</text>
<text text-anchor="middle" x="691.5" y="-100.2" font-family="Arial" font-size="14.00">História</text>
<text text-anchor="middle" x="691.5" y="-84.45" font-family="Arial" font-size="14.00">Sócio&#45;Econômica,</text>
<text text-anchor="middle" x="691.5" y="-68.7" font-family="Arial" font-size="14.00">Política e</text>
<text text-anchor="middle" x="691.5" y="-52.95" font-family="Arial" font-size="14.00">Cultural da</text>
<text text-anchor="middle" x="691.5" y="-37.2" font-family="Arial" font-size="14.00">América Latina</text>
</a>
</g>
</g>
<!-- LLE5046&#45;&gt;HST5210 -->
<!-- LLE5046&#45;&gt;LLE5042 -->
<g id="edge23" class="edge">
<title>LLE5046&#45;&gt;LLE5042</title>
<path fill="none" stroke="#80b1d3" stroke-width="2" d="M584.36,-314.7C609.18,-314.7 633.8,-314.7 633.8,-314.7 633.8,-314.7 633.8,-228.5 633.8,-228.5 633.8,-228.5 638.38,-228.5 638.38,-228.5"/>
<polygon fill="#80b1d3" stroke="#80b1d3" stroke-width="2" points="639.88,-226 639.88,-231 638.88,-231 638.88,-226 639.88,-226"/>
<polyline fill="none" stroke="#80b1d3" stroke-width="2" points="640.38,-228.5 637.88,-228.5"/>
</g>
<!-- LLE5046&#45;&gt;LLE5042 -->
<!-- LLE5046&#45;&gt;LLE5047 -->
<g id="edge25" class="edge">
<title>LLE5046&#45;&gt;LLE5047</title>
<path fill="none" stroke="#80b1d3" stroke-width="2" d="M584.53,-329.1C584.53,-329.1 638.31,-329.1 638.31,-329.1"/>
<polygon fill="#80b1d3" stroke="#80b1d3" stroke-width="2" points="639.81,-326.6 639.81,-331.6 638.81,-331.6 638.81,-326.6 639.81,-326.6"/>
<polyline fill="none" stroke="#80b1d3" stroke-width="2" points="640.31,-329.1 637.81,-329.1"/>
</g>
<!-- LLE5046&#45;&gt;LLE5047 -->
<!-- LLE5046&#45;&gt;PSI5205 -->
<!-- LLE5160 -->
<g id="node34" class="node">
<title>LLE5160</title>
<g id="a_node34"><a xlink:title="Introdução aos conceitos básicos relativos à teoria e à prática da tradução, com ênfase na noção de função/objetivos da tradução como princípio organizador do texto traduzido.">
<polygon fill="#80b1d3" stroke="#80b1d3" points="891.05,-334.5 790.25,-334.5 790.25,-247.5 891.05,-247.5 891.05,-334.5"/>
<text text-anchor="middle" x="840.65" y="-317.2" font-family="Arial" font-size="14.00">LLE5160</text>
<text text-anchor="middle" x="840.65" y="-285.45" font-family="Arial" font-size="14.00">Introdução a</text>
<text text-anchor="middle" x="840.65" y="-269.7" font-family="Arial" font-size="14.00">Tradução do</text>
<text text-anchor="middle" x="840.65" y="-253.95" font-family="Arial" font-size="14.00">Inglês</text>
</a>
</g>
</g>
<!-- LLE5046&#45;&gt;LLE5160 -->
<g id="edge31" class="edge">
<title>LLE5046&#45;&gt;LLE5160</title>
<path fill="none" stroke="#80b1d3" stroke-width="2" d="M584.44,-358.38C648.02,-358.38 748.8,-358.38 748.8,-358.38 748.8,-358.38 748.8,-295.5 748.8,-295.5 748.8,-295.5 787.39,-295.5 787.39,-295.5"/>
<polygon fill="#80b1d3" stroke="#80b1d3" stroke-width="2" points="788.89,-293 788.89,-298 787.89,-298 787.89,-293 788.89,-293"/>
<polyline fill="none" stroke="#80b1d3" stroke-width="2" points="789.39,-295.5 786.89,-295.5"/>
</g>
<!-- CNM5224 -->
<g id="node39" class="node">
<title>CNM5224</title>
<g id="a_node39"><a xlink:title="Teoria e Políticas de Comércio Exterior, Globalização e Integração Econômica; Integração Latino&#45;Americana e Mercosul; Técnicas e Procedimentos em Comércio Exterior; Mercado de Câmbio, Balanço de Pagamentos; Financiamento das Exportações e Importações.">
<polygon fill="#fb8072" stroke="#fb8072" points="1174.33,-338.5 1073.52,-338.5 1073.52,-251.5 1174.33,-251.5 1174.33,-338.5"/>
<text text-anchor="middle" x="1123.92" y="-321.2" font-family="Arial" font-size="14.00">CNM5224</text>
<text text-anchor="middle" x="1123.92" y="-289.45" font-family="Arial" font-size="14.00">Introdução ao</text>
<text text-anchor="middle" x="1123.92" y="-273.7" font-family="Arial" font-size="14.00">Comércio</text>
<text text-anchor="middle" x="1123.92" y="-257.95" font-family="Arial" font-size="14.00">Exterior</text>
</a>
</g>
</g>
<!-- HST5210&#45;&gt;CNM5224 -->
<g id="edge36" class="edge">
<title>HST5210&#45;&gt;CNM5224</title>
<path fill="none" stroke="#fb8072" stroke-width="2" d="M754.51,-84.56C874.68,-84.56 1124.8,-84.56 1124.8,-84.56 1124.8,-84.56 1124.8,-248.64 1124.8,-248.64"/>
<polygon fill="#fb8072" stroke="#fb8072" stroke-width="2" points="1127.3,-250.14 1122.3,-250.14 1122.3,-249.14 1127.3,-249.14 1127.3,-250.14"/>
<polyline fill="none" stroke="#fb8072" stroke-width="2" points="1124.8,-250.64 1124.8,-248.14"/>
</g>
<!-- LLE5043 -->
<g id="node33" class="node">
<title>LLE5043</title>
<polygon fill="#80b1d3" stroke="#80b1d3" points="891.05,-229.62 790.25,-229.62 790.25,-158.38 891.05,-158.38 891.05,-229.62"/>
<text text-anchor="middle" x="840.65" y="-212.32" font-family="Arial" font-size="14.00">LLE5043</text>
<text text-anchor="middle" x="840.65" y="-180.57" font-family="Arial" font-size="14.00">Inglês para</text>
<text text-anchor="middle" x="840.65" y="-164.82" font-family="Arial" font-size="14.00">Negócios III</text>
</g>
<!-- LLE5042&#45;&gt;LLE5043 -->
<g id="edge29" class="edge">
<title>LLE5042&#45;&gt;LLE5043</title>
<path fill="none" stroke="#80b1d3" stroke-width="2" d="M742,-182.94C742,-182.94 787.45,-182.94 787.45,-182.94"/>
<polygon fill="#80b1d3" stroke="#80b1d3" stroke-width="2" points="788.95,-180.44 788.95,-185.44 787.95,-185.44 787.95,-180.44 788.95,-180.44"/>
<polyline fill="none" stroke="#80b1d3" stroke-width="2" points="789.45,-182.94 786.95,-182.94"/>
</g>
<!-- LLE5047&#45;&gt;LLE5043 -->
<g id="edge30" class="edge">
<title>LLE5047&#45;&gt;LLE5043</title>
<path fill="none" stroke="#80b1d3" stroke-width="2" d="M742.09,-276C745.01,-276 746.8,-276 746.8,-276 746.8,-276 746.8,-198.5 746.8,-198.5 746.8,-198.5 787.38,-198.5 787.38,-198.5"/>
<polygon fill="#80b1d3" stroke="#80b1d3" stroke-width="2" points="788.88,-196 788.88,-201 787.88,-201 787.88,-196 788.88,-196"/>
<polyline fill="none" stroke="#80b1d3" stroke-width="2" points="789.38,-198.5 786.88,-198.5"/>
</g>
<!-- PSI5205&#45;&gt;CAD5135 -->
<!-- PSI5205&#45;&gt;CAD5161 -->
<!-- PSI5205&#45;&gt;LLE5043 -->
<!-- PSI5205&#45;&gt;LLE5160 -->
<!-- LLE5015 -->
<g id="node36" class="node">
<title>LLE5015</title>
<g id="a_node36"><a xlink:title="Introdução à compreensão e produção escrita de textos acadêmicos em língua inglesa, a nível avançado.">
<polygon fill="#80b1d3" stroke="#80b1d3" points="1035.3,-330.38 928.55,-330.38 928.55,-227.62 1035.3,-227.62 1035.3,-330.38"/>
<text text-anchor="middle" x="981.92" y="-313.07" font-family="Arial" font-size="14.00">LLE5015</text>
<text text-anchor="middle" x="981.92" y="-281.32" font-family="Arial" font-size="14.00">Redação</text>
<text text-anchor="middle" x="981.92" y="-265.57" font-family="Arial" font-size="14.00">Acadêmica em</text>
<text text-anchor="middle" x="981.92" y="-249.82" font-family="Arial" font-size="14.00">Língua Inglesa</text>
<text text-anchor="middle" x="981.92" y="-234.07" font-family="Arial" font-size="14.00">V</text>
</a>
</g>
</g>
<!-- LLE5043&#45;&gt;LLE5015 -->
<g id="edge33" class="edge">
<title>LLE5043&#45;&gt;LLE5015</title>
<path fill="none" stroke="#80b1d3" stroke-width="2" d="M840.8,-229.83C840.8,-232.47 840.8,-234.12 840.8,-234.12 840.8,-234.12 925.67,-234.12 925.67,-234.12"/>
<polygon fill="#80b1d3" stroke="#80b1d3" stroke-width="2" points="927.17,-231.63 927.17,-236.63 926.17,-236.63 926.17,-231.63 927.17,-231.63"/>
<polyline fill="none" stroke="#80b1d3" stroke-width="2" points="927.67,-234.13 925.17,-234.13"/>
</g>
<!-- LLE5044 -->
<g id="node37" class="node">
<title>LLE5044</title>
<polygon fill="#80b1d3" stroke="#80b1d3" points="1032.33,-209.62 931.52,-209.62 931.52,-138.38 1032.33,-138.38 1032.33,-209.62"/>
<text text-anchor="middle" x="981.92" y="-192.32" font-family="Arial" font-size="14.00">LLE5044</text>
<text text-anchor="middle" x="981.92" y="-160.57" font-family="Arial" font-size="14.00">Inglês para</text>
<text text-anchor="middle" x="981.92" y="-144.82" font-family="Arial" font-size="14.00">Negócios IV</text>
</g>
<!-- LLE5043&#45;&gt;LLE5044 -->
<g id="edge34" class="edge">
<title>LLE5043&#45;&gt;LLE5044</title>
<path fill="none" stroke="#80b1d3" stroke-width="2" d="M891.25,-175.46C891.25,-175.46 928.7,-175.46 928.7,-175.46"/>
<polygon fill="#80b1d3" stroke="#80b1d3" stroke-width="2" points="930.2,-172.96 930.2,-177.96 929.2,-177.96 929.2,-172.96 930.2,-172.96"/>
<polyline fill="none" stroke="#80b1d3" stroke-width="2" points="930.7,-175.46 928.2,-175.46"/>
</g>
<!-- LLE5160&#45;&gt;CAD5140 -->
<!-- LLE5160&#45;&gt;LLE5015 -->
<!-- LLE5160&#45;&gt;LLE5044 -->
<!-- LLE5166 -->
<g id="node38" class="node">
<title>LLE5166</title>
<g id="a_node38"><a xlink:title="Prática de tradução de textos autênticos de diferentes gêneros/registros/tipos textuais informada por conceitos teóricos relevantes. Exploração da noção de gênero no treinamento de tradutores, visando uma consciência retórica ligada a cada tipo textual.">
<polygon fill="#80b1d3" stroke="#80b1d3" points="1032.33,-435.5 931.52,-435.5 931.52,-348.5 1032.33,-348.5 1032.33,-435.5"/>
<text text-anchor="middle" x="981.92" y="-418.2" font-family="Arial" font-size="14.00">LLE5166</text>
<text text-anchor="middle" x="981.92" y="-386.45" font-family="Arial" font-size="14.00">Tradução e</text>
<text text-anchor="middle" x="981.92" y="-370.7" font-family="Arial" font-size="14.00">Versão do</text>
<text text-anchor="middle" x="981.92" y="-354.95" font-family="Arial" font-size="14.00">Inglês I</text>
</a>
</g>
</g>
<!-- LLE5160&#45;&gt;LLE5166 -->
<g id="edge35" class="edge">
<title>LLE5160&#45;&gt;LLE5166</title>
<path fill="none" stroke="#80b1d3" stroke-width="2" d="M891.54,-288.94C903.48,-288.94 912.8,-288.94 912.8,-288.94 912.8,-288.94 912.8,-399.88 912.8,-399.88 912.8,-399.88 928.82,-399.88 928.82,-399.88"/>
<polygon fill="#80b1d3" stroke="#80b1d3" stroke-width="2" points="930.32,-397.38 930.32,-402.38 929.32,-402.38 929.32,-397.38 930.32,-397.38"/>
<polyline fill="none" stroke="#80b1d3" stroke-width="2" points="930.82,-399.88 928.32,-399.88"/>
</g>
<!-- LLE5160&#45;&gt;LLE5166 -->
<!-- LLE5166&#45;&gt;CNM5224 -->
<!-- DIR5951 -->
<g id="node40" class="node">
<title>DIR5951</title>
<polygon fill="#8dd3c7" stroke="#8dd3c7" points="1175.05,-427.62 1072.8,-427.62 1072.8,-356.38 1175.05,-356.38 1175.05,-427.62"/>
<text text-anchor="middle" x="1123.92" y="-410.32" font-family="Arial" font-size="14.00">DIR5951</text>
<text text-anchor="middle" x="1123.92" y="-378.57" font-family="Arial" font-size="14.00">Instituições de</text>
<text text-anchor="middle" x="1123.92" y="-362.82" font-family="Arial" font-size="14.00">Direito</text>
</g>
<!-- LLE5166&#45;&gt;DIR5951 -->
<!-- LLE5166&#45;&gt;LLE5155 -->
<!-- LLE5194 -->
<g id="node42" class="node">
<title>LLE5194</title>
<polygon fill="#80b1d3" stroke="#80b1d3" points="1332.8,-524.62 1211.05,-524.62 1211.05,-453.38 1332.8,-453.38 1332.8,-524.62"/>
<text text-anchor="middle" x="1271.92" y="-507.32" font-family="Arial" font-size="14.00">LLE5194</text>
<text text-anchor="middle" x="1271.92" y="-475.57" font-family="Arial" font-size="14.00">Estágio</text>
<text text-anchor="middle" x="1271.92" y="-459.82" font-family="Arial" font-size="14.00">Profissionalizante</text>
</g>
<!-- LLE5155&#45;&gt;LLE5194 -->
</g>
</svg>
