<?xml version="1.0" encoding="UTF-8" standalone="no"?>
<!DOCTYPE svg PUBLIC "-//W3C//DTD SVG 1.1//EN"
 "http://www.w3.org/Graphics/SVG/1.1/DTD/svg11.dtd">
<!-- Generated by graphviz version 9.0.0 (0)
 -->
<!-- Title: grafo_materias Pages: 1 -->
<svg width="1220pt" height="643pt"
 viewBox="0.00 0.00 1219.85 643.00" xmlns="http://www.w3.org/2000/svg" xmlns:xlink="http://www.w3.org/1999/xlink">
<g id="graph0" class="graph" transform="scale(1 1) rotate(0) translate(4 639)">
<title>grafo_materias</title>
<polygon fill="none" stroke="none" points="-4,4 -4,-639 1215.85,-639 1215.85,4 -4,4"/>
<g id="clust1" class="cluster">
<title>cluster_everything</title>
<polygon fill="none" stroke="none" points="8,-8 8,-627 1203.85,-627 1203.85,-8 8,-8"/>
</g>
<g id="clust2" class="cluster">
<title>cluster_header</title>
<polygon fill="none" stroke="none" points="26.47,-567 26.47,-619 1195.85,-619 1195.85,-567 26.47,-567"/>
</g>
<g id="clust3" class="cluster">
<title>cluster_0</title>
<polygon fill="none" stroke="none" points="16,-115 16,-559 153.75,-559 153.75,-115 16,-115"/>
</g>
<g id="clust4" class="cluster">
<title>cluster_1</title>
<polygon fill="none" stroke="none" points="173.75,-28 173.75,-545 304.75,-545 304.75,-28 173.75,-28"/>
</g>
<g id="clust5" class="cluster">
<title>cluster_2</title>
<polygon fill="none" stroke="none" points="324.75,-39 324.75,-483 462.5,-483 462.5,-39 324.75,-39"/>
</g>
<g id="clust6" class="cluster">
<title>cluster_3</title>
<polygon fill="none" stroke="none" points="482.5,-16 482.5,-355 599.3,-355 599.3,-16 482.5,-16"/>
</g>
<g id="clust7" class="cluster">
<title>cluster_4</title>
<polygon fill="none" stroke="none" points="619.3,-16 619.3,-355 750.3,-355 750.3,-16 619.3,-16"/>
</g>
<g id="clust8" class="cluster">
<title>cluster_5</title>
<polygon fill="none" stroke="none" points="770.3,-144 770.3,-410 901.3,-410 901.3,-144 770.3,-144"/>
</g>
<g id="clust9" class="cluster">
<title>cluster_6</title>
<polygon fill="none" stroke="none" points="921.3,-241 921.3,-434 1059.05,-434 1059.05,-241 921.3,-241"/>
</g>
<g id="clust10" class="cluster">
<title>cluster_7</title>
<polygon fill="none" stroke="none" points="1079.05,-281 1079.05,-385 1195.85,-385 1195.85,-281 1079.05,-281"/>
</g>
<!-- 1ª Fase -->
<g id="node1" class="node">
<title>1ª Fase</title>
<polygon fill="lightgrey" stroke="black" points="135.28,-611 34.48,-611 34.48,-575 135.28,-575 135.28,-611"/>
<text text-anchor="middle" x="84.88" y="-587.58" font-family="Arial" font-size="14.00">1ª Fase</text>
</g>
<!-- 2ª Fase -->
<g id="node2" class="node">
<title>2ª Fase</title>
<polygon fill="lightgrey" stroke="black" points="289.65,-611 188.85,-611 188.85,-575 289.65,-575 289.65,-611"/>
<text text-anchor="middle" x="239.25" y="-587.58" font-family="Arial" font-size="14.00">2ª Fase</text>
</g>
<!-- 1ª Fase&#45;&gt;2ª Fase -->
<!-- 3ª Fase -->
<g id="node3" class="node">
<title>3ª Fase</title>
<polygon fill="lightgrey" stroke="black" points="444.02,-611 343.23,-611 343.23,-575 444.02,-575 444.02,-611"/>
<text text-anchor="middle" x="393.62" y="-587.58" font-family="Arial" font-size="14.00">3ª Fase</text>
</g>
<!-- 2ª Fase&#45;&gt;3ª Fase -->
<!-- 4ª Fase -->
<g id="node4" class="node">
<title>4ª Fase</title>
<polygon fill="lightgrey" stroke="black" points="591.3,-611 490.5,-611 490.5,-575 591.3,-575 591.3,-611"/>
<text text-anchor="middle" x="540.9" y="-587.58" font-family="Arial" font-size="14.00">4ª Fase</text>
</g>
<!-- 3ª Fase&#45;&gt;4ª Fase -->
<!-- 5ª Fase -->
<g id="node5" class="node">
<title>5ª Fase</title>
<polygon fill="lightgrey" stroke="black" points="735.2,-611 634.4,-611 634.4,-575 735.2,-575 735.2,-611"/>
<text text-anchor="middle" x="684.8" y="-587.58" font-family="Arial" font-size="14.00">5ª Fase</text>
</g>
<!-- 4ª Fase&#45;&gt;5ª Fase -->
<!-- 6ª Fase -->
<g id="node6" class="node">
<title>6ª Fase</title>
<polygon fill="lightgrey" stroke="black" points="886.2,-611 785.4,-611 785.4,-575 886.2,-575 886.2,-611"/>
<text text-anchor="middle" x="835.8" y="-587.58" font-family="Arial" font-size="14.00">6ª Fase</text>
</g>
<!-- 5ª Fase&#45;&gt;6ª Fase -->
<!-- 7ª Fase -->
<g id="node7" class="node">
<title>7ª Fase</title>
<polygon fill="lightgrey" stroke="black" points="1040.58,-611 939.77,-611 939.77,-575 1040.58,-575 1040.58,-611"/>
<text text-anchor="middle" x="990.17" y="-587.58" font-family="Arial" font-size="14.00">7ª Fase</text>
</g>
<!-- 6ª Fase&#45;&gt;7ª Fase -->
<!-- 8ª Fase -->
<g id="node8" class="node">
<title>8ª Fase</title>
<polygon fill="lightgrey" stroke="black" points="1187.85,-611 1087.05,-611 1087.05,-575 1187.85,-575 1187.85,-611"/>
<text text-anchor="middle" x="1137.45" y="-587.58" font-family="Arial" font-size="14.00">8ª Fase</text>
</g>
<!-- 7ª Fase&#45;&gt;8ª Fase -->
<!-- ART5111 -->
<g id="node9" class="node">
<title>ART5111</title>
<g id="a_node9"><a xlink:title="&#45;A fotografia como elemento fundador da imagem cinematográfica. Panorama histórico e crítico do desenvolvimento da fotografia e seus desdobramentos artísticos.">
<polygon fill="#8dd3c7" stroke="#8dd3c7" points="135.28,-356.75 34.48,-356.75 34.48,-301.25 135.28,-301.25 135.28,-356.75"/>
<text text-anchor="middle" x="84.88" y="-339.45" font-family="Arial" font-size="14.00">ART5111</text>
<text text-anchor="middle" x="84.88" y="-307.7" font-family="Arial" font-size="14.00">Fotografia</text>
</a>
</g>
</g>
<!-- ART5211 -->
<g id="node14" class="node">
<title>ART5211</title>
<g id="a_node14"><a xlink:title="A montagem como princípio técnico e estético da linguagem e narrativa cinematográficas. Panorama histórico, com perspectiva teórica e prática dos princípios, estilos e técnicas de montagem da imagem e do som no cinema e no audiovisual.">
<polygon fill="#8dd3c7" stroke="#8dd3c7" points="296.75,-536.62 181.75,-536.62 181.75,-465.38 296.75,-465.38 296.75,-536.62"/>
<text text-anchor="middle" x="239.25" y="-519.33" font-family="Arial" font-size="14.00">ART5211</text>
<text text-anchor="middle" x="239.25" y="-487.57" font-family="Arial" font-size="14.00">Montagem</text>
<text text-anchor="middle" x="239.25" y="-471.82" font-family="Arial" font-size="14.00">Cinematográfica</text>
</a>
</g>
</g>
<!-- ART5111&#45;&gt;ART5211 -->
<!-- ART5212 -->
<g id="node15" class="node">
<title>ART5212</title>
<g id="a_node15"><a xlink:title="A imagem cinematográfica como matéria prima da composição fílmica. Possibilidades de construção criativa através das intersecções estéticas e técnicas.">
<polygon fill="#8dd3c7" stroke="#8dd3c7" points="296.75,-447.62 181.75,-447.62 181.75,-376.38 296.75,-376.38 296.75,-447.62"/>
<text text-anchor="middle" x="239.25" y="-430.32" font-family="Arial" font-size="14.00">ART5212</text>
<text text-anchor="middle" x="239.25" y="-398.57" font-family="Arial" font-size="14.00">Fotografia</text>
<text text-anchor="middle" x="239.25" y="-382.82" font-family="Arial" font-size="14.00">Cinematográfica</text>
</a>
</g>
</g>
<!-- ART5111&#45;&gt;ART5212 -->
<g id="edge9" class="edge">
<title>ART5111&#45;&gt;ART5212</title>
<path fill="none" stroke="#8dd3c7" stroke-width="2" d="M135.74,-343.38C160.44,-343.38 184.85,-343.38 184.85,-343.38 184.85,-343.38 184.85,-373.58 184.85,-373.58"/>
<polygon fill="#8dd3c7" stroke="#8dd3c7" stroke-width="2" points="187.35,-375.08 182.35,-375.08 182.35,-374.08 187.35,-374.08 187.35,-375.08"/>
<polyline fill="none" stroke="#8dd3c7" stroke-width="2" points="184.85,-375.58 184.85,-373.08"/>
</g>
<!-- ART5111&#45;&gt;ART5212 -->
<!-- ART5213 -->
<g id="node16" class="node">
<title>ART5213</title>
<g id="a_node16"><a xlink:title="Aspectos técnicos da captação e reprodução de som no cinema. Propriedades físicas do som. Fisiologia da escuta. Som analógico e digital. Microfones. Síntese e edição de sons.">
<polygon fill="#8dd3c7" stroke="#8dd3c7" points="289.65,-358.75 188.85,-358.75 188.85,-303.25 289.65,-303.25 289.65,-358.75"/>
<text text-anchor="middle" x="239.25" y="-341.45" font-family="Arial" font-size="14.00">ART5213</text>
<text text-anchor="middle" x="239.25" y="-309.7" font-family="Arial" font-size="14.00">Som I</text>
</a>
</g>
</g>
<!-- ART5111&#45;&gt;ART5213 -->
<!-- ART5215 -->
<g id="node17" class="node">
<title>ART5215</title>
<g id="a_node17"><a xlink:title="História do cinema no Brasil: os primórdios, os ciclos regionais até 1930, a chanchada e o cinema paulistano até os 1950, o Cinema Novo, o cinema marginal, o ciclo Embrafilme.">
<polygon fill="#8dd3c7" stroke="#8dd3c7" points="289.65,-196.62 188.85,-196.62 188.85,-125.38 289.65,-125.38 289.65,-196.62"/>
<text text-anchor="middle" x="239.25" y="-179.32" font-family="Arial" font-size="14.00">ART5215</text>
<text text-anchor="middle" x="239.25" y="-147.57" font-family="Arial" font-size="14.00">Cinema</text>
<text text-anchor="middle" x="239.25" y="-131.82" font-family="Arial" font-size="14.00">Brasileiro I</text>
</a>
</g>
</g>
<!-- ART5111&#45;&gt;ART5215 -->
<!-- ART5216 -->
<g id="node18" class="node">
<title>ART5216</title>
<g id="a_node18"><a xlink:title="Introdução à escrita criativa. Caracterização dos gêneros literários. Análise de elementos ficcionais. Estúdio de criação.">
<polygon fill="#8dd3c7" stroke="#8dd3c7" points="289.65,-107.62 188.85,-107.62 188.85,-36.38 289.65,-36.38 289.65,-107.62"/>
<text text-anchor="middle" x="239.25" y="-90.33" font-family="Arial" font-size="14.00">ART5216</text>
<text text-anchor="middle" x="239.25" y="-58.58" font-family="Arial" font-size="14.00">Escrita</text>
<text text-anchor="middle" x="239.25" y="-42.83" font-family="Arial" font-size="14.00">Criativa</text>
</a>
</g>
</g>
<!-- ART5111&#45;&gt;ART5216 -->
<!-- HST5342 -->
<g id="node19" class="node">
<title>HST5342</title>
<g id="a_node19"><a xlink:title="O neo&#45;realismo italiano; a nouvelle vague; a tendência mundial de renovação do cinema nos anos 60. O cinema frente à televisão: novas tecnologias; o surgimento do filme evento. Situação do cinema contemporâneo; a afirmação de novas cinematografias.">
<polygon fill="#80b1d3" stroke="#80b1d3" points="289.65,-285.62 188.85,-285.62 188.85,-214.38 289.65,-214.38 289.65,-285.62"/>
<text text-anchor="middle" x="239.25" y="-268.32" font-family="Arial" font-size="14.00">HST5342</text>
<text text-anchor="middle" x="239.25" y="-236.57" font-family="Arial" font-size="14.00">História do</text>
<text text-anchor="middle" x="239.25" y="-220.82" font-family="Arial" font-size="14.00">Cinema II</text>
</a>
</g>
</g>
<!-- ART5111&#45;&gt;HST5342 -->
<!-- ART5112 -->
<g id="node10" class="node">
<title>ART5112</title>
<g id="a_node10"><a xlink:title="Teoria da Literatura como instrumento avaliativo da ficção. Estudo de mito e narrativa. Reflexões sobre os objetos da crítica literária. Leitura e análise de obras literárias. Estudos de literatura e sua relação com outras artes.">
<polygon fill="#8dd3c7" stroke="#8dd3c7" points="135.28,-445.62 34.48,-445.62 34.48,-374.38 135.28,-374.38 135.28,-445.62"/>
<text text-anchor="middle" x="84.88" y="-428.32" font-family="Arial" font-size="14.00">ART5112</text>
<text text-anchor="middle" x="84.88" y="-396.57" font-family="Arial" font-size="14.00">Teoria da</text>
<text text-anchor="middle" x="84.88" y="-380.82" font-family="Arial" font-size="14.00">Literatura</text>
</a>
</g>
</g>
<!-- ART5113 -->
<g id="node11" class="node">
<title>ART5113</title>
<g id="a_node11"><a xlink:title="Revisão crítica da historiografia tradicional da Arte. Vanguardas: principais movimentos artísticos dos séculos XX e XXI. Estética e filosofia. Estética e teorias críticas. Arte e tecnologias. Arte moderna e contemporânea no Brasil.">
<polygon fill="#8dd3c7" stroke="#8dd3c7" points="135.28,-194.62 34.48,-194.62 34.48,-123.38 135.28,-123.38 135.28,-194.62"/>
<text text-anchor="middle" x="84.88" y="-177.32" font-family="Arial" font-size="14.00">ART5113</text>
<text text-anchor="middle" x="84.88" y="-145.57" font-family="Arial" font-size="14.00">Universos da</text>
<text text-anchor="middle" x="84.88" y="-129.82" font-family="Arial" font-size="14.00">Arte I</text>
</a>
</g>
</g>
<!-- ART5413 -->
<g id="node27" class="node">
<title>ART5413</title>
<g id="a_node27"><a xlink:title="Ontologia da arte. Leitura crítica de elementos do cânone das artes visuais. Regimes artísticos. Declínio da arte.">
<polygon fill="#8dd3c7" stroke="#8dd3c7" points="591.3,-95.62 490.5,-95.62 490.5,-24.38 591.3,-24.38 591.3,-95.62"/>
<text text-anchor="middle" x="540.9" y="-78.33" font-family="Arial" font-size="14.00">ART5413</text>
<text text-anchor="middle" x="540.9" y="-46.58" font-family="Arial" font-size="14.00">Universos da</text>
<text text-anchor="middle" x="540.9" y="-30.82" font-family="Arial" font-size="14.00">Arte II</text>
</a>
</g>
</g>
<!-- ART5113&#45;&gt;ART5413 -->
<g id="edge16" class="edge">
<title>ART5113&#45;&gt;ART5413</title>
<path fill="none" stroke="#8dd3c7" stroke-width="2" d="M85.85,-123.17C85.85,-85.11 85.85,-30.38 85.85,-30.38 85.85,-30.38 487.52,-30.38 487.52,-30.38"/>
<polygon fill="#8dd3c7" stroke="#8dd3c7" stroke-width="2" points="489.02,-27.88 489.02,-32.88 488.02,-32.88 488.02,-27.88 489.02,-27.88"/>
<polyline fill="none" stroke="#8dd3c7" stroke-width="2" points="489.52,-30.38 487.02,-30.38"/>
</g>
<!-- ART5114 -->
<g id="node12" class="node">
<title>ART5114</title>
<g id="a_node12"><a xlink:title="Os elementos constitutivos da expressão cinematográfica e suas diversas manifestações ao longo do tempo. Iniciação à realização fílmica.">
<polygon fill="#8dd3c7" stroke="#8dd3c7" points="145.75,-550.5 24,-550.5 24,-463.5 145.75,-463.5 145.75,-550.5"/>
<text text-anchor="middle" x="84.88" y="-533.2" font-family="Arial" font-size="14.00">ART5114</text>
<text text-anchor="middle" x="84.88" y="-501.45" font-family="Arial" font-size="14.00">Expressões</text>
<text text-anchor="middle" x="84.88" y="-485.7" font-family="Arial" font-size="14.00">Cinematográficas</text>
<text text-anchor="middle" x="84.88" y="-469.95" font-family="Arial" font-size="14.00">I</text>
</a>
</g>
</g>
<!-- ART5114&#45;&gt;ART5211 -->
<g id="edge8" class="edge">
<title>ART5114&#45;&gt;ART5211</title>
<path fill="none" stroke="#8dd3c7" stroke-width="2" d="M145.89,-512.88C145.89,-512.88 178.95,-512.88 178.95,-512.88"/>
<polygon fill="#8dd3c7" stroke="#8dd3c7" stroke-width="2" points="180.45,-510.38 180.45,-515.38 179.45,-515.38 179.45,-510.38 180.45,-510.38"/>
<polyline fill="none" stroke="#8dd3c7" stroke-width="2" points="180.95,-512.88 178.45,-512.88"/>
</g>
<!-- ART5712 -->
<g id="node37" class="node">
<title>ART5712</title>
<g id="a_node37"><a xlink:title="As possibilidades dentro da realização cinematográfica no ato de sua criação.">
<polygon fill="#8dd3c7" stroke="#8dd3c7" points="1051.05,-425.5 929.3,-425.5 929.3,-338.5 1051.05,-338.5 1051.05,-425.5"/>
<text text-anchor="middle" x="990.17" y="-408.2" font-family="Arial" font-size="14.00">ART5712</text>
<text text-anchor="middle" x="990.17" y="-376.45" font-family="Arial" font-size="14.00">Expressões</text>
<text text-anchor="middle" x="990.17" y="-360.7" font-family="Arial" font-size="14.00">Cinematográficas</text>
<text text-anchor="middle" x="990.17" y="-344.95" font-family="Arial" font-size="14.00">II</text>
</a>
</g>
</g>
<!-- ART5114&#45;&gt;ART5712 -->
<g id="edge34" class="edge">
<title>ART5114&#45;&gt;ART5712</title>
<path fill="none" stroke="#8dd3c7" stroke-width="2" d="M146,-543.56C340.89,-543.56 934.85,-543.56 934.85,-543.56 934.85,-543.56 934.85,-428.22 934.85,-428.22"/>
<polygon fill="#8dd3c7" stroke="#8dd3c7" stroke-width="2" points="932.35,-426.72 937.35,-426.72 937.35,-427.72 932.35,-427.72 932.35,-426.72"/>
<polyline fill="none" stroke="#8dd3c7" stroke-width="2" points="934.85,-426.22 934.85,-428.72"/>
</g>
<!-- HST5341 -->
<g id="node13" class="node">
<title>HST5341</title>
<g id="a_node13"><a xlink:title="Os primórdios do cinema. O estabelecimento do cinema como técnica, indústria e forma artística. O cinema do período mudo; suas escolas estilísticas. As vanguardas cinematográficas na Europa. O cinema norte&#45;americano e o cinema latino&#45;americano no período anterior à Segunda Guerra Mundial.">
<polygon fill="#80b1d3" stroke="#80b1d3" points="135.28,-283.62 34.48,-283.62 34.48,-212.38 135.28,-212.38 135.28,-283.62"/>
<text text-anchor="middle" x="84.88" y="-266.32" font-family="Arial" font-size="14.00">HST5341</text>
<text text-anchor="middle" x="84.88" y="-234.57" font-family="Arial" font-size="14.00">História do</text>
<text text-anchor="middle" x="84.88" y="-218.82" font-family="Arial" font-size="14.00">Cinema I</text>
</a>
</g>
</g>
<!-- HST5341&#45;&gt;HST5342 -->
<g id="edge10" class="edge">
<title>HST5341&#45;&gt;HST5342</title>
<path fill="none" stroke="#80b1d3" stroke-width="2" d="M135.42,-237.46C135.42,-237.46 186.09,-237.46 186.09,-237.46"/>
<polygon fill="#80b1d3" stroke="#80b1d3" stroke-width="2" points="187.59,-234.96 187.59,-239.96 186.59,-239.96 186.59,-234.96 187.59,-234.96"/>
<polyline fill="none" stroke="#80b1d3" stroke-width="2" points="188.09,-237.46 185.59,-237.46"/>
</g>
<!-- ART5311 -->
<g id="node20" class="node">
<title>ART5311</title>
<g id="a_node20"><a xlink:title="A montagem como princípio técnico e estético. O processo da montagem e as tecnologias do audiovisual. A montagem na ficção e no documentário. A montagem e as possibilidades no processo de finalização: efeitos visuais e edição/mixagem de som. A montagem para diferentes formatos e plataformas audiovisuais.">
<polygon fill="#8dd3c7" stroke="#8dd3c7" points="451.12,-474.5 336.12,-474.5 336.12,-387.5 451.12,-387.5 451.12,-474.5"/>
<text text-anchor="middle" x="393.62" y="-457.2" font-family="Arial" font-size="14.00">ART5311</text>
<text text-anchor="middle" x="393.62" y="-425.45" font-family="Arial" font-size="14.00">Montagem</text>
<text text-anchor="middle" x="393.62" y="-409.7" font-family="Arial" font-size="14.00">Cinematográfica</text>
<text text-anchor="middle" x="393.62" y="-393.95" font-family="Arial" font-size="14.00">II</text>
</a>
</g>
</g>
<!-- ART5211&#45;&gt;ART5311 -->
<g id="edge11" class="edge">
<title>ART5211&#45;&gt;ART5311</title>
<path fill="none" stroke="#8dd3c7" stroke-width="2" d="M297.17,-469.94C297.17,-469.94 333.13,-469.94 333.13,-469.94"/>
<polygon fill="#8dd3c7" stroke="#8dd3c7" stroke-width="2" points="334.63,-467.44 334.63,-472.44 333.63,-472.44 333.63,-467.44 334.63,-467.44"/>
<polyline fill="none" stroke="#8dd3c7" stroke-width="2" points="335.13,-469.94 332.63,-469.94"/>
</g>
<!-- ART5711 -->
<g id="node36" class="node">
<title>ART5711</title>
<g id="a_node36"><a xlink:title="Elaboração de projetos de pesquisa científica na área das Artes. Estruturação de um projeto para ser executado na disciplina TCC &#45; Trabalho de Conclusão de Curso.">
<polygon fill="#8dd3c7" stroke="#8dd3c7" points="1040.58,-320.62 939.77,-320.62 939.77,-249.38 1040.58,-249.38 1040.58,-320.62"/>
<text text-anchor="middle" x="990.17" y="-303.32" font-family="Arial" font-size="14.00">ART5711</text>
<text text-anchor="middle" x="990.17" y="-271.57" font-family="Arial" font-size="14.00">Técnicas de</text>
<text text-anchor="middle" x="990.17" y="-255.82" font-family="Arial" font-size="14.00">Projetos</text>
</a>
</g>
</g>
<!-- ART5212&#45;&gt;ART5711 -->
<g id="edge26" class="edge">
<title>ART5212&#45;&gt;ART5711</title>
<path fill="none" stroke="#8dd3c7" stroke-width="2" d="M296.83,-381.94C430.36,-381.94 749.85,-381.94 749.85,-381.94 749.85,-381.94 749.85,-254.1 749.85,-254.1 749.85,-254.1 937,-254.1 937,-254.1"/>
<polygon fill="#8dd3c7" stroke="#8dd3c7" stroke-width="2" points="938.5,-251.6 938.5,-256.6 937.5,-256.6 937.5,-251.6 938.5,-251.6"/>
<polyline fill="none" stroke="#8dd3c7" stroke-width="2" points="939,-254.1 936.5,-254.1"/>
</g>
<!-- ART5313 -->
<g id="node22" class="node">
<title>ART5313</title>
<g id="a_node22"><a xlink:title="A representação do som no cinema. A sincronização som/imagem. Elementos da trilha sonora: voz, ruídos, música. As principais correntes de pensamento acerca do som no audiovisual e nas artes em geral. Sound Studies. Sound Art. Novas mídias. Glitch.">
<polygon fill="#8dd3c7" stroke="#8dd3c7" points="444.02,-369.75 343.23,-369.75 343.23,-314.25 444.02,-314.25 444.02,-369.75"/>
<text text-anchor="middle" x="393.62" y="-352.45" font-family="Arial" font-size="14.00">ART5313</text>
<text text-anchor="middle" x="393.62" y="-320.7" font-family="Arial" font-size="14.00">Som II</text>
</a>
</g>
</g>
<!-- ART5213&#45;&gt;ART5313 -->
<g id="edge12" class="edge">
<title>ART5213&#45;&gt;ART5313</title>
<path fill="none" stroke="#8dd3c7" stroke-width="2" d="M289.8,-343.92C289.8,-343.92 340.46,-343.92 340.46,-343.92"/>
<polygon fill="#8dd3c7" stroke="#8dd3c7" stroke-width="2" points="341.96,-341.42 341.96,-346.42 340.96,-346.42 340.96,-341.42 341.96,-341.42"/>
<polyline fill="none" stroke="#8dd3c7" stroke-width="2" points="342.46,-343.92 339.96,-343.92"/>
</g>
<!-- ART5315 -->
<g id="node24" class="node">
<title>ART5315</title>
<g id="a_node24"><a xlink:title="Aspectos do cinema brasileiro contemporâneo.">
<polygon fill="#8dd3c7" stroke="#8dd3c7" points="444.02,-207.62 343.23,-207.62 343.23,-136.38 444.02,-136.38 444.02,-207.62"/>
<text text-anchor="middle" x="393.62" y="-190.32" font-family="Arial" font-size="14.00">ART5315</text>
<text text-anchor="middle" x="393.62" y="-158.57" font-family="Arial" font-size="14.00">Cinema</text>
<text text-anchor="middle" x="393.62" y="-142.82" font-family="Arial" font-size="14.00">Brasileiro II</text>
</a>
</g>
</g>
<!-- ART5215&#45;&gt;ART5315 -->
<g id="edge14" class="edge">
<title>ART5215&#45;&gt;ART5315</title>
<path fill="none" stroke="#8dd3c7" stroke-width="2" d="M289.8,-166.5C289.8,-166.5 340.46,-166.5 340.46,-166.5"/>
<polygon fill="#8dd3c7" stroke="#8dd3c7" stroke-width="2" points="341.96,-164 341.96,-169 340.96,-169 340.96,-164 341.96,-164"/>
<polyline fill="none" stroke="#8dd3c7" stroke-width="2" points="342.46,-166.5 339.96,-166.5"/>
</g>
<!-- ART5314 -->
<g id="node23" class="node">
<title>ART5314</title>
<g id="a_node23"><a xlink:title="Estudo de perspectivas críticas e criativas sobre os gêneros audiovisuais. Investigação teórica da morfologia e da ontologia das narrativas de gênero. Análise da dinâmica dos gêneros cinematográficos em diferentes cinematografias. Estúdio de criação.">
<polygon fill="#8dd3c7" stroke="#8dd3c7" points="454.5,-118.62 332.75,-118.62 332.75,-47.38 454.5,-47.38 454.5,-118.62"/>
<text text-anchor="middle" x="393.62" y="-101.33" font-family="Arial" font-size="14.00">ART5314</text>
<text text-anchor="middle" x="393.62" y="-69.58" font-family="Arial" font-size="14.00">Gêneros</text>
<text text-anchor="middle" x="393.62" y="-53.83" font-family="Arial" font-size="14.00">Cinematográficos</text>
</a>
</g>
</g>
<!-- ART5216&#45;&gt;ART5314 -->
<g id="edge13" class="edge">
<title>ART5216&#45;&gt;ART5314</title>
<path fill="none" stroke="#8dd3c7" stroke-width="2" d="M289.8,-77.5C289.8,-77.5 329.96,-77.5 329.96,-77.5"/>
<polygon fill="#8dd3c7" stroke="#8dd3c7" stroke-width="2" points="331.46,-75 331.46,-80 330.46,-80 330.46,-75 331.46,-75"/>
<polyline fill="none" stroke="#8dd3c7" stroke-width="2" points="331.96,-77.5 329.46,-77.5"/>
</g>
<!-- HST5342&#45;&gt;ART5311 -->
<!-- ART5312 -->
<g id="node21" class="node">
<title>ART5312</title>
<g id="a_node21"><a xlink:title="Entendimento do papel da equipe de produção nas etapas de préprodução, filmagem e pós&#45;produção de uma obra audiovisual. Organização operacional dessas etapas. Produção audiovisual e o meio&#45;ambiente">
<polygon fill="#8dd3c7" stroke="#8dd3c7" points="444.02,-296.62 343.23,-296.62 343.23,-225.38 444.02,-225.38 444.02,-296.62"/>
<text text-anchor="middle" x="393.62" y="-279.32" font-family="Arial" font-size="14.00">ART5312</text>
<text text-anchor="middle" x="393.62" y="-247.57" font-family="Arial" font-size="14.00">Direção de</text>
<text text-anchor="middle" x="393.62" y="-231.82" font-family="Arial" font-size="14.00">Produção</text>
</a>
</g>
</g>
<!-- HST5342&#45;&gt;ART5312 -->
<!-- HST5342&#45;&gt;ART5313 -->
<!-- HST5342&#45;&gt;ART5314 -->
<!-- HST5342&#45;&gt;ART5315 -->
<!-- ART5311&#45;&gt;ART5711 -->
<g id="edge30" class="edge">
<title>ART5311&#45;&gt;ART5711</title>
<path fill="none" stroke="#8dd3c7" stroke-width="2" d="M451.56,-413.56C586.79,-413.56 911.85,-413.56 911.85,-413.56 911.85,-413.56 911.85,-318.66 911.85,-318.66 911.85,-318.66 937.19,-318.66 937.19,-318.66"/>
<polygon fill="#8dd3c7" stroke="#8dd3c7" stroke-width="2" points="938.68,-316.16 938.69,-321.16 937.69,-321.16 937.68,-316.16 938.68,-316.16"/>
<polyline fill="none" stroke="#8dd3c7" stroke-width="2" points="939.19,-318.66 936.69,-318.66"/>
</g>
<!-- ART5612 -->
<g id="node34" class="node">
<title>ART5612</title>
<g id="a_node34"><a xlink:title="Capacitação dos alunos para os aspectos relativos à produção executiva de projetos audiovisuais.">
<polygon fill="#8dd3c7" stroke="#8dd3c7" points="886.2,-401.62 785.4,-401.62 785.4,-330.38 886.2,-330.38 886.2,-401.62"/>
<text text-anchor="middle" x="835.8" y="-384.32" font-family="Arial" font-size="14.00">ART5612</text>
<text text-anchor="middle" x="835.8" y="-352.57" font-family="Arial" font-size="14.00">Produção</text>
<text text-anchor="middle" x="835.8" y="-336.82" font-family="Arial" font-size="14.00">Executiva</text>
</a>
</g>
</g>
<!-- ART5312&#45;&gt;ART5612 -->
<g id="edge24" class="edge">
<title>ART5312&#45;&gt;ART5612</title>
<path fill="none" stroke="#8dd3c7" stroke-width="2" d="M444.46,-269.5C546.13,-269.5 764.85,-269.5 764.85,-269.5 764.85,-269.5 764.85,-341.21 764.85,-341.21 764.85,-341.21 782.49,-341.21 782.49,-341.21"/>
<polygon fill="#8dd3c7" stroke="#8dd3c7" stroke-width="2" points="783.99,-338.71 783.99,-343.71 782.99,-343.71 782.99,-338.71 783.99,-338.71"/>
<polyline fill="none" stroke="#8dd3c7" stroke-width="2" points="784.49,-341.21 781.99,-341.21"/>
</g>
<!-- ART5313&#45;&gt;ART5711 -->
<g id="edge27" class="edge">
<title>ART5313&#45;&gt;ART5711</title>
<path fill="none" stroke="#8dd3c7" stroke-width="2" d="M444.51,-358.19C544.48,-358.19 756.85,-358.19 756.85,-358.19 756.85,-358.19 756.85,-314.72 756.85,-314.72 756.85,-314.72 937.05,-314.72 937.05,-314.72"/>
<polygon fill="#8dd3c7" stroke="#8dd3c7" stroke-width="2" points="938.55,-312.22 938.55,-317.22 937.55,-317.22 937.55,-312.22 938.55,-312.22"/>
<polyline fill="none" stroke="#8dd3c7" stroke-width="2" points="939.05,-314.72 936.55,-314.72"/>
</g>
<!-- ART5414 -->
<g id="node28" class="node">
<title>ART5414</title>
<g id="a_node28"><a xlink:title="Roteiro de ficção. Etapas da roteirização ficcional (ideia, story line, argumento, escaleta e roteiro final). Elementos narrativos e seus usos: personagens, diálogos, descrições de cena, ações, ordenação dos fatos compositores da trama.">
<polygon fill="#8dd3c7" stroke="#8dd3c7" points="591.3,-168.75 490.5,-168.75 490.5,-113.25 591.3,-113.25 591.3,-168.75"/>
<text text-anchor="middle" x="540.9" y="-151.45" font-family="Arial" font-size="14.00">ART5414</text>
<text text-anchor="middle" x="540.9" y="-119.7" font-family="Arial" font-size="14.00">Roteirização I</text>
</a>
</g>
</g>
<!-- ART5314&#45;&gt;ART5414 -->
<g id="edge17" class="edge">
<title>ART5314&#45;&gt;ART5414</title>
<path fill="none" stroke="#8dd3c7" stroke-width="2" d="M447.85,-118.79C447.85,-125.72 447.85,-130.88 447.85,-130.88 447.85,-130.88 487.52,-130.88 487.52,-130.88"/>
<polygon fill="#8dd3c7" stroke="#8dd3c7" stroke-width="2" points="489.02,-128.38 489.02,-133.38 488.02,-133.38 488.02,-128.38 489.02,-128.38"/>
<polyline fill="none" stroke="#8dd3c7" stroke-width="2" points="489.52,-130.88 487.02,-130.88"/>
</g>
<!-- ART5411 -->
<g id="node25" class="node">
<title>ART5411</title>
<g id="a_node25"><a xlink:title="Natureza do documentário. História do cinema documentário. O projeto do documentário. Especificidade e captação da imagem e som no documentário. Aspectos éticos da filmagem.">
<polygon fill="#8dd3c7" stroke="#8dd3c7" points="591.3,-346.62 490.5,-346.62 490.5,-275.38 591.3,-275.38 591.3,-346.62"/>
<text text-anchor="middle" x="540.9" y="-329.32" font-family="Arial" font-size="14.00">ART5411</text>
<text text-anchor="middle" x="540.9" y="-297.57" font-family="Arial" font-size="14.00">Cinema</text>
<text text-anchor="middle" x="540.9" y="-281.82" font-family="Arial" font-size="14.00">Documentário</text>
</a>
</g>
</g>
<!-- ART5315&#45;&gt;ART5411 -->
<g id="edge15" class="edge">
<title>ART5315&#45;&gt;ART5411</title>
<path fill="none" stroke="#8dd3c7" stroke-width="2" d="M444.29,-202.31C455.36,-202.31 463.85,-202.31 463.85,-202.31 463.85,-202.31 463.85,-289.54 463.85,-289.54 463.85,-289.54 487.87,-289.54 487.87,-289.54"/>
<polygon fill="#8dd3c7" stroke="#8dd3c7" stroke-width="2" points="489.37,-287.04 489.37,-292.04 488.37,-292.04 488.37,-287.04 489.37,-287.04"/>
<polyline fill="none" stroke="#8dd3c7" stroke-width="2" points="489.87,-289.54 487.37,-289.54"/>
</g>
<!-- ART5315&#45;&gt;ART5411 -->
<!-- ART5412 -->
<g id="node26" class="node">
<title>ART5412</title>
<g id="a_node26"><a xlink:title="Primeiras teorias do cinema. A fenomenologia husserliana e o funcionalismo (Arnheim) como substituição da teorização pela normatização. Buscas por teorias estéticas heterodoxas a partir do cinema.">
<polygon fill="#8dd3c7" stroke="#8dd3c7" points="591.3,-257.62 490.5,-257.62 490.5,-186.38 591.3,-186.38 591.3,-257.62"/>
<text text-anchor="middle" x="540.9" y="-240.32" font-family="Arial" font-size="14.00">ART5412</text>
<text text-anchor="middle" x="540.9" y="-208.57" font-family="Arial" font-size="14.00">Teoria do</text>
<text text-anchor="middle" x="540.9" y="-192.82" font-family="Arial" font-size="14.00">Cinema I</text>
</a>
</g>
</g>
<!-- ART5315&#45;&gt;ART5412 -->
<!-- ART5315&#45;&gt;ART5413 -->
<!-- ART5315&#45;&gt;ART5414 -->
<!-- ART5512 -->
<g id="node30" class="node">
<title>ART5512</title>
<g id="a_node30"><a xlink:title="Teorias contemporâneas do cinema, teorias temporais da imagem. Anacronismo. A imagem como montagem. Politização da imagem. Desautonomização. Fantasmagorias. Imaginação.">
<polygon fill="#8dd3c7" stroke="#8dd3c7" points="735.2,-346.62 634.4,-346.62 634.4,-275.38 735.2,-275.38 735.2,-346.62"/>
<text text-anchor="middle" x="684.8" y="-329.32" font-family="Arial" font-size="14.00">ART5512</text>
<text text-anchor="middle" x="684.8" y="-297.57" font-family="Arial" font-size="14.00">Teoria do</text>
<text text-anchor="middle" x="684.8" y="-281.82" font-family="Arial" font-size="14.00">Cinema II</text>
</a>
</g>
</g>
<!-- ART5412&#45;&gt;ART5512 -->
<g id="edge19" class="edge">
<title>ART5412&#45;&gt;ART5512</title>
<path fill="none" stroke="#8dd3c7" stroke-width="2" d="M591.71,-243.78C598.87,-243.78 603.85,-243.78 603.85,-243.78 603.85,-243.78 603.85,-322.88 603.85,-322.88 603.85,-322.88 631.49,-322.88 631.49,-322.88"/>
<polygon fill="#8dd3c7" stroke="#8dd3c7" stroke-width="2" points="632.99,-320.38 632.99,-325.38 631.99,-325.38 631.99,-320.38 632.99,-320.38"/>
<polyline fill="none" stroke="#8dd3c7" stroke-width="2" points="633.49,-322.88 630.99,-322.88"/>
</g>
<!-- ART5513 -->
<g id="node31" class="node">
<title>ART5513</title>
<g id="a_node31"><a xlink:title="O cinema enquanto possibilidade de expressão para além dos paradigmas da indústria (feature film), do realismo e da narrativa.">
<polygon fill="#8dd3c7" stroke="#8dd3c7" points="735.2,-79.75 634.4,-79.75 634.4,-24.25 735.2,-24.25 735.2,-79.75"/>
<text text-anchor="middle" x="684.8" y="-62.45" font-family="Arial" font-size="14.00">ART5513</text>
<text text-anchor="middle" x="684.8" y="-30.7" font-family="Arial" font-size="14.00">Pós&#45;Cinemas</text>
</a>
</g>
</g>
<!-- ART5413&#45;&gt;ART5513 -->
<g id="edge20" class="edge">
<title>ART5413&#45;&gt;ART5513</title>
<path fill="none" stroke="#8dd3c7" stroke-width="2" d="M591.63,-42.83C591.63,-42.83 631.54,-42.83 631.54,-42.83"/>
<polygon fill="#8dd3c7" stroke="#8dd3c7" stroke-width="2" points="633.04,-40.33 633.04,-45.33 632.04,-45.33 632.04,-40.33 633.04,-40.33"/>
<polyline fill="none" stroke="#8dd3c7" stroke-width="2" points="633.54,-42.83 631.04,-42.83"/>
</g>
<!-- ART5511 -->
<g id="node29" class="node">
<title>ART5511</title>
<g id="a_node29"><a xlink:title="O filme narrativo/ficcional. Elaboração cênico/narrativa das informações cognitivas, afetivas e sensoriais presentes no filme através da decupagem. Técnicas de direção de elenco. Técnicas de decupagem. Práticas de direção.">
<polygon fill="#8dd3c7" stroke="#8dd3c7" points="742.3,-184.5 627.3,-184.5 627.3,-97.5 742.3,-97.5 742.3,-184.5"/>
<text text-anchor="middle" x="684.8" y="-167.2" font-family="Arial" font-size="14.00">ART5511</text>
<text text-anchor="middle" x="684.8" y="-135.45" font-family="Arial" font-size="14.00">Direção</text>
<text text-anchor="middle" x="684.8" y="-119.7" font-family="Arial" font-size="14.00">Cinematográfica</text>
<text text-anchor="middle" x="684.8" y="-103.95" font-family="Arial" font-size="14.00">I</text>
</a>
</g>
</g>
<!-- ART5414&#45;&gt;ART5511 -->
<g id="edge18" class="edge">
<title>ART5414&#45;&gt;ART5511</title>
<path fill="none" stroke="#8dd3c7" stroke-width="2" d="M591.63,-129.11C591.63,-129.11 624.66,-129.11 624.66,-129.11"/>
<polygon fill="#8dd3c7" stroke="#8dd3c7" stroke-width="2" points="626.16,-126.61 626.16,-131.61 625.16,-131.61 625.16,-126.61 626.16,-126.61"/>
<polyline fill="none" stroke="#8dd3c7" stroke-width="2" points="626.66,-129.11 624.16,-129.11"/>
</g>
<!-- ART5414&#45;&gt;ART5511 -->
<!-- ART5414&#45;&gt;ART5512 -->
<!-- ART5414&#45;&gt;ART5513 -->
<!-- ART5514 -->
<g id="node32" class="node">
<title>ART5514</title>
<g id="a_node32"><a xlink:title="Roteiros não ficcionais. Roteiros ficcionais fora do paradigma do cinema narrativo clássico: roteiro de documentário e roteiro de videoclipe.">
<polygon fill="#8dd3c7" stroke="#8dd3c7" points="735.92,-257.75 633.67,-257.75 633.67,-202.25 735.92,-202.25 735.92,-257.75"/>
<text text-anchor="middle" x="684.8" y="-240.45" font-family="Arial" font-size="14.00">ART5514</text>
<text text-anchor="middle" x="684.8" y="-208.7" font-family="Arial" font-size="14.00">Roteirização II</text>
</a>
</g>
</g>
<!-- ART5414&#45;&gt;ART5514 -->
<g id="edge21" class="edge">
<title>ART5414&#45;&gt;ART5514</title>
<path fill="none" stroke="#8dd3c7" stroke-width="2" d="M591.72,-152.89C605.09,-152.89 615.85,-152.89 615.85,-152.89 615.85,-152.89 615.85,-229.94 615.85,-229.94 615.85,-229.94 630.75,-229.94 630.75,-229.94"/>
<polygon fill="#8dd3c7" stroke="#8dd3c7" stroke-width="2" points="632.25,-227.44 632.25,-232.44 631.25,-232.44 631.25,-227.44 632.25,-227.44"/>
<polyline fill="none" stroke="#8dd3c7" stroke-width="2" points="632.75,-229.94 630.25,-229.94"/>
</g>
<!-- ART5414&#45;&gt;ART5514 -->
<!-- ART5611 -->
<g id="node33" class="node">
<title>ART5611</title>
<g id="a_node33"><a xlink:title="O cinema não narrativo ou não ficcional. Cinema experimental, videoarte, performance, videoclipe, documentários, documentários poéticos e híbridos em geral. Práticas de direção.">
<polygon fill="#8dd3c7" stroke="#8dd3c7" points="893.3,-239.5 778.3,-239.5 778.3,-152.5 893.3,-152.5 893.3,-239.5"/>
<text text-anchor="middle" x="835.8" y="-222.2" font-family="Arial" font-size="14.00">ART5611</text>
<text text-anchor="middle" x="835.8" y="-190.45" font-family="Arial" font-size="14.00">Direção</text>
<text text-anchor="middle" x="835.8" y="-174.7" font-family="Arial" font-size="14.00">Cinematográfica</text>
<text text-anchor="middle" x="835.8" y="-158.95" font-family="Arial" font-size="14.00">II</text>
</a>
</g>
</g>
<!-- ART5511&#45;&gt;ART5611 -->
<g id="edge22" class="edge">
<title>ART5511&#45;&gt;ART5611</title>
<path fill="none" stroke="#8dd3c7" stroke-width="2" d="M742.75,-168.5C742.75,-168.5 775.76,-168.5 775.76,-168.5"/>
<polygon fill="#8dd3c7" stroke="#8dd3c7" stroke-width="2" points="777.26,-166 777.26,-171 776.26,-171 776.26,-166 777.26,-166"/>
<polyline fill="none" stroke="#8dd3c7" stroke-width="2" points="777.76,-168.5 775.26,-168.5"/>
</g>
<!-- ART5613 -->
<g id="node35" class="node">
<title>ART5613</title>
<g id="a_node35"><a xlink:title="Discurso imagético e produção de sentido. Definição e análise dos principais elementos do texto fílmico e suas implicações semânticas, incluindo elementos como montagem, mise en scène, iluminação, estrutura narrativa.">
<polygon fill="#8dd3c7" stroke="#8dd3c7" points="889.92,-312.75 781.67,-312.75 781.67,-257.25 889.92,-257.25 889.92,-312.75"/>
<text text-anchor="middle" x="835.8" y="-295.45" font-family="Arial" font-size="14.00">ART5613</text>
<text text-anchor="middle" x="835.8" y="-263.7" font-family="Arial" font-size="14.00">Análise Fílmica</text>
</a>
</g>
</g>
<!-- ART5512&#45;&gt;ART5613 -->
<g id="edge25" class="edge">
<title>ART5512&#45;&gt;ART5613</title>
<path fill="none" stroke="#8dd3c7" stroke-width="2" d="M735.5,-294.06C735.5,-294.06 778.85,-294.06 778.85,-294.06"/>
<polygon fill="#8dd3c7" stroke="#8dd3c7" stroke-width="2" points="780.35,-291.56 780.35,-296.56 779.35,-296.56 779.35,-291.56 780.35,-291.56"/>
<polyline fill="none" stroke="#8dd3c7" stroke-width="2" points="780.85,-294.06 778.35,-294.06"/>
</g>
<!-- ART5513&#45;&gt;ART5711 -->
<g id="edge32" class="edge">
<title>ART5513&#45;&gt;ART5711</title>
<path fill="none" stroke="#8dd3c7" stroke-width="2" d="M735.68,-52C822.71,-52 990.85,-52 990.85,-52 990.85,-52 990.85,-246.6 990.85,-246.6"/>
<polygon fill="#8dd3c7" stroke="#8dd3c7" stroke-width="2" points="993.35,-248.1 988.35,-248.1 988.35,-247.1 993.35,-247.1 993.35,-248.1"/>
<polyline fill="none" stroke="#8dd3c7" stroke-width="2" points="990.85,-248.6 990.85,-246.1"/>
</g>
<!-- ART5514&#45;&gt;ART5611 -->
<g id="edge23" class="edge">
<title>ART5514&#45;&gt;ART5611</title>
<path fill="none" stroke="#8dd3c7" stroke-width="2" d="M736.34,-214.67C736.34,-214.67 775.51,-214.67 775.51,-214.67"/>
<polygon fill="#8dd3c7" stroke="#8dd3c7" stroke-width="2" points="777.01,-212.17 777.01,-217.17 776.01,-217.17 776.01,-212.17 777.01,-212.17"/>
<polyline fill="none" stroke="#8dd3c7" stroke-width="2" points="777.51,-214.67 775.01,-214.67"/>
</g>
<!-- ART5514&#45;&gt;ART5611 -->
<!-- ART5514&#45;&gt;ART5612 -->
<!-- ART5514&#45;&gt;ART5613 -->
<!-- ART5514&#45;&gt;ART5711 -->
<g id="edge31" class="edge">
<title>ART5514&#45;&gt;ART5711</title>
<path fill="none" stroke="#8dd3c7" stroke-width="2" d="M736.26,-252.53C736.26,-252.53 937.02,-252.53 937.02,-252.53"/>
<polygon fill="#8dd3c7" stroke="#8dd3c7" stroke-width="2" points="938.52,-250.03 938.52,-255.03 937.52,-255.03 937.52,-250.03 938.52,-250.03"/>
<polyline fill="none" stroke="#8dd3c7" stroke-width="2" points="939.02,-252.53 936.52,-252.53"/>
</g>
<!-- ART5611&#45;&gt;ART5711 -->
<g id="edge33" class="edge">
<title>ART5611&#45;&gt;ART5711</title>
<path fill="none" stroke="#8dd3c7" stroke-width="2" d="M835.85,-239.83C835.85,-246.36 835.85,-250.95 835.85,-250.95 835.85,-250.95 937.14,-250.95 937.14,-250.95"/>
<polygon fill="#8dd3c7" stroke="#8dd3c7" stroke-width="2" points="938.64,-248.45 938.64,-253.45 937.64,-253.45 937.64,-248.45 938.64,-248.45"/>
<polyline fill="none" stroke="#8dd3c7" stroke-width="2" points="939.14,-250.95 936.64,-250.95"/>
</g>
<!-- ART5612&#45;&gt;ART5711 -->
<g id="edge29" class="edge">
<title>ART5612&#45;&gt;ART5711</title>
<path fill="none" stroke="#8dd3c7" stroke-width="2" d="M835.85,-329.9C835.85,-322.38 835.85,-316.69 835.85,-316.69 835.85,-316.69 937.14,-316.69 937.14,-316.69"/>
<polygon fill="#8dd3c7" stroke="#8dd3c7" stroke-width="2" points="938.64,-314.19 938.64,-319.19 937.64,-319.19 937.64,-314.19 938.64,-314.19"/>
<polyline fill="none" stroke="#8dd3c7" stroke-width="2" points="939.14,-316.69 936.64,-316.69"/>
</g>
<!-- ART5613&#45;&gt;ART5711 -->
<g id="edge28" class="edge">
<title>ART5613&#45;&gt;ART5711</title>
<path fill="none" stroke="#8dd3c7" stroke-width="2" d="M890.23,-271.12C890.23,-271.12 936.84,-271.12 936.84,-271.12"/>
<polygon fill="#8dd3c7" stroke="#8dd3c7" stroke-width="2" points="938.34,-268.63 938.34,-273.63 937.34,-273.63 937.34,-268.63 938.34,-268.63"/>
<polyline fill="none" stroke="#8dd3c7" stroke-width="2" points="938.84,-271.13 936.34,-271.13"/>
</g>
<!-- ART5613&#45;&gt;ART5711 -->
<!-- ART5613&#45;&gt;ART5712 -->
<!-- ART5811 -->
<g id="node38" class="node">
<title>ART5811</title>
<g id="a_node38"><a xlink:title="Produção dos trabalhos de conclusão de curso.">
<polygon fill="#fb8072" stroke="#fb8072" points="1187.85,-376.5 1087.05,-376.5 1087.05,-289.5 1187.85,-289.5 1187.85,-376.5"/>
<text text-anchor="middle" x="1137.45" y="-359.2" font-family="Arial" font-size="14.00">ART5811</text>
<text text-anchor="middle" x="1137.45" y="-327.45" font-family="Arial" font-size="14.00">Trabalho de</text>
<text text-anchor="middle" x="1137.45" y="-311.7" font-family="Arial" font-size="14.00">Conclusão de</text>
<text text-anchor="middle" x="1137.45" y="-295.95" font-family="Arial" font-size="14.00">Curso</text>
</a>
</g>
</g>
<!-- ART5711&#45;&gt;ART5811 -->
<g id="edge35" class="edge">
<title>ART5711&#45;&gt;ART5811</title>
<path fill="none" stroke="#fb8072" stroke-width="2" d="M1040.86,-305.06C1040.86,-305.06 1084.17,-305.06 1084.17,-305.06"/>
<polygon fill="#fb8072" stroke="#fb8072" stroke-width="2" points="1085.67,-302.56 1085.67,-307.56 1084.67,-307.56 1084.67,-302.56 1085.67,-302.56"/>
<polyline fill="none" stroke="#fb8072" stroke-width="2" points="1086.17,-305.06 1083.67,-305.06"/>
</g>
<!-- ART5712&#45;&gt;ART5811 -->
</g>
</svg>
