<?xml version="1.0" encoding="UTF-8" standalone="no"?>
<!DOCTYPE svg PUBLIC "-//W3C//DTD SVG 1.1//EN"
 "http://www.w3.org/Graphics/SVG/1.1/DTD/svg11.dtd">
<!-- Generated by graphviz version 9.0.0 (0)
 -->
<!-- Title: grafo_materias Pages: 1 -->
<svg width="1308pt" height="638pt"
 viewBox="0.00 0.00 1307.85 638.00" xmlns="http://www.w3.org/2000/svg" xmlns:xlink="http://www.w3.org/1999/xlink">
<g id="graph0" class="graph" transform="scale(1 1) rotate(0) translate(4 634)">
<title>grafo_materias</title>
<polygon fill="none" stroke="none" points="-4,4 -4,-634 1303.85,-634 1303.85,4 -4,4"/>
<g id="clust1" class="cluster">
<title>cluster_everything</title>
<polygon fill="none" stroke="none" points="8,-8 8,-622 1291.85,-622 1291.85,-8 8,-8"/>
</g>
<g id="clust2" class="cluster">
<title>cluster_header</title>
<polygon fill="none" stroke="none" points="19.35,-562 19.35,-614 1283.85,-614 1283.85,-562 19.35,-562"/>
</g>
<g id="clust3" class="cluster">
<title>cluster_0</title>
<polygon fill="none" stroke="none" points="16,-79 16,-554 139.5,-554 139.5,-79 16,-79"/>
</g>
<g id="clust4" class="cluster">
<title>cluster_1</title>
<polygon fill="none" stroke="none" points="159.5,-152 159.5,-507 283.75,-507 283.75,-152 159.5,-152"/>
</g>
<g id="clust5" class="cluster">
<title>cluster_2</title>
<polygon fill="none" stroke="none" points="303.75,-16 303.75,-460 431.75,-460 431.75,-16 303.75,-16"/>
</g>
<g id="clust6" class="cluster">
<title>cluster_3</title>
<polygon fill="none" stroke="none" points="451.75,-80 451.75,-393 568.55,-393 568.55,-80 451.75,-80"/>
</g>
<g id="clust7" class="cluster">
<title>cluster_4</title>
<polygon fill="none" stroke="none" points="588.55,-58 588.55,-502 706.05,-502 706.05,-58 588.55,-58"/>
</g>
<g id="clust8" class="cluster">
<title>cluster_5</title>
<polygon fill="none" stroke="none" points="726.05,-58 726.05,-502 855.55,-502 855.55,-58 726.05,-58"/>
</g>
<g id="clust9" class="cluster">
<title>cluster_6</title>
<polygon fill="none" stroke="none" points="875.55,-66 875.55,-494 1000.55,-494 1000.55,-66 875.55,-66"/>
</g>
<g id="clust10" class="cluster">
<title>cluster_7</title>
<polygon fill="none" stroke="none" points="1020.55,-34 1020.55,-535 1147.05,-535 1147.05,-34 1020.55,-34"/>
</g>
<g id="clust11" class="cluster">
<title>cluster_8</title>
<polygon fill="none" stroke="none" points="1167.05,-188 1167.05,-381 1283.85,-381 1283.85,-188 1167.05,-188"/>
</g>
<!-- 1ª Fase -->
<g id="node1" class="node">
<title>1ª Fase</title>
<polygon fill="lightgrey" stroke="black" points="128.15,-606 27.35,-606 27.35,-570 128.15,-570 128.15,-606"/>
<text text-anchor="middle" x="77.75" y="-582.58" font-family="Arial" font-size="14.00">1ª Fase</text>
</g>
<!-- 2ª Fase -->
<g id="node2" class="node">
<title>2ª Fase</title>
<polygon fill="lightgrey" stroke="black" points="272.02,-606 171.22,-606 171.22,-570 272.02,-570 272.02,-606"/>
<text text-anchor="middle" x="221.62" y="-582.58" font-family="Arial" font-size="14.00">2ª Fase</text>
</g>
<!-- 1ª Fase&#45;&gt;2ª Fase -->
<!-- 3ª Fase -->
<g id="node3" class="node">
<title>3ª Fase</title>
<polygon fill="lightgrey" stroke="black" points="418.15,-606 317.35,-606 317.35,-570 418.15,-570 418.15,-606"/>
<text text-anchor="middle" x="367.75" y="-582.58" font-family="Arial" font-size="14.00">3ª Fase</text>
</g>
<!-- 2ª Fase&#45;&gt;3ª Fase -->
<!-- 4ª Fase -->
<g id="node4" class="node">
<title>4ª Fase</title>
<polygon fill="lightgrey" stroke="black" points="560.55,-606 459.75,-606 459.75,-570 560.55,-570 560.55,-606"/>
<text text-anchor="middle" x="510.15" y="-582.58" font-family="Arial" font-size="14.00">4ª Fase</text>
</g>
<!-- 3ª Fase&#45;&gt;4ª Fase -->
<!-- 5ª Fase -->
<g id="node5" class="node">
<title>5ª Fase</title>
<polygon fill="lightgrey" stroke="black" points="697.7,-606 596.9,-606 596.9,-570 697.7,-570 697.7,-606"/>
<text text-anchor="middle" x="647.3" y="-582.58" font-family="Arial" font-size="14.00">5ª Fase</text>
</g>
<!-- 4ª Fase&#45;&gt;5ª Fase -->
<!-- 6ª Fase -->
<g id="node6" class="node">
<title>6ª Fase</title>
<polygon fill="lightgrey" stroke="black" points="841.2,-606 740.4,-606 740.4,-570 841.2,-570 841.2,-606"/>
<text text-anchor="middle" x="790.8" y="-582.58" font-family="Arial" font-size="14.00">6ª Fase</text>
</g>
<!-- 5ª Fase&#45;&gt;6ª Fase -->
<!-- 7ª Fase -->
<g id="node7" class="node">
<title>7ª Fase</title>
<polygon fill="lightgrey" stroke="black" points="988.45,-606 887.65,-606 887.65,-570 988.45,-570 988.45,-606"/>
<text text-anchor="middle" x="938.05" y="-582.58" font-family="Arial" font-size="14.00">7ª Fase</text>
</g>
<!-- 6ª Fase&#45;&gt;7ª Fase -->
<!-- 8ª Fase -->
<g id="node8" class="node">
<title>8ª Fase</title>
<polygon fill="lightgrey" stroke="black" points="1134.2,-606 1033.4,-606 1033.4,-570 1134.2,-570 1134.2,-606"/>
<text text-anchor="middle" x="1083.8" y="-582.58" font-family="Arial" font-size="14.00">8ª Fase</text>
</g>
<!-- 7ª Fase&#45;&gt;8ª Fase -->
<!-- 9ª Fase -->
<g id="node9" class="node">
<title>9ª Fase</title>
<polygon fill="lightgrey" stroke="black" points="1275.85,-606 1175.05,-606 1175.05,-570 1275.85,-570 1275.85,-606"/>
<text text-anchor="middle" x="1225.45" y="-582.58" font-family="Arial" font-size="14.00">9ª Fase</text>
</g>
<!-- 8ª Fase&#45;&gt;9ª Fase -->
<!-- ART6111 -->
<g id="node10" class="node">
<title>ART6111</title>
<polygon fill="#8dd3c7" stroke="#8dd3c7" points="131.5,-247.62 24,-247.62 24,-176.38 131.5,-176.38 131.5,-247.62"/>
<text text-anchor="middle" x="77.75" y="-230.32" font-family="Arial" font-size="14.00">ART6111</text>
<text text-anchor="middle" x="77.75" y="-198.57" font-family="Arial" font-size="14.00">Teoria das</text>
<text text-anchor="middle" x="77.75" y="-182.82" font-family="Arial" font-size="14.00">Artes Cênicas I</text>
</g>
<!-- ART6211 -->
<g id="node15" class="node">
<title>ART6211</title>
<polygon fill="#8dd3c7" stroke="#8dd3c7" points="272.02,-336.5 171.22,-336.5 171.22,-249.5 272.02,-249.5 272.02,-336.5"/>
<text text-anchor="middle" x="221.62" y="-319.2" font-family="Arial" font-size="14.00">ART6211</text>
<text text-anchor="middle" x="221.62" y="-287.45" font-family="Arial" font-size="14.00">Teoria das</text>
<text text-anchor="middle" x="221.62" y="-271.7" font-family="Arial" font-size="14.00">Artes Cênicas</text>
<text text-anchor="middle" x="221.62" y="-255.95" font-family="Arial" font-size="14.00">II</text>
</g>
<!-- ART6111&#45;&gt;ART6211 -->
<g id="edge9" class="edge">
<title>ART6111&#45;&gt;ART6211</title>
<path fill="none" stroke="#8dd3c7" stroke-width="2" d="M131.65,-244.43C166.29,-244.43 204.85,-244.43 204.85,-244.43 204.85,-244.43 204.85,-246.76 204.85,-246.76"/>
<polygon fill="#8dd3c7" stroke="#8dd3c7" stroke-width="2" points="207.35,-248.26 202.35,-248.26 202.35,-247.26 207.35,-247.26 207.35,-248.26"/>
<polyline fill="none" stroke="#8dd3c7" stroke-width="2" points="204.85,-248.76 204.85,-246.26"/>
</g>
<!-- ART6111&#45;&gt;ART6211 -->
<!-- ART6212 -->
<g id="node16" class="node">
<title>ART6212</title>
<polygon fill="#8dd3c7" stroke="#8dd3c7" points="275.75,-498.75 167.5,-498.75 167.5,-443.25 275.75,-443.25 275.75,-498.75"/>
<text text-anchor="middle" x="221.62" y="-481.45" font-family="Arial" font-size="14.00">ART6212</text>
<text text-anchor="middle" x="221.62" y="-449.7" font-family="Arial" font-size="14.00">Improvisação II</text>
</g>
<!-- ART6111&#45;&gt;ART6212 -->
<!-- ART6213 -->
<g id="node17" class="node">
<title>ART6213</title>
<polygon fill="#8dd3c7" stroke="#8dd3c7" points="272.02,-425.62 171.22,-425.62 171.22,-354.38 272.02,-354.38 272.02,-425.62"/>
<text text-anchor="middle" x="221.62" y="-408.32" font-family="Arial" font-size="14.00">ART6213</text>
<text text-anchor="middle" x="221.62" y="-376.57" font-family="Arial" font-size="14.00">Consciência</text>
<text text-anchor="middle" x="221.62" y="-360.82" font-family="Arial" font-size="14.00">Vocal</text>
</g>
<!-- ART6111&#45;&gt;ART6213 -->
<!-- ART6216 -->
<g id="node18" class="node">
<title>ART6216</title>
<polygon fill="#8dd3c7" stroke="#8dd3c7" points="275,-231.62 168.25,-231.62 168.25,-160.38 275,-160.38 275,-231.62"/>
<text text-anchor="middle" x="221.62" y="-214.32" font-family="Arial" font-size="14.00">ART6216</text>
<text text-anchor="middle" x="221.62" y="-182.57" font-family="Arial" font-size="14.00">Espacialidades</text>
<text text-anchor="middle" x="221.62" y="-166.82" font-family="Arial" font-size="14.00">dos Corpos</text>
</g>
<!-- ART6111&#45;&gt;ART6216 -->
<!-- ART6112 -->
<g id="node11" class="node">
<title>ART6112</title>
<polygon fill="#8dd3c7" stroke="#8dd3c7" points="130,-425.75 25.5,-425.75 25.5,-370.25 130,-370.25 130,-425.75"/>
<text text-anchor="middle" x="77.75" y="-408.45" font-family="Arial" font-size="14.00">ART6112</text>
<text text-anchor="middle" x="77.75" y="-376.7" font-family="Arial" font-size="14.00">Improvisação I</text>
</g>
<!-- ART6112&#45;&gt;ART6212 -->
<g id="edge10" class="edge">
<title>ART6112&#45;&gt;ART6212</title>
<path fill="none" stroke="#8dd3c7" stroke-width="2" d="M130.47,-397.94C139.93,-397.94 146.85,-397.94 146.85,-397.94 146.85,-397.94 146.85,-484.97 146.85,-484.97 146.85,-484.97 164.78,-484.97 164.78,-484.97"/>
<polygon fill="#8dd3c7" stroke="#8dd3c7" stroke-width="2" points="166.28,-482.47 166.28,-487.47 165.28,-487.47 165.28,-482.47 166.28,-482.47"/>
<polyline fill="none" stroke="#8dd3c7" stroke-width="2" points="166.78,-484.97 164.28,-484.97"/>
</g>
<!-- ART6113 -->
<g id="node12" class="node">
<title>ART6113</title>
<polygon fill="#8dd3c7" stroke="#8dd3c7" points="128.15,-352.5 27.35,-352.5 27.35,-265.5 128.15,-265.5 128.15,-352.5"/>
<text text-anchor="middle" x="77.75" y="-335.2" font-family="Arial" font-size="14.00">ART6113</text>
<text text-anchor="middle" x="77.75" y="-303.45" font-family="Arial" font-size="14.00">Ética e</text>
<text text-anchor="middle" x="77.75" y="-287.7" font-family="Arial" font-size="14.00">Estética</text>
<text text-anchor="middle" x="77.75" y="-271.95" font-family="Arial" font-size="14.00">Teatral</text>
</g>
<!-- ART6115 -->
<g id="node13" class="node">
<title>ART6115</title>
<polygon fill="#8dd3c7" stroke="#8dd3c7" points="130.75,-546.38 24.75,-546.38 24.75,-443.62 130.75,-443.62 130.75,-546.38"/>
<text text-anchor="middle" x="77.75" y="-529.08" font-family="Arial" font-size="14.00">ART6115</text>
<text text-anchor="middle" x="77.75" y="-497.32" font-family="Arial" font-size="14.00">História da</text>
<text text-anchor="middle" x="77.75" y="-481.57" font-family="Arial" font-size="14.00">Arte, Estética</text>
<text text-anchor="middle" x="77.75" y="-465.82" font-family="Arial" font-size="14.00">e e Linguagem</text>
<text text-anchor="middle" x="77.75" y="-450.07" font-family="Arial" font-size="14.00">Visual</text>
</g>
<!-- ART6315 -->
<g id="node23" class="node">
<title>ART6315</title>
<polygon fill="#8dd3c7" stroke="#8dd3c7" points="418.15,-95.62 317.35,-95.62 317.35,-24.38 418.15,-24.38 418.15,-95.62"/>
<text text-anchor="middle" x="367.75" y="-78.33" font-family="Arial" font-size="14.00">ART6315</text>
<text text-anchor="middle" x="367.75" y="-46.58" font-family="Arial" font-size="14.00">Maquiagem</text>
<text text-anchor="middle" x="367.75" y="-30.82" font-family="Arial" font-size="14.00">Cênica</text>
</g>
<!-- ART6115&#45;&gt;ART6315 -->
<g id="edge14" class="edge">
<title>ART6115&#45;&gt;ART6315</title>
<path fill="none" stroke="#8dd3c7" stroke-width="2" d="M131.11,-457.41C135.82,-457.41 138.85,-457.41 138.85,-457.41 138.85,-457.41 138.85,-90.12 138.85,-90.12 138.85,-90.12 314.45,-90.12 314.45,-90.12"/>
<polygon fill="#8dd3c7" stroke="#8dd3c7" stroke-width="2" points="315.95,-87.63 315.95,-92.63 314.95,-92.63 314.95,-87.63 315.95,-87.63"/>
<polyline fill="none" stroke="#8dd3c7" stroke-width="2" points="316.45,-90.13 313.95,-90.13"/>
</g>
<!-- ART6511 -->
<g id="node27" class="node">
<title>ART6511</title>
<polygon fill="#8dd3c7" stroke="#8dd3c7" points="697.7,-404.62 596.9,-404.62 596.9,-333.38 697.7,-333.38 697.7,-404.62"/>
<text text-anchor="middle" x="647.3" y="-387.32" font-family="Arial" font-size="14.00">ART6511</text>
<text text-anchor="middle" x="647.3" y="-355.57" font-family="Arial" font-size="14.00">Escrita</text>
<text text-anchor="middle" x="647.3" y="-339.82" font-family="Arial" font-size="14.00">Dramática I</text>
</g>
<!-- ART6115&#45;&gt;ART6511 -->
<g id="edge18" class="edge">
<title>ART6115&#45;&gt;ART6511</title>
<path fill="none" stroke="#8dd3c7" stroke-width="2" d="M131.15,-508.04C230.07,-508.04 431.85,-508.04 431.85,-508.04 431.85,-508.04 431.85,-401.83 431.85,-401.83 431.85,-401.83 594.01,-401.83 594.01,-401.83"/>
<polygon fill="#8dd3c7" stroke="#8dd3c7" stroke-width="2" points="595.51,-399.33 595.51,-404.33 594.51,-404.33 594.51,-399.33 595.51,-399.33"/>
<polyline fill="none" stroke="#8dd3c7" stroke-width="2" points="596.01,-401.83 593.51,-401.83"/>
</g>
<!-- ART6514 -->
<g id="node30" class="node">
<title>ART6514</title>
<polygon fill="#8dd3c7" stroke="#8dd3c7" points="697.7,-493.62 596.9,-493.62 596.9,-422.38 697.7,-422.38 697.7,-493.62"/>
<text text-anchor="middle" x="647.3" y="-476.32" font-family="Arial" font-size="14.00">ART6514</text>
<text text-anchor="middle" x="647.3" y="-444.57" font-family="Arial" font-size="14.00">Encenação</text>
<text text-anchor="middle" x="647.3" y="-428.82" font-family="Arial" font-size="14.00">Teatral I</text>
</g>
<!-- ART6115&#45;&gt;ART6514 -->
<g id="edge23" class="edge">
<title>ART6115&#45;&gt;ART6514</title>
<path fill="none" stroke="#8dd3c7" stroke-width="2" d="M131.13,-517.33C272.85,-517.33 647.85,-517.33 647.85,-517.33 647.85,-517.33 647.85,-496.38 647.85,-496.38"/>
<polygon fill="#8dd3c7" stroke="#8dd3c7" stroke-width="2" points="645.35,-494.88 650.35,-494.88 650.35,-495.88 645.35,-495.88 645.35,-494.88"/>
<polyline fill="none" stroke="#8dd3c7" stroke-width="2" points="647.85,-494.38 647.85,-496.88"/>
</g>
<!-- ART6116 -->
<g id="node14" class="node">
<title>ART6116</title>
<polygon fill="#8dd3c7" stroke="#8dd3c7" points="128.15,-158.62 27.35,-158.62 27.35,-87.38 128.15,-87.38 128.15,-158.62"/>
<text text-anchor="middle" x="77.75" y="-141.32" font-family="Arial" font-size="14.00">ART6116</text>
<text text-anchor="middle" x="77.75" y="-109.58" font-family="Arial" font-size="14.00">Saberes do</text>
<text text-anchor="middle" x="77.75" y="-93.83" font-family="Arial" font-size="14.00">Corpo</text>
</g>
<!-- ART6116&#45;&gt;ART6216 -->
<g id="edge11" class="edge">
<title>ART6116&#45;&gt;ART6216</title>
<path fill="none" stroke="#8dd3c7" stroke-width="2" d="M77.85,-158.75C77.85,-164.38 77.85,-168.38 77.85,-168.38 77.85,-168.38 165.59,-168.38 165.59,-168.38"/>
<polygon fill="#8dd3c7" stroke="#8dd3c7" stroke-width="2" points="167.09,-165.88 167.09,-170.88 166.09,-170.88 166.09,-165.88 167.09,-165.88"/>
<polyline fill="none" stroke="#8dd3c7" stroke-width="2" points="167.59,-168.38 165.09,-168.38"/>
</g>
<!-- ART6311 -->
<g id="node19" class="node">
<title>ART6311</title>
<polygon fill="#8dd3c7" stroke="#8dd3c7" points="418.15,-378.5 317.35,-378.5 317.35,-291.5 418.15,-291.5 418.15,-378.5"/>
<text text-anchor="middle" x="367.75" y="-361.2" font-family="Arial" font-size="14.00">ART6311</text>
<text text-anchor="middle" x="367.75" y="-329.45" font-family="Arial" font-size="14.00">Teoria das</text>
<text text-anchor="middle" x="367.75" y="-313.7" font-family="Arial" font-size="14.00">Artes Cênicas</text>
<text text-anchor="middle" x="367.75" y="-297.95" font-family="Arial" font-size="14.00">III</text>
</g>
<!-- ART6211&#45;&gt;ART6311 -->
<g id="edge12" class="edge">
<title>ART6211&#45;&gt;ART6311</title>
<path fill="none" stroke="#8dd3c7" stroke-width="2" d="M272.32,-321.5C272.32,-321.5 314.64,-321.5 314.64,-321.5"/>
<polygon fill="#8dd3c7" stroke="#8dd3c7" stroke-width="2" points="316.14,-319 316.14,-324 315.14,-324 315.14,-319 316.14,-319"/>
<polyline fill="none" stroke="#8dd3c7" stroke-width="2" points="316.64,-321.5 314.14,-321.5"/>
</g>
<!-- ART6212&#45;&gt;ART6511 -->
<g id="edge19" class="edge">
<title>ART6212&#45;&gt;ART6511</title>
<path fill="none" stroke="#8dd3c7" stroke-width="2" d="M276.17,-448.92C284.75,-448.92 290.85,-448.92 290.85,-448.92 290.85,-448.92 290.85,-390.38 290.85,-390.38 290.85,-390.38 594.11,-390.38 594.11,-390.38"/>
<polygon fill="#8dd3c7" stroke="#8dd3c7" stroke-width="2" points="595.61,-387.88 595.61,-392.88 594.61,-392.88 594.61,-387.88 595.61,-387.88"/>
<polyline fill="none" stroke="#8dd3c7" stroke-width="2" points="596.11,-390.38 593.61,-390.38"/>
</g>
<!-- ART6512 -->
<g id="node28" class="node">
<title>ART6512</title>
<polygon fill="#8dd3c7" stroke="#8dd3c7" points="697.7,-315.75 596.9,-315.75 596.9,-260.25 697.7,-260.25 697.7,-315.75"/>
<text text-anchor="middle" x="647.3" y="-298.45" font-family="Arial" font-size="14.00">ART6512</text>
<text text-anchor="middle" x="647.3" y="-266.7" font-family="Arial" font-size="14.00">Atuação I</text>
</g>
<!-- ART6212&#45;&gt;ART6512 -->
<g id="edge21" class="edge">
<title>ART6212&#45;&gt;ART6512</title>
<path fill="none" stroke="#8dd3c7" stroke-width="2" d="M276.22,-446.08C280.87,-446.08 283.85,-446.08 283.85,-446.08 283.85,-446.08 283.85,-285.56 283.85,-285.56 283.85,-285.56 594.26,-285.56 594.26,-285.56"/>
<polygon fill="#8dd3c7" stroke="#8dd3c7" stroke-width="2" points="595.76,-283.06 595.76,-288.06 594.76,-288.06 594.76,-283.06 595.76,-283.06"/>
<polyline fill="none" stroke="#8dd3c7" stroke-width="2" points="596.26,-285.56 593.76,-285.56"/>
</g>
<!-- ART6212&#45;&gt;ART6514 -->
<g id="edge24" class="edge">
<title>ART6212&#45;&gt;ART6514</title>
<path fill="none" stroke="#8dd3c7" stroke-width="2" d="M275.97,-472.69C275.97,-472.69 594.09,-472.69 594.09,-472.69"/>
<polygon fill="#8dd3c7" stroke="#8dd3c7" stroke-width="2" points="595.59,-470.19 595.59,-475.19 594.59,-475.19 594.59,-470.19 595.59,-470.19"/>
<polyline fill="none" stroke="#8dd3c7" stroke-width="2" points="596.09,-472.69 593.59,-472.69"/>
</g>
<!-- ART6313 -->
<g id="node21" class="node">
<title>ART6313</title>
<polygon fill="#8dd3c7" stroke="#8dd3c7" points="423.75,-451.75 311.75,-451.75 311.75,-396.25 423.75,-396.25 423.75,-451.75"/>
<text text-anchor="middle" x="367.75" y="-434.45" font-family="Arial" font-size="14.00">ART6313</text>
<text text-anchor="middle" x="367.75" y="-402.7" font-family="Arial" font-size="14.00">Poéticas Vocais</text>
</g>
<!-- ART6213&#45;&gt;ART6313 -->
<g id="edge13" class="edge">
<title>ART6213&#45;&gt;ART6313</title>
<path fill="none" stroke="#8dd3c7" stroke-width="2" d="M272.32,-415.83C272.32,-415.83 308.9,-415.83 308.9,-415.83"/>
<polygon fill="#8dd3c7" stroke="#8dd3c7" stroke-width="2" points="310.4,-413.33 310.4,-418.33 309.4,-418.33 309.4,-413.33 310.4,-413.33"/>
<polyline fill="none" stroke="#8dd3c7" stroke-width="2" points="310.9,-415.83 308.4,-415.83"/>
</g>
<!-- ART6216&#45;&gt;ART6311 -->
<!-- ART6312 -->
<g id="node20" class="node">
<title>ART6312</title>
<polygon fill="#8dd3c7" stroke="#8dd3c7" points="418.15,-184.62 317.35,-184.62 317.35,-113.38 418.15,-113.38 418.15,-184.62"/>
<text text-anchor="middle" x="367.75" y="-167.32" font-family="Arial" font-size="14.00">ART6312</text>
<text text-anchor="middle" x="367.75" y="-135.57" font-family="Arial" font-size="14.00">Teatro de</text>
<text text-anchor="middle" x="367.75" y="-119.83" font-family="Arial" font-size="14.00">Animação I</text>
</g>
<!-- ART6216&#45;&gt;ART6312 -->
<!-- ART6216&#45;&gt;ART6313 -->
<!-- ART6314 -->
<g id="node22" class="node">
<title>ART6314</title>
<polygon fill="#8dd3c7" stroke="#8dd3c7" points="418.15,-273.62 317.35,-273.62 317.35,-202.38 418.15,-202.38 418.15,-273.62"/>
<text text-anchor="middle" x="367.75" y="-256.32" font-family="Arial" font-size="14.00">ART6314</text>
<text text-anchor="middle" x="367.75" y="-224.57" font-family="Arial" font-size="14.00">Crítica em</text>
<text text-anchor="middle" x="367.75" y="-208.82" font-family="Arial" font-size="14.00">Artes Cênicas</text>
</g>
<!-- ART6216&#45;&gt;ART6314 -->
<!-- ART6216&#45;&gt;ART6315 -->
<!-- ART6411 -->
<g id="node24" class="node">
<title>ART6411</title>
<polygon fill="#8dd3c7" stroke="#8dd3c7" points="560.55,-384.5 459.75,-384.5 459.75,-297.5 560.55,-297.5 560.55,-384.5"/>
<text text-anchor="middle" x="510.15" y="-367.2" font-family="Arial" font-size="14.00">ART6411</text>
<text text-anchor="middle" x="510.15" y="-335.45" font-family="Arial" font-size="14.00">Teoria das</text>
<text text-anchor="middle" x="510.15" y="-319.7" font-family="Arial" font-size="14.00">Artes Cênicas</text>
<text text-anchor="middle" x="510.15" y="-303.95" font-family="Arial" font-size="14.00">IV</text>
</g>
<!-- ART6311&#45;&gt;ART6411 -->
<g id="edge15" class="edge">
<title>ART6311&#45;&gt;ART6411</title>
<path fill="none" stroke="#8dd3c7" stroke-width="2" d="M418.36,-351.5C418.36,-351.5 457.21,-351.5 457.21,-351.5"/>
<polygon fill="#8dd3c7" stroke="#8dd3c7" stroke-width="2" points="458.71,-349 458.71,-354 457.71,-354 457.71,-349 458.71,-349"/>
<polyline fill="none" stroke="#8dd3c7" stroke-width="2" points="459.21,-351.5 456.71,-351.5"/>
</g>
<!-- ART6412 -->
<g id="node25" class="node">
<title>ART6412</title>
<polygon fill="#8dd3c7" stroke="#8dd3c7" points="560.55,-279.62 459.75,-279.62 459.75,-208.38 560.55,-208.38 560.55,-279.62"/>
<text text-anchor="middle" x="510.15" y="-262.32" font-family="Arial" font-size="14.00">ART6412</text>
<text text-anchor="middle" x="510.15" y="-230.57" font-family="Arial" font-size="14.00">Teatro de</text>
<text text-anchor="middle" x="510.15" y="-214.82" font-family="Arial" font-size="14.00">Animação II</text>
</g>
<!-- ART6312&#45;&gt;ART6412 -->
<g id="edge16" class="edge">
<title>ART6312&#45;&gt;ART6412</title>
<path fill="none" stroke="#8dd3c7" stroke-width="2" d="M418.53,-149C433.45,-149 445.85,-149 445.85,-149 445.85,-149 445.85,-251.88 445.85,-251.88 445.85,-251.88 456.99,-251.88 456.99,-251.88"/>
<polygon fill="#8dd3c7" stroke="#8dd3c7" stroke-width="2" points="458.49,-249.38 458.49,-254.38 457.49,-254.38 457.49,-249.38 458.49,-249.38"/>
<polyline fill="none" stroke="#8dd3c7" stroke-width="2" points="458.99,-251.88 456.49,-251.88"/>
</g>
<!-- ART6313&#45;&gt;ART6512 -->
<g id="edge22" class="edge">
<title>ART6313&#45;&gt;ART6512</title>
<path fill="none" stroke="#8dd3c7" stroke-width="2" d="M424.06,-399.04C485.69,-399.04 575.85,-399.04 575.85,-399.04 575.85,-399.04 575.85,-306.62 575.85,-306.62 575.85,-306.62 594.02,-306.62 594.02,-306.62"/>
<polygon fill="#8dd3c7" stroke="#8dd3c7" stroke-width="2" points="595.52,-304.13 595.52,-309.13 594.52,-309.13 594.52,-304.13 595.52,-304.13"/>
<polyline fill="none" stroke="#8dd3c7" stroke-width="2" points="596.02,-306.63 593.52,-306.63"/>
</g>
<!-- ART6315&#45;&gt;ART6411 -->
<!-- ART6315&#45;&gt;ART6412 -->
<!-- ART6415 -->
<g id="node26" class="node">
<title>ART6415</title>
<polygon fill="#8dd3c7" stroke="#8dd3c7" points="560.55,-190.38 459.75,-190.38 459.75,-87.62 560.55,-87.62 560.55,-190.38"/>
<text text-anchor="middle" x="510.15" y="-173.07" font-family="Arial" font-size="14.00">ART6415</text>
<text text-anchor="middle" x="510.15" y="-141.32" font-family="Arial" font-size="14.00">Direção de</text>
<text text-anchor="middle" x="510.15" y="-125.58" font-family="Arial" font-size="14.00">Arte,</text>
<text text-anchor="middle" x="510.15" y="-109.83" font-family="Arial" font-size="14.00">Cenografia e</text>
<text text-anchor="middle" x="510.15" y="-94.08" font-family="Arial" font-size="14.00">Figurino I</text>
</g>
<!-- ART6315&#45;&gt;ART6415 -->
<g id="edge17" class="edge">
<title>ART6315&#45;&gt;ART6415</title>
<path fill="none" stroke="#8dd3c7" stroke-width="2" d="M418.36,-89.62C418.36,-89.62 457.21,-89.62 457.21,-89.62"/>
<polygon fill="#8dd3c7" stroke="#8dd3c7" stroke-width="2" points="458.71,-87.13 458.71,-92.13 457.71,-92.13 457.71,-87.13 458.71,-87.13"/>
<polyline fill="none" stroke="#8dd3c7" stroke-width="2" points="459.21,-89.63 456.71,-89.63"/>
</g>
<!-- ART6315&#45;&gt;ART6415 -->
<!-- ART6411&#45;&gt;ART6511 -->
<g id="edge20" class="edge">
<title>ART6411&#45;&gt;ART6511</title>
<path fill="none" stroke="#8dd3c7" stroke-width="2" d="M560.83,-367.46C560.83,-367.46 594.33,-367.46 594.33,-367.46"/>
<polygon fill="#8dd3c7" stroke="#8dd3c7" stroke-width="2" points="595.83,-364.96 595.83,-369.96 594.83,-369.96 594.83,-364.96 595.83,-364.96"/>
<polyline fill="none" stroke="#8dd3c7" stroke-width="2" points="596.33,-367.46 593.83,-367.46"/>
</g>
<!-- ART6411&#45;&gt;ART6514 -->
<g id="edge25" class="edge">
<title>ART6411&#45;&gt;ART6514</title>
<path fill="none" stroke="#8dd3c7" stroke-width="2" d="M510.85,-384.99C510.85,-412.19 510.85,-441.96 510.85,-441.96 510.85,-441.96 593.99,-441.96 593.99,-441.96"/>
<polygon fill="#8dd3c7" stroke="#8dd3c7" stroke-width="2" points="595.49,-439.46 595.49,-444.46 594.49,-444.46 594.49,-439.46 595.49,-439.46"/>
<polyline fill="none" stroke="#8dd3c7" stroke-width="2" points="595.99,-441.96 593.49,-441.96"/>
</g>
<!-- ART6415&#45;&gt;ART6511 -->
<!-- ART6415&#45;&gt;ART6512 -->
<!-- ART6513 -->
<g id="node29" class="node">
<title>ART6513</title>
<polygon fill="#8dd3c7" stroke="#8dd3c7" points="698.05,-121.75 596.55,-121.75 596.55,-66.25 698.05,-66.25 698.05,-121.75"/>
<text text-anchor="middle" x="647.3" y="-104.45" font-family="Arial" font-size="14.00">ART6513</text>
<text text-anchor="middle" x="647.3" y="-72.7" font-family="Arial" font-size="14.00">Performance I</text>
</g>
<!-- ART6415&#45;&gt;ART6513 -->
<!-- ART6415&#45;&gt;ART6514 -->
<!-- ART6515 -->
<g id="node31" class="node">
<title>ART6515</title>
<polygon fill="#8dd3c7" stroke="#8dd3c7" points="697.7,-242.38 596.9,-242.38 596.9,-139.62 697.7,-139.62 697.7,-242.38"/>
<text text-anchor="middle" x="647.3" y="-225.07" font-family="Arial" font-size="14.00">ART6515</text>
<text text-anchor="middle" x="647.3" y="-193.32" font-family="Arial" font-size="14.00">Direção de</text>
<text text-anchor="middle" x="647.3" y="-177.57" font-family="Arial" font-size="14.00">Arte,</text>
<text text-anchor="middle" x="647.3" y="-161.82" font-family="Arial" font-size="14.00">Cenografia e</text>
<text text-anchor="middle" x="647.3" y="-146.07" font-family="Arial" font-size="14.00">Figurino II</text>
</g>
<!-- ART6415&#45;&gt;ART6515 -->
<g id="edge26" class="edge">
<title>ART6415&#45;&gt;ART6515</title>
<path fill="none" stroke="#8dd3c7" stroke-width="2" d="M560.83,-173.46C560.83,-173.46 594.33,-173.46 594.33,-173.46"/>
<polygon fill="#8dd3c7" stroke="#8dd3c7" stroke-width="2" points="595.83,-170.96 595.83,-175.96 594.83,-175.96 594.83,-170.96 595.83,-170.96"/>
<polyline fill="none" stroke="#8dd3c7" stroke-width="2" points="596.33,-173.46 593.83,-173.46"/>
</g>
<!-- ART6415&#45;&gt;ART6515 -->
<!-- ART6611 -->
<g id="node32" class="node">
<title>ART6611</title>
<polygon fill="#8dd3c7" stroke="#8dd3c7" points="841.2,-210.62 740.4,-210.62 740.4,-139.38 841.2,-139.38 841.2,-210.62"/>
<text text-anchor="middle" x="790.8" y="-193.32" font-family="Arial" font-size="14.00">ART6611</text>
<text text-anchor="middle" x="790.8" y="-161.57" font-family="Arial" font-size="14.00">Escrita</text>
<text text-anchor="middle" x="790.8" y="-145.82" font-family="Arial" font-size="14.00">Dramática II</text>
</g>
<!-- ART6511&#45;&gt;ART6611 -->
<g id="edge27" class="edge">
<title>ART6511&#45;&gt;ART6611</title>
<path fill="none" stroke="#8dd3c7" stroke-width="2" d="M697.85,-337.31C708.63,-337.31 716.85,-337.31 716.85,-337.31 716.85,-337.31 716.85,-192.88 716.85,-192.88 716.85,-192.88 737.75,-192.88 737.75,-192.88"/>
<polygon fill="#8dd3c7" stroke="#8dd3c7" stroke-width="2" points="739.25,-190.38 739.25,-195.38 738.25,-195.38 738.25,-190.38 739.25,-190.38"/>
<polyline fill="none" stroke="#8dd3c7" stroke-width="2" points="739.75,-192.88 737.25,-192.88"/>
</g>
<!-- ART6612 -->
<g id="node33" class="node">
<title>ART6612</title>
<polygon fill="#8dd3c7" stroke="#8dd3c7" points="841.2,-404.75 740.4,-404.75 740.4,-349.25 841.2,-349.25 841.2,-404.75"/>
<text text-anchor="middle" x="790.8" y="-387.45" font-family="Arial" font-size="14.00">ART6612</text>
<text text-anchor="middle" x="790.8" y="-355.7" font-family="Arial" font-size="14.00">Atuação II</text>
</g>
<!-- ART6512&#45;&gt;ART6612 -->
<g id="edge28" class="edge">
<title>ART6512&#45;&gt;ART6612</title>
<path fill="none" stroke="#8dd3c7" stroke-width="2" d="M698.11,-288C711.78,-288 722.85,-288 722.85,-288 722.85,-288 722.85,-386.17 722.85,-386.17 722.85,-386.17 737.5,-386.17 737.5,-386.17"/>
<polygon fill="#8dd3c7" stroke="#8dd3c7" stroke-width="2" points="739,-383.67 739,-388.67 738,-388.67 738,-383.67 739,-383.67"/>
<polyline fill="none" stroke="#8dd3c7" stroke-width="2" points="739.5,-386.17 737,-386.17"/>
</g>
<!-- ART6613 -->
<g id="node34" class="node">
<title>ART6613</title>
<polygon fill="#8dd3c7" stroke="#8dd3c7" points="843.42,-121.75 738.17,-121.75 738.17,-66.25 843.42,-66.25 843.42,-121.75"/>
<text text-anchor="middle" x="790.8" y="-104.45" font-family="Arial" font-size="14.00">ART6613</text>
<text text-anchor="middle" x="790.8" y="-72.7" font-family="Arial" font-size="14.00">Performance II</text>
</g>
<!-- ART6513&#45;&gt;ART6613 -->
<g id="edge29" class="edge">
<title>ART6513&#45;&gt;ART6613</title>
<path fill="none" stroke="#8dd3c7" stroke-width="2" d="M698.3,-84.75C698.3,-84.75 735.53,-84.75 735.53,-84.75"/>
<polygon fill="#8dd3c7" stroke="#8dd3c7" stroke-width="2" points="737.03,-82.25 737.03,-87.25 736.03,-87.25 736.03,-82.25 737.03,-82.25"/>
<polyline fill="none" stroke="#8dd3c7" stroke-width="2" points="737.53,-84.75 735.03,-84.75"/>
</g>
<!-- ART6614 -->
<g id="node35" class="node">
<title>ART6614</title>
<polygon fill="#8dd3c7" stroke="#8dd3c7" points="841.2,-493.62 740.4,-493.62 740.4,-422.38 841.2,-422.38 841.2,-493.62"/>
<text text-anchor="middle" x="790.8" y="-476.32" font-family="Arial" font-size="14.00">ART6614</text>
<text text-anchor="middle" x="790.8" y="-444.57" font-family="Arial" font-size="14.00">Encenação</text>
<text text-anchor="middle" x="790.8" y="-428.82" font-family="Arial" font-size="14.00">Teatral II</text>
</g>
<!-- ART6514&#45;&gt;ART6614 -->
<g id="edge30" class="edge">
<title>ART6514&#45;&gt;ART6614</title>
<path fill="none" stroke="#8dd3c7" stroke-width="2" d="M697.89,-469.88C697.89,-469.88 737.68,-469.88 737.68,-469.88"/>
<polygon fill="#8dd3c7" stroke="#8dd3c7" stroke-width="2" points="739.18,-467.38 739.18,-472.38 738.18,-472.38 738.18,-467.38 739.18,-467.38"/>
<polyline fill="none" stroke="#8dd3c7" stroke-width="2" points="739.68,-469.88 737.18,-469.88"/>
</g>
<!-- ART6515&#45;&gt;ART6611 -->
<!-- ART6515&#45;&gt;ART6612 -->
<!-- ART6515&#45;&gt;ART6613 -->
<!-- ART6515&#45;&gt;ART6614 -->
<!-- ART6616 -->
<g id="node36" class="node">
<title>ART6616</title>
<g id="a_node36"><a xlink:title="Epistemicídio e Genocídio africano e afro&#45;brasileiro. Origens Africanas. Estratégias culturais negras de resistência e reexistência, preservação e disseminação cultural, da escravização aos dias atuais no Brasil. A arte da população negra brasileira na formação sociocultural e artística do Brasil contemporâneo. Artes negras da cena e na contemporaneidade brasileira.">
<polygon fill="#8dd3c7" stroke="#8dd3c7" points="847.55,-331.38 734.05,-331.38 734.05,-228.62 847.55,-228.62 847.55,-331.38"/>
<text text-anchor="middle" x="790.8" y="-314.07" font-family="Arial" font-size="14.00">ART6616</text>
<text text-anchor="middle" x="790.8" y="-282.32" font-family="Arial" font-size="14.00">Artes Negras da</text>
<text text-anchor="middle" x="790.8" y="-266.57" font-family="Arial" font-size="14.00">Cena e Culturas</text>
<text text-anchor="middle" x="790.8" y="-250.82" font-family="Arial" font-size="14.00">de Matriz</text>
<text text-anchor="middle" x="790.8" y="-235.07" font-family="Arial" font-size="14.00">Africana</text>
</a>
</g>
</g>
<!-- ART6515&#45;&gt;ART6616 -->
<!-- ART6711 -->
<g id="node37" class="node">
<title>ART6711</title>
<polygon fill="#8dd3c7" stroke="#8dd3c7" points="988.45,-218.62 887.65,-218.62 887.65,-147.38 988.45,-147.38 988.45,-218.62"/>
<text text-anchor="middle" x="938.05" y="-201.32" font-family="Arial" font-size="14.00">ART6711</text>
<text text-anchor="middle" x="938.05" y="-169.57" font-family="Arial" font-size="14.00">Escrita</text>
<text text-anchor="middle" x="938.05" y="-153.82" font-family="Arial" font-size="14.00">Dramática III</text>
</g>
<!-- ART6611&#45;&gt;ART6711 -->
<g id="edge31" class="edge">
<title>ART6611&#45;&gt;ART6711</title>
<path fill="none" stroke="#8dd3c7" stroke-width="2" d="M841.48,-179C841.48,-179 884.78,-179 884.78,-179"/>
<polygon fill="#8dd3c7" stroke="#8dd3c7" stroke-width="2" points="886.28,-176.5 886.28,-181.5 885.28,-181.5 885.28,-176.5 886.28,-176.5"/>
<polyline fill="none" stroke="#8dd3c7" stroke-width="2" points="886.78,-179 884.28,-179"/>
</g>
<!-- ART6712 -->
<g id="node38" class="node">
<title>ART6712</title>
<polygon fill="#8dd3c7" stroke="#8dd3c7" points="988.45,-396.75 887.65,-396.75 887.65,-341.25 988.45,-341.25 988.45,-396.75"/>
<text text-anchor="middle" x="938.05" y="-379.45" font-family="Arial" font-size="14.00">ART6712</text>
<text text-anchor="middle" x="938.05" y="-347.7" font-family="Arial" font-size="14.00">Atuação III</text>
</g>
<!-- ART6612&#45;&gt;ART6712 -->
<g id="edge32" class="edge">
<title>ART6612&#45;&gt;ART6712</title>
<path fill="none" stroke="#8dd3c7" stroke-width="2" d="M841.48,-373C841.48,-373 884.78,-373 884.78,-373"/>
<polygon fill="#8dd3c7" stroke="#8dd3c7" stroke-width="2" points="886.28,-370.5 886.28,-375.5 885.28,-375.5 885.28,-370.5 886.28,-370.5"/>
<polyline fill="none" stroke="#8dd3c7" stroke-width="2" points="886.78,-373 884.28,-373"/>
</g>
<!-- ART6713 -->
<g id="node39" class="node">
<title>ART6713</title>
<polygon fill="#8dd3c7" stroke="#8dd3c7" points="992.55,-129.75 883.55,-129.75 883.55,-74.25 992.55,-74.25 992.55,-129.75"/>
<text text-anchor="middle" x="938.05" y="-112.45" font-family="Arial" font-size="14.00">ART6713</text>
<text text-anchor="middle" x="938.05" y="-80.7" font-family="Arial" font-size="14.00">Performance III</text>
</g>
<!-- ART6613&#45;&gt;ART6713 -->
<g id="edge33" class="edge">
<title>ART6613&#45;&gt;ART6713</title>
<path fill="none" stroke="#8dd3c7" stroke-width="2" d="M843.54,-98C843.54,-98 880.69,-98 880.69,-98"/>
<polygon fill="#8dd3c7" stroke="#8dd3c7" stroke-width="2" points="882.19,-95.5 882.19,-100.5 881.19,-100.5 881.19,-95.5 882.19,-95.5"/>
<polyline fill="none" stroke="#8dd3c7" stroke-width="2" points="882.69,-98 880.19,-98"/>
</g>
<!-- ART6714 -->
<g id="node40" class="node">
<title>ART6714</title>
<polygon fill="#8dd3c7" stroke="#8dd3c7" points="988.45,-485.62 887.65,-485.62 887.65,-414.38 988.45,-414.38 988.45,-485.62"/>
<text text-anchor="middle" x="938.05" y="-468.32" font-family="Arial" font-size="14.00">ART6714</text>
<text text-anchor="middle" x="938.05" y="-436.57" font-family="Arial" font-size="14.00">Encenação</text>
<text text-anchor="middle" x="938.05" y="-420.82" font-family="Arial" font-size="14.00">Teatral III</text>
</g>
<!-- ART6614&#45;&gt;ART6714 -->
<g id="edge34" class="edge">
<title>ART6614&#45;&gt;ART6714</title>
<path fill="none" stroke="#8dd3c7" stroke-width="2" d="M841.48,-454C841.48,-454 884.78,-454 884.78,-454"/>
<polygon fill="#8dd3c7" stroke="#8dd3c7" stroke-width="2" points="886.28,-451.5 886.28,-456.5 885.28,-456.5 885.28,-451.5 886.28,-451.5"/>
<polyline fill="none" stroke="#8dd3c7" stroke-width="2" points="886.78,-454 884.28,-454"/>
</g>
<!-- ART6616&#45;&gt;ART6711 -->
<!-- ART6616&#45;&gt;ART6712 -->
<!-- ART6616&#45;&gt;ART6713 -->
<!-- ART6616&#45;&gt;ART6714 -->
<!-- ART6715 -->
<g id="node41" class="node">
<title>ART6715</title>
<polygon fill="#8dd3c7" stroke="#8dd3c7" points="988.45,-323.5 887.65,-323.5 887.65,-236.5 988.45,-236.5 988.45,-323.5"/>
<text text-anchor="middle" x="938.05" y="-306.2" font-family="Arial" font-size="14.00">ART6715</text>
<text text-anchor="middle" x="938.05" y="-274.45" font-family="Arial" font-size="14.00">Produção e</text>
<text text-anchor="middle" x="938.05" y="-258.7" font-family="Arial" font-size="14.00">Divulgação</text>
<text text-anchor="middle" x="938.05" y="-242.95" font-family="Arial" font-size="14.00">Teatral</text>
</g>
<!-- ART6616&#45;&gt;ART6715 -->
<!-- ART6811 -->
<g id="node42" class="node">
<title>ART6811</title>
<polygon fill="#8dd3c7" stroke="#8dd3c7" points="1134.2,-186.62 1033.4,-186.62 1033.4,-115.38 1134.2,-115.38 1134.2,-186.62"/>
<text text-anchor="middle" x="1083.8" y="-169.32" font-family="Arial" font-size="14.00">ART6811</text>
<text text-anchor="middle" x="1083.8" y="-137.57" font-family="Arial" font-size="14.00">Escrita</text>
<text text-anchor="middle" x="1083.8" y="-121.83" font-family="Arial" font-size="14.00">Dramática IV</text>
</g>
<!-- ART6711&#45;&gt;ART6811 -->
<g id="edge35" class="edge">
<title>ART6711&#45;&gt;ART6811</title>
<path fill="none" stroke="#8dd3c7" stroke-width="2" d="M988.62,-160.46C988.62,-160.46 1030.82,-160.46 1030.82,-160.46"/>
<polygon fill="#8dd3c7" stroke="#8dd3c7" stroke-width="2" points="1032.32,-157.96 1032.32,-162.96 1031.32,-162.96 1031.32,-157.96 1032.32,-157.96"/>
<polyline fill="none" stroke="#8dd3c7" stroke-width="2" points="1032.82,-160.46 1030.32,-160.46"/>
</g>
<!-- ART6815 -->
<g id="node46" class="node">
<title>ART6815</title>
<polygon fill="#8dd3c7" stroke="#8dd3c7" points="1135.3,-275.62 1032.3,-275.62 1032.3,-204.38 1135.3,-204.38 1135.3,-275.62"/>
<text text-anchor="middle" x="1083.8" y="-258.32" font-family="Arial" font-size="14.00">ART6815</text>
<text text-anchor="middle" x="1083.8" y="-226.57" font-family="Arial" font-size="14.00">Pesquisa em</text>
<text text-anchor="middle" x="1083.8" y="-210.82" font-family="Arial" font-size="14.00">Artes Cênicias</text>
</g>
<!-- ART6711&#45;&gt;ART6815 -->
<g id="edge39" class="edge">
<title>ART6711&#45;&gt;ART6815</title>
<path fill="none" stroke="#8dd3c7" stroke-width="2" d="M988.62,-211.5C988.62,-211.5 1029.34,-211.5 1029.34,-211.5"/>
<polygon fill="#8dd3c7" stroke="#8dd3c7" stroke-width="2" points="1030.84,-209 1030.84,-214 1029.84,-214 1029.84,-209 1030.84,-209"/>
<polyline fill="none" stroke="#8dd3c7" stroke-width="2" points="1031.34,-211.5 1028.84,-211.5"/>
</g>
<!-- ART6816 -->
<g id="node47" class="node">
<title>ART6816</title>
<polygon fill="#8dd3c7" stroke="#8dd3c7" points="1134.2,-364.62 1033.4,-364.62 1033.4,-293.38 1134.2,-293.38 1134.2,-364.62"/>
<text text-anchor="middle" x="1083.8" y="-347.32" font-family="Arial" font-size="14.00">ART6816</text>
<text text-anchor="middle" x="1083.8" y="-315.57" font-family="Arial" font-size="14.00">Processos</text>
<text text-anchor="middle" x="1083.8" y="-299.82" font-family="Arial" font-size="14.00">Criativos</text>
</g>
<!-- ART6711&#45;&gt;ART6816 -->
<g id="edge43" class="edge">
<title>ART6711&#45;&gt;ART6816</title>
<path fill="none" stroke="#8dd3c7" stroke-width="2" d="M988.74,-215.06C998.55,-215.06 1005.85,-215.06 1005.85,-215.06 1005.85,-215.06 1005.85,-303.42 1005.85,-303.42 1005.85,-303.42 1030.61,-303.42 1030.61,-303.42"/>
<polygon fill="#8dd3c7" stroke="#8dd3c7" stroke-width="2" points="1032.11,-300.92 1032.11,-305.92 1031.11,-305.92 1031.11,-300.92 1032.11,-300.92"/>
<polyline fill="none" stroke="#8dd3c7" stroke-width="2" points="1032.61,-303.42 1030.11,-303.42"/>
</g>
<!-- ART6812 -->
<g id="node43" class="node">
<title>ART6812</title>
<polygon fill="#8dd3c7" stroke="#8dd3c7" points="1134.2,-437.75 1033.4,-437.75 1033.4,-382.25 1134.2,-382.25 1134.2,-437.75"/>
<text text-anchor="middle" x="1083.8" y="-420.45" font-family="Arial" font-size="14.00">ART6812</text>
<text text-anchor="middle" x="1083.8" y="-388.7" font-family="Arial" font-size="14.00">Atuação IV</text>
</g>
<!-- ART6712&#45;&gt;ART6812 -->
<g id="edge36" class="edge">
<title>ART6712&#45;&gt;ART6812</title>
<path fill="none" stroke="#8dd3c7" stroke-width="2" d="M988.62,-391.92C988.62,-391.92 1030.82,-391.92 1030.82,-391.92"/>
<polygon fill="#8dd3c7" stroke="#8dd3c7" stroke-width="2" points="1032.32,-389.42 1032.32,-394.42 1031.32,-394.42 1031.32,-389.42 1032.32,-389.42"/>
<polyline fill="none" stroke="#8dd3c7" stroke-width="2" points="1032.82,-391.92 1030.32,-391.92"/>
</g>
<!-- ART6712&#45;&gt;ART6815 -->
<g id="edge40" class="edge">
<title>ART6712&#45;&gt;ART6815</title>
<path fill="none" stroke="#8dd3c7" stroke-width="2" d="M988.76,-347.09C1005,-347.09 1018.85,-347.09 1018.85,-347.09 1018.85,-347.09 1018.85,-262.58 1018.85,-262.58 1018.85,-262.58 1029.49,-262.58 1029.49,-262.58"/>
<polygon fill="#8dd3c7" stroke="#8dd3c7" stroke-width="2" points="1030.99,-260.08 1030.99,-265.08 1029.99,-265.08 1029.99,-260.08 1030.99,-260.08"/>
<polyline fill="none" stroke="#8dd3c7" stroke-width="2" points="1031.49,-262.58 1028.99,-262.58"/>
</g>
<!-- ART6712&#45;&gt;ART6816 -->
<g id="edge44" class="edge">
<title>ART6712&#45;&gt;ART6816</title>
<path fill="none" stroke="#8dd3c7" stroke-width="2" d="M988.62,-352.94C988.62,-352.94 1030.82,-352.94 1030.82,-352.94"/>
<polygon fill="#8dd3c7" stroke="#8dd3c7" stroke-width="2" points="1032.32,-350.44 1032.32,-355.44 1031.32,-355.44 1031.32,-350.44 1032.32,-350.44"/>
<polyline fill="none" stroke="#8dd3c7" stroke-width="2" points="1032.82,-352.94 1030.32,-352.94"/>
</g>
<!-- ART6813 -->
<g id="node44" class="node">
<title>ART6813</title>
<polygon fill="#8dd3c7" stroke="#8dd3c7" points="1139.05,-97.75 1028.55,-97.75 1028.55,-42.25 1139.05,-42.25 1139.05,-97.75"/>
<text text-anchor="middle" x="1083.8" y="-80.45" font-family="Arial" font-size="14.00">ART6813</text>
<text text-anchor="middle" x="1083.8" y="-48.7" font-family="Arial" font-size="14.00">Performance IV</text>
</g>
<!-- ART6713&#45;&gt;ART6813 -->
<g id="edge37" class="edge">
<title>ART6713&#45;&gt;ART6813</title>
<path fill="none" stroke="#8dd3c7" stroke-width="2" d="M992.74,-82.08C992.74,-82.08 1025.82,-82.08 1025.82,-82.08"/>
<polygon fill="#8dd3c7" stroke="#8dd3c7" stroke-width="2" points="1027.32,-79.58 1027.32,-84.58 1026.32,-84.58 1026.32,-79.58 1027.32,-79.58"/>
<polyline fill="none" stroke="#8dd3c7" stroke-width="2" points="1027.82,-82.08 1025.32,-82.08"/>
</g>
<!-- ART6713&#45;&gt;ART6815 -->
<g id="edge41" class="edge">
<title>ART6713&#45;&gt;ART6815</title>
<path fill="none" stroke="#8dd3c7" stroke-width="2" d="M992.8,-120.17C1004.21,-120.17 1012.85,-120.17 1012.85,-120.17 1012.85,-120.17 1012.85,-207.94 1012.85,-207.94 1012.85,-207.94 1029.36,-207.94 1029.36,-207.94"/>
<polygon fill="#8dd3c7" stroke="#8dd3c7" stroke-width="2" points="1030.86,-205.44 1030.86,-210.44 1029.86,-210.44 1029.86,-205.44 1030.86,-205.44"/>
<polyline fill="none" stroke="#8dd3c7" stroke-width="2" points="1031.36,-207.94 1028.86,-207.94"/>
</g>
<!-- ART6713&#45;&gt;ART6816 -->
<g id="edge45" class="edge">
<title>ART6713&#45;&gt;ART6816</title>
<path fill="none" stroke="#8dd3c7" stroke-width="2" d="M992.83,-124.96C1002.66,-124.96 1009.85,-124.96 1009.85,-124.96 1009.85,-124.96 1009.85,-298.4 1009.85,-298.4 1009.85,-298.4 1030.75,-298.4 1030.75,-298.4"/>
<polygon fill="#8dd3c7" stroke="#8dd3c7" stroke-width="2" points="1032.25,-295.9 1032.25,-300.9 1031.25,-300.9 1031.25,-295.9 1032.25,-295.9"/>
<polyline fill="none" stroke="#8dd3c7" stroke-width="2" points="1032.75,-298.4 1030.25,-298.4"/>
</g>
<!-- ART6814 -->
<g id="node45" class="node">
<title>ART6814</title>
<polygon fill="#8dd3c7" stroke="#8dd3c7" points="1134.2,-526.62 1033.4,-526.62 1033.4,-455.38 1134.2,-455.38 1134.2,-526.62"/>
<text text-anchor="middle" x="1083.8" y="-509.32" font-family="Arial" font-size="14.00">ART6814</text>
<text text-anchor="middle" x="1083.8" y="-477.57" font-family="Arial" font-size="14.00">Encenação</text>
<text text-anchor="middle" x="1083.8" y="-461.82" font-family="Arial" font-size="14.00">Teatral IV</text>
</g>
<!-- ART6714&#45;&gt;ART6814 -->
<g id="edge38" class="edge">
<title>ART6714&#45;&gt;ART6814</title>
<path fill="none" stroke="#8dd3c7" stroke-width="2" d="M988.62,-475.54C988.62,-475.54 1030.82,-475.54 1030.82,-475.54"/>
<polygon fill="#8dd3c7" stroke="#8dd3c7" stroke-width="2" points="1032.32,-473.04 1032.32,-478.04 1031.32,-478.04 1031.32,-473.04 1032.32,-473.04"/>
<polyline fill="none" stroke="#8dd3c7" stroke-width="2" points="1032.82,-475.54 1030.32,-475.54"/>
</g>
<!-- ART6714&#45;&gt;ART6815 -->
<g id="edge42" class="edge">
<title>ART6714&#45;&gt;ART6815</title>
<path fill="none" stroke="#8dd3c7" stroke-width="2" d="M988.85,-422.17C1006.91,-422.17 1022.85,-422.17 1022.85,-422.17 1022.85,-422.17 1022.85,-269.1 1022.85,-269.1 1022.85,-269.1 1029.34,-269.1 1029.34,-269.1"/>
<polygon fill="#8dd3c7" stroke="#8dd3c7" stroke-width="2" points="1030.84,-266.6 1030.84,-271.6 1029.84,-271.6 1029.84,-266.6 1030.84,-266.6"/>
<polyline fill="none" stroke="#8dd3c7" stroke-width="2" points="1031.34,-269.1 1028.84,-269.1"/>
</g>
<!-- ART6714&#45;&gt;ART6816 -->
<g id="edge46" class="edge">
<title>ART6714&#45;&gt;ART6816</title>
<path fill="none" stroke="#8dd3c7" stroke-width="2" d="M988.87,-429.96C1008.29,-429.96 1025.85,-429.96 1025.85,-429.96 1025.85,-429.96 1025.85,-358.78 1025.85,-358.78 1025.85,-358.78 1030.46,-358.78 1030.46,-358.78"/>
<polygon fill="#8dd3c7" stroke="#8dd3c7" stroke-width="2" points="1031.96,-356.28 1031.96,-361.28 1030.96,-361.28 1030.96,-356.28 1031.96,-356.28"/>
<polyline fill="none" stroke="#8dd3c7" stroke-width="2" points="1032.46,-358.78 1029.96,-358.78"/>
</g>
<!-- ART6715&#45;&gt;ART6811 -->
<!-- ART6715&#45;&gt;ART6812 -->
<!-- ART6715&#45;&gt;ART6813 -->
<!-- ART6715&#45;&gt;ART6814 -->
<!-- ART6715&#45;&gt;ART6815 -->
<!-- ART6715&#45;&gt;ART6816 -->
<!-- ART6911 -->
<g id="node48" class="node">
<title>ART6911</title>
<polygon fill="#fb8072" stroke="#fb8072" points="1275.85,-283.5 1175.05,-283.5 1175.05,-196.5 1275.85,-196.5 1275.85,-283.5"/>
<text text-anchor="middle" x="1225.45" y="-266.2" font-family="Arial" font-size="14.00">ART6911</text>
<text text-anchor="middle" x="1225.45" y="-234.45" font-family="Arial" font-size="14.00">Trabalho de</text>
<text text-anchor="middle" x="1225.45" y="-218.7" font-family="Arial" font-size="14.00">Conclusão de</text>
<text text-anchor="middle" x="1225.45" y="-202.95" font-family="Arial" font-size="14.00">Curso</text>
</g>
<!-- ART6815&#45;&gt;ART6911 -->
<g id="edge47" class="edge">
<title>ART6815&#45;&gt;ART6911</title>
<path fill="none" stroke="#fb8072" stroke-width="2" d="M1135.74,-240C1135.74,-240 1172.43,-240 1172.43,-240"/>
<polygon fill="#fb8072" stroke="#fb8072" stroke-width="2" points="1173.93,-237.5 1173.93,-242.5 1172.93,-242.5 1172.93,-237.5 1173.93,-237.5"/>
<polyline fill="none" stroke="#fb8072" stroke-width="2" points="1174.43,-240 1171.93,-240"/>
</g>
<!-- ART6816&#45;&gt;ART6911 -->
<!-- ART6912 -->
<g id="node49" class="node">
<title>ART6912</title>
<polygon fill="#8dd3c7" stroke="#8dd3c7" points="1275.85,-372.62 1175.05,-372.62 1175.05,-301.38 1275.85,-301.38 1275.85,-372.62"/>
<text text-anchor="middle" x="1225.45" y="-355.32" font-family="Arial" font-size="14.00">ART6912</text>
<text text-anchor="middle" x="1225.45" y="-323.57" font-family="Arial" font-size="14.00">Teatro</text>
<text text-anchor="middle" x="1225.45" y="-307.82" font-family="Arial" font-size="14.00">Brasileiro</text>
</g>
<!-- ART6816&#45;&gt;ART6912 -->
</g>
</svg>
