<?xml version="1.0" encoding="UTF-8" standalone="no"?>
<!DOCTYPE svg PUBLIC "-//W3C//DTD SVG 1.1//EN"
 "http://www.w3.org/Graphics/SVG/1.1/DTD/svg11.dtd">
<!-- Generated by graphviz version 9.0.0 (0)
 -->
<!-- Title: grafo_materias Pages: 1 -->
<svg width="1207pt" height="763pt"
 viewBox="0.00 0.00 1207.10 763.00" xmlns="http://www.w3.org/2000/svg" xmlns:xlink="http://www.w3.org/1999/xlink">
<g id="graph0" class="graph" transform="scale(1 1) rotate(0) translate(4 759)">
<title>grafo_materias</title>
<polygon fill="none" stroke="none" points="-4,4 -4,-759 1203.1,-759 1203.1,4 -4,4"/>
<g id="clust1" class="cluster">
<title>cluster_everything</title>
<polygon fill="none" stroke="none" points="8,-8 8,-747 1191.1,-747 1191.1,-8 8,-8"/>
</g>
<g id="clust2" class="cluster">
<title>cluster_header</title>
<polygon fill="none" stroke="none" points="19.35,-687 19.35,-739 1183.1,-739 1183.1,-687 19.35,-687"/>
</g>
<g id="clust3" class="cluster">
<title>cluster_0</title>
<polygon fill="none" stroke="none" points="16,-16 16,-591 139.5,-591 139.5,-16 16,-16"/>
</g>
<g id="clust4" class="cluster">
<title>cluster_1</title>
<polygon fill="none" stroke="none" points="159.5,-57 159.5,-679 290.5,-679 290.5,-57 159.5,-57"/>
</g>
<g id="clust5" class="cluster">
<title>cluster_2</title>
<polygon fill="none" stroke="none" points="310.5,-69 310.5,-618 431,-618 431,-69 310.5,-69"/>
</g>
<g id="clust6" class="cluster">
<title>cluster_3</title>
<polygon fill="none" stroke="none" points="451,-79 451,-644 586.5,-644 586.5,-79 451,-79"/>
</g>
<g id="clust7" class="cluster">
<title>cluster_4</title>
<polygon fill="none" stroke="none" points="606.5,-16 606.5,-679 738.25,-679 738.25,-16 606.5,-16"/>
</g>
<g id="clust8" class="cluster">
<title>cluster_5</title>
<polygon fill="none" stroke="none" points="758.25,-16 758.25,-444 909.5,-444 909.5,-16 758.25,-16"/>
</g>
<g id="clust9" class="cluster">
<title>cluster_6</title>
<polygon fill="none" stroke="none" points="929.5,-16 929.5,-162 1046.3,-162 1046.3,-16 929.5,-16"/>
</g>
<g id="clust10" class="cluster">
<title>cluster_7</title>
<polygon fill="none" stroke="none" points="1066.3,-16 1066.3,-88 1183.1,-88 1183.1,-16 1066.3,-16"/>
</g>
<!-- 1ª Fase -->
<g id="node1" class="node">
<title>1ª Fase</title>
<polygon fill="lightgrey" stroke="black" points="128.15,-731 27.35,-731 27.35,-695 128.15,-695 128.15,-731"/>
<text text-anchor="middle" x="77.75" y="-707.58" font-family="Arial" font-size="14.00">1ª Fase</text>
</g>
<!-- 2ª Fase -->
<g id="node2" class="node">
<title>2ª Fase</title>
<polygon fill="lightgrey" stroke="black" points="275.4,-731 174.6,-731 174.6,-695 275.4,-695 275.4,-731"/>
<text text-anchor="middle" x="225" y="-707.58" font-family="Arial" font-size="14.00">2ª Fase</text>
</g>
<!-- 1ª Fase&#45;&gt;2ª Fase -->
<!-- 3ª Fase -->
<g id="node3" class="node">
<title>3ª Fase</title>
<polygon fill="lightgrey" stroke="black" points="421.15,-731 320.35,-731 320.35,-695 421.15,-695 421.15,-731"/>
<text text-anchor="middle" x="370.75" y="-707.58" font-family="Arial" font-size="14.00">3ª Fase</text>
</g>
<!-- 2ª Fase&#45;&gt;3ª Fase -->
<!-- 4ª Fase -->
<g id="node4" class="node">
<title>4ª Fase</title>
<polygon fill="lightgrey" stroke="black" points="569.15,-731 468.35,-731 468.35,-695 569.15,-695 569.15,-731"/>
<text text-anchor="middle" x="518.75" y="-707.58" font-family="Arial" font-size="14.00">4ª Fase</text>
</g>
<!-- 3ª Fase&#45;&gt;4ª Fase -->
<!-- 5ª Fase -->
<g id="node5" class="node">
<title>5ª Fase</title>
<polygon fill="lightgrey" stroke="black" points="722.77,-731 621.97,-731 621.97,-695 722.77,-695 722.77,-731"/>
<text text-anchor="middle" x="672.37" y="-707.58" font-family="Arial" font-size="14.00">5ª Fase</text>
</g>
<!-- 4ª Fase&#45;&gt;5ª Fase -->
<!-- 6ª Fase -->
<g id="node6" class="node">
<title>6ª Fase</title>
<polygon fill="lightgrey" stroke="black" points="884.27,-731 783.47,-731 783.47,-695 884.27,-695 884.27,-731"/>
<text text-anchor="middle" x="833.87" y="-707.58" font-family="Arial" font-size="14.00">6ª Fase</text>
</g>
<!-- 5ª Fase&#45;&gt;6ª Fase -->
<!-- 7ª Fase -->
<g id="node7" class="node">
<title>7ª Fase</title>
<polygon fill="lightgrey" stroke="black" points="1038.3,-731 937.5,-731 937.5,-695 1038.3,-695 1038.3,-731"/>
<text text-anchor="middle" x="987.9" y="-707.58" font-family="Arial" font-size="14.00">7ª Fase</text>
</g>
<!-- 6ª Fase&#45;&gt;7ª Fase -->
<!-- 8ª Fase -->
<g id="node8" class="node">
<title>8ª Fase</title>
<polygon fill="lightgrey" stroke="black" points="1175.1,-731 1074.3,-731 1074.3,-695 1175.1,-695 1175.1,-731"/>
<text text-anchor="middle" x="1124.7" y="-707.58" font-family="Arial" font-size="14.00">8ª Fase</text>
</g>
<!-- 7ª Fase&#45;&gt;8ª Fase -->
<!-- EGR7104 -->
<g id="node9" class="node">
<title>EGR7104</title>
<g id="a_node9"><a xlink:title="Conceituação. Bloqueios mentais, perceptivos, emocionais, culturais e ambientais, intelectuais e de expressão. Desbloqueadores. Técnicas de geração, sistematização e avaliação de ideias.">
<polygon fill="#8dd3c7" stroke="#8dd3c7" points="128.15,-582.75 27.35,-582.75 27.35,-527.25 128.15,-527.25 128.15,-582.75"/>
<text text-anchor="middle" x="77.75" y="-565.45" font-family="Arial" font-size="14.00">EGR7104</text>
<text text-anchor="middle" x="77.75" y="-533.7" font-family="Arial" font-size="14.00">Criatividade</text>
</a>
</g>
</g>
<!-- EGR7115 -->
<g id="node16" class="node">
<title>EGR7115</title>
<g id="a_node16"><a xlink:title="Introdução ao Design. Aspectos históricos e origens do Design e vanguardas artísticas. As influências dos designers de diferentes países. O design moderno e contemporâneo.">
<polygon fill="#8dd3c7" stroke="#8dd3c7" points="275.4,-670.5 174.6,-670.5 174.6,-583.5 275.4,-583.5 275.4,-670.5"/>
<text text-anchor="middle" x="225" y="-653.2" font-family="Arial" font-size="14.00">EGR7115</text>
<text text-anchor="middle" x="225" y="-621.45" font-family="Arial" font-size="14.00">História e</text>
<text text-anchor="middle" x="225" y="-605.7" font-family="Arial" font-size="14.00">Evolução do</text>
<text text-anchor="middle" x="225" y="-589.95" font-family="Arial" font-size="14.00">Design</text>
</a>
</g>
</g>
<!-- EGR7104&#45;&gt;EGR7115 -->
<!-- EGR7116 -->
<g id="node17" class="node">
<title>EGR7116</title>
<g id="a_node17"><a xlink:title="Princípios de teoria da forma; diferentes modelos de ordenamento formal na natureza e nos produtos da cultura humana. Estruturas formais e sistemas de proporção em organizações bidimensionais. Gestalt. Metamorfose e padrões de crescimento; analogias formais; dimensões simbólicas da forma.">
<polygon fill="#8dd3c7" stroke="#8dd3c7" points="282.5,-565.75 167.5,-565.75 167.5,-510.25 282.5,-510.25 282.5,-565.75"/>
<text text-anchor="middle" x="225" y="-548.45" font-family="Arial" font-size="14.00">EGR7116</text>
<text text-anchor="middle" x="225" y="-516.7" font-family="Arial" font-size="14.00">Teoria da Forma</text>
</a>
</g>
</g>
<!-- EGR7104&#45;&gt;EGR7116 -->
<!-- EGR7190 -->
<g id="node18" class="node">
<title>EGR7190</title>
<g id="a_node18"><a xlink:title="Ilustração como técnica de comunicação visual, representação de produtos, personagens e cenários. Ilustração realizada em meio digital. Ilustração Vetorial e Pintura digital.">
<polygon fill="#8dd3c7" stroke="#8dd3c7" points="275.4,-492.62 174.6,-492.62 174.6,-421.38 275.4,-421.38 275.4,-492.62"/>
<text text-anchor="middle" x="225" y="-475.32" font-family="Arial" font-size="14.00">EGR7190</text>
<text text-anchor="middle" x="225" y="-443.57" font-family="Arial" font-size="14.00">Ilustração</text>
<text text-anchor="middle" x="225" y="-427.82" font-family="Arial" font-size="14.00">Digital</text>
</a>
</g>
</g>
<!-- EGR7104&#45;&gt;EGR7190 -->
<!-- EGR7800 -->
<g id="node19" class="node">
<title>EGR7800</title>
<polygon fill="#8dd3c7" stroke="#8dd3c7" points="279.5,-403.62 170.5,-403.62 170.5,-332.38 279.5,-332.38 279.5,-403.62"/>
<text text-anchor="middle" x="225" y="-386.32" font-family="Arial" font-size="14.00">EGR7800</text>
<text text-anchor="middle" x="225" y="-354.57" font-family="Arial" font-size="14.00">Metodologia de</text>
<text text-anchor="middle" x="225" y="-338.82" font-family="Arial" font-size="14.00">Projeto</text>
</g>
<!-- EGR7104&#45;&gt;EGR7800 -->
<!-- EGR7801 -->
<g id="node20" class="node">
<title>EGR7801</title>
<polygon fill="#8dd3c7" stroke="#8dd3c7" points="275.4,-314.5 174.6,-314.5 174.6,-227.5 275.4,-227.5 275.4,-314.5"/>
<text text-anchor="middle" x="225" y="-297.2" font-family="Arial" font-size="14.00">EGR7801</text>
<text text-anchor="middle" x="225" y="-265.45" font-family="Arial" font-size="14.00">Teoria e</text>
<text text-anchor="middle" x="225" y="-249.7" font-family="Arial" font-size="14.00">Prática do</text>
<text text-anchor="middle" x="225" y="-233.95" font-family="Arial" font-size="14.00">Design Social</text>
</g>
<!-- EGR7104&#45;&gt;EGR7801 -->
<!-- EGR7802 -->
<g id="node21" class="node">
<title>EGR7802</title>
<polygon fill="#8dd3c7" stroke="#8dd3c7" points="275.4,-209.62 174.6,-209.62 174.6,-138.38 275.4,-138.38 275.4,-209.62"/>
<text text-anchor="middle" x="225" y="-192.32" font-family="Arial" font-size="14.00">EGR7802</text>
<text text-anchor="middle" x="225" y="-160.57" font-family="Arial" font-size="14.00">Sketch e</text>
<text text-anchor="middle" x="225" y="-144.82" font-family="Arial" font-size="14.00">Rendering</text>
</g>
<!-- EGR7104&#45;&gt;EGR7802 -->
<!-- EGR7803 -->
<g id="node22" class="node">
<title>EGR7803</title>
<polygon fill="#8dd3c7" stroke="#8dd3c7" points="279.5,-120.75 170.5,-120.75 170.5,-65.25 279.5,-65.25 279.5,-120.75"/>
<text text-anchor="middle" x="225" y="-103.45" font-family="Arial" font-size="14.00">EGR7803</text>
<text text-anchor="middle" x="225" y="-71.7" font-family="Arial" font-size="14.00">Modelagem 3D</text>
</g>
<!-- EGR7104&#45;&gt;EGR7803 -->
<!-- EGR7106 -->
<g id="node10" class="node">
<title>EGR7106</title>
<g id="a_node10"><a xlink:title="Projeções ortogonais de sólidos, de figuras planas, de retas e de pontos; Estudo das vistas ortográficas. Perspectiva cavaleira e isométrica; Perspectiva cônica exata; Sombras em épura e em perspectiva.">
<polygon fill="#8dd3c7" stroke="#8dd3c7" points="131.5,-509.62 24,-509.62 24,-438.38 131.5,-438.38 131.5,-509.62"/>
<text text-anchor="middle" x="77.75" y="-492.32" font-family="Arial" font-size="14.00">EGR7106</text>
<text text-anchor="middle" x="77.75" y="-460.57" font-family="Arial" font-size="14.00">Representação</text>
<text text-anchor="middle" x="77.75" y="-444.82" font-family="Arial" font-size="14.00">Gráfica</text>
</a>
</g>
</g>
<!-- EGR7107 -->
<g id="node11" class="node">
<title>EGR7107</title>
<g id="a_node11"><a xlink:title="Estudos dos diferentes movimentos artísticos ocidentais. Artes visuais no Brasil. Estudo comparativo entre os vários movimentos artísticos com enfase na cultura ocidental e contemporânea.">
<polygon fill="#8dd3c7" stroke="#8dd3c7" points="128.15,-420.62 27.35,-420.62 27.35,-349.38 128.15,-349.38 128.15,-420.62"/>
<text text-anchor="middle" x="77.75" y="-403.32" font-family="Arial" font-size="14.00">EGR7107</text>
<text text-anchor="middle" x="77.75" y="-371.57" font-family="Arial" font-size="14.00">História da</text>
<text text-anchor="middle" x="77.75" y="-355.82" font-family="Arial" font-size="14.00">Arte</text>
</a>
</g>
</g>
<!-- EGR7109 -->
<g id="node12" class="node">
<title>EGR7109</title>
<g id="a_node12"><a xlink:title="Cor e percepção visual. Processos fisiológicos. Princípios básicos da física da cor. Cor&#45;Luz e cor&#45;pigmento. Esquemas de composição cromática: harmonias e contrastes. Sistemas de cores: CMYK, RGB, HSB, PANTONE características e usos. A cor em displays. Cor de processo e cor especial. O uso da cor no Design Gráfico. A cor no processo de projeto: conceituação x especificação">
<polygon fill="#8dd3c7" stroke="#8dd3c7" points="128.15,-331.75 27.35,-331.75 27.35,-276.25 128.15,-276.25 128.15,-331.75"/>
<text text-anchor="middle" x="77.75" y="-314.45" font-family="Arial" font-size="14.00">EGR7109</text>
<text text-anchor="middle" x="77.75" y="-282.7" font-family="Arial" font-size="14.00">Teoria da Cor</text>
</a>
</g>
</g>
<!-- EGR7110 -->
<g id="node13" class="node">
<title>EGR7110</title>
<g id="a_node13"><a xlink:title="Malhas e padrões para construções gráficas. Texturas. Dobraduras e modelagens em materiais diversos.">
<polygon fill="#8dd3c7" stroke="#8dd3c7" points="128.15,-257.75 27.35,-257.75 27.35,-202.25 128.15,-202.25 128.15,-257.75"/>
<text text-anchor="middle" x="77.75" y="-240.45" font-family="Arial" font-size="14.00">EGR7110</text>
<text text-anchor="middle" x="77.75" y="-208.7" font-family="Arial" font-size="14.00">Plástica</text>
</a>
</g>
</g>
<!-- EGR7118 -->
<g id="node14" class="node">
<title>EGR7118</title>
<g id="a_node14"><a xlink:title="Conceituações e discussão sobre a relação entre design, cultura e sociedade, com base em princípios antropológicos, políticos, sociológicos, históricos e comunicativos e ênfase no processo de composição e desenvolvimento da atual cultura de mercado na sociedade de consume. Relações Étnico&#45;Raciais. História e Cultura AfroBrasileira, Africana e Indígena. Direitos Humanos.">
<polygon fill="#8dd3c7" stroke="#8dd3c7" points="128.15,-184.62 27.35,-184.62 27.35,-113.38 128.15,-113.38 128.15,-184.62"/>
<text text-anchor="middle" x="77.75" y="-167.32" font-family="Arial" font-size="14.00">EGR7118</text>
<text text-anchor="middle" x="77.75" y="-135.57" font-family="Arial" font-size="14.00">Design e</text>
<text text-anchor="middle" x="77.75" y="-119.83" font-family="Arial" font-size="14.00">Cultura</text>
</a>
</g>
</g>
<!-- GMT7105 -->
<g id="node15" class="node">
<title>GMT7105</title>
<polygon fill="#80b1d3" stroke="#80b1d3" points="128.15,-95.62 27.35,-95.62 27.35,-24.38 128.15,-24.38 128.15,-95.62"/>
<text text-anchor="middle" x="77.75" y="-78.33" font-family="Arial" font-size="14.00">GMT7105</text>
<text text-anchor="middle" x="77.75" y="-46.58" font-family="Arial" font-size="14.00">Desenho de</text>
<text text-anchor="middle" x="77.75" y="-30.82" font-family="Arial" font-size="14.00">Observação</text>
</g>
<!-- EGR5101 -->
<g id="node23" class="node">
<title>EGR5101</title>
<g id="a_node23"><a xlink:title="Introdução à Teoria da Comunicação aplicada ao Design. Introdução a semiologia, definição de termos, considerações históricas, divisão dos signos, textos narrativos, objeto&#45;signo, signo&#45;imagem, teoria dos signos de Peirce, significado e aplicação, dimensão sintática, dimensão semântica e dimensão pragmática, monosemia, polisemia, transição da semiótica a hermenêutica, grafismo, estado da arte.">
<polygon fill="#8dd3c7" stroke="#8dd3c7" points="421.15,-609.75 320.35,-609.75 320.35,-554.25 421.15,-554.25 421.15,-609.75"/>
<text text-anchor="middle" x="370.75" y="-592.45" font-family="Arial" font-size="14.00">EGR5101</text>
<text text-anchor="middle" x="370.75" y="-560.7" font-family="Arial" font-size="14.00">Semiótica</text>
</a>
</g>
</g>
<!-- EGR7803&#45;&gt;EGR5101 -->
<!-- EGR7151 -->
<g id="node24" class="node">
<title>EGR7151</title>
<g id="a_node24"><a xlink:title="Estudo de materiais utilizados em produtos de design: madeiras (naturais e transformadas), cerâmicas (comuns e avançadas), metais (ferrosos e não ferrosos). Estudo comparativo de propriedades, características, pontos fortes, limitações, características ambientais, econômicas, estéticas e fabris dos materiais. Processos fabris dos materiais (conformação mecânica, usinagem, soldagem, fundição, metalurgia do pó, processos modernos de fabricação).">
<polygon fill="#8dd3c7" stroke="#8dd3c7" points="421.15,-536.62 320.35,-536.62 320.35,-465.38 421.15,-465.38 421.15,-536.62"/>
<text text-anchor="middle" x="370.75" y="-519.33" font-family="Arial" font-size="14.00">EGR7151</text>
<text text-anchor="middle" x="370.75" y="-487.57" font-family="Arial" font-size="14.00">Materiais e</text>
<text text-anchor="middle" x="370.75" y="-471.82" font-family="Arial" font-size="14.00">Processos</text>
</a>
</g>
</g>
<!-- EGR7803&#45;&gt;EGR7151 -->
<!-- EGR7257 -->
<g id="node25" class="node">
<title>EGR7257</title>
<g id="a_node25"><a xlink:title="Fundamentos da ergonomia aplicada ao design de produtos/serviços; antropometria e biomecânica aplicada a produtos e sistemas &#45; medidas do corpo como parâmetros para projeto; dispositivos de informação e comando.">
<polygon fill="#8dd3c7" stroke="#8dd3c7" points="421.15,-447.62 320.35,-447.62 320.35,-376.38 421.15,-376.38 421.15,-447.62"/>
<text text-anchor="middle" x="370.75" y="-430.32" font-family="Arial" font-size="14.00">EGR7257</text>
<text text-anchor="middle" x="370.75" y="-398.57" font-family="Arial" font-size="14.00">Ergonomia do</text>
<text text-anchor="middle" x="370.75" y="-382.82" font-family="Arial" font-size="14.00">Produto I</text>
</a>
</g>
</g>
<!-- EGR7803&#45;&gt;EGR7257 -->
<!-- EGR7258 -->
<g id="node26" class="node">
<title>EGR7258</title>
<g id="a_node26"><a xlink:title="Técnicas de modelagem e prototipagem física; modelos e protótipos volumétricos; técnicas e materiais de acabamento superficial; escalas.">
<polygon fill="#8dd3c7" stroke="#8dd3c7" points="421.15,-358.5 320.35,-358.5 320.35,-271.5 421.15,-271.5 421.15,-358.5"/>
<text text-anchor="middle" x="370.75" y="-341.2" font-family="Arial" font-size="14.00">EGR7258</text>
<text text-anchor="middle" x="370.75" y="-309.45" font-family="Arial" font-size="14.00">Oficina de</text>
<text text-anchor="middle" x="370.75" y="-293.7" font-family="Arial" font-size="14.00">Modelos e</text>
<text text-anchor="middle" x="370.75" y="-277.95" font-family="Arial" font-size="14.00">Protótipos</text>
</a>
</g>
</g>
<!-- EGR7803&#45;&gt;EGR7258 -->
<!-- EGR7291 -->
<g id="node27" class="node">
<title>EGR7291</title>
<g id="a_node27"><a xlink:title="Fotografia e linguagem. Usos e funções da fotografia. Fotografia e Design. Prática fotográfica. Imagem Digital: conceito e aplicações. Técnicas básicas de edição de imagem &#45; efeitos.">
<polygon fill="#8dd3c7" stroke="#8dd3c7" points="423,-253.5 318.5,-253.5 318.5,-166.5 423,-166.5 423,-253.5"/>
<text text-anchor="middle" x="370.75" y="-236.2" font-family="Arial" font-size="14.00">EGR7291</text>
<text text-anchor="middle" x="370.75" y="-204.45" font-family="Arial" font-size="14.00">Fotografia e</text>
<text text-anchor="middle" x="370.75" y="-188.7" font-family="Arial" font-size="14.00">Tratamento de</text>
<text text-anchor="middle" x="370.75" y="-172.95" font-family="Arial" font-size="14.00">Imagem</text>
</a>
</g>
</g>
<!-- EGR7803&#45;&gt;EGR7291 -->
<!-- EGR7804 -->
<g id="node28" class="node">
<title>EGR7804</title>
<polygon fill="#8dd3c7" stroke="#8dd3c7" points="421.15,-148.62 320.35,-148.62 320.35,-77.38 421.15,-77.38 421.15,-148.62"/>
<text text-anchor="middle" x="370.75" y="-131.32" font-family="Arial" font-size="14.00">EGR7804</text>
<text text-anchor="middle" x="370.75" y="-99.58" font-family="Arial" font-size="14.00">Projeto de</text>
<text text-anchor="middle" x="370.75" y="-83.83" font-family="Arial" font-size="14.00">Produto 1</text>
</g>
<!-- EGR7803&#45;&gt;EGR7804 -->
<!-- EGR7114 -->
<g id="node29" class="node">
<title>EGR7114</title>
<g id="a_node29"><a xlink:title="Comportamento do consumidor. Perfil de consumidor. Processo de compra. Segmentação e posicionamento de mercado. Posicionamento e mix de comunicação.">
<polygon fill="#8dd3c7" stroke="#8dd3c7" points="578.5,-635.5 459,-635.5 459,-548.5 578.5,-548.5 578.5,-635.5"/>
<text text-anchor="middle" x="518.75" y="-618.2" font-family="Arial" font-size="14.00">EGR7114</text>
<text text-anchor="middle" x="518.75" y="-586.45" font-family="Arial" font-size="14.00">Comportamento</text>
<text text-anchor="middle" x="518.75" y="-570.7" font-family="Arial" font-size="14.00">do Consumidor e</text>
<text text-anchor="middle" x="518.75" y="-554.95" font-family="Arial" font-size="14.00">Economia</text>
</a>
</g>
</g>
<!-- EGR7804&#45;&gt;EGR7114 -->
<!-- EGR7153 -->
<g id="node30" class="node">
<title>EGR7153</title>
<g id="a_node30"><a xlink:title="Estudo de diferentes materiais utilizados na indústria (gessos, papel, polímeros e compósitos). Estudo da estrutura, características, propriedades, aplicações e processos industriais para transformação desses materiais (conformação, usinagem, soldadura, fundição).">
<polygon fill="#8dd3c7" stroke="#8dd3c7" points="569.15,-530.62 468.35,-530.62 468.35,-459.38 569.15,-459.38 569.15,-530.62"/>
<text text-anchor="middle" x="518.75" y="-513.33" font-family="Arial" font-size="14.00">EGR7153</text>
<text text-anchor="middle" x="518.75" y="-481.57" font-family="Arial" font-size="14.00">Materiais e</text>
<text text-anchor="middle" x="518.75" y="-465.82" font-family="Arial" font-size="14.00">Processos II</text>
</a>
</g>
</g>
<!-- EGR7804&#45;&gt;EGR7153 -->
<!-- EGR7261 -->
<g id="node31" class="node">
<title>EGR7261</title>
<g id="a_node31"><a xlink:title="Ergonomia aplicada ao design de produtos/serviços; antropometria e biomecânica aplicada a produtos e sistemas com o uso de instrumentação; design universal e design inclusivo">
<polygon fill="#8dd3c7" stroke="#8dd3c7" points="569.15,-441.62 468.35,-441.62 468.35,-370.38 569.15,-370.38 569.15,-441.62"/>
<text text-anchor="middle" x="518.75" y="-424.32" font-family="Arial" font-size="14.00">EGR7261</text>
<text text-anchor="middle" x="518.75" y="-392.57" font-family="Arial" font-size="14.00">Ergonomia do</text>
<text text-anchor="middle" x="518.75" y="-376.82" font-family="Arial" font-size="14.00">Produto II</text>
</a>
</g>
</g>
<!-- EGR7804&#45;&gt;EGR7261 -->
<!-- EGR7262 -->
<g id="node32" class="node">
<title>EGR7262</title>
<g id="a_node32"><a xlink:title="Normas de segurança. Exercícios de criação de modelos e protótipos em gesso, argila, polímeros. Elaboração de maquetes e modelos funcionais de complexidade alta. O uso de materiais diversificados e alternativos na criação de maquetes e modelos. Introdução à fabricação digital.">
<polygon fill="#8dd3c7" stroke="#8dd3c7" points="569.15,-352.5 468.35,-352.5 468.35,-265.5 569.15,-265.5 569.15,-352.5"/>
<text text-anchor="middle" x="518.75" y="-335.2" font-family="Arial" font-size="14.00">EGR7262</text>
<text text-anchor="middle" x="518.75" y="-303.45" font-family="Arial" font-size="14.00">Oficina de</text>
<text text-anchor="middle" x="518.75" y="-287.7" font-family="Arial" font-size="14.00">Modelos e</text>
<text text-anchor="middle" x="518.75" y="-271.95" font-family="Arial" font-size="14.00">Protótipos II</text>
</a>
</g>
</g>
<!-- EGR7804&#45;&gt;EGR7262 -->
<!-- EGR7280 -->
<g id="node33" class="node">
<title>EGR7280</title>
<g id="a_node33"><a xlink:title="A importância do projeto como forma de organização de ação administrativa; Conceituação geral de projeto e seus elementos básicos; Conceitos de gerenciamento de projetos; Áreas do conhecimento PM&#45;BoK/PMI; Perfil do gestor de projetos; Avaliação e seleção de projetos; Critérios de análise de viabilidade econômica de um projeto; Programas de apoio ao gerenciamento do projeto.">
<polygon fill="#8dd3c7" stroke="#8dd3c7" points="569.15,-247.62 468.35,-247.62 468.35,-176.38 569.15,-176.38 569.15,-247.62"/>
<text text-anchor="middle" x="518.75" y="-230.32" font-family="Arial" font-size="14.00">EGR7280</text>
<text text-anchor="middle" x="518.75" y="-198.57" font-family="Arial" font-size="14.00">Gestão de</text>
<text text-anchor="middle" x="518.75" y="-182.82" font-family="Arial" font-size="14.00">Projetos</text>
</a>
</g>
</g>
<!-- EGR7804&#45;&gt;EGR7280 -->
<!-- EGR7805 -->
<g id="node34" class="node">
<title>EGR7805</title>
<polygon fill="#8dd3c7" stroke="#8dd3c7" points="569.15,-158.62 468.35,-158.62 468.35,-87.38 569.15,-87.38 569.15,-158.62"/>
<text text-anchor="middle" x="518.75" y="-141.32" font-family="Arial" font-size="14.00">EGR7805</text>
<text text-anchor="middle" x="518.75" y="-109.58" font-family="Arial" font-size="14.00">Projeto de</text>
<text text-anchor="middle" x="518.75" y="-93.83" font-family="Arial" font-size="14.00">Produto 2</text>
</g>
<!-- EGR7804&#45;&gt;EGR7805 -->
<!-- EGR7186 -->
<g id="node35" class="node">
<title>EGR7186</title>
<g id="a_node35"><a xlink:title="Design baseado no princípio das três ecologias. Lucro, Qualidade de Vida e Respeito ao Meio Ambiente. Princípios da Sustentabilidade aplicados ao Design.">
<polygon fill="#8dd3c7" stroke="#8dd3c7" points="730.25,-670.62 614.5,-670.62 614.5,-599.38 730.25,-599.38 730.25,-670.62"/>
<text text-anchor="middle" x="672.37" y="-653.33" font-family="Arial" font-size="14.00">EGR7186</text>
<text text-anchor="middle" x="672.37" y="-621.58" font-family="Arial" font-size="14.00">Design e</text>
<text text-anchor="middle" x="672.37" y="-605.83" font-family="Arial" font-size="14.00">Sustentabilidade</text>
</a>
</g>
</g>
<!-- EGR7805&#45;&gt;EGR7186 -->
<!-- EGR7191 -->
<g id="node36" class="node">
<title>EGR7191</title>
<g id="a_node36"><a xlink:title="Introdução ao Marketing. Marketing e Design. Comportamento e satisfação do consumidor. Pesquisa de mercado. Análise SWOT. Segmentação e Posicionamento. Concorrência, planejamento e estratégias. O Composto mercadológico. Marketing Mix. Estudo de casos.">
<polygon fill="#8dd3c7" stroke="#8dd3c7" points="722.77,-581.75 621.97,-581.75 621.97,-526.25 722.77,-526.25 722.77,-581.75"/>
<text text-anchor="middle" x="672.37" y="-564.45" font-family="Arial" font-size="14.00">EGR7191</text>
<text text-anchor="middle" x="672.37" y="-532.7" font-family="Arial" font-size="14.00">Marketing</text>
</a>
</g>
</g>
<!-- EGR7805&#45;&gt;EGR7191 -->
<!-- EGR7193 -->
<g id="node37" class="node">
<title>EGR7193</title>
<g id="a_node37"><a xlink:title="Fases do Método Estatístico; Estatística Descritiva; Estatística Indutiva.">
<polygon fill="#8dd3c7" stroke="#8dd3c7" points="722.77,-508.62 621.97,-508.62 621.97,-437.38 722.77,-437.38 722.77,-508.62"/>
<text text-anchor="middle" x="672.37" y="-491.32" font-family="Arial" font-size="14.00">EGR7193</text>
<text text-anchor="middle" x="672.37" y="-459.57" font-family="Arial" font-size="14.00">Pesquisa em</text>
<text text-anchor="middle" x="672.37" y="-443.82" font-family="Arial" font-size="14.00">Design</text>
</a>
</g>
</g>
<!-- EGR7805&#45;&gt;EGR7193 -->
<!-- EGR7265 -->
<g id="node38" class="node">
<title>EGR7265</title>
<g id="a_node38"><a xlink:title="Modelo, maquete e protótipo, engenharia reversa. Conceitos de prototipagem rápida, ferramental rápido e manufatura rápida. Tecnologias de materialização digital: sistemas aditivos, subtrativos e formativos. Corte a laser.Tecnologias de digitalização 3D">
<polygon fill="#8dd3c7" stroke="#8dd3c7" points="722.77,-419.75 621.97,-419.75 621.97,-364.25 722.77,-364.25 722.77,-419.75"/>
<text text-anchor="middle" x="672.37" y="-402.45" font-family="Arial" font-size="14.00">EGR7265</text>
<text text-anchor="middle" x="672.37" y="-370.7" font-family="Arial" font-size="14.00">Prototipagem</text>
</a>
</g>
</g>
<!-- EGR7805&#45;&gt;EGR7265 -->
<!-- EGR7266 -->
<g id="node39" class="node">
<title>EGR7266</title>
<g id="a_node39"><a xlink:title="Técnicas de modelagem e prototipagem física; modelos e protótipos volumétricos; técnicas e materiais de acabamento superficial; escalas.">
<polygon fill="#8dd3c7" stroke="#8dd3c7" points="726.87,-346.62 617.87,-346.62 617.87,-275.38 726.87,-275.38 726.87,-346.62"/>
<text text-anchor="middle" x="672.37" y="-329.32" font-family="Arial" font-size="14.00">EGR7266</text>
<text text-anchor="middle" x="672.37" y="-297.57" font-family="Arial" font-size="14.00">Modelagem 3D</text>
<text text-anchor="middle" x="672.37" y="-281.82" font-family="Arial" font-size="14.00">Avançada</text>
</a>
</g>
</g>
<!-- EGR7805&#45;&gt;EGR7266 -->
<!-- EGR7267 -->
<g id="node40" class="node">
<title>EGR7267</title>
<g id="a_node40"><a xlink:title="Relação da inovação com a tecnologia e o significado. Ferramentas para pesquisas e desenvovimento de produtos inovadores.">
<polygon fill="#8dd3c7" stroke="#8dd3c7" points="722.77,-257.62 621.97,-257.62 621.97,-186.38 722.77,-186.38 722.77,-257.62"/>
<text text-anchor="middle" x="672.37" y="-240.32" font-family="Arial" font-size="14.00">EGR7267</text>
<text text-anchor="middle" x="672.37" y="-208.57" font-family="Arial" font-size="14.00">Design e</text>
<text text-anchor="middle" x="672.37" y="-192.82" font-family="Arial" font-size="14.00">Inovação</text>
</a>
</g>
</g>
<!-- EGR7805&#45;&gt;EGR7267 -->
<!-- EGR7806 -->
<g id="node41" class="node">
<title>EGR7806</title>
<polygon fill="#8dd3c7" stroke="#8dd3c7" points="722.77,-168.62 621.97,-168.62 621.97,-97.38 722.77,-97.38 722.77,-168.62"/>
<text text-anchor="middle" x="672.37" y="-151.32" font-family="Arial" font-size="14.00">EGR7806</text>
<text text-anchor="middle" x="672.37" y="-119.58" font-family="Arial" font-size="14.00">Projeto de</text>
<text text-anchor="middle" x="672.37" y="-103.83" font-family="Arial" font-size="14.00">Produto 3</text>
</g>
<!-- EGR7805&#45;&gt;EGR7806 -->
<!-- GMT7191 -->
<g id="node42" class="node">
<title>GMT7191</title>
<polygon fill="#80b1d3" stroke="#80b1d3" points="722.77,-79.75 621.97,-79.75 621.97,-24.25 722.77,-24.25 722.77,-79.75"/>
<text text-anchor="middle" x="672.37" y="-62.45" font-family="Arial" font-size="14.00">GMT7191</text>
<text text-anchor="middle" x="672.37" y="-30.7" font-family="Arial" font-size="14.00">Marketing</text>
</g>
<!-- EGR7805&#45;&gt;GMT7191 -->
<!-- EGR7269 -->
<g id="node43" class="node">
<title>EGR7269</title>
<g id="a_node43"><a xlink:title="Materialização da forma. Técnicas e tecnologias de materialização por subtração e adição de material.">
<polygon fill="#8dd3c7" stroke="#8dd3c7" points="885.75,-435.75 782,-435.75 782,-380.25 885.75,-380.25 885.75,-435.75"/>
<text text-anchor="middle" x="833.87" y="-418.45" font-family="Arial" font-size="14.00">EGR7269</text>
<text text-anchor="middle" x="833.87" y="-386.7" font-family="Arial" font-size="14.00">Materialização</text>
</a>
</g>
</g>
<!-- GMT7191&#45;&gt;EGR7269 -->
<!-- EGR7270 -->
<g id="node44" class="node">
<title>EGR7270</title>
<g id="a_node44"><a xlink:title="Design de Interação. Design centrado no usuário. Cognição humana e distribuída. Princípios do design de interação. Metas de usabilidade. Estudo de casos.">
<polygon fill="#8dd3c7" stroke="#8dd3c7" points="884.27,-362.62 783.47,-362.62 783.47,-291.38 884.27,-291.38 884.27,-362.62"/>
<text text-anchor="middle" x="833.87" y="-345.32" font-family="Arial" font-size="14.00">EGR7270</text>
<text text-anchor="middle" x="833.87" y="-313.57" font-family="Arial" font-size="14.00">Design de</text>
<text text-anchor="middle" x="833.87" y="-297.82" font-family="Arial" font-size="14.00">Interação</text>
</a>
</g>
</g>
<!-- GMT7191&#45;&gt;EGR7270 -->
<!-- EGR7271 -->
<g id="node45" class="node">
<title>EGR7271</title>
<g id="a_node45"><a xlink:title="Estudo de tecnologias envolvidas em produtos interativos e &quot;inteligentes&quot; (robótica, programação, sensores, atuadores, controladores, automação, IoT). Estudo dos princípios e características dos produtos interativos, &quot;inteligentes&quot; e Internet das Coisas. Estudo de novas tecnologias e sua aplicação em projetos de design. Introdução aos artefatos digitais e programação.">
<polygon fill="#8dd3c7" stroke="#8dd3c7" points="887.62,-273.5 780.12,-273.5 780.12,-186.5 887.62,-186.5 887.62,-273.5"/>
<text text-anchor="middle" x="833.87" y="-256.2" font-family="Arial" font-size="14.00">EGR7271</text>
<text text-anchor="middle" x="833.87" y="-224.45" font-family="Arial" font-size="14.00">Design e</text>
<text text-anchor="middle" x="833.87" y="-208.7" font-family="Arial" font-size="14.00">Inteligência</text>
<text text-anchor="middle" x="833.87" y="-192.95" font-family="Arial" font-size="14.00">(Smart Design)</text>
</a>
</g>
</g>
<!-- GMT7191&#45;&gt;EGR7271 -->
<!-- EGR7807 -->
<g id="node46" class="node">
<title>EGR7807</title>
<polygon fill="#8dd3c7" stroke="#8dd3c7" points="884.27,-168.62 783.47,-168.62 783.47,-97.38 884.27,-97.38 884.27,-168.62"/>
<text text-anchor="middle" x="833.87" y="-151.32" font-family="Arial" font-size="14.00">EGR7807</text>
<text text-anchor="middle" x="833.87" y="-119.58" font-family="Arial" font-size="14.00">Projeto de</text>
<text text-anchor="middle" x="833.87" y="-103.83" font-family="Arial" font-size="14.00">Produto 4</text>
</g>
<!-- GMT7191&#45;&gt;EGR7807 -->
<!-- GMT7195 -->
<g id="node47" class="node">
<title>GMT7195</title>
<polygon fill="#80b1d3" stroke="#80b1d3" points="901.5,-79.75 766.25,-79.75 766.25,-24.25 901.5,-24.25 901.5,-79.75"/>
<text text-anchor="middle" x="833.87" y="-62.45" font-family="Arial" font-size="14.00">GMT7195</text>
<text text-anchor="middle" x="833.87" y="-30.7" font-family="Arial" font-size="14.00">Empreendedorismo</text>
</g>
<!-- GMT7191&#45;&gt;GMT7195 -->
<!-- EGR7196 -->
<g id="node48" class="node">
<title>EGR7196</title>
<g id="a_node48"><a xlink:title="O Projeto de Conclusão de Curso: normas e procedimentos, documentação, determinação do orientador, montagem da proposta de projeto, etc.">
<polygon fill="#8dd3c7" stroke="#8dd3c7" points="1038.3,-153.75 937.5,-153.75 937.5,-98.25 1038.3,-98.25 1038.3,-153.75"/>
<text text-anchor="middle" x="987.9" y="-136.45" font-family="Arial" font-size="14.00">EGR7196</text>
<text text-anchor="middle" x="987.9" y="-104.7" font-family="Arial" font-size="14.00">PCC 1</text>
</a>
</g>
</g>
<!-- GMT7195&#45;&gt;EGR7196 -->
<!-- EGR7198 -->
<g id="node49" class="node">
<title>EGR7198</title>
<g id="a_node49"><a xlink:title="Cumprimento do programa de atividades de estágio (PAE) em conformidade com as normas da UFSC, do Curso de Design/EGR e com a legislação federal e estadual.">
<polygon fill="#8dd3c7" stroke="#8dd3c7" points="1038.3,-79.75 937.5,-79.75 937.5,-24.25 1038.3,-24.25 1038.3,-79.75"/>
<text text-anchor="middle" x="987.9" y="-62.45" font-family="Arial" font-size="14.00">EGR7198</text>
<text text-anchor="middle" x="987.9" y="-30.7" font-family="Arial" font-size="14.00">Estágio</text>
</a>
</g>
</g>
<!-- GMT7195&#45;&gt;EGR7198 -->
<!-- EGR7197 -->
<g id="node50" class="node">
<title>EGR7197</title>
<g id="a_node50"><a xlink:title="Desenvolvimento de Projeto de conclusão de curso [projeto / pesquisa].">
<polygon fill="#8dd3c7" stroke="#8dd3c7" points="1175.1,-79.75 1074.3,-79.75 1074.3,-24.25 1175.1,-24.25 1175.1,-79.75"/>
<text text-anchor="middle" x="1124.7" y="-62.45" font-family="Arial" font-size="14.00">EGR7197</text>
<text text-anchor="middle" x="1124.7" y="-30.7" font-family="Arial" font-size="14.00">PCC 2</text>
</a>
</g>
</g>
<!-- EGR7198&#45;&gt;EGR7197 -->
</g>
</svg>
