<?xml version="1.0" encoding="UTF-8" standalone="no"?>
<!DOCTYPE svg PUBLIC "-//W3C//DTD SVG 1.1//EN"
 "http://www.w3.org/Graphics/SVG/1.1/DTD/svg11.dtd">
<!-- Generated by graphviz version 9.0.0 (0)
 -->
<!-- Title: grafo_materias Pages: 1 -->
<svg width="1234pt" height="735pt"
 viewBox="0.00 0.00 1234.10 735.00" xmlns="http://www.w3.org/2000/svg" xmlns:xlink="http://www.w3.org/1999/xlink">
<g id="graph0" class="graph" transform="scale(1 1) rotate(0) translate(4 731)">
<title>grafo_materias</title>
<polygon fill="none" stroke="none" points="-4,4 -4,-731 1230.1,-731 1230.1,4 -4,4"/>
<g id="clust1" class="cluster">
<title>cluster_everything</title>
<polygon fill="none" stroke="none" points="8,-8 8,-719 1218.1,-719 1218.1,-8 8,-8"/>
</g>
<g id="clust2" class="cluster">
<title>cluster_header</title>
<polygon fill="none" stroke="none" points="19.72,-659 19.72,-711 1200.38,-711 1200.38,-659 19.72,-659"/>
</g>
<g id="clust3" class="cluster">
<title>cluster_0</title>
<polygon fill="none" stroke="none" points="16,-75 16,-651 140.25,-651 140.25,-75 16,-75"/>
</g>
<g id="clust4" class="cluster">
<title>cluster_1</title>
<polygon fill="none" stroke="none" points="160.25,-16 160.25,-637 291.25,-637 291.25,-16 160.25,-16"/>
</g>
<g id="clust5" class="cluster">
<title>cluster_2</title>
<polygon fill="none" stroke="none" points="311.25,-73 311.25,-543 443,-543 443,-73 311.25,-73"/>
</g>
<g id="clust6" class="cluster">
<title>cluster_3</title>
<polygon fill="none" stroke="none" points="463,-146 463,-617 579.8,-617 579.8,-146 463,-146"/>
</g>
<g id="clust7" class="cluster">
<title>cluster_4</title>
<polygon fill="none" stroke="none" points="599.8,-16 599.8,-502 745.8,-502 745.8,-16 599.8,-16"/>
</g>
<g id="clust8" class="cluster">
<title>cluster_5</title>
<polygon fill="none" stroke="none" points="765.8,-97 765.8,-258 882.6,-258 882.6,-97 765.8,-97"/>
</g>
<g id="clust9" class="cluster">
<title>cluster_6</title>
<polygon fill="none" stroke="none" points="902.6,-62 902.6,-343 1053.85,-343 1053.85,-62 902.6,-62"/>
</g>
<g id="clust10" class="cluster">
<title>cluster_7</title>
<polygon fill="none" stroke="none" points="1073.85,-187 1073.85,-426 1210.1,-426 1210.1,-187 1073.85,-187"/>
</g>
<!-- 1ª Fase -->
<g id="node1" class="node">
<title>1ª Fase</title>
<polygon fill="lightgrey" stroke="black" points="128.53,-703 27.73,-703 27.73,-667 128.53,-667 128.53,-703"/>
<text text-anchor="middle" x="78.12" y="-679.58" font-family="Arial" font-size="14.00">1ª Fase</text>
</g>
<!-- 2ª Fase -->
<g id="node2" class="node">
<title>2ª Fase</title>
<polygon fill="lightgrey" stroke="black" points="276.15,-703 175.35,-703 175.35,-667 276.15,-667 276.15,-703"/>
<text text-anchor="middle" x="225.75" y="-679.58" font-family="Arial" font-size="14.00">2ª Fase</text>
</g>
<!-- 1ª Fase&#45;&gt;2ª Fase -->
<!-- 3ª Fase -->
<g id="node3" class="node">
<title>3ª Fase</title>
<polygon fill="lightgrey" stroke="black" points="427.52,-703 326.73,-703 326.73,-667 427.52,-667 427.52,-703"/>
<text text-anchor="middle" x="377.12" y="-679.58" font-family="Arial" font-size="14.00">3ª Fase</text>
</g>
<!-- 2ª Fase&#45;&gt;3ª Fase -->
<!-- 4ª Fase -->
<g id="node4" class="node">
<title>4ª Fase</title>
<polygon fill="lightgrey" stroke="black" points="571.8,-703 471,-703 471,-667 571.8,-667 571.8,-703"/>
<text text-anchor="middle" x="521.4" y="-679.58" font-family="Arial" font-size="14.00">4ª Fase</text>
</g>
<!-- 3ª Fase&#45;&gt;4ª Fase -->
<!-- 5ª Fase -->
<g id="node5" class="node">
<title>5ª Fase</title>
<polygon fill="lightgrey" stroke="black" points="723.2,-703 622.4,-703 622.4,-667 723.2,-667 723.2,-703"/>
<text text-anchor="middle" x="672.8" y="-679.58" font-family="Arial" font-size="14.00">5ª Fase</text>
</g>
<!-- 4ª Fase&#45;&gt;5ª Fase -->
<!-- 6ª Fase -->
<g id="node6" class="node">
<title>6ª Fase</title>
<polygon fill="lightgrey" stroke="black" points="874.6,-703 773.8,-703 773.8,-667 874.6,-667 874.6,-703"/>
<text text-anchor="middle" x="824.2" y="-679.58" font-family="Arial" font-size="14.00">6ª Fase</text>
</g>
<!-- 5ª Fase&#45;&gt;6ª Fase -->
<!-- 7ª Fase -->
<g id="node7" class="node">
<title>7ª Fase</title>
<polygon fill="lightgrey" stroke="black" points="1028.62,-703 927.82,-703 927.82,-667 1028.62,-667 1028.62,-703"/>
<text text-anchor="middle" x="978.22" y="-679.58" font-family="Arial" font-size="14.00">7ª Fase</text>
</g>
<!-- 6ª Fase&#45;&gt;7ª Fase -->
<!-- 8ª Fase -->
<g id="node8" class="node">
<title>8ª Fase</title>
<polygon fill="lightgrey" stroke="black" points="1192.38,-703 1091.57,-703 1091.57,-667 1192.38,-667 1192.38,-703"/>
<text text-anchor="middle" x="1141.97" y="-679.58" font-family="Arial" font-size="14.00">8ª Fase</text>
</g>
<!-- 7ª Fase&#45;&gt;8ª Fase -->
<!-- EGR5031 -->
<g id="node9" class="node">
<title>EGR5031</title>
<g id="a_node9"><a xlink:title="Design; A atividade como profissão; O exercício da profissão; Desenvolvimento de projeto: Fundamentos metodologicos. Metodologia clássica do design. Funcoes do produto. Análise morfológica.">
<polygon fill="#8dd3c7" stroke="#8dd3c7" points="128.53,-390.75 27.73,-390.75 27.73,-335.25 128.53,-335.25 128.53,-390.75"/>
<text text-anchor="middle" x="78.12" y="-373.45" font-family="Arial" font-size="14.00">EGR5031</text>
<text text-anchor="middle" x="78.12" y="-341.7" font-family="Arial" font-size="14.00">Projeto I</text>
</a>
</g>
</g>
<!-- EGR5032 -->
<g id="node16" class="node">
<title>EGR5032</title>
<g id="a_node16"><a xlink:title="Metodologia de Projeto">
<polygon fill="#8dd3c7" stroke="#8dd3c7" points="276.15,-406.75 175.35,-406.75 175.35,-351.25 276.15,-351.25 276.15,-406.75"/>
<text text-anchor="middle" x="225.75" y="-389.45" font-family="Arial" font-size="14.00">EGR5032</text>
<text text-anchor="middle" x="225.75" y="-357.7" font-family="Arial" font-size="14.00">Projeto II</text>
</a>
</g>
</g>
<!-- EGR5031&#45;&gt;EGR5032 -->
<g id="edge8" class="edge">
<title>EGR5031&#45;&gt;EGR5032</title>
<path fill="none" stroke="#8dd3c7" stroke-width="2" d="M128.93,-357.83C128.93,-357.83 172.35,-357.83 172.35,-357.83"/>
<polygon fill="#8dd3c7" stroke="#8dd3c7" stroke-width="2" points="173.85,-355.33 173.85,-360.33 172.85,-360.33 172.85,-355.33 173.85,-355.33"/>
<polyline fill="none" stroke="#8dd3c7" stroke-width="2" points="174.35,-357.83 171.85,-357.83"/>
</g>
<!-- EGR5031&#45;&gt;EGR5032 -->
<!-- EGR5036 -->
<g id="node17" class="node">
<title>EGR5036</title>
<g id="a_node17"><a xlink:title="Princípios de teoria da forma; diferentes modelos de ordenamento formal na natureza e nos produtos da cultura humana. Estruturas formais e sistemas de proporção em organizações bidimensionais. Gestalt. Metamorfose e padrões de crescimento; analogias formais; dimensões simbólicas da forma.">
<polygon fill="#8dd3c7" stroke="#8dd3c7" points="283.25,-258.75 168.25,-258.75 168.25,-203.25 283.25,-203.25 283.25,-258.75"/>
<text text-anchor="middle" x="225.75" y="-241.45" font-family="Arial" font-size="14.00">EGR5036</text>
<text text-anchor="middle" x="225.75" y="-209.7" font-family="Arial" font-size="14.00">Teoria da Forma</text>
</a>
</g>
</g>
<!-- EGR5031&#45;&gt;EGR5036 -->
<!-- EGR5037 -->
<g id="node18" class="node">
<title>EGR5037</title>
<g id="a_node18"><a xlink:title="Introdução ao Design. Aspectos históricos e origens do Design Design e vanguardas artísticas. As influências dos designers de diferentes países. O design moderno e contemporâneo.">
<polygon fill="#8dd3c7" stroke="#8dd3c7" points="276.15,-111.5 175.35,-111.5 175.35,-24.5 276.15,-24.5 276.15,-111.5"/>
<text text-anchor="middle" x="225.75" y="-94.2" font-family="Arial" font-size="14.00">EGR5037</text>
<text text-anchor="middle" x="225.75" y="-62.45" font-family="Arial" font-size="14.00">História e</text>
<text text-anchor="middle" x="225.75" y="-46.7" font-family="Arial" font-size="14.00">Evolução do</text>
<text text-anchor="middle" x="225.75" y="-30.95" font-family="Arial" font-size="14.00">Design</text>
</a>
</g>
</g>
<!-- EGR5031&#45;&gt;EGR5037 -->
<!-- EGR5042 -->
<g id="node19" class="node">
<title>EGR5042</title>
<g id="a_node19"><a xlink:title="Softwares de modelagem 2D e 3D (3DMax, Maya, etc). Conceitos básicos de modelagem &#45; Tipos de modelagem &#45; Visualização em 3D &#45; Planos de trabalho e/ou referência &#45; Estratégias de criação de modelos &#45; Comandos de modelagem &#45; Edição de modelos &#45; Dimensionamento de 3D &#45; Tratamento superficial.">
<polygon fill="#8dd3c7" stroke="#8dd3c7" points="276.15,-184.75 175.35,-184.75 175.35,-129.25 276.15,-129.25 276.15,-184.75"/>
<text text-anchor="middle" x="225.75" y="-167.45" font-family="Arial" font-size="14.00">EGR5042</text>
<text text-anchor="middle" x="225.75" y="-135.7" font-family="Arial" font-size="14.00">Modelagem II</text>
</a>
</g>
</g>
<!-- EGR5031&#45;&gt;EGR5042 -->
<!-- EGR5056 -->
<g id="node20" class="node">
<title>EGR5056</title>
<g id="a_node20"><a xlink:title="Composição bidimensional. A representação das formas naturais e artificiais. Síntese formal. Leis da Simetria.">
<polygon fill="#8dd3c7" stroke="#8dd3c7" points="276.15,-628.75 175.35,-628.75 175.35,-573.25 276.15,-573.25 276.15,-628.75"/>
<text text-anchor="middle" x="225.75" y="-611.45" font-family="Arial" font-size="14.00">EGR5056</text>
<text text-anchor="middle" x="225.75" y="-579.7" font-family="Arial" font-size="14.00">Composição</text>
</a>
</g>
</g>
<!-- EGR5031&#45;&gt;EGR5056 -->
<!-- EGR5057 -->
<g id="node21" class="node">
<title>EGR5057</title>
<polygon fill="#8dd3c7" stroke="#8dd3c7" points="279.5,-554.75 172,-554.75 172,-499.25 279.5,-499.25 279.5,-554.75"/>
<text text-anchor="middle" x="225.75" y="-537.45" font-family="Arial" font-size="14.00">EGR5057</text>
<text text-anchor="middle" x="225.75" y="-505.7" font-family="Arial" font-size="14.00">Imagem Digital</text>
</g>
<!-- EGR5031&#45;&gt;EGR5057 -->
<!-- EGR5101 -->
<g id="node22" class="node">
<title>EGR5101</title>
<g id="a_node22"><a xlink:title="Introdução à Teoria da Comunicação aplicada ao Design. Introdução a semiologia, definição de termos, considerações históricas, divisão dos signos, textos narrativos, objeto&#45;signo, signo&#45;imagem, teoria dos signos de Peirce, significado e aplicação, dimensão sintática, dimensão semântica e dimensão pragmática, monosemia, polisemia, transição da semiótica a hermenêutica, grafismo, estado da arte.">
<polygon fill="#8dd3c7" stroke="#8dd3c7" points="276.15,-480.75 175.35,-480.75 175.35,-425.25 276.15,-425.25 276.15,-480.75"/>
<text text-anchor="middle" x="225.75" y="-463.45" font-family="Arial" font-size="14.00">EGR5101</text>
<text text-anchor="middle" x="225.75" y="-431.7" font-family="Arial" font-size="14.00">Semiótica</text>
</a>
</g>
</g>
<!-- EGR5031&#45;&gt;EGR5101 -->
<!-- EGR5141 -->
<g id="node23" class="node">
<title>EGR5141</title>
<g id="a_node23"><a xlink:title="Conceituação. Bloqueios e desbloqueadores. Técnicas de geração, sistematização e avaliação de idéias.">
<polygon fill="#8dd3c7" stroke="#8dd3c7" points="276.15,-332.75 175.35,-332.75 175.35,-277.25 276.15,-277.25 276.15,-332.75"/>
<text text-anchor="middle" x="225.75" y="-315.45" font-family="Arial" font-size="14.00">EGR5141</text>
<text text-anchor="middle" x="225.75" y="-283.7" font-family="Arial" font-size="14.00">Criatividade</text>
</a>
</g>
</g>
<!-- EGR5031&#45;&gt;EGR5141 -->
<!-- EGR5033 -->
<g id="node10" class="node">
<title>EGR5033</title>
<g id="a_node10"><a xlink:title="Construções Geométricas; figuras planas e transformações bidimensionais. Desenho tridimensional">
<polygon fill="#8dd3c7" stroke="#8dd3c7" points="131.88,-553.62 24.38,-553.62 24.38,-482.38 131.88,-482.38 131.88,-553.62"/>
<text text-anchor="middle" x="78.12" y="-536.33" font-family="Arial" font-size="14.00">EGR5033</text>
<text text-anchor="middle" x="78.12" y="-504.57" font-family="Arial" font-size="14.00">Métodos de</text>
<text text-anchor="middle" x="78.12" y="-488.82" font-family="Arial" font-size="14.00">Representação</text>
</a>
</g>
</g>
<!-- EGR5034 -->
<g id="node11" class="node">
<title>EGR5034</title>
<g id="a_node11"><a xlink:title="Desenvolvimento da expressão gráfico&#45;plástica e da gramática visual (sintaxe). O desenho como expressão de sentimentos e conceitos. As ferramentas de desenho. A representação através das formas naturais e artificiais. Estudo de luz e sombra. Percepção e composição das estruturas formais.">
<polygon fill="#8dd3c7" stroke="#8dd3c7" points="128.53,-464.75 27.73,-464.75 27.73,-409.25 128.53,-409.25 128.53,-464.75"/>
<text text-anchor="middle" x="78.12" y="-447.45" font-family="Arial" font-size="14.00">EGR5034</text>
<text text-anchor="middle" x="78.12" y="-415.7" font-family="Arial" font-size="14.00">Desenho</text>
</a>
</g>
</g>
<!-- EGR5035 -->
<g id="node12" class="node">
<title>EGR5035</title>
<g id="a_node12"><a xlink:title="Estudos dos diferentes movimentos artísticos ocidentais. Artes visuais no Brasil. Estudo comparativo entre os vários movimentos artísticos com ênfase na cultura ocidental e contemporânea.">
<polygon fill="#8dd3c7" stroke="#8dd3c7" points="128.53,-243.62 27.73,-243.62 27.73,-172.38 128.53,-172.38 128.53,-243.62"/>
<text text-anchor="middle" x="78.12" y="-226.32" font-family="Arial" font-size="14.00">EGR5035</text>
<text text-anchor="middle" x="78.12" y="-194.57" font-family="Arial" font-size="14.00">História da</text>
<text text-anchor="middle" x="78.12" y="-178.82" font-family="Arial" font-size="14.00">Arte</text>
</a>
</g>
</g>
<!-- EGR5035&#45;&gt;EGR5037 -->
<g id="edge9" class="edge">
<title>EGR5035&#45;&gt;EGR5037</title>
<path fill="none" stroke="#8dd3c7" stroke-width="2" d="M128.96,-180.62C151.11,-180.62 172.1,-180.62 172.1,-180.62 172.1,-180.62 172.1,-102.12 172.1,-102.12 172.1,-102.12 172.48,-102.12 172.48,-102.12"/>
<polygon fill="#8dd3c7" stroke="#8dd3c7" stroke-width="2" points="173.98,-99.63 173.98,-104.63 172.98,-104.63 172.98,-99.63 173.98,-99.63"/>
<polyline fill="none" stroke="#8dd3c7" stroke-width="2" points="174.48,-102.13 171.98,-102.13"/>
</g>
<!-- EGR5041 -->
<g id="node13" class="node">
<title>EGR5041</title>
<g id="a_node13"><a xlink:title="Malhas e padrões para construções gráficas. Texturas. Dobraduras e modelagens em materiais diversos.">
<polygon fill="#8dd3c7" stroke="#8dd3c7" points="128.53,-316.75 27.73,-316.75 27.73,-261.25 128.53,-261.25 128.53,-316.75"/>
<text text-anchor="middle" x="78.12" y="-299.45" font-family="Arial" font-size="14.00">EGR5041</text>
<text text-anchor="middle" x="78.12" y="-267.7" font-family="Arial" font-size="14.00">Modelagem I</text>
</a>
</g>
</g>
<!-- EGR5055 -->
<g id="node14" class="node">
<title>EGR5055</title>
<g id="a_node14"><a xlink:title="Introdução da anatomia para artistas; estudo da forma, proporções e linhas implícitas, estruturação por blocos; massa, volume, pose e gestos; músculo e estrutura óssea; estudo do movimento e efeitos sobre a musculatura e anatomia; variações de forma e peso.">
<polygon fill="#8dd3c7" stroke="#8dd3c7" points="128.53,-642.62 27.73,-642.62 27.73,-571.38 128.53,-571.38 128.53,-642.62"/>
<text text-anchor="middle" x="78.12" y="-625.33" font-family="Arial" font-size="14.00">EGR5055</text>
<text text-anchor="middle" x="78.12" y="-593.58" font-family="Arial" font-size="14.00">Desenho de</text>
<text text-anchor="middle" x="78.12" y="-577.83" font-family="Arial" font-size="14.00">Anatomia</text>
</a>
</g>
</g>
<!-- EGR5303 -->
<g id="node26" class="node">
<title>EGR5303</title>
<polygon fill="#8dd3c7" stroke="#8dd3c7" points="427.52,-460.75 326.73,-460.75 326.73,-405.25 427.52,-405.25 427.52,-460.75"/>
<text text-anchor="middle" x="377.12" y="-443.45" font-family="Arial" font-size="14.00">EGR5303</text>
<text text-anchor="middle" x="377.12" y="-411.7" font-family="Arial" font-size="14.00">Projeto III &#45; A</text>
</g>
<!-- EGR5055&#45;&gt;EGR5303 -->
<g id="edge11" class="edge">
<title>EGR5055&#45;&gt;EGR5303</title>
<path fill="none" stroke="#8dd3c7" stroke-width="2" d="M128.9,-591.75C133.86,-591.75 137.1,-591.75 137.1,-591.75 137.1,-591.75 137.1,-419.92 137.1,-419.92 137.1,-419.92 324.02,-419.92 324.02,-419.92"/>
<polygon fill="#8dd3c7" stroke="#8dd3c7" stroke-width="2" points="325.52,-417.42 325.52,-422.42 324.52,-422.42 324.52,-417.42 325.52,-417.42"/>
<polyline fill="none" stroke="#8dd3c7" stroke-width="2" points="326.02,-419.92 323.52,-419.92"/>
</g>
<!-- EGR5110 -->
<g id="node15" class="node">
<title>EGR5110</title>
<g id="a_node15"><a xlink:title="Cor e percepção visual. Processos fisiológicos. Princípios básicos da física da cor. Cor&#45;Luz e cor&#45;pigmento. Esquemas de composição cromática: harmonias e contrastes. Sistemas de cores: CMYK, RGB, HSB, PANTONE características e usos. A cor em displays. Cor de processo e cor especial. O uso da cor no Design Gráfico. A cor no processo de projeto: conceituação x especificação.">
<polygon fill="#8dd3c7" stroke="#8dd3c7" points="132.25,-154.62 24,-154.62 24,-83.38 132.25,-83.38 132.25,-154.62"/>
<text text-anchor="middle" x="78.12" y="-137.32" font-family="Arial" font-size="14.00">EGR5110</text>
<text text-anchor="middle" x="78.12" y="-105.58" font-family="Arial" font-size="14.00">Teoria da Luz e</text>
<text text-anchor="middle" x="78.12" y="-89.83" font-family="Arial" font-size="14.00">Cor</text>
</a>
</g>
</g>
<!-- EGR5032&#45;&gt;EGR5303 -->
<g id="edge10" class="edge">
<title>EGR5032&#45;&gt;EGR5303</title>
<path fill="none" stroke="#8dd3c7" stroke-width="2" d="M276.48,-397.81C320.8,-397.81 378.1,-397.81 378.1,-397.81 378.1,-397.81 378.1,-402.43 378.1,-402.43"/>
<polygon fill="#8dd3c7" stroke="#8dd3c7" stroke-width="2" points="380.6,-403.93 375.6,-403.93 375.6,-402.93 380.6,-402.93 380.6,-403.93"/>
<polyline fill="none" stroke="#8dd3c7" stroke-width="2" points="378.1,-404.43 378.1,-401.93"/>
</g>
<!-- EGR5057&#45;&gt;EGR5303 -->
<g id="edge12" class="edge">
<title>EGR5057&#45;&gt;EGR5303</title>
<path fill="none" stroke="#8dd3c7" stroke-width="2" d="M279.8,-517C296.74,-517 311.1,-517 311.1,-517 311.1,-517 311.1,-443 311.1,-443 311.1,-443 323.91,-443 323.91,-443"/>
<polygon fill="#8dd3c7" stroke="#8dd3c7" stroke-width="2" points="325.41,-440.5 325.41,-445.5 324.41,-445.5 324.41,-440.5 325.41,-440.5"/>
<polyline fill="none" stroke="#8dd3c7" stroke-width="2" points="325.91,-443 323.41,-443"/>
</g>
<!-- EGR5038 -->
<g id="node24" class="node">
<title>EGR5038</title>
<g id="a_node24"><a xlink:title="Conceitos de Ergonomia física e cognitiva e sua relação com o Design.">
<polygon fill="#8dd3c7" stroke="#8dd3c7" points="427.52,-298.75 326.73,-298.75 326.73,-243.25 427.52,-243.25 427.52,-298.75"/>
<text text-anchor="middle" x="377.12" y="-281.45" font-family="Arial" font-size="14.00">EGR5038</text>
<text text-anchor="middle" x="377.12" y="-249.7" font-family="Arial" font-size="14.00">Ergonomia</text>
</a>
</g>
</g>
<!-- EGR5141&#45;&gt;EGR5038 -->
<!-- EGR5040 -->
<g id="node25" class="node">
<title>EGR5040</title>
<g id="a_node25"><a xlink:title="Design baseado no princípio das três ecologias. Lucro, Qualidade de Vida e Respeito ao Meio Ambiente. Princípios da Sustentabilidade aplicados ao Design.">
<polygon fill="#8dd3c7" stroke="#8dd3c7" points="435,-136.75 319.25,-136.75 319.25,-81.25 435,-81.25 435,-136.75"/>
<text text-anchor="middle" x="377.12" y="-119.45" font-family="Arial" font-size="14.00">EGR5040</text>
<text text-anchor="middle" x="377.12" y="-87.7" font-family="Arial" font-size="14.00">Sustentabilidade</text>
</a>
</g>
</g>
<!-- EGR5141&#45;&gt;EGR5040 -->
<!-- EGR5141&#45;&gt;EGR5303 -->
<!-- EGR5310 -->
<g id="node27" class="node">
<title>EGR5310</title>
<polygon fill="#8dd3c7" stroke="#8dd3c7" points="427.52,-225.62 326.73,-225.62 326.73,-154.38 427.52,-154.38 427.52,-225.62"/>
<text text-anchor="middle" x="377.12" y="-208.32" font-family="Arial" font-size="14.00">EGR5310</text>
<text text-anchor="middle" x="377.12" y="-176.57" font-family="Arial" font-size="14.00">Roteiro e</text>
<text text-anchor="middle" x="377.12" y="-160.82" font-family="Arial" font-size="14.00">Storyboard</text>
</g>
<!-- EGR5141&#45;&gt;EGR5310 -->
<!-- EGR5311 -->
<g id="node28" class="node">
<title>EGR5311</title>
<polygon fill="#8dd3c7" stroke="#8dd3c7" points="427.52,-387.62 326.73,-387.62 326.73,-316.38 427.52,-316.38 427.52,-387.62"/>
<text text-anchor="middle" x="377.12" y="-370.32" font-family="Arial" font-size="14.00">EGR5311</text>
<text text-anchor="middle" x="377.12" y="-338.57" font-family="Arial" font-size="14.00">Desenho de</text>
<text text-anchor="middle" x="377.12" y="-322.82" font-family="Arial" font-size="14.00">Cenário</text>
</g>
<!-- EGR5141&#45;&gt;EGR5311 -->
<!-- EGR5313 -->
<g id="node29" class="node">
<title>EGR5313</title>
<polygon fill="#8dd3c7" stroke="#8dd3c7" points="427.52,-534.75 326.73,-534.75 326.73,-479.25 427.52,-479.25 427.52,-534.75"/>
<text text-anchor="middle" x="377.12" y="-517.45" font-family="Arial" font-size="14.00">EGR5313</text>
<text text-anchor="middle" x="377.12" y="-485.7" font-family="Arial" font-size="14.00">Som</text>
</g>
<!-- EGR5141&#45;&gt;EGR5313 -->
<!-- EGR5304 -->
<g id="node34" class="node">
<title>EGR5304</title>
<polygon fill="#8dd3c7" stroke="#8dd3c7" points="571.8,-298.75 471,-298.75 471,-243.25 571.8,-243.25 571.8,-298.75"/>
<text text-anchor="middle" x="521.4" y="-281.45" font-family="Arial" font-size="14.00">EGR5304</text>
<text text-anchor="middle" x="521.4" y="-249.7" font-family="Arial" font-size="14.00">Projeto IV &#45; A</text>
</g>
<!-- EGR5038&#45;&gt;EGR5304 -->
<g id="edge14" class="edge">
<title>EGR5038&#45;&gt;EGR5304</title>
<path fill="none" stroke="#8dd3c7" stroke-width="2" d="M427.99,-261.75C427.99,-261.75 468.01,-261.75 468.01,-261.75"/>
<polygon fill="#8dd3c7" stroke="#8dd3c7" stroke-width="2" points="469.51,-259.25 469.51,-264.25 468.51,-264.25 468.51,-259.25 469.51,-259.25"/>
<polyline fill="none" stroke="#8dd3c7" stroke-width="2" points="470.01,-261.75 467.51,-261.75"/>
</g>
<!-- EGR5303&#45;&gt;EGR5304 -->
<g id="edge15" class="edge">
<title>EGR5303&#45;&gt;EGR5304</title>
<path fill="none" stroke="#8dd3c7" stroke-width="2" d="M427.89,-423.75C439.8,-423.75 449.1,-423.75 449.1,-423.75 449.1,-423.75 449.1,-280.25 449.1,-280.25 449.1,-280.25 468.29,-280.25 468.29,-280.25"/>
<polygon fill="#8dd3c7" stroke="#8dd3c7" stroke-width="2" points="469.79,-277.75 469.79,-282.75 468.79,-282.75 468.79,-277.75 469.79,-277.75"/>
<polyline fill="none" stroke="#8dd3c7" stroke-width="2" points="470.29,-280.25 467.79,-280.25"/>
</g>
<!-- EGR5310&#45;&gt;EGR5304 -->
<g id="edge16" class="edge">
<title>EGR5310&#45;&gt;EGR5304</title>
<path fill="none" stroke="#8dd3c7" stroke-width="2" d="M427.9,-178.12C448.31,-178.12 467.1,-178.12 467.1,-178.12 467.1,-178.12 467.1,-252.5 467.1,-252.5 467.1,-252.5 468.16,-252.5 468.16,-252.5"/>
<polygon fill="#8dd3c7" stroke="#8dd3c7" stroke-width="2" points="469.66,-250 469.66,-255 468.66,-255 468.66,-250 469.66,-250"/>
<polyline fill="none" stroke="#8dd3c7" stroke-width="2" points="470.16,-252.5 467.66,-252.5"/>
</g>
<!-- EGR5311&#45;&gt;EGR5304 -->
<g id="edge17" class="edge">
<title>EGR5311&#45;&gt;EGR5304</title>
<path fill="none" stroke="#8dd3c7" stroke-width="2" d="M427.89,-354.25C437.23,-354.25 444.1,-354.25 444.1,-354.25 444.1,-354.25 444.1,-271 444.1,-271 444.1,-271 468.2,-271 468.2,-271"/>
<polygon fill="#8dd3c7" stroke="#8dd3c7" stroke-width="2" points="469.7,-268.5 469.7,-273.5 468.7,-273.5 468.7,-268.5 469.7,-268.5"/>
<polyline fill="none" stroke="#8dd3c7" stroke-width="2" points="470.2,-271 467.7,-271"/>
</g>
<!-- EGR5043 -->
<g id="node30" class="node">
<title>EGR5043</title>
<g id="a_node30"><a xlink:title="Incorporar elementos de gerencia de projetos, custos, etc Importância do Design como ferramenta estratégica; Conceitos e definições; processos e interdisciplinaridade; relação cliente e métodos de controle; aspectos financeiros; Tecnologia; o Designer como gestor no projeto gráfico. Teoria Geral da Administração (noções); Introdução ao empreendedorismo; Realidade do mercado profissional; Empreendedor Empresário X Empreendedor Empregado; O Profissional Designer Gráfico e o Empreendedor em Design.">
<polygon fill="#8dd3c7" stroke="#8dd3c7" points="571.8,-608.75 471,-608.75 471,-553.25 571.8,-553.25 571.8,-608.75"/>
<text text-anchor="middle" x="521.4" y="-591.45" font-family="Arial" font-size="14.00">EGR5043</text>
<text text-anchor="middle" x="521.4" y="-559.7" font-family="Arial" font-size="14.00">Gestão</text>
</a>
</g>
</g>
<!-- EGR5313&#45;&gt;EGR5043 -->
<!-- EGR5044 -->
<g id="node31" class="node">
<title>EGR5044</title>
<g id="a_node31"><a xlink:title="Teorias de arquitetura da informação para o Design. A organização da informação utilizando projetos estruturados e tecnológica de orientação a objetos.">
<polygon fill="#8dd3c7" stroke="#8dd3c7" points="571.8,-534.75 471,-534.75 471,-479.25 571.8,-479.25 571.8,-534.75"/>
<text text-anchor="middle" x="521.4" y="-517.45" font-family="Arial" font-size="14.00">EGR5044</text>
<text text-anchor="middle" x="521.4" y="-485.7" font-family="Arial" font-size="14.00">Info</text>
</a>
</g>
</g>
<!-- EGR5313&#45;&gt;EGR5044 -->
<!-- EGR5045 -->
<g id="node32" class="node">
<title>EGR5045</title>
<g id="a_node32"><a xlink:title="Fases do Método Estatístico, Estatística Descritiva e Estatística Indutiva.">
<polygon fill="#8dd3c7" stroke="#8dd3c7" points="571.8,-461.62 471,-461.62 471,-390.38 571.8,-390.38 571.8,-461.62"/>
<text text-anchor="middle" x="521.4" y="-444.32" font-family="Arial" font-size="14.00">EGR5045</text>
<text text-anchor="middle" x="521.4" y="-412.57" font-family="Arial" font-size="14.00">Pesquisa em</text>
<text text-anchor="middle" x="521.4" y="-396.82" font-family="Arial" font-size="14.00">Design</text>
</a>
</g>
</g>
<!-- EGR5313&#45;&gt;EGR5045 -->
<!-- EGR5187 -->
<g id="node33" class="node">
<title>EGR5187</title>
<g id="a_node33"><a xlink:title="Conceitos fundamentais. Problemas do MKT. A planificação do MKT. Estratégias de MKT. Comportamento do consumidor. Análise de mercado. Sistemas de informação em Marketing. Segmentação de mercado: Os mercados de trabalho. O Composto mercadológico (4P`s, 4C`s e 4A`s)">
<polygon fill="#8dd3c7" stroke="#8dd3c7" points="571.8,-372.75 471,-372.75 471,-317.25 571.8,-317.25 571.8,-372.75"/>
<text text-anchor="middle" x="521.4" y="-355.45" font-family="Arial" font-size="14.00">EGR5187</text>
<text text-anchor="middle" x="521.4" y="-323.7" font-family="Arial" font-size="14.00">Marketing</text>
</a>
</g>
</g>
<!-- EGR5313&#45;&gt;EGR5187 -->
<!-- EGR5313&#45;&gt;EGR5304 -->
<!-- EGR5312 -->
<g id="node35" class="node">
<title>EGR5312</title>
<polygon fill="#8dd3c7" stroke="#8dd3c7" points="571.8,-225.62 471,-225.62 471,-154.38 571.8,-154.38 571.8,-225.62"/>
<text text-anchor="middle" x="521.4" y="-208.32" font-family="Arial" font-size="14.00">EGR5312</text>
<text text-anchor="middle" x="521.4" y="-176.57" font-family="Arial" font-size="14.00">Animação e</text>
<text text-anchor="middle" x="521.4" y="-160.82" font-family="Arial" font-size="14.00">Cinema</text>
</g>
<!-- EGR5313&#45;&gt;EGR5312 -->
<!-- EGR5305 -->
<g id="node38" class="node">
<title>EGR5305</title>
<polygon fill="#8dd3c7" stroke="#8dd3c7" points="723.2,-493.75 622.4,-493.75 622.4,-438.25 723.2,-438.25 723.2,-493.75"/>
<text text-anchor="middle" x="672.8" y="-476.45" font-family="Arial" font-size="14.00">EGR5305</text>
<text text-anchor="middle" x="672.8" y="-444.7" font-family="Arial" font-size="14.00">Projeto V &#45; A</text>
</g>
<!-- EGR5313&#45;&gt;EGR5305 -->
<g id="edge20" class="edge">
<title>EGR5313&#45;&gt;EGR5305</title>
<path fill="none" stroke="#8dd3c7" stroke-width="2" d="M394.1,-479.14C394.1,-472.6 394.1,-467.5 394.1,-467.5 394.1,-467.5 619.51,-467.5 619.51,-467.5"/>
<polygon fill="#8dd3c7" stroke="#8dd3c7" stroke-width="2" points="621.01,-465 621.01,-470 620.01,-470 620.01,-465 621.01,-465"/>
<polyline fill="none" stroke="#8dd3c7" stroke-width="2" points="621.51,-467.5 619.01,-467.5"/>
</g>
<!-- EGR5304&#45;&gt;EGR5305 -->
<g id="edge18" class="edge">
<title>EGR5304&#45;&gt;EGR5305</title>
<path fill="none" stroke="#8dd3c7" stroke-width="2" d="M572.03,-285.92C575.76,-285.92 578.1,-285.92 578.1,-285.92 578.1,-285.92 578.1,-455.78 578.1,-455.78 578.1,-455.78 619.62,-455.78 619.62,-455.78"/>
<polygon fill="#8dd3c7" stroke="#8dd3c7" stroke-width="2" points="621.12,-453.28 621.12,-458.28 620.12,-458.28 620.12,-453.28 621.12,-453.28"/>
<polyline fill="none" stroke="#8dd3c7" stroke-width="2" points="621.62,-455.78 619.12,-455.78"/>
</g>
<!-- DIR5999 -->
<g id="node36" class="node">
<title>DIR5999</title>
<polygon fill="#80b1d3" stroke="#80b1d3" points="723.2,-420.5 622.4,-420.5 622.4,-333.5 723.2,-333.5 723.2,-420.5"/>
<text text-anchor="middle" x="672.8" y="-403.2" font-family="Arial" font-size="14.00">DIR5999</text>
<text text-anchor="middle" x="672.8" y="-371.45" font-family="Arial" font-size="14.00">Ética</text>
<text text-anchor="middle" x="672.8" y="-355.7" font-family="Arial" font-size="14.00">Profissional e</text>
<text text-anchor="middle" x="672.8" y="-339.95" font-family="Arial" font-size="14.00">Legislação</text>
</g>
<!-- EGR5312&#45;&gt;DIR5999 -->
<!-- EGR5051 -->
<g id="node37" class="node">
<title>EGR5051</title>
<g id="a_node37"><a xlink:title="Etapas e aplicações da captação e do processamento de imagens; aquisição e características de imagens; operações com imagens e aplicações.">
<polygon fill="#8dd3c7" stroke="#8dd3c7" points="723.2,-315.75 622.4,-315.75 622.4,-260.25 723.2,-260.25 723.2,-315.75"/>
<text text-anchor="middle" x="672.8" y="-298.45" font-family="Arial" font-size="14.00">EGR5051</text>
<text text-anchor="middle" x="672.8" y="-266.7" font-family="Arial" font-size="14.00">Fotografia I</text>
</a>
</g>
</g>
<!-- EGR5312&#45;&gt;EGR5051 -->
<!-- EGR5312&#45;&gt;EGR5305 -->
<g id="edge19" class="edge">
<title>EGR5312&#45;&gt;EGR5305</title>
<path fill="none" stroke="#8dd3c7" stroke-width="2" d="M572.01,-212.5C579.14,-212.5 584.1,-212.5 584.1,-212.5 584.1,-212.5 584.1,-449.94 584.1,-449.94 584.1,-449.94 619.47,-449.94 619.47,-449.94"/>
<polygon fill="#8dd3c7" stroke="#8dd3c7" stroke-width="2" points="620.97,-447.44 620.97,-452.44 619.97,-452.44 619.97,-447.44 620.97,-447.44"/>
<polyline fill="none" stroke="#8dd3c7" stroke-width="2" points="621.47,-449.94 618.97,-449.94"/>
</g>
<!-- EGR5312&#45;&gt;EGR5305 -->
<!-- EGR5314 -->
<g id="node39" class="node">
<title>EGR5314</title>
<polygon fill="#8dd3c7" stroke="#8dd3c7" points="723.55,-79.75 622.05,-79.75 622.05,-24.25 723.55,-24.25 723.55,-79.75"/>
<text text-anchor="middle" x="672.8" y="-62.45" font-family="Arial" font-size="14.00">EGR5314</text>
<text text-anchor="middle" x="672.8" y="-30.7" font-family="Arial" font-size="14.00">Pós&#45;Produção</text>
</g>
<!-- EGR5312&#45;&gt;EGR5314 -->
<!-- EGR5316 -->
<g id="node40" class="node">
<title>EGR5316</title>
<polygon fill="#8dd3c7" stroke="#8dd3c7" points="737.8,-168.62 607.8,-168.62 607.8,-97.38 737.8,-97.38 737.8,-168.62"/>
<text text-anchor="middle" x="672.8" y="-151.32" font-family="Arial" font-size="14.00">EGR5316</text>
<text text-anchor="middle" x="672.8" y="-119.58" font-family="Arial" font-size="14.00">Tratamento de</text>
<text text-anchor="middle" x="672.8" y="-103.83" font-family="Arial" font-size="14.00">Imagem Avançado</text>
</g>
<!-- EGR5312&#45;&gt;EGR5316 -->
<!-- FIL5101 -->
<g id="node41" class="node">
<title>FIL5101</title>
<g id="a_node41"><a xlink:title="Filosofia e comunicação. O homem e a linguagem. Ética e comunicação. Expressão visual e estética.">
<polygon fill="#fdb462" stroke="#fdb462" points="723.2,-241.75 622.4,-241.75 622.4,-186.25 723.2,-186.25 723.2,-241.75"/>
<text text-anchor="middle" x="672.8" y="-224.45" font-family="Arial" font-size="14.00">FIL5101</text>
<text text-anchor="middle" x="672.8" y="-192.7" font-family="Arial" font-size="14.00">Filosofia I</text>
</a>
</g>
</g>
<!-- EGR5312&#45;&gt;FIL5101 -->
<!-- EGR5305&#45;&gt;EGR5313 -->
<g id="edge13" class="edge">
<title>EGR5305&#45;&gt;EGR5313</title>
<path fill="none" stroke="#8dd3c7" stroke-width="2" d="M622.03,-473.38C533.7,-473.38 361.1,-473.38 361.1,-473.38 361.1,-473.38 361.1,-476.43 361.1,-476.43"/>
<polygon fill="#8dd3c7" stroke="#8dd3c7" stroke-width="2" points="363.6,-477.93 358.6,-477.93 358.6,-476.93 363.6,-476.93 363.6,-477.93"/>
<polyline fill="none" stroke="#8dd3c7" stroke-width="2" points="361.1,-478.43 361.1,-475.93"/>
</g>
<!-- EGR5306 -->
<g id="node42" class="node">
<title>EGR5306</title>
<polygon fill="#8dd3c7" stroke="#8dd3c7" points="874.6,-160.75 773.8,-160.75 773.8,-105.25 874.6,-105.25 874.6,-160.75"/>
<text text-anchor="middle" x="824.2" y="-143.45" font-family="Arial" font-size="14.00">EGR5306</text>
<text text-anchor="middle" x="824.2" y="-111.7" font-family="Arial" font-size="14.00">Projeto VI &#45; A</text>
</g>
<!-- EGR5305&#45;&gt;EGR5306 -->
<g id="edge21" class="edge">
<title>EGR5305&#45;&gt;EGR5306</title>
<path fill="none" stroke="#8dd3c7" stroke-width="2" d="M723.45,-466C743.61,-466 762.1,-466 762.1,-466 762.1,-466 762.1,-146.88 762.1,-146.88 762.1,-146.88 770.99,-146.88 770.99,-146.88"/>
<polygon fill="#8dd3c7" stroke="#8dd3c7" stroke-width="2" points="772.49,-144.38 772.49,-149.38 771.49,-149.38 771.49,-144.38 772.49,-144.38"/>
<polyline fill="none" stroke="#8dd3c7" stroke-width="2" points="772.99,-146.88 770.49,-146.88"/>
</g>
<!-- EGR5314&#45;&gt;EGR5306 -->
<g id="edge22" class="edge">
<title>EGR5314&#45;&gt;EGR5306</title>
<path fill="none" stroke="#8dd3c7" stroke-width="2" d="M723.94,-74.69C768.18,-74.69 825.1,-74.69 825.1,-74.69 825.1,-74.69 825.1,-102.37 825.1,-102.37"/>
<polygon fill="#8dd3c7" stroke="#8dd3c7" stroke-width="2" points="827.6,-103.87 822.6,-103.87 822.6,-102.87 827.6,-102.87 827.6,-103.87"/>
<polyline fill="none" stroke="#8dd3c7" stroke-width="2" points="825.1,-104.37 825.1,-101.87"/>
</g>
<!-- EGR5316&#45;&gt;EGR5306 -->
<g id="edge23" class="edge">
<title>EGR5316&#45;&gt;EGR5306</title>
<path fill="none" stroke="#8dd3c7" stroke-width="2" d="M737.89,-119.12C737.89,-119.12 770.84,-119.12 770.84,-119.12"/>
<polygon fill="#8dd3c7" stroke="#8dd3c7" stroke-width="2" points="772.34,-116.63 772.34,-121.63 771.34,-121.63 771.34,-116.63 772.34,-116.63"/>
<polyline fill="none" stroke="#8dd3c7" stroke-width="2" points="772.84,-119.13 770.34,-119.13"/>
</g>
<!-- FIL5101&#45;&gt;EGR5306 -->
<!-- SPO5113 -->
<g id="node43" class="node">
<title>SPO5113</title>
<g id="a_node43"><a xlink:title="Conceitos sociológicos e culturais. Modernidade: concepções. Pós&#45;modernidade: concepções. Cultura de massa: conceitos. Hibridação Cultural: o caso específico da América Latina.">
<polygon fill="#ffffb3" stroke="#ffffb3" points="874.6,-249.62 773.8,-249.62 773.8,-178.38 874.6,-178.38 874.6,-249.62"/>
<text text-anchor="middle" x="824.2" y="-232.32" font-family="Arial" font-size="14.00">SPO5113</text>
<text text-anchor="middle" x="824.2" y="-200.57" font-family="Arial" font-size="14.00">Sociologia e</text>
<text text-anchor="middle" x="824.2" y="-184.82" font-family="Arial" font-size="14.00">Cultura</text>
</a>
</g>
</g>
<!-- FIL5101&#45;&gt;SPO5113 -->
<!-- EGR5047 -->
<g id="node44" class="node">
<title>EGR5047</title>
<g id="a_node44"><a xlink:title="O Projeto de Conclusão de Curso: normas e procedimentos, documentação, determinação do orientador, montagem da proposta de projeto, etc.">
<polygon fill="#fb8072" stroke="#fb8072" points="1028.62,-172.38 927.82,-172.38 927.82,-69.62 1028.62,-69.62 1028.62,-172.38"/>
<text text-anchor="middle" x="978.22" y="-155.07" font-family="Arial" font-size="14.00">EGR5047</text>
<text text-anchor="middle" x="978.22" y="-123.33" font-family="Arial" font-size="14.00">Projeto VII</text>
<text text-anchor="middle" x="978.22" y="-107.58" font-family="Arial" font-size="14.00">(Projeto de</text>
<text text-anchor="middle" x="978.22" y="-91.83" font-family="Arial" font-size="14.00">conclusão de</text>
<text text-anchor="middle" x="978.22" y="-76.08" font-family="Arial" font-size="14.00">curso) (TCC)</text>
</a>
</g>
</g>
<!-- EGR5306&#45;&gt;EGR5047 -->
<g id="edge24" class="edge">
<title>EGR5306&#45;&gt;EGR5047</title>
<path fill="none" stroke="#fb8072" stroke-width="2" d="M875.06,-133C875.06,-133 924.92,-133 924.92,-133"/>
<polygon fill="#fb8072" stroke="#fb8072" stroke-width="2" points="926.42,-130.5 926.42,-135.5 925.42,-135.5 925.42,-130.5 926.42,-130.5"/>
<polyline fill="none" stroke="#fb8072" stroke-width="2" points="926.92,-133 924.42,-133"/>
</g>
<!-- SPO5113&#45;&gt;EGR5047 -->
<!-- EGR5049 -->
<g id="node45" class="node">
<title>EGR5049</title>
<g id="a_node45"><a xlink:title="Cumprimento do programa de atividades de estágio (PAE) em conformidade com as normas da UFSC, do Curso de Design/EGR e com a legislação federal e estadual.">
<polygon fill="#8dd3c7" stroke="#8dd3c7" points="1028.62,-261.62 927.82,-261.62 927.82,-190.38 1028.62,-190.38 1028.62,-261.62"/>
<text text-anchor="middle" x="978.22" y="-244.32" font-family="Arial" font-size="14.00">EGR5049</text>
<text text-anchor="middle" x="978.22" y="-212.57" font-family="Arial" font-size="14.00">Estágio</text>
<text text-anchor="middle" x="978.22" y="-196.82" font-family="Arial" font-size="14.00">Obrigatório</text>
</a>
</g>
</g>
<!-- SPO5113&#45;&gt;EGR5049 -->
<!-- EGR7195 -->
<g id="node46" class="node">
<title>EGR7195</title>
<g id="a_node46"><a xlink:title="Empreendedorismo. Conceitos e breve histórico. Profissional empreendedor. O empreendedor nas organizações. Design e empreendedorismo. Noções de Administração do seu próprio negócio. Plano de Negócios.">
<polygon fill="#8dd3c7" stroke="#8dd3c7" points="1045.85,-334.75 910.6,-334.75 910.6,-279.25 1045.85,-279.25 1045.85,-334.75"/>
<text text-anchor="middle" x="978.22" y="-317.45" font-family="Arial" font-size="14.00">EGR7195</text>
<text text-anchor="middle" x="978.22" y="-285.7" font-family="Arial" font-size="14.00">Empreendedorismo</text>
</a>
</g>
</g>
<!-- SPO5113&#45;&gt;EGR7195 -->
<!-- EGR5048 -->
<g id="node47" class="node">
<title>EGR5048</title>
<g id="a_node47"><a xlink:title="Desenvolvimento de Projeto de conclusão de curso [projeto / pesquisa].">
<polygon fill="#fb8072" stroke="#fb8072" points="1192.38,-297.38 1091.57,-297.38 1091.57,-194.62 1192.38,-194.62 1192.38,-297.38"/>
<text text-anchor="middle" x="1141.97" y="-280.07" font-family="Arial" font-size="14.00">EGR5048</text>
<text text-anchor="middle" x="1141.97" y="-248.32" font-family="Arial" font-size="14.00">Projeto VIII</text>
<text text-anchor="middle" x="1141.97" y="-232.57" font-family="Arial" font-size="14.00">(Projeto de</text>
<text text-anchor="middle" x="1141.97" y="-216.82" font-family="Arial" font-size="14.00">conclusão de</text>
<text text-anchor="middle" x="1141.97" y="-201.07" font-family="Arial" font-size="14.00">curso) (TCC)</text>
</a>
</g>
</g>
<!-- EGR7195&#45;&gt;EGR5048 -->
<!-- EGR5699 -->
<g id="node48" class="node">
<title>EGR5699</title>
<polygon fill="#8dd3c7" stroke="#8dd3c7" points="1202.1,-418.38 1081.85,-418.38 1081.85,-315.62 1202.1,-315.62 1202.1,-418.38"/>
<text text-anchor="middle" x="1141.97" y="-401.07" font-family="Arial" font-size="14.00">EGR5699</text>
<text text-anchor="middle" x="1141.97" y="-369.32" font-family="Arial" font-size="14.00">Atividades</text>
<text text-anchor="middle" x="1141.97" y="-353.57" font-family="Arial" font-size="14.00">Complementares</text>
<text text-anchor="middle" x="1141.97" y="-337.82" font-family="Arial" font-size="14.00">para Design de</text>
<text text-anchor="middle" x="1141.97" y="-322.07" font-family="Arial" font-size="14.00">Animação</text>
</g>
<!-- EGR7195&#45;&gt;EGR5699 -->
</g>
</svg>
