<?xml version="1.0" encoding="UTF-8" standalone="no"?>
<!DOCTYPE svg PUBLIC "-//W3C//DTD SVG 1.1//EN"
 "http://www.w3.org/Graphics/SVG/1.1/DTD/svg11.dtd">
<!-- Generated by graphviz version 9.0.0 (0)
 -->
<!-- Title: grafo_materias Pages: 1 -->
<svg width="1140pt" height="676pt"
 viewBox="0.00 0.00 1140.00 676.00" xmlns="http://www.w3.org/2000/svg" xmlns:xlink="http://www.w3.org/1999/xlink">
<g id="graph0" class="graph" transform="scale(1 1) rotate(0) translate(4 672)">
<title>grafo_materias</title>
<polygon fill="none" stroke="none" points="-4,4 -4,-672 1136,-672 1136,4 -4,4"/>
<g id="clust1" class="cluster">
<title>cluster_everything</title>
<polygon fill="none" stroke="none" points="8,-8 8,-660 1124,-660 1124,-8 8,-8"/>
</g>
<g id="clust2" class="cluster">
<title>cluster_header</title>
<polygon fill="none" stroke="none" points="16,-600 16,-652 1116,-652 1116,-600 16,-600"/>
</g>
<g id="clust3" class="cluster">
<title>cluster_0</title>
<polygon fill="none" stroke="none" points="25.75,-16 25.75,-592 146.25,-592 146.25,-16 25.75,-16"/>
</g>
<g id="clust4" class="cluster">
<title>cluster_1</title>
<polygon fill="none" stroke="none" points="187.6,-132 187.6,-592 304.4,-592 304.4,-132 187.6,-132"/>
</g>
<g id="clust5" class="cluster">
<title>cluster_2</title>
<polygon fill="none" stroke="none" points="342.75,-30 342.75,-564 469.25,-564 469.25,-30 342.75,-30"/>
</g>
<g id="clust6" class="cluster">
<title>cluster_3</title>
<polygon fill="none" stroke="none" points="506.5,-240 506.5,-564 625.5,-564 625.5,-240 506.5,-240"/>
</g>
<g id="clust7" class="cluster">
<title>cluster_4</title>
<polygon fill="none" stroke="none" points="663.5,-187 663.5,-584 788.5,-584 788.5,-187 663.5,-187"/>
</g>
<g id="clust8" class="cluster">
<title>cluster_5</title>
<polygon fill="none" stroke="none" points="826.12,-399 826.12,-592 945.88,-592 945.88,-399 826.12,-399"/>
</g>
<g id="clust9" class="cluster">
<title>cluster_6</title>
<polygon fill="none" stroke="none" points="983.12,-512 983.12,-584 1108.88,-584 1108.88,-512 983.12,-512"/>
</g>
<!-- 1ª Fase&#45;Sugestão -->
<g id="node1" class="node">
<title>1ª Fase&#45;Sugestão</title>
<polygon fill="lightgrey" stroke="black" points="148,-644 24,-644 24,-608 148,-608 148,-644"/>
<text text-anchor="middle" x="86" y="-620.58" font-family="Arial" font-size="14.00">1ª Fase&#45;Sugestão</text>
</g>
<!-- 2ª Fase&#45;Sugestão -->
<g id="node2" class="node">
<title>2ª Fase&#45;Sugestão</title>
<polygon fill="lightgrey" stroke="black" points="308,-644 184,-644 184,-608 308,-608 308,-644"/>
<text text-anchor="middle" x="246" y="-620.58" font-family="Arial" font-size="14.00">2ª Fase&#45;Sugestão</text>
</g>
<!-- 1ª Fase&#45;Sugestão&#45;&gt;2ª Fase&#45;Sugestão -->
<!-- 3ª Fase&#45;Sugestão -->
<g id="node3" class="node">
<title>3ª Fase&#45;Sugestão</title>
<polygon fill="lightgrey" stroke="black" points="468,-644 344,-644 344,-608 468,-608 468,-644"/>
<text text-anchor="middle" x="406" y="-620.58" font-family="Arial" font-size="14.00">3ª Fase&#45;Sugestão</text>
</g>
<!-- 2ª Fase&#45;Sugestão&#45;&gt;3ª Fase&#45;Sugestão -->
<!-- 4ª Fase&#45;Sugestão -->
<g id="node4" class="node">
<title>4ª Fase&#45;Sugestão</title>
<polygon fill="lightgrey" stroke="black" points="628,-644 504,-644 504,-608 628,-608 628,-644"/>
<text text-anchor="middle" x="566" y="-620.58" font-family="Arial" font-size="14.00">4ª Fase&#45;Sugestão</text>
</g>
<!-- 3ª Fase&#45;Sugestão&#45;&gt;4ª Fase&#45;Sugestão -->
<!-- 5ª Fase&#45;Sugestão -->
<g id="node5" class="node">
<title>5ª Fase&#45;Sugestão</title>
<polygon fill="lightgrey" stroke="black" points="788,-644 664,-644 664,-608 788,-608 788,-644"/>
<text text-anchor="middle" x="726" y="-620.58" font-family="Arial" font-size="14.00">5ª Fase&#45;Sugestão</text>
</g>
<!-- 4ª Fase&#45;Sugestão&#45;&gt;5ª Fase&#45;Sugestão -->
<!-- 6ª Fase&#45;Sugestão -->
<g id="node6" class="node">
<title>6ª Fase&#45;Sugestão</title>
<polygon fill="lightgrey" stroke="black" points="948,-644 824,-644 824,-608 948,-608 948,-644"/>
<text text-anchor="middle" x="886" y="-620.58" font-family="Arial" font-size="14.00">6ª Fase&#45;Sugestão</text>
</g>
<!-- 5ª Fase&#45;Sugestão&#45;&gt;6ª Fase&#45;Sugestão -->
<!-- 7ª Fase&#45;Sugestão -->
<g id="node7" class="node">
<title>7ª Fase&#45;Sugestão</title>
<polygon fill="lightgrey" stroke="black" points="1108,-644 984,-644 984,-608 1108,-608 1108,-644"/>
<text text-anchor="middle" x="1046" y="-620.58" font-family="Arial" font-size="14.00">7ª Fase&#45;Sugestão</text>
</g>
<!-- 6ª Fase&#45;Sugestão&#45;&gt;7ª Fase&#45;Sugestão -->
<!-- EGR7107 -->
<g id="node8" class="node">
<title>EGR7107</title>
<g id="a_node8"><a xlink:title="Estudos dos diferentes movimentos artísticos ocidentais. Artes visuais no Brasil. Estudo comparativo entre os vários movimentos artísticos com enfase na cultura ocidental e contemporânea.">
<polygon fill="#8dd3c7" stroke="#8dd3c7" points="136.4,-583.62 35.6,-583.62 35.6,-512.38 136.4,-512.38 136.4,-583.62"/>
<text text-anchor="middle" x="86" y="-566.33" font-family="Arial" font-size="14.00">EGR7107</text>
<text text-anchor="middle" x="86" y="-534.58" font-family="Arial" font-size="14.00">História da</text>
<text text-anchor="middle" x="86" y="-518.83" font-family="Arial" font-size="14.00">Arte</text>
</a>
</g>
</g>
<!-- EGR7108 -->
<g id="node15" class="node">
<title>EGR7108</title>
<g id="a_node15"><a xlink:title="Desenho aplicado à Animação. Estratégias estéticas para necessidades e características narrativas. Formas, volumes e espaços. Possibilidades gráficas e definições de público ou demanda para estabelecimento de estilo. Diferenças e semelhanças de abordagens visuais entre animação (TV, cinema e internet), jogos eletrônicos e histórias em quadrinhos.">
<polygon fill="#8dd3c7" stroke="#8dd3c7" points="296.4,-494.62 195.6,-494.62 195.6,-423.38 296.4,-423.38 296.4,-494.62"/>
<text text-anchor="middle" x="246" y="-477.32" font-family="Arial" font-size="14.00">EGR7108</text>
<text text-anchor="middle" x="246" y="-445.57" font-family="Arial" font-size="14.00">Desenho</text>
<text text-anchor="middle" x="246" y="-429.82" font-family="Arial" font-size="14.00">Aplicado</text>
</a>
</g>
</g>
<!-- EGR7107&#45;&gt;EGR7108 -->
<!-- EGR7190 -->
<g id="node16" class="node">
<title>EGR7190</title>
<g id="a_node16"><a xlink:title="Ilustração como técnica de comunicação visual, representação de produtos, personagens e cenários. Ilustração realizada em meio digital. Ilustração Vetorial e Pintura digital.">
<polygon fill="#8dd3c7" stroke="#8dd3c7" points="296.4,-316.62 195.6,-316.62 195.6,-245.38 296.4,-245.38 296.4,-316.62"/>
<text text-anchor="middle" x="246" y="-299.32" font-family="Arial" font-size="14.00">EGR7190</text>
<text text-anchor="middle" x="246" y="-267.57" font-family="Arial" font-size="14.00">Ilustração</text>
<text text-anchor="middle" x="246" y="-251.82" font-family="Arial" font-size="14.00">Digital</text>
</a>
</g>
</g>
<!-- EGR7107&#45;&gt;EGR7190 -->
<!-- EGR7424 -->
<g id="node17" class="node">
<title>EGR7424</title>
<g id="a_node17"><a xlink:title="Narrativa e roteiro: conceito, criação/adaptação e desenvolvimento. Tipos de roteiro. Construção de storyboard. Animatic. Expressividade e linguagem. Cenas, planos e enquadramentos de câmera. Desenvolvimento de roteiros e storyboards em animação.">
<polygon fill="#8dd3c7" stroke="#8dd3c7" points="296.4,-583.62 195.6,-583.62 195.6,-512.38 296.4,-512.38 296.4,-583.62"/>
<text text-anchor="middle" x="246" y="-566.33" font-family="Arial" font-size="14.00">EGR7424</text>
<text text-anchor="middle" x="246" y="-534.58" font-family="Arial" font-size="14.00">Roteiro e</text>
<text text-anchor="middle" x="246" y="-518.83" font-family="Arial" font-size="14.00">Direção</text>
</a>
</g>
</g>
<!-- EGR7107&#45;&gt;EGR7424 -->
<!-- GMT7411 -->
<g id="node18" class="node">
<title>GMT7411</title>
<polygon fill="#80b1d3" stroke="#80b1d3" points="296.4,-227.5 195.6,-227.5 195.6,-140.5 296.4,-140.5 296.4,-227.5"/>
<text text-anchor="middle" x="246" y="-210.2" font-family="Arial" font-size="14.00">GMT7411</text>
<text text-anchor="middle" x="246" y="-178.45" font-family="Arial" font-size="14.00">Narrativa e</text>
<text text-anchor="middle" x="246" y="-162.7" font-family="Arial" font-size="14.00">Linguagem</text>
<text text-anchor="middle" x="246" y="-146.95" font-family="Arial" font-size="14.00">Visual</text>
</g>
<!-- EGR7107&#45;&gt;GMT7411 -->
<!-- GMT7434 -->
<g id="node19" class="node">
<title>GMT7434</title>
<polygon fill="#80b1d3" stroke="#80b1d3" points="296.4,-405.62 195.6,-405.62 195.6,-334.38 296.4,-334.38 296.4,-405.62"/>
<text text-anchor="middle" x="246" y="-388.32" font-family="Arial" font-size="14.00">GMT7434</text>
<text text-anchor="middle" x="246" y="-356.57" font-family="Arial" font-size="14.00">Princípios de</text>
<text text-anchor="middle" x="246" y="-340.82" font-family="Arial" font-size="14.00">Animação</text>
</g>
<!-- EGR7107&#45;&gt;GMT7434 -->
<!-- EGR7109 -->
<g id="node9" class="node">
<title>EGR7109</title>
<g id="a_node9"><a xlink:title="Cor e percepção visual. Processos fisiológicos. Princípios básicos da física da cor. Cor&#45;Luz e cor&#45;pigmento. Esquemas de composição cromática: harmonias e contrastes. Sistemas de cores: CMYK, RGB, HSB, PANTONE características e usos. A cor em displays. Cor de processo e cor especial. O uso da cor no Design Gráfico. A cor no processo de projeto: conceituação x especificação">
<polygon fill="#8dd3c7" stroke="#8dd3c7" points="136.4,-494.75 35.6,-494.75 35.6,-439.25 136.4,-439.25 136.4,-494.75"/>
<text text-anchor="middle" x="86" y="-477.45" font-family="Arial" font-size="14.00">EGR7109</text>
<text text-anchor="middle" x="86" y="-445.7" font-family="Arial" font-size="14.00">Teoria da Cor</text>
</a>
</g>
</g>
<!-- EGR7110 -->
<g id="node10" class="node">
<title>EGR7110</title>
<g id="a_node10"><a xlink:title="Malhas e padrões para construções gráficas. Texturas. Dobraduras e modelagens em materiais diversos.">
<polygon fill="#8dd3c7" stroke="#8dd3c7" points="136.4,-420.75 35.6,-420.75 35.6,-365.25 136.4,-365.25 136.4,-420.75"/>
<text text-anchor="middle" x="86" y="-403.45" font-family="Arial" font-size="14.00">EGR7110</text>
<text text-anchor="middle" x="86" y="-371.7" font-family="Arial" font-size="14.00">Plástica</text>
</a>
</g>
</g>
<!-- EGR7113 -->
<g id="node11" class="node">
<title>EGR7113</title>
<g id="a_node11"><a xlink:title="Introdução à Teoria da Comunicação aplicada ao Design. Introdução a semiologia, definição de termos, considerações históricas, divisão dos signos, textos narrativos, objeto&#45;signo, signo&#45;imagem. Teoria dos signos de Peirce, significado e aplicação, dimensões: sintática, semântica e pragmática. As triconomias e as tríades dos signos">
<polygon fill="#8dd3c7" stroke="#8dd3c7" points="136.4,-346.75 35.6,-346.75 35.6,-291.25 136.4,-291.25 136.4,-346.75"/>
<text text-anchor="middle" x="86" y="-329.45" font-family="Arial" font-size="14.00">EGR7113</text>
<text text-anchor="middle" x="86" y="-297.7" font-family="Arial" font-size="14.00">Semiótica</text>
</a>
</g>
</g>
<!-- EGR7113&#45;&gt;GMT7411 -->
<g id="edge7" class="edge">
<title>EGR7113&#45;&gt;GMT7411</title>
<path fill="none" stroke="#80b1d3" stroke-width="2" d="M136.84,-299.71C146.68,-299.71 154,-299.71 154,-299.71 154,-299.71 154,-214.94 154,-214.94 154,-214.94 192.66,-214.94 192.66,-214.94"/>
<polygon fill="#80b1d3" stroke="#80b1d3" stroke-width="2" points="194.16,-212.44 194.16,-217.44 193.16,-217.44 193.16,-212.44 194.16,-212.44"/>
<polyline fill="none" stroke="#80b1d3" stroke-width="2" points="194.66,-214.94 192.16,-214.94"/>
</g>
<!-- EGR7192 -->
<g id="node12" class="node">
<title>EGR7192</title>
<g id="a_node12"><a xlink:title="Imagem Digital: conceito e aplicações. Técnicas de edição de imagem &#45; efeitos. Recursos tecnológicos: softwares para tratamento de imagem e extensões (sufixos) e suas aplicações.">
<polygon fill="#8dd3c7" stroke="#8dd3c7" points="138.25,-273.62 33.75,-273.62 33.75,-202.38 138.25,-202.38 138.25,-273.62"/>
<text text-anchor="middle" x="86" y="-256.32" font-family="Arial" font-size="14.00">EGR7192</text>
<text text-anchor="middle" x="86" y="-224.57" font-family="Arial" font-size="14.00">Tratamento de</text>
<text text-anchor="middle" x="86" y="-208.82" font-family="Arial" font-size="14.00">Imagem I</text>
</a>
</g>
</g>
<!-- EGR7423 -->
<g id="node21" class="node">
<title>EGR7423</title>
<g id="a_node21"><a xlink:title="Edição e composição de elementos visuais animados. Timing e tipos de montagem (métrica e rítmica). Ferramentas de corte e transição. Impactos narrativos e tipos de mensagem de acordo com tipo de edição.">
<polygon fill="#8dd3c7" stroke="#8dd3c7" points="461.25,-125.5 350.75,-125.5 350.75,-38.5 461.25,-38.5 461.25,-125.5"/>
<text text-anchor="middle" x="406" y="-108.2" font-family="Arial" font-size="14.00">EGR7423</text>
<text text-anchor="middle" x="406" y="-76.45" font-family="Arial" font-size="14.00">Edição e</text>
<text text-anchor="middle" x="406" y="-60.7" font-family="Arial" font-size="14.00">Composição de</text>
<text text-anchor="middle" x="406" y="-44.95" font-family="Arial" font-size="14.00">Vídeo</text>
</a>
</g>
</g>
<!-- EGR7192&#45;&gt;EGR7423 -->
<g id="edge9" class="edge">
<title>EGR7192&#45;&gt;EGR7423</title>
<path fill="none" stroke="#8dd3c7" stroke-width="2" d="M138.65,-208.66C141.96,-208.66 144,-208.66 144,-208.66 144,-208.66 144,-117.42 144,-117.42 144,-117.42 347.94,-117.42 347.94,-117.42"/>
<polygon fill="#8dd3c7" stroke="#8dd3c7" stroke-width="2" points="349.44,-114.92 349.44,-119.92 348.44,-119.92 348.44,-114.92 349.44,-114.92"/>
<polyline fill="none" stroke="#8dd3c7" stroke-width="2" points="349.94,-117.42 347.44,-117.42"/>
</g>
<!-- GMT7105 -->
<g id="node13" class="node">
<title>GMT7105</title>
<polygon fill="#80b1d3" stroke="#80b1d3" points="136.4,-184.62 35.6,-184.62 35.6,-113.38 136.4,-113.38 136.4,-184.62"/>
<text text-anchor="middle" x="86" y="-167.32" font-family="Arial" font-size="14.00">GMT7105</text>
<text text-anchor="middle" x="86" y="-135.57" font-family="Arial" font-size="14.00">Desenho de</text>
<text text-anchor="middle" x="86" y="-119.83" font-family="Arial" font-size="14.00">Observação</text>
</g>
<!-- GMT7212 -->
<g id="node14" class="node">
<title>GMT7212</title>
<polygon fill="#80b1d3" stroke="#80b1d3" points="136.4,-95.62 35.6,-95.62 35.6,-24.38 136.4,-24.38 136.4,-95.62"/>
<text text-anchor="middle" x="86" y="-78.33" font-family="Arial" font-size="14.00">GMT7212</text>
<text text-anchor="middle" x="86" y="-46.58" font-family="Arial" font-size="14.00">Animação e</text>
<text text-anchor="middle" x="86" y="-30.82" font-family="Arial" font-size="14.00">Cinema</text>
</g>
<!-- GMT5026 -->
<g id="node23" class="node">
<title>GMT5026</title>
<polygon fill="#80b1d3" stroke="#80b1d3" points="459.38,-466.5 352.62,-466.5 352.62,-379.5 459.38,-379.5 459.38,-466.5"/>
<text text-anchor="middle" x="406" y="-449.2" font-family="Arial" font-size="14.00">GMT5026</text>
<text text-anchor="middle" x="406" y="-417.45" font-family="Arial" font-size="14.00">Design de</text>
<text text-anchor="middle" x="406" y="-401.7" font-family="Arial" font-size="14.00">Personagens e</text>
<text text-anchor="middle" x="406" y="-385.95" font-family="Arial" font-size="14.00">Concept Art</text>
</g>
<!-- EGR7108&#45;&gt;GMT5026 -->
<g id="edge10" class="edge">
<title>EGR7108&#45;&gt;GMT5026</title>
<path fill="none" stroke="#80b1d3" stroke-width="2" d="M296.62,-444.94C296.62,-444.94 349.89,-444.94 349.89,-444.94"/>
<polygon fill="#80b1d3" stroke="#80b1d3" stroke-width="2" points="351.39,-442.44 351.39,-447.44 350.39,-447.44 350.39,-442.44 351.39,-442.44"/>
<polyline fill="none" stroke="#80b1d3" stroke-width="2" points="351.89,-444.94 349.39,-444.94"/>
</g>
<!-- GMT7431 -->
<g id="node25" class="node">
<title>GMT7431</title>
<polygon fill="#80b1d3" stroke="#80b1d3" points="456.4,-555.62 355.6,-555.62 355.6,-484.38 456.4,-484.38 456.4,-555.62"/>
<text text-anchor="middle" x="406" y="-538.33" font-family="Arial" font-size="14.00">GMT7431</text>
<text text-anchor="middle" x="406" y="-506.57" font-family="Arial" font-size="14.00">Design de</text>
<text text-anchor="middle" x="406" y="-490.82" font-family="Arial" font-size="14.00">Cenários</text>
</g>
<!-- EGR7108&#45;&gt;GMT7431 -->
<g id="edge12" class="edge">
<title>EGR7108&#45;&gt;GMT7431</title>
<path fill="none" stroke="#80b1d3" stroke-width="2" d="M296.62,-491.21C296.62,-491.21 352.66,-491.21 352.66,-491.21"/>
<polygon fill="#80b1d3" stroke="#80b1d3" stroke-width="2" points="354.16,-488.71 354.16,-493.71 353.16,-493.71 353.16,-488.71 354.16,-488.71"/>
<polyline fill="none" stroke="#80b1d3" stroke-width="2" points="354.66,-491.21 352.16,-491.21"/>
</g>
<!-- EGR7422 -->
<g id="node20" class="node">
<title>EGR7422</title>
<g id="a_node20"><a xlink:title="Som &#45; Conceito, especificações e técnicas; Equipamentos e estúdio; Som em animação &#45; captura, efeitos, e sincronia. Trilha sonora &#45; criação, gravação e edição. Softwares de edição de som &#45; tipos, técnica e aplicação prática">
<polygon fill="#8dd3c7" stroke="#8dd3c7" points="460.12,-198.75 351.88,-198.75 351.88,-143.25 460.12,-143.25 460.12,-198.75"/>
<text text-anchor="middle" x="406" y="-181.45" font-family="Arial" font-size="14.00">EGR7422</text>
<text text-anchor="middle" x="406" y="-149.7" font-family="Arial" font-size="14.00">Edição de Som</text>
</a>
</g>
</g>
<!-- GMT7411&#45;&gt;EGR7422 -->
<g id="edge8" class="edge">
<title>GMT7411&#45;&gt;EGR7422</title>
<path fill="none" stroke="#8dd3c7" stroke-width="2" d="M296.62,-161.75C296.62,-161.75 349.05,-161.75 349.05,-161.75"/>
<polygon fill="#8dd3c7" stroke="#8dd3c7" stroke-width="2" points="350.55,-159.25 350.55,-164.25 349.55,-164.25 349.55,-159.25 350.55,-159.25"/>
<polyline fill="none" stroke="#8dd3c7" stroke-width="2" points="351.05,-161.75 348.55,-161.75"/>
</g>
<!-- GMT7425 -->
<g id="node24" class="node">
<title>GMT7425</title>
<polygon fill="#80b1d3" stroke="#80b1d3" points="456.4,-272.75 355.6,-272.75 355.6,-217.25 456.4,-217.25 456.4,-272.75"/>
<text text-anchor="middle" x="406" y="-255.45" font-family="Arial" font-size="14.00">GMT7425</text>
<text text-anchor="middle" x="406" y="-223.7" font-family="Arial" font-size="14.00">Projeto 1</text>
</g>
<!-- GMT7411&#45;&gt;GMT7425 -->
<g id="edge11" class="edge">
<title>GMT7411&#45;&gt;GMT7425</title>
<path fill="none" stroke="#80b1d3" stroke-width="2" d="M296.62,-222.38C296.62,-222.38 352.66,-222.38 352.66,-222.38"/>
<polygon fill="#80b1d3" stroke="#80b1d3" stroke-width="2" points="354.16,-219.88 354.16,-224.88 353.16,-224.88 353.16,-219.88 354.16,-219.88"/>
<polyline fill="none" stroke="#80b1d3" stroke-width="2" points="354.66,-222.38 352.16,-222.38"/>
</g>
<!-- GMT7434&#45;&gt;EGR7422 -->
<!-- GMT7434&#45;&gt;EGR7423 -->
<!-- GMT5014 -->
<g id="node22" class="node">
<title>GMT5014</title>
<polygon fill="#80b1d3" stroke="#80b1d3" points="456.4,-361.62 355.6,-361.62 355.6,-290.38 456.4,-290.38 456.4,-361.62"/>
<text text-anchor="middle" x="406" y="-344.32" font-family="Arial" font-size="14.00">GMT5014</text>
<text text-anchor="middle" x="406" y="-312.57" font-family="Arial" font-size="14.00">Gestão de</text>
<text text-anchor="middle" x="406" y="-296.82" font-family="Arial" font-size="14.00">Projetos</text>
</g>
<!-- GMT7434&#45;&gt;GMT5014 -->
<!-- GMT7434&#45;&gt;GMT5026 -->
<!-- GMT7434&#45;&gt;GMT7425 -->
<!-- GMT7434&#45;&gt;GMT7431 -->
<!-- GMT7481 -->
<g id="node29" class="node">
<title>GMT7481</title>
<polygon fill="#80b1d3" stroke="#80b1d3" points="616.4,-555.62 515.6,-555.62 515.6,-484.38 616.4,-484.38 616.4,-555.62"/>
<text text-anchor="middle" x="566" y="-538.33" font-family="Arial" font-size="14.00">GMT7481</text>
<text text-anchor="middle" x="566" y="-506.57" font-family="Arial" font-size="14.00">Animação de</text>
<text text-anchor="middle" x="566" y="-490.82" font-family="Arial" font-size="14.00">Personagens</text>
</g>
<!-- GMT7434&#45;&gt;GMT7481 -->
<g id="edge15" class="edge">
<title>GMT7434&#45;&gt;GMT7481</title>
<path fill="none" stroke="#80b1d3" stroke-width="2" d="M296.88,-370.56C364.08,-370.56 474,-370.56 474,-370.56 474,-370.56 474,-496.25 474,-496.25 474,-496.25 512.66,-496.25 512.66,-496.25"/>
<polygon fill="#80b1d3" stroke="#80b1d3" stroke-width="2" points="514.16,-493.75 514.16,-498.75 513.16,-498.75 513.16,-493.75 514.16,-493.75"/>
<polyline fill="none" stroke="#80b1d3" stroke-width="2" points="514.66,-496.25 512.16,-496.25"/>
</g>
<!-- GMT5030 -->
<g id="node26" class="node">
<title>GMT5030</title>
<polygon fill="#80b1d3" stroke="#80b1d3" points="617.5,-319.62 514.5,-319.62 514.5,-248.38 617.5,-248.38 617.5,-319.62"/>
<text text-anchor="middle" x="566" y="-302.32" font-family="Arial" font-size="14.00">GMT5030</text>
<text text-anchor="middle" x="566" y="-270.57" font-family="Arial" font-size="14.00">Laboratório de</text>
<text text-anchor="middle" x="566" y="-254.82" font-family="Arial" font-size="14.00">Animação</text>
</g>
<!-- GMT7425&#45;&gt;GMT5030 -->
<g id="edge13" class="edge">
<title>GMT7425&#45;&gt;GMT5030</title>
<path fill="none" stroke="#80b1d3" stroke-width="2" d="M456.62,-256.5C456.62,-256.5 511.55,-256.5 511.55,-256.5"/>
<polygon fill="#80b1d3" stroke="#80b1d3" stroke-width="2" points="513.05,-254 513.05,-259 512.05,-259 512.05,-254 513.05,-254"/>
<polyline fill="none" stroke="#80b1d3" stroke-width="2" points="513.55,-256.5 511.05,-256.5"/>
</g>
<!-- GMT7435 -->
<g id="node28" class="node">
<title>GMT7435</title>
<polygon fill="#80b1d3" stroke="#80b1d3" points="616.4,-392.75 515.6,-392.75 515.6,-337.25 616.4,-337.25 616.4,-392.75"/>
<text text-anchor="middle" x="566" y="-375.45" font-family="Arial" font-size="14.00">GMT7435</text>
<text text-anchor="middle" x="566" y="-343.7" font-family="Arial" font-size="14.00">Projeto 2</text>
</g>
<!-- GMT7425&#45;&gt;GMT7435 -->
<g id="edge14" class="edge">
<title>GMT7425&#45;&gt;GMT7435</title>
<path fill="none" stroke="#80b1d3" stroke-width="2" d="M456.52,-264.62C475.24,-264.62 492,-264.62 492,-264.62 492,-264.62 492,-349.44 492,-349.44 492,-349.44 512.91,-349.44 512.91,-349.44"/>
<polygon fill="#80b1d3" stroke="#80b1d3" stroke-width="2" points="514.41,-346.94 514.41,-351.94 513.41,-351.94 513.41,-346.94 514.41,-346.94"/>
<polyline fill="none" stroke="#80b1d3" stroke-width="2" points="514.91,-349.44 512.41,-349.44"/>
</g>
<!-- GMT7431&#45;&gt;GMT5030 -->
<!-- GMT7129 -->
<g id="node27" class="node">
<title>GMT7129</title>
<polygon fill="#80b1d3" stroke="#80b1d3" points="616.4,-466.75 515.6,-466.75 515.6,-411.25 616.4,-411.25 616.4,-466.75"/>
<text text-anchor="middle" x="566" y="-449.45" font-family="Arial" font-size="14.00">GMT7129</text>
<text text-anchor="middle" x="566" y="-417.7" font-family="Arial" font-size="14.00">Stop&#45;motion</text>
</g>
<!-- GMT7431&#45;&gt;GMT7129 -->
<!-- GMT7431&#45;&gt;GMT7435 -->
<!-- GMT7431&#45;&gt;GMT7481 -->
<!-- GMT7251 -->
<g id="node30" class="node">
<title>GMT7251</title>
<polygon fill="#80b1d3" stroke="#80b1d3" points="779.38,-502.62 672.62,-502.62 672.62,-431.38 779.38,-431.38 779.38,-502.62"/>
<text text-anchor="middle" x="726" y="-485.32" font-family="Arial" font-size="14.00">GMT7251</text>
<text text-anchor="middle" x="726" y="-453.57" font-family="Arial" font-size="14.00">Modelagem de</text>
<text text-anchor="middle" x="726" y="-437.82" font-family="Arial" font-size="14.00">Personagens</text>
</g>
<!-- GMT7435&#45;&gt;GMT7251 -->
<g id="edge16" class="edge">
<title>GMT7435&#45;&gt;GMT7251</title>
<path fill="none" stroke="#80b1d3" stroke-width="2" d="M616.89,-375.5C622.37,-375.5 626,-375.5 626,-375.5 626,-375.5 626,-449.06 626,-449.06 626,-449.06 669.69,-449.06 669.69,-449.06"/>
<polygon fill="#80b1d3" stroke="#80b1d3" stroke-width="2" points="671.19,-446.56 671.19,-451.56 670.19,-451.56 670.19,-446.56 671.19,-446.56"/>
<polyline fill="none" stroke="#80b1d3" stroke-width="2" points="671.69,-449.06 669.19,-449.06"/>
</g>
<!-- GMT7441 -->
<g id="node31" class="node">
<title>GMT7441</title>
<polygon fill="#80b1d3" stroke="#80b1d3" points="776.4,-413.75 675.6,-413.75 675.6,-358.25 776.4,-358.25 776.4,-413.75"/>
<text text-anchor="middle" x="726" y="-396.45" font-family="Arial" font-size="14.00">GMT7441</text>
<text text-anchor="middle" x="726" y="-364.7" font-family="Arial" font-size="14.00">Animação 3D</text>
</g>
<!-- GMT7435&#45;&gt;GMT7441 -->
<g id="edge17" class="edge">
<title>GMT7435&#45;&gt;GMT7441</title>
<path fill="none" stroke="#80b1d3" stroke-width="2" d="M616.62,-366.88C616.62,-366.88 672.66,-366.88 672.66,-366.88"/>
<polygon fill="#80b1d3" stroke="#80b1d3" stroke-width="2" points="674.16,-364.38 674.16,-369.38 673.16,-369.38 673.16,-364.38 674.16,-364.38"/>
<polyline fill="none" stroke="#80b1d3" stroke-width="2" points="674.66,-366.88 672.16,-366.88"/>
</g>
<!-- GMT7443 -->
<g id="node32" class="node">
<title>GMT7443</title>
<polygon fill="#80b1d3" stroke="#80b1d3" points="780.5,-339.75 671.5,-339.75 671.5,-284.25 780.5,-284.25 780.5,-339.75"/>
<text text-anchor="middle" x="726" y="-322.45" font-family="Arial" font-size="14.00">GMT7443</text>
<text text-anchor="middle" x="726" y="-290.7" font-family="Arial" font-size="14.00">Modelagem 3D</text>
</g>
<!-- GMT7435&#45;&gt;GMT7443 -->
<g id="edge18" class="edge">
<title>GMT7435&#45;&gt;GMT7443</title>
<path fill="none" stroke="#80b1d3" stroke-width="2" d="M566,-337.14C566,-330.6 566,-325.5 566,-325.5 566,-325.5 668.88,-325.5 668.88,-325.5"/>
<polygon fill="#80b1d3" stroke="#80b1d3" stroke-width="2" points="670.38,-323 670.38,-328 669.38,-328 669.38,-323 670.38,-323"/>
<polyline fill="none" stroke="#80b1d3" stroke-width="2" points="670.88,-325.5 668.38,-325.5"/>
</g>
<!-- GMT7444 -->
<g id="node33" class="node">
<title>GMT7444</title>
<polygon fill="#80b1d3" stroke="#80b1d3" points="776.4,-266.62 675.6,-266.62 675.6,-195.38 776.4,-195.38 776.4,-266.62"/>
<text text-anchor="middle" x="726" y="-249.32" font-family="Arial" font-size="14.00">GMT7444</text>
<text text-anchor="middle" x="726" y="-217.57" font-family="Arial" font-size="14.00">Rendering de</text>
<text text-anchor="middle" x="726" y="-201.82" font-family="Arial" font-size="14.00">Animação</text>
</g>
<!-- GMT7435&#45;&gt;GMT7444 -->
<g id="edge19" class="edge">
<title>GMT7435&#45;&gt;GMT7444</title>
<path fill="none" stroke="#80b1d3" stroke-width="2" d="M616.89,-349C621.22,-349 624,-349 624,-349 624,-349 624,-254.46 624,-254.46 624,-254.46 672.8,-254.46 672.8,-254.46"/>
<polygon fill="#80b1d3" stroke="#80b1d3" stroke-width="2" points="674.3,-251.96 674.3,-256.96 673.3,-256.96 673.3,-251.96 674.3,-251.96"/>
<polyline fill="none" stroke="#80b1d3" stroke-width="2" points="674.8,-254.46 672.3,-254.46"/>
</g>
<!-- GMT7445 -->
<g id="node34" class="node">
<title>GMT7445</title>
<polygon fill="#80b1d3" stroke="#80b1d3" points="776.4,-575.75 675.6,-575.75 675.6,-520.25 776.4,-520.25 776.4,-575.75"/>
<text text-anchor="middle" x="726" y="-558.45" font-family="Arial" font-size="14.00">GMT7445</text>
<text text-anchor="middle" x="726" y="-526.7" font-family="Arial" font-size="14.00">Projeto 3</text>
</g>
<!-- GMT7435&#45;&gt;GMT7445 -->
<g id="edge20" class="edge">
<title>GMT7435&#45;&gt;GMT7445</title>
<path fill="none" stroke="#80b1d3" stroke-width="2" d="M616.78,-384.12C618.81,-384.12 620,-384.12 620,-384.12 620,-384.12 620,-532.04 620,-532.04 620,-532.04 672.67,-532.04 672.67,-532.04"/>
<polygon fill="#80b1d3" stroke="#80b1d3" stroke-width="2" points="674.17,-529.54 674.17,-534.54 673.17,-534.54 673.17,-529.54 674.17,-529.54"/>
<polyline fill="none" stroke="#80b1d3" stroke-width="2" points="674.67,-532.04 672.17,-532.04"/>
</g>
<!-- GMT7481&#45;&gt;GMT7251 -->
<!-- GMT7481&#45;&gt;GMT7441 -->
<!-- GMT7481&#45;&gt;GMT7443 -->
<!-- GMT7481&#45;&gt;GMT7444 -->
<!-- GMT7481&#45;&gt;GMT7445 -->
<!-- GMT7455 -->
<g id="node35" class="node">
<title>GMT7455</title>
<polygon fill="#80b1d3" stroke="#80b1d3" points="936.4,-494.5 835.6,-494.5 835.6,-407.5 936.4,-407.5 936.4,-494.5"/>
<text text-anchor="middle" x="886" y="-477.2" font-family="Arial" font-size="14.00">GMT7455</text>
<text text-anchor="middle" x="886" y="-445.45" font-family="Arial" font-size="14.00">Estágio</text>
<text text-anchor="middle" x="886" y="-429.7" font-family="Arial" font-size="14.00">Curricular</text>
<text text-anchor="middle" x="886" y="-413.95" font-family="Arial" font-size="14.00">Obrigatório</text>
</g>
<!-- GMT7445&#45;&gt;GMT7455 -->
<g id="edge21" class="edge">
<title>GMT7445&#45;&gt;GMT7455</title>
<path fill="none" stroke="#80b1d3" stroke-width="2" d="M776.59,-531.35C789.59,-531.35 800,-531.35 800,-531.35 800,-531.35 800,-452.42 800,-452.42 800,-452.42 832.98,-452.42 832.98,-452.42"/>
<polygon fill="#80b1d3" stroke="#80b1d3" stroke-width="2" points="834.48,-449.92 834.48,-454.92 833.48,-454.92 833.48,-449.92 834.48,-449.92"/>
<polyline fill="none" stroke="#80b1d3" stroke-width="2" points="834.98,-452.42 832.48,-452.42"/>
</g>
<!-- GMT7445&#45;&gt;GMT7455 -->
<!-- GMT7467 -->
<g id="node36" class="node">
<title>GMT7467</title>
<polygon fill="#fb8072" stroke="#fb8072" points="937.88,-583.62 834.12,-583.62 834.12,-512.38 937.88,-512.38 937.88,-583.62"/>
<text text-anchor="middle" x="886" y="-566.33" font-family="Arial" font-size="14.00">GMT7467</text>
<text text-anchor="middle" x="886" y="-534.58" font-family="Arial" font-size="14.00">Pré&#45;Projeto 4 &#45;</text>
<text text-anchor="middle" x="886" y="-518.83" font-family="Arial" font-size="14.00">TCC</text>
</g>
<!-- GMT7445&#45;&gt;GMT7467 -->
<g id="edge22" class="edge">
<title>GMT7445&#45;&gt;GMT7467</title>
<path fill="none" stroke="#fb8072" stroke-width="2" d="M776.62,-553.55C776.62,-553.55 831.28,-553.55 831.28,-553.55"/>
<polygon fill="#fb8072" stroke="#fb8072" stroke-width="2" points="832.78,-551.05 832.78,-556.05 831.78,-556.05 831.78,-551.05 832.78,-551.05"/>
<polyline fill="none" stroke="#fb8072" stroke-width="2" points="833.28,-553.55 830.78,-553.55"/>
</g>
<!-- GMT7445&#45;&gt;GMT7467 -->
<!-- GMT7468 -->
<g id="node37" class="node">
<title>GMT7468</title>
<polygon fill="#fb8072" stroke="#fb8072" points="1100.88,-575.75 991.12,-575.75 991.12,-520.25 1100.88,-520.25 1100.88,-575.75"/>
<text text-anchor="middle" x="1046" y="-558.45" font-family="Arial" font-size="14.00">GMT7468</text>
<text text-anchor="middle" x="1046" y="-526.7" font-family="Arial" font-size="14.00">Projeto 4 &#45; TCC</text>
</g>
<!-- GMT7467&#45;&gt;GMT7468 -->
<g id="edge23" class="edge">
<title>GMT7467&#45;&gt;GMT7468</title>
<path fill="none" stroke="#fb8072" stroke-width="2" d="M937.95,-538.75C937.95,-538.75 988.23,-538.75 988.23,-538.75"/>
<polygon fill="#fb8072" stroke="#fb8072" stroke-width="2" points="989.73,-536.25 989.73,-541.25 988.73,-541.25 988.73,-536.25 989.73,-536.25"/>
<polyline fill="none" stroke="#fb8072" stroke-width="2" points="990.23,-538.75 987.73,-538.75"/>
</g>
<!-- GMT7467&#45;&gt;GMT7468 -->
</g>
</svg>
