<?xml version="1.0" encoding="UTF-8" standalone="no"?>
<!DOCTYPE svg PUBLIC "-//W3C//DTD SVG 1.1//EN"
 "http://www.w3.org/Graphics/SVG/1.1/DTD/svg11.dtd">
<!-- Generated by graphviz version 9.0.0 (0)
 -->
<!-- Title: grafo_materias Pages: 1 -->
<svg width="657pt" height="659pt"
 viewBox="0.00 0.00 657.00 659.00" xmlns="http://www.w3.org/2000/svg" xmlns:xlink="http://www.w3.org/1999/xlink">
<g id="graph0" class="graph" transform="scale(1 1) rotate(0) translate(4 655)">
<title>grafo_materias</title>
<polygon fill="none" stroke="none" points="-4,4 -4,-655 653,-655 653,4 -4,4"/>
<g id="clust1" class="cluster">
<title>cluster_everything</title>
<polygon fill="none" stroke="none" points="8,-8 8,-643 641,-643 641,-8 8,-8"/>
</g>
<g id="clust2" class="cluster">
<title>cluster_header</title>
<polygon fill="none" stroke="none" points="27.23,-583 27.23,-635 621.77,-635 621.77,-583 27.23,-583"/>
</g>
<g id="clust3" class="cluster">
<title>cluster_0</title>
<polygon fill="none" stroke="none" points="16,-16 16,-539 155.25,-539 155.25,-16 16,-16"/>
</g>
<g id="clust4" class="cluster">
<title>cluster_1</title>
<polygon fill="none" stroke="none" points="175.25,-68 175.25,-575 314.5,-575 314.5,-68 175.25,-68"/>
</g>
<g id="clust5" class="cluster">
<title>cluster_2</title>
<polygon fill="none" stroke="none" points="334.5,-38 334.5,-561 473.75,-561 473.75,-38 334.5,-38"/>
</g>
<g id="clust6" class="cluster">
<title>cluster_3</title>
<polygon fill="none" stroke="none" points="493.75,-45 493.75,-568 633,-568 633,-45 493.75,-45"/>
</g>
<!-- 1ª Fase -->
<g id="node1" class="node">
<title>1ª Fase</title>
<polygon fill="lightgrey" stroke="black" points="136.03,-627 35.23,-627 35.23,-591 136.03,-591 136.03,-627"/>
<text text-anchor="middle" x="85.62" y="-603.58" font-family="Arial" font-size="14.00">1ª Fase</text>
</g>
<!-- 2ª Fase -->
<g id="node2" class="node">
<title>2ª Fase</title>
<polygon fill="lightgrey" stroke="black" points="295.27,-627 194.47,-627 194.47,-591 295.27,-591 295.27,-627"/>
<text text-anchor="middle" x="244.88" y="-603.58" font-family="Arial" font-size="14.00">2ª Fase</text>
</g>
<!-- 1ª Fase&#45;&gt;2ª Fase -->
<!-- 3ª Fase -->
<g id="node3" class="node">
<title>3ª Fase</title>
<polygon fill="lightgrey" stroke="black" points="454.52,-627 353.73,-627 353.73,-591 454.52,-591 454.52,-627"/>
<text text-anchor="middle" x="404.12" y="-603.58" font-family="Arial" font-size="14.00">3ª Fase</text>
</g>
<!-- 2ª Fase&#45;&gt;3ª Fase -->
<!-- 4ª Fase -->
<g id="node4" class="node">
<title>4ª Fase</title>
<polygon fill="lightgrey" stroke="black" points="613.77,-627 512.98,-627 512.98,-591 613.77,-591 613.77,-627"/>
<text text-anchor="middle" x="563.38" y="-603.58" font-family="Arial" font-size="14.00">4ª Fase</text>
</g>
<!-- 3ª Fase&#45;&gt;4ª Fase -->
<!-- LLE8020 -->
<g id="node5" class="node">
<title>LLE8020</title>
<polygon fill="#8dd3c7" stroke="#8dd3c7" points="136.03,-289.62 35.23,-289.62 35.23,-218.38 136.03,-218.38 136.03,-289.62"/>
<text text-anchor="middle" x="85.62" y="-272.32" font-family="Arial" font-size="14.00">LLE8020</text>
<text text-anchor="middle" x="85.62" y="-240.57" font-family="Arial" font-size="14.00">Estudos</text>
<text text-anchor="middle" x="85.62" y="-224.82" font-family="Arial" font-size="14.00">Literários I</text>
</g>
<!-- LLE8021 -->
<g id="node10" class="node">
<title>LLE8021</title>
<polygon fill="#8dd3c7" stroke="#8dd3c7" points="295.27,-236.62 194.47,-236.62 194.47,-165.38 295.27,-165.38 295.27,-236.62"/>
<text text-anchor="middle" x="244.88" y="-219.32" font-family="Arial" font-size="14.00">LLE8021</text>
<text text-anchor="middle" x="244.88" y="-187.57" font-family="Arial" font-size="14.00">Estudos</text>
<text text-anchor="middle" x="244.88" y="-171.82" font-family="Arial" font-size="14.00">Literários II</text>
</g>
<!-- LLE8020&#45;&gt;LLE8021 -->
<g id="edge4" class="edge">
<title>LLE8020&#45;&gt;LLE8021</title>
<path fill="none" stroke="#8dd3c7" stroke-width="2" d="M136.45,-227.5C136.45,-227.5 191.49,-227.5 191.49,-227.5"/>
<polygon fill="#8dd3c7" stroke="#8dd3c7" stroke-width="2" points="192.99,-225 192.99,-230 191.99,-230 191.99,-225 192.99,-225"/>
<polyline fill="none" stroke="#8dd3c7" stroke-width="2" points="193.49,-227.5 190.99,-227.5"/>
</g>
<!-- LLE8020&#45;&gt;LLE8021 -->
<!-- LLE8041 -->
<g id="node11" class="node">
<title>LLE8041</title>
<polygon fill="#8dd3c7" stroke="#8dd3c7" points="295.27,-446.62 194.47,-446.62 194.47,-375.38 295.27,-375.38 295.27,-446.62"/>
<text text-anchor="middle" x="244.88" y="-429.32" font-family="Arial" font-size="14.00">LLE8041</text>
<text text-anchor="middle" x="244.88" y="-397.57" font-family="Arial" font-size="14.00">Estudos</text>
<text text-anchor="middle" x="244.88" y="-381.82" font-family="Arial" font-size="14.00">Linguísticos I</text>
</g>
<!-- LLE8020&#45;&gt;LLE8041 -->
<!-- LLE8050 -->
<g id="node12" class="node">
<title>LLE8050</title>
<polygon fill="#8dd3c7" stroke="#8dd3c7" points="295.27,-147.62 194.47,-147.62 194.47,-76.38 295.27,-76.38 295.27,-147.62"/>
<text text-anchor="middle" x="244.88" y="-130.32" font-family="Arial" font-size="14.00">LLE8050</text>
<text text-anchor="middle" x="244.88" y="-98.58" font-family="Arial" font-size="14.00">Linguística</text>
<text text-anchor="middle" x="244.88" y="-82.83" font-family="Arial" font-size="14.00">Aplicada</text>
</g>
<!-- LLE8020&#45;&gt;LLE8050 -->
<!-- LLE8112 -->
<g id="node13" class="node">
<title>LLE8112</title>
<polygon fill="#8dd3c7" stroke="#8dd3c7" points="306.5,-567.38 183.25,-567.38 183.25,-464.62 306.5,-464.62 306.5,-567.38"/>
<text text-anchor="middle" x="244.88" y="-550.08" font-family="Arial" font-size="14.00">LLE8112</text>
<text text-anchor="middle" x="244.88" y="-518.33" font-family="Arial" font-size="14.00">Compreensão e</text>
<text text-anchor="middle" x="244.88" y="-502.57" font-family="Arial" font-size="14.00">Produção Oral</text>
<text text-anchor="middle" x="244.88" y="-486.82" font-family="Arial" font-size="14.00">em Língua Alemã</text>
<text text-anchor="middle" x="244.88" y="-471.07" font-family="Arial" font-size="14.00">II</text>
</g>
<!-- LLE8020&#45;&gt;LLE8112 -->
<!-- LLE8192 -->
<g id="node14" class="node">
<title>LLE8192</title>
<polygon fill="#8dd3c7" stroke="#8dd3c7" points="301.25,-357.38 188.5,-357.38 188.5,-254.62 301.25,-254.62 301.25,-357.38"/>
<text text-anchor="middle" x="244.88" y="-340.07" font-family="Arial" font-size="14.00">LLE8192</text>
<text text-anchor="middle" x="244.88" y="-308.32" font-family="Arial" font-size="14.00">Compreensão e</text>
<text text-anchor="middle" x="244.88" y="-292.57" font-family="Arial" font-size="14.00">Produção</text>
<text text-anchor="middle" x="244.88" y="-276.82" font-family="Arial" font-size="14.00">Escrita em</text>
<text text-anchor="middle" x="244.88" y="-261.07" font-family="Arial" font-size="14.00">Língua Alemã II</text>
</g>
<!-- LLE8020&#45;&gt;LLE8192 -->
<!-- LLE8023 -->
<g id="node21" class="node">
<title>LLE8023</title>
<polygon fill="#8dd3c7" stroke="#8dd3c7" points="613.77,-124.62 512.98,-124.62 512.98,-53.38 613.77,-53.38 613.77,-124.62"/>
<text text-anchor="middle" x="563.38" y="-107.33" font-family="Arial" font-size="14.00">LLE8023</text>
<text text-anchor="middle" x="563.38" y="-75.58" font-family="Arial" font-size="14.00">Estudos</text>
<text text-anchor="middle" x="563.38" y="-59.83" font-family="Arial" font-size="14.00">Literários IV</text>
</g>
<!-- LLE8020&#45;&gt;LLE8023 -->
<g id="edge16" class="edge">
<title>LLE8020&#45;&gt;LLE8023</title>
<path fill="none" stroke="#8dd3c7" stroke-width="2" d="M136.31,-245.62C203.59,-245.62 314,-245.62 314,-245.62 314,-245.62 314,-119.96 314,-119.96 314,-119.96 510.11,-119.96 510.11,-119.96"/>
<polygon fill="#8dd3c7" stroke="#8dd3c7" stroke-width="2" points="511.61,-117.46 511.61,-122.46 510.61,-122.46 510.61,-117.46 511.61,-117.46"/>
<polyline fill="none" stroke="#8dd3c7" stroke-width="2" points="512.11,-119.96 509.61,-119.96"/>
</g>
<!-- LLE8030 -->
<g id="node6" class="node">
<title>LLE8030</title>
<polygon fill="#8dd3c7" stroke="#8dd3c7" points="136.03,-95.62 35.23,-95.62 35.23,-24.38 136.03,-24.38 136.03,-95.62"/>
<text text-anchor="middle" x="85.62" y="-78.33" font-family="Arial" font-size="14.00">LLE8030</text>
<text text-anchor="middle" x="85.62" y="-46.58" font-family="Arial" font-size="14.00">História da</text>
<text text-anchor="middle" x="85.62" y="-30.82" font-family="Arial" font-size="14.00">Tradução</text>
</g>
<!-- LLE8031 -->
<g id="node16" class="node">
<title>LLE8031</title>
<polygon fill="#8dd3c7" stroke="#8dd3c7" points="454.52,-117.62 353.73,-117.62 353.73,-46.38 454.52,-46.38 454.52,-117.62"/>
<text text-anchor="middle" x="404.12" y="-100.33" font-family="Arial" font-size="14.00">LLE8031</text>
<text text-anchor="middle" x="404.12" y="-68.58" font-family="Arial" font-size="14.00">Teorias da</text>
<text text-anchor="middle" x="404.12" y="-52.83" font-family="Arial" font-size="14.00">Tradução</text>
</g>
<!-- LLE8030&#45;&gt;LLE8031 -->
<g id="edge10" class="edge">
<title>LLE8030&#45;&gt;LLE8031</title>
<path fill="none" stroke="#8dd3c7" stroke-width="2" d="M136.44,-61.38C136.44,-61.38 350.99,-61.38 350.99,-61.38"/>
<polygon fill="#8dd3c7" stroke="#8dd3c7" stroke-width="2" points="352.49,-58.88 352.49,-63.88 351.49,-63.88 351.49,-58.88 352.49,-58.88"/>
<polyline fill="none" stroke="#8dd3c7" stroke-width="2" points="352.99,-61.38 350.49,-61.38"/>
</g>
<!-- LLE8040 -->
<g id="node7" class="node">
<title>LLE8040</title>
<polygon fill="#8dd3c7" stroke="#8dd3c7" points="138.25,-200.5 33,-200.5 33,-113.5 138.25,-113.5 138.25,-200.5"/>
<text text-anchor="middle" x="85.62" y="-183.2" font-family="Arial" font-size="14.00">LLE8040</text>
<text text-anchor="middle" x="85.62" y="-151.45" font-family="Arial" font-size="14.00">Introdução aos</text>
<text text-anchor="middle" x="85.62" y="-135.7" font-family="Arial" font-size="14.00">Estudos da</text>
<text text-anchor="middle" x="85.62" y="-119.95" font-family="Arial" font-size="14.00">Linguagem</text>
</g>
<!-- LLE8040&#45;&gt;LLE8041 -->
<g id="edge5" class="edge">
<title>LLE8040&#45;&gt;LLE8041</title>
<path fill="none" stroke="#8dd3c7" stroke-width="2" d="M138.43,-182.94C154.97,-182.94 169,-182.94 169,-182.94 169,-182.94 169,-387.04 169,-387.04 169,-387.04 191.77,-387.04 191.77,-387.04"/>
<polygon fill="#8dd3c7" stroke="#8dd3c7" stroke-width="2" points="193.27,-384.54 193.27,-389.54 192.27,-389.54 192.27,-384.54 193.27,-384.54"/>
<polyline fill="none" stroke="#8dd3c7" stroke-width="2" points="193.77,-387.04 191.27,-387.04"/>
</g>
<!-- LLE8040&#45;&gt;LLE8050 -->
<g id="edge6" class="edge">
<title>LLE8040&#45;&gt;LLE8050</title>
<path fill="none" stroke="#8dd3c7" stroke-width="2" d="M138.65,-124.88C138.65,-124.88 191.74,-124.88 191.74,-124.88"/>
<polygon fill="#8dd3c7" stroke="#8dd3c7" stroke-width="2" points="193.24,-122.38 193.24,-127.38 192.24,-127.38 192.24,-122.38 193.24,-122.38"/>
<polyline fill="none" stroke="#8dd3c7" stroke-width="2" points="193.74,-124.88 191.24,-124.88"/>
</g>
<!-- LLE8042 -->
<g id="node17" class="node">
<title>LLE8042</title>
<polygon fill="#8dd3c7" stroke="#8dd3c7" points="454.52,-206.62 353.73,-206.62 353.73,-135.38 454.52,-135.38 454.52,-206.62"/>
<text text-anchor="middle" x="404.12" y="-189.32" font-family="Arial" font-size="14.00">LLE8042</text>
<text text-anchor="middle" x="404.12" y="-157.57" font-family="Arial" font-size="14.00">Estudos</text>
<text text-anchor="middle" x="404.12" y="-141.82" font-family="Arial" font-size="14.00">Linguísticos II</text>
</g>
<!-- LLE8040&#45;&gt;LLE8042 -->
<g id="edge11" class="edge">
<title>LLE8040&#45;&gt;LLE8042</title>
<path fill="none" stroke="#8dd3c7" stroke-width="2" d="M138.58,-156.5C138.58,-156.5 350.92,-156.5 350.92,-156.5"/>
<polygon fill="#8dd3c7" stroke="#8dd3c7" stroke-width="2" points="352.42,-154 352.42,-159 351.42,-159 351.42,-154 352.42,-154"/>
<polyline fill="none" stroke="#8dd3c7" stroke-width="2" points="352.92,-156.5 350.42,-156.5"/>
</g>
<!-- LLE8111 -->
<g id="node8" class="node">
<title>LLE8111</title>
<polygon fill="#8dd3c7" stroke="#8dd3c7" points="147.25,-531.38 24,-531.38 24,-428.62 147.25,-428.62 147.25,-531.38"/>
<text text-anchor="middle" x="85.62" y="-514.08" font-family="Arial" font-size="14.00">LLE8111</text>
<text text-anchor="middle" x="85.62" y="-482.32" font-family="Arial" font-size="14.00">Compreensão e</text>
<text text-anchor="middle" x="85.62" y="-466.57" font-family="Arial" font-size="14.00">Produção Oral</text>
<text text-anchor="middle" x="85.62" y="-450.82" font-family="Arial" font-size="14.00">em Língua Alemã</text>
<text text-anchor="middle" x="85.62" y="-435.07" font-family="Arial" font-size="14.00">Francesa I</text>
</g>
<!-- LLE8111&#45;&gt;LLE8112 -->
<g id="edge7" class="edge">
<title>LLE8111&#45;&gt;LLE8112</title>
<path fill="none" stroke="#8dd3c7" stroke-width="2" d="M147.65,-509.12C147.65,-509.12 180.26,-509.12 180.26,-509.12"/>
<polygon fill="#8dd3c7" stroke="#8dd3c7" stroke-width="2" points="181.76,-506.63 181.76,-511.63 180.76,-511.63 180.76,-506.63 181.76,-506.63"/>
<polyline fill="none" stroke="#8dd3c7" stroke-width="2" points="182.26,-509.13 179.76,-509.13"/>
</g>
<!-- LLE8191 -->
<g id="node9" class="node">
<title>LLE8191</title>
<polygon fill="#8dd3c7" stroke="#8dd3c7" points="142,-410.38 29.25,-410.38 29.25,-307.62 142,-307.62 142,-410.38"/>
<text text-anchor="middle" x="85.62" y="-393.07" font-family="Arial" font-size="14.00">LLE8191</text>
<text text-anchor="middle" x="85.62" y="-361.32" font-family="Arial" font-size="14.00">Compreensão e</text>
<text text-anchor="middle" x="85.62" y="-345.57" font-family="Arial" font-size="14.00">Produção</text>
<text text-anchor="middle" x="85.62" y="-329.82" font-family="Arial" font-size="14.00">Escrita em</text>
<text text-anchor="middle" x="85.62" y="-314.07" font-family="Arial" font-size="14.00">Língua Alemã I</text>
</g>
<!-- LLE8191&#45;&gt;LLE8192 -->
<g id="edge8" class="edge">
<title>LLE8191&#45;&gt;LLE8192</title>
<path fill="none" stroke="#8dd3c7" stroke-width="2" d="M142.22,-332.5C142.22,-332.5 185.7,-332.5 185.7,-332.5"/>
<polygon fill="#8dd3c7" stroke="#8dd3c7" stroke-width="2" points="187.2,-330 187.2,-335 186.2,-335 186.2,-330 187.2,-330"/>
<polyline fill="none" stroke="#8dd3c7" stroke-width="2" points="187.7,-332.5 185.2,-332.5"/>
</g>
<!-- LLE8022 -->
<g id="node15" class="node">
<title>LLE8022</title>
<polygon fill="#8dd3c7" stroke="#8dd3c7" points="454.52,-295.62 353.73,-295.62 353.73,-224.38 454.52,-224.38 454.52,-295.62"/>
<text text-anchor="middle" x="404.12" y="-278.32" font-family="Arial" font-size="14.00">LLE8022</text>
<text text-anchor="middle" x="404.12" y="-246.57" font-family="Arial" font-size="14.00">Estudos</text>
<text text-anchor="middle" x="404.12" y="-230.82" font-family="Arial" font-size="14.00">Literários III</text>
</g>
<!-- LLE8021&#45;&gt;LLE8022 -->
<g id="edge9" class="edge">
<title>LLE8021&#45;&gt;LLE8022</title>
<path fill="none" stroke="#8dd3c7" stroke-width="2" d="M295.7,-230.5C295.7,-230.5 350.74,-230.5 350.74,-230.5"/>
<polygon fill="#8dd3c7" stroke="#8dd3c7" stroke-width="2" points="352.24,-228 352.24,-233 351.24,-233 351.24,-228 352.24,-228"/>
<polyline fill="none" stroke="#8dd3c7" stroke-width="2" points="352.74,-230.5 350.24,-230.5"/>
</g>
<!-- LLE8010 -->
<g id="node20" class="node">
<title>LLE8010</title>
<polygon fill="#8dd3c7" stroke="#8dd3c7" points="613.77,-439.5 512.98,-439.5 512.98,-352.5 613.77,-352.5 613.77,-439.5"/>
<text text-anchor="middle" x="563.38" y="-422.2" font-family="Arial" font-size="14.00">LLE8010</text>
<text text-anchor="middle" x="563.38" y="-390.45" font-family="Arial" font-size="14.00">Pesquisa em</text>
<text text-anchor="middle" x="563.38" y="-374.7" font-family="Arial" font-size="14.00">Letras</text>
<text text-anchor="middle" x="563.38" y="-358.95" font-family="Arial" font-size="14.00">Estrangeiras</text>
</g>
<!-- LLE8041&#45;&gt;LLE8010 -->
<g id="edge14" class="edge">
<title>LLE8041&#45;&gt;LLE8010</title>
<path fill="none" stroke="#8dd3c7" stroke-width="2" d="M295.69,-435.88C295.69,-435.88 510.24,-435.88 510.24,-435.88"/>
<polygon fill="#8dd3c7" stroke="#8dd3c7" stroke-width="2" points="511.74,-433.38 511.74,-438.38 510.74,-438.38 510.74,-433.38 511.74,-433.38"/>
<polyline fill="none" stroke="#8dd3c7" stroke-width="2" points="512.24,-435.88 509.74,-435.88"/>
</g>
<!-- LLE8113 -->
<g id="node18" class="node">
<title>LLE8113</title>
<polygon fill="#8dd3c7" stroke="#8dd3c7" points="465.75,-553.38 342.5,-553.38 342.5,-450.62 465.75,-450.62 465.75,-553.38"/>
<text text-anchor="middle" x="404.12" y="-536.08" font-family="Arial" font-size="14.00">LLE8113</text>
<text text-anchor="middle" x="404.12" y="-504.32" font-family="Arial" font-size="14.00">Compreensão e</text>
<text text-anchor="middle" x="404.12" y="-488.57" font-family="Arial" font-size="14.00">Produção Oral</text>
<text text-anchor="middle" x="404.12" y="-472.82" font-family="Arial" font-size="14.00">em Língua Alemã</text>
<text text-anchor="middle" x="404.12" y="-457.07" font-family="Arial" font-size="14.00">III</text>
</g>
<!-- LLE8112&#45;&gt;LLE8113 -->
<g id="edge12" class="edge">
<title>LLE8112&#45;&gt;LLE8113</title>
<path fill="none" stroke="#8dd3c7" stroke-width="2" d="M306.9,-509C306.9,-509 339.51,-509 339.51,-509"/>
<polygon fill="#8dd3c7" stroke="#8dd3c7" stroke-width="2" points="341.01,-506.5 341.01,-511.5 340.01,-511.5 340.01,-506.5 341.01,-506.5"/>
<polyline fill="none" stroke="#8dd3c7" stroke-width="2" points="341.51,-509 339.01,-509"/>
</g>
<!-- LLE8192&#45;&gt;LLE8022 -->
<!-- LLE8192&#45;&gt;LLE8031 -->
<!-- LLE8192&#45;&gt;LLE8042 -->
<!-- LLE8192&#45;&gt;LLE8113 -->
<!-- LLE8193 -->
<g id="node19" class="node">
<title>LLE8193</title>
<polygon fill="#8dd3c7" stroke="#8dd3c7" points="460.5,-432.25 347.75,-432.25 347.75,-313.75 460.5,-313.75 460.5,-432.25"/>
<text text-anchor="middle" x="404.12" y="-414.95" font-family="Arial" font-size="14.00">LLE8193</text>
<text text-anchor="middle" x="404.12" y="-383.2" font-family="Arial" font-size="14.00">Compreensão e</text>
<text text-anchor="middle" x="404.12" y="-367.45" font-family="Arial" font-size="14.00">Produção</text>
<text text-anchor="middle" x="404.12" y="-351.7" font-family="Arial" font-size="14.00">Escrita em</text>
<text text-anchor="middle" x="404.12" y="-335.95" font-family="Arial" font-size="14.00">Língua Alemã</text>
<text text-anchor="middle" x="404.12" y="-320.2" font-family="Arial" font-size="14.00">III</text>
</g>
<!-- LLE8192&#45;&gt;LLE8193 -->
<g id="edge13" class="edge">
<title>LLE8192&#45;&gt;LLE8193</title>
<path fill="none" stroke="#8dd3c7" stroke-width="2" d="M301.47,-324.66C301.47,-324.66 344.95,-324.66 344.95,-324.66"/>
<polygon fill="#8dd3c7" stroke="#8dd3c7" stroke-width="2" points="346.45,-322.16 346.45,-327.16 345.45,-327.16 345.45,-322.16 346.45,-322.16"/>
<polyline fill="none" stroke="#8dd3c7" stroke-width="2" points="346.95,-324.66 344.45,-324.66"/>
</g>
<!-- LLE8192&#45;&gt;LLE8193 -->
<!-- LLE8032 -->
<g id="node22" class="node">
<title>LLE8032</title>
<polygon fill="#8dd3c7" stroke="#8dd3c7" points="613.77,-213.62 512.98,-213.62 512.98,-142.38 613.77,-142.38 613.77,-213.62"/>
<text text-anchor="middle" x="563.38" y="-196.32" font-family="Arial" font-size="14.00">LLE8032</text>
<text text-anchor="middle" x="563.38" y="-164.57" font-family="Arial" font-size="14.00">Prática de</text>
<text text-anchor="middle" x="563.38" y="-148.82" font-family="Arial" font-size="14.00">Tradução</text>
</g>
<!-- LLE8031&#45;&gt;LLE8032 -->
<g id="edge17" class="edge">
<title>LLE8031&#45;&gt;LLE8032</title>
<path fill="none" stroke="#8dd3c7" stroke-width="2" d="M454.88,-85.5C475.69,-85.5 495,-85.5 495,-85.5 495,-85.5 495,-174.5 495,-174.5 495,-174.5 510.11,-174.5 510.11,-174.5"/>
<polygon fill="#8dd3c7" stroke="#8dd3c7" stroke-width="2" points="511.61,-172 511.61,-177 510.61,-177 510.61,-172 511.61,-172"/>
<polyline fill="none" stroke="#8dd3c7" stroke-width="2" points="512.11,-174.5 509.61,-174.5"/>
</g>
<!-- LLE8114 -->
<g id="node23" class="node">
<title>LLE8114</title>
<polygon fill="#8dd3c7" stroke="#8dd3c7" points="625,-560.38 501.75,-560.38 501.75,-457.62 625,-457.62 625,-560.38"/>
<text text-anchor="middle" x="563.38" y="-543.08" font-family="Arial" font-size="14.00">LLE8114</text>
<text text-anchor="middle" x="563.38" y="-511.32" font-family="Arial" font-size="14.00">Compreensão e</text>
<text text-anchor="middle" x="563.38" y="-495.57" font-family="Arial" font-size="14.00">Produção Oral</text>
<text text-anchor="middle" x="563.38" y="-479.82" font-family="Arial" font-size="14.00">em Língua Alemã</text>
<text text-anchor="middle" x="563.38" y="-464.07" font-family="Arial" font-size="14.00">IV</text>
</g>
<!-- LLE8113&#45;&gt;LLE8114 -->
<g id="edge19" class="edge">
<title>LLE8113&#45;&gt;LLE8114</title>
<path fill="none" stroke="#8dd3c7" stroke-width="2" d="M466.15,-505.5C466.15,-505.5 498.76,-505.5 498.76,-505.5"/>
<polygon fill="#8dd3c7" stroke="#8dd3c7" stroke-width="2" points="500.26,-503 500.26,-508 499.26,-508 499.26,-503 500.26,-503"/>
<polyline fill="none" stroke="#8dd3c7" stroke-width="2" points="500.76,-505.5 498.26,-505.5"/>
</g>
<!-- LLE8193&#45;&gt;LLE8010 -->
<g id="edge15" class="edge">
<title>LLE8193&#45;&gt;LLE8010</title>
<path fill="none" stroke="#8dd3c7" stroke-width="2" d="M460.72,-372.44C460.72,-372.44 510.03,-372.44 510.03,-372.44"/>
<polygon fill="#8dd3c7" stroke="#8dd3c7" stroke-width="2" points="511.53,-369.94 511.53,-374.94 510.53,-374.94 510.53,-369.94 511.53,-369.94"/>
<polyline fill="none" stroke="#8dd3c7" stroke-width="2" points="512.03,-372.44 509.53,-372.44"/>
</g>
<!-- LLE8193&#45;&gt;LLE8010 -->
<!-- LLE8193&#45;&gt;LLE8023 -->
<!-- LLE8193&#45;&gt;LLE8032 -->
<g id="edge18" class="edge">
<title>LLE8193&#45;&gt;LLE8032</title>
<path fill="none" stroke="#8dd3c7" stroke-width="2" d="M460.8,-320.62C472.32,-320.62 481,-320.62 481,-320.62 481,-320.62 481,-208.96 481,-208.96 481,-208.96 510.11,-208.96 510.11,-208.96"/>
<polygon fill="#8dd3c7" stroke="#8dd3c7" stroke-width="2" points="511.61,-206.46 511.61,-211.46 510.61,-211.46 510.61,-206.46 511.61,-206.46"/>
<polyline fill="none" stroke="#8dd3c7" stroke-width="2" points="512.11,-208.96 509.61,-208.96"/>
</g>
<!-- LLE8193&#45;&gt;LLE8032 -->
<!-- LLE8193&#45;&gt;LLE8114 -->
<!-- LLE8194 -->
<g id="node24" class="node">
<title>LLE8194</title>
<polygon fill="#8dd3c7" stroke="#8dd3c7" points="621.62,-334.38 505.12,-334.38 505.12,-231.62 621.62,-231.62 621.62,-334.38"/>
<text text-anchor="middle" x="563.38" y="-317.07" font-family="Arial" font-size="14.00">LLE8194</text>
<text text-anchor="middle" x="563.38" y="-285.32" font-family="Arial" font-size="14.00">Compreensão e</text>
<text text-anchor="middle" x="563.38" y="-269.57" font-family="Arial" font-size="14.00">Produção</text>
<text text-anchor="middle" x="563.38" y="-253.82" font-family="Arial" font-size="14.00">Escrita em</text>
<text text-anchor="middle" x="563.38" y="-238.07" font-family="Arial" font-size="14.00">Língua Alemã IV</text>
</g>
<!-- LLE8193&#45;&gt;LLE8194 -->
<g id="edge20" class="edge">
<title>LLE8193&#45;&gt;LLE8194</title>
<path fill="none" stroke="#8dd3c7" stroke-width="2" d="M460.72,-327.5C460.72,-327.5 502.31,-327.5 502.31,-327.5"/>
<polygon fill="#8dd3c7" stroke="#8dd3c7" stroke-width="2" points="503.81,-325 503.81,-330 502.81,-330 502.81,-325 503.81,-325"/>
<polyline fill="none" stroke="#8dd3c7" stroke-width="2" points="504.31,-327.5 501.81,-327.5"/>
</g>
<!-- LLE8193&#45;&gt;LLE8194 -->
</g>
</svg>
