<?xml version="1.0" encoding="UTF-8" standalone="no"?>
<!DOCTYPE svg PUBLIC "-//W3C//DTD SVG 1.1//EN"
 "http://www.w3.org/Graphics/SVG/1.1/DTD/svg11.dtd">
<!-- Generated by graphviz version 9.0.0 (0)
 -->
<!-- Title: grafo_materias Pages: 1 -->
<svg width="1281pt" height="810pt"
 viewBox="0.00 0.00 1281.25 810.00" xmlns="http://www.w3.org/2000/svg" xmlns:xlink="http://www.w3.org/1999/xlink">
<g id="graph0" class="graph" transform="scale(1 1) rotate(0) translate(4 806)">
<title>grafo_materias</title>
<polygon fill="none" stroke="none" points="-4,4 -4,-806 1277.25,-806 1277.25,4 -4,4"/>
<g id="clust1" class="cluster">
<title>cluster_everything</title>
<polygon fill="none" stroke="none" points="8,-8 8,-794 1265.25,-794 1265.25,-8 8,-8"/>
</g>
<g id="clust2" class="cluster">
<title>cluster_header</title>
<polygon fill="none" stroke="none" points="24.22,-734 24.22,-786 1249.4,-786 1249.4,-734 24.22,-734"/>
</g>
<g id="clust3" class="cluster">
<title>cluster_0</title>
<polygon fill="none" stroke="none" points="16,-73 16,-612 149.25,-612 149.25,-73 16,-73"/>
</g>
<g id="clust4" class="cluster">
<title>cluster_1</title>
<polygon fill="none" stroke="none" points="169.25,-68 169.25,-576 308.5,-576 308.5,-68 169.25,-68"/>
</g>
<g id="clust5" class="cluster">
<title>cluster_2</title>
<polygon fill="none" stroke="none" points="328.5,-148 328.5,-672 467.75,-672 467.75,-148 328.5,-148"/>
</g>
<g id="clust6" class="cluster">
<title>cluster_3</title>
<polygon fill="none" stroke="none" points="487.75,-108 487.75,-632 627,-632 627,-108 487.75,-108"/>
</g>
<g id="clust7" class="cluster">
<title>cluster_4</title>
<polygon fill="none" stroke="none" points="647,-143 647,-472 786.25,-472 786.25,-143 647,-143"/>
</g>
<g id="clust8" class="cluster">
<title>cluster_5</title>
<polygon fill="none" stroke="none" points="806.25,-143 806.25,-472 945.5,-472 945.5,-143 806.25,-143"/>
</g>
<g id="clust9" class="cluster">
<title>cluster_6</title>
<polygon fill="none" stroke="none" points="965.5,-96 965.5,-609 1104.75,-609 1104.75,-96 965.5,-96"/>
</g>
<g id="clust10" class="cluster">
<title>cluster_7</title>
<polygon fill="none" stroke="none" points="1124.75,-416 1124.75,-624 1257.25,-624 1257.25,-416 1124.75,-416"/>
</g>
<!-- 1ª Fase -->
<g id="node1" class="node">
<title>1ª Fase</title>
<polygon fill="lightgrey" stroke="black" points="133.03,-778 32.23,-778 32.23,-742 133.03,-742 133.03,-778"/>
<text text-anchor="middle" x="82.62" y="-754.58" font-family="Arial" font-size="14.00">1ª Fase</text>
</g>
<!-- 2ª Fase -->
<g id="node2" class="node">
<title>2ª Fase</title>
<polygon fill="lightgrey" stroke="black" points="289.27,-778 188.47,-778 188.47,-742 289.27,-742 289.27,-778"/>
<text text-anchor="middle" x="238.88" y="-754.58" font-family="Arial" font-size="14.00">2ª Fase</text>
</g>
<!-- 1ª Fase&#45;&gt;2ª Fase -->
<!-- 3ª Fase -->
<g id="node3" class="node">
<title>3ª Fase</title>
<polygon fill="lightgrey" stroke="black" points="448.52,-778 347.73,-778 347.73,-742 448.52,-742 448.52,-778"/>
<text text-anchor="middle" x="398.12" y="-754.58" font-family="Arial" font-size="14.00">3ª Fase</text>
</g>
<!-- 2ª Fase&#45;&gt;3ª Fase -->
<!-- 4ª Fase -->
<g id="node4" class="node">
<title>4ª Fase</title>
<polygon fill="lightgrey" stroke="black" points="607.77,-778 506.98,-778 506.98,-742 607.77,-742 607.77,-778"/>
<text text-anchor="middle" x="557.38" y="-754.58" font-family="Arial" font-size="14.00">4ª Fase</text>
</g>
<!-- 3ª Fase&#45;&gt;4ª Fase -->
<!-- 5ª Fase -->
<g id="node5" class="node">
<title>5ª Fase</title>
<polygon fill="lightgrey" stroke="black" points="767.02,-778 666.23,-778 666.23,-742 767.02,-742 767.02,-778"/>
<text text-anchor="middle" x="716.62" y="-754.58" font-family="Arial" font-size="14.00">5ª Fase</text>
</g>
<!-- 4ª Fase&#45;&gt;5ª Fase -->
<!-- 6ª Fase -->
<g id="node6" class="node">
<title>6ª Fase</title>
<polygon fill="lightgrey" stroke="black" points="926.27,-778 825.48,-778 825.48,-742 926.27,-742 926.27,-778"/>
<text text-anchor="middle" x="875.88" y="-754.58" font-family="Arial" font-size="14.00">6ª Fase</text>
</g>
<!-- 5ª Fase&#45;&gt;6ª Fase -->
<!-- 7ª Fase -->
<g id="node7" class="node">
<title>7ª Fase</title>
<polygon fill="lightgrey" stroke="black" points="1085.53,-778 984.73,-778 984.73,-742 1085.53,-742 1085.53,-778"/>
<text text-anchor="middle" x="1035.12" y="-754.58" font-family="Arial" font-size="14.00">7ª Fase</text>
</g>
<!-- 6ª Fase&#45;&gt;7ª Fase -->
<!-- 8ª Fase -->
<g id="node8" class="node">
<title>8ª Fase</title>
<polygon fill="lightgrey" stroke="black" points="1241.4,-778 1140.6,-778 1140.6,-742 1241.4,-742 1241.4,-778"/>
<text text-anchor="middle" x="1191" y="-754.58" font-family="Arial" font-size="14.00">8ª Fase</text>
</g>
<!-- 7ª Fase&#45;&gt;8ª Fase -->
<!-- LLE8020 -->
<g id="node9" class="node">
<title>LLE8020</title>
<polygon fill="#8dd3c7" stroke="#8dd3c7" points="133.03,-409.62 32.23,-409.62 32.23,-338.38 133.03,-338.38 133.03,-409.62"/>
<text text-anchor="middle" x="82.62" y="-392.32" font-family="Arial" font-size="14.00">LLE8020</text>
<text text-anchor="middle" x="82.62" y="-360.57" font-family="Arial" font-size="14.00">Estudos</text>
<text text-anchor="middle" x="82.62" y="-344.82" font-family="Arial" font-size="14.00">Literários I</text>
</g>
<!-- LLE8021 -->
<g id="node14" class="node">
<title>LLE8021</title>
<polygon fill="#8dd3c7" stroke="#8dd3c7" points="289.27,-147.62 188.47,-147.62 188.47,-76.38 289.27,-76.38 289.27,-147.62"/>
<text text-anchor="middle" x="238.88" y="-130.32" font-family="Arial" font-size="14.00">LLE8021</text>
<text text-anchor="middle" x="238.88" y="-98.58" font-family="Arial" font-size="14.00">Estudos</text>
<text text-anchor="middle" x="238.88" y="-82.83" font-family="Arial" font-size="14.00">Literários II</text>
</g>
<!-- LLE8020&#45;&gt;LLE8021 -->
<g id="edge8" class="edge">
<title>LLE8020&#45;&gt;LLE8021</title>
<path fill="none" stroke="#8dd3c7" stroke-width="2" d="M133.46,-341.58C145.67,-341.58 155.25,-341.58 155.25,-341.58 155.25,-341.58 155.25,-103.04 155.25,-103.04 155.25,-103.04 185.8,-103.04 185.8,-103.04"/>
<polygon fill="#8dd3c7" stroke="#8dd3c7" stroke-width="2" points="187.3,-100.54 187.3,-105.54 186.3,-105.54 186.3,-100.54 187.3,-100.54"/>
<polyline fill="none" stroke="#8dd3c7" stroke-width="2" points="187.8,-103.04 185.3,-103.04"/>
</g>
<!-- LLE8020&#45;&gt;LLE8021 -->
<!-- LLE8041 -->
<g id="node15" class="node">
<title>LLE8041</title>
<polygon fill="#8dd3c7" stroke="#8dd3c7" points="289.27,-357.62 188.47,-357.62 188.47,-286.38 289.27,-286.38 289.27,-357.62"/>
<text text-anchor="middle" x="238.88" y="-340.32" font-family="Arial" font-size="14.00">LLE8041</text>
<text text-anchor="middle" x="238.88" y="-308.57" font-family="Arial" font-size="14.00">Estudos</text>
<text text-anchor="middle" x="238.88" y="-292.82" font-family="Arial" font-size="14.00">Linguísticos I</text>
</g>
<!-- LLE8020&#45;&gt;LLE8041 -->
<!-- LLE8050 -->
<g id="node16" class="node">
<title>LLE8050</title>
<polygon fill="#8dd3c7" stroke="#8dd3c7" points="289.27,-567.62 188.47,-567.62 188.47,-496.38 289.27,-496.38 289.27,-567.62"/>
<text text-anchor="middle" x="238.88" y="-550.33" font-family="Arial" font-size="14.00">LLE8050</text>
<text text-anchor="middle" x="238.88" y="-518.58" font-family="Arial" font-size="14.00">Linguística</text>
<text text-anchor="middle" x="238.88" y="-502.82" font-family="Arial" font-size="14.00">Aplicada</text>
</g>
<!-- LLE8020&#45;&gt;LLE8050 -->
<!-- LLE8112 -->
<g id="node17" class="node">
<title>LLE8112</title>
<polygon fill="#8dd3c7" stroke="#8dd3c7" points="300.5,-268.38 177.25,-268.38 177.25,-165.62 300.5,-165.62 300.5,-268.38"/>
<text text-anchor="middle" x="238.88" y="-251.07" font-family="Arial" font-size="14.00">LLE8112</text>
<text text-anchor="middle" x="238.88" y="-219.32" font-family="Arial" font-size="14.00">Compreensão e</text>
<text text-anchor="middle" x="238.88" y="-203.57" font-family="Arial" font-size="14.00">Produção Oral</text>
<text text-anchor="middle" x="238.88" y="-187.82" font-family="Arial" font-size="14.00">em Língua Alemã</text>
<text text-anchor="middle" x="238.88" y="-172.07" font-family="Arial" font-size="14.00">II</text>
</g>
<!-- LLE8020&#45;&gt;LLE8112 -->
<!-- LLE8192 -->
<g id="node18" class="node">
<title>LLE8192</title>
<polygon fill="#8dd3c7" stroke="#8dd3c7" points="295.25,-478.38 182.5,-478.38 182.5,-375.62 295.25,-375.62 295.25,-478.38"/>
<text text-anchor="middle" x="238.88" y="-461.07" font-family="Arial" font-size="14.00">LLE8192</text>
<text text-anchor="middle" x="238.88" y="-429.32" font-family="Arial" font-size="14.00">Compreensão e</text>
<text text-anchor="middle" x="238.88" y="-413.57" font-family="Arial" font-size="14.00">Produção</text>
<text text-anchor="middle" x="238.88" y="-397.82" font-family="Arial" font-size="14.00">Escrita em</text>
<text text-anchor="middle" x="238.88" y="-382.07" font-family="Arial" font-size="14.00">Língua Alemã II</text>
</g>
<!-- LLE8020&#45;&gt;LLE8192 -->
<!-- LLE8121 -->
<g id="node30" class="node">
<title>LLE8121</title>
<polygon fill="#8dd3c7" stroke="#8dd3c7" points="770.38,-222.62 662.88,-222.62 662.88,-151.38 770.38,-151.38 770.38,-222.62"/>
<text text-anchor="middle" x="716.62" y="-205.32" font-family="Arial" font-size="14.00">LLE8121</text>
<text text-anchor="middle" x="716.62" y="-173.57" font-family="Arial" font-size="14.00">Literatura de</text>
<text text-anchor="middle" x="716.62" y="-157.82" font-family="Arial" font-size="14.00">Língua Alemã I</text>
</g>
<!-- LLE8020&#45;&gt;LLE8121 -->
<g id="edge24" class="edge">
<title>LLE8020&#45;&gt;LLE8121</title>
<path fill="none" stroke="#8dd3c7" stroke-width="2" d="M133.3,-363.71C238.37,-363.71 470.25,-363.71 470.25,-363.71 470.25,-363.71 470.25,-196.62 470.25,-196.62 470.25,-196.62 660.06,-196.62 660.06,-196.62"/>
<polygon fill="#8dd3c7" stroke="#8dd3c7" stroke-width="2" points="661.56,-194.13 661.56,-199.13 660.56,-199.13 660.56,-194.13 661.56,-194.13"/>
<polyline fill="none" stroke="#8dd3c7" stroke-width="2" points="662.06,-196.63 659.56,-196.63"/>
</g>
<!-- LLE8122 -->
<g id="node33" class="node">
<title>LLE8122</title>
<polygon fill="#8dd3c7" stroke="#8dd3c7" points="931.5,-222.62 820.25,-222.62 820.25,-151.38 931.5,-151.38 931.5,-222.62"/>
<text text-anchor="middle" x="875.88" y="-205.32" font-family="Arial" font-size="14.00">LLE8122</text>
<text text-anchor="middle" x="875.88" y="-173.57" font-family="Arial" font-size="14.00">Literatura de</text>
<text text-anchor="middle" x="875.88" y="-157.82" font-family="Arial" font-size="14.00">Língua Alemã II</text>
</g>
<!-- LLE8020&#45;&gt;LLE8122 -->
<g id="edge29" class="edge">
<title>LLE8020&#45;&gt;LLE8122</title>
<path fill="none" stroke="#8dd3c7" stroke-width="2" d="M133.43,-360.67C237.52,-360.67 465.25,-360.67 465.25,-360.67 465.25,-360.67 465.25,-110 465.25,-110 465.25,-110 858.25,-110 858.25,-110 858.25,-110 858.25,-148.71 858.25,-148.71"/>
<polygon fill="#8dd3c7" stroke="#8dd3c7" stroke-width="2" points="860.75,-150.21 855.75,-150.2 855.75,-149.2 860.75,-149.21 860.75,-150.21"/>
<polyline fill="none" stroke="#8dd3c7" stroke-width="2" points="858.25,-150.71 858.25,-148.21"/>
</g>
<!-- LLE8123 -->
<g id="node36" class="node">
<title>LLE8123</title>
<polygon fill="#8dd3c7" stroke="#8dd3c7" points="1085.53,-600.5 984.73,-600.5 984.73,-513.5 1085.53,-513.5 1085.53,-600.5"/>
<text text-anchor="middle" x="1035.12" y="-583.2" font-family="Arial" font-size="14.00">LLE8123</text>
<text text-anchor="middle" x="1035.12" y="-551.45" font-family="Arial" font-size="14.00">Literatura de</text>
<text text-anchor="middle" x="1035.12" y="-535.7" font-family="Arial" font-size="14.00">Língua Alemã</text>
<text text-anchor="middle" x="1035.12" y="-519.95" font-family="Arial" font-size="14.00">III</text>
</g>
<!-- LLE8020&#45;&gt;LLE8123 -->
<g id="edge34" class="edge">
<title>LLE8020&#45;&gt;LLE8123</title>
<path fill="none" stroke="#8dd3c7" stroke-width="2" d="M133.19,-396.02C142.97,-396.02 150.25,-396.02 150.25,-396.02 150.25,-396.02 150.25,-689.75 150.25,-689.75 150.25,-689.75 1035.25,-689.75 1035.25,-689.75 1035.25,-689.75 1035.25,-603.34 1035.25,-603.34"/>
<polygon fill="#8dd3c7" stroke="#8dd3c7" stroke-width="2" points="1032.75,-601.84 1037.75,-601.84 1037.75,-602.84 1032.75,-602.84 1032.75,-601.84"/>
<polyline fill="none" stroke="#8dd3c7" stroke-width="2" points="1035.25,-601.34 1035.25,-603.84"/>
</g>
<!-- LLE8124 -->
<g id="node39" class="node">
<title>LLE8124</title>
<polygon fill="#8dd3c7" stroke="#8dd3c7" points="1249.25,-615.62 1132.75,-615.62 1132.75,-544.38 1249.25,-544.38 1249.25,-615.62"/>
<text text-anchor="middle" x="1191" y="-598.33" font-family="Arial" font-size="14.00">LLE8124</text>
<text text-anchor="middle" x="1191" y="-566.58" font-family="Arial" font-size="14.00">Literatura de</text>
<text text-anchor="middle" x="1191" y="-550.83" font-family="Arial" font-size="14.00">Língua Alemã IV</text>
</g>
<!-- LLE8020&#45;&gt;LLE8124 -->
<g id="edge38" class="edge">
<title>LLE8020&#45;&gt;LLE8124</title>
<path fill="none" stroke="#8dd3c7" stroke-width="2" d="M133.37,-402.82C140.93,-402.82 146.25,-402.82 146.25,-402.82 146.25,-402.82 146.25,-715.88 146.25,-715.88 146.25,-715.88 1137.25,-715.88 1137.25,-715.88 1137.25,-715.88 1137.25,-618.56 1137.25,-618.56"/>
<polygon fill="#8dd3c7" stroke="#8dd3c7" stroke-width="2" points="1134.75,-617.06 1139.75,-617.06 1139.75,-618.06 1134.75,-618.06 1134.75,-617.06"/>
<polyline fill="none" stroke="#8dd3c7" stroke-width="2" points="1137.25,-616.56 1137.25,-619.06"/>
</g>
<!-- LLE8030 -->
<g id="node10" class="node">
<title>LLE8030</title>
<polygon fill="#8dd3c7" stroke="#8dd3c7" points="133.03,-603.62 32.23,-603.62 32.23,-532.38 133.03,-532.38 133.03,-603.62"/>
<text text-anchor="middle" x="82.62" y="-586.33" font-family="Arial" font-size="14.00">LLE8030</text>
<text text-anchor="middle" x="82.62" y="-554.58" font-family="Arial" font-size="14.00">História da</text>
<text text-anchor="middle" x="82.62" y="-538.83" font-family="Arial" font-size="14.00">Tradução</text>
</g>
<!-- LLE8031 -->
<g id="node20" class="node">
<title>LLE8031</title>
<polygon fill="#8dd3c7" stroke="#8dd3c7" points="448.52,-663.62 347.73,-663.62 347.73,-592.38 448.52,-592.38 448.52,-663.62"/>
<text text-anchor="middle" x="398.12" y="-646.33" font-family="Arial" font-size="14.00">LLE8031</text>
<text text-anchor="middle" x="398.12" y="-614.58" font-family="Arial" font-size="14.00">Teorias da</text>
<text text-anchor="middle" x="398.12" y="-598.83" font-family="Arial" font-size="14.00">Tradução</text>
</g>
<!-- LLE8030&#45;&gt;LLE8031 -->
<g id="edge12" class="edge">
<title>LLE8030&#45;&gt;LLE8031</title>
<path fill="none" stroke="#8dd3c7" stroke-width="2" d="M133.32,-599.88C133.32,-599.88 344.8,-599.88 344.8,-599.88"/>
<polygon fill="#8dd3c7" stroke="#8dd3c7" stroke-width="2" points="346.3,-597.38 346.3,-602.38 345.3,-602.38 345.3,-597.38 346.3,-597.38"/>
<polyline fill="none" stroke="#8dd3c7" stroke-width="2" points="346.8,-599.88 344.3,-599.88"/>
</g>
<!-- LLE8040 -->
<g id="node11" class="node">
<title>LLE8040</title>
<polygon fill="#8dd3c7" stroke="#8dd3c7" points="135.25,-514.5 30,-514.5 30,-427.5 135.25,-427.5 135.25,-514.5"/>
<text text-anchor="middle" x="82.62" y="-497.2" font-family="Arial" font-size="14.00">LLE8040</text>
<text text-anchor="middle" x="82.62" y="-465.45" font-family="Arial" font-size="14.00">Introdução aos</text>
<text text-anchor="middle" x="82.62" y="-449.7" font-family="Arial" font-size="14.00">Estudos da</text>
<text text-anchor="middle" x="82.62" y="-433.95" font-family="Arial" font-size="14.00">Linguagem</text>
</g>
<!-- LLE8040&#45;&gt;LLE8041 -->
<g id="edge9" class="edge">
<title>LLE8040&#45;&gt;LLE8041</title>
<path fill="none" stroke="#8dd3c7" stroke-width="2" d="M135.6,-452.94C155.44,-452.94 173.25,-452.94 173.25,-452.94 173.25,-452.94 173.25,-354.42 173.25,-354.42 173.25,-354.42 185.64,-354.42 185.64,-354.42"/>
<polygon fill="#8dd3c7" stroke="#8dd3c7" stroke-width="2" points="187.14,-351.92 187.14,-356.92 186.14,-356.92 186.14,-351.92 187.14,-351.92"/>
<polyline fill="none" stroke="#8dd3c7" stroke-width="2" points="187.64,-354.42 185.14,-354.42"/>
</g>
<!-- LLE8040&#45;&gt;LLE8050 -->
<g id="edge10" class="edge">
<title>LLE8040&#45;&gt;LLE8050</title>
<path fill="none" stroke="#8dd3c7" stroke-width="2" d="M135.52,-508.46C135.52,-508.46 185.65,-508.46 185.65,-508.46"/>
<polygon fill="#8dd3c7" stroke="#8dd3c7" stroke-width="2" points="187.15,-505.96 187.15,-510.96 186.15,-510.96 186.15,-505.96 187.15,-505.96"/>
<polyline fill="none" stroke="#8dd3c7" stroke-width="2" points="187.65,-508.46 185.15,-508.46"/>
</g>
<!-- LLE8042 -->
<g id="node21" class="node">
<title>LLE8042</title>
<polygon fill="#8dd3c7" stroke="#8dd3c7" points="448.52,-574.62 347.73,-574.62 347.73,-503.38 448.52,-503.38 448.52,-574.62"/>
<text text-anchor="middle" x="398.12" y="-557.33" font-family="Arial" font-size="14.00">LLE8042</text>
<text text-anchor="middle" x="398.12" y="-525.58" font-family="Arial" font-size="14.00">Estudos</text>
<text text-anchor="middle" x="398.12" y="-509.82" font-family="Arial" font-size="14.00">Linguísticos II</text>
</g>
<!-- LLE8040&#45;&gt;LLE8042 -->
<g id="edge13" class="edge">
<title>LLE8040&#45;&gt;LLE8042</title>
<path fill="none" stroke="#8dd3c7" stroke-width="2" d="M135.45,-490.81C225.3,-490.81 398.25,-490.81 398.25,-490.81 398.25,-490.81 398.25,-500.47 398.25,-500.47"/>
<polygon fill="#8dd3c7" stroke="#8dd3c7" stroke-width="2" points="400.75,-501.97 395.75,-501.97 395.75,-500.97 400.75,-500.97 400.75,-501.97"/>
<polyline fill="none" stroke="#8dd3c7" stroke-width="2" points="398.25,-502.47 398.25,-499.97"/>
</g>
<!-- LLE8311 -->
<g id="node12" class="node">
<title>LLE8311</title>
<polygon fill="#8dd3c7" stroke="#8dd3c7" points="139,-320.38 26.25,-320.38 26.25,-217.62 139,-217.62 139,-320.38"/>
<text text-anchor="middle" x="82.62" y="-303.07" font-family="Arial" font-size="14.00">LLE8311</text>
<text text-anchor="middle" x="82.62" y="-271.32" font-family="Arial" font-size="14.00">Compreensão e</text>
<text text-anchor="middle" x="82.62" y="-255.57" font-family="Arial" font-size="14.00">Produção Oral</text>
<text text-anchor="middle" x="82.62" y="-239.82" font-family="Arial" font-size="14.00">em Língua</text>
<text text-anchor="middle" x="82.62" y="-224.07" font-family="Arial" font-size="14.00">Francesa I</text>
</g>
<!-- LLE8391 -->
<g id="node13" class="node">
<title>LLE8391</title>
<polygon fill="#8dd3c7" stroke="#8dd3c7" points="141.25,-199.25 24,-199.25 24,-80.75 141.25,-80.75 141.25,-199.25"/>
<text text-anchor="middle" x="82.62" y="-181.95" font-family="Arial" font-size="14.00">LLE8391</text>
<text text-anchor="middle" x="82.62" y="-150.2" font-family="Arial" font-size="14.00">Compreensão e</text>
<text text-anchor="middle" x="82.62" y="-134.45" font-family="Arial" font-size="14.00">Produção</text>
<text text-anchor="middle" x="82.62" y="-118.7" font-family="Arial" font-size="14.00">Escrita em</text>
<text text-anchor="middle" x="82.62" y="-102.95" font-family="Arial" font-size="14.00">Língua Francesa</text>
<text text-anchor="middle" x="82.62" y="-87.2" font-family="Arial" font-size="14.00">I</text>
</g>
<!-- LLE8022 -->
<g id="node19" class="node">
<title>LLE8022</title>
<polygon fill="#8dd3c7" stroke="#8dd3c7" points="448.52,-227.62 347.73,-227.62 347.73,-156.38 448.52,-156.38 448.52,-227.62"/>
<text text-anchor="middle" x="398.12" y="-210.32" font-family="Arial" font-size="14.00">LLE8022</text>
<text text-anchor="middle" x="398.12" y="-178.57" font-family="Arial" font-size="14.00">Estudos</text>
<text text-anchor="middle" x="398.12" y="-162.82" font-family="Arial" font-size="14.00">Literários III</text>
</g>
<!-- LLE8021&#45;&gt;LLE8022 -->
<g id="edge11" class="edge">
<title>LLE8021&#45;&gt;LLE8022</title>
<path fill="none" stroke="#8dd3c7" stroke-width="2" d="M239.25,-147.87C239.25,-155.34 239.25,-161 239.25,-161 239.25,-161 344.92,-161 344.92,-161"/>
<polygon fill="#8dd3c7" stroke="#8dd3c7" stroke-width="2" points="346.42,-158.5 346.42,-163.5 345.42,-163.5 345.42,-158.5 346.42,-158.5"/>
<polyline fill="none" stroke="#8dd3c7" stroke-width="2" points="346.92,-161 344.42,-161"/>
</g>
<!-- LLE8023 -->
<g id="node25" class="node">
<title>LLE8023</title>
<polygon fill="#8dd3c7" stroke="#8dd3c7" points="607.77,-187.62 506.98,-187.62 506.98,-116.38 607.77,-116.38 607.77,-187.62"/>
<text text-anchor="middle" x="557.38" y="-170.32" font-family="Arial" font-size="14.00">LLE8023</text>
<text text-anchor="middle" x="557.38" y="-138.57" font-family="Arial" font-size="14.00">Estudos</text>
<text text-anchor="middle" x="557.38" y="-122.83" font-family="Arial" font-size="14.00">Literários IV</text>
</g>
<!-- LLE8021&#45;&gt;LLE8023 -->
<g id="edge18" class="edge">
<title>LLE8021&#45;&gt;LLE8023</title>
<path fill="none" stroke="#8dd3c7" stroke-width="2" d="M289.69,-126.79C289.69,-126.79 504.24,-126.79 504.24,-126.79"/>
<polygon fill="#8dd3c7" stroke="#8dd3c7" stroke-width="2" points="505.74,-124.29 505.74,-129.29 504.74,-129.29 504.74,-124.29 505.74,-124.29"/>
<polyline fill="none" stroke="#8dd3c7" stroke-width="2" points="506.24,-126.79 503.74,-126.79"/>
</g>
<!-- LLE8021&#45;&gt;LLE8121 -->
<g id="edge25" class="edge">
<title>LLE8021&#45;&gt;LLE8121</title>
<path fill="none" stroke="#8dd3c7" stroke-width="2" d="M289.62,-113.19C412.73,-113.19 717.25,-113.19 717.25,-113.19 717.25,-113.19 717.25,-148.46 717.25,-148.46"/>
<polygon fill="#8dd3c7" stroke="#8dd3c7" stroke-width="2" points="719.75,-149.96 714.75,-149.96 714.75,-148.96 719.75,-148.96 719.75,-149.96"/>
<polyline fill="none" stroke="#8dd3c7" stroke-width="2" points="717.25,-150.46 717.25,-147.96"/>
</g>
<!-- LLE8021&#45;&gt;LLE8122 -->
<g id="edge30" class="edge">
<title>LLE8021&#45;&gt;LLE8122</title>
<path fill="none" stroke="#8dd3c7" stroke-width="2" d="M289.56,-106.81C443.52,-106.81 895.25,-106.81 895.25,-106.81 895.25,-106.81 895.25,-148.63 895.25,-148.63"/>
<polygon fill="#8dd3c7" stroke="#8dd3c7" stroke-width="2" points="897.75,-150.13 892.75,-150.13 892.75,-149.13 897.75,-149.13 897.75,-150.13"/>
<polyline fill="none" stroke="#8dd3c7" stroke-width="2" points="895.25,-150.63 895.25,-148.13"/>
</g>
<!-- LLE8021&#45;&gt;LLE8123 -->
<g id="edge35" class="edge">
<title>LLE8021&#45;&gt;LLE8123</title>
<path fill="none" stroke="#8dd3c7" stroke-width="2" d="M289.64,-137.21C363.34,-137.21 491.25,-137.21 491.25,-137.21 491.25,-137.21 491.25,-543.38 491.25,-543.38 491.25,-543.38 981.95,-543.38 981.95,-543.38"/>
<polygon fill="#8dd3c7" stroke="#8dd3c7" stroke-width="2" points="983.45,-540.88 983.45,-545.88 982.45,-545.88 982.45,-540.88 983.45,-540.88"/>
<polyline fill="none" stroke="#8dd3c7" stroke-width="2" points="983.95,-543.38 981.45,-543.38"/>
</g>
<!-- LLE8021&#45;&gt;LLE8124 -->
<g id="edge39" class="edge">
<title>LLE8021&#45;&gt;LLE8124</title>
<path fill="none" stroke="#8dd3c7" stroke-width="2" d="M289.54,-90C479.58,-90 1139.25,-90 1139.25,-90 1139.25,-90 1139.25,-541.47 1139.25,-541.47"/>
<polygon fill="#8dd3c7" stroke="#8dd3c7" stroke-width="2" points="1141.75,-542.97 1136.75,-542.97 1136.75,-541.97 1141.75,-541.97 1141.75,-542.97"/>
<polyline fill="none" stroke="#8dd3c7" stroke-width="2" points="1139.25,-543.47 1139.25,-540.97"/>
</g>
<!-- LLE8010 -->
<g id="node24" class="node">
<title>LLE8010</title>
<polygon fill="#8dd3c7" stroke="#8dd3c7" points="607.77,-413.5 506.98,-413.5 506.98,-326.5 607.77,-326.5 607.77,-413.5"/>
<text text-anchor="middle" x="557.38" y="-396.2" font-family="Arial" font-size="14.00">LLE8010</text>
<text text-anchor="middle" x="557.38" y="-364.45" font-family="Arial" font-size="14.00">Pesquisa em</text>
<text text-anchor="middle" x="557.38" y="-348.7" font-family="Arial" font-size="14.00">Letras</text>
<text text-anchor="middle" x="557.38" y="-332.95" font-family="Arial" font-size="14.00">Estrangeiras</text>
</g>
<!-- LLE8041&#45;&gt;LLE8010 -->
<g id="edge16" class="edge">
<title>LLE8041&#45;&gt;LLE8010</title>
<path fill="none" stroke="#8dd3c7" stroke-width="2" d="M289.69,-353C289.69,-353 504.24,-353 504.24,-353"/>
<polygon fill="#8dd3c7" stroke="#8dd3c7" stroke-width="2" points="505.74,-350.5 505.74,-355.5 504.74,-355.5 504.74,-350.5 505.74,-350.5"/>
<polyline fill="none" stroke="#8dd3c7" stroke-width="2" points="506.24,-353 503.74,-353"/>
</g>
<!-- LLE8113 -->
<g id="node22" class="node">
<title>LLE8113</title>
<polygon fill="#8dd3c7" stroke="#8dd3c7" points="459.75,-348.38 336.5,-348.38 336.5,-245.62 459.75,-245.62 459.75,-348.38"/>
<text text-anchor="middle" x="398.12" y="-331.07" font-family="Arial" font-size="14.00">LLE8113</text>
<text text-anchor="middle" x="398.12" y="-299.32" font-family="Arial" font-size="14.00">Compreensão e</text>
<text text-anchor="middle" x="398.12" y="-283.57" font-family="Arial" font-size="14.00">Produção Oral</text>
<text text-anchor="middle" x="398.12" y="-267.82" font-family="Arial" font-size="14.00">em Língua Alemã</text>
<text text-anchor="middle" x="398.12" y="-252.07" font-family="Arial" font-size="14.00">III</text>
</g>
<!-- LLE8112&#45;&gt;LLE8113 -->
<g id="edge14" class="edge">
<title>LLE8112&#45;&gt;LLE8113</title>
<path fill="none" stroke="#8dd3c7" stroke-width="2" d="M300.9,-257C300.9,-257 333.51,-257 333.51,-257"/>
<polygon fill="#8dd3c7" stroke="#8dd3c7" stroke-width="2" points="335.01,-254.5 335.01,-259.5 334.01,-259.5 334.01,-254.5 335.01,-254.5"/>
<polyline fill="none" stroke="#8dd3c7" stroke-width="2" points="335.51,-257 333.01,-257"/>
</g>
<!-- LLE8192&#45;&gt;LLE8022 -->
<!-- LLE8192&#45;&gt;LLE8031 -->
<!-- LLE8192&#45;&gt;LLE8042 -->
<!-- LLE8192&#45;&gt;LLE8113 -->
<!-- LLE8193 -->
<g id="node23" class="node">
<title>LLE8193</title>
<polygon fill="#8dd3c7" stroke="#8dd3c7" points="454.5,-485.25 341.75,-485.25 341.75,-366.75 454.5,-366.75 454.5,-485.25"/>
<text text-anchor="middle" x="398.12" y="-467.95" font-family="Arial" font-size="14.00">LLE8193</text>
<text text-anchor="middle" x="398.12" y="-436.2" font-family="Arial" font-size="14.00">Compreensão e</text>
<text text-anchor="middle" x="398.12" y="-420.45" font-family="Arial" font-size="14.00">Produção</text>
<text text-anchor="middle" x="398.12" y="-404.7" font-family="Arial" font-size="14.00">Escrita em</text>
<text text-anchor="middle" x="398.12" y="-388.95" font-family="Arial" font-size="14.00">Língua Alemã</text>
<text text-anchor="middle" x="398.12" y="-373.2" font-family="Arial" font-size="14.00">III</text>
</g>
<!-- LLE8192&#45;&gt;LLE8193 -->
<g id="edge15" class="edge">
<title>LLE8192&#45;&gt;LLE8193</title>
<path fill="none" stroke="#8dd3c7" stroke-width="2" d="M295.47,-419.66C295.47,-419.66 338.95,-419.66 338.95,-419.66"/>
<polygon fill="#8dd3c7" stroke="#8dd3c7" stroke-width="2" points="340.45,-417.16 340.45,-422.16 339.45,-422.16 339.45,-417.16 340.45,-417.16"/>
<polyline fill="none" stroke="#8dd3c7" stroke-width="2" points="340.95,-419.66 338.45,-419.66"/>
</g>
<!-- LLE8192&#45;&gt;LLE8193 -->
<!-- LLE8032 -->
<g id="node26" class="node">
<title>LLE8032</title>
<polygon fill="#8dd3c7" stroke="#8dd3c7" points="607.77,-623.62 506.98,-623.62 506.98,-552.38 607.77,-552.38 607.77,-623.62"/>
<text text-anchor="middle" x="557.38" y="-606.33" font-family="Arial" font-size="14.00">LLE8032</text>
<text text-anchor="middle" x="557.38" y="-574.58" font-family="Arial" font-size="14.00">Prática de</text>
<text text-anchor="middle" x="557.38" y="-558.83" font-family="Arial" font-size="14.00">Tradução</text>
</g>
<!-- LLE8031&#45;&gt;LLE8032 -->
<g id="edge19" class="edge">
<title>LLE8031&#45;&gt;LLE8032</title>
<path fill="none" stroke="#8dd3c7" stroke-width="2" d="M448.95,-608C448.95,-608 503.99,-608 503.99,-608"/>
<polygon fill="#8dd3c7" stroke="#8dd3c7" stroke-width="2" points="505.49,-605.5 505.49,-610.5 504.49,-610.5 504.49,-605.5 505.49,-605.5"/>
<polyline fill="none" stroke="#8dd3c7" stroke-width="2" points="505.99,-608 503.49,-608"/>
</g>
<!-- LLE8114 -->
<g id="node27" class="node">
<title>LLE8114</title>
<polygon fill="#8dd3c7" stroke="#8dd3c7" points="619,-308.38 495.75,-308.38 495.75,-205.62 619,-205.62 619,-308.38"/>
<text text-anchor="middle" x="557.38" y="-291.07" font-family="Arial" font-size="14.00">LLE8114</text>
<text text-anchor="middle" x="557.38" y="-259.32" font-family="Arial" font-size="14.00">Compreensão e</text>
<text text-anchor="middle" x="557.38" y="-243.57" font-family="Arial" font-size="14.00">Produção Oral</text>
<text text-anchor="middle" x="557.38" y="-227.82" font-family="Arial" font-size="14.00">em Língua Alemã</text>
<text text-anchor="middle" x="557.38" y="-212.07" font-family="Arial" font-size="14.00">IV</text>
</g>
<!-- LLE8113&#45;&gt;LLE8114 -->
<g id="edge21" class="edge">
<title>LLE8113&#45;&gt;LLE8114</title>
<path fill="none" stroke="#8dd3c7" stroke-width="2" d="M460.15,-277C460.15,-277 492.76,-277 492.76,-277"/>
<polygon fill="#8dd3c7" stroke="#8dd3c7" stroke-width="2" points="494.26,-274.5 494.26,-279.5 493.26,-279.5 493.26,-274.5 494.26,-274.5"/>
<polyline fill="none" stroke="#8dd3c7" stroke-width="2" points="494.76,-277 492.26,-277"/>
</g>
<!-- LLE8193&#45;&gt;LLE8010 -->
<g id="edge17" class="edge">
<title>LLE8193&#45;&gt;LLE8010</title>
<path fill="none" stroke="#8dd3c7" stroke-width="2" d="M454.72,-394.8C454.72,-394.8 504.03,-394.8 504.03,-394.8"/>
<polygon fill="#8dd3c7" stroke="#8dd3c7" stroke-width="2" points="505.53,-392.3 505.53,-397.3 504.53,-397.3 504.53,-392.3 505.53,-392.3"/>
<polyline fill="none" stroke="#8dd3c7" stroke-width="2" points="506.03,-394.8 503.53,-394.8"/>
</g>
<!-- LLE8193&#45;&gt;LLE8010 -->
<!-- LLE8193&#45;&gt;LLE8023 -->
<!-- LLE8193&#45;&gt;LLE8032 -->
<g id="edge20" class="edge">
<title>LLE8193&#45;&gt;LLE8032</title>
<path fill="none" stroke="#8dd3c7" stroke-width="2" d="M454.95,-474.52C469.56,-474.52 481.25,-474.52 481.25,-474.52 481.25,-474.52 481.25,-567.21 481.25,-567.21 481.25,-567.21 504.1,-567.21 504.1,-567.21"/>
<polygon fill="#8dd3c7" stroke="#8dd3c7" stroke-width="2" points="505.6,-564.71 505.6,-569.71 504.6,-569.71 504.6,-564.71 505.6,-564.71"/>
<polyline fill="none" stroke="#8dd3c7" stroke-width="2" points="506.1,-567.21 503.6,-567.21"/>
</g>
<!-- LLE8193&#45;&gt;LLE8032 -->
<!-- LLE8193&#45;&gt;LLE8114 -->
<!-- LLE8194 -->
<g id="node28" class="node">
<title>LLE8194</title>
<polygon fill="#8dd3c7" stroke="#8dd3c7" points="615.62,-534.38 499.12,-534.38 499.12,-431.62 615.62,-431.62 615.62,-534.38"/>
<text text-anchor="middle" x="557.38" y="-517.08" font-family="Arial" font-size="14.00">LLE8194</text>
<text text-anchor="middle" x="557.38" y="-485.32" font-family="Arial" font-size="14.00">Compreensão e</text>
<text text-anchor="middle" x="557.38" y="-469.57" font-family="Arial" font-size="14.00">Produção</text>
<text text-anchor="middle" x="557.38" y="-453.82" font-family="Arial" font-size="14.00">Escrita em</text>
<text text-anchor="middle" x="557.38" y="-438.07" font-family="Arial" font-size="14.00">Língua Alemã IV</text>
</g>
<!-- LLE8193&#45;&gt;LLE8194 -->
<g id="edge22" class="edge">
<title>LLE8193&#45;&gt;LLE8194</title>
<path fill="none" stroke="#8dd3c7" stroke-width="2" d="M454.72,-442.35C454.72,-442.35 496.31,-442.35 496.31,-442.35"/>
<polygon fill="#8dd3c7" stroke="#8dd3c7" stroke-width="2" points="497.81,-439.85 497.81,-444.85 496.81,-444.85 496.81,-439.85 497.81,-439.85"/>
<polyline fill="none" stroke="#8dd3c7" stroke-width="2" points="498.31,-442.35 495.81,-442.35"/>
</g>
<!-- LLE8193&#45;&gt;LLE8194 -->
<!-- LLE8115 -->
<g id="node29" class="node">
<title>LLE8115</title>
<polygon fill="#8dd3c7" stroke="#8dd3c7" points="778.25,-343.38 655,-343.38 655,-240.62 778.25,-240.62 778.25,-343.38"/>
<text text-anchor="middle" x="716.62" y="-326.07" font-family="Arial" font-size="14.00">LLE8115</text>
<text text-anchor="middle" x="716.62" y="-294.32" font-family="Arial" font-size="14.00">Compreensão e</text>
<text text-anchor="middle" x="716.62" y="-278.57" font-family="Arial" font-size="14.00">Produção Oral</text>
<text text-anchor="middle" x="716.62" y="-262.82" font-family="Arial" font-size="14.00">em Língua Alemã</text>
<text text-anchor="middle" x="716.62" y="-247.07" font-family="Arial" font-size="14.00">V</text>
</g>
<!-- LLE8114&#45;&gt;LLE8115 -->
<g id="edge23" class="edge">
<title>LLE8114&#45;&gt;LLE8115</title>
<path fill="none" stroke="#8dd3c7" stroke-width="2" d="M619.4,-274.5C619.4,-274.5 652.01,-274.5 652.01,-274.5"/>
<polygon fill="#8dd3c7" stroke="#8dd3c7" stroke-width="2" points="653.51,-272 653.51,-277 652.51,-277 652.51,-272 653.51,-272"/>
<polyline fill="none" stroke="#8dd3c7" stroke-width="2" points="654.01,-274.5 651.51,-274.5"/>
</g>
<!-- LLE8194&#45;&gt;LLE8115 -->
<!-- LLE8194&#45;&gt;LLE8121 -->
<g id="edge26" class="edge">
<title>LLE8194&#45;&gt;LLE8121</title>
<path fill="none" stroke="#8dd3c7" stroke-width="2" d="M615.94,-438.18C624.91,-438.18 631.25,-438.18 631.25,-438.18 631.25,-438.18 631.25,-211.29 631.25,-211.29 631.25,-211.29 660.06,-211.29 660.06,-211.29"/>
<polygon fill="#8dd3c7" stroke="#8dd3c7" stroke-width="2" points="661.56,-208.79 661.56,-213.79 660.56,-213.79 660.56,-208.79 661.56,-208.79"/>
<polyline fill="none" stroke="#8dd3c7" stroke-width="2" points="662.06,-211.29 659.56,-211.29"/>
</g>
<!-- LLE8194&#45;&gt;LLE8121 -->
<!-- LLE8195 -->
<g id="node31" class="node">
<title>LLE8195</title>
<polygon fill="#8dd3c7" stroke="#8dd3c7" points="773,-464.38 660.25,-464.38 660.25,-361.62 773,-361.62 773,-464.38"/>
<text text-anchor="middle" x="716.62" y="-447.07" font-family="Arial" font-size="14.00">LLE8195</text>
<text text-anchor="middle" x="716.62" y="-415.32" font-family="Arial" font-size="14.00">Compreensão e</text>
<text text-anchor="middle" x="716.62" y="-399.57" font-family="Arial" font-size="14.00">Produção</text>
<text text-anchor="middle" x="716.62" y="-383.82" font-family="Arial" font-size="14.00">Escrita em</text>
<text text-anchor="middle" x="716.62" y="-368.07" font-family="Arial" font-size="14.00">Língua Alemã V</text>
</g>
<!-- LLE8194&#45;&gt;LLE8195 -->
<g id="edge27" class="edge">
<title>LLE8194&#45;&gt;LLE8195</title>
<path fill="none" stroke="#8dd3c7" stroke-width="2" d="M615.77,-451.27C615.77,-451.27 657.33,-451.27 657.33,-451.27"/>
<polygon fill="#8dd3c7" stroke="#8dd3c7" stroke-width="2" points="658.83,-448.78 658.83,-453.78 657.83,-453.78 657.83,-448.78 658.83,-448.78"/>
<polyline fill="none" stroke="#8dd3c7" stroke-width="2" points="659.33,-451.28 656.83,-451.28"/>
</g>
<!-- LLE8194&#45;&gt;LLE8195 -->
<!-- LLE8194&#45;&gt;LLE8122 -->
<g id="edge31" class="edge">
<title>LLE8194&#45;&gt;LLE8122</title>
<path fill="none" stroke="#8dd3c7" stroke-width="2" d="M616.12,-479.81C686.84,-479.81 796.25,-479.81 796.25,-479.81 796.25,-479.81 796.25,-198.88 796.25,-198.88 796.25,-198.88 817.64,-198.88 817.64,-198.88"/>
<polygon fill="#8dd3c7" stroke="#8dd3c7" stroke-width="2" points="819.14,-196.38 819.14,-201.38 818.14,-201.38 818.14,-196.38 819.14,-196.38"/>
<polyline fill="none" stroke="#8dd3c7" stroke-width="2" points="819.64,-198.88 817.14,-198.88"/>
</g>
<!-- LLE8194&#45;&gt;LLE8123 -->
<g id="edge36" class="edge">
<title>LLE8194&#45;&gt;LLE8123</title>
<path fill="none" stroke="#8dd3c7" stroke-width="2" d="M615.96,-527.42C615.96,-527.42 981.94,-527.42 981.94,-527.42"/>
<polygon fill="#8dd3c7" stroke="#8dd3c7" stroke-width="2" points="983.44,-524.92 983.44,-529.92 982.44,-529.92 982.44,-524.92 983.44,-524.92"/>
<polyline fill="none" stroke="#8dd3c7" stroke-width="2" points="983.94,-527.42 981.44,-527.42"/>
</g>
<!-- LLE8194&#45;&gt;LLE8124 -->
<g id="edge40" class="edge">
<title>LLE8194&#45;&gt;LLE8124</title>
<path fill="none" stroke="#8dd3c7" stroke-width="2" d="M615.96,-504.38C762.88,-504.38 1135.25,-504.38 1135.25,-504.38 1135.25,-504.38 1135.25,-541.46 1135.25,-541.46"/>
<polygon fill="#8dd3c7" stroke="#8dd3c7" stroke-width="2" points="1137.75,-542.96 1132.75,-542.96 1132.75,-541.96 1137.75,-541.96 1137.75,-542.96"/>
<polyline fill="none" stroke="#8dd3c7" stroke-width="2" points="1135.25,-543.46 1135.25,-540.96"/>
</g>
<!-- LLE8116 -->
<g id="node32" class="node">
<title>LLE8116</title>
<polygon fill="#8dd3c7" stroke="#8dd3c7" points="937.5,-343.38 814.25,-343.38 814.25,-240.62 937.5,-240.62 937.5,-343.38"/>
<text text-anchor="middle" x="875.88" y="-326.07" font-family="Arial" font-size="14.00">LLE8116</text>
<text text-anchor="middle" x="875.88" y="-294.32" font-family="Arial" font-size="14.00">Compreensão e</text>
<text text-anchor="middle" x="875.88" y="-278.57" font-family="Arial" font-size="14.00">Produção Oral</text>
<text text-anchor="middle" x="875.88" y="-262.82" font-family="Arial" font-size="14.00">em Língua Alemã</text>
<text text-anchor="middle" x="875.88" y="-247.07" font-family="Arial" font-size="14.00">VI</text>
</g>
<!-- LLE8115&#45;&gt;LLE8116 -->
<g id="edge28" class="edge">
<title>LLE8115&#45;&gt;LLE8116</title>
<path fill="none" stroke="#8dd3c7" stroke-width="2" d="M778.65,-274.88C778.65,-274.88 811.26,-274.88 811.26,-274.88"/>
<polygon fill="#8dd3c7" stroke="#8dd3c7" stroke-width="2" points="812.76,-272.38 812.76,-277.38 811.76,-277.38 811.76,-272.38 812.76,-272.38"/>
<polyline fill="none" stroke="#8dd3c7" stroke-width="2" points="813.26,-274.88 810.76,-274.88"/>
</g>
<!-- LLE8195&#45;&gt;LLE8116 -->
<!-- LLE8195&#45;&gt;LLE8122 -->
<!-- LLE8196 -->
<g id="node34" class="node">
<title>LLE8196</title>
<polygon fill="#8dd3c7" stroke="#8dd3c7" points="934.12,-464.38 817.62,-464.38 817.62,-361.62 934.12,-361.62 934.12,-464.38"/>
<text text-anchor="middle" x="875.88" y="-447.07" font-family="Arial" font-size="14.00">LLE8196</text>
<text text-anchor="middle" x="875.88" y="-415.32" font-family="Arial" font-size="14.00">Compreensão e</text>
<text text-anchor="middle" x="875.88" y="-399.57" font-family="Arial" font-size="14.00">Produção</text>
<text text-anchor="middle" x="875.88" y="-383.82" font-family="Arial" font-size="14.00">Escrita em</text>
<text text-anchor="middle" x="875.88" y="-368.07" font-family="Arial" font-size="14.00">Língua Alemã VI</text>
</g>
<!-- LLE8195&#45;&gt;LLE8196 -->
<g id="edge32" class="edge">
<title>LLE8195&#45;&gt;LLE8196</title>
<path fill="none" stroke="#8dd3c7" stroke-width="2" d="M773.22,-423.27C773.22,-423.27 814.81,-423.27 814.81,-423.27"/>
<polygon fill="#8dd3c7" stroke="#8dd3c7" stroke-width="2" points="816.31,-420.78 816.31,-425.78 815.31,-425.78 815.31,-420.78 816.31,-420.78"/>
<polyline fill="none" stroke="#8dd3c7" stroke-width="2" points="816.81,-423.28 814.31,-423.28"/>
</g>
<!-- LLE8195&#45;&gt;LLE8196 -->
<!-- LLE8117 -->
<g id="node35" class="node">
<title>LLE8117</title>
<polygon fill="#8dd3c7" stroke="#8dd3c7" points="1096.75,-206.38 973.5,-206.38 973.5,-103.62 1096.75,-103.62 1096.75,-206.38"/>
<text text-anchor="middle" x="1035.12" y="-189.07" font-family="Arial" font-size="14.00">LLE8117</text>
<text text-anchor="middle" x="1035.12" y="-157.32" font-family="Arial" font-size="14.00">Compreensão e</text>
<text text-anchor="middle" x="1035.12" y="-141.57" font-family="Arial" font-size="14.00">Produção Oral</text>
<text text-anchor="middle" x="1035.12" y="-125.83" font-family="Arial" font-size="14.00">em Língua Alemã</text>
<text text-anchor="middle" x="1035.12" y="-110.08" font-family="Arial" font-size="14.00">VII</text>
</g>
<!-- LLE8116&#45;&gt;LLE8117 -->
<g id="edge33" class="edge">
<title>LLE8116&#45;&gt;LLE8117</title>
<path fill="none" stroke="#8dd3c7" stroke-width="2" d="M937.97,-292C945.31,-292 950.25,-292 950.25,-292 950.25,-292 950.25,-169.71 950.25,-169.71 950.25,-169.71 970.94,-169.71 970.94,-169.71"/>
<polygon fill="#8dd3c7" stroke="#8dd3c7" stroke-width="2" points="972.44,-167.21 972.44,-172.21 971.44,-172.21 971.44,-167.21 972.44,-167.21"/>
<polyline fill="none" stroke="#8dd3c7" stroke-width="2" points="972.94,-169.71 970.44,-169.71"/>
</g>
<!-- LLE8196&#45;&gt;LLE8117 -->
<!-- LLE8196&#45;&gt;LLE8123 -->
<!-- LLE8161 -->
<g id="node37" class="node">
<title>LLE8161</title>
<polygon fill="#fb8072" stroke="#fb8072" points="1089.25,-359.12 981,-359.12 981,-224.88 1089.25,-224.88 1089.25,-359.12"/>
<text text-anchor="middle" x="1035.12" y="-341.82" font-family="Arial" font-size="14.00">LLE8161</text>
<text text-anchor="middle" x="1035.12" y="-310.07" font-family="Arial" font-size="14.00">&quot;Elaboração de</text>
<text text-anchor="middle" x="1035.12" y="-294.32" font-family="Arial" font-size="14.00">Projeto de</text>
<text text-anchor="middle" x="1035.12" y="-278.57" font-family="Arial" font-size="14.00">Trabalho de</text>
<text text-anchor="middle" x="1035.12" y="-262.82" font-family="Arial" font-size="14.00">Conclusão de</text>
<text text-anchor="middle" x="1035.12" y="-247.07" font-family="Arial" font-size="14.00">Curso (TCC) &#45;</text>
<text text-anchor="middle" x="1035.12" y="-231.32" font-family="Arial" font-size="14.00">Alemão&quot;</text>
</g>
<!-- LLE8196&#45;&gt;LLE8161 -->
<!-- LLE8197 -->
<g id="node38" class="node">
<title>LLE8197</title>
<polygon fill="#8dd3c7" stroke="#8dd3c7" points="1091.5,-495.25 978.75,-495.25 978.75,-376.75 1091.5,-376.75 1091.5,-495.25"/>
<text text-anchor="middle" x="1035.12" y="-477.95" font-family="Arial" font-size="14.00">LLE8197</text>
<text text-anchor="middle" x="1035.12" y="-446.2" font-family="Arial" font-size="14.00">Compreensão e</text>
<text text-anchor="middle" x="1035.12" y="-430.45" font-family="Arial" font-size="14.00">Produção</text>
<text text-anchor="middle" x="1035.12" y="-414.7" font-family="Arial" font-size="14.00">Escrita em</text>
<text text-anchor="middle" x="1035.12" y="-398.95" font-family="Arial" font-size="14.00">Língua Alemã</text>
<text text-anchor="middle" x="1035.12" y="-383.2" font-family="Arial" font-size="14.00">VII</text>
</g>
<!-- LLE8196&#45;&gt;LLE8197 -->
<g id="edge37" class="edge">
<title>LLE8196&#45;&gt;LLE8197</title>
<path fill="none" stroke="#8dd3c7" stroke-width="2" d="M934.27,-405.96C934.27,-405.96 975.83,-405.96 975.83,-405.96"/>
<polygon fill="#8dd3c7" stroke="#8dd3c7" stroke-width="2" points="977.33,-403.46 977.33,-408.46 976.33,-408.46 976.33,-403.46 977.33,-403.46"/>
<polyline fill="none" stroke="#8dd3c7" stroke-width="2" points="977.83,-405.96 975.33,-405.96"/>
</g>
<!-- LLE8196&#45;&gt;LLE8197 -->
<!-- LLE8162 -->
<g id="node40" class="node">
<title>LLE8162</title>
<polygon fill="#fb8072" stroke="#fb8072" points="1241.4,-526.38 1140.6,-526.38 1140.6,-423.62 1241.4,-423.62 1241.4,-526.38"/>
<text text-anchor="middle" x="1191" y="-509.07" font-family="Arial" font-size="14.00">LLE8162</text>
<text text-anchor="middle" x="1191" y="-477.32" font-family="Arial" font-size="14.00">Trabalho de</text>
<text text-anchor="middle" x="1191" y="-461.57" font-family="Arial" font-size="14.00">Conclusão de</text>
<text text-anchor="middle" x="1191" y="-445.82" font-family="Arial" font-size="14.00">Curso (TCC) &#45;</text>
<text text-anchor="middle" x="1191" y="-430.07" font-family="Arial" font-size="14.00">Alemão</text>
</g>
<!-- LLE8161&#45;&gt;LLE8162 -->
<g id="edge41" class="edge">
<title>LLE8161&#45;&gt;LLE8162</title>
<path fill="none" stroke="#fb8072" stroke-width="2" d="M1089.73,-292C1134.75,-292 1191.25,-292 1191.25,-292 1191.25,-292 1191.25,-421.04 1191.25,-421.04"/>
<polygon fill="#fb8072" stroke="#fb8072" stroke-width="2" points="1193.75,-422.54 1188.75,-422.54 1188.75,-421.54 1193.75,-421.54 1193.75,-422.54"/>
<polyline fill="none" stroke="#fb8072" stroke-width="2" points="1191.25,-423.04 1191.25,-420.54"/>
</g>
<!-- LLE8197&#45;&gt;LLE8124 -->
<!-- LLE8197&#45;&gt;LLE8162 -->
</g>
</svg>
