<?xml version="1.0" encoding="UTF-8" standalone="no"?>
<!DOCTYPE svg PUBLIC "-//W3C//DTD SVG 1.1//EN"
 "http://www.w3.org/Graphics/SVG/1.1/DTD/svg11.dtd">
<!-- Generated by graphviz version 9.0.0 (0)
 -->
<!-- Title: grafo_materias Pages: 1 -->
<svg width="1128pt" height="770pt"
 viewBox="0.00 0.00 1128.00 770.00" xmlns="http://www.w3.org/2000/svg" xmlns:xlink="http://www.w3.org/1999/xlink">
<g id="graph0" class="graph" transform="scale(1 1) rotate(0) translate(4 766)">
<title>grafo_materias</title>
<polygon fill="none" stroke="none" points="-4,4 -4,-766 1124,-766 1124,4 -4,4"/>
<g id="clust1" class="cluster">
<title>cluster_everything</title>
<polygon fill="none" stroke="none" points="8,-8 8,-754 1112,-754 1112,-8 8,-8"/>
</g>
<g id="clust2" class="cluster">
<title>cluster_header</title>
<polygon fill="none" stroke="none" points="27.22,-694 27.22,-746 1096.15,-746 1096.15,-694 27.22,-694"/>
</g>
<g id="clust3" class="cluster">
<title>cluster_0</title>
<polygon fill="none" stroke="none" points="16,-93 16,-600 155.25,-600 155.25,-93 16,-93"/>
</g>
<g id="clust4" class="cluster">
<title>cluster_1</title>
<polygon fill="none" stroke="none" points="175.25,-89 175.25,-612 314.5,-612 314.5,-89 175.25,-89"/>
</g>
<g id="clust5" class="cluster">
<title>cluster_2</title>
<polygon fill="none" stroke="none" points="334.5,-97 334.5,-620 473.75,-620 473.75,-97 334.5,-97"/>
</g>
<g id="clust6" class="cluster">
<title>cluster_3</title>
<polygon fill="none" stroke="none" points="493.75,-52 493.75,-608 633,-608 633,-52 493.75,-52"/>
</g>
<g id="clust7" class="cluster">
<title>cluster_4</title>
<polygon fill="none" stroke="none" points="653,-16 653,-572 792.25,-572 792.25,-16 653,-16"/>
</g>
<g id="clust8" class="cluster">
<title>cluster_5</title>
<polygon fill="none" stroke="none" points="812.25,-140 812.25,-606 951.5,-606 951.5,-140 812.25,-140"/>
</g>
<g id="clust9" class="cluster">
<title>cluster_6</title>
<polygon fill="none" stroke="none" points="971.5,-372 971.5,-686 1104,-686 1104,-372 971.5,-372"/>
</g>
<!-- 2ª Fase -->
<g id="node1" class="node">
<title>2ª Fase</title>
<polygon fill="lightgrey" stroke="black" points="136.03,-738 35.23,-738 35.23,-702 136.03,-702 136.03,-738"/>
<text text-anchor="middle" x="85.62" y="-714.58" font-family="Arial" font-size="14.00">2ª Fase</text>
</g>
<!-- 3ª Fase -->
<g id="node2" class="node">
<title>3ª Fase</title>
<polygon fill="lightgrey" stroke="black" points="295.27,-738 194.47,-738 194.47,-702 295.27,-702 295.27,-738"/>
<text text-anchor="middle" x="244.88" y="-714.58" font-family="Arial" font-size="14.00">3ª Fase</text>
</g>
<!-- 2ª Fase&#45;&gt;3ª Fase -->
<!-- 4ª Fase -->
<g id="node3" class="node">
<title>4ª Fase</title>
<polygon fill="lightgrey" stroke="black" points="454.52,-738 353.73,-738 353.73,-702 454.52,-702 454.52,-738"/>
<text text-anchor="middle" x="404.12" y="-714.58" font-family="Arial" font-size="14.00">4ª Fase</text>
</g>
<!-- 3ª Fase&#45;&gt;4ª Fase -->
<!-- 5ª Fase -->
<g id="node4" class="node">
<title>5ª Fase</title>
<polygon fill="lightgrey" stroke="black" points="613.77,-738 512.98,-738 512.98,-702 613.77,-702 613.77,-738"/>
<text text-anchor="middle" x="563.38" y="-714.58" font-family="Arial" font-size="14.00">5ª Fase</text>
</g>
<!-- 4ª Fase&#45;&gt;5ª Fase -->
<!-- 6ª Fase -->
<g id="node5" class="node">
<title>6ª Fase</title>
<polygon fill="lightgrey" stroke="black" points="773.02,-738 672.23,-738 672.23,-702 773.02,-702 773.02,-738"/>
<text text-anchor="middle" x="722.62" y="-714.58" font-family="Arial" font-size="14.00">6ª Fase</text>
</g>
<!-- 5ª Fase&#45;&gt;6ª Fase -->
<!-- 7ª Fase -->
<g id="node6" class="node">
<title>7ª Fase</title>
<polygon fill="lightgrey" stroke="black" points="932.27,-738 831.48,-738 831.48,-702 932.27,-702 932.27,-738"/>
<text text-anchor="middle" x="881.88" y="-714.58" font-family="Arial" font-size="14.00">7ª Fase</text>
</g>
<!-- 6ª Fase&#45;&gt;7ª Fase -->
<!-- 8ª Fase -->
<g id="node7" class="node">
<title>8ª Fase</title>
<polygon fill="lightgrey" stroke="black" points="1088.15,-738 987.35,-738 987.35,-702 1088.15,-702 1088.15,-738"/>
<text text-anchor="middle" x="1037.75" y="-714.58" font-family="Arial" font-size="14.00">8ª Fase</text>
</g>
<!-- 7ª Fase&#45;&gt;8ª Fase -->
<!-- LLE8021 -->
<g id="node8" class="node">
<title>LLE8021</title>
<polygon fill="#8dd3c7" stroke="#8dd3c7" points="136.03,-502.62 35.23,-502.62 35.23,-431.38 136.03,-431.38 136.03,-502.62"/>
<text text-anchor="middle" x="85.62" y="-485.32" font-family="Arial" font-size="14.00">LLE8021</text>
<text text-anchor="middle" x="85.62" y="-453.57" font-family="Arial" font-size="14.00">Estudos</text>
<text text-anchor="middle" x="85.62" y="-437.82" font-family="Arial" font-size="14.00">Literários II</text>
</g>
<!-- LLE8022 -->
<g id="node13" class="node">
<title>LLE8022</title>
<polygon fill="#8dd3c7" stroke="#8dd3c7" points="295.27,-425.62 194.47,-425.62 194.47,-354.38 295.27,-354.38 295.27,-425.62"/>
<text text-anchor="middle" x="244.88" y="-408.32" font-family="Arial" font-size="14.00">LLE8022</text>
<text text-anchor="middle" x="244.88" y="-376.57" font-family="Arial" font-size="14.00">Estudos</text>
<text text-anchor="middle" x="244.88" y="-360.82" font-family="Arial" font-size="14.00">Literários III</text>
</g>
<!-- LLE8021&#45;&gt;LLE8022 -->
<g id="edge7" class="edge">
<title>LLE8021&#45;&gt;LLE8022</title>
<path fill="none" stroke="#8dd3c7" stroke-width="2" d="M69,-431.12C69,-423.46 69,-417.62 69,-417.62 69,-417.62 191.5,-417.62 191.5,-417.62"/>
<polygon fill="#8dd3c7" stroke="#8dd3c7" stroke-width="2" points="193,-415.13 193,-420.13 192,-420.13 192,-415.13 193,-415.13"/>
<polyline fill="none" stroke="#8dd3c7" stroke-width="2" points="193.5,-417.63 191,-417.63"/>
</g>
<!-- LLE8021&#45;&gt;LLE8022 -->
<!-- LLE8031 -->
<g id="node14" class="node">
<title>LLE8031</title>
<polygon fill="#8dd3c7" stroke="#8dd3c7" points="295.27,-514.62 194.47,-514.62 194.47,-443.38 295.27,-443.38 295.27,-514.62"/>
<text text-anchor="middle" x="244.88" y="-497.32" font-family="Arial" font-size="14.00">LLE8031</text>
<text text-anchor="middle" x="244.88" y="-465.57" font-family="Arial" font-size="14.00">Teorias da</text>
<text text-anchor="middle" x="244.88" y="-449.82" font-family="Arial" font-size="14.00">Tradução</text>
</g>
<!-- LLE8021&#45;&gt;LLE8031 -->
<!-- LLE8042 -->
<g id="node15" class="node">
<title>LLE8042</title>
<polygon fill="#8dd3c7" stroke="#8dd3c7" points="295.27,-603.62 194.47,-603.62 194.47,-532.38 295.27,-532.38 295.27,-603.62"/>
<text text-anchor="middle" x="244.88" y="-586.33" font-family="Arial" font-size="14.00">LLE8042</text>
<text text-anchor="middle" x="244.88" y="-554.58" font-family="Arial" font-size="14.00">Estudos</text>
<text text-anchor="middle" x="244.88" y="-538.83" font-family="Arial" font-size="14.00">Linguísticos II</text>
</g>
<!-- LLE8021&#45;&gt;LLE8042 -->
<!-- LLE8113 -->
<g id="node16" class="node">
<title>LLE8113</title>
<polygon fill="#8dd3c7" stroke="#8dd3c7" points="306.5,-199.38 183.25,-199.38 183.25,-96.62 306.5,-96.62 306.5,-199.38"/>
<text text-anchor="middle" x="244.88" y="-182.07" font-family="Arial" font-size="14.00">LLE8113</text>
<text text-anchor="middle" x="244.88" y="-150.32" font-family="Arial" font-size="14.00">Compreensão e</text>
<text text-anchor="middle" x="244.88" y="-134.57" font-family="Arial" font-size="14.00">Produção Oral</text>
<text text-anchor="middle" x="244.88" y="-118.83" font-family="Arial" font-size="14.00">em Língua Alemã</text>
<text text-anchor="middle" x="244.88" y="-103.08" font-family="Arial" font-size="14.00">III</text>
</g>
<!-- LLE8021&#45;&gt;LLE8113 -->
<!-- LLE8193 -->
<g id="node17" class="node">
<title>LLE8193</title>
<polygon fill="#8dd3c7" stroke="#8dd3c7" points="301.25,-336.25 188.5,-336.25 188.5,-217.75 301.25,-217.75 301.25,-336.25"/>
<text text-anchor="middle" x="244.88" y="-318.95" font-family="Arial" font-size="14.00">LLE8193</text>
<text text-anchor="middle" x="244.88" y="-287.2" font-family="Arial" font-size="14.00">Compreensão e</text>
<text text-anchor="middle" x="244.88" y="-271.45" font-family="Arial" font-size="14.00">Produção</text>
<text text-anchor="middle" x="244.88" y="-255.7" font-family="Arial" font-size="14.00">Escrita em</text>
<text text-anchor="middle" x="244.88" y="-239.95" font-family="Arial" font-size="14.00">Língua Alemã</text>
<text text-anchor="middle" x="244.88" y="-224.2" font-family="Arial" font-size="14.00">III</text>
</g>
<!-- LLE8021&#45;&gt;LLE8193 -->
<!-- LLE8023 -->
<g id="node19" class="node">
<title>LLE8023</title>
<polygon fill="#8dd3c7" stroke="#8dd3c7" points="454.52,-506.62 353.73,-506.62 353.73,-435.38 454.52,-435.38 454.52,-506.62"/>
<text text-anchor="middle" x="404.12" y="-489.32" font-family="Arial" font-size="14.00">LLE8023</text>
<text text-anchor="middle" x="404.12" y="-457.57" font-family="Arial" font-size="14.00">Estudos</text>
<text text-anchor="middle" x="404.12" y="-441.82" font-family="Arial" font-size="14.00">Literários IV</text>
</g>
<!-- LLE8021&#45;&gt;LLE8023 -->
<g id="edge12" class="edge">
<title>LLE8021&#45;&gt;LLE8023</title>
<path fill="none" stroke="#8dd3c7" stroke-width="2" d="M136.44,-441.77C136.44,-441.77 350.99,-441.77 350.99,-441.77"/>
<polygon fill="#8dd3c7" stroke="#8dd3c7" stroke-width="2" points="352.49,-439.28 352.49,-444.28 351.49,-444.28 351.49,-439.28 352.49,-439.28"/>
<polyline fill="none" stroke="#8dd3c7" stroke-width="2" points="352.99,-441.78 350.49,-441.78"/>
</g>
<!-- LLE8121 -->
<g id="node24" class="node">
<title>LLE8121</title>
<polygon fill="#8dd3c7" stroke="#8dd3c7" points="617.12,-131.62 509.62,-131.62 509.62,-60.38 617.12,-60.38 617.12,-131.62"/>
<text text-anchor="middle" x="563.38" y="-114.33" font-family="Arial" font-size="14.00">LLE8121</text>
<text text-anchor="middle" x="563.38" y="-82.58" font-family="Arial" font-size="14.00">Literatura de</text>
<text text-anchor="middle" x="563.38" y="-66.83" font-family="Arial" font-size="14.00">Língua Alemã I</text>
</g>
<!-- LLE8021&#45;&gt;LLE8121 -->
<g id="edge18" class="edge">
<title>LLE8021&#45;&gt;LLE8121</title>
<path fill="none" stroke="#8dd3c7" stroke-width="2" d="M136.07,-460.3C152.22,-460.3 166,-460.3 166,-460.3 166,-460.3 166,-78.5 166,-78.5 166,-78.5 506.87,-78.5 506.87,-78.5"/>
<polygon fill="#8dd3c7" stroke="#8dd3c7" stroke-width="2" points="508.37,-76 508.37,-81 507.37,-81 507.37,-76 508.37,-76"/>
<polyline fill="none" stroke="#8dd3c7" stroke-width="2" points="508.87,-78.5 506.37,-78.5"/>
</g>
<!-- LLE8122 -->
<g id="node30" class="node">
<title>LLE8122</title>
<polygon fill="#8dd3c7" stroke="#8dd3c7" points="778.25,-95.62 667,-95.62 667,-24.38 778.25,-24.38 778.25,-95.62"/>
<text text-anchor="middle" x="722.62" y="-78.33" font-family="Arial" font-size="14.00">LLE8122</text>
<text text-anchor="middle" x="722.62" y="-46.58" font-family="Arial" font-size="14.00">Literatura de</text>
<text text-anchor="middle" x="722.62" y="-30.82" font-family="Arial" font-size="14.00">Língua Alemã II</text>
</g>
<!-- LLE8021&#45;&gt;LLE8122 -->
<g id="edge22" class="edge">
<title>LLE8021&#45;&gt;LLE8122</title>
<path fill="none" stroke="#8dd3c7" stroke-width="2" d="M136.32,-451.84C149.95,-451.84 161,-451.84 161,-451.84 161,-451.84 161,-42.38 161,-42.38 161,-42.38 664.22,-42.38 664.22,-42.38"/>
<polygon fill="#8dd3c7" stroke="#8dd3c7" stroke-width="2" points="665.72,-39.88 665.72,-44.88 664.72,-44.88 664.72,-39.88 665.72,-39.88"/>
<polyline fill="none" stroke="#8dd3c7" stroke-width="2" points="666.22,-42.38 663.72,-42.38"/>
</g>
<!-- LLE8123 -->
<g id="node34" class="node">
<title>LLE8123</title>
<polygon fill="#8dd3c7" stroke="#8dd3c7" points="932.27,-597.5 831.48,-597.5 831.48,-510.5 932.27,-510.5 932.27,-597.5"/>
<text text-anchor="middle" x="881.88" y="-580.2" font-family="Arial" font-size="14.00">LLE8123</text>
<text text-anchor="middle" x="881.88" y="-548.45" font-family="Arial" font-size="14.00">Literatura de</text>
<text text-anchor="middle" x="881.88" y="-532.7" font-family="Arial" font-size="14.00">Língua Alemã</text>
<text text-anchor="middle" x="881.88" y="-516.95" font-family="Arial" font-size="14.00">III</text>
</g>
<!-- LLE8021&#45;&gt;LLE8123 -->
<g id="edge28" class="edge">
<title>LLE8021&#45;&gt;LLE8123</title>
<path fill="none" stroke="#8dd3c7" stroke-width="2" d="M136.36,-485.7C147.98,-485.7 157,-485.7 157,-485.7 157,-485.7 157,-624.73 157,-624.73 157,-624.73 882,-624.73 882,-624.73 882,-624.73 882,-600.49 882,-600.49"/>
<polygon fill="#8dd3c7" stroke="#8dd3c7" stroke-width="2" points="879.5,-598.99 884.5,-598.99 884.5,-599.99 879.5,-599.99 879.5,-598.99"/>
<polyline fill="none" stroke="#8dd3c7" stroke-width="2" points="882,-598.49 882,-600.99"/>
</g>
<!-- LLE8124 -->
<g id="node37" class="node">
<title>LLE8124</title>
<polygon fill="#8dd3c7" stroke="#8dd3c7" points="1096,-677.62 979.5,-677.62 979.5,-606.38 1096,-606.38 1096,-677.62"/>
<text text-anchor="middle" x="1037.75" y="-660.33" font-family="Arial" font-size="14.00">LLE8124</text>
<text text-anchor="middle" x="1037.75" y="-628.58" font-family="Arial" font-size="14.00">Literatura de</text>
<text text-anchor="middle" x="1037.75" y="-612.83" font-family="Arial" font-size="14.00">Língua Alemã IV</text>
</g>
<!-- LLE8021&#45;&gt;LLE8124 -->
<g id="edge37" class="edge">
<title>LLE8021&#45;&gt;LLE8124</title>
<path fill="none" stroke="#8dd3c7" stroke-width="2" d="M136.27,-494.16C145.36,-494.16 152,-494.16 152,-494.16 152,-494.16 152,-664.4 152,-664.4 152,-664.4 976.79,-664.4 976.79,-664.4"/>
<polygon fill="#8dd3c7" stroke="#8dd3c7" stroke-width="2" points="978.29,-661.9 978.29,-666.9 977.29,-666.9 977.29,-661.9 978.29,-661.9"/>
<polyline fill="none" stroke="#8dd3c7" stroke-width="2" points="978.79,-664.4 976.29,-664.4"/>
</g>
<!-- LLE8041 -->
<g id="node9" class="node">
<title>LLE8041</title>
<polygon fill="#8dd3c7" stroke="#8dd3c7" points="136.03,-591.62 35.23,-591.62 35.23,-520.38 136.03,-520.38 136.03,-591.62"/>
<text text-anchor="middle" x="85.62" y="-574.33" font-family="Arial" font-size="14.00">LLE8041</text>
<text text-anchor="middle" x="85.62" y="-542.58" font-family="Arial" font-size="14.00">Estudos</text>
<text text-anchor="middle" x="85.62" y="-526.83" font-family="Arial" font-size="14.00">Linguísticos I</text>
</g>
<!-- LLE8010 -->
<g id="node18" class="node">
<title>LLE8010</title>
<polygon fill="#8dd3c7" stroke="#8dd3c7" points="454.52,-611.5 353.73,-611.5 353.73,-524.5 454.52,-524.5 454.52,-611.5"/>
<text text-anchor="middle" x="404.12" y="-594.2" font-family="Arial" font-size="14.00">LLE8010</text>
<text text-anchor="middle" x="404.12" y="-562.45" font-family="Arial" font-size="14.00">Pesquisa em</text>
<text text-anchor="middle" x="404.12" y="-546.7" font-family="Arial" font-size="14.00">Letras</text>
<text text-anchor="middle" x="404.12" y="-530.95" font-family="Arial" font-size="14.00">Estrangeiras</text>
</g>
<!-- LLE8041&#45;&gt;LLE8010 -->
<g id="edge10" class="edge">
<title>LLE8041&#45;&gt;LLE8010</title>
<path fill="none" stroke="#8dd3c7" stroke-width="2" d="M136.44,-530.41C136.44,-530.41 350.99,-530.41 350.99,-530.41"/>
<polygon fill="#8dd3c7" stroke="#8dd3c7" stroke-width="2" points="352.49,-527.91 352.49,-532.91 351.49,-532.91 351.49,-527.91 352.49,-527.91"/>
<polyline fill="none" stroke="#8dd3c7" stroke-width="2" points="352.99,-530.41 350.49,-530.41"/>
</g>
<!-- LLE8050 -->
<g id="node10" class="node">
<title>LLE8050</title>
<polygon fill="#8dd3c7" stroke="#8dd3c7" points="136.03,-413.62 35.23,-413.62 35.23,-342.38 136.03,-342.38 136.03,-413.62"/>
<text text-anchor="middle" x="85.62" y="-396.32" font-family="Arial" font-size="14.00">LLE8050</text>
<text text-anchor="middle" x="85.62" y="-364.57" font-family="Arial" font-size="14.00">Linguística</text>
<text text-anchor="middle" x="85.62" y="-348.82" font-family="Arial" font-size="14.00">Aplicada</text>
</g>
<!-- LLE8112 -->
<g id="node11" class="node">
<title>LLE8112</title>
<polygon fill="#8dd3c7" stroke="#8dd3c7" points="147.25,-203.38 24,-203.38 24,-100.62 147.25,-100.62 147.25,-203.38"/>
<text text-anchor="middle" x="85.62" y="-186.07" font-family="Arial" font-size="14.00">LLE8112</text>
<text text-anchor="middle" x="85.62" y="-154.32" font-family="Arial" font-size="14.00">Compreensão e</text>
<text text-anchor="middle" x="85.62" y="-138.57" font-family="Arial" font-size="14.00">Produção Oral</text>
<text text-anchor="middle" x="85.62" y="-122.83" font-family="Arial" font-size="14.00">em Língua Alemã</text>
<text text-anchor="middle" x="85.62" y="-107.08" font-family="Arial" font-size="14.00">II</text>
</g>
<!-- LLE8112&#45;&gt;LLE8113 -->
<g id="edge8" class="edge">
<title>LLE8112&#45;&gt;LLE8113</title>
<path fill="none" stroke="#8dd3c7" stroke-width="2" d="M147.65,-133.54C147.65,-133.54 180.26,-133.54 180.26,-133.54"/>
<polygon fill="#8dd3c7" stroke="#8dd3c7" stroke-width="2" points="181.76,-131.04 181.76,-136.04 180.76,-136.04 180.76,-131.04 181.76,-131.04"/>
<polyline fill="none" stroke="#8dd3c7" stroke-width="2" points="182.26,-133.54 179.76,-133.54"/>
</g>
<!-- LLE8192 -->
<g id="node12" class="node">
<title>LLE8192</title>
<polygon fill="#8dd3c7" stroke="#8dd3c7" points="142,-324.38 29.25,-324.38 29.25,-221.62 142,-221.62 142,-324.38"/>
<text text-anchor="middle" x="85.62" y="-307.07" font-family="Arial" font-size="14.00">LLE8192</text>
<text text-anchor="middle" x="85.62" y="-275.32" font-family="Arial" font-size="14.00">Compreensão e</text>
<text text-anchor="middle" x="85.62" y="-259.57" font-family="Arial" font-size="14.00">Produção</text>
<text text-anchor="middle" x="85.62" y="-243.82" font-family="Arial" font-size="14.00">Escrita em</text>
<text text-anchor="middle" x="85.62" y="-228.07" font-family="Arial" font-size="14.00">Língua Alemã II</text>
</g>
<!-- LLE8192&#45;&gt;LLE8193 -->
<g id="edge9" class="edge">
<title>LLE8192&#45;&gt;LLE8193</title>
<path fill="none" stroke="#8dd3c7" stroke-width="2" d="M142.22,-273C142.22,-273 185.7,-273 185.7,-273"/>
<polygon fill="#8dd3c7" stroke="#8dd3c7" stroke-width="2" points="187.2,-270.5 187.2,-275.5 186.2,-275.5 186.2,-270.5 187.2,-270.5"/>
<polyline fill="none" stroke="#8dd3c7" stroke-width="2" points="187.7,-273 185.2,-273"/>
</g>
<!-- LLE8032 -->
<g id="node20" class="node">
<title>LLE8032</title>
<polygon fill="#8dd3c7" stroke="#8dd3c7" points="454.52,-417.62 353.73,-417.62 353.73,-346.38 454.52,-346.38 454.52,-417.62"/>
<text text-anchor="middle" x="404.12" y="-400.32" font-family="Arial" font-size="14.00">LLE8032</text>
<text text-anchor="middle" x="404.12" y="-368.57" font-family="Arial" font-size="14.00">Prática de</text>
<text text-anchor="middle" x="404.12" y="-352.82" font-family="Arial" font-size="14.00">Tradução</text>
</g>
<!-- LLE8031&#45;&gt;LLE8032 -->
<g id="edge13" class="edge">
<title>LLE8031&#45;&gt;LLE8032</title>
<path fill="none" stroke="#8dd3c7" stroke-width="2" d="M295.77,-475C316.64,-475 336,-475 336,-475 336,-475 336,-386 336,-386 336,-386 351.04,-386 351.04,-386"/>
<polygon fill="#8dd3c7" stroke="#8dd3c7" stroke-width="2" points="352.54,-383.5 352.54,-388.5 351.54,-388.5 351.54,-383.5 352.54,-383.5"/>
<polyline fill="none" stroke="#8dd3c7" stroke-width="2" points="353.04,-386 350.54,-386"/>
</g>
<!-- LLE8114 -->
<g id="node21" class="node">
<title>LLE8114</title>
<polygon fill="#8dd3c7" stroke="#8dd3c7" points="465.75,-207.38 342.5,-207.38 342.5,-104.62 465.75,-104.62 465.75,-207.38"/>
<text text-anchor="middle" x="404.12" y="-190.07" font-family="Arial" font-size="14.00">LLE8114</text>
<text text-anchor="middle" x="404.12" y="-158.32" font-family="Arial" font-size="14.00">Compreensão e</text>
<text text-anchor="middle" x="404.12" y="-142.57" font-family="Arial" font-size="14.00">Produção Oral</text>
<text text-anchor="middle" x="404.12" y="-126.83" font-family="Arial" font-size="14.00">em Língua Alemã</text>
<text text-anchor="middle" x="404.12" y="-111.08" font-family="Arial" font-size="14.00">IV</text>
</g>
<!-- LLE8113&#45;&gt;LLE8114 -->
<g id="edge15" class="edge">
<title>LLE8113&#45;&gt;LLE8114</title>
<path fill="none" stroke="#8dd3c7" stroke-width="2" d="M306.9,-152C306.9,-152 339.51,-152 339.51,-152"/>
<polygon fill="#8dd3c7" stroke="#8dd3c7" stroke-width="2" points="341.01,-149.5 341.01,-154.5 340.01,-154.5 340.01,-149.5 341.01,-149.5"/>
<polyline fill="none" stroke="#8dd3c7" stroke-width="2" points="341.51,-152 339.01,-152"/>
</g>
<!-- LLE8193&#45;&gt;LLE8010 -->
<g id="edge11" class="edge">
<title>LLE8193&#45;&gt;LLE8010</title>
<path fill="none" stroke="#8dd3c7" stroke-width="2" d="M301.64,-307.82C308.98,-307.82 314,-307.82 314,-307.82 314,-307.82 314,-528.44 314,-528.44 314,-528.44 350.77,-528.44 350.77,-528.44"/>
<polygon fill="#8dd3c7" stroke="#8dd3c7" stroke-width="2" points="352.27,-525.94 352.27,-530.94 351.27,-530.94 351.27,-525.94 352.27,-525.94"/>
<polyline fill="none" stroke="#8dd3c7" stroke-width="2" points="352.77,-528.44 350.27,-528.44"/>
</g>
<!-- LLE8193&#45;&gt;LLE8010 -->
<!-- LLE8193&#45;&gt;LLE8023 -->
<!-- LLE8193&#45;&gt;LLE8032 -->
<g id="edge14" class="edge">
<title>LLE8193&#45;&gt;LLE8032</title>
<path fill="none" stroke="#8dd3c7" stroke-width="2" d="M301.44,-332.31C341.45,-332.31 388,-332.31 388,-332.31 388,-332.31 388,-343.39 388,-343.39"/>
<polygon fill="#8dd3c7" stroke="#8dd3c7" stroke-width="2" points="390.5,-344.89 385.5,-344.89 385.5,-343.89 390.5,-343.89 390.5,-344.89"/>
<polyline fill="none" stroke="#8dd3c7" stroke-width="2" points="388,-345.39 388,-342.89"/>
</g>
<!-- LLE8193&#45;&gt;LLE8032 -->
<!-- LLE8193&#45;&gt;LLE8114 -->
<!-- LLE8194 -->
<g id="node22" class="node">
<title>LLE8194</title>
<polygon fill="#8dd3c7" stroke="#8dd3c7" points="462.38,-328.38 345.88,-328.38 345.88,-225.62 462.38,-225.62 462.38,-328.38"/>
<text text-anchor="middle" x="404.12" y="-311.07" font-family="Arial" font-size="14.00">LLE8194</text>
<text text-anchor="middle" x="404.12" y="-279.32" font-family="Arial" font-size="14.00">Compreensão e</text>
<text text-anchor="middle" x="404.12" y="-263.57" font-family="Arial" font-size="14.00">Produção</text>
<text text-anchor="middle" x="404.12" y="-247.82" font-family="Arial" font-size="14.00">Escrita em</text>
<text text-anchor="middle" x="404.12" y="-232.07" font-family="Arial" font-size="14.00">Língua Alemã IV</text>
</g>
<!-- LLE8193&#45;&gt;LLE8194 -->
<g id="edge16" class="edge">
<title>LLE8193&#45;&gt;LLE8194</title>
<path fill="none" stroke="#8dd3c7" stroke-width="2" d="M301.47,-246.18C301.47,-246.18 343.06,-246.18 343.06,-246.18"/>
<polygon fill="#8dd3c7" stroke="#8dd3c7" stroke-width="2" points="344.56,-243.68 344.56,-248.68 343.56,-248.68 343.56,-243.68 344.56,-243.68"/>
<polyline fill="none" stroke="#8dd3c7" stroke-width="2" points="345.06,-246.18 342.56,-246.18"/>
</g>
<!-- LLE8193&#45;&gt;LLE8194 -->
<!-- LLE8115 -->
<g id="node23" class="node">
<title>LLE8115</title>
<polygon fill="#8dd3c7" stroke="#8dd3c7" points="625,-252.38 501.75,-252.38 501.75,-149.62 625,-149.62 625,-252.38"/>
<text text-anchor="middle" x="563.38" y="-235.07" font-family="Arial" font-size="14.00">LLE8115</text>
<text text-anchor="middle" x="563.38" y="-203.32" font-family="Arial" font-size="14.00">Compreensão e</text>
<text text-anchor="middle" x="563.38" y="-187.57" font-family="Arial" font-size="14.00">Produção Oral</text>
<text text-anchor="middle" x="563.38" y="-171.82" font-family="Arial" font-size="14.00">em Língua Alemã</text>
<text text-anchor="middle" x="563.38" y="-156.07" font-family="Arial" font-size="14.00">V</text>
</g>
<!-- LLE8114&#45;&gt;LLE8115 -->
<g id="edge17" class="edge">
<title>LLE8114&#45;&gt;LLE8115</title>
<path fill="none" stroke="#8dd3c7" stroke-width="2" d="M466.15,-178.5C466.15,-178.5 498.76,-178.5 498.76,-178.5"/>
<polygon fill="#8dd3c7" stroke="#8dd3c7" stroke-width="2" points="500.26,-176 500.26,-181 499.26,-181 499.26,-176 500.26,-176"/>
<polyline fill="none" stroke="#8dd3c7" stroke-width="2" points="500.76,-178.5 498.26,-178.5"/>
</g>
<!-- LLE8194&#45;&gt;LLE8115 -->
<!-- LLE8194&#45;&gt;LLE8121 -->
<g id="edge19" class="edge">
<title>LLE8194&#45;&gt;LLE8121</title>
<path fill="none" stroke="#8dd3c7" stroke-width="2" d="M462.69,-232.31C471.66,-232.31 478,-232.31 478,-232.31 478,-232.31 478,-113.62 478,-113.62 478,-113.62 506.81,-113.62 506.81,-113.62"/>
<polygon fill="#8dd3c7" stroke="#8dd3c7" stroke-width="2" points="508.31,-111.13 508.31,-116.13 507.31,-116.13 507.31,-111.13 508.31,-111.13"/>
<polyline fill="none" stroke="#8dd3c7" stroke-width="2" points="508.81,-113.63 506.31,-113.63"/>
</g>
<!-- LLE8194&#45;&gt;LLE8121 -->
<!-- LLE8195 -->
<g id="node25" class="node">
<title>LLE8195</title>
<polygon fill="#8dd3c7" stroke="#8dd3c7" points="619.75,-373.38 507,-373.38 507,-270.62 619.75,-270.62 619.75,-373.38"/>
<text text-anchor="middle" x="563.38" y="-356.07" font-family="Arial" font-size="14.00">LLE8195</text>
<text text-anchor="middle" x="563.38" y="-324.32" font-family="Arial" font-size="14.00">Compreensão e</text>
<text text-anchor="middle" x="563.38" y="-308.57" font-family="Arial" font-size="14.00">Produção</text>
<text text-anchor="middle" x="563.38" y="-292.82" font-family="Arial" font-size="14.00">Escrita em</text>
<text text-anchor="middle" x="563.38" y="-277.07" font-family="Arial" font-size="14.00">Língua Alemã V</text>
</g>
<!-- LLE8194&#45;&gt;LLE8195 -->
<g id="edge20" class="edge">
<title>LLE8194&#45;&gt;LLE8195</title>
<path fill="none" stroke="#8dd3c7" stroke-width="2" d="M462.52,-289.88C462.52,-289.88 504.08,-289.88 504.08,-289.88"/>
<polygon fill="#8dd3c7" stroke="#8dd3c7" stroke-width="2" points="505.58,-287.38 505.58,-292.38 504.58,-292.38 504.58,-287.38 505.58,-287.38"/>
<polyline fill="none" stroke="#8dd3c7" stroke-width="2" points="506.08,-289.88 503.58,-289.88"/>
</g>
<!-- LLE8194&#45;&gt;LLE8195 -->
<!-- MEN5604 -->
<g id="node26" class="node">
<title>MEN5604</title>
<g id="a_node26"><a xlink:title="&#45; Educação escolar como fenômeno histórico&#45;social. Currículo e trabalho pedagógico no contexto escolar. As relações de ensino&#45;aprendizagem em contexto escolar. Mediações pedagógicas e suas relações com o ensino da área específica do curso.">
<polygon fill="#80b1d3" stroke="#80b1d3" points="613.77,-599.62 512.98,-599.62 512.98,-528.38 613.77,-528.38 613.77,-599.62"/>
<text text-anchor="middle" x="563.38" y="-582.33" font-family="Arial" font-size="14.00">MEN5604</text>
<text text-anchor="middle" x="563.38" y="-550.58" font-family="Arial" font-size="14.00">Didática D &#45;</text>
<text text-anchor="middle" x="563.38" y="-534.83" font-family="Arial" font-size="14.00">(PCC 12 h&#45;a)</text>
</a>
</g>
</g>
<!-- LLE8194&#45;&gt;MEN5604 -->
<!-- PSI5137 -->
<g id="node27" class="node">
<title>PSI5137</title>
<g id="a_node27"><a xlink:title="Introdução à Psicologia como ciência: histórico, objetivo e métodos. Interações sociais no contexto educacional e o lugar do professor. Introdução ao estudo do desenvolvimento e de aprendizagem &#45; infância, adolescência, idade adulta. Contribuições da Psicologia na prática escolar cotidiana e na compreensão do fracasso escolar. Prática como componente curricular.">
<polygon fill="#fdb462" stroke="#fdb462" points="623.5,-510.25 503.25,-510.25 503.25,-391.75 623.5,-391.75 623.5,-510.25"/>
<text text-anchor="middle" x="563.38" y="-492.95" font-family="Arial" font-size="14.00">PSI5137</text>
<text text-anchor="middle" x="563.38" y="-461.2" font-family="Arial" font-size="14.00">Psicologia</text>
<text text-anchor="middle" x="563.38" y="-445.45" font-family="Arial" font-size="14.00">Educacional:</text>
<text text-anchor="middle" x="563.38" y="-429.7" font-family="Arial" font-size="14.00">Desenvolvimento</text>
<text text-anchor="middle" x="563.38" y="-413.95" font-family="Arial" font-size="14.00">e Aprendizagem</text>
<text text-anchor="middle" x="563.38" y="-398.2" font-family="Arial" font-size="14.00">(PCC 12h&#45;a)</text>
</a>
</g>
</g>
<!-- LLE8194&#45;&gt;PSI5137 -->
<!-- LLE8194&#45;&gt;LLE8122 -->
<g id="edge23" class="edge">
<title>LLE8194&#45;&gt;LLE8122</title>
<path fill="none" stroke="#8dd3c7" stroke-width="2" d="M462.64,-258.46C531.33,-258.46 636,-258.46 636,-258.46 636,-258.46 636,-72.12 636,-72.12 636,-72.12 664.28,-72.12 664.28,-72.12"/>
<polygon fill="#8dd3c7" stroke="#8dd3c7" stroke-width="2" points="665.78,-69.63 665.78,-74.63 664.78,-74.63 664.78,-69.63 665.78,-69.63"/>
<polyline fill="none" stroke="#8dd3c7" stroke-width="2" points="666.28,-72.13 663.78,-72.13"/>
</g>
<!-- LLE8194&#45;&gt;LLE8123 -->
<g id="edge29" class="edge">
<title>LLE8194&#45;&gt;LLE8123</title>
<path fill="none" stroke="#8dd3c7" stroke-width="2" d="M462.85,-264.54C530.07,-264.54 631,-264.54 631,-264.54 631,-264.54 631,-580.5 631,-580.5 631,-580.5 828.61,-580.5 828.61,-580.5"/>
<polygon fill="#8dd3c7" stroke="#8dd3c7" stroke-width="2" points="830.11,-578 830.11,-583 829.11,-583 829.11,-578 830.11,-578"/>
<polyline fill="none" stroke="#8dd3c7" stroke-width="2" points="830.61,-580.5 828.11,-580.5"/>
</g>
<!-- LLE8194&#45;&gt;LLE8124 -->
<g id="edge38" class="edge">
<title>LLE8194&#45;&gt;LLE8124</title>
<path fill="none" stroke="#8dd3c7" stroke-width="2" d="M457,-328.63C457,-431.28 457,-651.17 457,-651.17 457,-651.17 976.64,-651.17 976.64,-651.17"/>
<polygon fill="#8dd3c7" stroke="#8dd3c7" stroke-width="2" points="978.14,-648.68 978.14,-653.68 977.14,-653.68 977.14,-648.68 978.14,-648.68"/>
<polyline fill="none" stroke="#8dd3c7" stroke-width="2" points="978.64,-651.18 976.14,-651.18"/>
</g>
<!-- LLE8116 -->
<g id="node29" class="node">
<title>LLE8116</title>
<polygon fill="#8dd3c7" stroke="#8dd3c7" points="784.25,-216.38 661,-216.38 661,-113.62 784.25,-113.62 784.25,-216.38"/>
<text text-anchor="middle" x="722.62" y="-199.07" font-family="Arial" font-size="14.00">LLE8116</text>
<text text-anchor="middle" x="722.62" y="-167.32" font-family="Arial" font-size="14.00">Compreensão e</text>
<text text-anchor="middle" x="722.62" y="-151.57" font-family="Arial" font-size="14.00">Produção Oral</text>
<text text-anchor="middle" x="722.62" y="-135.82" font-family="Arial" font-size="14.00">em Língua Alemã</text>
<text text-anchor="middle" x="722.62" y="-120.08" font-family="Arial" font-size="14.00">VI</text>
</g>
<!-- LLE8115&#45;&gt;LLE8116 -->
<g id="edge21" class="edge">
<title>LLE8115&#45;&gt;LLE8116</title>
<path fill="none" stroke="#8dd3c7" stroke-width="2" d="M625.4,-171.88C625.4,-171.88 658.01,-171.88 658.01,-171.88"/>
<polygon fill="#8dd3c7" stroke="#8dd3c7" stroke-width="2" points="659.51,-169.38 659.51,-174.38 658.51,-174.38 658.51,-169.38 659.51,-169.38"/>
<polyline fill="none" stroke="#8dd3c7" stroke-width="2" points="660.01,-171.88 657.51,-171.88"/>
</g>
<!-- MEN7040 -->
<g id="node32" class="node">
<title>MEN7040</title>
<g id="a_node32"><a xlink:title="&#45;Método, metodologia e abordagem. Diretrizes curriculares de língua estrangeiras. A presença de língua alemã na escola brasileira. Estratégias para o ensino das habilidades linguísticas e da gramática. Cultura e literatura: contribuições no ensino e na aprendizagem da língua alemã. Análise e produção de atividades de ensino e aprendizagem nas escolas. Planejamento e avaliação de aulas.">
<polygon fill="#80b1d3" stroke="#80b1d3" points="781.62,-337.38 663.62,-337.38 663.62,-234.62 781.62,-234.62 781.62,-337.38"/>
<text text-anchor="middle" x="722.62" y="-320.07" font-family="Arial" font-size="14.00">MEN7040</text>
<text text-anchor="middle" x="722.62" y="-288.32" font-family="Arial" font-size="14.00">Metodologia do</text>
<text text-anchor="middle" x="722.62" y="-272.57" font-family="Arial" font-size="14.00">Ensino de</text>
<text text-anchor="middle" x="722.62" y="-256.82" font-family="Arial" font-size="14.00">Alemão (PCC 36</text>
<text text-anchor="middle" x="722.62" y="-241.07" font-family="Arial" font-size="14.00">h/a)</text>
</a>
</g>
</g>
<!-- LLE8115&#45;&gt;MEN7040 -->
<g id="edge25" class="edge">
<title>LLE8115&#45;&gt;MEN7040</title>
<path fill="none" stroke="#80b1d3" stroke-width="2" d="M625.4,-243.5C625.4,-243.5 660.88,-243.5 660.88,-243.5"/>
<polygon fill="#80b1d3" stroke="#80b1d3" stroke-width="2" points="662.38,-241 662.38,-246 661.38,-246 661.38,-241 662.38,-241"/>
<polyline fill="none" stroke="#80b1d3" stroke-width="2" points="662.88,-243.5 660.38,-243.5"/>
</g>
<!-- LLE8196 -->
<g id="node31" class="node">
<title>LLE8196</title>
<polygon fill="#8dd3c7" stroke="#8dd3c7" points="780.88,-458.38 664.38,-458.38 664.38,-355.62 780.88,-355.62 780.88,-458.38"/>
<text text-anchor="middle" x="722.62" y="-441.07" font-family="Arial" font-size="14.00">LLE8196</text>
<text text-anchor="middle" x="722.62" y="-409.32" font-family="Arial" font-size="14.00">Compreensão e</text>
<text text-anchor="middle" x="722.62" y="-393.57" font-family="Arial" font-size="14.00">Produção</text>
<text text-anchor="middle" x="722.62" y="-377.82" font-family="Arial" font-size="14.00">Escrita em</text>
<text text-anchor="middle" x="722.62" y="-362.07" font-family="Arial" font-size="14.00">Língua Alemã VI</text>
</g>
<!-- LLE8195&#45;&gt;LLE8196 -->
<g id="edge24" class="edge">
<title>LLE8195&#45;&gt;LLE8196</title>
<path fill="none" stroke="#8dd3c7" stroke-width="2" d="M619.97,-364.5C619.97,-364.5 661.56,-364.5 661.56,-364.5"/>
<polygon fill="#8dd3c7" stroke="#8dd3c7" stroke-width="2" points="663.06,-362 663.06,-367 662.06,-367 662.06,-362 663.06,-362"/>
<polyline fill="none" stroke="#8dd3c7" stroke-width="2" points="663.56,-364.5 661.06,-364.5"/>
</g>
<!-- LLE8195&#45;&gt;MEN7040 -->
<g id="edge26" class="edge">
<title>LLE8195&#45;&gt;MEN7040</title>
<path fill="none" stroke="#80b1d3" stroke-width="2" d="M619.97,-292.88C619.97,-292.88 660.75,-292.88 660.75,-292.88"/>
<polygon fill="#80b1d3" stroke="#80b1d3" stroke-width="2" points="662.25,-290.38 662.25,-295.38 661.25,-295.38 661.25,-290.38 662.25,-290.38"/>
<polyline fill="none" stroke="#80b1d3" stroke-width="2" points="662.75,-292.88 660.25,-292.88"/>
</g>
<!-- MEN7048 -->
<g id="node36" class="node">
<title>MEN7048</title>
<g id="a_node36"><a xlink:title="&#45;Contextualização do ensino da língua alemã no espaço escolar catarinense. Coleta e análise qualitativa de dados. Observação e acompanhamento de professores de alemão em suas práticas docentes na função de tutoria. Registro e relato da experiência. Fundamentação e elaboração do projeto de docência para o ensino de Língua Estrangeira – Alemão.">
<polygon fill="#80b1d3" stroke="#80b1d3" points="936.38,-492.5 827.38,-492.5 827.38,-405.5 936.38,-405.5 936.38,-492.5"/>
<text text-anchor="middle" x="881.88" y="-475.2" font-family="Arial" font-size="14.00">MEN7048</text>
<text text-anchor="middle" x="881.88" y="-443.45" font-family="Arial" font-size="14.00">Estágio</text>
<text text-anchor="middle" x="881.88" y="-427.7" font-family="Arial" font-size="14.00">Supervisionado</text>
<text text-anchor="middle" x="881.88" y="-411.95" font-family="Arial" font-size="14.00">I &#45; Alemão</text>
</a>
</g>
</g>
<!-- MEN5604&#45;&gt;MEN7048 -->
<g id="edge34" class="edge">
<title>MEN5604&#45;&gt;MEN7048</title>
<path fill="none" stroke="#80b1d3" stroke-width="2" d="M613.82,-545.94C631.02,-545.94 646,-545.94 646,-545.94 646,-545.94 646,-470.46 646,-470.46 646,-470.46 824.67,-470.46 824.67,-470.46"/>
<polygon fill="#80b1d3" stroke="#80b1d3" stroke-width="2" points="826.17,-467.96 826.17,-472.96 825.17,-472.96 825.17,-467.96 826.17,-467.96"/>
<polyline fill="none" stroke="#80b1d3" stroke-width="2" points="826.67,-470.46 824.17,-470.46"/>
</g>
<!-- EED8007 -->
<g id="node28" class="node">
<title>EED8007</title>
<polygon fill="#ffffb3" stroke="#ffffb3" points="773.02,-563.5 672.23,-563.5 672.23,-476.5 773.02,-476.5 773.02,-563.5"/>
<text text-anchor="middle" x="722.62" y="-546.2" font-family="Arial" font-size="14.00">EED8007</text>
<text text-anchor="middle" x="722.62" y="-514.45" font-family="Arial" font-size="14.00">Organização</text>
<text text-anchor="middle" x="722.62" y="-498.7" font-family="Arial" font-size="14.00">Escolar (PCC</text>
<text text-anchor="middle" x="722.62" y="-482.95" font-family="Arial" font-size="14.00">18h&#45;a)</text>
</g>
<!-- PSI5137&#45;&gt;EED8007 -->
<!-- PSI5137&#45;&gt;LLE8116 -->
<!-- PSI5137&#45;&gt;LLE8122 -->
<!-- PSI5137&#45;&gt;LLE8196 -->
<!-- PSI5137&#45;&gt;MEN7040 -->
<!-- PSI5137&#45;&gt;MEN7048 -->
<g id="edge36" class="edge">
<title>PSI5137&#45;&gt;MEN7048</title>
<path fill="none" stroke="#80b1d3" stroke-width="2" d="M623.66,-464.42C623.66,-464.42 824.39,-464.42 824.39,-464.42"/>
<polygon fill="#80b1d3" stroke="#80b1d3" stroke-width="2" points="825.89,-461.92 825.89,-466.92 824.89,-466.92 824.89,-461.92 825.89,-461.92"/>
<polyline fill="none" stroke="#80b1d3" stroke-width="2" points="826.39,-464.42 823.89,-464.42"/>
</g>
<!-- EED8007&#45;&gt;MEN7048 -->
<g id="edge31" class="edge">
<title>EED8007&#45;&gt;MEN7048</title>
<path fill="none" stroke="#80b1d3" stroke-width="2" d="M773.45,-484.5C773.45,-484.5 824.63,-484.5 824.63,-484.5"/>
<polygon fill="#80b1d3" stroke="#80b1d3" stroke-width="2" points="826.13,-482 826.13,-487 825.13,-487 825.13,-482 826.13,-482"/>
<polyline fill="none" stroke="#80b1d3" stroke-width="2" points="826.63,-484.5 824.13,-484.5"/>
</g>
<!-- LLE8117 -->
<g id="node33" class="node">
<title>LLE8117</title>
<polygon fill="#8dd3c7" stroke="#8dd3c7" points="943.5,-250.38 820.25,-250.38 820.25,-147.62 943.5,-147.62 943.5,-250.38"/>
<text text-anchor="middle" x="881.88" y="-233.07" font-family="Arial" font-size="14.00">LLE8117</text>
<text text-anchor="middle" x="881.88" y="-201.32" font-family="Arial" font-size="14.00">Compreensão e</text>
<text text-anchor="middle" x="881.88" y="-185.57" font-family="Arial" font-size="14.00">Produção Oral</text>
<text text-anchor="middle" x="881.88" y="-169.82" font-family="Arial" font-size="14.00">em Língua Alemã</text>
<text text-anchor="middle" x="881.88" y="-154.07" font-family="Arial" font-size="14.00">VII</text>
</g>
<!-- LLE8116&#45;&gt;LLE8117 -->
<g id="edge27" class="edge">
<title>LLE8116&#45;&gt;LLE8117</title>
<path fill="none" stroke="#8dd3c7" stroke-width="2" d="M784.65,-170.54C784.65,-170.54 817.26,-170.54 817.26,-170.54"/>
<polygon fill="#8dd3c7" stroke="#8dd3c7" stroke-width="2" points="818.76,-168.04 818.76,-173.04 817.76,-173.04 817.76,-168.04 818.76,-168.04"/>
<polyline fill="none" stroke="#8dd3c7" stroke-width="2" points="819.26,-170.54 816.76,-170.54"/>
</g>
<!-- LLE8116&#45;&gt;MEN7048 -->
<g id="edge32" class="edge">
<title>LLE8116&#45;&gt;MEN7048</title>
<path fill="none" stroke="#80b1d3" stroke-width="2" d="M784.59,-193.46C800.88,-193.46 814,-193.46 814,-193.46 814,-193.46 814,-416.07 814,-416.07 814,-416.07 824.59,-416.07 824.59,-416.07"/>
<polygon fill="#80b1d3" stroke="#80b1d3" stroke-width="2" points="826.09,-413.58 826.09,-418.58 825.09,-418.58 825.09,-413.58 826.09,-413.58"/>
<polyline fill="none" stroke="#80b1d3" stroke-width="2" points="826.59,-416.08 824.09,-416.08"/>
</g>
<!-- LLE8197 -->
<g id="node35" class="node">
<title>LLE8197</title>
<polygon fill="#8dd3c7" stroke="#8dd3c7" points="938.25,-387.25 825.5,-387.25 825.5,-268.75 938.25,-268.75 938.25,-387.25"/>
<text text-anchor="middle" x="881.88" y="-369.95" font-family="Arial" font-size="14.00">LLE8197</text>
<text text-anchor="middle" x="881.88" y="-338.2" font-family="Arial" font-size="14.00">Compreensão e</text>
<text text-anchor="middle" x="881.88" y="-322.45" font-family="Arial" font-size="14.00">Produção</text>
<text text-anchor="middle" x="881.88" y="-306.7" font-family="Arial" font-size="14.00">Escrita em</text>
<text text-anchor="middle" x="881.88" y="-290.95" font-family="Arial" font-size="14.00">Língua Alemã</text>
<text text-anchor="middle" x="881.88" y="-275.2" font-family="Arial" font-size="14.00">VII</text>
</g>
<!-- LLE8196&#45;&gt;LLE8197 -->
<g id="edge30" class="edge">
<title>LLE8196&#45;&gt;LLE8197</title>
<path fill="none" stroke="#8dd3c7" stroke-width="2" d="M781.02,-371.44C781.02,-371.44 822.58,-371.44 822.58,-371.44"/>
<polygon fill="#8dd3c7" stroke="#8dd3c7" stroke-width="2" points="824.08,-368.94 824.08,-373.94 823.08,-373.94 823.08,-368.94 824.08,-368.94"/>
<polyline fill="none" stroke="#8dd3c7" stroke-width="2" points="824.58,-371.44 822.08,-371.44"/>
</g>
<!-- LLE8196&#45;&gt;MEN7048 -->
<g id="edge33" class="edge">
<title>LLE8196&#45;&gt;MEN7048</title>
<path fill="none" stroke="#80b1d3" stroke-width="2" d="M781.02,-447.8C781.02,-447.8 824.43,-447.8 824.43,-447.8"/>
<polygon fill="#80b1d3" stroke="#80b1d3" stroke-width="2" points="825.93,-445.3 825.93,-450.3 824.93,-450.3 824.93,-445.3 825.93,-445.3"/>
<polyline fill="none" stroke="#80b1d3" stroke-width="2" points="826.43,-447.8 823.93,-447.8"/>
</g>
<!-- MEN7040&#45;&gt;LLE8117 -->
<!-- MEN7040&#45;&gt;LLE8123 -->
<!-- MEN7040&#45;&gt;LLE8197 -->
<!-- MEN7040&#45;&gt;MEN7048 -->
<g id="edge35" class="edge">
<title>MEN7040&#45;&gt;MEN7048</title>
<path fill="none" stroke="#80b1d3" stroke-width="2" d="M782.05,-309.93C791.91,-309.93 799,-309.93 799,-309.93 799,-309.93 799,-437.23 799,-437.23 799,-437.23 824.56,-437.23 824.56,-437.23"/>
<polygon fill="#80b1d3" stroke="#80b1d3" stroke-width="2" points="826.06,-434.73 826.06,-439.73 825.06,-439.73 825.06,-434.73 826.06,-434.73"/>
<polyline fill="none" stroke="#80b1d3" stroke-width="2" points="826.56,-437.23 824.06,-437.23"/>
</g>
<!-- MEN7040&#45;&gt;MEN7048 -->
<!-- MEN7048&#45;&gt;LLE8124 -->
<!-- LSB7244 -->
<g id="node38" class="node">
<title>LSB7244</title>
<g id="a_node38"><a xlink:title="Prática de conversação em Libras habilitando o aluno a se comunicar nível básico. Mitos e Crenças relacionadas à Língua Brasileira de Sinais (Libras) e aos Surdos. Noções sobre os estudos linguísticos das línguas de sinais em diferentes níveis da descrição linguística. Conceitos básicos da Língua Brasileira de Sinais como iconicidade e arbitrariedade e aspectos culturais e históricos específicos da comunidade surda brasileira. Educação de surdos, papéis dos professores e de intérpretes de libras&#45;português em uma perspectiva inclusiva. Atividades de prática como componente curricular aplicadas à comunicação em Libras.">
<polygon fill="#fb8072" stroke="#fb8072" points="1088.5,-588.38 987,-588.38 987,-485.62 1088.5,-485.62 1088.5,-588.38"/>
<text text-anchor="middle" x="1037.75" y="-571.08" font-family="Arial" font-size="14.00">LSB7244</text>
<text text-anchor="middle" x="1037.75" y="-539.33" font-family="Arial" font-size="14.00">Língua</text>
<text text-anchor="middle" x="1037.75" y="-523.58" font-family="Arial" font-size="14.00">Brasileira de</text>
<text text-anchor="middle" x="1037.75" y="-507.82" font-family="Arial" font-size="14.00">Sinais &#45; Libras</text>
<text text-anchor="middle" x="1037.75" y="-492.07" font-family="Arial" font-size="14.00">I (PCC 18h&#45;a)</text>
</a>
</g>
</g>
<!-- MEN7048&#45;&gt;LSB7244 -->
<!-- MEN7049 -->
<g id="node39" class="node">
<title>MEN7049</title>
<g id="a_node39"><a xlink:title="&#45;Estágio de docência. Elaboração de relatório final e divulgação dos resultados.">
<polygon fill="#80b1d3" stroke="#80b1d3" points="1092.25,-467.5 983.25,-467.5 983.25,-380.5 1092.25,-380.5 1092.25,-467.5"/>
<text text-anchor="middle" x="1037.75" y="-450.2" font-family="Arial" font-size="14.00">MEN7049</text>
<text text-anchor="middle" x="1037.75" y="-418.45" font-family="Arial" font-size="14.00">Estágio</text>
<text text-anchor="middle" x="1037.75" y="-402.7" font-family="Arial" font-size="14.00">Supervisionado</text>
<text text-anchor="middle" x="1037.75" y="-386.95" font-family="Arial" font-size="14.00">II &#45; Alemão</text>
</a>
</g>
</g>
<!-- MEN7048&#45;&gt;MEN7049 -->
<g id="edge39" class="edge">
<title>MEN7048&#45;&gt;MEN7049</title>
<path fill="none" stroke="#80b1d3" stroke-width="2" d="M936.83,-426.17C936.83,-426.17 980.27,-426.17 980.27,-426.17"/>
<polygon fill="#80b1d3" stroke="#80b1d3" stroke-width="2" points="981.77,-423.67 981.77,-428.67 980.77,-428.67 980.77,-423.67 981.77,-423.67"/>
<polyline fill="none" stroke="#80b1d3" stroke-width="2" points="982.27,-426.17 979.77,-426.17"/>
</g>
<!-- MEN7048&#45;&gt;MEN7049 -->
</g>
</svg>
