<?xml version="1.0" encoding="UTF-8" standalone="no"?>
<!DOCTYPE svg PUBLIC "-//W3C//DTD SVG 1.1//EN"
 "http://www.w3.org/Graphics/SVG/1.1/DTD/svg11.dtd">
<!-- Generated by graphviz version 9.0.0 (0)
 -->
<!-- Title: grafo_materias Pages: 1 -->
<svg width="615pt" height="657pt"
 viewBox="0.00 0.00 615.00 657.00" xmlns="http://www.w3.org/2000/svg" xmlns:xlink="http://www.w3.org/1999/xlink">
<g id="graph0" class="graph" transform="scale(1 1) rotate(0) translate(4 653)">
<title>grafo_materias</title>
<polygon fill="none" stroke="none" points="-4,4 -4,-653 611,-653 611,4 -4,4"/>
<g id="clust1" class="cluster">
<title>cluster_everything</title>
<polygon fill="none" stroke="none" points="8,-8 8,-641 599,-641 599,-8 8,-8"/>
</g>
<g id="clust2" class="cluster">
<title>cluster_header</title>
<polygon fill="none" stroke="none" points="21.98,-581 21.98,-633 585.02,-633 585.02,-581 21.98,-581"/>
</g>
<g id="clust3" class="cluster">
<title>cluster_0</title>
<polygon fill="none" stroke="none" points="16,-16 16,-555 144.75,-555 144.75,-16 16,-16"/>
</g>
<g id="clust4" class="cluster">
<title>cluster_1</title>
<polygon fill="none" stroke="none" points="164.75,-50 164.75,-573 293.5,-573 293.5,-50 164.75,-50"/>
</g>
<g id="clust5" class="cluster">
<title>cluster_2</title>
<polygon fill="none" stroke="none" points="313.5,-16 313.5,-539 442.25,-539 442.25,-16 313.5,-16"/>
</g>
<g id="clust6" class="cluster">
<title>cluster_3</title>
<polygon fill="none" stroke="none" points="462.25,-33 462.25,-573 591,-573 591,-33 462.25,-33"/>
</g>
<!-- 1ª Fase -->
<g id="node1" class="node">
<title>1ª Fase</title>
<polygon fill="lightgrey" stroke="black" points="130.78,-625 29.98,-625 29.98,-589 130.78,-589 130.78,-625"/>
<text text-anchor="middle" x="80.38" y="-601.58" font-family="Arial" font-size="14.00">1ª Fase</text>
</g>
<!-- 2ª Fase -->
<g id="node2" class="node">
<title>2ª Fase</title>
<polygon fill="lightgrey" stroke="black" points="279.52,-625 178.72,-625 178.72,-589 279.52,-589 279.52,-625"/>
<text text-anchor="middle" x="229.12" y="-601.58" font-family="Arial" font-size="14.00">2ª Fase</text>
</g>
<!-- 1ª Fase&#45;&gt;2ª Fase -->
<!-- 3ª Fase -->
<g id="node3" class="node">
<title>3ª Fase</title>
<polygon fill="lightgrey" stroke="black" points="428.27,-625 327.48,-625 327.48,-589 428.27,-589 428.27,-625"/>
<text text-anchor="middle" x="377.88" y="-601.58" font-family="Arial" font-size="14.00">3ª Fase</text>
</g>
<!-- 2ª Fase&#45;&gt;3ª Fase -->
<!-- 4ª Fase -->
<g id="node4" class="node">
<title>4ª Fase</title>
<polygon fill="lightgrey" stroke="black" points="577.02,-625 476.23,-625 476.23,-589 577.02,-589 577.02,-625"/>
<text text-anchor="middle" x="526.62" y="-601.58" font-family="Arial" font-size="14.00">4ª Fase</text>
</g>
<!-- 3ª Fase&#45;&gt;4ª Fase -->
<!-- LLE8020 -->
<g id="node5" class="node">
<title>LLE8020</title>
<polygon fill="#8dd3c7" stroke="#8dd3c7" points="130.78,-426.62 29.98,-426.62 29.98,-355.38 130.78,-355.38 130.78,-426.62"/>
<text text-anchor="middle" x="80.38" y="-409.32" font-family="Arial" font-size="14.00">LLE8020</text>
<text text-anchor="middle" x="80.38" y="-377.57" font-family="Arial" font-size="14.00">Estudos</text>
<text text-anchor="middle" x="80.38" y="-361.82" font-family="Arial" font-size="14.00">Literários I</text>
</g>
<!-- LLE8021 -->
<g id="node10" class="node">
<title>LLE8021</title>
<polygon fill="#8dd3c7" stroke="#8dd3c7" points="279.52,-444.62 178.72,-444.62 178.72,-373.38 279.52,-373.38 279.52,-444.62"/>
<text text-anchor="middle" x="229.12" y="-427.32" font-family="Arial" font-size="14.00">LLE8021</text>
<text text-anchor="middle" x="229.12" y="-395.57" font-family="Arial" font-size="14.00">Estudos</text>
<text text-anchor="middle" x="229.12" y="-379.82" font-family="Arial" font-size="14.00">Literários II</text>
</g>
<!-- LLE8020&#45;&gt;LLE8021 -->
<g id="edge4" class="edge">
<title>LLE8020&#45;&gt;LLE8021</title>
<path fill="none" stroke="#8dd3c7" stroke-width="2" d="M131.15,-386.69C131.15,-386.69 175.83,-386.69 175.83,-386.69"/>
<polygon fill="#8dd3c7" stroke="#8dd3c7" stroke-width="2" points="177.33,-384.19 177.33,-389.19 176.33,-389.19 176.33,-384.19 177.33,-384.19"/>
<polyline fill="none" stroke="#8dd3c7" stroke-width="2" points="177.83,-386.69 175.33,-386.69"/>
</g>
<!-- LLE8020&#45;&gt;LLE8021 -->
<!-- LLE8041 -->
<g id="node11" class="node">
<title>LLE8041</title>
<polygon fill="#8dd3c7" stroke="#8dd3c7" points="279.52,-355.62 178.72,-355.62 178.72,-284.38 279.52,-284.38 279.52,-355.62"/>
<text text-anchor="middle" x="229.12" y="-338.32" font-family="Arial" font-size="14.00">LLE8041</text>
<text text-anchor="middle" x="229.12" y="-306.57" font-family="Arial" font-size="14.00">Estudos</text>
<text text-anchor="middle" x="229.12" y="-290.82" font-family="Arial" font-size="14.00">Linguísticos I</text>
</g>
<!-- LLE8020&#45;&gt;LLE8041 -->
<!-- LLE8050 -->
<g id="node12" class="node">
<title>LLE8050</title>
<polygon fill="#8dd3c7" stroke="#8dd3c7" points="279.52,-129.62 178.72,-129.62 178.72,-58.38 279.52,-58.38 279.52,-129.62"/>
<text text-anchor="middle" x="229.12" y="-112.33" font-family="Arial" font-size="14.00">LLE8050</text>
<text text-anchor="middle" x="229.12" y="-80.58" font-family="Arial" font-size="14.00">Linguística</text>
<text text-anchor="middle" x="229.12" y="-64.83" font-family="Arial" font-size="14.00">Aplicada</text>
</g>
<!-- LLE8020&#45;&gt;LLE8050 -->
<!-- LLE8212 -->
<g id="node13" class="node">
<title>LLE8212</title>
<polygon fill="#8dd3c7" stroke="#8dd3c7" points="285.5,-565.38 172.75,-565.38 172.75,-462.62 285.5,-462.62 285.5,-565.38"/>
<text text-anchor="middle" x="229.12" y="-548.08" font-family="Arial" font-size="14.00">LLE8212</text>
<text text-anchor="middle" x="229.12" y="-516.33" font-family="Arial" font-size="14.00">Compreensão e</text>
<text text-anchor="middle" x="229.12" y="-500.57" font-family="Arial" font-size="14.00">Produção Oral</text>
<text text-anchor="middle" x="229.12" y="-484.82" font-family="Arial" font-size="14.00">em Língua</text>
<text text-anchor="middle" x="229.12" y="-469.07" font-family="Arial" font-size="14.00">Espanhola II</text>
</g>
<!-- LLE8020&#45;&gt;LLE8212 -->
<!-- LLE8292 -->
<g id="node14" class="node">
<title>LLE8292</title>
<polygon fill="#8dd3c7" stroke="#8dd3c7" points="285.5,-266.25 172.75,-266.25 172.75,-147.75 285.5,-147.75 285.5,-266.25"/>
<text text-anchor="middle" x="229.12" y="-248.95" font-family="Arial" font-size="14.00">LLE8292</text>
<text text-anchor="middle" x="229.12" y="-217.2" font-family="Arial" font-size="14.00">Compreensão e</text>
<text text-anchor="middle" x="229.12" y="-201.45" font-family="Arial" font-size="14.00">Produção</text>
<text text-anchor="middle" x="229.12" y="-185.7" font-family="Arial" font-size="14.00">Escrita em</text>
<text text-anchor="middle" x="229.12" y="-169.95" font-family="Arial" font-size="14.00">Língua</text>
<text text-anchor="middle" x="229.12" y="-154.2" font-family="Arial" font-size="14.00">Espanhola II</text>
</g>
<!-- LLE8020&#45;&gt;LLE8292 -->
<!-- LLE8030 -->
<g id="node6" class="node">
<title>LLE8030</title>
<polygon fill="#8dd3c7" stroke="#8dd3c7" points="130.78,-95.62 29.98,-95.62 29.98,-24.38 130.78,-24.38 130.78,-95.62"/>
<text text-anchor="middle" x="80.38" y="-78.33" font-family="Arial" font-size="14.00">LLE8030</text>
<text text-anchor="middle" x="80.38" y="-46.58" font-family="Arial" font-size="14.00">História da</text>
<text text-anchor="middle" x="80.38" y="-30.82" font-family="Arial" font-size="14.00">Tradução</text>
</g>
<!-- LLE8031 -->
<g id="node16" class="node">
<title>LLE8031</title>
<polygon fill="#8dd3c7" stroke="#8dd3c7" points="428.27,-95.62 327.48,-95.62 327.48,-24.38 428.27,-24.38 428.27,-95.62"/>
<text text-anchor="middle" x="377.88" y="-78.33" font-family="Arial" font-size="14.00">LLE8031</text>
<text text-anchor="middle" x="377.88" y="-46.58" font-family="Arial" font-size="14.00">Teorias da</text>
<text text-anchor="middle" x="377.88" y="-30.82" font-family="Arial" font-size="14.00">Tradução</text>
</g>
<!-- LLE8030&#45;&gt;LLE8031 -->
<g id="edge10" class="edge">
<title>LLE8030&#45;&gt;LLE8031</title>
<path fill="none" stroke="#8dd3c7" stroke-width="2" d="M131.18,-41.38C131.18,-41.38 324.78,-41.38 324.78,-41.38"/>
<polygon fill="#8dd3c7" stroke="#8dd3c7" stroke-width="2" points="326.28,-38.88 326.28,-43.88 325.28,-43.88 325.28,-38.88 326.28,-38.88"/>
<polyline fill="none" stroke="#8dd3c7" stroke-width="2" points="326.78,-41.38 324.28,-41.38"/>
</g>
<!-- LLE8040 -->
<g id="node7" class="node">
<title>LLE8040</title>
<polygon fill="#8dd3c7" stroke="#8dd3c7" points="133,-200.5 27.75,-200.5 27.75,-113.5 133,-113.5 133,-200.5"/>
<text text-anchor="middle" x="80.38" y="-183.2" font-family="Arial" font-size="14.00">LLE8040</text>
<text text-anchor="middle" x="80.38" y="-151.45" font-family="Arial" font-size="14.00">Introdução aos</text>
<text text-anchor="middle" x="80.38" y="-135.7" font-family="Arial" font-size="14.00">Estudos da</text>
<text text-anchor="middle" x="80.38" y="-119.95" font-family="Arial" font-size="14.00">Linguagem</text>
</g>
<!-- LLE8040&#45;&gt;LLE8041 -->
<g id="edge5" class="edge">
<title>LLE8040&#45;&gt;LLE8041</title>
<path fill="none" stroke="#8dd3c7" stroke-width="2" d="M133.26,-174.12C147.48,-174.12 159,-174.12 159,-174.12 159,-174.12 159,-310.81 159,-310.81 159,-310.81 176.03,-310.81 176.03,-310.81"/>
<polygon fill="#8dd3c7" stroke="#8dd3c7" stroke-width="2" points="177.53,-308.31 177.53,-313.31 176.53,-313.31 176.53,-308.31 177.53,-308.31"/>
<polyline fill="none" stroke="#8dd3c7" stroke-width="2" points="178.03,-310.81 175.53,-310.81"/>
</g>
<!-- LLE8040&#45;&gt;LLE8050 -->
<g id="edge6" class="edge">
<title>LLE8040&#45;&gt;LLE8050</title>
<path fill="none" stroke="#8dd3c7" stroke-width="2" d="M133.24,-118.88C133.24,-118.88 175.93,-118.88 175.93,-118.88"/>
<polygon fill="#8dd3c7" stroke="#8dd3c7" stroke-width="2" points="177.43,-116.38 177.43,-121.38 176.43,-121.38 176.43,-116.38 177.43,-116.38"/>
<polyline fill="none" stroke="#8dd3c7" stroke-width="2" points="177.93,-118.88 175.43,-118.88"/>
</g>
<!-- LLE8042 -->
<g id="node17" class="node">
<title>LLE8042</title>
<polygon fill="#8dd3c7" stroke="#8dd3c7" points="428.27,-184.62 327.48,-184.62 327.48,-113.38 428.27,-113.38 428.27,-184.62"/>
<text text-anchor="middle" x="377.88" y="-167.32" font-family="Arial" font-size="14.00">LLE8042</text>
<text text-anchor="middle" x="377.88" y="-135.57" font-family="Arial" font-size="14.00">Estudos</text>
<text text-anchor="middle" x="377.88" y="-119.83" font-family="Arial" font-size="14.00">Linguísticos II</text>
</g>
<!-- LLE8040&#45;&gt;LLE8042 -->
<g id="edge11" class="edge">
<title>LLE8040&#45;&gt;LLE8042</title>
<path fill="none" stroke="#8dd3c7" stroke-width="2" d="M133.22,-138.69C133.22,-138.69 324.51,-138.69 324.51,-138.69"/>
<polygon fill="#8dd3c7" stroke="#8dd3c7" stroke-width="2" points="326.01,-136.19 326.01,-141.19 325.01,-141.19 325.01,-136.19 326.01,-136.19"/>
<polyline fill="none" stroke="#8dd3c7" stroke-width="2" points="326.51,-138.69 324.01,-138.69"/>
</g>
<!-- LLE8211 -->
<g id="node8" class="node">
<title>LLE8211</title>
<polygon fill="#8dd3c7" stroke="#8dd3c7" points="136.75,-547.38 24,-547.38 24,-444.62 136.75,-444.62 136.75,-547.38"/>
<text text-anchor="middle" x="80.38" y="-530.08" font-family="Arial" font-size="14.00">LLE8211</text>
<text text-anchor="middle" x="80.38" y="-498.32" font-family="Arial" font-size="14.00">Compreensão e</text>
<text text-anchor="middle" x="80.38" y="-482.57" font-family="Arial" font-size="14.00">Produção Oral</text>
<text text-anchor="middle" x="80.38" y="-466.82" font-family="Arial" font-size="14.00">em Língua</text>
<text text-anchor="middle" x="80.38" y="-451.07" font-family="Arial" font-size="14.00">Espanhola I</text>
</g>
<!-- LLE8211&#45;&gt;LLE8212 -->
<g id="edge7" class="edge">
<title>LLE8211&#45;&gt;LLE8212</title>
<path fill="none" stroke="#8dd3c7" stroke-width="2" d="M137.04,-519.12C137.04,-519.12 170.12,-519.12 170.12,-519.12"/>
<polygon fill="#8dd3c7" stroke="#8dd3c7" stroke-width="2" points="171.62,-516.63 171.62,-521.63 170.62,-521.63 170.62,-516.63 171.62,-516.63"/>
<polyline fill="none" stroke="#8dd3c7" stroke-width="2" points="172.12,-519.13 169.62,-519.13"/>
</g>
<!-- LLE8291 -->
<g id="node9" class="node">
<title>LLE8291</title>
<polygon fill="#8dd3c7" stroke="#8dd3c7" points="136.75,-337.25 24,-337.25 24,-218.75 136.75,-218.75 136.75,-337.25"/>
<text text-anchor="middle" x="80.38" y="-319.95" font-family="Arial" font-size="14.00">LLE8291</text>
<text text-anchor="middle" x="80.38" y="-288.2" font-family="Arial" font-size="14.00">Compreensão e</text>
<text text-anchor="middle" x="80.38" y="-272.45" font-family="Arial" font-size="14.00">Produção</text>
<text text-anchor="middle" x="80.38" y="-256.7" font-family="Arial" font-size="14.00">Escrita em</text>
<text text-anchor="middle" x="80.38" y="-240.95" font-family="Arial" font-size="14.00">Língua</text>
<text text-anchor="middle" x="80.38" y="-225.2" font-family="Arial" font-size="14.00">Espanhola I</text>
</g>
<!-- LLE8291&#45;&gt;LLE8292 -->
<g id="edge8" class="edge">
<title>LLE8291&#45;&gt;LLE8292</title>
<path fill="none" stroke="#8dd3c7" stroke-width="2" d="M137.04,-234.58C137.04,-234.58 170.12,-234.58 170.12,-234.58"/>
<polygon fill="#8dd3c7" stroke="#8dd3c7" stroke-width="2" points="171.62,-232.08 171.62,-237.08 170.62,-237.08 170.62,-232.08 171.62,-232.08"/>
<polyline fill="none" stroke="#8dd3c7" stroke-width="2" points="172.12,-234.58 169.62,-234.58"/>
</g>
<!-- LLE8022 -->
<g id="node15" class="node">
<title>LLE8022</title>
<polygon fill="#8dd3c7" stroke="#8dd3c7" points="428.27,-410.62 327.48,-410.62 327.48,-339.38 428.27,-339.38 428.27,-410.62"/>
<text text-anchor="middle" x="377.88" y="-393.32" font-family="Arial" font-size="14.00">LLE8022</text>
<text text-anchor="middle" x="377.88" y="-361.57" font-family="Arial" font-size="14.00">Estudos</text>
<text text-anchor="middle" x="377.88" y="-345.82" font-family="Arial" font-size="14.00">Literários III</text>
</g>
<!-- LLE8021&#45;&gt;LLE8022 -->
<g id="edge9" class="edge">
<title>LLE8021&#45;&gt;LLE8022</title>
<path fill="none" stroke="#8dd3c7" stroke-width="2" d="M279.9,-392C279.9,-392 324.58,-392 324.58,-392"/>
<polygon fill="#8dd3c7" stroke="#8dd3c7" stroke-width="2" points="326.08,-389.5 326.08,-394.5 325.08,-394.5 325.08,-389.5 326.08,-389.5"/>
<polyline fill="none" stroke="#8dd3c7" stroke-width="2" points="326.58,-392 324.08,-392"/>
</g>
<!-- LLE8023 -->
<g id="node21" class="node">
<title>LLE8023</title>
<polygon fill="#8dd3c7" stroke="#8dd3c7" points="577.02,-564.62 476.23,-564.62 476.23,-493.38 577.02,-493.38 577.02,-564.62"/>
<text text-anchor="middle" x="526.62" y="-547.33" font-family="Arial" font-size="14.00">LLE8023</text>
<text text-anchor="middle" x="526.62" y="-515.58" font-family="Arial" font-size="14.00">Estudos</text>
<text text-anchor="middle" x="526.62" y="-499.82" font-family="Arial" font-size="14.00">Literários IV</text>
</g>
<!-- LLE8021&#45;&gt;LLE8023 -->
<g id="edge16" class="edge">
<title>LLE8021&#45;&gt;LLE8023</title>
<path fill="none" stroke="#8dd3c7" stroke-width="2" d="M279.93,-419.62C342.04,-419.62 439,-419.62 439,-419.62 439,-419.62 439,-518.71 439,-518.71 439,-518.71 473.41,-518.71 473.41,-518.71"/>
<polygon fill="#8dd3c7" stroke="#8dd3c7" stroke-width="2" points="474.91,-516.21 474.91,-521.21 473.91,-521.21 473.91,-516.21 474.91,-516.21"/>
<polyline fill="none" stroke="#8dd3c7" stroke-width="2" points="475.41,-518.71 472.91,-518.71"/>
</g>
<!-- LLE8010 -->
<g id="node20" class="node">
<title>LLE8010</title>
<polygon fill="#8dd3c7" stroke="#8dd3c7" points="577.02,-475.5 476.23,-475.5 476.23,-388.5 577.02,-388.5 577.02,-475.5"/>
<text text-anchor="middle" x="526.62" y="-458.2" font-family="Arial" font-size="14.00">LLE8010</text>
<text text-anchor="middle" x="526.62" y="-426.45" font-family="Arial" font-size="14.00">Pesquisa em</text>
<text text-anchor="middle" x="526.62" y="-410.7" font-family="Arial" font-size="14.00">Letras</text>
<text text-anchor="middle" x="526.62" y="-394.95" font-family="Arial" font-size="14.00">Estrangeiras</text>
</g>
<!-- LLE8041&#45;&gt;LLE8010 -->
<g id="edge14" class="edge">
<title>LLE8041&#45;&gt;LLE8010</title>
<path fill="none" stroke="#8dd3c7" stroke-width="2" d="M279.81,-330.31C343.06,-330.31 443,-330.31 443,-330.31 443,-330.31 443,-405.09 443,-405.09 443,-405.09 473.55,-405.09 473.55,-405.09"/>
<polygon fill="#8dd3c7" stroke="#8dd3c7" stroke-width="2" points="475.05,-402.59 475.05,-407.59 474.05,-407.59 474.05,-402.59 475.05,-402.59"/>
<polyline fill="none" stroke="#8dd3c7" stroke-width="2" points="475.55,-405.09 473.05,-405.09"/>
</g>
<!-- LLE8213 -->
<g id="node18" class="node">
<title>LLE8213</title>
<polygon fill="#8dd3c7" stroke="#8dd3c7" points="434.25,-531.38 321.5,-531.38 321.5,-428.62 434.25,-428.62 434.25,-531.38"/>
<text text-anchor="middle" x="377.88" y="-514.08" font-family="Arial" font-size="14.00">LLE8213</text>
<text text-anchor="middle" x="377.88" y="-482.32" font-family="Arial" font-size="14.00">Compreensão e</text>
<text text-anchor="middle" x="377.88" y="-466.57" font-family="Arial" font-size="14.00">Produção Oral</text>
<text text-anchor="middle" x="377.88" y="-450.82" font-family="Arial" font-size="14.00">em Língua</text>
<text text-anchor="middle" x="377.88" y="-435.07" font-family="Arial" font-size="14.00">Espanhola III</text>
</g>
<!-- LLE8212&#45;&gt;LLE8213 -->
<g id="edge12" class="edge">
<title>LLE8212&#45;&gt;LLE8213</title>
<path fill="none" stroke="#8dd3c7" stroke-width="2" d="M285.79,-497C285.79,-497 318.87,-497 318.87,-497"/>
<polygon fill="#8dd3c7" stroke="#8dd3c7" stroke-width="2" points="320.37,-494.5 320.37,-499.5 319.37,-499.5 319.37,-494.5 320.37,-494.5"/>
<polyline fill="none" stroke="#8dd3c7" stroke-width="2" points="320.87,-497 318.37,-497"/>
</g>
<!-- LLE8292&#45;&gt;LLE8022 -->
<!-- LLE8292&#45;&gt;LLE8031 -->
<!-- LLE8292&#45;&gt;LLE8042 -->
<!-- LLE8292&#45;&gt;LLE8213 -->
<!-- LLE8293 -->
<g id="node19" class="node">
<title>LLE8293</title>
<polygon fill="#8dd3c7" stroke="#8dd3c7" points="434.25,-321.25 321.5,-321.25 321.5,-202.75 434.25,-202.75 434.25,-321.25"/>
<text text-anchor="middle" x="377.88" y="-303.95" font-family="Arial" font-size="14.00">LLE8293</text>
<text text-anchor="middle" x="377.88" y="-272.2" font-family="Arial" font-size="14.00">Compreensão e</text>
<text text-anchor="middle" x="377.88" y="-256.45" font-family="Arial" font-size="14.00">Produção</text>
<text text-anchor="middle" x="377.88" y="-240.7" font-family="Arial" font-size="14.00">Escrita em</text>
<text text-anchor="middle" x="377.88" y="-224.95" font-family="Arial" font-size="14.00">Língua</text>
<text text-anchor="middle" x="377.88" y="-209.2" font-family="Arial" font-size="14.00">Espanhola III</text>
</g>
<!-- LLE8292&#45;&gt;LLE8293 -->
<g id="edge13" class="edge">
<title>LLE8292&#45;&gt;LLE8293</title>
<path fill="none" stroke="#8dd3c7" stroke-width="2" d="M285.79,-215.45C285.79,-215.45 318.87,-215.45 318.87,-215.45"/>
<polygon fill="#8dd3c7" stroke="#8dd3c7" stroke-width="2" points="320.37,-212.95 320.37,-217.95 319.37,-217.95 319.37,-212.95 320.37,-212.95"/>
<polyline fill="none" stroke="#8dd3c7" stroke-width="2" points="320.87,-215.45 318.37,-215.45"/>
</g>
<!-- LLE8292&#45;&gt;LLE8293 -->
<!-- LLE8032 -->
<g id="node22" class="node">
<title>LLE8032</title>
<polygon fill="#8dd3c7" stroke="#8dd3c7" points="577.02,-112.62 476.23,-112.62 476.23,-41.38 577.02,-41.38 577.02,-112.62"/>
<text text-anchor="middle" x="526.62" y="-95.33" font-family="Arial" font-size="14.00">LLE8032</text>
<text text-anchor="middle" x="526.62" y="-63.58" font-family="Arial" font-size="14.00">Prática de</text>
<text text-anchor="middle" x="526.62" y="-47.83" font-family="Arial" font-size="14.00">Tradução</text>
</g>
<!-- LLE8031&#45;&gt;LLE8032 -->
<g id="edge17" class="edge">
<title>LLE8031&#45;&gt;LLE8032</title>
<path fill="none" stroke="#8dd3c7" stroke-width="2" d="M428.65,-68.5C428.65,-68.5 473.33,-68.5 473.33,-68.5"/>
<polygon fill="#8dd3c7" stroke="#8dd3c7" stroke-width="2" points="474.83,-66 474.83,-71 473.83,-71 473.83,-66 474.83,-66"/>
<polyline fill="none" stroke="#8dd3c7" stroke-width="2" points="475.33,-68.5 472.83,-68.5"/>
</g>
<!-- LLE8214 -->
<g id="node23" class="node">
<title>LLE8214</title>
<polygon fill="#8dd3c7" stroke="#8dd3c7" points="583,-370.38 470.25,-370.38 470.25,-267.62 583,-267.62 583,-370.38"/>
<text text-anchor="middle" x="526.62" y="-353.07" font-family="Arial" font-size="14.00">LLE8214</text>
<text text-anchor="middle" x="526.62" y="-321.32" font-family="Arial" font-size="14.00">Compreensão e</text>
<text text-anchor="middle" x="526.62" y="-305.57" font-family="Arial" font-size="14.00">Produção Oral</text>
<text text-anchor="middle" x="526.62" y="-289.82" font-family="Arial" font-size="14.00">em Língua</text>
<text text-anchor="middle" x="526.62" y="-274.07" font-family="Arial" font-size="14.00">Espanhola IV</text>
</g>
<!-- LLE8213&#45;&gt;LLE8214 -->
<g id="edge19" class="edge">
<title>LLE8213&#45;&gt;LLE8214</title>
<path fill="none" stroke="#8dd3c7" stroke-width="2" d="M434.57,-452.06C452.15,-452.06 467,-452.06 467,-452.06 467,-452.06 467,-354.88 467,-354.88 467,-354.88 467.38,-354.88 467.38,-354.88"/>
<polygon fill="#8dd3c7" stroke="#8dd3c7" stroke-width="2" points="468.88,-352.38 468.88,-357.38 467.88,-357.38 467.88,-352.38 468.88,-352.38"/>
<polyline fill="none" stroke="#8dd3c7" stroke-width="2" points="469.38,-354.88 466.88,-354.88"/>
</g>
<!-- LLE8293&#45;&gt;LLE8010 -->
<g id="edge15" class="edge">
<title>LLE8293&#45;&gt;LLE8010</title>
<path fill="none" stroke="#8dd3c7" stroke-width="2" d="M434.66,-299.8C448.29,-299.8 459,-299.8 459,-299.8 459,-299.8 459,-399.56 459,-399.56 459,-399.56 473.56,-399.56 473.56,-399.56"/>
<polygon fill="#8dd3c7" stroke="#8dd3c7" stroke-width="2" points="475.06,-397.06 475.06,-402.06 474.06,-402.06 474.06,-397.06 475.06,-397.06"/>
<polyline fill="none" stroke="#8dd3c7" stroke-width="2" points="475.56,-399.56 473.06,-399.56"/>
</g>
<!-- LLE8293&#45;&gt;LLE8010 -->
<!-- LLE8293&#45;&gt;LLE8023 -->
<!-- LLE8293&#45;&gt;LLE8032 -->
<g id="edge18" class="edge">
<title>LLE8293&#45;&gt;LLE8032</title>
<path fill="none" stroke="#8dd3c7" stroke-width="2" d="M434.41,-212.05C444.04,-212.05 451,-212.05 451,-212.05 451,-212.05 451,-101.29 451,-101.29 451,-101.29 473.26,-101.29 473.26,-101.29"/>
<polygon fill="#8dd3c7" stroke="#8dd3c7" stroke-width="2" points="474.76,-98.79 474.76,-103.79 473.76,-103.79 473.76,-98.79 474.76,-98.79"/>
<polyline fill="none" stroke="#8dd3c7" stroke-width="2" points="475.26,-101.29 472.76,-101.29"/>
</g>
<!-- LLE8293&#45;&gt;LLE8032 -->
<!-- LLE8293&#45;&gt;LLE8214 -->
<!-- LLE8294 -->
<g id="node24" class="node">
<title>LLE8294</title>
<polygon fill="#8dd3c7" stroke="#8dd3c7" points="583,-249.25 470.25,-249.25 470.25,-130.75 583,-130.75 583,-249.25"/>
<text text-anchor="middle" x="526.62" y="-231.95" font-family="Arial" font-size="14.00">LLE8294</text>
<text text-anchor="middle" x="526.62" y="-200.2" font-family="Arial" font-size="14.00">Compreensão e</text>
<text text-anchor="middle" x="526.62" y="-184.45" font-family="Arial" font-size="14.00">Produção</text>
<text text-anchor="middle" x="526.62" y="-168.7" font-family="Arial" font-size="14.00">Escrita em</text>
<text text-anchor="middle" x="526.62" y="-152.95" font-family="Arial" font-size="14.00">Língua</text>
<text text-anchor="middle" x="526.62" y="-137.2" font-family="Arial" font-size="14.00">Espanhola IV</text>
</g>
<!-- LLE8293&#45;&gt;LLE8294 -->
<g id="edge20" class="edge">
<title>LLE8293&#45;&gt;LLE8294</title>
<path fill="none" stroke="#8dd3c7" stroke-width="2" d="M434.54,-230.65C434.54,-230.65 467.62,-230.65 467.62,-230.65"/>
<polygon fill="#8dd3c7" stroke="#8dd3c7" stroke-width="2" points="469.12,-228.15 469.12,-233.15 468.12,-233.15 468.12,-228.15 469.12,-228.15"/>
<polyline fill="none" stroke="#8dd3c7" stroke-width="2" points="469.62,-230.65 467.12,-230.65"/>
</g>
<!-- LLE8293&#45;&gt;LLE8294 -->
</g>
</svg>
