<?xml version="1.0" encoding="UTF-8" standalone="no"?>
<!DOCTYPE svg PUBLIC "-//W3C//DTD SVG 1.1//EN"
 "http://www.w3.org/Graphics/SVG/1.1/DTD/svg11.dtd">
<!-- Generated by graphviz version 9.0.0 (0)
 -->
<!-- Title: grafo_materias Pages: 1 -->
<svg width="1049pt" height="729pt"
 viewBox="0.00 0.00 1049.30 729.00" xmlns="http://www.w3.org/2000/svg" xmlns:xlink="http://www.w3.org/1999/xlink">
<g id="graph0" class="graph" transform="scale(1 1) rotate(0) translate(4 725)">
<title>grafo_materias</title>
<polygon fill="none" stroke="none" points="-4,4 -4,-725 1045.3,-725 1045.3,4 -4,4"/>
<g id="clust1" class="cluster">
<title>cluster_everything</title>
<polygon fill="none" stroke="none" points="8,-8 8,-713 1033.3,-713 1033.3,-8 8,-8"/>
</g>
<g id="clust2" class="cluster">
<title>cluster_header</title>
<polygon fill="none" stroke="none" points="21.98,-653 21.98,-705 1025.3,-705 1025.3,-653 21.98,-653"/>
</g>
<g id="clust3" class="cluster">
<title>cluster_0</title>
<polygon fill="none" stroke="none" points="16,-16 16,-540 144.75,-540 144.75,-16 16,-16"/>
</g>
<g id="clust4" class="cluster">
<title>cluster_1</title>
<polygon fill="none" stroke="none" points="164.75,-48 164.75,-571 293.5,-571 293.5,-48 164.75,-48"/>
</g>
<g id="clust5" class="cluster">
<title>cluster_2</title>
<polygon fill="none" stroke="none" points="313.5,-30 313.5,-570 442.25,-570 442.25,-30 313.5,-30"/>
</g>
<g id="clust6" class="cluster">
<title>cluster_3</title>
<polygon fill="none" stroke="none" points="462.25,-223 462.25,-568 591,-568 591,-223 462.25,-223"/>
</g>
<g id="clust7" class="cluster">
<title>cluster_4</title>
<polygon fill="none" stroke="none" points="611,-168 611,-513 739.75,-513 739.75,-168 611,-168"/>
</g>
<g id="clust8" class="cluster">
<title>cluster_5</title>
<polygon fill="none" stroke="none" points="759.75,-113 759.75,-611 888.5,-611 888.5,-113 759.75,-113"/>
</g>
<g id="clust9" class="cluster">
<title>cluster_6</title>
<polygon fill="none" stroke="none" points="908.5,-408 908.5,-616 1025.3,-616 1025.3,-408 908.5,-408"/>
</g>
<!-- 2ª Fase -->
<g id="node1" class="node">
<title>2ª Fase</title>
<polygon fill="lightgrey" stroke="black" points="130.78,-697 29.98,-697 29.98,-661 130.78,-661 130.78,-697"/>
<text text-anchor="middle" x="80.38" y="-673.58" font-family="Arial" font-size="14.00">2ª Fase</text>
</g>
<!-- 3ª Fase -->
<g id="node2" class="node">
<title>3ª Fase</title>
<polygon fill="lightgrey" stroke="black" points="279.52,-697 178.72,-697 178.72,-661 279.52,-661 279.52,-697"/>
<text text-anchor="middle" x="229.12" y="-673.58" font-family="Arial" font-size="14.00">3ª Fase</text>
</g>
<!-- 2ª Fase&#45;&gt;3ª Fase -->
<!-- 4ª Fase -->
<g id="node3" class="node">
<title>4ª Fase</title>
<polygon fill="lightgrey" stroke="black" points="428.27,-697 327.48,-697 327.48,-661 428.27,-661 428.27,-697"/>
<text text-anchor="middle" x="377.88" y="-673.58" font-family="Arial" font-size="14.00">4ª Fase</text>
</g>
<!-- 3ª Fase&#45;&gt;4ª Fase -->
<!-- 5ª Fase -->
<g id="node4" class="node">
<title>5ª Fase</title>
<polygon fill="lightgrey" stroke="black" points="577.02,-697 476.23,-697 476.23,-661 577.02,-661 577.02,-697"/>
<text text-anchor="middle" x="526.62" y="-673.58" font-family="Arial" font-size="14.00">5ª Fase</text>
</g>
<!-- 4ª Fase&#45;&gt;5ª Fase -->
<!-- 6ª Fase -->
<g id="node5" class="node">
<title>6ª Fase</title>
<polygon fill="lightgrey" stroke="black" points="725.77,-697 624.98,-697 624.98,-661 725.77,-661 725.77,-697"/>
<text text-anchor="middle" x="675.38" y="-673.58" font-family="Arial" font-size="14.00">6ª Fase</text>
</g>
<!-- 5ª Fase&#45;&gt;6ª Fase -->
<!-- 7ª Fase -->
<g id="node6" class="node">
<title>7ª Fase</title>
<polygon fill="lightgrey" stroke="black" points="874.52,-697 773.73,-697 773.73,-661 874.52,-661 874.52,-697"/>
<text text-anchor="middle" x="824.12" y="-673.58" font-family="Arial" font-size="14.00">7ª Fase</text>
</g>
<!-- 6ª Fase&#45;&gt;7ª Fase -->
<!-- 8ª Fase -->
<g id="node7" class="node">
<title>8ª Fase</title>
<polygon fill="lightgrey" stroke="black" points="1017.3,-697 916.5,-697 916.5,-661 1017.3,-661 1017.3,-697"/>
<text text-anchor="middle" x="966.9" y="-673.58" font-family="Arial" font-size="14.00">8ª Fase</text>
</g>
<!-- 7ª Fase&#45;&gt;8ª Fase -->
<!-- LLE8021 -->
<g id="node8" class="node">
<title>LLE8021</title>
<polygon fill="#8dd3c7" stroke="#8dd3c7" points="130.78,-531.62 29.98,-531.62 29.98,-460.38 130.78,-460.38 130.78,-531.62"/>
<text text-anchor="middle" x="80.38" y="-514.33" font-family="Arial" font-size="14.00">LLE8021</text>
<text text-anchor="middle" x="80.38" y="-482.57" font-family="Arial" font-size="14.00">Estudos</text>
<text text-anchor="middle" x="80.38" y="-466.82" font-family="Arial" font-size="14.00">Literários II</text>
</g>
<!-- LLE8022 -->
<g id="node13" class="node">
<title>LLE8022</title>
<polygon fill="#8dd3c7" stroke="#8dd3c7" points="279.52,-384.62 178.72,-384.62 178.72,-313.38 279.52,-313.38 279.52,-384.62"/>
<text text-anchor="middle" x="229.12" y="-367.32" font-family="Arial" font-size="14.00">LLE8022</text>
<text text-anchor="middle" x="229.12" y="-335.57" font-family="Arial" font-size="14.00">Estudos</text>
<text text-anchor="middle" x="229.12" y="-319.82" font-family="Arial" font-size="14.00">Literários III</text>
</g>
<!-- LLE8021&#45;&gt;LLE8022 -->
<g id="edge7" class="edge">
<title>LLE8021&#45;&gt;LLE8022</title>
<path fill="none" stroke="#8dd3c7" stroke-width="2" d="M131.17,-467C147.43,-467 161.3,-467 161.3,-467 161.3,-467 161.3,-354.19 161.3,-354.19 161.3,-354.19 175.92,-354.19 175.92,-354.19"/>
<polygon fill="#8dd3c7" stroke="#8dd3c7" stroke-width="2" points="177.42,-351.69 177.42,-356.69 176.42,-356.69 176.42,-351.69 177.42,-351.69"/>
<polyline fill="none" stroke="#8dd3c7" stroke-width="2" points="177.92,-354.19 175.42,-354.19"/>
</g>
<!-- LLE8021&#45;&gt;LLE8022 -->
<!-- LLE8031 -->
<g id="node14" class="node">
<title>LLE8031</title>
<polygon fill="#8dd3c7" stroke="#8dd3c7" points="279.52,-473.62 178.72,-473.62 178.72,-402.38 279.52,-402.38 279.52,-473.62"/>
<text text-anchor="middle" x="229.12" y="-456.32" font-family="Arial" font-size="14.00">LLE8031</text>
<text text-anchor="middle" x="229.12" y="-424.57" font-family="Arial" font-size="14.00">Teorias da</text>
<text text-anchor="middle" x="229.12" y="-408.82" font-family="Arial" font-size="14.00">Tradução</text>
</g>
<!-- LLE8021&#45;&gt;LLE8031 -->
<!-- LLE8042 -->
<g id="node15" class="node">
<title>LLE8042</title>
<polygon fill="#8dd3c7" stroke="#8dd3c7" points="279.52,-562.62 178.72,-562.62 178.72,-491.38 279.52,-491.38 279.52,-562.62"/>
<text text-anchor="middle" x="229.12" y="-545.33" font-family="Arial" font-size="14.00">LLE8042</text>
<text text-anchor="middle" x="229.12" y="-513.58" font-family="Arial" font-size="14.00">Estudos</text>
<text text-anchor="middle" x="229.12" y="-497.82" font-family="Arial" font-size="14.00">Linguísticos II</text>
</g>
<!-- LLE8021&#45;&gt;LLE8042 -->
<!-- LLE8213 -->
<g id="node16" class="node">
<title>LLE8213</title>
<polygon fill="#8dd3c7" stroke="#8dd3c7" points="285.5,-158.38 172.75,-158.38 172.75,-55.63 285.5,-55.63 285.5,-158.38"/>
<text text-anchor="middle" x="229.12" y="-141.07" font-family="Arial" font-size="14.00">LLE8213</text>
<text text-anchor="middle" x="229.12" y="-109.33" font-family="Arial" font-size="14.00">Compreensão e</text>
<text text-anchor="middle" x="229.12" y="-93.58" font-family="Arial" font-size="14.00">Produção Oral</text>
<text text-anchor="middle" x="229.12" y="-77.83" font-family="Arial" font-size="14.00">em Língua</text>
<text text-anchor="middle" x="229.12" y="-62.08" font-family="Arial" font-size="14.00">Espanhola III</text>
</g>
<!-- LLE8021&#45;&gt;LLE8213 -->
<!-- LLE8293 -->
<g id="node17" class="node">
<title>LLE8293</title>
<polygon fill="#8dd3c7" stroke="#8dd3c7" points="285.5,-295.25 172.75,-295.25 172.75,-176.75 285.5,-176.75 285.5,-295.25"/>
<text text-anchor="middle" x="229.12" y="-277.95" font-family="Arial" font-size="14.00">LLE8293</text>
<text text-anchor="middle" x="229.12" y="-246.2" font-family="Arial" font-size="14.00">Compreensão e</text>
<text text-anchor="middle" x="229.12" y="-230.45" font-family="Arial" font-size="14.00">Produção</text>
<text text-anchor="middle" x="229.12" y="-214.7" font-family="Arial" font-size="14.00">Escrita em</text>
<text text-anchor="middle" x="229.12" y="-198.95" font-family="Arial" font-size="14.00">Língua</text>
<text text-anchor="middle" x="229.12" y="-183.2" font-family="Arial" font-size="14.00">Espanhola III</text>
</g>
<!-- LLE8021&#45;&gt;LLE8293 -->
<!-- LLE8023 -->
<g id="node19" class="node">
<title>LLE8023</title>
<polygon fill="#8dd3c7" stroke="#8dd3c7" points="428.27,-561.62 327.48,-561.62 327.48,-490.38 428.27,-490.38 428.27,-561.62"/>
<text text-anchor="middle" x="377.88" y="-544.33" font-family="Arial" font-size="14.00">LLE8023</text>
<text text-anchor="middle" x="377.88" y="-512.58" font-family="Arial" font-size="14.00">Estudos</text>
<text text-anchor="middle" x="377.88" y="-496.82" font-family="Arial" font-size="14.00">Literários IV</text>
</g>
<!-- LLE8021&#45;&gt;LLE8023 -->
<g id="edge12" class="edge">
<title>LLE8021&#45;&gt;LLE8023</title>
<path fill="none" stroke="#8dd3c7" stroke-width="2" d="M131.25,-485.43C216.34,-485.43 378.3,-485.43 378.3,-485.43 378.3,-485.43 378.3,-487.58 378.3,-487.58"/>
<polygon fill="#8dd3c7" stroke="#8dd3c7" stroke-width="2" points="380.8,-489.08 375.8,-489.08 375.8,-488.08 380.8,-488.08 380.8,-489.08"/>
<polyline fill="none" stroke="#8dd3c7" stroke-width="2" points="378.3,-489.58 378.3,-487.08"/>
</g>
<!-- LLE8221 -->
<g id="node24" class="node">
<title>LLE8221</title>
<polygon fill="#8dd3c7" stroke="#8dd3c7" points="577.02,-559.62 476.23,-559.62 476.23,-488.38 577.02,-488.38 577.02,-559.62"/>
<text text-anchor="middle" x="526.62" y="-542.33" font-family="Arial" font-size="14.00">LLE8221</text>
<text text-anchor="middle" x="526.62" y="-510.57" font-family="Arial" font-size="14.00">Literatura</text>
<text text-anchor="middle" x="526.62" y="-494.82" font-family="Arial" font-size="14.00">Hispânica I</text>
</g>
<!-- LLE8021&#45;&gt;LLE8221 -->
<g id="edge20" class="edge">
<title>LLE8021&#45;&gt;LLE8221</title>
<path fill="none" stroke="#8dd3c7" stroke-width="2" d="M131.21,-482.48C248.35,-482.48 527.3,-482.48 527.3,-482.48 527.3,-482.48 527.3,-485.4 527.3,-485.4"/>
<polygon fill="#8dd3c7" stroke="#8dd3c7" stroke-width="2" points="529.8,-486.9 524.8,-486.9 524.8,-485.9 529.8,-485.9 529.8,-486.9"/>
<polyline fill="none" stroke="#8dd3c7" stroke-width="2" points="527.3,-487.4 527.3,-484.9"/>
</g>
<!-- LLE8222 -->
<g id="node27" class="node">
<title>LLE8222</title>
<polygon fill="#8dd3c7" stroke="#8dd3c7" points="725.77,-247.62 624.98,-247.62 624.98,-176.38 725.77,-176.38 725.77,-247.62"/>
<text text-anchor="middle" x="675.38" y="-230.32" font-family="Arial" font-size="14.00">LLE8222</text>
<text text-anchor="middle" x="675.38" y="-198.57" font-family="Arial" font-size="14.00">Literatura</text>
<text text-anchor="middle" x="675.38" y="-182.82" font-family="Arial" font-size="14.00">Hispânica II</text>
</g>
<!-- LLE8021&#45;&gt;LLE8222 -->
<g id="edge25" class="edge">
<title>LLE8021&#45;&gt;LLE8222</title>
<path fill="none" stroke="#8dd3c7" stroke-width="2" d="M131.19,-479.52C263.82,-479.52 610.3,-479.52 610.3,-479.52 610.3,-479.52 610.3,-241.96 610.3,-241.96 610.3,-241.96 622.24,-241.96 622.24,-241.96"/>
<polygon fill="#8dd3c7" stroke="#8dd3c7" stroke-width="2" points="623.74,-239.46 623.74,-244.46 622.74,-244.46 622.74,-239.46 623.74,-239.46"/>
<polyline fill="none" stroke="#8dd3c7" stroke-width="2" points="624.24,-241.96 621.74,-241.96"/>
</g>
<!-- LLE8223 -->
<g id="node30" class="node">
<title>LLE8223</title>
<polygon fill="#8dd3c7" stroke="#8dd3c7" points="874.52,-192.62 773.73,-192.62 773.73,-121.38 874.52,-121.38 874.52,-192.62"/>
<text text-anchor="middle" x="824.12" y="-175.32" font-family="Arial" font-size="14.00">LLE8223</text>
<text text-anchor="middle" x="824.12" y="-143.57" font-family="Arial" font-size="14.00">Literatura</text>
<text text-anchor="middle" x="824.12" y="-127.83" font-family="Arial" font-size="14.00">Hispânica III</text>
</g>
<!-- LLE8021&#45;&gt;LLE8223 -->
<g id="edge30" class="edge">
<title>LLE8021&#45;&gt;LLE8223</title>
<path fill="none" stroke="#8dd3c7" stroke-width="2" d="M130.86,-476.57C260.01,-476.57 592.3,-476.57 592.3,-476.57 592.3,-476.57 592.3,-168.19 592.3,-168.19 592.3,-168.19 770.75,-168.19 770.75,-168.19"/>
<polygon fill="#8dd3c7" stroke="#8dd3c7" stroke-width="2" points="772.25,-165.69 772.25,-170.69 771.25,-170.69 771.25,-165.69 772.25,-165.69"/>
<polyline fill="none" stroke="#8dd3c7" stroke-width="2" points="772.75,-168.19 770.25,-168.19"/>
</g>
<!-- LLE8224 -->
<g id="node33" class="node">
<title>LLE8224</title>
<polygon fill="#8dd3c7" stroke="#8dd3c7" points="1017.3,-607.62 916.5,-607.62 916.5,-536.38 1017.3,-536.38 1017.3,-607.62"/>
<text text-anchor="middle" x="966.9" y="-590.33" font-family="Arial" font-size="14.00">LLE8224</text>
<text text-anchor="middle" x="966.9" y="-558.58" font-family="Arial" font-size="14.00">Literatura</text>
<text text-anchor="middle" x="966.9" y="-542.83" font-family="Arial" font-size="14.00">Hispânica IV</text>
</g>
<!-- LLE8021&#45;&gt;LLE8224 -->
<g id="edge36" class="edge">
<title>LLE8021&#45;&gt;LLE8224</title>
<path fill="none" stroke="#8dd3c7" stroke-width="2" d="M81.3,-531.94C81.3,-576.79 81.3,-647.66 81.3,-647.66 81.3,-647.66 992.3,-647.66 992.3,-647.66 992.3,-647.66 992.3,-610.56 992.3,-610.56"/>
<polygon fill="#8dd3c7" stroke="#8dd3c7" stroke-width="2" points="989.8,-609.06 994.8,-609.06 994.8,-610.06 989.8,-610.06 989.8,-609.06"/>
<polyline fill="none" stroke="#8dd3c7" stroke-width="2" points="992.3,-608.56 992.3,-611.06"/>
</g>
<!-- LLE8041 -->
<g id="node9" class="node">
<title>LLE8041</title>
<polygon fill="#8dd3c7" stroke="#8dd3c7" points="130.78,-95.62 29.98,-95.62 29.98,-24.38 130.78,-24.38 130.78,-95.62"/>
<text text-anchor="middle" x="80.38" y="-78.33" font-family="Arial" font-size="14.00">LLE8041</text>
<text text-anchor="middle" x="80.38" y="-46.58" font-family="Arial" font-size="14.00">Estudos</text>
<text text-anchor="middle" x="80.38" y="-30.82" font-family="Arial" font-size="14.00">Linguísticos I</text>
</g>
<!-- LLE8010 -->
<g id="node18" class="node">
<title>LLE8010</title>
<polygon fill="#8dd3c7" stroke="#8dd3c7" points="428.27,-125.5 327.48,-125.5 327.48,-38.5 428.27,-38.5 428.27,-125.5"/>
<text text-anchor="middle" x="377.88" y="-108.2" font-family="Arial" font-size="14.00">LLE8010</text>
<text text-anchor="middle" x="377.88" y="-76.45" font-family="Arial" font-size="14.00">Pesquisa em</text>
<text text-anchor="middle" x="377.88" y="-60.7" font-family="Arial" font-size="14.00">Letras</text>
<text text-anchor="middle" x="377.88" y="-44.95" font-family="Arial" font-size="14.00">Estrangeiras</text>
</g>
<!-- LLE8041&#45;&gt;LLE8010 -->
<g id="edge10" class="edge">
<title>LLE8041&#45;&gt;LLE8010</title>
<path fill="none" stroke="#8dd3c7" stroke-width="2" d="M131.18,-47.06C131.18,-47.06 324.78,-47.06 324.78,-47.06"/>
<polygon fill="#8dd3c7" stroke="#8dd3c7" stroke-width="2" points="326.28,-44.56 326.28,-49.56 325.28,-49.56 325.28,-44.56 326.28,-44.56"/>
<polyline fill="none" stroke="#8dd3c7" stroke-width="2" points="326.78,-47.06 324.28,-47.06"/>
</g>
<!-- LLE8050 -->
<g id="node10" class="node">
<title>LLE8050</title>
<polygon fill="#8dd3c7" stroke="#8dd3c7" points="130.78,-305.62 29.98,-305.62 29.98,-234.38 130.78,-234.38 130.78,-305.62"/>
<text text-anchor="middle" x="80.38" y="-288.32" font-family="Arial" font-size="14.00">LLE8050</text>
<text text-anchor="middle" x="80.38" y="-256.57" font-family="Arial" font-size="14.00">Linguística</text>
<text text-anchor="middle" x="80.38" y="-240.82" font-family="Arial" font-size="14.00">Aplicada</text>
</g>
<!-- LLE8212 -->
<g id="node11" class="node">
<title>LLE8212</title>
<polygon fill="#8dd3c7" stroke="#8dd3c7" points="136.75,-216.38 24,-216.38 24,-113.62 136.75,-113.62 136.75,-216.38"/>
<text text-anchor="middle" x="80.38" y="-199.07" font-family="Arial" font-size="14.00">LLE8212</text>
<text text-anchor="middle" x="80.38" y="-167.32" font-family="Arial" font-size="14.00">Compreensão e</text>
<text text-anchor="middle" x="80.38" y="-151.57" font-family="Arial" font-size="14.00">Produção Oral</text>
<text text-anchor="middle" x="80.38" y="-135.82" font-family="Arial" font-size="14.00">em Língua</text>
<text text-anchor="middle" x="80.38" y="-120.08" font-family="Arial" font-size="14.00">Espanhola II</text>
</g>
<!-- LLE8212&#45;&gt;LLE8213 -->
<g id="edge8" class="edge">
<title>LLE8212&#45;&gt;LLE8213</title>
<path fill="none" stroke="#8dd3c7" stroke-width="2" d="M137.04,-128.54C137.04,-128.54 170.12,-128.54 170.12,-128.54"/>
<polygon fill="#8dd3c7" stroke="#8dd3c7" stroke-width="2" points="171.62,-126.04 171.62,-131.04 170.62,-131.04 170.62,-126.04 171.62,-126.04"/>
<polyline fill="none" stroke="#8dd3c7" stroke-width="2" points="172.12,-128.54 169.62,-128.54"/>
</g>
<!-- LLE8292 -->
<g id="node12" class="node">
<title>LLE8292</title>
<polygon fill="#8dd3c7" stroke="#8dd3c7" points="136.75,-442.25 24,-442.25 24,-323.75 136.75,-323.75 136.75,-442.25"/>
<text text-anchor="middle" x="80.38" y="-424.95" font-family="Arial" font-size="14.00">LLE8292</text>
<text text-anchor="middle" x="80.38" y="-393.2" font-family="Arial" font-size="14.00">Compreensão e</text>
<text text-anchor="middle" x="80.38" y="-377.45" font-family="Arial" font-size="14.00">Produção</text>
<text text-anchor="middle" x="80.38" y="-361.7" font-family="Arial" font-size="14.00">Escrita em</text>
<text text-anchor="middle" x="80.38" y="-345.95" font-family="Arial" font-size="14.00">Língua</text>
<text text-anchor="middle" x="80.38" y="-330.2" font-family="Arial" font-size="14.00">Espanhola II</text>
</g>
<!-- LLE8292&#45;&gt;LLE8293 -->
<g id="edge9" class="edge">
<title>LLE8292&#45;&gt;LLE8293</title>
<path fill="none" stroke="#8dd3c7" stroke-width="2" d="M136.98,-338.97C144.29,-338.97 149.3,-338.97 149.3,-338.97 149.3,-338.97 149.3,-254.67 149.3,-254.67 149.3,-254.67 169.89,-254.67 169.89,-254.67"/>
<polygon fill="#8dd3c7" stroke="#8dd3c7" stroke-width="2" points="171.39,-252.17 171.39,-257.17 170.39,-257.17 170.39,-252.17 171.39,-252.17"/>
<polyline fill="none" stroke="#8dd3c7" stroke-width="2" points="171.89,-254.67 169.39,-254.67"/>
</g>
<!-- LLE8032 -->
<g id="node20" class="node">
<title>LLE8032</title>
<polygon fill="#8dd3c7" stroke="#8dd3c7" points="428.27,-472.62 327.48,-472.62 327.48,-401.38 428.27,-401.38 428.27,-472.62"/>
<text text-anchor="middle" x="377.88" y="-455.32" font-family="Arial" font-size="14.00">LLE8032</text>
<text text-anchor="middle" x="377.88" y="-423.57" font-family="Arial" font-size="14.00">Prática de</text>
<text text-anchor="middle" x="377.88" y="-407.82" font-family="Arial" font-size="14.00">Tradução</text>
</g>
<!-- LLE8031&#45;&gt;LLE8032 -->
<g id="edge13" class="edge">
<title>LLE8031&#45;&gt;LLE8032</title>
<path fill="none" stroke="#8dd3c7" stroke-width="2" d="M279.9,-455.06C279.9,-455.06 324.58,-455.06 324.58,-455.06"/>
<polygon fill="#8dd3c7" stroke="#8dd3c7" stroke-width="2" points="326.08,-452.56 326.08,-457.56 325.08,-457.56 325.08,-452.56 326.08,-452.56"/>
<polyline fill="none" stroke="#8dd3c7" stroke-width="2" points="326.58,-455.06 324.08,-455.06"/>
</g>
<!-- LLE8214 -->
<g id="node21" class="node">
<title>LLE8214</title>
<polygon fill="#8dd3c7" stroke="#8dd3c7" points="434.25,-246.38 321.5,-246.38 321.5,-143.62 434.25,-143.62 434.25,-246.38"/>
<text text-anchor="middle" x="377.88" y="-229.07" font-family="Arial" font-size="14.00">LLE8214</text>
<text text-anchor="middle" x="377.88" y="-197.32" font-family="Arial" font-size="14.00">Compreensão e</text>
<text text-anchor="middle" x="377.88" y="-181.57" font-family="Arial" font-size="14.00">Produção Oral</text>
<text text-anchor="middle" x="377.88" y="-165.82" font-family="Arial" font-size="14.00">em Língua</text>
<text text-anchor="middle" x="377.88" y="-150.07" font-family="Arial" font-size="14.00">Espanhola IV</text>
</g>
<!-- LLE8213&#45;&gt;LLE8214 -->
<g id="edge15" class="edge">
<title>LLE8213&#45;&gt;LLE8214</title>
<path fill="none" stroke="#8dd3c7" stroke-width="2" d="M285.79,-151C285.79,-151 318.87,-151 318.87,-151"/>
<polygon fill="#8dd3c7" stroke="#8dd3c7" stroke-width="2" points="320.37,-148.5 320.37,-153.5 319.37,-153.5 319.37,-148.5 320.37,-148.5"/>
<polyline fill="none" stroke="#8dd3c7" stroke-width="2" points="320.87,-151 318.37,-151"/>
</g>
<!-- LLE8293&#45;&gt;LLE8010 -->
<g id="edge11" class="edge">
<title>LLE8293&#45;&gt;LLE8010</title>
<path fill="none" stroke="#8dd3c7" stroke-width="2" d="M285.94,-194.16C299.59,-194.16 310.3,-194.16 310.3,-194.16 310.3,-194.16 310.3,-78.92 310.3,-78.92 310.3,-78.92 324.5,-78.92 324.5,-78.92"/>
<polygon fill="#8dd3c7" stroke="#8dd3c7" stroke-width="2" points="326,-76.42 326,-81.42 325,-81.42 325,-76.42 326,-76.42"/>
<polyline fill="none" stroke="#8dd3c7" stroke-width="2" points="326.5,-78.92 324,-78.92"/>
</g>
<!-- LLE8293&#45;&gt;LLE8010 -->
<!-- LLE8293&#45;&gt;LLE8023 -->
<!-- LLE8293&#45;&gt;LLE8032 -->
<g id="edge14" class="edge">
<title>LLE8293&#45;&gt;LLE8032</title>
<path fill="none" stroke="#8dd3c7" stroke-width="2" d="M285.93,-285.08C293.27,-285.08 298.3,-285.08 298.3,-285.08 298.3,-285.08 298.3,-437.5 298.3,-437.5 298.3,-437.5 324.53,-437.5 324.53,-437.5"/>
<polygon fill="#8dd3c7" stroke="#8dd3c7" stroke-width="2" points="326.03,-435 326.03,-440 325.03,-440 325.03,-435 326.03,-435"/>
<polyline fill="none" stroke="#8dd3c7" stroke-width="2" points="326.53,-437.5 324.03,-437.5"/>
</g>
<!-- LLE8293&#45;&gt;LLE8032 -->
<!-- LLE8293&#45;&gt;LLE8214 -->
<!-- LLE8294 -->
<g id="node22" class="node">
<title>LLE8294</title>
<polygon fill="#8dd3c7" stroke="#8dd3c7" points="434.25,-383.25 321.5,-383.25 321.5,-264.75 434.25,-264.75 434.25,-383.25"/>
<text text-anchor="middle" x="377.88" y="-365.95" font-family="Arial" font-size="14.00">LLE8294</text>
<text text-anchor="middle" x="377.88" y="-334.2" font-family="Arial" font-size="14.00">Compreensão e</text>
<text text-anchor="middle" x="377.88" y="-318.45" font-family="Arial" font-size="14.00">Produção</text>
<text text-anchor="middle" x="377.88" y="-302.7" font-family="Arial" font-size="14.00">Escrita em</text>
<text text-anchor="middle" x="377.88" y="-286.95" font-family="Arial" font-size="14.00">Língua</text>
<text text-anchor="middle" x="377.88" y="-271.2" font-family="Arial" font-size="14.00">Espanhola IV</text>
</g>
<!-- LLE8293&#45;&gt;LLE8294 -->
<g id="edge16" class="edge">
<title>LLE8293&#45;&gt;LLE8294</title>
<path fill="none" stroke="#8dd3c7" stroke-width="2" d="M285.79,-269.83C285.79,-269.83 318.87,-269.83 318.87,-269.83"/>
<polygon fill="#8dd3c7" stroke="#8dd3c7" stroke-width="2" points="320.37,-267.33 320.37,-272.33 319.37,-272.33 319.37,-267.33 320.37,-267.33"/>
<polyline fill="none" stroke="#8dd3c7" stroke-width="2" points="320.87,-269.83 318.37,-269.83"/>
</g>
<!-- LLE8293&#45;&gt;LLE8294 -->
<!-- LLE8240 -->
<g id="node31" class="node">
<title>LLE8240</title>
<polygon fill="#fb8072" stroke="#fb8072" points="875.62,-345.12 772.62,-345.12 772.62,-210.88 875.62,-210.88 875.62,-345.12"/>
<text text-anchor="middle" x="824.12" y="-327.82" font-family="Arial" font-size="14.00">LLE8240</text>
<text text-anchor="middle" x="824.12" y="-296.07" font-family="Arial" font-size="14.00">Elaboração de</text>
<text text-anchor="middle" x="824.12" y="-280.32" font-family="Arial" font-size="14.00">Projeto de</text>
<text text-anchor="middle" x="824.12" y="-264.57" font-family="Arial" font-size="14.00">Trabalho de</text>
<text text-anchor="middle" x="824.12" y="-248.82" font-family="Arial" font-size="14.00">Conclusão de</text>
<text text-anchor="middle" x="824.12" y="-233.07" font-family="Arial" font-size="14.00">Curso &#45;</text>
<text text-anchor="middle" x="824.12" y="-217.32" font-family="Arial" font-size="14.00">Espanhol</text>
</g>
<!-- LLE8010&#45;&gt;LLE8240 -->
<g id="edge31" class="edge">
<title>LLE8010&#45;&gt;LLE8240</title>
<path fill="none" stroke="#fb8072" stroke-width="2" d="M428.75,-93.75C528.1,-93.75 738.3,-93.75 738.3,-93.75 738.3,-93.75 738.3,-235.38 738.3,-235.38 738.3,-235.38 769.72,-235.38 769.72,-235.38"/>
<polygon fill="#fb8072" stroke="#fb8072" stroke-width="2" points="771.22,-232.88 771.22,-237.88 770.22,-237.88 770.22,-232.88 771.22,-232.88"/>
<polyline fill="none" stroke="#fb8072" stroke-width="2" points="771.72,-235.38 769.22,-235.38"/>
</g>
<!-- LLE8010&#45;&gt;LLE8240 -->
<g id="edge34" class="edge">
<title>LLE8010&#45;&gt;LLE8240</title>
<path fill="none" stroke="#fb8072" stroke-width="2" d="M428.44,-66.12C528.96,-66.12 744.3,-66.12 744.3,-66.12 744.3,-66.12 744.3,-223.12 744.3,-223.12 744.3,-223.12 769.72,-223.12 769.72,-223.12"/>
<polygon fill="#fb8072" stroke="#fb8072" stroke-width="2" points="771.22,-220.63 771.22,-225.63 770.22,-225.63 770.22,-220.63 771.22,-220.63"/>
<polyline fill="none" stroke="#fb8072" stroke-width="2" points="771.72,-223.13 769.22,-223.13"/>
</g>
<!-- LLE8215 -->
<g id="node23" class="node">
<title>LLE8215</title>
<polygon fill="#8dd3c7" stroke="#8dd3c7" points="583,-333.38 470.25,-333.38 470.25,-230.62 583,-230.62 583,-333.38"/>
<text text-anchor="middle" x="526.62" y="-316.07" font-family="Arial" font-size="14.00">LLE8215</text>
<text text-anchor="middle" x="526.62" y="-284.32" font-family="Arial" font-size="14.00">Compreensão e</text>
<text text-anchor="middle" x="526.62" y="-268.57" font-family="Arial" font-size="14.00">Produção Oral</text>
<text text-anchor="middle" x="526.62" y="-252.82" font-family="Arial" font-size="14.00">em Língua</text>
<text text-anchor="middle" x="526.62" y="-237.07" font-family="Arial" font-size="14.00">Espanhola V</text>
</g>
<!-- LLE8214&#45;&gt;LLE8215 -->
<g id="edge17" class="edge">
<title>LLE8214&#45;&gt;LLE8215</title>
<path fill="none" stroke="#8dd3c7" stroke-width="2" d="M434.54,-234.56C434.54,-234.56 467.62,-234.56 467.62,-234.56"/>
<polygon fill="#8dd3c7" stroke="#8dd3c7" stroke-width="2" points="469.12,-232.06 469.12,-237.06 468.12,-237.06 468.12,-232.06 469.12,-232.06"/>
<polyline fill="none" stroke="#8dd3c7" stroke-width="2" points="469.62,-234.56 467.12,-234.56"/>
</g>
<!-- LLE8214&#45;&gt;LLE8221 -->
<g id="edge18" class="edge">
<title>LLE8214&#45;&gt;LLE8221</title>
<path fill="none" stroke="#8dd3c7" stroke-width="2" d="M434.38,-238.5C451.71,-238.5 466.3,-238.5 466.3,-238.5 466.3,-238.5 466.3,-507.69 466.3,-507.69 466.3,-507.69 473.23,-507.69 473.23,-507.69"/>
<polygon fill="#8dd3c7" stroke="#8dd3c7" stroke-width="2" points="474.73,-505.19 474.73,-510.19 473.73,-510.19 473.73,-505.19 474.73,-505.19"/>
<polyline fill="none" stroke="#8dd3c7" stroke-width="2" points="475.23,-507.69 472.73,-507.69"/>
</g>
<!-- LLE8214&#45;&gt;LLE8222 -->
<g id="edge23" class="edge">
<title>LLE8214&#45;&gt;LLE8222</title>
<path fill="none" stroke="#8dd3c7" stroke-width="2" d="M434.53,-194.46C434.53,-194.46 622.37,-194.46 622.37,-194.46"/>
<polygon fill="#8dd3c7" stroke="#8dd3c7" stroke-width="2" points="623.87,-191.96 623.87,-196.96 622.87,-196.96 622.87,-191.96 623.87,-191.96"/>
<polyline fill="none" stroke="#8dd3c7" stroke-width="2" points="624.37,-194.46 621.87,-194.46"/>
</g>
<!-- LLE8214&#45;&gt;LLE8223 -->
<g id="edge28" class="edge">
<title>LLE8214&#45;&gt;LLE8223</title>
<path fill="none" stroke="#8dd3c7" stroke-width="2" d="M434.39,-151.81C434.39,-151.81 770.73,-151.81 770.73,-151.81"/>
<polygon fill="#8dd3c7" stroke="#8dd3c7" stroke-width="2" points="772.23,-149.31 772.23,-154.31 771.23,-154.31 771.23,-149.31 772.23,-149.31"/>
<polyline fill="none" stroke="#8dd3c7" stroke-width="2" points="772.73,-151.81 770.23,-151.81"/>
</g>
<!-- LLE8214&#45;&gt;LLE8224 -->
<g id="edge37" class="edge">
<title>LLE8214&#45;&gt;LLE8224</title>
<path fill="none" stroke="#8dd3c7" stroke-width="2" d="M434.75,-242.44C439.94,-242.44 443.3,-242.44 443.3,-242.44 443.3,-242.44 443.3,-620.97 443.3,-620.97 443.3,-620.97 942.3,-620.97 942.3,-620.97 942.3,-620.97 942.3,-610.6 942.3,-610.6"/>
<polygon fill="#8dd3c7" stroke="#8dd3c7" stroke-width="2" points="939.8,-609.1 944.8,-609.1 944.8,-610.1 939.8,-610.1 939.8,-609.1"/>
<polyline fill="none" stroke="#8dd3c7" stroke-width="2" points="942.3,-608.6 942.3,-611.1"/>
</g>
<!-- LLE8294&#45;&gt;LLE8215 -->
<!-- LLE8294&#45;&gt;LLE8221 -->
<g id="edge19" class="edge">
<title>LLE8294&#45;&gt;LLE8221</title>
<path fill="none" stroke="#8dd3c7" stroke-width="2" d="M434.33,-372.75C447.26,-372.75 457.3,-372.75 457.3,-372.75 457.3,-372.75 457.3,-542.31 457.3,-542.31 457.3,-542.31 473.38,-542.31 473.38,-542.31"/>
<polygon fill="#8dd3c7" stroke="#8dd3c7" stroke-width="2" points="474.88,-539.81 474.88,-544.81 473.88,-544.81 473.88,-539.81 474.88,-539.81"/>
<polyline fill="none" stroke="#8dd3c7" stroke-width="2" points="475.38,-542.31 472.88,-542.31"/>
</g>
<!-- LLE8294&#45;&gt;LLE8221 -->
<!-- LLE8295 -->
<g id="node25" class="node">
<title>LLE8295</title>
<polygon fill="#8dd3c7" stroke="#8dd3c7" points="583,-470.25 470.25,-470.25 470.25,-351.75 583,-351.75 583,-470.25"/>
<text text-anchor="middle" x="526.62" y="-452.95" font-family="Arial" font-size="14.00">LLE8295</text>
<text text-anchor="middle" x="526.62" y="-421.2" font-family="Arial" font-size="14.00">Compreensão e</text>
<text text-anchor="middle" x="526.62" y="-405.45" font-family="Arial" font-size="14.00">Produção</text>
<text text-anchor="middle" x="526.62" y="-389.7" font-family="Arial" font-size="14.00">Escrita em</text>
<text text-anchor="middle" x="526.62" y="-373.95" font-family="Arial" font-size="14.00">Língua</text>
<text text-anchor="middle" x="526.62" y="-358.2" font-family="Arial" font-size="14.00">Espanhola V</text>
</g>
<!-- LLE8294&#45;&gt;LLE8295 -->
<g id="edge21" class="edge">
<title>LLE8294&#45;&gt;LLE8295</title>
<path fill="none" stroke="#8dd3c7" stroke-width="2" d="M434.54,-357C434.54,-357 467.62,-357 467.62,-357"/>
<polygon fill="#8dd3c7" stroke="#8dd3c7" stroke-width="2" points="469.12,-354.5 469.12,-359.5 468.12,-359.5 468.12,-354.5 469.12,-354.5"/>
<polyline fill="none" stroke="#8dd3c7" stroke-width="2" points="469.62,-357 467.12,-357"/>
</g>
<!-- LLE8294&#45;&gt;LLE8295 -->
<!-- LLE8294&#45;&gt;LLE8222 -->
<g id="edge24" class="edge">
<title>LLE8294&#45;&gt;LLE8222</title>
<path fill="none" stroke="#8dd3c7" stroke-width="2" d="M434.66,-299.06C444.85,-299.06 452.3,-299.06 452.3,-299.06 452.3,-299.06 452.3,-212.54 452.3,-212.54 452.3,-212.54 621.98,-212.54 621.98,-212.54"/>
<polygon fill="#8dd3c7" stroke="#8dd3c7" stroke-width="2" points="623.48,-210.04 623.48,-215.04 622.48,-215.04 622.48,-210.04 623.48,-210.04"/>
<polyline fill="none" stroke="#8dd3c7" stroke-width="2" points="623.98,-212.54 621.48,-212.54"/>
</g>
<!-- LLE8294&#45;&gt;LLE8223 -->
<g id="edge29" class="edge">
<title>LLE8294&#45;&gt;LLE8223</title>
<path fill="none" stroke="#8dd3c7" stroke-width="2" d="M434.72,-281.91C442.73,-281.91 448.3,-281.91 448.3,-281.91 448.3,-281.91 448.3,-160 448.3,-160 448.3,-160 770.94,-160 770.94,-160"/>
<polygon fill="#8dd3c7" stroke="#8dd3c7" stroke-width="2" points="772.44,-157.5 772.44,-162.5 771.44,-162.5 771.44,-157.5 772.44,-157.5"/>
<polyline fill="none" stroke="#8dd3c7" stroke-width="2" points="772.94,-160 770.44,-160"/>
</g>
<!-- LLE8294&#45;&gt;LLE8224 -->
<g id="edge38" class="edge">
<title>LLE8294&#45;&gt;LLE8224</title>
<path fill="none" stroke="#8dd3c7" stroke-width="2" d="M434.48,-378C437.49,-378 439.3,-378 439.3,-378 439.3,-378 439.3,-634.31 439.3,-634.31 439.3,-634.31 967.3,-634.31 967.3,-634.31 967.3,-634.31 967.3,-610.39 967.3,-610.39"/>
<polygon fill="#8dd3c7" stroke="#8dd3c7" stroke-width="2" points="964.8,-608.89 969.8,-608.89 969.8,-609.89 964.8,-609.89 964.8,-608.89"/>
<polyline fill="none" stroke="#8dd3c7" stroke-width="2" points="967.3,-608.39 967.3,-610.89"/>
</g>
<!-- LLE8216 -->
<g id="node26" class="node">
<title>LLE8216</title>
<polygon fill="#8dd3c7" stroke="#8dd3c7" points="731.75,-368.38 619,-368.38 619,-265.62 731.75,-265.62 731.75,-368.38"/>
<text text-anchor="middle" x="675.38" y="-351.07" font-family="Arial" font-size="14.00">LLE8216</text>
<text text-anchor="middle" x="675.38" y="-319.32" font-family="Arial" font-size="14.00">Compreensão e</text>
<text text-anchor="middle" x="675.38" y="-303.57" font-family="Arial" font-size="14.00">Produção Oral</text>
<text text-anchor="middle" x="675.38" y="-287.82" font-family="Arial" font-size="14.00">em Língua</text>
<text text-anchor="middle" x="675.38" y="-272.07" font-family="Arial" font-size="14.00">Espanhola VI</text>
</g>
<!-- LLE8215&#45;&gt;LLE8216 -->
<g id="edge22" class="edge">
<title>LLE8215&#45;&gt;LLE8216</title>
<path fill="none" stroke="#8dd3c7" stroke-width="2" d="M583.29,-299.5C583.29,-299.5 616.37,-299.5 616.37,-299.5"/>
<polygon fill="#8dd3c7" stroke="#8dd3c7" stroke-width="2" points="617.87,-297 617.87,-302 616.87,-302 616.87,-297 617.87,-297"/>
<polyline fill="none" stroke="#8dd3c7" stroke-width="2" points="618.37,-299.5 615.87,-299.5"/>
</g>
<!-- LLE8295&#45;&gt;LLE8216 -->
<!-- LLE8295&#45;&gt;LLE8222 -->
<!-- LLE8296 -->
<g id="node28" class="node">
<title>LLE8296</title>
<polygon fill="#8dd3c7" stroke="#8dd3c7" points="731.75,-505.25 619,-505.25 619,-386.75 731.75,-386.75 731.75,-505.25"/>
<text text-anchor="middle" x="675.38" y="-487.95" font-family="Arial" font-size="14.00">LLE8296</text>
<text text-anchor="middle" x="675.38" y="-456.2" font-family="Arial" font-size="14.00">Compreensão e</text>
<text text-anchor="middle" x="675.38" y="-440.45" font-family="Arial" font-size="14.00">Produção</text>
<text text-anchor="middle" x="675.38" y="-424.7" font-family="Arial" font-size="14.00">Escrita em</text>
<text text-anchor="middle" x="675.38" y="-408.95" font-family="Arial" font-size="14.00">Língua</text>
<text text-anchor="middle" x="675.38" y="-393.2" font-family="Arial" font-size="14.00">Espanhola VI</text>
</g>
<!-- LLE8295&#45;&gt;LLE8296 -->
<g id="edge26" class="edge">
<title>LLE8295&#45;&gt;LLE8296</title>
<path fill="none" stroke="#8dd3c7" stroke-width="2" d="M583.29,-414.58C583.29,-414.58 616.37,-414.58 616.37,-414.58"/>
<polygon fill="#8dd3c7" stroke="#8dd3c7" stroke-width="2" points="617.87,-412.08 617.87,-417.08 616.87,-417.08 616.87,-412.08 617.87,-412.08"/>
<polyline fill="none" stroke="#8dd3c7" stroke-width="2" points="618.37,-414.58 615.87,-414.58"/>
</g>
<!-- LLE8295&#45;&gt;LLE8296 -->
<!-- LLE8217 -->
<g id="node29" class="node">
<title>LLE8217</title>
<polygon fill="#8dd3c7" stroke="#8dd3c7" points="880.5,-466.38 767.75,-466.38 767.75,-363.62 880.5,-363.62 880.5,-466.38"/>
<text text-anchor="middle" x="824.12" y="-449.07" font-family="Arial" font-size="14.00">LLE8217</text>
<text text-anchor="middle" x="824.12" y="-417.32" font-family="Arial" font-size="14.00">Compreensão e</text>
<text text-anchor="middle" x="824.12" y="-401.57" font-family="Arial" font-size="14.00">Produção Oral</text>
<text text-anchor="middle" x="824.12" y="-385.82" font-family="Arial" font-size="14.00">em Língua</text>
<text text-anchor="middle" x="824.12" y="-370.07" font-family="Arial" font-size="14.00">Espanhola VII</text>
</g>
<!-- LLE8216&#45;&gt;LLE8217 -->
<g id="edge27" class="edge">
<title>LLE8216&#45;&gt;LLE8217</title>
<path fill="none" stroke="#8dd3c7" stroke-width="2" d="M732.1,-354.38C774.19,-354.38 824.3,-354.38 824.3,-354.38 824.3,-354.38 824.3,-360.82 824.3,-360.82"/>
<polygon fill="#8dd3c7" stroke="#8dd3c7" stroke-width="2" points="826.8,-362.32 821.8,-362.32 821.8,-361.32 826.8,-361.32 826.8,-362.32"/>
<polyline fill="none" stroke="#8dd3c7" stroke-width="2" points="824.3,-362.82 824.3,-360.32"/>
</g>
<!-- LLE8216&#45;&gt;LLE8240 -->
<g id="edge32" class="edge">
<title>LLE8216&#45;&gt;LLE8240</title>
<path fill="none" stroke="#fb8072" stroke-width="2" d="M732.04,-285.5C732.04,-285.5 770.01,-285.5 770.01,-285.5"/>
<polygon fill="#fb8072" stroke="#fb8072" stroke-width="2" points="771.51,-283 771.51,-288 770.51,-288 770.51,-283 771.51,-283"/>
<polyline fill="none" stroke="#fb8072" stroke-width="2" points="772.01,-285.5 769.51,-285.5"/>
</g>
<!-- LLE8296&#45;&gt;LLE8217 -->
<!-- LLE8296&#45;&gt;LLE8223 -->
<!-- LLE8296&#45;&gt;LLE8240 -->
<g id="edge33" class="edge">
<title>LLE8296&#45;&gt;LLE8240</title>
<path fill="none" stroke="#fb8072" stroke-width="2" d="M732.02,-418.6C745.62,-418.6 756.3,-418.6 756.3,-418.6 756.3,-418.6 756.3,-305.38 756.3,-305.38 756.3,-305.38 769.87,-305.38 769.87,-305.38"/>
<polygon fill="#fb8072" stroke="#fb8072" stroke-width="2" points="771.37,-302.88 771.37,-307.88 770.37,-307.88 770.37,-302.88 771.37,-302.88"/>
<polyline fill="none" stroke="#fb8072" stroke-width="2" points="771.87,-305.38 769.37,-305.38"/>
</g>
<!-- LLE8296&#45;&gt;LLE8240 -->
<!-- LLE8297 -->
<g id="node32" class="node">
<title>LLE8297</title>
<polygon fill="#8dd3c7" stroke="#8dd3c7" points="880.5,-603.25 767.75,-603.25 767.75,-484.75 880.5,-484.75 880.5,-603.25"/>
<text text-anchor="middle" x="824.12" y="-585.95" font-family="Arial" font-size="14.00">LLE8297</text>
<text text-anchor="middle" x="824.12" y="-554.2" font-family="Arial" font-size="14.00">Compreensão e</text>
<text text-anchor="middle" x="824.12" y="-538.45" font-family="Arial" font-size="14.00">Produção</text>
<text text-anchor="middle" x="824.12" y="-522.7" font-family="Arial" font-size="14.00">Escrita em</text>
<text text-anchor="middle" x="824.12" y="-506.95" font-family="Arial" font-size="14.00">Língua</text>
<text text-anchor="middle" x="824.12" y="-491.2" font-family="Arial" font-size="14.00">Espanhola VII</text>
</g>
<!-- LLE8296&#45;&gt;LLE8297 -->
<g id="edge35" class="edge">
<title>LLE8296&#45;&gt;LLE8297</title>
<path fill="none" stroke="#8dd3c7" stroke-width="2" d="M732.04,-491.58C732.04,-491.58 765.12,-491.58 765.12,-491.58"/>
<polygon fill="#8dd3c7" stroke="#8dd3c7" stroke-width="2" points="766.62,-489.08 766.62,-494.08 765.62,-494.08 765.62,-489.08 766.62,-489.08"/>
<polyline fill="none" stroke="#8dd3c7" stroke-width="2" points="767.12,-491.58 764.62,-491.58"/>
</g>
<!-- LLE8296&#45;&gt;LLE8297 -->
<!-- LLE8241 -->
<g id="node34" class="node">
<title>LLE8241</title>
<polygon fill="#fb8072" stroke="#fb8072" points="1017.3,-518.38 916.5,-518.38 916.5,-415.62 1017.3,-415.62 1017.3,-518.38"/>
<text text-anchor="middle" x="966.9" y="-501.07" font-family="Arial" font-size="14.00">LLE8241</text>
<text text-anchor="middle" x="966.9" y="-469.32" font-family="Arial" font-size="14.00">Trabalho de</text>
<text text-anchor="middle" x="966.9" y="-453.57" font-family="Arial" font-size="14.00">Conclusão de</text>
<text text-anchor="middle" x="966.9" y="-437.82" font-family="Arial" font-size="14.00">Curso (TCC) &#45;</text>
<text text-anchor="middle" x="966.9" y="-422.07" font-family="Arial" font-size="14.00">Espanhol</text>
</g>
<!-- LLE8240&#45;&gt;LLE8241 -->
<g id="edge39" class="edge">
<title>LLE8240&#45;&gt;LLE8241</title>
<path fill="none" stroke="#fb8072" stroke-width="2" d="M875.81,-278C916.83,-278 967.3,-278 967.3,-278 967.3,-278 967.3,-412.85 967.3,-412.85"/>
<polygon fill="#fb8072" stroke="#fb8072" stroke-width="2" points="969.8,-414.36 964.8,-414.35 964.8,-413.35 969.8,-413.36 969.8,-414.36"/>
<polyline fill="none" stroke="#fb8072" stroke-width="2" points="967.3,-414.85 967.3,-412.35"/>
</g>
<!-- LLE8297&#45;&gt;LLE8224 -->
<!-- LLE8297&#45;&gt;LLE8241 -->
</g>
</svg>
