<?xml version="1.0" encoding="UTF-8" standalone="no"?>
<!DOCTYPE svg PUBLIC "-//W3C//DTD SVG 1.1//EN"
 "http://www.w3.org/Graphics/SVG/1.1/DTD/svg11.dtd">
<!-- Generated by graphviz version 9.0.0 (0)
 -->
<!-- Title: grafo_materias Pages: 1 -->
<svg width="1065pt" height="837pt"
 viewBox="0.00 0.00 1065.00 837.00" xmlns="http://www.w3.org/2000/svg" xmlns:xlink="http://www.w3.org/1999/xlink">
<g id="graph0" class="graph" transform="scale(1 1) rotate(0) translate(4 833)">
<title>grafo_materias</title>
<polygon fill="none" stroke="none" points="-4,4 -4,-833 1061,-833 1061,4 -4,4"/>
<g id="clust1" class="cluster">
<title>cluster_everything</title>
<polygon fill="none" stroke="none" points="8,-8 8,-821 1049,-821 1049,-8 8,-8"/>
</g>
<g id="clust2" class="cluster">
<title>cluster_header</title>
<polygon fill="none" stroke="none" points="21.97,-761 21.97,-813 1036.9,-813 1036.9,-761 21.97,-761"/>
</g>
<g id="clust3" class="cluster">
<title>cluster_0</title>
<polygon fill="none" stroke="none" points="16,-51 16,-575 144.75,-575 144.75,-51 16,-51"/>
</g>
<g id="clust4" class="cluster">
<title>cluster_1</title>
<polygon fill="none" stroke="none" points="164.75,-176 164.75,-699 293.5,-699 293.5,-176 164.75,-176"/>
</g>
<g id="clust5" class="cluster">
<title>cluster_2</title>
<polygon fill="none" stroke="none" points="313.5,-28 313.5,-568 442.25,-568 442.25,-28 313.5,-28"/>
</g>
<g id="clust6" class="cluster">
<title>cluster_3</title>
<polygon fill="none" stroke="none" points="462.25,-148 462.25,-719 598.5,-719 598.5,-148 462.25,-148"/>
</g>
<g id="clust7" class="cluster">
<title>cluster_4</title>
<polygon fill="none" stroke="none" points="618.5,-108 618.5,-680 747.25,-680 747.25,-108 618.5,-108"/>
</g>
<g id="clust8" class="cluster">
<title>cluster_5</title>
<polygon fill="none" stroke="none" points="767.25,-98 767.25,-549 896,-549 896,-98 767.25,-98"/>
</g>
<g id="clust9" class="cluster">
<title>cluster_6</title>
<polygon fill="none" stroke="none" points="916,-291 916,-605 1041,-605 1041,-291 916,-291"/>
</g>
<!-- 2ª Fase -->
<g id="node1" class="node">
<title>2ª Fase</title>
<polygon fill="lightgrey" stroke="black" points="130.78,-805 29.98,-805 29.98,-769 130.78,-769 130.78,-805"/>
<text text-anchor="middle" x="80.38" y="-781.58" font-family="Arial" font-size="14.00">2ª Fase</text>
</g>
<!-- 3ª Fase -->
<g id="node2" class="node">
<title>3ª Fase</title>
<polygon fill="lightgrey" stroke="black" points="279.52,-805 178.72,-805 178.72,-769 279.52,-769 279.52,-805"/>
<text text-anchor="middle" x="229.12" y="-781.58" font-family="Arial" font-size="14.00">3ª Fase</text>
</g>
<!-- 2ª Fase&#45;&gt;3ª Fase -->
<!-- 4ª Fase -->
<g id="node3" class="node">
<title>4ª Fase</title>
<polygon fill="lightgrey" stroke="black" points="428.27,-805 327.48,-805 327.48,-769 428.27,-769 428.27,-805"/>
<text text-anchor="middle" x="377.88" y="-781.58" font-family="Arial" font-size="14.00">4ª Fase</text>
</g>
<!-- 3ª Fase&#45;&gt;4ª Fase -->
<!-- 5ª Fase -->
<g id="node4" class="node">
<title>5ª Fase</title>
<polygon fill="lightgrey" stroke="black" points="580.77,-805 479.98,-805 479.98,-769 580.77,-769 580.77,-805"/>
<text text-anchor="middle" x="530.38" y="-781.58" font-family="Arial" font-size="14.00">5ª Fase</text>
</g>
<!-- 4ª Fase&#45;&gt;5ª Fase -->
<!-- 6ª Fase -->
<g id="node5" class="node">
<title>6ª Fase</title>
<polygon fill="lightgrey" stroke="black" points="733.27,-805 632.48,-805 632.48,-769 733.27,-769 733.27,-805"/>
<text text-anchor="middle" x="682.88" y="-781.58" font-family="Arial" font-size="14.00">6ª Fase</text>
</g>
<!-- 5ª Fase&#45;&gt;6ª Fase -->
<!-- 7ª Fase -->
<g id="node6" class="node">
<title>7ª Fase</title>
<polygon fill="lightgrey" stroke="black" points="882.02,-805 781.23,-805 781.23,-769 882.02,-769 882.02,-805"/>
<text text-anchor="middle" x="831.62" y="-781.58" font-family="Arial" font-size="14.00">7ª Fase</text>
</g>
<!-- 6ª Fase&#45;&gt;7ª Fase -->
<!-- 8ª Fase -->
<g id="node7" class="node">
<title>8ª Fase</title>
<polygon fill="lightgrey" stroke="black" points="1028.9,-805 928.1,-805 928.1,-769 1028.9,-769 1028.9,-805"/>
<text text-anchor="middle" x="978.5" y="-781.58" font-family="Arial" font-size="14.00">8ª Fase</text>
</g>
<!-- 7ª Fase&#45;&gt;8ª Fase -->
<!-- LLE8021 -->
<g id="node8" class="node">
<title>LLE8021</title>
<polygon fill="#8dd3c7" stroke="#8dd3c7" points="130.78,-566.62 29.98,-566.62 29.98,-495.38 130.78,-495.38 130.78,-566.62"/>
<text text-anchor="middle" x="80.38" y="-549.33" font-family="Arial" font-size="14.00">LLE8021</text>
<text text-anchor="middle" x="80.38" y="-517.58" font-family="Arial" font-size="14.00">Estudos</text>
<text text-anchor="middle" x="80.38" y="-501.82" font-family="Arial" font-size="14.00">Literários II</text>
</g>
<!-- LLE8022 -->
<g id="node13" class="node">
<title>LLE8022</title>
<polygon fill="#8dd3c7" stroke="#8dd3c7" points="279.52,-512.62 178.72,-512.62 178.72,-441.38 279.52,-441.38 279.52,-512.62"/>
<text text-anchor="middle" x="229.12" y="-495.32" font-family="Arial" font-size="14.00">LLE8022</text>
<text text-anchor="middle" x="229.12" y="-463.57" font-family="Arial" font-size="14.00">Estudos</text>
<text text-anchor="middle" x="229.12" y="-447.82" font-family="Arial" font-size="14.00">Literários III</text>
</g>
<!-- LLE8021&#45;&gt;LLE8022 -->
<g id="edge7" class="edge">
<title>LLE8021&#45;&gt;LLE8022</title>
<path fill="none" stroke="#8dd3c7" stroke-width="2" d="M131.15,-508.31C131.15,-508.31 175.83,-508.31 175.83,-508.31"/>
<polygon fill="#8dd3c7" stroke="#8dd3c7" stroke-width="2" points="177.33,-505.81 177.33,-510.81 176.33,-510.81 176.33,-505.81 177.33,-505.81"/>
<polyline fill="none" stroke="#8dd3c7" stroke-width="2" points="177.83,-508.31 175.33,-508.31"/>
</g>
<!-- LLE8021&#45;&gt;LLE8022 -->
<!-- LLE8031 -->
<g id="node14" class="node">
<title>LLE8031</title>
<polygon fill="#8dd3c7" stroke="#8dd3c7" points="279.52,-601.62 178.72,-601.62 178.72,-530.38 279.52,-530.38 279.52,-601.62"/>
<text text-anchor="middle" x="229.12" y="-584.33" font-family="Arial" font-size="14.00">LLE8031</text>
<text text-anchor="middle" x="229.12" y="-552.58" font-family="Arial" font-size="14.00">Teorias da</text>
<text text-anchor="middle" x="229.12" y="-536.83" font-family="Arial" font-size="14.00">Tradução</text>
</g>
<!-- LLE8021&#45;&gt;LLE8031 -->
<!-- LLE8042 -->
<g id="node15" class="node">
<title>LLE8042</title>
<polygon fill="#8dd3c7" stroke="#8dd3c7" points="279.52,-690.62 178.72,-690.62 178.72,-619.38 279.52,-619.38 279.52,-690.62"/>
<text text-anchor="middle" x="229.12" y="-673.33" font-family="Arial" font-size="14.00">LLE8042</text>
<text text-anchor="middle" x="229.12" y="-641.58" font-family="Arial" font-size="14.00">Estudos</text>
<text text-anchor="middle" x="229.12" y="-625.83" font-family="Arial" font-size="14.00">Linguísticos II</text>
</g>
<!-- LLE8021&#45;&gt;LLE8042 -->
<!-- LLE8213 -->
<g id="node16" class="node">
<title>LLE8213</title>
<polygon fill="#8dd3c7" stroke="#8dd3c7" points="285.5,-286.38 172.75,-286.38 172.75,-183.62 285.5,-183.62 285.5,-286.38"/>
<text text-anchor="middle" x="229.12" y="-269.07" font-family="Arial" font-size="14.00">LLE8213</text>
<text text-anchor="middle" x="229.12" y="-237.32" font-family="Arial" font-size="14.00">Compreensão e</text>
<text text-anchor="middle" x="229.12" y="-221.57" font-family="Arial" font-size="14.00">Produção Oral</text>
<text text-anchor="middle" x="229.12" y="-205.82" font-family="Arial" font-size="14.00">em Língua</text>
<text text-anchor="middle" x="229.12" y="-190.07" font-family="Arial" font-size="14.00">Espanhola III</text>
</g>
<!-- LLE8021&#45;&gt;LLE8213 -->
<!-- LLE8293 -->
<g id="node17" class="node">
<title>LLE8293</title>
<polygon fill="#8dd3c7" stroke="#8dd3c7" points="285.5,-423.25 172.75,-423.25 172.75,-304.75 285.5,-304.75 285.5,-423.25"/>
<text text-anchor="middle" x="229.12" y="-405.95" font-family="Arial" font-size="14.00">LLE8293</text>
<text text-anchor="middle" x="229.12" y="-374.2" font-family="Arial" font-size="14.00">Compreensão e</text>
<text text-anchor="middle" x="229.12" y="-358.45" font-family="Arial" font-size="14.00">Produção</text>
<text text-anchor="middle" x="229.12" y="-342.7" font-family="Arial" font-size="14.00">Escrita em</text>
<text text-anchor="middle" x="229.12" y="-326.95" font-family="Arial" font-size="14.00">Língua</text>
<text text-anchor="middle" x="229.12" y="-311.2" font-family="Arial" font-size="14.00">Espanhola III</text>
</g>
<!-- LLE8021&#45;&gt;LLE8293 -->
<!-- LLE8023 -->
<g id="node19" class="node">
<title>LLE8023</title>
<polygon fill="#8dd3c7" stroke="#8dd3c7" points="428.27,-107.62 327.48,-107.62 327.48,-36.38 428.27,-36.38 428.27,-107.62"/>
<text text-anchor="middle" x="377.88" y="-90.33" font-family="Arial" font-size="14.00">LLE8023</text>
<text text-anchor="middle" x="377.88" y="-58.58" font-family="Arial" font-size="14.00">Estudos</text>
<text text-anchor="middle" x="377.88" y="-42.83" font-family="Arial" font-size="14.00">Literários IV</text>
</g>
<!-- LLE8021&#45;&gt;LLE8023 -->
<g id="edge12" class="edge">
<title>LLE8021&#45;&gt;LLE8023</title>
<path fill="none" stroke="#8dd3c7" stroke-width="2" d="M131.22,-497.53C138.18,-497.53 143,-497.53 143,-497.53 143,-497.53 143,-75.46 143,-75.46 143,-75.46 324.7,-75.46 324.7,-75.46"/>
<polygon fill="#8dd3c7" stroke="#8dd3c7" stroke-width="2" points="326.2,-72.96 326.2,-77.96 325.2,-77.96 325.2,-72.96 326.2,-72.96"/>
<polyline fill="none" stroke="#8dd3c7" stroke-width="2" points="326.7,-75.46 324.2,-75.46"/>
</g>
<!-- LLE8221 -->
<g id="node24" class="node">
<title>LLE8221</title>
<polygon fill="#8dd3c7" stroke="#8dd3c7" points="580.77,-710.62 479.98,-710.62 479.98,-639.38 580.77,-639.38 580.77,-710.62"/>
<text text-anchor="middle" x="530.38" y="-693.33" font-family="Arial" font-size="14.00">LLE8221</text>
<text text-anchor="middle" x="530.38" y="-661.58" font-family="Arial" font-size="14.00">Literatura</text>
<text text-anchor="middle" x="530.38" y="-645.83" font-family="Arial" font-size="14.00">Hispânica I</text>
</g>
<!-- LLE8021&#45;&gt;LLE8221 -->
<g id="edge20" class="edge">
<title>LLE8021&#45;&gt;LLE8221</title>
<path fill="none" stroke="#8dd3c7" stroke-width="2" d="M81,-566.97C81,-616.76 81,-700.62 81,-700.62 81,-700.62 477.2,-700.62 477.2,-700.62"/>
<polygon fill="#8dd3c7" stroke="#8dd3c7" stroke-width="2" points="478.7,-698.13 478.7,-703.13 477.7,-703.13 477.7,-698.13 478.7,-698.13"/>
<polyline fill="none" stroke="#8dd3c7" stroke-width="2" points="479.2,-700.63 476.7,-700.63"/>
</g>
<!-- LLE8222 -->
<g id="node30" class="node">
<title>LLE8222</title>
<polygon fill="#8dd3c7" stroke="#8dd3c7" points="733.27,-187.62 632.48,-187.62 632.48,-116.38 733.27,-116.38 733.27,-187.62"/>
<text text-anchor="middle" x="682.88" y="-170.32" font-family="Arial" font-size="14.00">LLE8222</text>
<text text-anchor="middle" x="682.88" y="-138.57" font-family="Arial" font-size="14.00">Literatura</text>
<text text-anchor="middle" x="682.88" y="-122.83" font-family="Arial" font-size="14.00">Hispânica II</text>
</g>
<!-- LLE8021&#45;&gt;LLE8222 -->
<g id="edge25" class="edge">
<title>LLE8021&#45;&gt;LLE8222</title>
<path fill="none" stroke="#8dd3c7" stroke-width="2" d="M130.98,-501.84C144.29,-501.84 155,-501.84 155,-501.84 155,-501.84 155,-119.42 155,-119.42 155,-119.42 629.76,-119.42 629.76,-119.42"/>
<polygon fill="#8dd3c7" stroke="#8dd3c7" stroke-width="2" points="631.26,-116.92 631.26,-121.92 630.26,-121.92 630.26,-116.92 631.26,-116.92"/>
<polyline fill="none" stroke="#8dd3c7" stroke-width="2" points="631.76,-119.42 629.26,-119.42"/>
</g>
<!-- LLE8223 -->
<g id="node34" class="node">
<title>LLE8223</title>
<polygon fill="#8dd3c7" stroke="#8dd3c7" points="882.02,-177.62 781.23,-177.62 781.23,-106.38 882.02,-106.38 882.02,-177.62"/>
<text text-anchor="middle" x="831.62" y="-160.32" font-family="Arial" font-size="14.00">LLE8223</text>
<text text-anchor="middle" x="831.62" y="-128.57" font-family="Arial" font-size="14.00">Literatura</text>
<text text-anchor="middle" x="831.62" y="-112.83" font-family="Arial" font-size="14.00">Hispânica III</text>
</g>
<!-- LLE8021&#45;&gt;LLE8223 -->
<g id="edge32" class="edge">
<title>LLE8021&#45;&gt;LLE8223</title>
<path fill="none" stroke="#8dd3c7" stroke-width="2" d="M130.97,-499.69C141.26,-499.69 149,-499.69 149,-499.69 149,-499.69 149,-109.81 149,-109.81 149,-109.81 778.37,-109.81 778.37,-109.81"/>
<polygon fill="#8dd3c7" stroke="#8dd3c7" stroke-width="2" points="779.87,-107.31 779.87,-112.31 778.87,-112.31 778.87,-107.31 779.87,-107.31"/>
<polyline fill="none" stroke="#8dd3c7" stroke-width="2" points="780.37,-109.81 777.87,-109.81"/>
</g>
<!-- LLE8224 -->
<g id="node37" class="node">
<title>LLE8224</title>
<polygon fill="#8dd3c7" stroke="#8dd3c7" points="1028.9,-370.62 928.1,-370.62 928.1,-299.38 1028.9,-299.38 1028.9,-370.62"/>
<text text-anchor="middle" x="978.5" y="-353.32" font-family="Arial" font-size="14.00">LLE8224</text>
<text text-anchor="middle" x="978.5" y="-321.57" font-family="Arial" font-size="14.00">Literatura</text>
<text text-anchor="middle" x="978.5" y="-305.82" font-family="Arial" font-size="14.00">Hispânica IV</text>
</g>
<!-- LLE8021&#45;&gt;LLE8224 -->
<g id="edge42" class="edge">
<title>LLE8021&#45;&gt;LLE8224</title>
<path fill="none" stroke="#8dd3c7" stroke-width="2" d="M56,-566.9C56,-626.6 56,-739.81 56,-739.81 56,-739.81 912,-739.81 912,-739.81 912,-739.81 912,-352.67 912,-352.67 912,-352.67 925.26,-352.67 925.26,-352.67"/>
<polygon fill="#8dd3c7" stroke="#8dd3c7" stroke-width="2" points="926.76,-350.17 926.76,-355.17 925.76,-355.17 925.76,-350.17 926.76,-350.17"/>
<polyline fill="none" stroke="#8dd3c7" stroke-width="2" points="927.26,-352.67 924.76,-352.67"/>
</g>
<!-- LLE8041 -->
<g id="node9" class="node">
<title>LLE8041</title>
<polygon fill="#8dd3c7" stroke="#8dd3c7" points="130.78,-130.62 29.98,-130.62 29.98,-59.38 130.78,-59.38 130.78,-130.62"/>
<text text-anchor="middle" x="80.38" y="-113.33" font-family="Arial" font-size="14.00">LLE8041</text>
<text text-anchor="middle" x="80.38" y="-81.58" font-family="Arial" font-size="14.00">Estudos</text>
<text text-anchor="middle" x="80.38" y="-65.83" font-family="Arial" font-size="14.00">Linguísticos I</text>
</g>
<!-- LLE8010 -->
<g id="node18" class="node">
<title>LLE8010</title>
<polygon fill="#8dd3c7" stroke="#8dd3c7" points="428.27,-212.5 327.48,-212.5 327.48,-125.5 428.27,-125.5 428.27,-212.5"/>
<text text-anchor="middle" x="377.88" y="-195.2" font-family="Arial" font-size="14.00">LLE8010</text>
<text text-anchor="middle" x="377.88" y="-163.45" font-family="Arial" font-size="14.00">Pesquisa em</text>
<text text-anchor="middle" x="377.88" y="-147.7" font-family="Arial" font-size="14.00">Letras</text>
<text text-anchor="middle" x="377.88" y="-131.95" font-family="Arial" font-size="14.00">Estrangeiras</text>
</g>
<!-- LLE8041&#45;&gt;LLE8010 -->
<g id="edge10" class="edge">
<title>LLE8041&#45;&gt;LLE8010</title>
<path fill="none" stroke="#8dd3c7" stroke-width="2" d="M131.2,-122.46C216.21,-122.46 378,-122.46 378,-122.46 378,-122.46 378,-122.74 378,-122.74"/>
<polygon fill="#8dd3c7" stroke="#8dd3c7" stroke-width="2" points="380.5,-124.23 375.5,-124.23 375.5,-123.23 380.5,-123.23 380.5,-124.23"/>
<polyline fill="none" stroke="#8dd3c7" stroke-width="2" points="378,-124.73 378,-122.23"/>
</g>
<!-- LLE8050 -->
<g id="node10" class="node">
<title>LLE8050</title>
<polygon fill="#8dd3c7" stroke="#8dd3c7" points="130.78,-340.62 29.98,-340.62 29.98,-269.38 130.78,-269.38 130.78,-340.62"/>
<text text-anchor="middle" x="80.38" y="-323.32" font-family="Arial" font-size="14.00">LLE8050</text>
<text text-anchor="middle" x="80.38" y="-291.57" font-family="Arial" font-size="14.00">Linguística</text>
<text text-anchor="middle" x="80.38" y="-275.82" font-family="Arial" font-size="14.00">Aplicada</text>
</g>
<!-- LLE8212 -->
<g id="node11" class="node">
<title>LLE8212</title>
<polygon fill="#8dd3c7" stroke="#8dd3c7" points="136.75,-251.38 24,-251.38 24,-148.62 136.75,-148.62 136.75,-251.38"/>
<text text-anchor="middle" x="80.38" y="-234.07" font-family="Arial" font-size="14.00">LLE8212</text>
<text text-anchor="middle" x="80.38" y="-202.32" font-family="Arial" font-size="14.00">Compreensão e</text>
<text text-anchor="middle" x="80.38" y="-186.57" font-family="Arial" font-size="14.00">Produção Oral</text>
<text text-anchor="middle" x="80.38" y="-170.82" font-family="Arial" font-size="14.00">em Língua</text>
<text text-anchor="middle" x="80.38" y="-155.07" font-family="Arial" font-size="14.00">Espanhola II</text>
</g>
<!-- LLE8212&#45;&gt;LLE8213 -->
<g id="edge8" class="edge">
<title>LLE8212&#45;&gt;LLE8213</title>
<path fill="none" stroke="#8dd3c7" stroke-width="2" d="M137.04,-217.5C137.04,-217.5 170.12,-217.5 170.12,-217.5"/>
<polygon fill="#8dd3c7" stroke="#8dd3c7" stroke-width="2" points="171.62,-215 171.62,-220 170.62,-220 170.62,-215 171.62,-215"/>
<polyline fill="none" stroke="#8dd3c7" stroke-width="2" points="172.12,-217.5 169.62,-217.5"/>
</g>
<!-- LLE8292 -->
<g id="node12" class="node">
<title>LLE8292</title>
<polygon fill="#8dd3c7" stroke="#8dd3c7" points="136.75,-477.25 24,-477.25 24,-358.75 136.75,-358.75 136.75,-477.25"/>
<text text-anchor="middle" x="80.38" y="-459.95" font-family="Arial" font-size="14.00">LLE8292</text>
<text text-anchor="middle" x="80.38" y="-428.2" font-family="Arial" font-size="14.00">Compreensão e</text>
<text text-anchor="middle" x="80.38" y="-412.45" font-family="Arial" font-size="14.00">Produção</text>
<text text-anchor="middle" x="80.38" y="-396.7" font-family="Arial" font-size="14.00">Escrita em</text>
<text text-anchor="middle" x="80.38" y="-380.95" font-family="Arial" font-size="14.00">Língua</text>
<text text-anchor="middle" x="80.38" y="-365.2" font-family="Arial" font-size="14.00">Espanhola II</text>
</g>
<!-- LLE8292&#45;&gt;LLE8293 -->
<g id="edge9" class="edge">
<title>LLE8292&#45;&gt;LLE8293</title>
<path fill="none" stroke="#8dd3c7" stroke-width="2" d="M137.04,-380.25C137.04,-380.25 170.12,-380.25 170.12,-380.25"/>
<polygon fill="#8dd3c7" stroke="#8dd3c7" stroke-width="2" points="171.62,-377.75 171.62,-382.75 170.62,-382.75 170.62,-377.75 171.62,-377.75"/>
<polyline fill="none" stroke="#8dd3c7" stroke-width="2" points="172.12,-380.25 169.62,-380.25"/>
</g>
<!-- LLE8032 -->
<g id="node20" class="node">
<title>LLE8032</title>
<polygon fill="#8dd3c7" stroke="#8dd3c7" points="428.27,-559.62 327.48,-559.62 327.48,-488.38 428.27,-488.38 428.27,-559.62"/>
<text text-anchor="middle" x="377.88" y="-542.33" font-family="Arial" font-size="14.00">LLE8032</text>
<text text-anchor="middle" x="377.88" y="-510.57" font-family="Arial" font-size="14.00">Prática de</text>
<text text-anchor="middle" x="377.88" y="-494.82" font-family="Arial" font-size="14.00">Tradução</text>
</g>
<!-- LLE8031&#45;&gt;LLE8032 -->
<g id="edge13" class="edge">
<title>LLE8031&#45;&gt;LLE8032</title>
<path fill="none" stroke="#8dd3c7" stroke-width="2" d="M279.9,-545C279.9,-545 324.58,-545 324.58,-545"/>
<polygon fill="#8dd3c7" stroke="#8dd3c7" stroke-width="2" points="326.08,-542.5 326.08,-547.5 325.08,-547.5 325.08,-542.5 326.08,-542.5"/>
<polyline fill="none" stroke="#8dd3c7" stroke-width="2" points="326.58,-545 324.08,-545"/>
</g>
<!-- LLE8214 -->
<g id="node21" class="node">
<title>LLE8214</title>
<polygon fill="#8dd3c7" stroke="#8dd3c7" points="434.25,-333.38 321.5,-333.38 321.5,-230.62 434.25,-230.62 434.25,-333.38"/>
<text text-anchor="middle" x="377.88" y="-316.07" font-family="Arial" font-size="14.00">LLE8214</text>
<text text-anchor="middle" x="377.88" y="-284.32" font-family="Arial" font-size="14.00">Compreensão e</text>
<text text-anchor="middle" x="377.88" y="-268.57" font-family="Arial" font-size="14.00">Produção Oral</text>
<text text-anchor="middle" x="377.88" y="-252.82" font-family="Arial" font-size="14.00">em Língua</text>
<text text-anchor="middle" x="377.88" y="-237.07" font-family="Arial" font-size="14.00">Espanhola IV</text>
</g>
<!-- LLE8213&#45;&gt;LLE8214 -->
<g id="edge15" class="edge">
<title>LLE8213&#45;&gt;LLE8214</title>
<path fill="none" stroke="#8dd3c7" stroke-width="2" d="M285.79,-258.5C285.79,-258.5 318.87,-258.5 318.87,-258.5"/>
<polygon fill="#8dd3c7" stroke="#8dd3c7" stroke-width="2" points="320.37,-256 320.37,-261 319.37,-261 319.37,-256 320.37,-256"/>
<polyline fill="none" stroke="#8dd3c7" stroke-width="2" points="320.87,-258.5 318.37,-258.5"/>
</g>
<!-- LLE8293&#45;&gt;LLE8010 -->
<g id="edge11" class="edge">
<title>LLE8293&#45;&gt;LLE8010</title>
<path fill="none" stroke="#8dd3c7" stroke-width="2" d="M285.76,-316.2C294.67,-316.2 301,-316.2 301,-316.2 301,-316.2 301,-193.25 301,-193.25 301,-193.25 324.53,-193.25 324.53,-193.25"/>
<polygon fill="#8dd3c7" stroke="#8dd3c7" stroke-width="2" points="326.03,-190.75 326.03,-195.75 325.03,-195.75 325.03,-190.75 326.03,-190.75"/>
<polyline fill="none" stroke="#8dd3c7" stroke-width="2" points="326.53,-193.25 324.03,-193.25"/>
</g>
<!-- LLE8293&#45;&gt;LLE8010 -->
<!-- LLE8293&#45;&gt;LLE8023 -->
<!-- LLE8293&#45;&gt;LLE8032 -->
<g id="edge14" class="edge">
<title>LLE8293&#45;&gt;LLE8032</title>
<path fill="none" stroke="#8dd3c7" stroke-width="2" d="M285.78,-399.42C300.35,-399.42 312,-399.42 312,-399.42 312,-399.42 312,-504.54 312,-504.54 312,-504.54 324.78,-504.54 324.78,-504.54"/>
<polygon fill="#8dd3c7" stroke="#8dd3c7" stroke-width="2" points="326.28,-502.04 326.28,-507.04 325.28,-507.04 325.28,-502.04 326.28,-502.04"/>
<polyline fill="none" stroke="#8dd3c7" stroke-width="2" points="326.78,-504.54 324.28,-504.54"/>
</g>
<!-- LLE8293&#45;&gt;LLE8032 -->
<!-- LLE8293&#45;&gt;LLE8214 -->
<!-- LLE8294 -->
<g id="node22" class="node">
<title>LLE8294</title>
<polygon fill="#8dd3c7" stroke="#8dd3c7" points="434.25,-470.25 321.5,-470.25 321.5,-351.75 434.25,-351.75 434.25,-470.25"/>
<text text-anchor="middle" x="377.88" y="-452.95" font-family="Arial" font-size="14.00">LLE8294</text>
<text text-anchor="middle" x="377.88" y="-421.2" font-family="Arial" font-size="14.00">Compreensão e</text>
<text text-anchor="middle" x="377.88" y="-405.45" font-family="Arial" font-size="14.00">Produção</text>
<text text-anchor="middle" x="377.88" y="-389.7" font-family="Arial" font-size="14.00">Escrita em</text>
<text text-anchor="middle" x="377.88" y="-373.95" font-family="Arial" font-size="14.00">Língua</text>
<text text-anchor="middle" x="377.88" y="-358.2" font-family="Arial" font-size="14.00">Espanhola IV</text>
</g>
<!-- LLE8293&#45;&gt;LLE8294 -->
<g id="edge16" class="edge">
<title>LLE8293&#45;&gt;LLE8294</title>
<path fill="none" stroke="#8dd3c7" stroke-width="2" d="M285.79,-363.67C285.79,-363.67 318.87,-363.67 318.87,-363.67"/>
<polygon fill="#8dd3c7" stroke="#8dd3c7" stroke-width="2" points="320.37,-361.17 320.37,-366.17 319.37,-366.17 319.37,-361.17 320.37,-361.17"/>
<polyline fill="none" stroke="#8dd3c7" stroke-width="2" points="320.87,-363.67 318.37,-363.67"/>
</g>
<!-- LLE8293&#45;&gt;LLE8294 -->
<!-- LLE8293&#45;&gt;LLE8221 -->
<g id="edge19" class="edge">
<title>LLE8293&#45;&gt;LLE8221</title>
<path fill="none" stroke="#8dd3c7" stroke-width="2" d="M285.72,-411.33C289,-411.33 291,-411.33 291,-411.33 291,-411.33 291,-677.81 291,-677.81 291,-677.81 477.11,-677.81 477.11,-677.81"/>
<polygon fill="#8dd3c7" stroke="#8dd3c7" stroke-width="2" points="478.61,-675.31 478.61,-680.31 477.61,-680.31 477.61,-675.31 478.61,-675.31"/>
<polyline fill="none" stroke="#8dd3c7" stroke-width="2" points="479.11,-677.81 476.61,-677.81"/>
</g>
<!-- LLE8215 -->
<g id="node23" class="node">
<title>LLE8215</title>
<polygon fill="#8dd3c7" stroke="#8dd3c7" points="586.75,-258.38 474,-258.38 474,-155.62 586.75,-155.62 586.75,-258.38"/>
<text text-anchor="middle" x="530.38" y="-241.07" font-family="Arial" font-size="14.00">LLE8215</text>
<text text-anchor="middle" x="530.38" y="-209.32" font-family="Arial" font-size="14.00">Compreensão e</text>
<text text-anchor="middle" x="530.38" y="-193.57" font-family="Arial" font-size="14.00">Produção Oral</text>
<text text-anchor="middle" x="530.38" y="-177.82" font-family="Arial" font-size="14.00">em Língua</text>
<text text-anchor="middle" x="530.38" y="-162.07" font-family="Arial" font-size="14.00">Espanhola V</text>
</g>
<!-- LLE8214&#45;&gt;LLE8215 -->
<g id="edge17" class="edge">
<title>LLE8214&#45;&gt;LLE8215</title>
<path fill="none" stroke="#8dd3c7" stroke-width="2" d="M434.66,-244.5C434.66,-244.5 471.04,-244.5 471.04,-244.5"/>
<polygon fill="#8dd3c7" stroke="#8dd3c7" stroke-width="2" points="472.54,-242 472.54,-247 471.54,-247 471.54,-242 472.54,-242"/>
<polyline fill="none" stroke="#8dd3c7" stroke-width="2" points="473.04,-244.5 470.54,-244.5"/>
</g>
<!-- LLE8214&#45;&gt;LLE8221 -->
<g id="edge18" class="edge">
<title>LLE8214&#45;&gt;LLE8221</title>
<path fill="none" stroke="#8dd3c7" stroke-width="2" d="M434.66,-305.06C448.29,-305.06 459,-305.06 459,-305.06 459,-305.06 459,-652.19 459,-652.19 459,-652.19 477.14,-652.19 477.14,-652.19"/>
<polygon fill="#8dd3c7" stroke="#8dd3c7" stroke-width="2" points="478.64,-649.69 478.64,-654.69 477.64,-654.69 477.64,-649.69 478.64,-649.69"/>
<polyline fill="none" stroke="#8dd3c7" stroke-width="2" points="479.14,-652.19 476.64,-652.19"/>
</g>
<!-- LLE8214&#45;&gt;LLE8222 -->
<g id="edge23" class="edge">
<title>LLE8214&#45;&gt;LLE8222</title>
<path fill="none" stroke="#8dd3c7" stroke-width="2" d="M434.62,-264.5C499.24,-264.5 596,-264.5 596,-264.5 596,-264.5 596,-166.29 596,-166.29 596,-166.29 629.59,-166.29 629.59,-166.29"/>
<polygon fill="#8dd3c7" stroke="#8dd3c7" stroke-width="2" points="631.09,-163.79 631.09,-168.79 630.09,-168.79 630.09,-163.79 631.09,-163.79"/>
<polyline fill="none" stroke="#8dd3c7" stroke-width="2" points="631.59,-166.29 629.09,-166.29"/>
</g>
<!-- LLE8214&#45;&gt;LLE8223 -->
<g id="edge30" class="edge">
<title>LLE8214&#45;&gt;LLE8223</title>
<path fill="none" stroke="#8dd3c7" stroke-width="2" d="M434.49,-237.56C439.66,-237.56 443,-237.56 443,-237.56 443,-237.56 443,-112 443,-112 443,-112 778.32,-112 778.32,-112"/>
<polygon fill="#8dd3c7" stroke="#8dd3c7" stroke-width="2" points="779.82,-109.5 779.82,-114.5 778.82,-114.5 778.82,-109.5 779.82,-109.5"/>
<polyline fill="none" stroke="#8dd3c7" stroke-width="2" points="780.32,-112 777.82,-112"/>
</g>
<!-- LLE8214&#45;&gt;LLE8224 -->
<g id="edge40" class="edge">
<title>LLE8214&#45;&gt;LLE8224</title>
<path fill="none" stroke="#8dd3c7" stroke-width="2" d="M434.47,-270.62C500.57,-270.62 601,-270.62 601,-270.62 601,-270.62 601,-191.62 601,-191.62 601,-191.62 962,-191.62 962,-191.62 962,-191.62 962,-296.69 962,-296.69"/>
<polygon fill="#8dd3c7" stroke="#8dd3c7" stroke-width="2" points="964.5,-298.19 959.5,-298.19 959.5,-297.19 964.5,-297.19 964.5,-298.19"/>
<polyline fill="none" stroke="#8dd3c7" stroke-width="2" points="962,-298.69 962,-296.19"/>
</g>
<!-- LLE8294&#45;&gt;LLE8215 -->
<!-- LLE8294&#45;&gt;LLE8221 -->
<!-- LLE8295 -->
<g id="node25" class="node">
<title>LLE8295</title>
<polygon fill="#8dd3c7" stroke="#8dd3c7" points="586.75,-395.25 474,-395.25 474,-276.75 586.75,-276.75 586.75,-395.25"/>
<text text-anchor="middle" x="530.38" y="-377.95" font-family="Arial" font-size="14.00">LLE8295</text>
<text text-anchor="middle" x="530.38" y="-346.2" font-family="Arial" font-size="14.00">Compreensão e</text>
<text text-anchor="middle" x="530.38" y="-330.45" font-family="Arial" font-size="14.00">Produção</text>
<text text-anchor="middle" x="530.38" y="-314.7" font-family="Arial" font-size="14.00">Escrita em</text>
<text text-anchor="middle" x="530.38" y="-298.95" font-family="Arial" font-size="14.00">Língua</text>
<text text-anchor="middle" x="530.38" y="-283.2" font-family="Arial" font-size="14.00">Espanhola V</text>
</g>
<!-- LLE8294&#45;&gt;LLE8295 -->
<g id="edge21" class="edge">
<title>LLE8294&#45;&gt;LLE8295</title>
<path fill="none" stroke="#8dd3c7" stroke-width="2" d="M434.66,-382.82C434.66,-382.82 471.04,-382.82 471.04,-382.82"/>
<polygon fill="#8dd3c7" stroke="#8dd3c7" stroke-width="2" points="472.54,-380.32 472.54,-385.32 471.54,-385.32 471.54,-380.32 472.54,-380.32"/>
<polyline fill="none" stroke="#8dd3c7" stroke-width="2" points="473.04,-382.82 470.54,-382.82"/>
</g>
<!-- LLE8294&#45;&gt;LLE8295 -->
<!-- MEN5604 -->
<g id="node26" class="node">
<title>MEN5604</title>
<g id="a_node26"><a xlink:title="&#45; Educação escolar como fenômeno histórico&#45;social. Currículo e trabalho pedagógico no contexto escolar. As relações de ensino&#45;aprendizagem em contexto escolar. Mediações pedagógicas e suas relações com o ensino da área específica do curso.">
<polygon fill="#80b1d3" stroke="#80b1d3" points="580.77,-621.62 479.98,-621.62 479.98,-550.38 580.77,-550.38 580.77,-621.62"/>
<text text-anchor="middle" x="530.38" y="-604.33" font-family="Arial" font-size="14.00">MEN5604</text>
<text text-anchor="middle" x="530.38" y="-572.58" font-family="Arial" font-size="14.00">Didática D &#45;</text>
<text text-anchor="middle" x="530.38" y="-556.83" font-family="Arial" font-size="14.00">(PCC 12 h&#45;a)</text>
</a>
</g>
</g>
<!-- LLE8294&#45;&gt;MEN5604 -->
<!-- PSI5137 -->
<g id="node27" class="node">
<title>PSI5137</title>
<g id="a_node27"><a xlink:title="Introdução à Psicologia como ciência: histórico, objetivo e métodos. Interações sociais no contexto educacional e o lugar do professor. Introdução ao estudo do desenvolvimento e de aprendizagem &#45; infância, adolescência, idade adulta. Contribuições da Psicologia na prática escolar cotidiana e na compreensão do fracasso escolar. Prática como componente curricular.">
<polygon fill="#fdb462" stroke="#fdb462" points="590.5,-532.25 470.25,-532.25 470.25,-413.75 590.5,-413.75 590.5,-532.25"/>
<text text-anchor="middle" x="530.38" y="-514.95" font-family="Arial" font-size="14.00">PSI5137</text>
<text text-anchor="middle" x="530.38" y="-483.2" font-family="Arial" font-size="14.00">Psicologia</text>
<text text-anchor="middle" x="530.38" y="-467.45" font-family="Arial" font-size="14.00">Educacional:</text>
<text text-anchor="middle" x="530.38" y="-451.7" font-family="Arial" font-size="14.00">Desenvolvimento</text>
<text text-anchor="middle" x="530.38" y="-435.95" font-family="Arial" font-size="14.00">e Aprendizagem</text>
<text text-anchor="middle" x="530.38" y="-420.2" font-family="Arial" font-size="14.00">(PCC 12h&#45;a)</text>
</a>
</g>
</g>
<!-- LLE8294&#45;&gt;PSI5137 -->
<!-- LLE8294&#45;&gt;LLE8222 -->
<g id="edge24" class="edge">
<title>LLE8294&#45;&gt;LLE8222</title>
<path fill="none" stroke="#8dd3c7" stroke-width="2" d="M434.41,-370.39C444.04,-370.39 451,-370.39 451,-370.39 451,-370.39 451,-140.56 451,-140.56 451,-140.56 629.49,-140.56 629.49,-140.56"/>
<polygon fill="#8dd3c7" stroke="#8dd3c7" stroke-width="2" points="630.99,-138.06 630.99,-143.06 629.99,-143.06 629.99,-138.06 630.99,-138.06"/>
<polyline fill="none" stroke="#8dd3c7" stroke-width="2" points="631.49,-140.56 628.99,-140.56"/>
</g>
<!-- LLE8294&#45;&gt;LLE8223 -->
<g id="edge31" class="edge">
<title>LLE8294&#45;&gt;LLE8223</title>
<path fill="none" stroke="#8dd3c7" stroke-width="2" d="M434.64,-364.18C441.98,-364.18 447,-364.18 447,-364.18 447,-364.18 447,-114.19 447,-114.19 447,-114.19 778.45,-114.19 778.45,-114.19"/>
<polygon fill="#8dd3c7" stroke="#8dd3c7" stroke-width="2" points="779.95,-111.69 779.95,-116.69 778.95,-116.69 778.95,-111.69 779.95,-111.69"/>
<polyline fill="none" stroke="#8dd3c7" stroke-width="2" points="780.45,-114.19 777.95,-114.19"/>
</g>
<!-- LLE8294&#45;&gt;LLE8224 -->
<g id="edge41" class="edge">
<title>LLE8294&#45;&gt;LLE8224</title>
<path fill="none" stroke="#8dd3c7" stroke-width="2" d="M434.6,-357.96C437.35,-357.96 439,-357.96 439,-357.96 439,-357.96 439,-71.38 439,-71.38 439,-71.38 996,-71.38 996,-71.38 996,-71.38 996,-296.4 996,-296.4"/>
<polygon fill="#8dd3c7" stroke="#8dd3c7" stroke-width="2" points="998.5,-297.9 993.5,-297.9 993.5,-296.9 998.5,-296.9 998.5,-297.9"/>
<polyline fill="none" stroke="#8dd3c7" stroke-width="2" points="996,-298.4 996,-295.9"/>
</g>
<!-- LLE8216 -->
<g id="node29" class="node">
<title>LLE8216</title>
<polygon fill="#8dd3c7" stroke="#8dd3c7" points="739.25,-429.38 626.5,-429.38 626.5,-326.62 739.25,-326.62 739.25,-429.38"/>
<text text-anchor="middle" x="682.88" y="-412.07" font-family="Arial" font-size="14.00">LLE8216</text>
<text text-anchor="middle" x="682.88" y="-380.32" font-family="Arial" font-size="14.00">Compreensão e</text>
<text text-anchor="middle" x="682.88" y="-364.57" font-family="Arial" font-size="14.00">Produção Oral</text>
<text text-anchor="middle" x="682.88" y="-348.82" font-family="Arial" font-size="14.00">em Língua</text>
<text text-anchor="middle" x="682.88" y="-333.07" font-family="Arial" font-size="14.00">Espanhola VI</text>
</g>
<!-- LLE8215&#45;&gt;LLE8216 -->
<g id="edge22" class="edge">
<title>LLE8215&#45;&gt;LLE8216</title>
<path fill="none" stroke="#8dd3c7" stroke-width="2" d="M587.1,-240.79C605.84,-240.79 622,-240.79 622,-240.79 622,-240.79 622,-349.5 622,-349.5 622,-349.5 623.88,-349.5 623.88,-349.5"/>
<polygon fill="#8dd3c7" stroke="#8dd3c7" stroke-width="2" points="625.38,-347 625.38,-352 624.38,-352 624.38,-347 625.38,-347"/>
<polyline fill="none" stroke="#8dd3c7" stroke-width="2" points="625.88,-349.5 623.38,-349.5"/>
</g>
<!-- MEN7050 -->
<g id="node32" class="node">
<title>MEN7050</title>
<polygon fill="#80b1d3" stroke="#80b1d3" points="737.38,-308.38 628.38,-308.38 628.38,-205.62 737.38,-205.62 737.38,-308.38"/>
<text text-anchor="middle" x="682.88" y="-291.07" font-family="Arial" font-size="14.00">MEN7050</text>
<text text-anchor="middle" x="682.88" y="-259.32" font-family="Arial" font-size="14.00">Metodologia do</text>
<text text-anchor="middle" x="682.88" y="-243.57" font-family="Arial" font-size="14.00">Ensino de</text>
<text text-anchor="middle" x="682.88" y="-227.82" font-family="Arial" font-size="14.00">Espanhol (PCC</text>
<text text-anchor="middle" x="682.88" y="-212.07" font-family="Arial" font-size="14.00">36h&#45;a)</text>
</g>
<!-- LLE8215&#45;&gt;MEN7050 -->
<g id="edge27" class="edge">
<title>LLE8215&#45;&gt;MEN7050</title>
<path fill="none" stroke="#80b1d3" stroke-width="2" d="M587.16,-223.21C587.16,-223.21 625.57,-223.21 625.57,-223.21"/>
<polygon fill="#80b1d3" stroke="#80b1d3" stroke-width="2" points="627.07,-220.71 627.07,-225.71 626.07,-225.71 626.07,-220.71 627.07,-220.71"/>
<polyline fill="none" stroke="#80b1d3" stroke-width="2" points="627.57,-223.21 625.07,-223.21"/>
</g>
<!-- LLE8296 -->
<g id="node31" class="node">
<title>LLE8296</title>
<polygon fill="#8dd3c7" stroke="#8dd3c7" points="739.25,-566.25 626.5,-566.25 626.5,-447.75 739.25,-447.75 739.25,-566.25"/>
<text text-anchor="middle" x="682.88" y="-548.95" font-family="Arial" font-size="14.00">LLE8296</text>
<text text-anchor="middle" x="682.88" y="-517.2" font-family="Arial" font-size="14.00">Compreensão e</text>
<text text-anchor="middle" x="682.88" y="-501.45" font-family="Arial" font-size="14.00">Produção</text>
<text text-anchor="middle" x="682.88" y="-485.7" font-family="Arial" font-size="14.00">Escrita em</text>
<text text-anchor="middle" x="682.88" y="-469.95" font-family="Arial" font-size="14.00">Língua</text>
<text text-anchor="middle" x="682.88" y="-454.2" font-family="Arial" font-size="14.00">Espanhola VI</text>
</g>
<!-- LLE8295&#45;&gt;LLE8296 -->
<g id="edge26" class="edge">
<title>LLE8295&#45;&gt;LLE8296</title>
<path fill="none" stroke="#8dd3c7" stroke-width="2" d="M587.19,-372.38C603.52,-372.38 617,-372.38 617,-372.38 617,-372.38 617,-475.92 617,-475.92 617,-475.92 623.66,-475.92 623.66,-475.92"/>
<polygon fill="#8dd3c7" stroke="#8dd3c7" stroke-width="2" points="625.16,-473.42 625.16,-478.42 624.16,-478.42 624.16,-473.42 625.16,-473.42"/>
<polyline fill="none" stroke="#8dd3c7" stroke-width="2" points="625.66,-475.92 623.16,-475.92"/>
</g>
<!-- LLE8295&#45;&gt;MEN7050 -->
<g id="edge28" class="edge">
<title>LLE8295&#45;&gt;MEN7050</title>
<path fill="none" stroke="#80b1d3" stroke-width="2" d="M587.16,-287.29C587.16,-287.29 625.57,-287.29 625.57,-287.29"/>
<polygon fill="#80b1d3" stroke="#80b1d3" stroke-width="2" points="627.07,-284.79 627.07,-289.79 626.07,-289.79 626.07,-284.79 627.07,-284.79"/>
<polyline fill="none" stroke="#80b1d3" stroke-width="2" points="627.57,-287.29 625.07,-287.29"/>
</g>
<!-- MEN7051 -->
<g id="node36" class="node">
<title>MEN7051</title>
<polygon fill="#80b1d3" stroke="#80b1d3" points="886.12,-540.5 777.12,-540.5 777.12,-453.5 886.12,-453.5 886.12,-540.5"/>
<text text-anchor="middle" x="831.62" y="-523.2" font-family="Arial" font-size="14.00">MEN7051</text>
<text text-anchor="middle" x="831.62" y="-491.45" font-family="Arial" font-size="14.00">Estágio</text>
<text text-anchor="middle" x="831.62" y="-475.7" font-family="Arial" font-size="14.00">Supervisionado</text>
<text text-anchor="middle" x="831.62" y="-459.95" font-family="Arial" font-size="14.00">I &#45; Espanhol</text>
</g>
<!-- MEN5604&#45;&gt;MEN7051 -->
<g id="edge37" class="edge">
<title>MEN5604&#45;&gt;MEN7051</title>
<path fill="none" stroke="#80b1d3" stroke-width="2" d="M581.26,-575.38C663.13,-575.38 815,-575.38 815,-575.38 815,-575.38 815,-543.27 815,-543.27"/>
<polygon fill="#80b1d3" stroke="#80b1d3" stroke-width="2" points="812.5,-541.77 817.5,-541.77 817.5,-542.77 812.5,-542.77 812.5,-541.77"/>
<polyline fill="none" stroke="#80b1d3" stroke-width="2" points="815,-541.27 815,-543.77"/>
</g>
<!-- EED8007 -->
<g id="node28" class="node">
<title>EED8007</title>
<polygon fill="#ffffb3" stroke="#ffffb3" points="733.27,-671.5 632.48,-671.5 632.48,-584.5 733.27,-584.5 733.27,-671.5"/>
<text text-anchor="middle" x="682.88" y="-654.2" font-family="Arial" font-size="14.00">EED8007</text>
<text text-anchor="middle" x="682.88" y="-622.45" font-family="Arial" font-size="14.00">Organização</text>
<text text-anchor="middle" x="682.88" y="-606.7" font-family="Arial" font-size="14.00">Escolar (PCC</text>
<text text-anchor="middle" x="682.88" y="-590.95" font-family="Arial" font-size="14.00">18h&#45;a)</text>
</g>
<!-- PSI5137&#45;&gt;EED8007 -->
<!-- PSI5137&#45;&gt;LLE8216 -->
<!-- PSI5137&#45;&gt;LLE8222 -->
<!-- PSI5137&#45;&gt;LLE8296 -->
<!-- PSI5137&#45;&gt;MEN7050 -->
<!-- PSI5137&#45;&gt;MEN7051 -->
<g id="edge39" class="edge">
<title>PSI5137&#45;&gt;MEN7051</title>
<path fill="none" stroke="#80b1d3" stroke-width="2" d="M590.69,-441.5C678.71,-441.5 832,-441.5 832,-441.5 832,-441.5 832,-450.77 832,-450.77"/>
<polygon fill="#80b1d3" stroke="#80b1d3" stroke-width="2" points="834.5,-452.27 829.5,-452.27 829.5,-451.27 834.5,-451.27 834.5,-452.27"/>
<polyline fill="none" stroke="#80b1d3" stroke-width="2" points="832,-452.77 832,-450.27"/>
</g>
<!-- EED8007&#45;&gt;MEN7051 -->
<g id="edge34" class="edge">
<title>EED8007&#45;&gt;MEN7051</title>
<path fill="none" stroke="#80b1d3" stroke-width="2" d="M733.62,-590.5C782.47,-590.5 849,-590.5 849,-590.5 849,-590.5 849,-543.24 849,-543.24"/>
<polygon fill="#80b1d3" stroke="#80b1d3" stroke-width="2" points="846.5,-541.74 851.5,-541.74 851.5,-542.74 846.5,-542.74 846.5,-541.74"/>
<polyline fill="none" stroke="#80b1d3" stroke-width="2" points="849,-541.24 849,-543.74"/>
</g>
<!-- LLE8217 -->
<g id="node33" class="node">
<title>LLE8217</title>
<polygon fill="#8dd3c7" stroke="#8dd3c7" points="888,-298.38 775.25,-298.38 775.25,-195.62 888,-195.62 888,-298.38"/>
<text text-anchor="middle" x="831.62" y="-281.07" font-family="Arial" font-size="14.00">LLE8217</text>
<text text-anchor="middle" x="831.62" y="-249.32" font-family="Arial" font-size="14.00">Compreensão e</text>
<text text-anchor="middle" x="831.62" y="-233.57" font-family="Arial" font-size="14.00">Produção Oral</text>
<text text-anchor="middle" x="831.62" y="-217.82" font-family="Arial" font-size="14.00">em Língua</text>
<text text-anchor="middle" x="831.62" y="-202.07" font-family="Arial" font-size="14.00">Espanhola VII</text>
</g>
<!-- LLE8216&#45;&gt;LLE8217 -->
<g id="edge29" class="edge">
<title>LLE8216&#45;&gt;LLE8217</title>
<path fill="none" stroke="#8dd3c7" stroke-width="2" d="M739.47,-352.31C753.69,-352.31 765,-352.31 765,-352.31 765,-352.31 765,-275.19 765,-275.19 765,-275.19 772.33,-275.19 772.33,-275.19"/>
<polygon fill="#8dd3c7" stroke="#8dd3c7" stroke-width="2" points="773.83,-272.69 773.83,-277.69 772.83,-277.69 772.83,-272.69 773.83,-272.69"/>
<polyline fill="none" stroke="#8dd3c7" stroke-width="2" points="774.33,-275.19 771.83,-275.19"/>
</g>
<!-- LLE8216&#45;&gt;MEN7051 -->
<g id="edge35" class="edge">
<title>LLE8216&#45;&gt;MEN7051</title>
<path fill="none" stroke="#80b1d3" stroke-width="2" d="M739.7,-403.69C742.99,-403.69 745,-403.69 745,-403.69 745,-403.69 745,-511.5 745,-511.5 745,-511.5 774.26,-511.5 774.26,-511.5"/>
<polygon fill="#80b1d3" stroke="#80b1d3" stroke-width="2" points="775.76,-509 775.76,-514 774.76,-514 774.76,-509 775.76,-509"/>
<polyline fill="none" stroke="#80b1d3" stroke-width="2" points="776.26,-511.5 773.76,-511.5"/>
</g>
<!-- LLE8297 -->
<g id="node35" class="node">
<title>LLE8297</title>
<polygon fill="#8dd3c7" stroke="#8dd3c7" points="888,-435.25 775.25,-435.25 775.25,-316.75 888,-316.75 888,-435.25"/>
<text text-anchor="middle" x="831.62" y="-417.95" font-family="Arial" font-size="14.00">LLE8297</text>
<text text-anchor="middle" x="831.62" y="-386.2" font-family="Arial" font-size="14.00">Compreensão e</text>
<text text-anchor="middle" x="831.62" y="-370.45" font-family="Arial" font-size="14.00">Produção</text>
<text text-anchor="middle" x="831.62" y="-354.7" font-family="Arial" font-size="14.00">Escrita em</text>
<text text-anchor="middle" x="831.62" y="-338.95" font-family="Arial" font-size="14.00">Língua</text>
<text text-anchor="middle" x="831.62" y="-323.2" font-family="Arial" font-size="14.00">Espanhola VII</text>
</g>
<!-- LLE8296&#45;&gt;LLE8297 -->
<g id="edge33" class="edge">
<title>LLE8296&#45;&gt;LLE8297</title>
<path fill="none" stroke="#8dd3c7" stroke-width="2" d="M739.68,-497C756.73,-497 771,-497 771,-497 771,-497 771,-378 771,-378 771,-378 772.48,-378 772.48,-378"/>
<polygon fill="#8dd3c7" stroke="#8dd3c7" stroke-width="2" points="773.98,-375.5 773.98,-380.5 772.98,-380.5 772.98,-375.5 773.98,-375.5"/>
<polyline fill="none" stroke="#8dd3c7" stroke-width="2" points="774.48,-378 771.98,-378"/>
</g>
<!-- LLE8296&#45;&gt;MEN7051 -->
<g id="edge36" class="edge">
<title>LLE8296&#45;&gt;MEN7051</title>
<path fill="none" stroke="#80b1d3" stroke-width="2" d="M739.54,-526C739.54,-526 774.59,-526 774.59,-526"/>
<polygon fill="#80b1d3" stroke="#80b1d3" stroke-width="2" points="776.09,-523.5 776.09,-528.5 775.09,-528.5 775.09,-523.5 776.09,-523.5"/>
<polyline fill="none" stroke="#80b1d3" stroke-width="2" points="776.59,-526 774.09,-526"/>
</g>
<!-- MEN7050&#45;&gt;LLE8217 -->
<!-- MEN7050&#45;&gt;LLE8223 -->
<!-- MEN7050&#45;&gt;LLE8297 -->
<!-- MEN7050&#45;&gt;MEN7051 -->
<g id="edge38" class="edge">
<title>MEN7050&#45;&gt;MEN7051</title>
<path fill="none" stroke="#80b1d3" stroke-width="2" d="M737.69,-305.38C744.98,-305.38 750,-305.38 750,-305.38 750,-305.38 750,-482.5 750,-482.5 750,-482.5 774.23,-482.5 774.23,-482.5"/>
<polygon fill="#80b1d3" stroke="#80b1d3" stroke-width="2" points="775.73,-480 775.73,-485 774.73,-485 774.73,-480 775.73,-480"/>
<polyline fill="none" stroke="#80b1d3" stroke-width="2" points="776.23,-482.5 773.73,-482.5"/>
</g>
<!-- MEN7050&#45;&gt;MEN7051 -->
<!-- MEN7051&#45;&gt;LLE8224 -->
<!-- LSB7244 -->
<g id="node38" class="node">
<title>LSB7244</title>
<g id="a_node38"><a xlink:title="Prática de conversação em Libras habilitando o aluno a se comunicar nível básico. Mitos e Crenças relacionadas à Língua Brasileira de Sinais (Libras) e aos Surdos. Noções sobre os estudos linguísticos das línguas de sinais em diferentes níveis da descrição linguística. Conceitos básicos da Língua Brasileira de Sinais como iconicidade e arbitrariedade e aspectos culturais e históricos específicos da comunidade surda brasileira. Educação de surdos, papéis dos professores e de intérpretes de libras&#45;português em uma perspectiva inclusiva. Atividades de prática como componente curricular aplicadas à comunicação em Libras.">
<polygon fill="#fb8072" stroke="#fb8072" points="1029.25,-491.38 927.75,-491.38 927.75,-388.62 1029.25,-388.62 1029.25,-491.38"/>
<text text-anchor="middle" x="978.5" y="-474.07" font-family="Arial" font-size="14.00">LSB7244</text>
<text text-anchor="middle" x="978.5" y="-442.32" font-family="Arial" font-size="14.00">Língua</text>
<text text-anchor="middle" x="978.5" y="-426.57" font-family="Arial" font-size="14.00">Brasileira de</text>
<text text-anchor="middle" x="978.5" y="-410.82" font-family="Arial" font-size="14.00">Sinais &#45; Libras</text>
<text text-anchor="middle" x="978.5" y="-395.07" font-family="Arial" font-size="14.00">I (PCC 18h&#45;a)</text>
</a>
</g>
</g>
<!-- MEN7051&#45;&gt;LSB7244 -->
<!-- MEN7052 -->
<g id="node39" class="node">
<title>MEN7052</title>
<g id="a_node39"><a xlink:title="Experiência integral de docência &#45; do planejamento à avaliação &#45; em salas de aula de espanhol em escola básica. Participação em reuniões pedagógicas gerais e Conselhos de Classe. Ministração de aulas. Elaboração de relatório final das atividades.">
<polygon fill="#80b1d3" stroke="#80b1d3" points="1033,-596.5 924,-596.5 924,-509.5 1033,-509.5 1033,-596.5"/>
<text text-anchor="middle" x="978.5" y="-579.2" font-family="Arial" font-size="14.00">MEN7052</text>
<text text-anchor="middle" x="978.5" y="-547.45" font-family="Arial" font-size="14.00">Estágio</text>
<text text-anchor="middle" x="978.5" y="-531.7" font-family="Arial" font-size="14.00">Supervisionado</text>
<text text-anchor="middle" x="978.5" y="-515.95" font-family="Arial" font-size="14.00">II &#45; Espanhol</text>
</a>
</g>
</g>
<!-- MEN7051&#45;&gt;MEN7052 -->
</g>
</svg>
