<?xml version="1.0" encoding="UTF-8" standalone="no"?>
<!DOCTYPE svg PUBLIC "-//W3C//DTD SVG 1.1//EN"
 "http://www.w3.org/Graphics/SVG/1.1/DTD/svg11.dtd">
<!-- Generated by graphviz version 9.0.0 (0)
 -->
<!-- Title: grafo_materias Pages: 1 -->
<svg width="633pt" height="709pt"
 viewBox="0.00 0.00 633.00 709.00" xmlns="http://www.w3.org/2000/svg" xmlns:xlink="http://www.w3.org/1999/xlink">
<g id="graph0" class="graph" transform="scale(1 1) rotate(0) translate(4 705)">
<title>grafo_materias</title>
<polygon fill="none" stroke="none" points="-4,4 -4,-705 629,-705 629,4 -4,4"/>
<g id="clust1" class="cluster">
<title>cluster_everything</title>
<polygon fill="none" stroke="none" points="8,-8 8,-693 617,-693 617,-8 8,-8"/>
</g>
<g id="clust2" class="cluster">
<title>cluster_header</title>
<polygon fill="none" stroke="none" points="24.23,-633 24.23,-685 600.77,-685 600.77,-633 24.23,-633"/>
</g>
<g id="clust3" class="cluster">
<title>cluster_0</title>
<polygon fill="none" stroke="none" points="16,-16 16,-556 149.25,-556 149.25,-16 16,-16"/>
</g>
<g id="clust4" class="cluster">
<title>cluster_1</title>
<polygon fill="none" stroke="none" points="169.25,-88 169.25,-611 302.5,-611 302.5,-88 169.25,-88"/>
</g>
<g id="clust5" class="cluster">
<title>cluster_2</title>
<polygon fill="none" stroke="none" points="322.5,-28 322.5,-551 455.75,-551 455.75,-28 322.5,-28"/>
</g>
<g id="clust6" class="cluster">
<title>cluster_3</title>
<polygon fill="none" stroke="none" points="475.75,-86 475.75,-625 609,-625 609,-86 475.75,-86"/>
</g>
<!-- 1ª Fase -->
<g id="node1" class="node">
<title>1ª Fase</title>
<polygon fill="lightgrey" stroke="black" points="133.03,-677 32.23,-677 32.23,-641 133.03,-641 133.03,-677"/>
<text text-anchor="middle" x="82.62" y="-653.58" font-family="Arial" font-size="14.00">1ª Fase</text>
</g>
<!-- 2ª Fase -->
<g id="node2" class="node">
<title>2ª Fase</title>
<polygon fill="lightgrey" stroke="black" points="286.27,-677 185.47,-677 185.47,-641 286.27,-641 286.27,-677"/>
<text text-anchor="middle" x="235.88" y="-653.58" font-family="Arial" font-size="14.00">2ª Fase</text>
</g>
<!-- 1ª Fase&#45;&gt;2ª Fase -->
<!-- 3ª Fase -->
<g id="node3" class="node">
<title>3ª Fase</title>
<polygon fill="lightgrey" stroke="black" points="439.52,-677 338.73,-677 338.73,-641 439.52,-641 439.52,-677"/>
<text text-anchor="middle" x="389.12" y="-653.58" font-family="Arial" font-size="14.00">3ª Fase</text>
</g>
<!-- 2ª Fase&#45;&gt;3ª Fase -->
<!-- 4ª Fase -->
<g id="node4" class="node">
<title>4ª Fase</title>
<polygon fill="lightgrey" stroke="black" points="592.77,-677 491.98,-677 491.98,-641 592.77,-641 592.77,-677"/>
<text text-anchor="middle" x="542.38" y="-653.58" font-family="Arial" font-size="14.00">4ª Fase</text>
</g>
<!-- 3ª Fase&#45;&gt;4ª Fase -->
<!-- LLE8020 -->
<g id="node5" class="node">
<title>LLE8020</title>
<polygon fill="#8dd3c7" stroke="#8dd3c7" points="133.03,-321.62 32.23,-321.62 32.23,-250.38 133.03,-250.38 133.03,-321.62"/>
<text text-anchor="middle" x="82.62" y="-304.32" font-family="Arial" font-size="14.00">LLE8020</text>
<text text-anchor="middle" x="82.62" y="-272.57" font-family="Arial" font-size="14.00">Estudos</text>
<text text-anchor="middle" x="82.62" y="-256.82" font-family="Arial" font-size="14.00">Literários I</text>
</g>
<!-- LLE8021 -->
<g id="node10" class="node">
<title>LLE8021</title>
<polygon fill="#8dd3c7" stroke="#8dd3c7" points="286.27,-303.62 185.47,-303.62 185.47,-232.38 286.27,-232.38 286.27,-303.62"/>
<text text-anchor="middle" x="235.88" y="-286.32" font-family="Arial" font-size="14.00">LLE8021</text>
<text text-anchor="middle" x="235.88" y="-254.57" font-family="Arial" font-size="14.00">Estudos</text>
<text text-anchor="middle" x="235.88" y="-238.82" font-family="Arial" font-size="14.00">Literários II</text>
</g>
<!-- LLE8020&#45;&gt;LLE8021 -->
<g id="edge4" class="edge">
<title>LLE8020&#45;&gt;LLE8021</title>
<path fill="none" stroke="#8dd3c7" stroke-width="2" d="M133.23,-277C133.23,-277 182.56,-277 182.56,-277"/>
<polygon fill="#8dd3c7" stroke="#8dd3c7" stroke-width="2" points="184.06,-274.5 184.06,-279.5 183.06,-279.5 183.06,-274.5 184.06,-274.5"/>
<polyline fill="none" stroke="#8dd3c7" stroke-width="2" points="184.56,-277 182.06,-277"/>
</g>
<!-- LLE8020&#45;&gt;LLE8021 -->
<!-- LLE8041 -->
<g id="node11" class="node">
<title>LLE8041</title>
<polygon fill="#8dd3c7" stroke="#8dd3c7" points="286.27,-602.62 185.47,-602.62 185.47,-531.38 286.27,-531.38 286.27,-602.62"/>
<text text-anchor="middle" x="235.88" y="-585.33" font-family="Arial" font-size="14.00">LLE8041</text>
<text text-anchor="middle" x="235.88" y="-553.58" font-family="Arial" font-size="14.00">Estudos</text>
<text text-anchor="middle" x="235.88" y="-537.83" font-family="Arial" font-size="14.00">Linguísticos I</text>
</g>
<!-- LLE8020&#45;&gt;LLE8041 -->
<!-- LLE8050 -->
<g id="node12" class="node">
<title>LLE8050</title>
<polygon fill="#8dd3c7" stroke="#8dd3c7" points="286.27,-513.62 185.47,-513.62 185.47,-442.38 286.27,-442.38 286.27,-513.62"/>
<text text-anchor="middle" x="235.88" y="-496.32" font-family="Arial" font-size="14.00">LLE8050</text>
<text text-anchor="middle" x="235.88" y="-464.57" font-family="Arial" font-size="14.00">Linguística</text>
<text text-anchor="middle" x="235.88" y="-448.82" font-family="Arial" font-size="14.00">Aplicada</text>
</g>
<!-- LLE8020&#45;&gt;LLE8050 -->
<!-- LLE8312 -->
<g id="node13" class="node">
<title>LLE8312</title>
<polygon fill="#8dd3c7" stroke="#8dd3c7" points="292.25,-424.38 179.5,-424.38 179.5,-321.62 292.25,-321.62 292.25,-424.38"/>
<text text-anchor="middle" x="235.88" y="-407.07" font-family="Arial" font-size="14.00">LLE8312</text>
<text text-anchor="middle" x="235.88" y="-375.32" font-family="Arial" font-size="14.00">Compreensão e</text>
<text text-anchor="middle" x="235.88" y="-359.57" font-family="Arial" font-size="14.00">Produção Oral</text>
<text text-anchor="middle" x="235.88" y="-343.82" font-family="Arial" font-size="14.00">em Língua</text>
<text text-anchor="middle" x="235.88" y="-328.07" font-family="Arial" font-size="14.00">Francesa II</text>
</g>
<!-- LLE8020&#45;&gt;LLE8312 -->
<!-- LLE8392 -->
<g id="node14" class="node">
<title>LLE8392</title>
<polygon fill="#8dd3c7" stroke="#8dd3c7" points="294.5,-214.25 177.25,-214.25 177.25,-95.75 294.5,-95.75 294.5,-214.25"/>
<text text-anchor="middle" x="235.88" y="-196.95" font-family="Arial" font-size="14.00">LLE8392</text>
<text text-anchor="middle" x="235.88" y="-165.2" font-family="Arial" font-size="14.00">Compreensão e</text>
<text text-anchor="middle" x="235.88" y="-149.45" font-family="Arial" font-size="14.00">Produção</text>
<text text-anchor="middle" x="235.88" y="-133.7" font-family="Arial" font-size="14.00">Escrita em</text>
<text text-anchor="middle" x="235.88" y="-117.95" font-family="Arial" font-size="14.00">Língua Francesa</text>
<text text-anchor="middle" x="235.88" y="-102.2" font-family="Arial" font-size="14.00">II</text>
</g>
<!-- LLE8020&#45;&gt;LLE8392 -->
<!-- LLE8022 -->
<g id="node15" class="node">
<title>LLE8022</title>
<polygon fill="#8dd3c7" stroke="#8dd3c7" points="439.52,-285.62 338.73,-285.62 338.73,-214.38 439.52,-214.38 439.52,-285.62"/>
<text text-anchor="middle" x="389.12" y="-268.32" font-family="Arial" font-size="14.00">LLE8022</text>
<text text-anchor="middle" x="389.12" y="-236.57" font-family="Arial" font-size="14.00">Estudos</text>
<text text-anchor="middle" x="389.12" y="-220.82" font-family="Arial" font-size="14.00">Literários III</text>
</g>
<!-- LLE8020&#45;&gt;LLE8022 -->
<g id="edge9" class="edge">
<title>LLE8020&#45;&gt;LLE8022</title>
<path fill="none" stroke="#8dd3c7" stroke-width="2" d="M133.26,-307.32C199.44,-307.32 307,-307.32 307,-307.32 307,-307.32 307,-267.88 307,-267.88 307,-267.88 336.02,-267.88 336.02,-267.88"/>
<polygon fill="#8dd3c7" stroke="#8dd3c7" stroke-width="2" points="337.52,-265.38 337.52,-270.38 336.52,-270.38 336.52,-265.38 337.52,-265.38"/>
<polyline fill="none" stroke="#8dd3c7" stroke-width="2" points="338.02,-267.88 335.52,-267.88"/>
</g>
<!-- LLE8023 -->
<g id="node21" class="node">
<title>LLE8023</title>
<polygon fill="#8dd3c7" stroke="#8dd3c7" points="592.77,-301.62 491.98,-301.62 491.98,-230.38 592.77,-230.38 592.77,-301.62"/>
<text text-anchor="middle" x="542.38" y="-284.32" font-family="Arial" font-size="14.00">LLE8023</text>
<text text-anchor="middle" x="542.38" y="-252.57" font-family="Arial" font-size="14.00">Estudos</text>
<text text-anchor="middle" x="542.38" y="-236.82" font-family="Arial" font-size="14.00">Literários IV</text>
</g>
<!-- LLE8020&#45;&gt;LLE8023 -->
<g id="edge17" class="edge">
<title>LLE8020&#45;&gt;LLE8023</title>
<path fill="none" stroke="#8dd3c7" stroke-width="2" d="M133.47,-310.9C201.31,-310.9 313,-310.9 313,-310.9 313,-310.9 313,-293.62 313,-293.62 313,-293.62 489.25,-293.62 489.25,-293.62"/>
<polygon fill="#8dd3c7" stroke="#8dd3c7" stroke-width="2" points="490.75,-291.13 490.75,-296.13 489.75,-296.13 489.75,-291.13 490.75,-291.13"/>
<polyline fill="none" stroke="#8dd3c7" stroke-width="2" points="491.25,-293.63 488.75,-293.63"/>
</g>
<!-- LLE8030 -->
<g id="node6" class="node">
<title>LLE8030</title>
<polygon fill="#8dd3c7" stroke="#8dd3c7" points="133.03,-95.62 32.23,-95.62 32.23,-24.38 133.03,-24.38 133.03,-95.62"/>
<text text-anchor="middle" x="82.62" y="-78.33" font-family="Arial" font-size="14.00">LLE8030</text>
<text text-anchor="middle" x="82.62" y="-46.58" font-family="Arial" font-size="14.00">História da</text>
<text text-anchor="middle" x="82.62" y="-30.82" font-family="Arial" font-size="14.00">Tradução</text>
</g>
<!-- LLE8031 -->
<g id="node16" class="node">
<title>LLE8031</title>
<polygon fill="#8dd3c7" stroke="#8dd3c7" points="439.52,-107.62 338.73,-107.62 338.73,-36.38 439.52,-36.38 439.52,-107.62"/>
<text text-anchor="middle" x="389.12" y="-90.33" font-family="Arial" font-size="14.00">LLE8031</text>
<text text-anchor="middle" x="389.12" y="-58.58" font-family="Arial" font-size="14.00">Teorias da</text>
<text text-anchor="middle" x="389.12" y="-42.83" font-family="Arial" font-size="14.00">Tradução</text>
</g>
<!-- LLE8030&#45;&gt;LLE8031 -->
<g id="edge11" class="edge">
<title>LLE8030&#45;&gt;LLE8031</title>
<path fill="none" stroke="#8dd3c7" stroke-width="2" d="M133.24,-66C133.24,-66 335.94,-66 335.94,-66"/>
<polygon fill="#8dd3c7" stroke="#8dd3c7" stroke-width="2" points="337.44,-63.5 337.44,-68.5 336.44,-68.5 336.44,-63.5 337.44,-63.5"/>
<polyline fill="none" stroke="#8dd3c7" stroke-width="2" points="337.94,-66 335.44,-66"/>
</g>
<!-- LLE8040 -->
<g id="node7" class="node">
<title>LLE8040</title>
<polygon fill="#8dd3c7" stroke="#8dd3c7" points="135.25,-547.5 30,-547.5 30,-460.5 135.25,-460.5 135.25,-547.5"/>
<text text-anchor="middle" x="82.62" y="-530.2" font-family="Arial" font-size="14.00">LLE8040</text>
<text text-anchor="middle" x="82.62" y="-498.45" font-family="Arial" font-size="14.00">Introdução aos</text>
<text text-anchor="middle" x="82.62" y="-482.7" font-family="Arial" font-size="14.00">Estudos da</text>
<text text-anchor="middle" x="82.62" y="-466.95" font-family="Arial" font-size="14.00">Linguagem</text>
</g>
<!-- LLE8040&#45;&gt;LLE8041 -->
<g id="edge5" class="edge">
<title>LLE8040&#45;&gt;LLE8041</title>
<path fill="none" stroke="#8dd3c7" stroke-width="2" d="M135.36,-542.12C135.36,-542.12 182.61,-542.12 182.61,-542.12"/>
<polygon fill="#8dd3c7" stroke="#8dd3c7" stroke-width="2" points="184.11,-539.63 184.11,-544.63 183.11,-544.63 183.11,-539.63 184.11,-539.63"/>
<polyline fill="none" stroke="#8dd3c7" stroke-width="2" points="184.61,-542.13 182.11,-542.13"/>
</g>
<!-- LLE8042 -->
<g id="node17" class="node">
<title>LLE8042</title>
<polygon fill="#8dd3c7" stroke="#8dd3c7" points="439.52,-196.62 338.73,-196.62 338.73,-125.38 439.52,-125.38 439.52,-196.62"/>
<text text-anchor="middle" x="389.12" y="-179.32" font-family="Arial" font-size="14.00">LLE8042</text>
<text text-anchor="middle" x="389.12" y="-147.57" font-family="Arial" font-size="14.00">Estudos</text>
<text text-anchor="middle" x="389.12" y="-131.82" font-family="Arial" font-size="14.00">Linguísticos II</text>
</g>
<!-- LLE8040&#45;&gt;LLE8042 -->
<g id="edge12" class="edge">
<title>LLE8040&#45;&gt;LLE8042</title>
<path fill="none" stroke="#8dd3c7" stroke-width="2" d="M135.49,-522.5C200.12,-522.5 301,-522.5 301,-522.5 301,-522.5 301,-172.88 301,-172.88 301,-172.88 335.87,-172.88 335.87,-172.88"/>
<polygon fill="#8dd3c7" stroke="#8dd3c7" stroke-width="2" points="337.37,-170.38 337.37,-175.38 336.37,-175.38 336.37,-170.38 337.37,-170.38"/>
<polyline fill="none" stroke="#8dd3c7" stroke-width="2" points="337.87,-172.88 335.37,-172.88"/>
</g>
<!-- LLE8010 -->
<g id="node20" class="node">
<title>LLE8010</title>
<polygon fill="#8dd3c7" stroke="#8dd3c7" points="592.77,-616.5 491.98,-616.5 491.98,-529.5 592.77,-529.5 592.77,-616.5"/>
<text text-anchor="middle" x="542.38" y="-599.2" font-family="Arial" font-size="14.00">LLE8010</text>
<text text-anchor="middle" x="542.38" y="-567.45" font-family="Arial" font-size="14.00">Pesquisa em</text>
<text text-anchor="middle" x="542.38" y="-551.7" font-family="Arial" font-size="14.00">Letras</text>
<text text-anchor="middle" x="542.38" y="-535.95" font-family="Arial" font-size="14.00">Estrangeiras</text>
</g>
<!-- LLE8040&#45;&gt;LLE8010 -->
<g id="edge15" class="edge">
<title>LLE8040&#45;&gt;LLE8010</title>
<path fill="none" stroke="#8dd3c7" stroke-width="2" d="M83,-547.85C83,-576.85 83,-609.56 83,-609.56 83,-609.56 489.4,-609.56 489.4,-609.56"/>
<polygon fill="#8dd3c7" stroke="#8dd3c7" stroke-width="2" points="490.9,-607.06 490.9,-612.06 489.9,-612.06 489.9,-607.06 490.9,-607.06"/>
<polyline fill="none" stroke="#8dd3c7" stroke-width="2" points="491.4,-609.56 488.9,-609.56"/>
</g>
<!-- LLE8311 -->
<g id="node8" class="node">
<title>LLE8311</title>
<polygon fill="#8dd3c7" stroke="#8dd3c7" points="139,-442.38 26.25,-442.38 26.25,-339.62 139,-339.62 139,-442.38"/>
<text text-anchor="middle" x="82.62" y="-425.07" font-family="Arial" font-size="14.00">LLE8311</text>
<text text-anchor="middle" x="82.62" y="-393.32" font-family="Arial" font-size="14.00">Compreensão e</text>
<text text-anchor="middle" x="82.62" y="-377.57" font-family="Arial" font-size="14.00">Produção Oral</text>
<text text-anchor="middle" x="82.62" y="-361.82" font-family="Arial" font-size="14.00">em Língua</text>
<text text-anchor="middle" x="82.62" y="-346.07" font-family="Arial" font-size="14.00">Francesa I</text>
</g>
<!-- LLE8311&#45;&gt;LLE8050 -->
<g id="edge6" class="edge">
<title>LLE8311&#45;&gt;LLE8050</title>
<path fill="none" stroke="#8dd3c7" stroke-width="2" d="M139.3,-432.5C182.99,-432.5 236,-432.5 236,-432.5 236,-432.5 236,-439.65 236,-439.65"/>
<polygon fill="#8dd3c7" stroke="#8dd3c7" stroke-width="2" points="238.5,-441.15 233.5,-441.15 233.5,-440.15 238.5,-440.15 238.5,-441.15"/>
<polyline fill="none" stroke="#8dd3c7" stroke-width="2" points="236,-441.65 236,-439.15"/>
</g>
<!-- LLE8311&#45;&gt;LLE8312 -->
<g id="edge7" class="edge">
<title>LLE8311&#45;&gt;LLE8312</title>
<path fill="none" stroke="#8dd3c7" stroke-width="2" d="M139.25,-382C139.25,-382 176.72,-382 176.72,-382"/>
<polygon fill="#8dd3c7" stroke="#8dd3c7" stroke-width="2" points="178.22,-379.5 178.22,-384.5 177.22,-384.5 177.22,-379.5 178.22,-379.5"/>
<polyline fill="none" stroke="#8dd3c7" stroke-width="2" points="178.72,-382 176.22,-382"/>
</g>
<!-- LLE8391 -->
<g id="node9" class="node">
<title>LLE8391</title>
<polygon fill="#8dd3c7" stroke="#8dd3c7" points="141.25,-232.25 24,-232.25 24,-113.75 141.25,-113.75 141.25,-232.25"/>
<text text-anchor="middle" x="82.62" y="-214.95" font-family="Arial" font-size="14.00">LLE8391</text>
<text text-anchor="middle" x="82.62" y="-183.2" font-family="Arial" font-size="14.00">Compreensão e</text>
<text text-anchor="middle" x="82.62" y="-167.45" font-family="Arial" font-size="14.00">Produção</text>
<text text-anchor="middle" x="82.62" y="-151.7" font-family="Arial" font-size="14.00">Escrita em</text>
<text text-anchor="middle" x="82.62" y="-135.95" font-family="Arial" font-size="14.00">Língua Francesa</text>
<text text-anchor="middle" x="82.62" y="-120.2" font-family="Arial" font-size="14.00">I</text>
</g>
<!-- LLE8391&#45;&gt;LLE8392 -->
<g id="edge8" class="edge">
<title>LLE8391&#45;&gt;LLE8392</title>
<path fill="none" stroke="#8dd3c7" stroke-width="2" d="M141.44,-147.25C141.44,-147.25 174.47,-147.25 174.47,-147.25"/>
<polygon fill="#8dd3c7" stroke="#8dd3c7" stroke-width="2" points="175.97,-144.75 175.97,-149.75 174.97,-149.75 174.97,-144.75 175.97,-144.75"/>
<polyline fill="none" stroke="#8dd3c7" stroke-width="2" points="176.47,-147.25 173.97,-147.25"/>
</g>
<!-- LLE8021&#45;&gt;LLE8022 -->
<g id="edge10" class="edge">
<title>LLE8021&#45;&gt;LLE8022</title>
<path fill="none" stroke="#8dd3c7" stroke-width="2" d="M286.48,-250.12C286.48,-250.12 335.81,-250.12 335.81,-250.12"/>
<polygon fill="#8dd3c7" stroke="#8dd3c7" stroke-width="2" points="337.31,-247.63 337.31,-252.63 336.31,-252.63 336.31,-247.63 337.31,-247.63"/>
<polyline fill="none" stroke="#8dd3c7" stroke-width="2" points="337.81,-250.13 335.31,-250.13"/>
</g>
<!-- LLE8021&#45;&gt;LLE8023 -->
<g id="edge18" class="edge">
<title>LLE8021&#45;&gt;LLE8023</title>
<path fill="none" stroke="#8dd3c7" stroke-width="2" d="M286.49,-289.62C286.49,-289.62 489.19,-289.62 489.19,-289.62"/>
<polygon fill="#8dd3c7" stroke="#8dd3c7" stroke-width="2" points="490.69,-287.13 490.69,-292.13 489.69,-292.13 489.69,-287.13 490.69,-287.13"/>
<polyline fill="none" stroke="#8dd3c7" stroke-width="2" points="491.19,-289.63 488.69,-289.63"/>
</g>
<!-- LLE8041&#45;&gt;LLE8010 -->
<g id="edge16" class="edge">
<title>LLE8041&#45;&gt;LLE8010</title>
<path fill="none" stroke="#8dd3c7" stroke-width="2" d="M286.49,-573C286.49,-573 489.19,-573 489.19,-573"/>
<polygon fill="#8dd3c7" stroke="#8dd3c7" stroke-width="2" points="490.69,-570.5 490.69,-575.5 489.69,-575.5 489.69,-570.5 490.69,-570.5"/>
<polyline fill="none" stroke="#8dd3c7" stroke-width="2" points="491.19,-573 488.69,-573"/>
</g>
<!-- LLE8313 -->
<g id="node18" class="node">
<title>LLE8313</title>
<polygon fill="#8dd3c7" stroke="#8dd3c7" points="445.5,-543.38 332.75,-543.38 332.75,-440.62 445.5,-440.62 445.5,-543.38"/>
<text text-anchor="middle" x="389.12" y="-526.08" font-family="Arial" font-size="14.00">LLE8313</text>
<text text-anchor="middle" x="389.12" y="-494.32" font-family="Arial" font-size="14.00">Compreensão e</text>
<text text-anchor="middle" x="389.12" y="-478.57" font-family="Arial" font-size="14.00">Produção Oral</text>
<text text-anchor="middle" x="389.12" y="-462.82" font-family="Arial" font-size="14.00">em Língua</text>
<text text-anchor="middle" x="389.12" y="-447.07" font-family="Arial" font-size="14.00">Francesa III</text>
</g>
<!-- LLE8312&#45;&gt;LLE8313 -->
<g id="edge13" class="edge">
<title>LLE8312&#45;&gt;LLE8313</title>
<path fill="none" stroke="#8dd3c7" stroke-width="2" d="M292.7,-371.94C307.31,-371.94 319,-371.94 319,-371.94 319,-371.94 319,-489.88 319,-489.88 319,-489.88 330.02,-489.88 330.02,-489.88"/>
<polygon fill="#8dd3c7" stroke="#8dd3c7" stroke-width="2" points="331.52,-487.38 331.52,-492.38 330.52,-492.38 330.52,-487.38 331.52,-487.38"/>
<polyline fill="none" stroke="#8dd3c7" stroke-width="2" points="332.02,-489.88 329.52,-489.88"/>
</g>
<!-- LLE8392&#45;&gt;LLE8022 -->
<!-- LLE8392&#45;&gt;LLE8031 -->
<!-- LLE8392&#45;&gt;LLE8042 -->
<!-- LLE8392&#45;&gt;LLE8313 -->
<!-- LLE8393 -->
<g id="node19" class="node">
<title>LLE8393</title>
<polygon fill="#8dd3c7" stroke="#8dd3c7" points="447.75,-422.25 330.5,-422.25 330.5,-303.75 447.75,-303.75 447.75,-422.25"/>
<text text-anchor="middle" x="389.12" y="-404.95" font-family="Arial" font-size="14.00">LLE8393</text>
<text text-anchor="middle" x="389.12" y="-373.2" font-family="Arial" font-size="14.00">Compreensão e</text>
<text text-anchor="middle" x="389.12" y="-357.45" font-family="Arial" font-size="14.00">Produção</text>
<text text-anchor="middle" x="389.12" y="-341.7" font-family="Arial" font-size="14.00">Escrita em</text>
<text text-anchor="middle" x="389.12" y="-325.95" font-family="Arial" font-size="14.00">Língua Francesa</text>
<text text-anchor="middle" x="389.12" y="-310.2" font-family="Arial" font-size="14.00">III</text>
</g>
<!-- LLE8392&#45;&gt;LLE8393 -->
<g id="edge14" class="edge">
<title>LLE8392&#45;&gt;LLE8393</title>
<path fill="none" stroke="#8dd3c7" stroke-width="2" d="M294.94,-209.65C315.72,-209.65 334,-209.65 334,-209.65 334,-209.65 334,-300.77 334,-300.77"/>
<polygon fill="#8dd3c7" stroke="#8dd3c7" stroke-width="2" points="336.5,-302.27 331.5,-302.27 331.5,-301.27 336.5,-301.27 336.5,-302.27"/>
<polyline fill="none" stroke="#8dd3c7" stroke-width="2" points="334,-302.77 334,-300.27"/>
</g>
<!-- LLE8392&#45;&gt;LLE8393 -->
<!-- LLE8314 -->
<g id="node23" class="node">
<title>LLE8314</title>
<polygon fill="#8dd3c7" stroke="#8dd3c7" points="598.75,-511.38 486,-511.38 486,-408.62 598.75,-408.62 598.75,-511.38"/>
<text text-anchor="middle" x="542.38" y="-494.07" font-family="Arial" font-size="14.00">LLE8314</text>
<text text-anchor="middle" x="542.38" y="-462.32" font-family="Arial" font-size="14.00">Compreensão e</text>
<text text-anchor="middle" x="542.38" y="-446.57" font-family="Arial" font-size="14.00">Produção Oral</text>
<text text-anchor="middle" x="542.38" y="-430.82" font-family="Arial" font-size="14.00">em Língua</text>
<text text-anchor="middle" x="542.38" y="-415.07" font-family="Arial" font-size="14.00">Francesa IV</text>
</g>
<!-- LLE8313&#45;&gt;LLE8314 -->
<g id="edge19" class="edge">
<title>LLE8313&#45;&gt;LLE8314</title>
<path fill="none" stroke="#8dd3c7" stroke-width="2" d="M445.75,-476C445.75,-476 483.22,-476 483.22,-476"/>
<polygon fill="#8dd3c7" stroke="#8dd3c7" stroke-width="2" points="484.72,-473.5 484.72,-478.5 483.72,-478.5 483.72,-473.5 484.72,-473.5"/>
<polyline fill="none" stroke="#8dd3c7" stroke-width="2" points="485.22,-476 482.72,-476"/>
</g>
<!-- LLE8393&#45;&gt;LLE8010 -->
<!-- LLE8393&#45;&gt;LLE8023 -->
<!-- LLE8032 -->
<g id="node22" class="node">
<title>LLE8032</title>
<polygon fill="#8dd3c7" stroke="#8dd3c7" points="592.77,-390.62 491.98,-390.62 491.98,-319.38 592.77,-319.38 592.77,-390.62"/>
<text text-anchor="middle" x="542.38" y="-373.32" font-family="Arial" font-size="14.00">LLE8032</text>
<text text-anchor="middle" x="542.38" y="-341.57" font-family="Arial" font-size="14.00">Prática de</text>
<text text-anchor="middle" x="542.38" y="-325.82" font-family="Arial" font-size="14.00">Tradução</text>
</g>
<!-- LLE8393&#45;&gt;LLE8032 -->
<!-- LLE8393&#45;&gt;LLE8314 -->
<!-- LLE8394 -->
<g id="node24" class="node">
<title>LLE8394</title>
<polygon fill="#8dd3c7" stroke="#8dd3c7" points="601,-212.25 483.75,-212.25 483.75,-93.75 601,-93.75 601,-212.25"/>
<text text-anchor="middle" x="542.38" y="-194.95" font-family="Arial" font-size="14.00">LLE8394</text>
<text text-anchor="middle" x="542.38" y="-163.2" font-family="Arial" font-size="14.00">Compreensão e</text>
<text text-anchor="middle" x="542.38" y="-147.45" font-family="Arial" font-size="14.00">Produção</text>
<text text-anchor="middle" x="542.38" y="-131.7" font-family="Arial" font-size="14.00">Escrita em</text>
<text text-anchor="middle" x="542.38" y="-115.95" font-family="Arial" font-size="14.00">Língua Francesa</text>
<text text-anchor="middle" x="542.38" y="-100.2" font-family="Arial" font-size="14.00">IV</text>
</g>
<!-- LLE8393&#45;&gt;LLE8394 -->
</g>
</svg>
