<?xml version="1.0" encoding="UTF-8" standalone="no"?>
<!DOCTYPE svg PUBLIC "-//W3C//DTD SVG 1.1//EN"
 "http://www.w3.org/Graphics/SVG/1.1/DTD/svg11.dtd">
<!-- Generated by graphviz version 9.0.0 (0)
 -->
<!-- Title: grafo_materias Pages: 1 -->
<svg width="1232pt" height="657pt"
 viewBox="0.00 0.00 1231.75 657.00" xmlns="http://www.w3.org/2000/svg" xmlns:xlink="http://www.w3.org/1999/xlink">
<g id="graph0" class="graph" transform="scale(1 1) rotate(0) translate(4 653)">
<title>grafo_materias</title>
<polygon fill="none" stroke="none" points="-4,4 -4,-653 1227.75,-653 1227.75,4 -4,4"/>
<g id="clust1" class="cluster">
<title>cluster_everything</title>
<polygon fill="none" stroke="none" points="8,-8 8,-641 1215.75,-641 1215.75,-8 8,-8"/>
</g>
<g id="clust2" class="cluster">
<title>cluster_header</title>
<polygon fill="none" stroke="none" points="24.22,-581 24.22,-633 1206.65,-633 1206.65,-581 24.22,-581"/>
</g>
<g id="clust3" class="cluster">
<title>cluster_0</title>
<polygon fill="none" stroke="none" points="16,-16 16,-556 149.25,-556 149.25,-16 16,-16"/>
</g>
<g id="clust4" class="cluster">
<title>cluster_1</title>
<polygon fill="none" stroke="none" points="169.25,-50 169.25,-573 302.5,-573 302.5,-50 169.25,-50"/>
</g>
<g id="clust5" class="cluster">
<title>cluster_2</title>
<polygon fill="none" stroke="none" points="322.5,-16 322.5,-539 455.75,-539 455.75,-16 322.5,-16"/>
</g>
<g id="clust6" class="cluster">
<title>cluster_3</title>
<polygon fill="none" stroke="none" points="475.75,-16 475.75,-556 609,-556 609,-16 475.75,-16"/>
</g>
<g id="clust7" class="cluster">
<title>cluster_4</title>
<polygon fill="none" stroke="none" points="629,-92 629,-436 762.25,-436 762.25,-92 629,-92"/>
</g>
<g id="clust8" class="cluster">
<title>cluster_5</title>
<polygon fill="none" stroke="none" points="782.25,-92 782.25,-436 915.5,-436 915.5,-92 782.25,-92"/>
</g>
<g id="clust9" class="cluster">
<title>cluster_6</title>
<polygon fill="none" stroke="none" points="935.5,-92 935.5,-573 1068.75,-573 1068.75,-92 935.5,-92"/>
</g>
<g id="clust10" class="cluster">
<title>cluster_7</title>
<polygon fill="none" stroke="none" points="1088.75,-245 1088.75,-573 1207.75,-573 1207.75,-245 1088.75,-245"/>
</g>
<!-- 1ª fase -->
<g id="node1" class="node">
<title>1ª fase</title>
<polygon fill="lightgrey" stroke="black" points="133.03,-625 32.23,-625 32.23,-589 133.03,-589 133.03,-625"/>
<text text-anchor="middle" x="82.62" y="-601.58" font-family="Arial" font-size="14.00">1ª fase</text>
</g>
<!-- 2ª fase -->
<g id="node2" class="node">
<title>2ª fase</title>
<polygon fill="lightgrey" stroke="black" points="286.27,-625 185.47,-625 185.47,-589 286.27,-589 286.27,-625"/>
<text text-anchor="middle" x="235.88" y="-601.58" font-family="Arial" font-size="14.00">2ª fase</text>
</g>
<!-- 1ª fase&#45;&gt;2ª fase -->
<!-- 3ª fase -->
<g id="node3" class="node">
<title>3ª fase</title>
<polygon fill="lightgrey" stroke="black" points="439.52,-625 338.73,-625 338.73,-589 439.52,-589 439.52,-625"/>
<text text-anchor="middle" x="389.12" y="-601.58" font-family="Arial" font-size="14.00">3ª fase</text>
</g>
<!-- 2ª fase&#45;&gt;3ª fase -->
<!-- 4ª fase -->
<g id="node4" class="node">
<title>4ª fase</title>
<polygon fill="lightgrey" stroke="black" points="592.77,-625 491.98,-625 491.98,-589 592.77,-589 592.77,-625"/>
<text text-anchor="middle" x="542.38" y="-601.58" font-family="Arial" font-size="14.00">4ª fase</text>
</g>
<!-- 3ª fase&#45;&gt;4ª fase -->
<!-- 5ª fase -->
<g id="node5" class="node">
<title>5ª fase</title>
<polygon fill="lightgrey" stroke="black" points="746.02,-625 645.23,-625 645.23,-589 746.02,-589 746.02,-625"/>
<text text-anchor="middle" x="695.62" y="-601.58" font-family="Arial" font-size="14.00">5ª fase</text>
</g>
<!-- 4ª fase&#45;&gt;5ª fase -->
<!-- 6ª fase -->
<g id="node6" class="node">
<title>6ª fase</title>
<polygon fill="lightgrey" stroke="black" points="899.27,-625 798.48,-625 798.48,-589 899.27,-589 899.27,-625"/>
<text text-anchor="middle" x="848.88" y="-601.58" font-family="Arial" font-size="14.00">6ª fase</text>
</g>
<!-- 5ª fase&#45;&gt;6ª fase -->
<!-- 7ª fase -->
<g id="node7" class="node">
<title>7ª fase</title>
<polygon fill="lightgrey" stroke="black" points="1052.53,-625 951.73,-625 951.73,-589 1052.53,-589 1052.53,-625"/>
<text text-anchor="middle" x="1002.12" y="-601.58" font-family="Arial" font-size="14.00">7ª fase</text>
</g>
<!-- 6ª fase&#45;&gt;7ª fase -->
<!-- 8ª fase -->
<g id="node8" class="node">
<title>8ª fase</title>
<polygon fill="lightgrey" stroke="black" points="1198.65,-625 1097.85,-625 1097.85,-589 1198.65,-589 1198.65,-625"/>
<text text-anchor="middle" x="1148.25" y="-601.58" font-family="Arial" font-size="14.00">8ª fase</text>
</g>
<!-- 7ª fase&#45;&gt;8ª fase -->
<!-- LLE8020 -->
<g id="node9" class="node">
<title>LLE8020</title>
<polygon fill="#8dd3c7" stroke="#8dd3c7" points="133.03,-321.62 32.23,-321.62 32.23,-250.38 133.03,-250.38 133.03,-321.62"/>
<text text-anchor="middle" x="82.62" y="-304.32" font-family="Arial" font-size="14.00">LLE8020</text>
<text text-anchor="middle" x="82.62" y="-272.57" font-family="Arial" font-size="14.00">Estudos</text>
<text text-anchor="middle" x="82.62" y="-256.82" font-family="Arial" font-size="14.00">Literários I</text>
</g>
<!-- LLE8021 -->
<g id="node14" class="node">
<title>LLE8021</title>
<polygon fill="#8dd3c7" stroke="#8dd3c7" points="286.27,-265.62 185.47,-265.62 185.47,-194.38 286.27,-194.38 286.27,-265.62"/>
<text text-anchor="middle" x="235.88" y="-248.32" font-family="Arial" font-size="14.00">LLE8021</text>
<text text-anchor="middle" x="235.88" y="-216.57" font-family="Arial" font-size="14.00">Estudos</text>
<text text-anchor="middle" x="235.88" y="-200.82" font-family="Arial" font-size="14.00">Literários II</text>
</g>
<!-- LLE8020&#45;&gt;LLE8021 -->
<g id="edge8" class="edge">
<title>LLE8020&#45;&gt;LLE8021</title>
<path fill="none" stroke="#8dd3c7" stroke-width="2" d="M133.23,-258C133.23,-258 182.56,-258 182.56,-258"/>
<polygon fill="#8dd3c7" stroke="#8dd3c7" stroke-width="2" points="184.06,-255.5 184.06,-260.5 183.06,-260.5 183.06,-255.5 184.06,-255.5"/>
<polyline fill="none" stroke="#8dd3c7" stroke-width="2" points="184.56,-258 182.06,-258"/>
</g>
<!-- LLE8020&#45;&gt;LLE8021 -->
<!-- LLE8041 -->
<g id="node15" class="node">
<title>LLE8041</title>
<polygon fill="#8dd3c7" stroke="#8dd3c7" points="286.27,-564.62 185.47,-564.62 185.47,-493.38 286.27,-493.38 286.27,-564.62"/>
<text text-anchor="middle" x="235.88" y="-547.33" font-family="Arial" font-size="14.00">LLE8041</text>
<text text-anchor="middle" x="235.88" y="-515.58" font-family="Arial" font-size="14.00">Estudos</text>
<text text-anchor="middle" x="235.88" y="-499.82" font-family="Arial" font-size="14.00">Linguísticos I</text>
</g>
<!-- LLE8020&#45;&gt;LLE8041 -->
<!-- LLE8050 -->
<g id="node16" class="node">
<title>LLE8050</title>
<polygon fill="#8dd3c7" stroke="#8dd3c7" points="286.27,-475.62 185.47,-475.62 185.47,-404.38 286.27,-404.38 286.27,-475.62"/>
<text text-anchor="middle" x="235.88" y="-458.32" font-family="Arial" font-size="14.00">LLE8050</text>
<text text-anchor="middle" x="235.88" y="-426.57" font-family="Arial" font-size="14.00">Linguística</text>
<text text-anchor="middle" x="235.88" y="-410.82" font-family="Arial" font-size="14.00">Aplicada</text>
</g>
<!-- LLE8020&#45;&gt;LLE8050 -->
<!-- LLE8312 -->
<g id="node17" class="node">
<title>LLE8312</title>
<polygon fill="#8dd3c7" stroke="#8dd3c7" points="292.25,-386.38 179.5,-386.38 179.5,-283.62 292.25,-283.62 292.25,-386.38"/>
<text text-anchor="middle" x="235.88" y="-369.07" font-family="Arial" font-size="14.00">LLE8312</text>
<text text-anchor="middle" x="235.88" y="-337.32" font-family="Arial" font-size="14.00">Compreensão e</text>
<text text-anchor="middle" x="235.88" y="-321.57" font-family="Arial" font-size="14.00">Produção Oral</text>
<text text-anchor="middle" x="235.88" y="-305.82" font-family="Arial" font-size="14.00">em Língua</text>
<text text-anchor="middle" x="235.88" y="-290.07" font-family="Arial" font-size="14.00">Francesa II</text>
</g>
<!-- LLE8020&#45;&gt;LLE8312 -->
<!-- LLE8392 -->
<g id="node18" class="node">
<title>LLE8392</title>
<polygon fill="#8dd3c7" stroke="#8dd3c7" points="294.5,-176.25 177.25,-176.25 177.25,-57.75 294.5,-57.75 294.5,-176.25"/>
<text text-anchor="middle" x="235.88" y="-158.95" font-family="Arial" font-size="14.00">LLE8392</text>
<text text-anchor="middle" x="235.88" y="-127.2" font-family="Arial" font-size="14.00">Compreensão e</text>
<text text-anchor="middle" x="235.88" y="-111.45" font-family="Arial" font-size="14.00">Produção</text>
<text text-anchor="middle" x="235.88" y="-95.7" font-family="Arial" font-size="14.00">Escrita em</text>
<text text-anchor="middle" x="235.88" y="-79.95" font-family="Arial" font-size="14.00">Língua Francesa</text>
<text text-anchor="middle" x="235.88" y="-64.2" font-family="Arial" font-size="14.00">II</text>
</g>
<!-- LLE8020&#45;&gt;LLE8392 -->
<!-- LLE8022 -->
<g id="node19" class="node">
<title>LLE8022</title>
<polygon fill="#8dd3c7" stroke="#8dd3c7" points="439.52,-321.62 338.73,-321.62 338.73,-250.38 439.52,-250.38 439.52,-321.62"/>
<text text-anchor="middle" x="389.12" y="-304.32" font-family="Arial" font-size="14.00">LLE8022</text>
<text text-anchor="middle" x="389.12" y="-272.57" font-family="Arial" font-size="14.00">Estudos</text>
<text text-anchor="middle" x="389.12" y="-256.82" font-family="Arial" font-size="14.00">Literários III</text>
</g>
<!-- LLE8020&#45;&gt;LLE8022 -->
<g id="edge13" class="edge">
<title>LLE8020&#45;&gt;LLE8022</title>
<path fill="none" stroke="#8dd3c7" stroke-width="2" d="M133.24,-274.62C133.24,-274.62 335.94,-274.62 335.94,-274.62"/>
<polygon fill="#8dd3c7" stroke="#8dd3c7" stroke-width="2" points="337.44,-272.13 337.44,-277.13 336.44,-277.13 336.44,-272.13 337.44,-272.13"/>
<polyline fill="none" stroke="#8dd3c7" stroke-width="2" points="337.94,-274.63 335.44,-274.63"/>
</g>
<!-- LLE8030 -->
<g id="node10" class="node">
<title>LLE8030</title>
<polygon fill="#8dd3c7" stroke="#8dd3c7" points="133.03,-95.62 32.23,-95.62 32.23,-24.38 133.03,-24.38 133.03,-95.62"/>
<text text-anchor="middle" x="82.62" y="-78.33" font-family="Arial" font-size="14.00">LLE8030</text>
<text text-anchor="middle" x="82.62" y="-46.58" font-family="Arial" font-size="14.00">História da</text>
<text text-anchor="middle" x="82.62" y="-30.82" font-family="Arial" font-size="14.00">Tradução</text>
</g>
<!-- LLE8031 -->
<g id="node20" class="node">
<title>LLE8031</title>
<polygon fill="#8dd3c7" stroke="#8dd3c7" points="439.52,-95.62 338.73,-95.62 338.73,-24.38 439.52,-24.38 439.52,-95.62"/>
<text text-anchor="middle" x="389.12" y="-78.33" font-family="Arial" font-size="14.00">LLE8031</text>
<text text-anchor="middle" x="389.12" y="-46.58" font-family="Arial" font-size="14.00">Teorias da</text>
<text text-anchor="middle" x="389.12" y="-30.82" font-family="Arial" font-size="14.00">Tradução</text>
</g>
<!-- LLE8030&#45;&gt;LLE8031 -->
<g id="edge15" class="edge">
<title>LLE8030&#45;&gt;LLE8031</title>
<path fill="none" stroke="#8dd3c7" stroke-width="2" d="M133.24,-41.06C133.24,-41.06 335.94,-41.06 335.94,-41.06"/>
<polygon fill="#8dd3c7" stroke="#8dd3c7" stroke-width="2" points="337.44,-38.56 337.44,-43.56 336.44,-43.56 336.44,-38.56 337.44,-38.56"/>
<polyline fill="none" stroke="#8dd3c7" stroke-width="2" points="337.94,-41.06 335.44,-41.06"/>
</g>
<!-- LLE8040 -->
<g id="node11" class="node">
<title>LLE8040</title>
<polygon fill="#8dd3c7" stroke="#8dd3c7" points="135.25,-547.5 30,-547.5 30,-460.5 135.25,-460.5 135.25,-547.5"/>
<text text-anchor="middle" x="82.62" y="-530.2" font-family="Arial" font-size="14.00">LLE8040</text>
<text text-anchor="middle" x="82.62" y="-498.45" font-family="Arial" font-size="14.00">Introdução aos</text>
<text text-anchor="middle" x="82.62" y="-482.7" font-family="Arial" font-size="14.00">Estudos da</text>
<text text-anchor="middle" x="82.62" y="-466.95" font-family="Arial" font-size="14.00">Linguagem</text>
</g>
<!-- LLE8040&#45;&gt;LLE8041 -->
<g id="edge9" class="edge">
<title>LLE8040&#45;&gt;LLE8041</title>
<path fill="none" stroke="#8dd3c7" stroke-width="2" d="M135.36,-529.46C135.36,-529.46 182.61,-529.46 182.61,-529.46"/>
<polygon fill="#8dd3c7" stroke="#8dd3c7" stroke-width="2" points="184.11,-526.96 184.11,-531.96 183.11,-531.96 183.11,-526.96 184.11,-526.96"/>
<polyline fill="none" stroke="#8dd3c7" stroke-width="2" points="184.61,-529.46 182.11,-529.46"/>
</g>
<!-- LLE8040&#45;&gt;LLE8050 -->
<g id="edge10" class="edge">
<title>LLE8040&#45;&gt;LLE8050</title>
<path fill="none" stroke="#8dd3c7" stroke-width="2" d="M135.36,-468.06C135.36,-468.06 182.61,-468.06 182.61,-468.06"/>
<polygon fill="#8dd3c7" stroke="#8dd3c7" stroke-width="2" points="184.11,-465.56 184.11,-470.56 183.11,-470.56 183.11,-465.56 184.11,-465.56"/>
<polyline fill="none" stroke="#8dd3c7" stroke-width="2" points="184.61,-468.06 182.11,-468.06"/>
</g>
<!-- LLE8311 -->
<g id="node12" class="node">
<title>LLE8311</title>
<polygon fill="#8dd3c7" stroke="#8dd3c7" points="139,-442.38 26.25,-442.38 26.25,-339.62 139,-339.62 139,-442.38"/>
<text text-anchor="middle" x="82.62" y="-425.07" font-family="Arial" font-size="14.00">LLE8311</text>
<text text-anchor="middle" x="82.62" y="-393.32" font-family="Arial" font-size="14.00">Compreensão e</text>
<text text-anchor="middle" x="82.62" y="-377.57" font-family="Arial" font-size="14.00">Produção Oral</text>
<text text-anchor="middle" x="82.62" y="-361.82" font-family="Arial" font-size="14.00">em Língua</text>
<text text-anchor="middle" x="82.62" y="-346.07" font-family="Arial" font-size="14.00">Francesa I</text>
</g>
<!-- LLE8311&#45;&gt;LLE8312 -->
<g id="edge11" class="edge">
<title>LLE8311&#45;&gt;LLE8312</title>
<path fill="none" stroke="#8dd3c7" stroke-width="2" d="M139.25,-363C139.25,-363 176.72,-363 176.72,-363"/>
<polygon fill="#8dd3c7" stroke="#8dd3c7" stroke-width="2" points="178.22,-360.5 178.22,-365.5 177.22,-365.5 177.22,-360.5 178.22,-360.5"/>
<polyline fill="none" stroke="#8dd3c7" stroke-width="2" points="178.72,-363 176.22,-363"/>
</g>
<!-- LLE8391 -->
<g id="node13" class="node">
<title>LLE8391</title>
<polygon fill="#8dd3c7" stroke="#8dd3c7" points="141.25,-232.25 24,-232.25 24,-113.75 141.25,-113.75 141.25,-232.25"/>
<text text-anchor="middle" x="82.62" y="-214.95" font-family="Arial" font-size="14.00">LLE8391</text>
<text text-anchor="middle" x="82.62" y="-183.2" font-family="Arial" font-size="14.00">Compreensão e</text>
<text text-anchor="middle" x="82.62" y="-167.45" font-family="Arial" font-size="14.00">Produção</text>
<text text-anchor="middle" x="82.62" y="-151.7" font-family="Arial" font-size="14.00">Escrita em</text>
<text text-anchor="middle" x="82.62" y="-135.95" font-family="Arial" font-size="14.00">Língua Francesa</text>
<text text-anchor="middle" x="82.62" y="-120.2" font-family="Arial" font-size="14.00">I</text>
</g>
<!-- LLE8391&#45;&gt;LLE8392 -->
<g id="edge12" class="edge">
<title>LLE8391&#45;&gt;LLE8392</title>
<path fill="none" stroke="#8dd3c7" stroke-width="2" d="M141.44,-134.58C141.44,-134.58 174.47,-134.58 174.47,-134.58"/>
<polygon fill="#8dd3c7" stroke="#8dd3c7" stroke-width="2" points="175.97,-132.08 175.97,-137.08 174.97,-137.08 174.97,-132.08 175.97,-132.08"/>
<polyline fill="none" stroke="#8dd3c7" stroke-width="2" points="176.47,-134.58 173.97,-134.58"/>
</g>
<!-- LLE8021&#45;&gt;LLE8022 -->
<g id="edge14" class="edge">
<title>LLE8021&#45;&gt;LLE8022</title>
<path fill="none" stroke="#8dd3c7" stroke-width="2" d="M286.48,-258C286.48,-258 335.81,-258 335.81,-258"/>
<polygon fill="#8dd3c7" stroke="#8dd3c7" stroke-width="2" points="337.31,-255.5 337.31,-260.5 336.31,-260.5 336.31,-255.5 337.31,-255.5"/>
<polyline fill="none" stroke="#8dd3c7" stroke-width="2" points="337.81,-258 335.31,-258"/>
</g>
<!-- LLE8042 -->
<g id="node21" class="node">
<title>LLE8042</title>
<polygon fill="#8dd3c7" stroke="#8dd3c7" points="439.52,-410.62 338.73,-410.62 338.73,-339.38 439.52,-339.38 439.52,-410.62"/>
<text text-anchor="middle" x="389.12" y="-393.32" font-family="Arial" font-size="14.00">LLE8042</text>
<text text-anchor="middle" x="389.12" y="-361.57" font-family="Arial" font-size="14.00">Estudos</text>
<text text-anchor="middle" x="389.12" y="-345.82" font-family="Arial" font-size="14.00">Linguísticos II</text>
</g>
<!-- LLE8021&#45;&gt;LLE8042 -->
<g id="edge16" class="edge">
<title>LLE8021&#45;&gt;LLE8042</title>
<path fill="none" stroke="#8dd3c7" stroke-width="2" d="M286.72,-261.81C301.02,-261.81 312.75,-261.81 312.75,-261.81 312.75,-261.81 312.75,-362.88 312.75,-362.88 312.75,-362.88 336.11,-362.88 336.11,-362.88"/>
<polygon fill="#8dd3c7" stroke="#8dd3c7" stroke-width="2" points="337.61,-360.38 337.61,-365.38 336.61,-365.38 336.61,-360.38 337.61,-360.38"/>
<polyline fill="none" stroke="#8dd3c7" stroke-width="2" points="338.11,-362.88 335.61,-362.88"/>
</g>
<!-- LLE8023 -->
<g id="node25" class="node">
<title>LLE8023</title>
<polygon fill="#8dd3c7" stroke="#8dd3c7" points="592.77,-442.62 491.98,-442.62 491.98,-371.38 592.77,-371.38 592.77,-442.62"/>
<text text-anchor="middle" x="542.38" y="-425.32" font-family="Arial" font-size="14.00">LLE8023</text>
<text text-anchor="middle" x="542.38" y="-393.57" font-family="Arial" font-size="14.00">Estudos</text>
<text text-anchor="middle" x="542.38" y="-377.82" font-family="Arial" font-size="14.00">Literários IV</text>
</g>
<!-- LLE8021&#45;&gt;LLE8023 -->
<g id="edge21" class="edge">
<title>LLE8021&#45;&gt;LLE8023</title>
<path fill="none" stroke="#8dd3c7" stroke-width="2" d="M286.73,-241.31C353.89,-241.31 463.75,-241.31 463.75,-241.31 463.75,-241.31 463.75,-397.54 463.75,-397.54 463.75,-397.54 489.19,-397.54 489.19,-397.54"/>
<polygon fill="#8dd3c7" stroke="#8dd3c7" stroke-width="2" points="490.69,-395.04 490.69,-400.04 489.69,-400.04 489.69,-395.04 490.69,-395.04"/>
<polyline fill="none" stroke="#8dd3c7" stroke-width="2" points="491.19,-397.54 488.69,-397.54"/>
</g>
<!-- LLE8010 -->
<g id="node24" class="node">
<title>LLE8010</title>
<polygon fill="#8dd3c7" stroke="#8dd3c7" points="592.77,-547.5 491.98,-547.5 491.98,-460.5 592.77,-460.5 592.77,-547.5"/>
<text text-anchor="middle" x="542.38" y="-530.2" font-family="Arial" font-size="14.00">LLE8010</text>
<text text-anchor="middle" x="542.38" y="-498.45" font-family="Arial" font-size="14.00">Pesquisa em</text>
<text text-anchor="middle" x="542.38" y="-482.7" font-family="Arial" font-size="14.00">Letras</text>
<text text-anchor="middle" x="542.38" y="-466.95" font-family="Arial" font-size="14.00">Estrangeiras</text>
</g>
<!-- LLE8041&#45;&gt;LLE8010 -->
<g id="edge19" class="edge">
<title>LLE8041&#45;&gt;LLE8010</title>
<path fill="none" stroke="#8dd3c7" stroke-width="2" d="M286.49,-539.44C286.49,-539.44 489.19,-539.44 489.19,-539.44"/>
<polygon fill="#8dd3c7" stroke="#8dd3c7" stroke-width="2" points="490.69,-536.94 490.69,-541.94 489.69,-541.94 489.69,-536.94 490.69,-536.94"/>
<polyline fill="none" stroke="#8dd3c7" stroke-width="2" points="491.19,-539.44 488.69,-539.44"/>
</g>
<!-- LLE8313 -->
<g id="node22" class="node">
<title>LLE8313</title>
<polygon fill="#8dd3c7" stroke="#8dd3c7" points="445.5,-531.38 332.75,-531.38 332.75,-428.62 445.5,-428.62 445.5,-531.38"/>
<text text-anchor="middle" x="389.12" y="-514.08" font-family="Arial" font-size="14.00">LLE8313</text>
<text text-anchor="middle" x="389.12" y="-482.32" font-family="Arial" font-size="14.00">Compreensão e</text>
<text text-anchor="middle" x="389.12" y="-466.57" font-family="Arial" font-size="14.00">Produção Oral</text>
<text text-anchor="middle" x="389.12" y="-450.82" font-family="Arial" font-size="14.00">em Língua</text>
<text text-anchor="middle" x="389.12" y="-435.07" font-family="Arial" font-size="14.00">Francesa III</text>
</g>
<!-- LLE8312&#45;&gt;LLE8313 -->
<g id="edge17" class="edge">
<title>LLE8312&#45;&gt;LLE8313</title>
<path fill="none" stroke="#8dd3c7" stroke-width="2" d="M292.53,-374.62C297.53,-374.62 300.75,-374.62 300.75,-374.62 300.75,-374.62 300.75,-459.96 300.75,-459.96 300.75,-459.96 330.16,-459.96 330.16,-459.96"/>
<polygon fill="#8dd3c7" stroke="#8dd3c7" stroke-width="2" points="331.66,-457.46 331.66,-462.46 330.66,-462.46 330.66,-457.46 331.66,-457.46"/>
<polyline fill="none" stroke="#8dd3c7" stroke-width="2" points="332.16,-459.96 329.66,-459.96"/>
</g>
<!-- LLE8392&#45;&gt;LLE8022 -->
<!-- LLE8392&#45;&gt;LLE8031 -->
<!-- LLE8392&#45;&gt;LLE8042 -->
<!-- LLE8392&#45;&gt;LLE8313 -->
<!-- LLE8393 -->
<g id="node23" class="node">
<title>LLE8393</title>
<polygon fill="#8dd3c7" stroke="#8dd3c7" points="447.75,-232.25 330.5,-232.25 330.5,-113.75 447.75,-113.75 447.75,-232.25"/>
<text text-anchor="middle" x="389.12" y="-214.95" font-family="Arial" font-size="14.00">LLE8393</text>
<text text-anchor="middle" x="389.12" y="-183.2" font-family="Arial" font-size="14.00">Compreensão e</text>
<text text-anchor="middle" x="389.12" y="-167.45" font-family="Arial" font-size="14.00">Produção</text>
<text text-anchor="middle" x="389.12" y="-151.7" font-family="Arial" font-size="14.00">Escrita em</text>
<text text-anchor="middle" x="389.12" y="-135.95" font-family="Arial" font-size="14.00">Língua Francesa</text>
<text text-anchor="middle" x="389.12" y="-120.2" font-family="Arial" font-size="14.00">III</text>
</g>
<!-- LLE8392&#45;&gt;LLE8393 -->
<g id="edge18" class="edge">
<title>LLE8392&#45;&gt;LLE8393</title>
<path fill="none" stroke="#8dd3c7" stroke-width="2" d="M294.69,-124.17C294.69,-124.17 327.72,-124.17 327.72,-124.17"/>
<polygon fill="#8dd3c7" stroke="#8dd3c7" stroke-width="2" points="329.22,-121.67 329.22,-126.67 328.22,-126.67 328.22,-121.67 329.22,-121.67"/>
<polyline fill="none" stroke="#8dd3c7" stroke-width="2" points="329.72,-124.17 327.22,-124.17"/>
</g>
<!-- LLE8392&#45;&gt;LLE8393 -->
<!-- LLE8032 -->
<g id="node26" class="node">
<title>LLE8032</title>
<polygon fill="#8dd3c7" stroke="#8dd3c7" points="592.77,-95.62 491.98,-95.62 491.98,-24.38 592.77,-24.38 592.77,-95.62"/>
<text text-anchor="middle" x="542.38" y="-78.33" font-family="Arial" font-size="14.00">LLE8032</text>
<text text-anchor="middle" x="542.38" y="-46.58" font-family="Arial" font-size="14.00">Prática de</text>
<text text-anchor="middle" x="542.38" y="-30.82" font-family="Arial" font-size="14.00">Tradução</text>
</g>
<!-- LLE8031&#45;&gt;LLE8032 -->
<g id="edge22" class="edge">
<title>LLE8031&#45;&gt;LLE8032</title>
<path fill="none" stroke="#8dd3c7" stroke-width="2" d="M439.73,-42.19C439.73,-42.19 489.06,-42.19 489.06,-42.19"/>
<polygon fill="#8dd3c7" stroke="#8dd3c7" stroke-width="2" points="490.56,-39.69 490.56,-44.69 489.56,-44.69 489.56,-39.69 490.56,-39.69"/>
<polyline fill="none" stroke="#8dd3c7" stroke-width="2" points="491.06,-42.19 488.56,-42.19"/>
</g>
<!-- LLE8314 -->
<g id="node27" class="node">
<title>LLE8314</title>
<polygon fill="#8dd3c7" stroke="#8dd3c7" points="598.75,-353.38 486,-353.38 486,-250.62 598.75,-250.62 598.75,-353.38"/>
<text text-anchor="middle" x="542.38" y="-336.07" font-family="Arial" font-size="14.00">LLE8314</text>
<text text-anchor="middle" x="542.38" y="-304.32" font-family="Arial" font-size="14.00">Compreensão e</text>
<text text-anchor="middle" x="542.38" y="-288.57" font-family="Arial" font-size="14.00">Produção Oral</text>
<text text-anchor="middle" x="542.38" y="-272.82" font-family="Arial" font-size="14.00">em Língua</text>
<text text-anchor="middle" x="542.38" y="-257.07" font-family="Arial" font-size="14.00">Francesa IV</text>
</g>
<!-- LLE8313&#45;&gt;LLE8314 -->
<g id="edge24" class="edge">
<title>LLE8313&#45;&gt;LLE8314</title>
<path fill="none" stroke="#8dd3c7" stroke-width="2" d="M445.57,-435.62C461.09,-435.62 473.75,-435.62 473.75,-435.62 473.75,-435.62 473.75,-346.38 473.75,-346.38 473.75,-346.38 483.2,-346.38 483.2,-346.38"/>
<polygon fill="#8dd3c7" stroke="#8dd3c7" stroke-width="2" points="484.7,-343.88 484.7,-348.88 483.7,-348.88 483.7,-343.88 484.7,-343.88"/>
<polyline fill="none" stroke="#8dd3c7" stroke-width="2" points="485.2,-346.38 482.7,-346.38"/>
</g>
<!-- LLE8393&#45;&gt;LLE8010 -->
<g id="edge20" class="edge">
<title>LLE8393&#45;&gt;LLE8010</title>
<path fill="none" stroke="#8dd3c7" stroke-width="2" d="M448.24,-215.32C451.66,-215.32 453.75,-215.32 453.75,-215.32 453.75,-215.32 453.75,-507.75 453.75,-507.75 453.75,-507.75 489.09,-507.75 489.09,-507.75"/>
<polygon fill="#8dd3c7" stroke="#8dd3c7" stroke-width="2" points="490.59,-505.25 490.59,-510.25 489.59,-510.25 489.59,-505.25 490.59,-505.25"/>
<polyline fill="none" stroke="#8dd3c7" stroke-width="2" points="491.09,-507.75 488.59,-507.75"/>
</g>
<!-- LLE8393&#45;&gt;LLE8010 -->
<!-- LLE8393&#45;&gt;LLE8023 -->
<!-- LLE8393&#45;&gt;LLE8032 -->
<g id="edge23" class="edge">
<title>LLE8393&#45;&gt;LLE8032</title>
<path fill="none" stroke="#8dd3c7" stroke-width="2" d="M442.75,-113.52C442.75,-86.3 442.75,-60 442.75,-60 442.75,-60 489.19,-60 489.19,-60"/>
<polygon fill="#8dd3c7" stroke="#8dd3c7" stroke-width="2" points="490.69,-57.5 490.69,-62.5 489.69,-62.5 489.69,-57.5 490.69,-57.5"/>
<polyline fill="none" stroke="#8dd3c7" stroke-width="2" points="491.19,-60 488.69,-60"/>
</g>
<!-- LLE8393&#45;&gt;LLE8032 -->
<!-- LLE8393&#45;&gt;LLE8314 -->
<!-- LLE8394 -->
<g id="node28" class="node">
<title>LLE8394</title>
<polygon fill="#8dd3c7" stroke="#8dd3c7" points="601,-232.25 483.75,-232.25 483.75,-113.75 601,-113.75 601,-232.25"/>
<text text-anchor="middle" x="542.38" y="-214.95" font-family="Arial" font-size="14.00">LLE8394</text>
<text text-anchor="middle" x="542.38" y="-183.2" font-family="Arial" font-size="14.00">Compreensão e</text>
<text text-anchor="middle" x="542.38" y="-167.45" font-family="Arial" font-size="14.00">Produção</text>
<text text-anchor="middle" x="542.38" y="-151.7" font-family="Arial" font-size="14.00">Escrita em</text>
<text text-anchor="middle" x="542.38" y="-135.95" font-family="Arial" font-size="14.00">Língua Francesa</text>
<text text-anchor="middle" x="542.38" y="-120.2" font-family="Arial" font-size="14.00">IV</text>
</g>
<!-- LLE8393&#45;&gt;LLE8394 -->
<g id="edge25" class="edge">
<title>LLE8393&#45;&gt;LLE8394</title>
<path fill="none" stroke="#8dd3c7" stroke-width="2" d="M447.94,-130.68C447.94,-130.68 480.97,-130.68 480.97,-130.68"/>
<polygon fill="#8dd3c7" stroke="#8dd3c7" stroke-width="2" points="482.47,-128.18 482.47,-133.18 481.47,-133.18 481.47,-128.18 482.47,-128.18"/>
<polyline fill="none" stroke="#8dd3c7" stroke-width="2" points="482.97,-130.68 480.47,-130.68"/>
</g>
<!-- LLE8393&#45;&gt;LLE8394 -->
<!-- LLE8340 -->
<g id="node37" class="node">
<title>LLE8340</title>
<polygon fill="#fb8072" stroke="#fb8072" points="1058.5,-428.25 945.75,-428.25 945.75,-309.75 1058.5,-309.75 1058.5,-428.25"/>
<text text-anchor="middle" x="1002.12" y="-410.95" font-family="Arial" font-size="14.00">LLE8340</text>
<text text-anchor="middle" x="1002.12" y="-379.2" font-family="Arial" font-size="14.00">Elaboração de</text>
<text text-anchor="middle" x="1002.12" y="-363.45" font-family="Arial" font-size="14.00">Projeto de</text>
<text text-anchor="middle" x="1002.12" y="-347.7" font-family="Arial" font-size="14.00">Trabalho de</text>
<text text-anchor="middle" x="1002.12" y="-331.95" font-family="Arial" font-size="14.00">Conclusão de</text>
<text text-anchor="middle" x="1002.12" y="-316.2" font-family="Arial" font-size="14.00">Curso &#45; Francês</text>
</g>
<!-- LLE8010&#45;&gt;LLE8340 -->
<g id="edge37" class="edge">
<title>LLE8010&#45;&gt;LLE8340</title>
<path fill="none" stroke="#fb8072" stroke-width="2" d="M592.88,-518.5C698.24,-518.5 931.75,-518.5 931.75,-518.5 931.75,-518.5 931.75,-411.32 931.75,-411.32 931.75,-411.32 942.82,-411.32 942.82,-411.32"/>
<polygon fill="#fb8072" stroke="#fb8072" stroke-width="2" points="944.32,-408.82 944.32,-413.82 943.32,-413.82 943.32,-408.82 944.32,-408.82"/>
<polyline fill="none" stroke="#fb8072" stroke-width="2" points="944.82,-411.32 942.32,-411.32"/>
</g>
<!-- LLE8341 -->
<g id="node40" class="node">
<title>LLE8341</title>
<polygon fill="#fb8072" stroke="#fb8072" points="1198.65,-355.38 1097.85,-355.38 1097.85,-252.62 1198.65,-252.62 1198.65,-355.38"/>
<text text-anchor="middle" x="1148.25" y="-338.07" font-family="Arial" font-size="14.00">LLE8341</text>
<text text-anchor="middle" x="1148.25" y="-306.32" font-family="Arial" font-size="14.00">Trabalho de</text>
<text text-anchor="middle" x="1148.25" y="-290.57" font-family="Arial" font-size="14.00">Conclusão de</text>
<text text-anchor="middle" x="1148.25" y="-274.82" font-family="Arial" font-size="14.00">Curso (TCC) &#45;</text>
<text text-anchor="middle" x="1148.25" y="-259.07" font-family="Arial" font-size="14.00">Francês</text>
</g>
<!-- LLE8010&#45;&gt;LLE8341 -->
<g id="edge45" class="edge">
<title>LLE8010&#45;&gt;LLE8341</title>
<path fill="none" stroke="#fb8072" stroke-width="2" d="M593.14,-489.5C603.21,-489.5 610.75,-489.5 610.75,-489.5 610.75,-489.5 610.75,-300.69 610.75,-300.69 610.75,-300.69 1095.18,-300.69 1095.18,-300.69"/>
<polygon fill="#fb8072" stroke="#fb8072" stroke-width="2" points="1096.68,-298.19 1096.68,-303.19 1095.68,-303.19 1095.68,-298.19 1096.68,-298.19"/>
<polyline fill="none" stroke="#fb8072" stroke-width="2" points="1097.18,-300.69 1094.68,-300.69"/>
</g>
<!-- LLE8315 -->
<g id="node29" class="node">
<title>LLE8315</title>
<polygon fill="#8dd3c7" stroke="#8dd3c7" points="752,-202.38 639.25,-202.38 639.25,-99.62 752,-99.62 752,-202.38"/>
<text text-anchor="middle" x="695.62" y="-185.07" font-family="Arial" font-size="14.00">LLE8315</text>
<text text-anchor="middle" x="695.62" y="-153.32" font-family="Arial" font-size="14.00">Compreensão e</text>
<text text-anchor="middle" x="695.62" y="-137.57" font-family="Arial" font-size="14.00">Produção Oral</text>
<text text-anchor="middle" x="695.62" y="-121.83" font-family="Arial" font-size="14.00">em Língua</text>
<text text-anchor="middle" x="695.62" y="-106.08" font-family="Arial" font-size="14.00">Francesa V</text>
</g>
<!-- LLE8314&#45;&gt;LLE8315 -->
<g id="edge26" class="edge">
<title>LLE8314&#45;&gt;LLE8315</title>
<path fill="none" stroke="#8dd3c7" stroke-width="2" d="M599.02,-264.29C615.31,-264.29 628.75,-264.29 628.75,-264.29 628.75,-264.29 628.75,-180.22 628.75,-180.22 628.75,-180.22 636.41,-180.22 636.41,-180.22"/>
<polygon fill="#8dd3c7" stroke="#8dd3c7" stroke-width="2" points="637.91,-177.72 637.91,-182.72 636.91,-182.72 636.91,-177.72 637.91,-177.72"/>
<polyline fill="none" stroke="#8dd3c7" stroke-width="2" points="638.41,-180.22 635.91,-180.22"/>
</g>
<!-- LLE8321 -->
<g id="node30" class="node">
<title>LLE8321</title>
<polygon fill="#8dd3c7" stroke="#8dd3c7" points="746.02,-291.62 645.23,-291.62 645.23,-220.38 746.02,-220.38 746.02,-291.62"/>
<text text-anchor="middle" x="695.62" y="-274.32" font-family="Arial" font-size="14.00">LLE8321</text>
<text text-anchor="middle" x="695.62" y="-242.57" font-family="Arial" font-size="14.00">Literatura</text>
<text text-anchor="middle" x="695.62" y="-226.82" font-family="Arial" font-size="14.00">Francesa I</text>
</g>
<!-- LLE8314&#45;&gt;LLE8321 -->
<g id="edge28" class="edge">
<title>LLE8314&#45;&gt;LLE8321</title>
<path fill="none" stroke="#8dd3c7" stroke-width="2" d="M599,-277.96C599,-277.96 642.29,-277.96 642.29,-277.96"/>
<polygon fill="#8dd3c7" stroke="#8dd3c7" stroke-width="2" points="643.79,-275.46 643.79,-280.46 642.79,-280.46 642.79,-275.46 643.79,-275.46"/>
<polyline fill="none" stroke="#8dd3c7" stroke-width="2" points="644.29,-277.96 641.79,-277.96"/>
</g>
<!-- LLE8395 -->
<g id="node31" class="node">
<title>LLE8395</title>
<polygon fill="#8dd3c7" stroke="#8dd3c7" points="754.25,-428.25 637,-428.25 637,-309.75 754.25,-309.75 754.25,-428.25"/>
<text text-anchor="middle" x="695.62" y="-410.95" font-family="Arial" font-size="14.00">LLE8395</text>
<text text-anchor="middle" x="695.62" y="-379.2" font-family="Arial" font-size="14.00">Compreensão e</text>
<text text-anchor="middle" x="695.62" y="-363.45" font-family="Arial" font-size="14.00">Produção</text>
<text text-anchor="middle" x="695.62" y="-347.7" font-family="Arial" font-size="14.00">Escrita em</text>
<text text-anchor="middle" x="695.62" y="-331.95" font-family="Arial" font-size="14.00">Língua Francesa</text>
<text text-anchor="middle" x="695.62" y="-316.2" font-family="Arial" font-size="14.00">V</text>
</g>
<!-- LLE8314&#45;&gt;LLE8395 -->
<g id="edge30" class="edge">
<title>LLE8314&#45;&gt;LLE8395</title>
<path fill="none" stroke="#8dd3c7" stroke-width="2" d="M599,-338.83C599,-338.83 634.16,-338.83 634.16,-338.83"/>
<polygon fill="#8dd3c7" stroke="#8dd3c7" stroke-width="2" points="635.66,-336.33 635.66,-341.33 634.66,-341.33 634.66,-336.33 635.66,-336.33"/>
<polyline fill="none" stroke="#8dd3c7" stroke-width="2" points="636.16,-338.83 633.66,-338.83"/>
</g>
<!-- LLE8394&#45;&gt;LLE8315 -->
<g id="edge27" class="edge">
<title>LLE8394&#45;&gt;LLE8315</title>
<path fill="none" stroke="#8dd3c7" stroke-width="2" d="M601.19,-135.91C601.19,-135.91 636.49,-135.91 636.49,-135.91"/>
<polygon fill="#8dd3c7" stroke="#8dd3c7" stroke-width="2" points="637.99,-133.41 637.99,-138.41 636.99,-138.41 636.99,-133.41 637.99,-133.41"/>
<polyline fill="none" stroke="#8dd3c7" stroke-width="2" points="638.49,-135.91 635.99,-135.91"/>
</g>
<!-- LLE8394&#45;&gt;LLE8315 -->
<!-- LLE8394&#45;&gt;LLE8321 -->
<g id="edge29" class="edge">
<title>LLE8394&#45;&gt;LLE8321</title>
<path fill="none" stroke="#8dd3c7" stroke-width="2" d="M601.19,-226.31C601.19,-226.31 642.71,-226.31 642.71,-226.31"/>
<polygon fill="#8dd3c7" stroke="#8dd3c7" stroke-width="2" points="644.21,-223.81 644.21,-228.81 643.21,-228.81 643.21,-223.81 644.21,-223.81"/>
<polyline fill="none" stroke="#8dd3c7" stroke-width="2" points="644.71,-226.31 642.21,-226.31"/>
</g>
<!-- LLE8394&#45;&gt;LLE8321 -->
<!-- LLE8394&#45;&gt;LLE8395 -->
<!-- LLE8316 -->
<g id="node32" class="node">
<title>LLE8316</title>
<polygon fill="#8dd3c7" stroke="#8dd3c7" points="905.25,-202.38 792.5,-202.38 792.5,-99.62 905.25,-99.62 905.25,-202.38"/>
<text text-anchor="middle" x="848.88" y="-185.07" font-family="Arial" font-size="14.00">LLE8316</text>
<text text-anchor="middle" x="848.88" y="-153.32" font-family="Arial" font-size="14.00">Compreensão e</text>
<text text-anchor="middle" x="848.88" y="-137.57" font-family="Arial" font-size="14.00">Produção Oral</text>
<text text-anchor="middle" x="848.88" y="-121.83" font-family="Arial" font-size="14.00">em Língua</text>
<text text-anchor="middle" x="848.88" y="-106.08" font-family="Arial" font-size="14.00">Francesa VI</text>
</g>
<!-- LLE8315&#45;&gt;LLE8316 -->
<g id="edge31" class="edge">
<title>LLE8315&#45;&gt;LLE8316</title>
<path fill="none" stroke="#8dd3c7" stroke-width="2" d="M752.25,-125.31C752.25,-125.31 789.72,-125.31 789.72,-125.31"/>
<polygon fill="#8dd3c7" stroke="#8dd3c7" stroke-width="2" points="791.22,-122.81 791.22,-127.81 790.22,-127.81 790.22,-122.81 791.22,-122.81"/>
<polyline fill="none" stroke="#8dd3c7" stroke-width="2" points="791.72,-125.31 789.22,-125.31"/>
</g>
<!-- LLE8322 -->
<g id="node33" class="node">
<title>LLE8322</title>
<polygon fill="#8dd3c7" stroke="#8dd3c7" points="899.27,-291.62 798.48,-291.62 798.48,-220.38 899.27,-220.38 899.27,-291.62"/>
<text text-anchor="middle" x="848.88" y="-274.32" font-family="Arial" font-size="14.00">LLE8322</text>
<text text-anchor="middle" x="848.88" y="-242.57" font-family="Arial" font-size="14.00">Literatura</text>
<text text-anchor="middle" x="848.88" y="-226.82" font-family="Arial" font-size="14.00">Francesa II</text>
</g>
<!-- LLE8315&#45;&gt;LLE8322 -->
<g id="edge32" class="edge">
<title>LLE8315&#45;&gt;LLE8322</title>
<path fill="none" stroke="#8dd3c7" stroke-width="2" d="M752.43,-176.69C769.48,-176.69 783.75,-176.69 783.75,-176.69 783.75,-176.69 783.75,-238.19 783.75,-238.19 783.75,-238.19 795.7,-238.19 795.7,-238.19"/>
<polygon fill="#8dd3c7" stroke="#8dd3c7" stroke-width="2" points="797.2,-235.69 797.2,-240.69 796.2,-240.69 796.2,-235.69 797.2,-235.69"/>
<polyline fill="none" stroke="#8dd3c7" stroke-width="2" points="797.7,-238.19 795.2,-238.19"/>
</g>
<!-- LLE8395&#45;&gt;LLE8316 -->
<!-- LLE8395&#45;&gt;LLE8322 -->
<g id="edge33" class="edge">
<title>LLE8395&#45;&gt;LLE8322</title>
<path fill="none" stroke="#8dd3c7" stroke-width="2" d="M754.65,-349.25C762.97,-349.25 768.75,-349.25 768.75,-349.25 768.75,-349.25 768.75,-256 768.75,-256 768.75,-256 795.63,-256 795.63,-256"/>
<polygon fill="#8dd3c7" stroke="#8dd3c7" stroke-width="2" points="797.13,-253.5 797.13,-258.5 796.13,-258.5 796.13,-253.5 797.13,-253.5"/>
<polyline fill="none" stroke="#8dd3c7" stroke-width="2" points="797.63,-256 795.13,-256"/>
</g>
<!-- LLE8395&#45;&gt;LLE8322 -->
<!-- LLE8396 -->
<g id="node34" class="node">
<title>LLE8396</title>
<polygon fill="#8dd3c7" stroke="#8dd3c7" points="907.5,-428.25 790.25,-428.25 790.25,-309.75 907.5,-309.75 907.5,-428.25"/>
<text text-anchor="middle" x="848.88" y="-410.95" font-family="Arial" font-size="14.00">LLE8396</text>
<text text-anchor="middle" x="848.88" y="-379.2" font-family="Arial" font-size="14.00">Compreensão e</text>
<text text-anchor="middle" x="848.88" y="-363.45" font-family="Arial" font-size="14.00">Produção</text>
<text text-anchor="middle" x="848.88" y="-347.7" font-family="Arial" font-size="14.00">Escrita em</text>
<text text-anchor="middle" x="848.88" y="-331.95" font-family="Arial" font-size="14.00">Língua Francesa</text>
<text text-anchor="middle" x="848.88" y="-316.2" font-family="Arial" font-size="14.00">VI</text>
</g>
<!-- LLE8395&#45;&gt;LLE8396 -->
<g id="edge34" class="edge">
<title>LLE8395&#45;&gt;LLE8396</title>
<path fill="none" stroke="#8dd3c7" stroke-width="2" d="M754.44,-388.75C754.44,-388.75 787.47,-388.75 787.47,-388.75"/>
<polygon fill="#8dd3c7" stroke="#8dd3c7" stroke-width="2" points="788.97,-386.25 788.97,-391.25 787.97,-391.25 787.97,-386.25 788.97,-386.25"/>
<polyline fill="none" stroke="#8dd3c7" stroke-width="2" points="789.47,-388.75 786.97,-388.75"/>
</g>
<!-- LLE8395&#45;&gt;LLE8396 -->
<!-- LLE8317 -->
<g id="node35" class="node">
<title>LLE8317</title>
<polygon fill="#8dd3c7" stroke="#8dd3c7" points="1058.5,-202.38 945.75,-202.38 945.75,-99.62 1058.5,-99.62 1058.5,-202.38"/>
<text text-anchor="middle" x="1002.12" y="-185.07" font-family="Arial" font-size="14.00">LLE8317</text>
<text text-anchor="middle" x="1002.12" y="-153.32" font-family="Arial" font-size="14.00">Compreensão e</text>
<text text-anchor="middle" x="1002.12" y="-137.57" font-family="Arial" font-size="14.00">Produção Oral</text>
<text text-anchor="middle" x="1002.12" y="-121.83" font-family="Arial" font-size="14.00">em Língua</text>
<text text-anchor="middle" x="1002.12" y="-106.08" font-family="Arial" font-size="14.00">Francesa VII</text>
</g>
<!-- LLE8316&#45;&gt;LLE8317 -->
<g id="edge35" class="edge">
<title>LLE8316&#45;&gt;LLE8317</title>
<path fill="none" stroke="#8dd3c7" stroke-width="2" d="M905.5,-120.17C905.5,-120.17 942.97,-120.17 942.97,-120.17"/>
<polygon fill="#8dd3c7" stroke="#8dd3c7" stroke-width="2" points="944.47,-117.68 944.47,-122.68 943.47,-122.68 943.47,-117.68 944.47,-117.68"/>
<polyline fill="none" stroke="#8dd3c7" stroke-width="2" points="944.97,-120.18 942.47,-120.18"/>
</g>
<!-- LLE8323 -->
<g id="node36" class="node">
<title>LLE8323</title>
<polygon fill="#8dd3c7" stroke="#8dd3c7" points="1052.53,-291.62 951.73,-291.62 951.73,-220.38 1052.53,-220.38 1052.53,-291.62"/>
<text text-anchor="middle" x="1002.12" y="-274.32" font-family="Arial" font-size="14.00">LLE8323</text>
<text text-anchor="middle" x="1002.12" y="-242.57" font-family="Arial" font-size="14.00">Literatura</text>
<text text-anchor="middle" x="1002.12" y="-226.82" font-family="Arial" font-size="14.00">Francesa III</text>
</g>
<!-- LLE8316&#45;&gt;LLE8323 -->
<g id="edge36" class="edge">
<title>LLE8316&#45;&gt;LLE8323</title>
<path fill="none" stroke="#8dd3c7" stroke-width="2" d="M905.66,-161.28C923.08,-161.28 937.75,-161.28 937.75,-161.28 937.75,-161.28 937.75,-244.12 937.75,-244.12 937.75,-244.12 948.9,-244.12 948.9,-244.12"/>
<polygon fill="#8dd3c7" stroke="#8dd3c7" stroke-width="2" points="950.4,-241.63 950.4,-246.63 949.4,-246.63 949.4,-241.63 950.4,-241.63"/>
<polyline fill="none" stroke="#8dd3c7" stroke-width="2" points="950.9,-244.13 948.4,-244.13"/>
</g>
<!-- LLE8316&#45;&gt;LLE8340 -->
<g id="edge38" class="edge">
<title>LLE8316&#45;&gt;LLE8340</title>
<path fill="none" stroke="#fb8072" stroke-width="2" d="M905.75,-181.82C913.99,-181.82 919.75,-181.82 919.75,-181.82 919.75,-181.82 919.75,-343.61 919.75,-343.61 919.75,-343.61 942.86,-343.61 942.86,-343.61"/>
<polygon fill="#fb8072" stroke="#fb8072" stroke-width="2" points="944.36,-341.11 944.36,-346.11 943.36,-346.11 943.36,-341.11 944.36,-341.11"/>
<polyline fill="none" stroke="#fb8072" stroke-width="2" points="944.86,-343.61 942.36,-343.61"/>
</g>
<!-- LLE8396&#45;&gt;LLE8317 -->
<!-- LLE8396&#45;&gt;LLE8323 -->
<!-- LLE8396&#45;&gt;LLE8340 -->
<g id="edge39" class="edge">
<title>LLE8396&#45;&gt;LLE8340</title>
<path fill="none" stroke="#fb8072" stroke-width="2" d="M907.69,-377.46C907.69,-377.46 942.99,-377.46 942.99,-377.46"/>
<polygon fill="#fb8072" stroke="#fb8072" stroke-width="2" points="944.49,-374.96 944.49,-379.96 943.49,-379.96 943.49,-374.96 944.49,-374.96"/>
<polyline fill="none" stroke="#fb8072" stroke-width="2" points="944.99,-377.46 942.49,-377.46"/>
</g>
<!-- LLE8396&#45;&gt;LLE8340 -->
<!-- LLE8397 -->
<g id="node38" class="node">
<title>LLE8397</title>
<polygon fill="#8dd3c7" stroke="#8dd3c7" points="1060.75,-565.25 943.5,-565.25 943.5,-446.75 1060.75,-446.75 1060.75,-565.25"/>
<text text-anchor="middle" x="1002.12" y="-547.95" font-family="Arial" font-size="14.00">LLE8397</text>
<text text-anchor="middle" x="1002.12" y="-516.2" font-family="Arial" font-size="14.00">Compreensão e</text>
<text text-anchor="middle" x="1002.12" y="-500.45" font-family="Arial" font-size="14.00">Produção</text>
<text text-anchor="middle" x="1002.12" y="-484.7" font-family="Arial" font-size="14.00">Escrita em</text>
<text text-anchor="middle" x="1002.12" y="-468.95" font-family="Arial" font-size="14.00">Língua Francesa</text>
<text text-anchor="middle" x="1002.12" y="-453.2" font-family="Arial" font-size="14.00">VII</text>
</g>
<!-- LLE8396&#45;&gt;LLE8397 -->
<g id="edge40" class="edge">
<title>LLE8396&#45;&gt;LLE8397</title>
<path fill="none" stroke="#8dd3c7" stroke-width="2" d="M902.75,-428.42C902.75,-443.69 902.75,-455.92 902.75,-455.92 902.75,-455.92 940.67,-455.92 940.67,-455.92"/>
<polygon fill="#8dd3c7" stroke="#8dd3c7" stroke-width="2" points="942.17,-453.42 942.17,-458.42 941.17,-458.42 941.17,-453.42 942.17,-453.42"/>
<polyline fill="none" stroke="#8dd3c7" stroke-width="2" points="942.67,-455.92 940.17,-455.92"/>
</g>
<!-- LLE8396&#45;&gt;LLE8397 -->
<!-- LLE8324 -->
<g id="node39" class="node">
<title>LLE8324</title>
<polygon fill="#8dd3c7" stroke="#8dd3c7" points="1198.65,-444.62 1097.85,-444.62 1097.85,-373.38 1198.65,-373.38 1198.65,-444.62"/>
<text text-anchor="middle" x="1148.25" y="-427.32" font-family="Arial" font-size="14.00">LLE8324</text>
<text text-anchor="middle" x="1148.25" y="-395.57" font-family="Arial" font-size="14.00">Literatura</text>
<text text-anchor="middle" x="1148.25" y="-379.82" font-family="Arial" font-size="14.00">Francesa IV</text>
</g>
<!-- LLE8317&#45;&gt;LLE8324 -->
<g id="edge41" class="edge">
<title>LLE8317&#45;&gt;LLE8324</title>
<path fill="none" stroke="#8dd3c7" stroke-width="2" d="M1058.88,-168.12C1065.39,-168.12 1069.75,-168.12 1069.75,-168.12 1069.75,-168.12 1069.75,-400.81 1069.75,-400.81 1069.75,-400.81 1095.15,-400.81 1095.15,-400.81"/>
<polygon fill="#8dd3c7" stroke="#8dd3c7" stroke-width="2" points="1096.65,-398.31 1096.65,-403.31 1095.65,-403.31 1095.65,-398.31 1096.65,-398.31"/>
<polyline fill="none" stroke="#8dd3c7" stroke-width="2" points="1097.15,-400.81 1094.65,-400.81"/>
</g>
<!-- LLE8317&#45;&gt;LLE8341 -->
<g id="edge43" class="edge">
<title>LLE8317&#45;&gt;LLE8341</title>
<path fill="none" stroke="#fb8072" stroke-width="2" d="M1058.81,-133.88C1100.07,-133.88 1148.75,-133.88 1148.75,-133.88 1148.75,-133.88 1148.75,-250 1148.75,-250"/>
<polygon fill="#fb8072" stroke="#fb8072" stroke-width="2" points="1151.25,-251.5 1146.25,-251.5 1146.25,-250.5 1151.25,-250.5 1151.25,-251.5"/>
<polyline fill="none" stroke="#fb8072" stroke-width="2" points="1148.75,-252 1148.75,-249.5"/>
</g>
<!-- LLE8340&#45;&gt;LLE8341 -->
<g id="edge46" class="edge">
<title>LLE8340&#45;&gt;LLE8341</title>
<path fill="none" stroke="#fb8072" stroke-width="2" d="M1058.62,-321.16C1058.62,-321.16 1095.13,-321.16 1095.13,-321.16"/>
<polygon fill="#fb8072" stroke="#fb8072" stroke-width="2" points="1096.63,-318.66 1096.63,-323.66 1095.63,-323.66 1095.63,-318.66 1096.63,-318.66"/>
<polyline fill="none" stroke="#fb8072" stroke-width="2" points="1097.13,-321.16 1094.63,-321.16"/>
</g>
<!-- LLE8397&#45;&gt;LLE8324 -->
<g id="edge42" class="edge">
<title>LLE8397&#45;&gt;LLE8324</title>
<path fill="none" stroke="#8dd3c7" stroke-width="2" d="M1061.25,-456.27C1095.43,-456.27 1131.75,-456.27 1131.75,-456.27 1131.75,-456.27 1131.75,-447.33 1131.75,-447.33"/>
<polygon fill="#8dd3c7" stroke="#8dd3c7" stroke-width="2" points="1129.25,-445.83 1134.25,-445.83 1134.25,-446.83 1129.25,-446.83 1129.25,-445.83"/>
<polyline fill="none" stroke="#8dd3c7" stroke-width="2" points="1131.75,-445.33 1131.75,-447.83"/>
</g>
<!-- LLE8397&#45;&gt;LLE8324 -->
<!-- LLE8397&#45;&gt;LLE8341 -->
<g id="edge44" class="edge">
<title>LLE8397&#45;&gt;LLE8341</title>
<path fill="none" stroke="#fb8072" stroke-width="2" d="M1060.98,-449.93C1071.27,-449.93 1078.75,-449.93 1078.75,-449.93 1078.75,-449.93 1078.75,-332.56 1078.75,-332.56 1078.75,-332.56 1094.87,-332.56 1094.87,-332.56"/>
<polygon fill="#fb8072" stroke="#fb8072" stroke-width="2" points="1096.37,-330.06 1096.37,-335.06 1095.37,-335.06 1095.37,-330.06 1096.37,-330.06"/>
<polyline fill="none" stroke="#fb8072" stroke-width="2" points="1096.87,-332.56 1094.37,-332.56"/>
</g>
<!-- LLE8397&#45;&gt;LLE8341 -->
<!-- LSB7904 -->
<g id="node41" class="node">
<title>LSB7904</title>
<g id="a_node41"><a xlink:title="Desmistificação de idéias recebidas relativamente às línguas de sinais. A língua de sinais enquanto língua utilizada pela comunidade surda brasileira. Introdução à língua brasileira de sinais: usar a língua em contextos que exigem comunicação básica, como se apresentar, realizar perguntas, responder perguntas e dar informações sobre alguns aspectos pessoais (nome, endereço, telefone). Conhecer aspectos culturais específicos da comunidade surda brasileira.">
<polygon fill="#80b1d3" stroke="#80b1d3" points="1199.75,-565.38 1096.75,-565.38 1096.75,-462.62 1199.75,-462.62 1199.75,-565.38"/>
<text text-anchor="middle" x="1148.25" y="-548.08" font-family="Arial" font-size="14.00">LSB7904</text>
<text text-anchor="middle" x="1148.25" y="-516.33" font-family="Arial" font-size="14.00">Língua</text>
<text text-anchor="middle" x="1148.25" y="-500.57" font-family="Arial" font-size="14.00">Brasileira de</text>
<text text-anchor="middle" x="1148.25" y="-484.82" font-family="Arial" font-size="14.00">Sinais I (PCC</text>
<text text-anchor="middle" x="1148.25" y="-469.07" font-family="Arial" font-size="14.00">18horas&#45; aula)</text>
</a>
</g>
</g>
<!-- LLE8397&#45;&gt;LSB7904 -->
</g>
</svg>
