<?xml version="1.0" encoding="UTF-8" standalone="no"?>
<!DOCTYPE svg PUBLIC "-//W3C//DTD SVG 1.1//EN"
 "http://www.w3.org/Graphics/SVG/1.1/DTD/svg11.dtd">
<!-- Generated by graphviz version 9.0.0 (0)
 -->
<!-- Title: grafo_materias Pages: 1 -->
<svg width="1091pt" height="765pt"
 viewBox="0.00 0.00 1090.50 765.00" xmlns="http://www.w3.org/2000/svg" xmlns:xlink="http://www.w3.org/1999/xlink">
<g id="graph0" class="graph" transform="scale(1 1) rotate(0) translate(4 761)">
<title>grafo_materias</title>
<polygon fill="none" stroke="none" points="-4,4 -4,-761 1086.5,-761 1086.5,4 -4,4"/>
<g id="clust1" class="cluster">
<title>cluster_everything</title>
<polygon fill="none" stroke="none" points="8,-8 8,-749 1074.5,-749 1074.5,-8 8,-8"/>
</g>
<g id="clust2" class="cluster">
<title>cluster_header</title>
<polygon fill="none" stroke="none" points="24.22,-689 24.22,-741 1062.4,-741 1062.4,-689 24.22,-689"/>
</g>
<g id="clust3" class="cluster">
<title>cluster_0</title>
<polygon fill="none" stroke="none" points="16,-124 16,-647 149.25,-647 149.25,-124 16,-124"/>
</g>
<g id="clust4" class="cluster">
<title>cluster_1</title>
<polygon fill="none" stroke="none" points="169.25,-124 169.25,-647 302.5,-647 302.5,-124 169.25,-124"/>
</g>
<g id="clust5" class="cluster">
<title>cluster_2</title>
<polygon fill="none" stroke="none" points="322.5,-124 322.5,-663 455.75,-663 455.75,-124 322.5,-124"/>
</g>
<g id="clust6" class="cluster">
<title>cluster_3</title>
<polygon fill="none" stroke="none" points="475.75,-92 475.75,-681 612,-681 612,-92 475.75,-92"/>
</g>
<g id="clust7" class="cluster">
<title>cluster_4</title>
<polygon fill="none" stroke="none" points="632,-16 632,-587 768.25,-587 768.25,-16 632,-16"/>
</g>
<g id="clust8" class="cluster">
<title>cluster_5</title>
<polygon fill="none" stroke="none" points="788.25,-160 788.25,-610 921.5,-610 921.5,-160 788.25,-160"/>
</g>
<g id="clust9" class="cluster">
<title>cluster_6</title>
<polygon fill="none" stroke="none" points="941.5,-343 941.5,-657 1066.5,-657 1066.5,-343 941.5,-343"/>
</g>
<!-- 2ª Fase -->
<g id="node1" class="node">
<title>2ª Fase</title>
<polygon fill="lightgrey" stroke="black" points="133.03,-733 32.23,-733 32.23,-697 133.03,-697 133.03,-733"/>
<text text-anchor="middle" x="82.62" y="-709.58" font-family="Arial" font-size="14.00">2ª Fase</text>
</g>
<!-- 3ª Fase -->
<g id="node2" class="node">
<title>3ª Fase</title>
<polygon fill="lightgrey" stroke="black" points="286.27,-733 185.47,-733 185.47,-697 286.27,-697 286.27,-733"/>
<text text-anchor="middle" x="235.88" y="-709.58" font-family="Arial" font-size="14.00">3ª Fase</text>
</g>
<!-- 2ª Fase&#45;&gt;3ª Fase -->
<!-- 4ª Fase -->
<g id="node3" class="node">
<title>4ª Fase</title>
<polygon fill="lightgrey" stroke="black" points="439.52,-733 338.73,-733 338.73,-697 439.52,-697 439.52,-733"/>
<text text-anchor="middle" x="389.12" y="-709.58" font-family="Arial" font-size="14.00">4ª Fase</text>
</g>
<!-- 3ª Fase&#45;&gt;4ª Fase -->
<!-- 5ª Fase -->
<g id="node4" class="node">
<title>5ª Fase</title>
<polygon fill="lightgrey" stroke="black" points="594.27,-733 493.48,-733 493.48,-697 594.27,-697 594.27,-733"/>
<text text-anchor="middle" x="543.88" y="-709.58" font-family="Arial" font-size="14.00">5ª Fase</text>
</g>
<!-- 4ª Fase&#45;&gt;5ª Fase -->
<!-- 6ª Fase -->
<g id="node5" class="node">
<title>6ª Fase</title>
<polygon fill="lightgrey" stroke="black" points="750.52,-733 649.73,-733 649.73,-697 750.52,-697 750.52,-733"/>
<text text-anchor="middle" x="700.12" y="-709.58" font-family="Arial" font-size="14.00">6ª Fase</text>
</g>
<!-- 5ª Fase&#45;&gt;6ª Fase -->
<!-- 7ª Fase -->
<g id="node6" class="node">
<title>7ª Fase</title>
<polygon fill="lightgrey" stroke="black" points="905.27,-733 804.48,-733 804.48,-697 905.27,-697 905.27,-733"/>
<text text-anchor="middle" x="854.88" y="-709.58" font-family="Arial" font-size="14.00">7ª Fase</text>
</g>
<!-- 6ª Fase&#45;&gt;7ª Fase -->
<!-- 8ª Fase -->
<g id="node7" class="node">
<title>8ª Fase</title>
<polygon fill="lightgrey" stroke="black" points="1054.4,-733 953.6,-733 953.6,-697 1054.4,-697 1054.4,-733"/>
<text text-anchor="middle" x="1004" y="-709.58" font-family="Arial" font-size="14.00">8ª Fase</text>
</g>
<!-- 7ª Fase&#45;&gt;8ª Fase -->
<!-- LLE8021 -->
<g id="node8" class="node">
<title>LLE8021</title>
<polygon fill="#8dd3c7" stroke="#8dd3c7" points="133.03,-549.62 32.23,-549.62 32.23,-478.38 133.03,-478.38 133.03,-549.62"/>
<text text-anchor="middle" x="82.62" y="-532.33" font-family="Arial" font-size="14.00">LLE8021</text>
<text text-anchor="middle" x="82.62" y="-500.57" font-family="Arial" font-size="14.00">Estudos</text>
<text text-anchor="middle" x="82.62" y="-484.82" font-family="Arial" font-size="14.00">Literários II</text>
</g>
<!-- LLE8022 -->
<g id="node13" class="node">
<title>LLE8022</title>
<polygon fill="#8dd3c7" stroke="#8dd3c7" points="286.27,-460.62 185.47,-460.62 185.47,-389.38 286.27,-389.38 286.27,-460.62"/>
<text text-anchor="middle" x="235.88" y="-443.32" font-family="Arial" font-size="14.00">LLE8022</text>
<text text-anchor="middle" x="235.88" y="-411.57" font-family="Arial" font-size="14.00">Estudos</text>
<text text-anchor="middle" x="235.88" y="-395.82" font-family="Arial" font-size="14.00">Literários III</text>
</g>
<!-- LLE8021&#45;&gt;LLE8022 -->
<g id="edge7" class="edge">
<title>LLE8021&#45;&gt;LLE8022</title>
<path fill="none" stroke="#8dd3c7" stroke-width="2" d="M133.29,-487.28C135.31,-487.28 136.5,-487.28 136.5,-487.28 136.5,-487.28 136.5,-413.12 136.5,-413.12 136.5,-413.12 182.52,-413.12 182.52,-413.12"/>
<polygon fill="#8dd3c7" stroke="#8dd3c7" stroke-width="2" points="184.02,-410.63 184.02,-415.63 183.02,-415.63 183.02,-410.63 184.02,-410.63"/>
<polyline fill="none" stroke="#8dd3c7" stroke-width="2" points="184.52,-413.13 182.02,-413.13"/>
</g>
<!-- LLE8021&#45;&gt;LLE8022 -->
<!-- LLE8031 -->
<g id="node14" class="node">
<title>LLE8031</title>
<polygon fill="#8dd3c7" stroke="#8dd3c7" points="286.27,-549.62 185.47,-549.62 185.47,-478.38 286.27,-478.38 286.27,-549.62"/>
<text text-anchor="middle" x="235.88" y="-532.33" font-family="Arial" font-size="14.00">LLE8031</text>
<text text-anchor="middle" x="235.88" y="-500.57" font-family="Arial" font-size="14.00">Teorias da</text>
<text text-anchor="middle" x="235.88" y="-484.82" font-family="Arial" font-size="14.00">Tradução</text>
</g>
<!-- LLE8021&#45;&gt;LLE8031 -->
<!-- LLE8042 -->
<g id="node15" class="node">
<title>LLE8042</title>
<polygon fill="#8dd3c7" stroke="#8dd3c7" points="286.27,-638.62 185.47,-638.62 185.47,-567.38 286.27,-567.38 286.27,-638.62"/>
<text text-anchor="middle" x="235.88" y="-621.33" font-family="Arial" font-size="14.00">LLE8042</text>
<text text-anchor="middle" x="235.88" y="-589.58" font-family="Arial" font-size="14.00">Estudos</text>
<text text-anchor="middle" x="235.88" y="-573.83" font-family="Arial" font-size="14.00">Linguísticos II</text>
</g>
<!-- LLE8021&#45;&gt;LLE8042 -->
<!-- LLE8313 -->
<g id="node16" class="node">
<title>LLE8313</title>
<polygon fill="#8dd3c7" stroke="#8dd3c7" points="292.25,-234.38 179.5,-234.38 179.5,-131.62 292.25,-131.62 292.25,-234.38"/>
<text text-anchor="middle" x="235.88" y="-217.07" font-family="Arial" font-size="14.00">LLE8313</text>
<text text-anchor="middle" x="235.88" y="-185.32" font-family="Arial" font-size="14.00">Compreensão e</text>
<text text-anchor="middle" x="235.88" y="-169.57" font-family="Arial" font-size="14.00">Produção Oral</text>
<text text-anchor="middle" x="235.88" y="-153.82" font-family="Arial" font-size="14.00">em Língua</text>
<text text-anchor="middle" x="235.88" y="-138.07" font-family="Arial" font-size="14.00">Francesa III</text>
</g>
<!-- LLE8021&#45;&gt;LLE8313 -->
<!-- LLE8393 -->
<g id="node17" class="node">
<title>LLE8393</title>
<polygon fill="#8dd3c7" stroke="#8dd3c7" points="294.5,-371.25 177.25,-371.25 177.25,-252.75 294.5,-252.75 294.5,-371.25"/>
<text text-anchor="middle" x="235.88" y="-353.95" font-family="Arial" font-size="14.00">LLE8393</text>
<text text-anchor="middle" x="235.88" y="-322.2" font-family="Arial" font-size="14.00">Compreensão e</text>
<text text-anchor="middle" x="235.88" y="-306.45" font-family="Arial" font-size="14.00">Produção</text>
<text text-anchor="middle" x="235.88" y="-290.7" font-family="Arial" font-size="14.00">Escrita em</text>
<text text-anchor="middle" x="235.88" y="-274.95" font-family="Arial" font-size="14.00">Língua Francesa</text>
<text text-anchor="middle" x="235.88" y="-259.2" font-family="Arial" font-size="14.00">III</text>
</g>
<!-- LLE8021&#45;&gt;LLE8393 -->
<!-- LLE8023 -->
<g id="node19" class="node">
<title>LLE8023</title>
<polygon fill="#8dd3c7" stroke="#8dd3c7" points="439.52,-654.62 338.73,-654.62 338.73,-583.38 439.52,-583.38 439.52,-654.62"/>
<text text-anchor="middle" x="389.12" y="-637.33" font-family="Arial" font-size="14.00">LLE8023</text>
<text text-anchor="middle" x="389.12" y="-605.58" font-family="Arial" font-size="14.00">Estudos</text>
<text text-anchor="middle" x="389.12" y="-589.83" font-family="Arial" font-size="14.00">Literários IV</text>
</g>
<!-- LLE8021&#45;&gt;LLE8023 -->
<g id="edge12" class="edge">
<title>LLE8021&#45;&gt;LLE8023</title>
<path fill="none" stroke="#8dd3c7" stroke-width="2" d="M133.47,-540.72C147.77,-540.72 159.5,-540.72 159.5,-540.72 159.5,-540.72 159.5,-649.29 159.5,-649.29 159.5,-649.29 335.95,-649.29 335.95,-649.29"/>
<polygon fill="#8dd3c7" stroke="#8dd3c7" stroke-width="2" points="337.45,-646.79 337.45,-651.79 336.45,-651.79 336.45,-646.79 337.45,-646.79"/>
<polyline fill="none" stroke="#8dd3c7" stroke-width="2" points="337.95,-649.29 335.45,-649.29"/>
</g>
<!-- LLE8041 -->
<g id="node9" class="node">
<title>LLE8041</title>
<polygon fill="#8dd3c7" stroke="#8dd3c7" points="133.03,-638.62 32.23,-638.62 32.23,-567.38 133.03,-567.38 133.03,-638.62"/>
<text text-anchor="middle" x="82.62" y="-621.33" font-family="Arial" font-size="14.00">LLE8041</text>
<text text-anchor="middle" x="82.62" y="-589.58" font-family="Arial" font-size="14.00">Estudos</text>
<text text-anchor="middle" x="82.62" y="-573.83" font-family="Arial" font-size="14.00">Linguísticos I</text>
</g>
<!-- LLE8010 -->
<g id="node18" class="node">
<title>LLE8010</title>
<polygon fill="#8dd3c7" stroke="#8dd3c7" points="439.52,-565.5 338.73,-565.5 338.73,-478.5 439.52,-478.5 439.52,-565.5"/>
<text text-anchor="middle" x="389.12" y="-548.2" font-family="Arial" font-size="14.00">LLE8010</text>
<text text-anchor="middle" x="389.12" y="-516.45" font-family="Arial" font-size="14.00">Pesquisa em</text>
<text text-anchor="middle" x="389.12" y="-500.7" font-family="Arial" font-size="14.00">Letras</text>
<text text-anchor="middle" x="389.12" y="-484.95" font-family="Arial" font-size="14.00">Estrangeiras</text>
</g>
<!-- LLE8041&#45;&gt;LLE8010 -->
<g id="edge10" class="edge">
<title>LLE8041&#45;&gt;LLE8010</title>
<path fill="none" stroke="#8dd3c7" stroke-width="2" d="M83.5,-566.89C83.5,-562.88 83.5,-560.21 83.5,-560.21 83.5,-560.21 335.81,-560.21 335.81,-560.21"/>
<polygon fill="#8dd3c7" stroke="#8dd3c7" stroke-width="2" points="337.31,-557.71 337.31,-562.71 336.31,-562.71 336.31,-557.71 337.31,-557.71"/>
<polyline fill="none" stroke="#8dd3c7" stroke-width="2" points="337.81,-560.21 335.31,-560.21"/>
</g>
<!-- LLE8050 -->
<g id="node10" class="node">
<title>LLE8050</title>
<polygon fill="#8dd3c7" stroke="#8dd3c7" points="133.03,-460.62 32.23,-460.62 32.23,-389.38 133.03,-389.38 133.03,-460.62"/>
<text text-anchor="middle" x="82.62" y="-443.32" font-family="Arial" font-size="14.00">LLE8050</text>
<text text-anchor="middle" x="82.62" y="-411.57" font-family="Arial" font-size="14.00">Linguística</text>
<text text-anchor="middle" x="82.62" y="-395.82" font-family="Arial" font-size="14.00">Aplicada</text>
</g>
<!-- LLE8312 -->
<g id="node11" class="node">
<title>LLE8312</title>
<polygon fill="#8dd3c7" stroke="#8dd3c7" points="139,-234.38 26.25,-234.38 26.25,-131.62 139,-131.62 139,-234.38"/>
<text text-anchor="middle" x="82.62" y="-217.07" font-family="Arial" font-size="14.00">LLE8312</text>
<text text-anchor="middle" x="82.62" y="-185.32" font-family="Arial" font-size="14.00">Compreensão e</text>
<text text-anchor="middle" x="82.62" y="-169.57" font-family="Arial" font-size="14.00">Produção Oral</text>
<text text-anchor="middle" x="82.62" y="-153.82" font-family="Arial" font-size="14.00">em Língua</text>
<text text-anchor="middle" x="82.62" y="-138.07" font-family="Arial" font-size="14.00">Francesa II</text>
</g>
<!-- LLE8312&#45;&gt;LLE8313 -->
<g id="edge8" class="edge">
<title>LLE8312&#45;&gt;LLE8313</title>
<path fill="none" stroke="#8dd3c7" stroke-width="2" d="M139.25,-165.88C139.25,-165.88 176.72,-165.88 176.72,-165.88"/>
<polygon fill="#8dd3c7" stroke="#8dd3c7" stroke-width="2" points="178.22,-163.38 178.22,-168.38 177.22,-168.38 177.22,-163.38 178.22,-163.38"/>
<polyline fill="none" stroke="#8dd3c7" stroke-width="2" points="178.72,-165.88 176.22,-165.88"/>
</g>
<!-- LLE8392 -->
<g id="node12" class="node">
<title>LLE8392</title>
<polygon fill="#8dd3c7" stroke="#8dd3c7" points="141.25,-371.25 24,-371.25 24,-252.75 141.25,-252.75 141.25,-371.25"/>
<text text-anchor="middle" x="82.62" y="-353.95" font-family="Arial" font-size="14.00">LLE8392</text>
<text text-anchor="middle" x="82.62" y="-322.2" font-family="Arial" font-size="14.00">Compreensão e</text>
<text text-anchor="middle" x="82.62" y="-306.45" font-family="Arial" font-size="14.00">Produção</text>
<text text-anchor="middle" x="82.62" y="-290.7" font-family="Arial" font-size="14.00">Escrita em</text>
<text text-anchor="middle" x="82.62" y="-274.95" font-family="Arial" font-size="14.00">Língua Francesa</text>
<text text-anchor="middle" x="82.62" y="-259.2" font-family="Arial" font-size="14.00">II</text>
</g>
<!-- LLE8392&#45;&gt;LLE8393 -->
<g id="edge9" class="edge">
<title>LLE8392&#45;&gt;LLE8393</title>
<path fill="none" stroke="#8dd3c7" stroke-width="2" d="M141.44,-312C141.44,-312 174.47,-312 174.47,-312"/>
<polygon fill="#8dd3c7" stroke="#8dd3c7" stroke-width="2" points="175.97,-309.5 175.97,-314.5 174.97,-314.5 174.97,-309.5 175.97,-309.5"/>
<polyline fill="none" stroke="#8dd3c7" stroke-width="2" points="176.47,-312 173.97,-312"/>
</g>
<!-- LLE8032 -->
<g id="node20" class="node">
<title>LLE8032</title>
<polygon fill="#8dd3c7" stroke="#8dd3c7" points="439.52,-460.62 338.73,-460.62 338.73,-389.38 439.52,-389.38 439.52,-460.62"/>
<text text-anchor="middle" x="389.12" y="-443.32" font-family="Arial" font-size="14.00">LLE8032</text>
<text text-anchor="middle" x="389.12" y="-411.57" font-family="Arial" font-size="14.00">Prática de</text>
<text text-anchor="middle" x="389.12" y="-395.82" font-family="Arial" font-size="14.00">Tradução</text>
</g>
<!-- LLE8031&#45;&gt;LLE8032 -->
<g id="edge13" class="edge">
<title>LLE8031&#45;&gt;LLE8032</title>
<path fill="none" stroke="#8dd3c7" stroke-width="2" d="M286.43,-525.92C290.74,-525.92 293.5,-525.92 293.5,-525.92 293.5,-525.92 293.5,-442.81 293.5,-442.81 293.5,-442.81 335.73,-442.81 335.73,-442.81"/>
<polygon fill="#8dd3c7" stroke="#8dd3c7" stroke-width="2" points="337.23,-440.31 337.23,-445.31 336.23,-445.31 336.23,-440.31 337.23,-440.31"/>
<polyline fill="none" stroke="#8dd3c7" stroke-width="2" points="337.73,-442.81 335.23,-442.81"/>
</g>
<!-- LLE8314 -->
<g id="node21" class="node">
<title>LLE8314</title>
<polygon fill="#8dd3c7" stroke="#8dd3c7" points="445.5,-234.38 332.75,-234.38 332.75,-131.62 445.5,-131.62 445.5,-234.38"/>
<text text-anchor="middle" x="389.12" y="-217.07" font-family="Arial" font-size="14.00">LLE8314</text>
<text text-anchor="middle" x="389.12" y="-185.32" font-family="Arial" font-size="14.00">Compreensão e</text>
<text text-anchor="middle" x="389.12" y="-169.57" font-family="Arial" font-size="14.00">Produção Oral</text>
<text text-anchor="middle" x="389.12" y="-153.82" font-family="Arial" font-size="14.00">em Língua</text>
<text text-anchor="middle" x="389.12" y="-138.07" font-family="Arial" font-size="14.00">Francesa IV</text>
</g>
<!-- LLE8313&#45;&gt;LLE8314 -->
<g id="edge15" class="edge">
<title>LLE8313&#45;&gt;LLE8314</title>
<path fill="none" stroke="#8dd3c7" stroke-width="2" d="M292.5,-165.88C292.5,-165.88 329.97,-165.88 329.97,-165.88"/>
<polygon fill="#8dd3c7" stroke="#8dd3c7" stroke-width="2" points="331.47,-163.38 331.47,-168.38 330.47,-168.38 330.47,-163.38 331.47,-163.38"/>
<polyline fill="none" stroke="#8dd3c7" stroke-width="2" points="331.97,-165.88 329.47,-165.88"/>
</g>
<!-- LLE8393&#45;&gt;LLE8010 -->
<g id="edge11" class="edge">
<title>LLE8393&#45;&gt;LLE8010</title>
<path fill="none" stroke="#8dd3c7" stroke-width="2" d="M288.5,-371.66C288.5,-427.44 288.5,-502.21 288.5,-502.21 288.5,-502.21 336.02,-502.21 336.02,-502.21"/>
<polygon fill="#8dd3c7" stroke="#8dd3c7" stroke-width="2" points="337.52,-499.71 337.52,-504.71 336.52,-504.71 336.52,-499.71 337.52,-499.71"/>
<polyline fill="none" stroke="#8dd3c7" stroke-width="2" points="338.02,-502.21 335.52,-502.21"/>
</g>
<!-- LLE8393&#45;&gt;LLE8010 -->
<!-- LLE8393&#45;&gt;LLE8023 -->
<!-- LLE8393&#45;&gt;LLE8032 -->
<g id="edge14" class="edge">
<title>LLE8393&#45;&gt;LLE8032</title>
<path fill="none" stroke="#8dd3c7" stroke-width="2" d="M290.5,-371.48C290.5,-398.7 290.5,-425 290.5,-425 290.5,-425 335.87,-425 335.87,-425"/>
<polygon fill="#8dd3c7" stroke="#8dd3c7" stroke-width="2" points="337.37,-422.5 337.37,-427.5 336.37,-427.5 336.37,-422.5 337.37,-422.5"/>
<polyline fill="none" stroke="#8dd3c7" stroke-width="2" points="337.87,-425 335.37,-425"/>
</g>
<!-- LLE8393&#45;&gt;LLE8032 -->
<!-- LLE8393&#45;&gt;LLE8314 -->
<!-- LLE8394 -->
<g id="node22" class="node">
<title>LLE8394</title>
<polygon fill="#8dd3c7" stroke="#8dd3c7" points="447.75,-371.25 330.5,-371.25 330.5,-252.75 447.75,-252.75 447.75,-371.25"/>
<text text-anchor="middle" x="389.12" y="-353.95" font-family="Arial" font-size="14.00">LLE8394</text>
<text text-anchor="middle" x="389.12" y="-322.2" font-family="Arial" font-size="14.00">Compreensão e</text>
<text text-anchor="middle" x="389.12" y="-306.45" font-family="Arial" font-size="14.00">Produção</text>
<text text-anchor="middle" x="389.12" y="-290.7" font-family="Arial" font-size="14.00">Escrita em</text>
<text text-anchor="middle" x="389.12" y="-274.95" font-family="Arial" font-size="14.00">Língua Francesa</text>
<text text-anchor="middle" x="389.12" y="-259.2" font-family="Arial" font-size="14.00">IV</text>
</g>
<!-- LLE8393&#45;&gt;LLE8394 -->
<g id="edge16" class="edge">
<title>LLE8393&#45;&gt;LLE8394</title>
<path fill="none" stroke="#8dd3c7" stroke-width="2" d="M294.69,-312C294.69,-312 327.72,-312 327.72,-312"/>
<polygon fill="#8dd3c7" stroke="#8dd3c7" stroke-width="2" points="329.22,-309.5 329.22,-314.5 328.22,-314.5 328.22,-309.5 329.22,-309.5"/>
<polyline fill="none" stroke="#8dd3c7" stroke-width="2" points="329.72,-312 327.22,-312"/>
</g>
<!-- LLE8393&#45;&gt;LLE8394 -->
<!-- LLE8315 -->
<g id="node23" class="node">
<title>LLE8315</title>
<polygon fill="#8dd3c7" stroke="#8dd3c7" points="600.25,-428.38 487.5,-428.38 487.5,-325.62 600.25,-325.62 600.25,-428.38"/>
<text text-anchor="middle" x="543.88" y="-411.07" font-family="Arial" font-size="14.00">LLE8315</text>
<text text-anchor="middle" x="543.88" y="-379.32" font-family="Arial" font-size="14.00">Compreensão e</text>
<text text-anchor="middle" x="543.88" y="-363.57" font-family="Arial" font-size="14.00">Produção Oral</text>
<text text-anchor="middle" x="543.88" y="-347.82" font-family="Arial" font-size="14.00">em Língua</text>
<text text-anchor="middle" x="543.88" y="-332.07" font-family="Arial" font-size="14.00">Francesa V</text>
</g>
<!-- LLE8314&#45;&gt;LLE8315 -->
<g id="edge17" class="edge">
<title>LLE8314&#45;&gt;LLE8315</title>
<path fill="none" stroke="#8dd3c7" stroke-width="2" d="M445.9,-228.95C452.82,-228.95 457.5,-228.95 457.5,-228.95 457.5,-228.95 457.5,-337.03 457.5,-337.03 457.5,-337.03 484.73,-337.03 484.73,-337.03"/>
<polygon fill="#8dd3c7" stroke="#8dd3c7" stroke-width="2" points="486.23,-334.53 486.23,-339.53 485.23,-339.53 485.23,-334.53 486.23,-334.53"/>
<polyline fill="none" stroke="#8dd3c7" stroke-width="2" points="486.73,-337.03 484.23,-337.03"/>
</g>
<!-- LLE8321 -->
<g id="node24" class="node">
<title>LLE8321</title>
<polygon fill="#8dd3c7" stroke="#8dd3c7" points="594.27,-307.62 493.48,-307.62 493.48,-236.38 594.27,-236.38 594.27,-307.62"/>
<text text-anchor="middle" x="543.88" y="-290.32" font-family="Arial" font-size="14.00">LLE8321</text>
<text text-anchor="middle" x="543.88" y="-258.57" font-family="Arial" font-size="14.00">Literatura</text>
<text text-anchor="middle" x="543.88" y="-242.82" font-family="Arial" font-size="14.00">Francesa I</text>
</g>
<!-- LLE8314&#45;&gt;LLE8321 -->
<g id="edge19" class="edge">
<title>LLE8314&#45;&gt;LLE8321</title>
<path fill="none" stroke="#8dd3c7" stroke-width="2" d="M445.66,-226.27C490.08,-226.27 544.5,-226.27 544.5,-226.27 544.5,-226.27 544.5,-233.47 544.5,-233.47"/>
<polygon fill="#8dd3c7" stroke="#8dd3c7" stroke-width="2" points="547,-234.97 542,-234.97 542,-233.97 547,-233.97 547,-234.97"/>
<polyline fill="none" stroke="#8dd3c7" stroke-width="2" points="544.5,-235.47 544.5,-232.97"/>
</g>
<!-- LLE8395 -->
<g id="node25" class="node">
<title>LLE8395</title>
<polygon fill="#8dd3c7" stroke="#8dd3c7" points="602.5,-218.25 485.25,-218.25 485.25,-99.75 602.5,-99.75 602.5,-218.25"/>
<text text-anchor="middle" x="543.88" y="-200.95" font-family="Arial" font-size="14.00">LLE8395</text>
<text text-anchor="middle" x="543.88" y="-169.2" font-family="Arial" font-size="14.00">Compreensão e</text>
<text text-anchor="middle" x="543.88" y="-153.45" font-family="Arial" font-size="14.00">Produção</text>
<text text-anchor="middle" x="543.88" y="-137.7" font-family="Arial" font-size="14.00">Escrita em</text>
<text text-anchor="middle" x="543.88" y="-121.95" font-family="Arial" font-size="14.00">Língua Francesa</text>
<text text-anchor="middle" x="543.88" y="-106.2" font-family="Arial" font-size="14.00">V</text>
</g>
<!-- LLE8314&#45;&gt;LLE8395 -->
<g id="edge21" class="edge">
<title>LLE8314&#45;&gt;LLE8395</title>
<path fill="none" stroke="#8dd3c7" stroke-width="2" d="M445.87,-160.5C445.87,-160.5 482.3,-160.5 482.3,-160.5"/>
<polygon fill="#8dd3c7" stroke="#8dd3c7" stroke-width="2" points="483.8,-158 483.8,-163 482.8,-163 482.8,-158 483.8,-158"/>
<polyline fill="none" stroke="#8dd3c7" stroke-width="2" points="484.3,-160.5 481.8,-160.5"/>
</g>
<!-- LLE8394&#45;&gt;LLE8315 -->
<g id="edge18" class="edge">
<title>LLE8394&#45;&gt;LLE8315</title>
<path fill="none" stroke="#8dd3c7" stroke-width="2" d="M448.07,-348.44C448.07,-348.44 484.64,-348.44 484.64,-348.44"/>
<polygon fill="#8dd3c7" stroke="#8dd3c7" stroke-width="2" points="486.14,-345.94 486.14,-350.94 485.14,-350.94 485.14,-345.94 486.14,-345.94"/>
<polyline fill="none" stroke="#8dd3c7" stroke-width="2" points="486.64,-348.44 484.14,-348.44"/>
</g>
<!-- LLE8394&#45;&gt;LLE8315 -->
<!-- LLE8394&#45;&gt;LLE8321 -->
<g id="edge20" class="edge">
<title>LLE8394&#45;&gt;LLE8321</title>
<path fill="none" stroke="#8dd3c7" stroke-width="2" d="M448.07,-280.19C448.07,-280.19 490.68,-280.19 490.68,-280.19"/>
<polygon fill="#8dd3c7" stroke="#8dd3c7" stroke-width="2" points="492.18,-277.69 492.18,-282.69 491.18,-282.69 491.18,-277.69 492.18,-277.69"/>
<polyline fill="none" stroke="#8dd3c7" stroke-width="2" points="492.68,-280.19 490.18,-280.19"/>
</g>
<!-- LLE8394&#45;&gt;LLE8321 -->
<!-- LLE8394&#45;&gt;LLE8395 -->
<!-- MEN5604 -->
<g id="node26" class="node">
<title>MEN5604</title>
<g id="a_node26"><a xlink:title="&#45; Educação escolar como fenômeno histórico&#45;social. Currículo e trabalho pedagógico no contexto escolar. As relações de ensino&#45;aprendizagem em contexto escolar. Mediações pedagógicas e suas relações com o ensino da área específica do curso.">
<polygon fill="#80b1d3" stroke="#80b1d3" points="594.27,-672.62 493.48,-672.62 493.48,-601.38 594.27,-601.38 594.27,-672.62"/>
<text text-anchor="middle" x="543.88" y="-655.33" font-family="Arial" font-size="14.00">MEN5604</text>
<text text-anchor="middle" x="543.88" y="-623.58" font-family="Arial" font-size="14.00">Didática D &#45;</text>
<text text-anchor="middle" x="543.88" y="-607.83" font-family="Arial" font-size="14.00">(PCC 12 h&#45;a)</text>
</a>
</g>
</g>
<!-- LLE8394&#45;&gt;MEN5604 -->
<!-- PSI5137 -->
<g id="node27" class="node">
<title>PSI5137</title>
<g id="a_node27"><a xlink:title="Introdução à Psicologia como ciência: histórico, objetivo e métodos. Interações sociais no contexto educacional e o lugar do professor. Introdução ao estudo do desenvolvimento e de aprendizagem &#45; infância, adolescência, idade adulta. Contribuições da Psicologia na prática escolar cotidiana e na compreensão do fracasso escolar. Prática como componente curricular.">
<polygon fill="#fdb462" stroke="#fdb462" points="604,-565.25 483.75,-565.25 483.75,-446.75 604,-446.75 604,-565.25"/>
<text text-anchor="middle" x="543.88" y="-547.95" font-family="Arial" font-size="14.00">PSI5137</text>
<text text-anchor="middle" x="543.88" y="-516.2" font-family="Arial" font-size="14.00">Psicologia</text>
<text text-anchor="middle" x="543.88" y="-500.45" font-family="Arial" font-size="14.00">Educacional:</text>
<text text-anchor="middle" x="543.88" y="-484.7" font-family="Arial" font-size="14.00">Desenvolvimento</text>
<text text-anchor="middle" x="543.88" y="-468.95" font-family="Arial" font-size="14.00">e Aprendizagem</text>
<text text-anchor="middle" x="543.88" y="-453.2" font-family="Arial" font-size="14.00">(PCC 12h&#45;a)</text>
</a>
</g>
</g>
<!-- LLE8394&#45;&gt;PSI5137 -->
<!-- LLE8316 -->
<g id="node29" class="node">
<title>LLE8316</title>
<polygon fill="#8dd3c7" stroke="#8dd3c7" points="756.5,-473.38 643.75,-473.38 643.75,-370.62 756.5,-370.62 756.5,-473.38"/>
<text text-anchor="middle" x="700.12" y="-456.07" font-family="Arial" font-size="14.00">LLE8316</text>
<text text-anchor="middle" x="700.12" y="-424.32" font-family="Arial" font-size="14.00">Compreensão e</text>
<text text-anchor="middle" x="700.12" y="-408.57" font-family="Arial" font-size="14.00">Produção Oral</text>
<text text-anchor="middle" x="700.12" y="-392.82" font-family="Arial" font-size="14.00">em Língua</text>
<text text-anchor="middle" x="700.12" y="-377.07" font-family="Arial" font-size="14.00">Francesa VI</text>
</g>
<!-- LLE8315&#45;&gt;LLE8316 -->
<g id="edge22" class="edge">
<title>LLE8315&#45;&gt;LLE8316</title>
<path fill="none" stroke="#8dd3c7" stroke-width="2" d="M600.73,-399.5C600.73,-399.5 640.82,-399.5 640.82,-399.5"/>
<polygon fill="#8dd3c7" stroke="#8dd3c7" stroke-width="2" points="642.32,-397 642.32,-402 641.32,-402 641.32,-397 642.32,-397"/>
<polyline fill="none" stroke="#8dd3c7" stroke-width="2" points="642.82,-399.5 640.32,-399.5"/>
</g>
<!-- LLE8322 -->
<g id="node30" class="node">
<title>LLE8322</title>
<polygon fill="#8dd3c7" stroke="#8dd3c7" points="750.52,-231.62 649.73,-231.62 649.73,-160.38 750.52,-160.38 750.52,-231.62"/>
<text text-anchor="middle" x="700.12" y="-214.32" font-family="Arial" font-size="14.00">LLE8322</text>
<text text-anchor="middle" x="700.12" y="-182.57" font-family="Arial" font-size="14.00">Literatura</text>
<text text-anchor="middle" x="700.12" y="-166.82" font-family="Arial" font-size="14.00">Francesa II</text>
</g>
<!-- LLE8315&#45;&gt;LLE8322 -->
<g id="edge23" class="edge">
<title>LLE8315&#45;&gt;LLE8322</title>
<path fill="none" stroke="#8dd3c7" stroke-width="2" d="M600.65,-332.31C606.01,-332.31 609.5,-332.31 609.5,-332.31 609.5,-332.31 609.5,-220.93 609.5,-220.93 609.5,-220.93 646.75,-220.93 646.75,-220.93"/>
<polygon fill="#8dd3c7" stroke="#8dd3c7" stroke-width="2" points="648.25,-218.43 648.25,-223.43 647.25,-223.43 647.25,-218.43 648.25,-218.43"/>
<polyline fill="none" stroke="#8dd3c7" stroke-width="2" points="648.75,-220.93 646.25,-220.93"/>
</g>
<!-- MEN7060 -->
<g id="node32" class="node">
<title>MEN7060</title>
<g id="a_node32"><a xlink:title="Objetivos de ensino/aprendizagem. Seleção dos conteúdos. Estratégias e procedimentos didáticos. A problemática gramatical. Avaliação em LE. O ensino da civilização. Análise de materiais didáticos. Ensino da leitura. Abordagens metodológicas. As TICs em sala de aula de LE.">
<polygon fill="#80b1d3" stroke="#80b1d3" points="760.25,-352.38 640,-352.38 640,-249.62 760.25,-249.62 760.25,-352.38"/>
<text text-anchor="middle" x="700.12" y="-335.07" font-family="Arial" font-size="14.00">MEN7060</text>
<text text-anchor="middle" x="700.12" y="-303.32" font-family="Arial" font-size="14.00">Metodologia do</text>
<text text-anchor="middle" x="700.12" y="-287.57" font-family="Arial" font-size="14.00">Ensino de</text>
<text text-anchor="middle" x="700.12" y="-271.82" font-family="Arial" font-size="14.00">Francês (PCC 36</text>
<text text-anchor="middle" x="700.12" y="-256.07" font-family="Arial" font-size="14.00">h/a)</text>
</a>
</g>
</g>
<!-- LLE8315&#45;&gt;MEN7060 -->
<g id="edge26" class="edge">
<title>LLE8315&#45;&gt;MEN7060</title>
<path fill="none" stroke="#80b1d3" stroke-width="2" d="M600.73,-339C600.73,-339 637.13,-339 637.13,-339"/>
<polygon fill="#80b1d3" stroke="#80b1d3" stroke-width="2" points="638.63,-336.5 638.63,-341.5 637.63,-341.5 637.63,-336.5 638.63,-336.5"/>
<polyline fill="none" stroke="#80b1d3" stroke-width="2" points="639.13,-339 636.63,-339"/>
</g>
<!-- LLE8395&#45;&gt;LLE8322 -->
<g id="edge24" class="edge">
<title>LLE8395&#45;&gt;LLE8322</title>
<path fill="none" stroke="#8dd3c7" stroke-width="2" d="M602.95,-179.67C602.95,-179.67 646.9,-179.67 646.9,-179.67"/>
<polygon fill="#8dd3c7" stroke="#8dd3c7" stroke-width="2" points="648.4,-177.17 648.4,-182.17 647.4,-182.17 647.4,-177.17 648.4,-177.17"/>
<polyline fill="none" stroke="#8dd3c7" stroke-width="2" points="648.9,-179.67 646.4,-179.67"/>
</g>
<!-- LLE8396 -->
<g id="node31" class="node">
<title>LLE8396</title>
<polygon fill="#8dd3c7" stroke="#8dd3c7" points="758.75,-142.25 641.5,-142.25 641.5,-23.75 758.75,-23.75 758.75,-142.25"/>
<text text-anchor="middle" x="700.12" y="-124.95" font-family="Arial" font-size="14.00">LLE8396</text>
<text text-anchor="middle" x="700.12" y="-93.2" font-family="Arial" font-size="14.00">Compreensão e</text>
<text text-anchor="middle" x="700.12" y="-77.45" font-family="Arial" font-size="14.00">Produção</text>
<text text-anchor="middle" x="700.12" y="-61.7" font-family="Arial" font-size="14.00">Escrita em</text>
<text text-anchor="middle" x="700.12" y="-45.95" font-family="Arial" font-size="14.00">Língua Francesa</text>
<text text-anchor="middle" x="700.12" y="-30.2" font-family="Arial" font-size="14.00">VI</text>
</g>
<!-- LLE8395&#45;&gt;LLE8396 -->
<g id="edge25" class="edge">
<title>LLE8395&#45;&gt;LLE8396</title>
<path fill="none" stroke="#8dd3c7" stroke-width="2" d="M602.95,-113.92C602.95,-113.92 638.73,-113.92 638.73,-113.92"/>
<polygon fill="#8dd3c7" stroke="#8dd3c7" stroke-width="2" points="640.23,-111.42 640.23,-116.42 639.23,-116.42 639.23,-111.42 640.23,-111.42"/>
<polyline fill="none" stroke="#8dd3c7" stroke-width="2" points="640.73,-113.92 638.23,-113.92"/>
</g>
<!-- LLE8395&#45;&gt;MEN7060 -->
<g id="edge27" class="edge">
<title>LLE8395&#45;&gt;MEN7060</title>
<path fill="none" stroke="#80b1d3" stroke-width="2" d="M602.98,-198.96C625.79,-198.96 646.5,-198.96 646.5,-198.96 646.5,-198.96 646.5,-246.88 646.5,-246.88"/>
<polygon fill="#80b1d3" stroke="#80b1d3" stroke-width="2" points="649,-248.38 644,-248.38 644,-247.38 649,-247.38 649,-248.38"/>
<polyline fill="none" stroke="#80b1d3" stroke-width="2" points="646.5,-248.88 646.5,-246.38"/>
</g>
<!-- MEN7061 -->
<g id="node36" class="node">
<title>MEN7061</title>
<polygon fill="#80b1d3" stroke="#80b1d3" points="909.38,-601.5 800.38,-601.5 800.38,-514.5 909.38,-514.5 909.38,-601.5"/>
<text text-anchor="middle" x="854.88" y="-584.2" font-family="Arial" font-size="14.00">MEN7061</text>
<text text-anchor="middle" x="854.88" y="-552.45" font-family="Arial" font-size="14.00">Estágio</text>
<text text-anchor="middle" x="854.88" y="-536.7" font-family="Arial" font-size="14.00">Supervisionado</text>
<text text-anchor="middle" x="854.88" y="-520.95" font-family="Arial" font-size="14.00">I &#45; Francês</text>
</g>
<!-- MEN5604&#45;&gt;MEN7061 -->
<g id="edge35" class="edge">
<title>MEN5604&#45;&gt;MEN7061</title>
<path fill="none" stroke="#80b1d3" stroke-width="2" d="M544.5,-601.17C544.5,-598.53 544.5,-596.88 544.5,-596.88 544.5,-596.88 797.6,-596.88 797.6,-596.88"/>
<polygon fill="#80b1d3" stroke="#80b1d3" stroke-width="2" points="799.1,-594.38 799.1,-599.38 798.1,-599.38 798.1,-594.38 799.1,-594.38"/>
<polyline fill="none" stroke="#80b1d3" stroke-width="2" points="799.6,-596.88 797.1,-596.88"/>
</g>
<!-- PSI5137&#45;&gt;PSI5137 -->
<!-- EED8007 -->
<g id="node28" class="node">
<title>EED8007</title>
<polygon fill="#ffffb3" stroke="#ffffb3" points="750.52,-578.5 649.73,-578.5 649.73,-491.5 750.52,-491.5 750.52,-578.5"/>
<text text-anchor="middle" x="700.12" y="-561.2" font-family="Arial" font-size="14.00">EED8007</text>
<text text-anchor="middle" x="700.12" y="-529.45" font-family="Arial" font-size="14.00">Organização</text>
<text text-anchor="middle" x="700.12" y="-513.7" font-family="Arial" font-size="14.00">Escolar (PCC</text>
<text text-anchor="middle" x="700.12" y="-497.95" font-family="Arial" font-size="14.00">18h&#45;a)</text>
</g>
<!-- PSI5137&#45;&gt;EED8007 -->
<!-- PSI5137&#45;&gt;LLE8316 -->
<!-- PSI5137&#45;&gt;LLE8322 -->
<!-- PSI5137&#45;&gt;LLE8396 -->
<!-- PSI5137&#45;&gt;MEN7060 -->
<!-- LLE8317 -->
<g id="node33" class="node">
<title>LLE8317</title>
<polygon fill="#8dd3c7" stroke="#8dd3c7" points="911.25,-496.38 798.5,-496.38 798.5,-393.62 911.25,-393.62 911.25,-496.38"/>
<text text-anchor="middle" x="854.88" y="-479.07" font-family="Arial" font-size="14.00">LLE8317</text>
<text text-anchor="middle" x="854.88" y="-447.32" font-family="Arial" font-size="14.00">Compreensão e</text>
<text text-anchor="middle" x="854.88" y="-431.57" font-family="Arial" font-size="14.00">Produção Oral</text>
<text text-anchor="middle" x="854.88" y="-415.82" font-family="Arial" font-size="14.00">em Língua</text>
<text text-anchor="middle" x="854.88" y="-400.07" font-family="Arial" font-size="14.00">Francesa VII</text>
</g>
<!-- PSI5137&#45;&gt;LLE8317 -->
<!-- LLE8323 -->
<g id="node34" class="node">
<title>LLE8323</title>
<polygon fill="#8dd3c7" stroke="#8dd3c7" points="905.27,-375.62 804.48,-375.62 804.48,-304.38 905.27,-304.38 905.27,-375.62"/>
<text text-anchor="middle" x="854.88" y="-358.32" font-family="Arial" font-size="14.00">LLE8323</text>
<text text-anchor="middle" x="854.88" y="-326.57" font-family="Arial" font-size="14.00">Literatura</text>
<text text-anchor="middle" x="854.88" y="-310.82" font-family="Arial" font-size="14.00">Francesa III</text>
</g>
<!-- PSI5137&#45;&gt;LLE8323 -->
<!-- LLE8397 -->
<g id="node35" class="node">
<title>LLE8397</title>
<polygon fill="#8dd3c7" stroke="#8dd3c7" points="913.5,-286.25 796.25,-286.25 796.25,-167.75 913.5,-167.75 913.5,-286.25"/>
<text text-anchor="middle" x="854.88" y="-268.95" font-family="Arial" font-size="14.00">LLE8397</text>
<text text-anchor="middle" x="854.88" y="-237.2" font-family="Arial" font-size="14.00">Compreensão e</text>
<text text-anchor="middle" x="854.88" y="-221.45" font-family="Arial" font-size="14.00">Produção</text>
<text text-anchor="middle" x="854.88" y="-205.7" font-family="Arial" font-size="14.00">Escrita em</text>
<text text-anchor="middle" x="854.88" y="-189.95" font-family="Arial" font-size="14.00">Língua Francesa</text>
<text text-anchor="middle" x="854.88" y="-174.2" font-family="Arial" font-size="14.00">VII</text>
</g>
<!-- PSI5137&#45;&gt;LLE8397 -->
<!-- PSI5137&#45;&gt;MEN7061 -->
<g id="edge37" class="edge">
<title>PSI5137&#45;&gt;MEN7061</title>
<path fill="none" stroke="#80b1d3" stroke-width="2" d="M598.5,-565.52C598.5,-580.48 598.5,-592.38 598.5,-592.38 598.5,-592.38 797.38,-592.38 797.38,-592.38"/>
<polygon fill="#80b1d3" stroke="#80b1d3" stroke-width="2" points="798.88,-589.88 798.88,-594.88 797.88,-594.88 797.88,-589.88 798.88,-589.88"/>
<polyline fill="none" stroke="#80b1d3" stroke-width="2" points="799.38,-592.38 796.88,-592.38"/>
</g>
<!-- PSI5137&#45;&gt;MEN7061 -->
<!-- EED8007&#45;&gt;MEN7061 -->
<g id="edge32" class="edge">
<title>EED8007&#45;&gt;MEN7061</title>
<path fill="none" stroke="#80b1d3" stroke-width="2" d="M750.8,-565.7C750.8,-565.7 797.59,-565.7 797.59,-565.7"/>
<polygon fill="#80b1d3" stroke="#80b1d3" stroke-width="2" points="799.09,-563.2 799.09,-568.2 798.09,-568.2 798.09,-563.2 799.09,-563.2"/>
<polyline fill="none" stroke="#80b1d3" stroke-width="2" points="799.59,-565.7 797.09,-565.7"/>
</g>
<!-- LLE8316&#45;&gt;LLE8323 -->
<g id="edge29" class="edge">
<title>LLE8316&#45;&gt;LLE8323</title>
<path fill="none" stroke="#8dd3c7" stroke-width="2" d="M756.66,-384.62C801.08,-384.62 855.5,-384.62 855.5,-384.62 855.5,-384.62 855.5,-378.52 855.5,-378.52"/>
<polygon fill="#8dd3c7" stroke="#8dd3c7" stroke-width="2" points="853,-377.02 858,-377.02 858,-378.02 853,-378.02 853,-377.02"/>
<polyline fill="none" stroke="#8dd3c7" stroke-width="2" points="855.5,-376.52 855.5,-379.02"/>
</g>
<!-- LLE8316&#45;&gt;MEN7061 -->
<g id="edge33" class="edge">
<title>LLE8316&#45;&gt;MEN7061</title>
<path fill="none" stroke="#80b1d3" stroke-width="2" d="M756.71,-446.79C765.37,-446.79 771.5,-446.79 771.5,-446.79 771.5,-446.79 771.5,-552.9 771.5,-552.9 771.5,-552.9 797.69,-552.9 797.69,-552.9"/>
<polygon fill="#80b1d3" stroke="#80b1d3" stroke-width="2" points="799.19,-550.4 799.19,-555.4 798.19,-555.4 798.19,-550.4 799.19,-550.4"/>
<polyline fill="none" stroke="#80b1d3" stroke-width="2" points="799.69,-552.9 797.19,-552.9"/>
</g>
<!-- LLE8396&#45;&gt;LLE8317 -->
<g id="edge28" class="edge">
<title>LLE8396&#45;&gt;LLE8317</title>
<path fill="none" stroke="#8dd3c7" stroke-width="2" d="M759.17,-83C774.35,-83 786.5,-83 786.5,-83 786.5,-83 786.5,-420.21 786.5,-420.21 786.5,-420.21 795.6,-420.21 795.6,-420.21"/>
<polygon fill="#8dd3c7" stroke="#8dd3c7" stroke-width="2" points="797.1,-417.71 797.1,-422.71 796.1,-422.71 796.1,-417.71 797.1,-417.71"/>
<polyline fill="none" stroke="#8dd3c7" stroke-width="2" points="797.6,-420.21 795.1,-420.21"/>
</g>
<!-- LLE8396&#45;&gt;LLE8323 -->
<g id="edge30" class="edge">
<title>LLE8396&#45;&gt;LLE8323</title>
<path fill="none" stroke="#8dd3c7" stroke-width="2" d="M759.03,-53.38C776.71,-53.38 791.5,-53.38 791.5,-53.38 791.5,-53.38 791.5,-320.38 791.5,-320.38 791.5,-320.38 801.52,-320.38 801.52,-320.38"/>
<polygon fill="#8dd3c7" stroke="#8dd3c7" stroke-width="2" points="803.02,-317.88 803.02,-322.88 802.02,-322.88 802.02,-317.88 803.02,-317.88"/>
<polyline fill="none" stroke="#8dd3c7" stroke-width="2" points="803.52,-320.38 801.02,-320.38"/>
</g>
<!-- LLE8396&#45;&gt;LLE8397 -->
<g id="edge31" class="edge">
<title>LLE8396&#45;&gt;LLE8397</title>
<path fill="none" stroke="#8dd3c7" stroke-width="2" d="M755.5,-142.71C755.5,-171.42 755.5,-199.69 755.5,-199.69 755.5,-199.69 793.42,-199.69 793.42,-199.69"/>
<polygon fill="#8dd3c7" stroke="#8dd3c7" stroke-width="2" points="794.92,-197.19 794.92,-202.19 793.92,-202.19 793.92,-197.19 794.92,-197.19"/>
<polyline fill="none" stroke="#8dd3c7" stroke-width="2" points="795.42,-199.69 792.92,-199.69"/>
</g>
<!-- LLE8396&#45;&gt;MEN7061 -->
<g id="edge34" class="edge">
<title>LLE8396&#45;&gt;MEN7061</title>
<path fill="none" stroke="#80b1d3" stroke-width="2" d="M758.83,-112.62C771.66,-112.62 781.5,-112.62 781.5,-112.62 781.5,-112.62 781.5,-527.3 781.5,-527.3 781.5,-527.3 797.52,-527.3 797.52,-527.3"/>
<polygon fill="#80b1d3" stroke="#80b1d3" stroke-width="2" points="799.02,-524.8 799.02,-529.8 798.02,-529.8 798.02,-524.8 799.02,-524.8"/>
<polyline fill="none" stroke="#80b1d3" stroke-width="2" points="799.52,-527.3 797.02,-527.3"/>
</g>
<!-- MEN7060&#45;&gt;MEN7061 -->
<g id="edge36" class="edge">
<title>MEN7060&#45;&gt;MEN7061</title>
<path fill="none" stroke="#80b1d3" stroke-width="2" d="M760.68,-336.38C769.94,-336.38 776.5,-336.38 776.5,-336.38 776.5,-336.38 776.5,-540.1 776.5,-540.1 776.5,-540.1 797.52,-540.1 797.52,-540.1"/>
<polygon fill="#80b1d3" stroke="#80b1d3" stroke-width="2" points="799.01,-537.6 799.02,-542.6 798.02,-542.6 798.01,-537.6 799.01,-537.6"/>
<polyline fill="none" stroke="#80b1d3" stroke-width="2" points="799.52,-540.1 797.02,-540.1"/>
</g>
<!-- LLE8324 -->
<g id="node37" class="node">
<title>LLE8324</title>
<polygon fill="#8dd3c7" stroke="#8dd3c7" points="1054.4,-422.62 953.6,-422.62 953.6,-351.38 1054.4,-351.38 1054.4,-422.62"/>
<text text-anchor="middle" x="1004" y="-405.32" font-family="Arial" font-size="14.00">LLE8324</text>
<text text-anchor="middle" x="1004" y="-373.57" font-family="Arial" font-size="14.00">Literatura</text>
<text text-anchor="middle" x="1004" y="-357.82" font-family="Arial" font-size="14.00">Francesa IV</text>
</g>
<!-- LLE8317&#45;&gt;LLE8324 -->
<g id="edge38" class="edge">
<title>LLE8317&#45;&gt;LLE8324</title>
<path fill="none" stroke="#8dd3c7" stroke-width="2" d="M911.68,-403.29C911.68,-403.29 950.72,-403.29 950.72,-403.29"/>
<polygon fill="#8dd3c7" stroke="#8dd3c7" stroke-width="2" points="952.22,-400.79 952.22,-405.79 951.22,-405.79 951.22,-400.79 952.22,-400.79"/>
<polyline fill="none" stroke="#8dd3c7" stroke-width="2" points="952.72,-403.29 950.22,-403.29"/>
</g>
<!-- LLE8397&#45;&gt;LLE8324 -->
<g id="edge39" class="edge">
<title>LLE8397&#45;&gt;LLE8324</title>
<path fill="none" stroke="#8dd3c7" stroke-width="2" d="M913.58,-227C955.5,-227 1004.5,-227 1004.5,-227 1004.5,-227 1004.5,-348.59 1004.5,-348.59"/>
<polygon fill="#8dd3c7" stroke="#8dd3c7" stroke-width="2" points="1007,-350.09 1002,-350.09 1002,-349.09 1007,-349.09 1007,-350.09"/>
<polyline fill="none" stroke="#8dd3c7" stroke-width="2" points="1004.5,-350.59 1004.5,-348.09"/>
</g>
<!-- MEN7061&#45;&gt;LLE8324 -->
<!-- LSB7244 -->
<g id="node38" class="node">
<title>LSB7244</title>
<g id="a_node38"><a xlink:title="Prática de conversação em Libras habilitando o aluno a se comunicar nível básico. Mitos e Crenças relacionadas à Língua Brasileira de Sinais (Libras) e aos Surdos. Noções sobre os estudos linguísticos das línguas de sinais em diferentes níveis da descrição linguística. Conceitos básicos da Língua Brasileira de Sinais como iconicidade e arbitrariedade e aspectos culturais e históricos específicos da comunidade surda brasileira. Educação de surdos, papéis dos professores e de intérpretes de libras&#45;português em uma perspectiva inclusiva. Atividades de prática como componente curricular aplicadas à comunicação em Libras.">
<polygon fill="#fb8072" stroke="#fb8072" points="1054.75,-543.38 953.25,-543.38 953.25,-440.62 1054.75,-440.62 1054.75,-543.38"/>
<text text-anchor="middle" x="1004" y="-526.08" font-family="Arial" font-size="14.00">LSB7244</text>
<text text-anchor="middle" x="1004" y="-494.32" font-family="Arial" font-size="14.00">Língua</text>
<text text-anchor="middle" x="1004" y="-478.57" font-family="Arial" font-size="14.00">Brasileira de</text>
<text text-anchor="middle" x="1004" y="-462.82" font-family="Arial" font-size="14.00">Sinais &#45; Libras</text>
<text text-anchor="middle" x="1004" y="-447.07" font-family="Arial" font-size="14.00">I (PCC 18h&#45;a)</text>
</a>
</g>
</g>
<!-- MEN7061&#45;&gt;LSB7244 -->
<!-- MEN7062 -->
<g id="node39" class="node">
<title>MEN7062</title>
<g id="a_node39"><a xlink:title="Experiência integral de docência &#45; do planejamento à avaliação &#45; em salas de aula de francês em escola básica ou em curso extracurriculares gratuitos oferecidos aos alunos das escolas básicas onde o francês não é disciplina curricular. Estruturação de projeto de ensino. Elaboração de planos de aula, de atividades de ensino&#45;aprendizagem e de avaliação.">
<polygon fill="#80b1d3" stroke="#80b1d3" points="1058.5,-648.5 949.5,-648.5 949.5,-561.5 1058.5,-561.5 1058.5,-648.5"/>
<text text-anchor="middle" x="1004" y="-631.2" font-family="Arial" font-size="14.00">MEN7062</text>
<text text-anchor="middle" x="1004" y="-599.45" font-family="Arial" font-size="14.00">Estágio</text>
<text text-anchor="middle" x="1004" y="-583.7" font-family="Arial" font-size="14.00">Supervisionado</text>
<text text-anchor="middle" x="1004" y="-567.95" font-family="Arial" font-size="14.00">II &#45; Francês</text>
</a>
</g>
</g>
<!-- MEN7061&#45;&gt;MEN7062 -->
<g id="edge40" class="edge">
<title>MEN7061&#45;&gt;MEN7062</title>
<path fill="none" stroke="#80b1d3" stroke-width="2" d="M909.56,-574.83C909.56,-574.83 946.82,-574.83 946.82,-574.83"/>
<polygon fill="#80b1d3" stroke="#80b1d3" stroke-width="2" points="948.32,-572.33 948.32,-577.33 947.32,-577.33 947.32,-572.33 948.32,-572.33"/>
<polyline fill="none" stroke="#80b1d3" stroke-width="2" points="948.82,-574.83 946.32,-574.83"/>
</g>
<!-- MEN7061&#45;&gt;MEN7062 -->
</g>
</svg>
