<?xml version="1.0" encoding="UTF-8" standalone="no"?>
<!DOCTYPE svg PUBLIC "-//W3C//DTD SVG 1.1//EN"
 "http://www.w3.org/Graphics/SVG/1.1/DTD/svg11.dtd">
<!-- Generated by graphviz version 9.0.0 (0)
 -->
<!-- Title: grafo_materias Pages: 1 -->
<svg width="607pt" height="658pt"
 viewBox="0.00 0.00 606.75 658.00" xmlns="http://www.w3.org/2000/svg" xmlns:xlink="http://www.w3.org/1999/xlink">
<g id="graph0" class="graph" transform="scale(1 1) rotate(0) translate(4 654)">
<title>grafo_materias</title>
<polygon fill="none" stroke="none" points="-4,4 -4,-654 602.75,-654 602.75,4 -4,4"/>
<g id="clust1" class="cluster">
<title>cluster_everything</title>
<polygon fill="none" stroke="none" points="8,-8 8,-642 590.75,-642 590.75,-8 8,-8"/>
</g>
<g id="clust2" class="cluster">
<title>cluster_header</title>
<polygon fill="none" stroke="none" points="21.98,-582 21.98,-634 580.9,-634 580.9,-582 21.98,-582"/>
</g>
<g id="clust3" class="cluster">
<title>cluster_0</title>
<polygon fill="none" stroke="none" points="16,-25 16,-564 144.75,-564 144.75,-25 16,-25"/>
</g>
<g id="clust4" class="cluster">
<title>cluster_1</title>
<polygon fill="none" stroke="none" points="164.75,-48 164.75,-572 293.5,-572 293.5,-48 164.75,-48"/>
</g>
<g id="clust5" class="cluster">
<title>cluster_2</title>
<polygon fill="none" stroke="none" points="313.5,-16 313.5,-540 442.25,-540 442.25,-16 313.5,-16"/>
</g>
<g id="clust6" class="cluster">
<title>cluster_3</title>
<polygon fill="none" stroke="none" points="462.25,-98 462.25,-574 582.75,-574 582.75,-98 462.25,-98"/>
</g>
<!-- 1ª Fase -->
<g id="node1" class="node">
<title>1ª Fase</title>
<polygon fill="lightgrey" stroke="black" points="130.78,-626 29.98,-626 29.98,-590 130.78,-590 130.78,-626"/>
<text text-anchor="middle" x="80.38" y="-602.58" font-family="Arial" font-size="14.00">1ª Fase</text>
</g>
<!-- 2ª Fase -->
<g id="node2" class="node">
<title>2ª Fase</title>
<polygon fill="lightgrey" stroke="black" points="279.52,-626 178.72,-626 178.72,-590 279.52,-590 279.52,-626"/>
<text text-anchor="middle" x="229.12" y="-602.58" font-family="Arial" font-size="14.00">2ª Fase</text>
</g>
<!-- 1ª Fase&#45;&gt;2ª Fase -->
<!-- 3ª Fase -->
<g id="node3" class="node">
<title>3ª Fase</title>
<polygon fill="lightgrey" stroke="black" points="428.27,-626 327.48,-626 327.48,-590 428.27,-590 428.27,-626"/>
<text text-anchor="middle" x="377.88" y="-602.58" font-family="Arial" font-size="14.00">3ª Fase</text>
</g>
<!-- 2ª Fase&#45;&gt;3ª Fase -->
<!-- 4ª Fase -->
<g id="node4" class="node">
<title>4ª Fase</title>
<polygon fill="lightgrey" stroke="black" points="572.9,-626 472.1,-626 472.1,-590 572.9,-590 572.9,-626"/>
<text text-anchor="middle" x="522.5" y="-602.58" font-family="Arial" font-size="14.00">4ª Fase</text>
</g>
<!-- 3ª Fase&#45;&gt;4ª Fase -->
<!-- LLE8020 -->
<g id="node5" class="node">
<title>LLE8020</title>
<polygon fill="#8dd3c7" stroke="#8dd3c7" points="130.78,-330.62 29.98,-330.62 29.98,-259.38 130.78,-259.38 130.78,-330.62"/>
<text text-anchor="middle" x="80.38" y="-313.32" font-family="Arial" font-size="14.00">LLE8020</text>
<text text-anchor="middle" x="80.38" y="-281.57" font-family="Arial" font-size="14.00">Estudos</text>
<text text-anchor="middle" x="80.38" y="-265.82" font-family="Arial" font-size="14.00">Literários I</text>
</g>
<!-- LLE8021 -->
<g id="node10" class="node">
<title>LLE8021</title>
<polygon fill="#8dd3c7" stroke="#8dd3c7" points="279.52,-563.62 178.72,-563.62 178.72,-492.38 279.52,-492.38 279.52,-563.62"/>
<text text-anchor="middle" x="229.12" y="-546.33" font-family="Arial" font-size="14.00">LLE8021</text>
<text text-anchor="middle" x="229.12" y="-514.58" font-family="Arial" font-size="14.00">Estudos</text>
<text text-anchor="middle" x="229.12" y="-498.82" font-family="Arial" font-size="14.00">Literários II</text>
</g>
<!-- LLE8020&#45;&gt;LLE8021 -->
<g id="edge4" class="edge">
<title>LLE8020&#45;&gt;LLE8021</title>
<path fill="none" stroke="#8dd3c7" stroke-width="2" d="M131.02,-320.45C137.95,-320.45 142.75,-320.45 142.75,-320.45 142.75,-320.45 142.75,-534.96 142.75,-534.96 142.75,-534.96 175.88,-534.96 175.88,-534.96"/>
<polygon fill="#8dd3c7" stroke="#8dd3c7" stroke-width="2" points="177.38,-532.46 177.38,-537.46 176.38,-537.46 176.38,-532.46 177.38,-532.46"/>
<polyline fill="none" stroke="#8dd3c7" stroke-width="2" points="177.88,-534.96 175.38,-534.96"/>
</g>
<!-- LLE8020&#45;&gt;LLE8021 -->
<!-- LLE8041 -->
<g id="node11" class="node">
<title>LLE8041</title>
<polygon fill="#8dd3c7" stroke="#8dd3c7" points="279.52,-216.62 178.72,-216.62 178.72,-145.38 279.52,-145.38 279.52,-216.62"/>
<text text-anchor="middle" x="229.12" y="-199.32" font-family="Arial" font-size="14.00">LLE8041</text>
<text text-anchor="middle" x="229.12" y="-167.57" font-family="Arial" font-size="14.00">Estudos</text>
<text text-anchor="middle" x="229.12" y="-151.82" font-family="Arial" font-size="14.00">Linguísticos I</text>
</g>
<!-- LLE8020&#45;&gt;LLE8041 -->
<!-- LLE8050 -->
<g id="node12" class="node">
<title>LLE8050</title>
<polygon fill="#8dd3c7" stroke="#8dd3c7" points="279.52,-127.62 178.72,-127.62 178.72,-56.38 279.52,-56.38 279.52,-127.62"/>
<text text-anchor="middle" x="229.12" y="-110.33" font-family="Arial" font-size="14.00">LLE8050</text>
<text text-anchor="middle" x="229.12" y="-78.58" font-family="Arial" font-size="14.00">Linguística</text>
<text text-anchor="middle" x="229.12" y="-62.83" font-family="Arial" font-size="14.00">Aplicada</text>
</g>
<!-- LLE8020&#45;&gt;LLE8050 -->
<!-- LLE8412 -->
<g id="node13" class="node">
<title>LLE8412</title>
<polygon fill="#8dd3c7" stroke="#8dd3c7" points="285.5,-337.38 172.75,-337.38 172.75,-234.62 285.5,-234.62 285.5,-337.38"/>
<text text-anchor="middle" x="229.12" y="-320.07" font-family="Arial" font-size="14.00">LLE8412</text>
<text text-anchor="middle" x="229.12" y="-288.32" font-family="Arial" font-size="14.00">Compreensão e</text>
<text text-anchor="middle" x="229.12" y="-272.57" font-family="Arial" font-size="14.00">Produção Oral</text>
<text text-anchor="middle" x="229.12" y="-256.82" font-family="Arial" font-size="14.00">em Língua</text>
<text text-anchor="middle" x="229.12" y="-241.07" font-family="Arial" font-size="14.00">Inglesa II</text>
</g>
<!-- LLE8020&#45;&gt;LLE8412 -->
<!-- LLE8492 -->
<g id="node14" class="node">
<title>LLE8492</title>
<polygon fill="#8dd3c7" stroke="#8dd3c7" points="285.5,-474.25 172.75,-474.25 172.75,-355.75 285.5,-355.75 285.5,-474.25"/>
<text text-anchor="middle" x="229.12" y="-456.95" font-family="Arial" font-size="14.00">LLE8492</text>
<text text-anchor="middle" x="229.12" y="-425.2" font-family="Arial" font-size="14.00">Compreensão e</text>
<text text-anchor="middle" x="229.12" y="-409.45" font-family="Arial" font-size="14.00">Produção</text>
<text text-anchor="middle" x="229.12" y="-393.7" font-family="Arial" font-size="14.00">Escrita em</text>
<text text-anchor="middle" x="229.12" y="-377.95" font-family="Arial" font-size="14.00">Língua Inglesa</text>
<text text-anchor="middle" x="229.12" y="-362.2" font-family="Arial" font-size="14.00">II</text>
</g>
<!-- LLE8020&#45;&gt;LLE8492 -->
<!-- LLE8030 -->
<g id="node6" class="node">
<title>LLE8030</title>
<polygon fill="#8dd3c7" stroke="#8dd3c7" points="130.78,-419.62 29.98,-419.62 29.98,-348.38 130.78,-348.38 130.78,-419.62"/>
<text text-anchor="middle" x="80.38" y="-402.32" font-family="Arial" font-size="14.00">LLE8030</text>
<text text-anchor="middle" x="80.38" y="-370.57" font-family="Arial" font-size="14.00">História da</text>
<text text-anchor="middle" x="80.38" y="-354.82" font-family="Arial" font-size="14.00">Tradução</text>
</g>
<!-- LLE8040 -->
<g id="node7" class="node">
<title>LLE8040</title>
<polygon fill="#8dd3c7" stroke="#8dd3c7" points="133,-120.5 27.75,-120.5 27.75,-33.5 133,-33.5 133,-120.5"/>
<text text-anchor="middle" x="80.38" y="-103.2" font-family="Arial" font-size="14.00">LLE8040</text>
<text text-anchor="middle" x="80.38" y="-71.45" font-family="Arial" font-size="14.00">Introdução aos</text>
<text text-anchor="middle" x="80.38" y="-55.7" font-family="Arial" font-size="14.00">Estudos da</text>
<text text-anchor="middle" x="80.38" y="-39.95" font-family="Arial" font-size="14.00">Linguagem</text>
</g>
<!-- LLE8040&#45;&gt;LLE8041 -->
<g id="edge5" class="edge">
<title>LLE8040&#45;&gt;LLE8041</title>
<path fill="none" stroke="#8dd3c7" stroke-width="2" d="M133.47,-99.12C151.76,-99.12 167.75,-99.12 167.75,-99.12 167.75,-99.12 167.75,-169.12 167.75,-169.12 167.75,-169.12 175.94,-169.12 175.94,-169.12"/>
<polygon fill="#8dd3c7" stroke="#8dd3c7" stroke-width="2" points="177.44,-166.63 177.44,-171.63 176.44,-171.63 176.44,-166.63 177.44,-166.63"/>
<polyline fill="none" stroke="#8dd3c7" stroke-width="2" points="177.94,-169.13 175.44,-169.13"/>
</g>
<!-- LLE8040&#45;&gt;LLE8050 -->
<g id="edge6" class="edge">
<title>LLE8040&#45;&gt;LLE8050</title>
<path fill="none" stroke="#8dd3c7" stroke-width="2" d="M133.24,-77.75C133.24,-77.75 175.93,-77.75 175.93,-77.75"/>
<polygon fill="#8dd3c7" stroke="#8dd3c7" stroke-width="2" points="177.43,-75.25 177.43,-80.25 176.43,-80.25 176.43,-75.25 177.43,-75.25"/>
<polyline fill="none" stroke="#8dd3c7" stroke-width="2" points="177.93,-77.75 175.43,-77.75"/>
</g>
<!-- LLE8042 -->
<g id="node17" class="node">
<title>LLE8042</title>
<polygon fill="#8dd3c7" stroke="#8dd3c7" points="428.27,-95.62 327.48,-95.62 327.48,-24.38 428.27,-24.38 428.27,-95.62"/>
<text text-anchor="middle" x="377.88" y="-78.33" font-family="Arial" font-size="14.00">LLE8042</text>
<text text-anchor="middle" x="377.88" y="-46.58" font-family="Arial" font-size="14.00">Estudos</text>
<text text-anchor="middle" x="377.88" y="-30.82" font-family="Arial" font-size="14.00">Linguísticos II</text>
</g>
<!-- LLE8040&#45;&gt;LLE8042 -->
<g id="edge11" class="edge">
<title>LLE8040&#45;&gt;LLE8042</title>
<path fill="none" stroke="#8dd3c7" stroke-width="2" d="M133.22,-44.94C133.22,-44.94 324.51,-44.94 324.51,-44.94"/>
<polygon fill="#8dd3c7" stroke="#8dd3c7" stroke-width="2" points="326.01,-42.44 326.01,-47.44 325.01,-47.44 325.01,-42.44 326.01,-42.44"/>
<polyline fill="none" stroke="#8dd3c7" stroke-width="2" points="326.51,-44.94 324.01,-44.94"/>
</g>
<!-- LLE8411 -->
<g id="node8" class="node">
<title>LLE8411</title>
<polygon fill="#8dd3c7" stroke="#8dd3c7" points="136.75,-241.38 24,-241.38 24,-138.62 136.75,-138.62 136.75,-241.38"/>
<text text-anchor="middle" x="80.38" y="-224.07" font-family="Arial" font-size="14.00">LLE8411</text>
<text text-anchor="middle" x="80.38" y="-192.32" font-family="Arial" font-size="14.00">Compreensão e</text>
<text text-anchor="middle" x="80.38" y="-176.57" font-family="Arial" font-size="14.00">Produção Oral</text>
<text text-anchor="middle" x="80.38" y="-160.82" font-family="Arial" font-size="14.00">em Língua</text>
<text text-anchor="middle" x="80.38" y="-145.07" font-family="Arial" font-size="14.00">Inglesa I</text>
</g>
<!-- LLE8411&#45;&gt;LLE8412 -->
<g id="edge7" class="edge">
<title>LLE8411&#45;&gt;LLE8412</title>
<path fill="none" stroke="#8dd3c7" stroke-width="2" d="M136.85,-225.62C179.15,-225.62 229.75,-225.62 229.75,-225.62 229.75,-225.62 229.75,-231.78 229.75,-231.78"/>
<polygon fill="#8dd3c7" stroke="#8dd3c7" stroke-width="2" points="232.25,-233.28 227.25,-233.28 227.25,-232.28 232.25,-232.28 232.25,-233.28"/>
<polyline fill="none" stroke="#8dd3c7" stroke-width="2" points="229.75,-233.78 229.75,-231.28"/>
</g>
<!-- LLE8413 -->
<g id="node18" class="node">
<title>LLE8413</title>
<polygon fill="#8dd3c7" stroke="#8dd3c7" points="434.25,-216.38 321.5,-216.38 321.5,-113.62 434.25,-113.62 434.25,-216.38"/>
<text text-anchor="middle" x="377.88" y="-199.07" font-family="Arial" font-size="14.00">LLE8413</text>
<text text-anchor="middle" x="377.88" y="-167.32" font-family="Arial" font-size="14.00">Compreensão e</text>
<text text-anchor="middle" x="377.88" y="-151.57" font-family="Arial" font-size="14.00">Produção Oral</text>
<text text-anchor="middle" x="377.88" y="-135.82" font-family="Arial" font-size="14.00">em Língua</text>
<text text-anchor="middle" x="377.88" y="-120.08" font-family="Arial" font-size="14.00">Inglesa III</text>
</g>
<!-- LLE8411&#45;&gt;LLE8413 -->
<g id="edge12" class="edge">
<title>LLE8411&#45;&gt;LLE8413</title>
<path fill="none" stroke="#8dd3c7" stroke-width="2" d="M80.75,-138.37C80.75,-135.12 80.75,-133.12 80.75,-133.12 80.75,-133.12 318.79,-133.12 318.79,-133.12"/>
<polygon fill="#8dd3c7" stroke="#8dd3c7" stroke-width="2" points="320.29,-130.63 320.29,-135.63 319.29,-135.63 319.29,-130.63 320.29,-130.63"/>
<polyline fill="none" stroke="#8dd3c7" stroke-width="2" points="320.79,-133.13 318.29,-133.13"/>
</g>
<!-- LLE8491 -->
<g id="node9" class="node">
<title>LLE8491</title>
<polygon fill="#8dd3c7" stroke="#8dd3c7" points="136.75,-556.25 24,-556.25 24,-437.75 136.75,-437.75 136.75,-556.25"/>
<text text-anchor="middle" x="80.38" y="-538.95" font-family="Arial" font-size="14.00">LLE8491</text>
<text text-anchor="middle" x="80.38" y="-507.2" font-family="Arial" font-size="14.00">Compreensão e</text>
<text text-anchor="middle" x="80.38" y="-491.45" font-family="Arial" font-size="14.00">Produção</text>
<text text-anchor="middle" x="80.38" y="-475.7" font-family="Arial" font-size="14.00">Escrita em</text>
<text text-anchor="middle" x="80.38" y="-459.95" font-family="Arial" font-size="14.00">Língua Inglesa</text>
<text text-anchor="middle" x="80.38" y="-444.2" font-family="Arial" font-size="14.00">I</text>
</g>
<!-- LLE8491&#45;&gt;LLE8492 -->
<g id="edge8" class="edge">
<title>LLE8491&#45;&gt;LLE8492</title>
<path fill="none" stroke="#8dd3c7" stroke-width="2" d="M137.04,-456C137.04,-456 170.12,-456 170.12,-456"/>
<polygon fill="#8dd3c7" stroke="#8dd3c7" stroke-width="2" points="171.62,-453.5 171.62,-458.5 170.62,-458.5 170.62,-453.5 171.62,-453.5"/>
<polyline fill="none" stroke="#8dd3c7" stroke-width="2" points="172.12,-456 169.62,-456"/>
</g>
<!-- LLE8022 -->
<g id="node15" class="node">
<title>LLE8022</title>
<polygon fill="#8dd3c7" stroke="#8dd3c7" points="428.27,-531.62 327.48,-531.62 327.48,-460.38 428.27,-460.38 428.27,-531.62"/>
<text text-anchor="middle" x="377.88" y="-514.33" font-family="Arial" font-size="14.00">LLE8022</text>
<text text-anchor="middle" x="377.88" y="-482.57" font-family="Arial" font-size="14.00">Estudos</text>
<text text-anchor="middle" x="377.88" y="-466.82" font-family="Arial" font-size="14.00">Literários III</text>
</g>
<!-- LLE8021&#45;&gt;LLE8022 -->
<g id="edge9" class="edge">
<title>LLE8021&#45;&gt;LLE8022</title>
<path fill="none" stroke="#8dd3c7" stroke-width="2" d="M279.9,-518.54C279.9,-518.54 324.58,-518.54 324.58,-518.54"/>
<polygon fill="#8dd3c7" stroke="#8dd3c7" stroke-width="2" points="326.08,-516.04 326.08,-521.04 325.08,-521.04 325.08,-516.04 326.08,-516.04"/>
<polyline fill="none" stroke="#8dd3c7" stroke-width="2" points="326.58,-518.54 324.08,-518.54"/>
</g>
<!-- LLE8031 -->
<g id="node16" class="node">
<title>LLE8031</title>
<polygon fill="#8dd3c7" stroke="#8dd3c7" points="428.27,-442.62 327.48,-442.62 327.48,-371.38 428.27,-371.38 428.27,-442.62"/>
<text text-anchor="middle" x="377.88" y="-425.32" font-family="Arial" font-size="14.00">LLE8031</text>
<text text-anchor="middle" x="377.88" y="-393.57" font-family="Arial" font-size="14.00">Teorias da</text>
<text text-anchor="middle" x="377.88" y="-377.82" font-family="Arial" font-size="14.00">Tradução</text>
</g>
<!-- LLE8021&#45;&gt;LLE8031 -->
<g id="edge10" class="edge">
<title>LLE8021&#45;&gt;LLE8031</title>
<path fill="none" stroke="#8dd3c7" stroke-width="2" d="M279.92,-505.46C298.36,-505.46 314.75,-505.46 314.75,-505.46 314.75,-505.46 314.75,-418.88 314.75,-418.88 314.75,-418.88 324.72,-418.88 324.72,-418.88"/>
<polygon fill="#8dd3c7" stroke="#8dd3c7" stroke-width="2" points="326.22,-416.38 326.22,-421.38 325.22,-421.38 325.22,-416.38 326.22,-416.38"/>
<polyline fill="none" stroke="#8dd3c7" stroke-width="2" points="326.72,-418.88 324.22,-418.88"/>
</g>
<!-- LLE8023 -->
<g id="node21" class="node">
<title>LLE8023</title>
<polygon fill="#8dd3c7" stroke="#8dd3c7" points="572.9,-565.62 472.1,-565.62 472.1,-494.38 572.9,-494.38 572.9,-565.62"/>
<text text-anchor="middle" x="522.5" y="-548.33" font-family="Arial" font-size="14.00">LLE8023</text>
<text text-anchor="middle" x="522.5" y="-516.58" font-family="Arial" font-size="14.00">Estudos</text>
<text text-anchor="middle" x="522.5" y="-500.82" font-family="Arial" font-size="14.00">Literários IV</text>
</g>
<!-- LLE8021&#45;&gt;LLE8023 -->
<g id="edge16" class="edge">
<title>LLE8021&#45;&gt;LLE8023</title>
<path fill="none" stroke="#8dd3c7" stroke-width="2" d="M279.89,-547.62C279.89,-547.62 469.36,-547.62 469.36,-547.62"/>
<polygon fill="#8dd3c7" stroke="#8dd3c7" stroke-width="2" points="470.86,-545.13 470.86,-550.13 469.86,-550.13 469.86,-545.13 470.86,-545.13"/>
<polyline fill="none" stroke="#8dd3c7" stroke-width="2" points="471.36,-547.63 468.86,-547.63"/>
</g>
<!-- LLE8010 -->
<g id="node20" class="node">
<title>LLE8010</title>
<polygon fill="#8dd3c7" stroke="#8dd3c7" points="572.9,-476.5 472.1,-476.5 472.1,-389.5 572.9,-389.5 572.9,-476.5"/>
<text text-anchor="middle" x="522.5" y="-459.2" font-family="Arial" font-size="14.00">LLE8010</text>
<text text-anchor="middle" x="522.5" y="-427.45" font-family="Arial" font-size="14.00">Pesquisa em</text>
<text text-anchor="middle" x="522.5" y="-411.7" font-family="Arial" font-size="14.00">Letras</text>
<text text-anchor="middle" x="522.5" y="-395.95" font-family="Arial" font-size="14.00">Estrangeiras</text>
</g>
<!-- LLE8041&#45;&gt;LLE8010 -->
<g id="edge14" class="edge">
<title>LLE8041&#45;&gt;LLE8010</title>
<path fill="none" stroke="#8dd3c7" stroke-width="2" d="M279.87,-169.04C287.43,-169.04 292.75,-169.04 292.75,-169.04 292.75,-169.04 292.75,-451.5 292.75,-451.5 292.75,-451.5 469.3,-451.5 469.3,-451.5"/>
<polygon fill="#8dd3c7" stroke="#8dd3c7" stroke-width="2" points="470.8,-449 470.8,-454 469.8,-454 469.8,-449 470.8,-449"/>
<polyline fill="none" stroke="#8dd3c7" stroke-width="2" points="471.3,-451.5 468.8,-451.5"/>
</g>
<!-- LLE8492&#45;&gt;LLE8022 -->
<!-- LLE8492&#45;&gt;LLE8031 -->
<!-- LLE8492&#45;&gt;LLE8042 -->
<!-- LLE8492&#45;&gt;LLE8413 -->
<!-- LLE8493 -->
<g id="node19" class="node">
<title>LLE8493</title>
<polygon fill="#8dd3c7" stroke="#8dd3c7" points="434.25,-353.25 321.5,-353.25 321.5,-234.75 434.25,-234.75 434.25,-353.25"/>
<text text-anchor="middle" x="377.88" y="-335.95" font-family="Arial" font-size="14.00">LLE8493</text>
<text text-anchor="middle" x="377.88" y="-304.2" font-family="Arial" font-size="14.00">Compreensão e</text>
<text text-anchor="middle" x="377.88" y="-288.45" font-family="Arial" font-size="14.00">Produção</text>
<text text-anchor="middle" x="377.88" y="-272.7" font-family="Arial" font-size="14.00">Escrita em</text>
<text text-anchor="middle" x="377.88" y="-256.95" font-family="Arial" font-size="14.00">Língua Inglesa</text>
<text text-anchor="middle" x="377.88" y="-241.2" font-family="Arial" font-size="14.00">III</text>
</g>
<!-- LLE8492&#45;&gt;LLE8493 -->
<g id="edge13" class="edge">
<title>LLE8492&#45;&gt;LLE8493</title>
<path fill="none" stroke="#8dd3c7" stroke-width="2" d="M285.87,-363.56C318.37,-363.56 352.75,-363.56 352.75,-363.56 352.75,-363.56 352.75,-356.1 352.75,-356.1"/>
<polygon fill="#8dd3c7" stroke="#8dd3c7" stroke-width="2" points="350.25,-354.6 355.25,-354.6 355.25,-355.6 350.25,-355.6 350.25,-354.6"/>
<polyline fill="none" stroke="#8dd3c7" stroke-width="2" points="352.75,-354.1 352.75,-356.6"/>
</g>
<!-- LLE8492&#45;&gt;LLE8493 -->
<!-- LLE8032 -->
<g id="node22" class="node">
<title>LLE8032</title>
<polygon fill="#8dd3c7" stroke="#8dd3c7" points="572.9,-371.62 472.1,-371.62 472.1,-300.38 572.9,-300.38 572.9,-371.62"/>
<text text-anchor="middle" x="522.5" y="-354.32" font-family="Arial" font-size="14.00">LLE8032</text>
<text text-anchor="middle" x="522.5" y="-322.57" font-family="Arial" font-size="14.00">Prática de</text>
<text text-anchor="middle" x="522.5" y="-306.82" font-family="Arial" font-size="14.00">Tradução</text>
</g>
<!-- LLE8031&#45;&gt;LLE8032 -->
<g id="edge17" class="edge">
<title>LLE8031&#45;&gt;LLE8032</title>
<path fill="none" stroke="#8dd3c7" stroke-width="2" d="M403.75,-371.28C403.75,-369.7 403.75,-368.77 403.75,-368.77 403.75,-368.77 469.29,-368.77 469.29,-368.77"/>
<polygon fill="#8dd3c7" stroke="#8dd3c7" stroke-width="2" points="470.79,-366.27 470.79,-371.27 469.79,-371.27 469.79,-366.27 470.79,-366.27"/>
<polyline fill="none" stroke="#8dd3c7" stroke-width="2" points="471.29,-368.77 468.79,-368.77"/>
</g>
<!-- LLE8414 -->
<g id="node23" class="node">
<title>LLE8414</title>
<polygon fill="#8dd3c7" stroke="#8dd3c7" points="572.9,-282.5 472.1,-282.5 472.1,-195.5 572.9,-195.5 572.9,-282.5"/>
<text text-anchor="middle" x="522.5" y="-265.2" font-family="Arial" font-size="14.00">LLE8414</text>
<text text-anchor="middle" x="522.5" y="-233.45" font-family="Arial" font-size="14.00">Inglês IV:</text>
<text text-anchor="middle" x="522.5" y="-217.7" font-family="Arial" font-size="14.00">Oralidade e</text>
<text text-anchor="middle" x="522.5" y="-201.95" font-family="Arial" font-size="14.00">Escrita</text>
</g>
<!-- LLE8413&#45;&gt;LLE8414 -->
<g id="edge19" class="edge">
<title>LLE8413&#45;&gt;LLE8414</title>
<path fill="none" stroke="#8dd3c7" stroke-width="2" d="M434.62,-205.94C434.62,-205.94 469.53,-205.94 469.53,-205.94"/>
<polygon fill="#8dd3c7" stroke="#8dd3c7" stroke-width="2" points="471.03,-203.44 471.03,-208.44 470.03,-208.44 470.03,-203.44 471.03,-203.44"/>
<polyline fill="none" stroke="#8dd3c7" stroke-width="2" points="471.53,-205.94 469.03,-205.94"/>
</g>
<!-- LLE8494 -->
<g id="node24" class="node">
<title>LLE8494</title>
<polygon fill="#8dd3c7" stroke="#8dd3c7" points="574.75,-177.62 470.25,-177.62 470.25,-106.38 574.75,-106.38 574.75,-177.62"/>
<text text-anchor="middle" x="522.5" y="-160.32" font-family="Arial" font-size="14.00">LLE8494</text>
<text text-anchor="middle" x="522.5" y="-128.57" font-family="Arial" font-size="14.00">Gramática da</text>
<text text-anchor="middle" x="522.5" y="-112.83" font-family="Arial" font-size="14.00">Língua Inglesa</text>
</g>
<!-- LLE8413&#45;&gt;LLE8494 -->
<g id="edge21" class="edge">
<title>LLE8413&#45;&gt;LLE8494</title>
<path fill="none" stroke="#8dd3c7" stroke-width="2" d="M434.62,-129.62C434.62,-129.62 467.66,-129.62 467.66,-129.62"/>
<polygon fill="#8dd3c7" stroke="#8dd3c7" stroke-width="2" points="469.16,-127.13 469.16,-132.13 468.16,-132.13 468.16,-127.13 469.16,-127.13"/>
<polyline fill="none" stroke="#8dd3c7" stroke-width="2" points="469.66,-129.63 467.16,-129.63"/>
</g>
<!-- LLE8493&#45;&gt;LLE8010 -->
<g id="edge15" class="edge">
<title>LLE8493&#45;&gt;LLE8010</title>
<path fill="none" stroke="#8dd3c7" stroke-width="2" d="M434.48,-318C448.08,-318 458.75,-318 458.75,-318 458.75,-318 458.75,-424.92 458.75,-424.92 458.75,-424.92 469.15,-424.92 469.15,-424.92"/>
<polygon fill="#8dd3c7" stroke="#8dd3c7" stroke-width="2" points="470.65,-422.42 470.65,-427.42 469.65,-427.42 469.65,-422.42 470.65,-422.42"/>
<polyline fill="none" stroke="#8dd3c7" stroke-width="2" points="471.15,-424.92 468.65,-424.92"/>
</g>
<!-- LLE8493&#45;&gt;LLE8010 -->
<!-- LLE8493&#45;&gt;LLE8023 -->
<!-- LLE8493&#45;&gt;LLE8032 -->
<g id="edge18" class="edge">
<title>LLE8493&#45;&gt;LLE8032</title>
<path fill="none" stroke="#8dd3c7" stroke-width="2" d="M434.62,-335.62C434.62,-335.62 469.53,-335.62 469.53,-335.62"/>
<polygon fill="#8dd3c7" stroke="#8dd3c7" stroke-width="2" points="471.03,-333.13 471.03,-338.13 470.03,-338.13 470.03,-333.13 471.03,-333.13"/>
<polyline fill="none" stroke="#8dd3c7" stroke-width="2" points="471.53,-335.63 469.03,-335.63"/>
</g>
<!-- LLE8493&#45;&gt;LLE8032 -->
<!-- LLE8493&#45;&gt;LLE8414 -->
<g id="edge20" class="edge">
<title>LLE8493&#45;&gt;LLE8414</title>
<path fill="none" stroke="#8dd3c7" stroke-width="2" d="M434.62,-263.4C434.62,-263.4 469.53,-263.4 469.53,-263.4"/>
<polygon fill="#8dd3c7" stroke="#8dd3c7" stroke-width="2" points="471.03,-260.9 471.03,-265.9 470.03,-265.9 470.03,-260.9 471.03,-260.9"/>
<polyline fill="none" stroke="#8dd3c7" stroke-width="2" points="471.53,-263.4 469.03,-263.4"/>
</g>
<!-- LLE8493&#45;&gt;LLE8414 -->
<!-- LLE8493&#45;&gt;LLE8494 -->
<g id="edge22" class="edge">
<title>LLE8493&#45;&gt;LLE8494</title>
<path fill="none" stroke="#8dd3c7" stroke-width="2" d="M434.44,-244.3C441.75,-244.3 446.75,-244.3 446.75,-244.3 446.75,-244.3 446.75,-145.62 446.75,-145.62 446.75,-145.62 467.39,-145.62 467.39,-145.62"/>
<polygon fill="#8dd3c7" stroke="#8dd3c7" stroke-width="2" points="468.89,-143.13 468.89,-148.13 467.89,-148.13 467.89,-143.13 468.89,-143.13"/>
<polyline fill="none" stroke="#8dd3c7" stroke-width="2" points="469.39,-145.63 466.89,-145.63"/>
</g>
<!-- LLE8493&#45;&gt;LLE8494 -->
</g>
</svg>
