<?xml version="1.0" encoding="UTF-8" standalone="no"?>
<!DOCTYPE svg PUBLIC "-//W3C//DTD SVG 1.1//EN"
 "http://www.w3.org/Graphics/SVG/1.1/DTD/svg11.dtd">
<!-- Generated by graphviz version 9.0.0 (0)
 -->
<!-- Title: grafo_materias Pages: 1 -->
<svg width="583pt" height="594pt"
 viewBox="0.00 0.00 582.75 594.00" xmlns="http://www.w3.org/2000/svg" xmlns:xlink="http://www.w3.org/1999/xlink">
<g id="graph0" class="graph" transform="scale(1 1) rotate(0) translate(4 590)">
<title>grafo_materias</title>
<polygon fill="none" stroke="none" points="-4,4 -4,-590 578.75,-590 578.75,4 -4,4"/>
<g id="clust1" class="cluster">
<title>cluster_everything</title>
<polygon fill="none" stroke="none" points="8,-8 8,-578 566.75,-578 566.75,-8 8,-8"/>
</g>
<g id="clust2" class="cluster">
<title>cluster_header</title>
<polygon fill="none" stroke="none" points="18.23,-518 18.23,-570 556.9,-570 556.9,-518 18.23,-518"/>
</g>
<g id="clust3" class="cluster">
<title>cluster_0</title>
<polygon fill="none" stroke="none" points="16,-16 16,-492 137.25,-492 137.25,-16 16,-16"/>
</g>
<g id="clust4" class="cluster">
<title>cluster_1</title>
<polygon fill="none" stroke="none" points="157.25,-50 157.25,-510 277.75,-510 277.75,-50 157.25,-50"/>
</g>
<g id="clust5" class="cluster">
<title>cluster_2</title>
<polygon fill="none" stroke="none" points="297.75,-16 297.75,-476 418.25,-476 418.25,-16 297.75,-16"/>
</g>
<g id="clust6" class="cluster">
<title>cluster_3</title>
<polygon fill="none" stroke="none" points="438.25,-34 438.25,-510 558.75,-510 558.75,-34 438.25,-34"/>
</g>
<!-- 1ª Fase -->
<g id="node1" class="node">
<title>1ª Fase</title>
<polygon fill="lightgrey" stroke="black" points="127.03,-562 26.23,-562 26.23,-526 127.03,-526 127.03,-562"/>
<text text-anchor="middle" x="76.62" y="-538.58" font-family="Arial" font-size="14.00">1ª Fase</text>
</g>
<!-- 2ª Fase -->
<g id="node2" class="node">
<title>2ª Fase</title>
<polygon fill="lightgrey" stroke="black" points="267.9,-562 167.1,-562 167.1,-526 267.9,-526 267.9,-562"/>
<text text-anchor="middle" x="217.5" y="-538.58" font-family="Arial" font-size="14.00">2ª Fase</text>
</g>
<!-- 1ª Fase&#45;&gt;2ª Fase -->
<!-- 3ª Fase -->
<g id="node3" class="node">
<title>3ª Fase</title>
<polygon fill="lightgrey" stroke="black" points="408.4,-562 307.6,-562 307.6,-526 408.4,-526 408.4,-562"/>
<text text-anchor="middle" x="358" y="-538.58" font-family="Arial" font-size="14.00">3ª Fase</text>
</g>
<!-- 2ª Fase&#45;&gt;3ª Fase -->
<!-- 4ª Fase -->
<g id="node4" class="node">
<title>4ª Fase</title>
<polygon fill="lightgrey" stroke="black" points="548.9,-562 448.1,-562 448.1,-526 548.9,-526 548.9,-562"/>
<text text-anchor="middle" x="498.5" y="-538.58" font-family="Arial" font-size="14.00">4ª Fase</text>
</g>
<!-- 3ª Fase&#45;&gt;4ª Fase -->
<!-- LLE8020 -->
<g id="node5" class="node">
<title>LLE8020</title>
<polygon fill="#8dd3c7" stroke="#8dd3c7" points="127.03,-289.62 26.23,-289.62 26.23,-218.38 127.03,-218.38 127.03,-289.62"/>
<text text-anchor="middle" x="76.62" y="-272.32" font-family="Arial" font-size="14.00">LLE8020</text>
<text text-anchor="middle" x="76.62" y="-240.57" font-family="Arial" font-size="14.00">Estudos</text>
<text text-anchor="middle" x="76.62" y="-224.82" font-family="Arial" font-size="14.00">Literários I</text>
</g>
<!-- LLE8021 -->
<g id="node10" class="node">
<title>LLE8021</title>
<polygon fill="#8dd3c7" stroke="#8dd3c7" points="267.9,-218.62 167.1,-218.62 167.1,-147.38 267.9,-147.38 267.9,-218.62"/>
<text text-anchor="middle" x="217.5" y="-201.32" font-family="Arial" font-size="14.00">LLE8021</text>
<text text-anchor="middle" x="217.5" y="-169.57" font-family="Arial" font-size="14.00">Estudos</text>
<text text-anchor="middle" x="217.5" y="-153.82" font-family="Arial" font-size="14.00">Literários II</text>
</g>
<!-- LLE8020&#45;&gt;LLE8021 -->
<g id="edge4" class="edge">
<title>LLE8020&#45;&gt;LLE8021</title>
<path fill="none" stroke="#8dd3c7" stroke-width="2" d="M60.75,-217.97C60.75,-211.34 60.75,-206.46 60.75,-206.46 60.75,-206.46 164.11,-206.46 164.11,-206.46"/>
<polygon fill="#8dd3c7" stroke="#8dd3c7" stroke-width="2" points="165.61,-203.96 165.61,-208.96 164.61,-208.96 164.61,-203.96 165.61,-203.96"/>
<polyline fill="none" stroke="#8dd3c7" stroke-width="2" points="166.11,-206.46 163.61,-206.46"/>
</g>
<!-- LLE8020&#45;&gt;LLE8021 -->
<!-- LLE8041 -->
<g id="node11" class="node">
<title>LLE8041</title>
<polygon fill="#8dd3c7" stroke="#8dd3c7" points="267.9,-129.62 167.1,-129.62 167.1,-58.38 267.9,-58.38 267.9,-129.62"/>
<text text-anchor="middle" x="217.5" y="-112.33" font-family="Arial" font-size="14.00">LLE8041</text>
<text text-anchor="middle" x="217.5" y="-80.58" font-family="Arial" font-size="14.00">Estudos</text>
<text text-anchor="middle" x="217.5" y="-64.83" font-family="Arial" font-size="14.00">Linguísticos I</text>
</g>
<!-- LLE8020&#45;&gt;LLE8041 -->
<!-- LLE8050 -->
<g id="node12" class="node">
<title>LLE8050</title>
<polygon fill="#8dd3c7" stroke="#8dd3c7" points="267.9,-307.62 167.1,-307.62 167.1,-236.38 267.9,-236.38 267.9,-307.62"/>
<text text-anchor="middle" x="217.5" y="-290.32" font-family="Arial" font-size="14.00">LLE8050</text>
<text text-anchor="middle" x="217.5" y="-258.57" font-family="Arial" font-size="14.00">Linguística</text>
<text text-anchor="middle" x="217.5" y="-242.82" font-family="Arial" font-size="14.00">Aplicada</text>
</g>
<!-- LLE8020&#45;&gt;LLE8050 -->
<!-- LLE8512 -->
<g id="node13" class="node">
<title>LLE8512</title>
<polygon fill="#8dd3c7" stroke="#8dd3c7" points="269.75,-501.62 165.25,-501.62 165.25,-430.38 269.75,-430.38 269.75,-501.62"/>
<text text-anchor="middle" x="217.5" y="-484.32" font-family="Arial" font-size="14.00">LLE8512</text>
<text text-anchor="middle" x="217.5" y="-452.57" font-family="Arial" font-size="14.00">Língua Italiana</text>
<text text-anchor="middle" x="217.5" y="-436.82" font-family="Arial" font-size="14.00">II</text>
</g>
<!-- LLE8020&#45;&gt;LLE8512 -->
<!-- LLE8592 -->
<g id="node14" class="node">
<title>LLE8592</title>
<polygon fill="#8dd3c7" stroke="#8dd3c7" points="269.75,-412.5 165.25,-412.5 165.25,-325.5 269.75,-325.5 269.75,-412.5"/>
<text text-anchor="middle" x="217.5" y="-395.2" font-family="Arial" font-size="14.00">LLE8592</text>
<text text-anchor="middle" x="217.5" y="-363.45" font-family="Arial" font-size="14.00">Língua Italiana</text>
<text text-anchor="middle" x="217.5" y="-347.7" font-family="Arial" font-size="14.00">Oral e Escrita</text>
<text text-anchor="middle" x="217.5" y="-331.95" font-family="Arial" font-size="14.00">II</text>
</g>
<!-- LLE8020&#45;&gt;LLE8592 -->
<!-- LLE8030 -->
<g id="node6" class="node">
<title>LLE8030</title>
<polygon fill="#8dd3c7" stroke="#8dd3c7" points="127.03,-95.62 26.23,-95.62 26.23,-24.38 127.03,-24.38 127.03,-95.62"/>
<text text-anchor="middle" x="76.62" y="-78.33" font-family="Arial" font-size="14.00">LLE8030</text>
<text text-anchor="middle" x="76.62" y="-46.58" font-family="Arial" font-size="14.00">História da</text>
<text text-anchor="middle" x="76.62" y="-30.82" font-family="Arial" font-size="14.00">Tradução</text>
</g>
<!-- LLE8031 -->
<g id="node16" class="node">
<title>LLE8031</title>
<polygon fill="#8dd3c7" stroke="#8dd3c7" points="408.4,-95.62 307.6,-95.62 307.6,-24.38 408.4,-24.38 408.4,-95.62"/>
<text text-anchor="middle" x="358" y="-78.33" font-family="Arial" font-size="14.00">LLE8031</text>
<text text-anchor="middle" x="358" y="-46.58" font-family="Arial" font-size="14.00">Teorias da</text>
<text text-anchor="middle" x="358" y="-30.82" font-family="Arial" font-size="14.00">Tradução</text>
</g>
<!-- LLE8030&#45;&gt;LLE8031 -->
<g id="edge11" class="edge">
<title>LLE8030&#45;&gt;LLE8031</title>
<path fill="none" stroke="#8dd3c7" stroke-width="2" d="M127.25,-41.38C127.25,-41.38 304.8,-41.38 304.8,-41.38"/>
<polygon fill="#8dd3c7" stroke="#8dd3c7" stroke-width="2" points="306.3,-38.88 306.3,-43.88 305.3,-43.88 305.3,-38.88 306.3,-38.88"/>
<polyline fill="none" stroke="#8dd3c7" stroke-width="2" points="306.8,-41.38 304.3,-41.38"/>
</g>
<!-- LLE8040 -->
<g id="node7" class="node">
<title>LLE8040</title>
<polygon fill="#8dd3c7" stroke="#8dd3c7" points="129.25,-200.5 24,-200.5 24,-113.5 129.25,-113.5 129.25,-200.5"/>
<text text-anchor="middle" x="76.62" y="-183.2" font-family="Arial" font-size="14.00">LLE8040</text>
<text text-anchor="middle" x="76.62" y="-151.45" font-family="Arial" font-size="14.00">Introdução aos</text>
<text text-anchor="middle" x="76.62" y="-135.7" font-family="Arial" font-size="14.00">Estudos da</text>
<text text-anchor="middle" x="76.62" y="-119.95" font-family="Arial" font-size="14.00">Linguagem</text>
</g>
<!-- LLE8040&#45;&gt;LLE8041 -->
<g id="edge5" class="edge">
<title>LLE8040&#45;&gt;LLE8041</title>
<path fill="none" stroke="#8dd3c7" stroke-width="2" d="M129.48,-118.88C129.48,-118.88 164.18,-118.88 164.18,-118.88"/>
<polygon fill="#8dd3c7" stroke="#8dd3c7" stroke-width="2" points="165.68,-116.38 165.68,-121.38 164.68,-121.38 164.68,-116.38 165.68,-116.38"/>
<polyline fill="none" stroke="#8dd3c7" stroke-width="2" points="166.18,-118.88 163.68,-118.88"/>
</g>
<!-- LLE8042 -->
<g id="node17" class="node">
<title>LLE8042</title>
<polygon fill="#8dd3c7" stroke="#8dd3c7" points="408.4,-184.62 307.6,-184.62 307.6,-113.38 408.4,-113.38 408.4,-184.62"/>
<text text-anchor="middle" x="358" y="-167.32" font-family="Arial" font-size="14.00">LLE8042</text>
<text text-anchor="middle" x="358" y="-135.57" font-family="Arial" font-size="14.00">Estudos</text>
<text text-anchor="middle" x="358" y="-119.83" font-family="Arial" font-size="14.00">Linguísticos II</text>
</g>
<!-- LLE8040&#45;&gt;LLE8042 -->
<g id="edge12" class="edge">
<title>LLE8040&#45;&gt;LLE8042</title>
<path fill="none" stroke="#8dd3c7" stroke-width="2" d="M129.55,-138.5C129.55,-138.5 304.71,-138.5 304.71,-138.5"/>
<polygon fill="#8dd3c7" stroke="#8dd3c7" stroke-width="2" points="306.21,-136 306.21,-141 305.21,-141 305.21,-136 306.21,-136"/>
<polyline fill="none" stroke="#8dd3c7" stroke-width="2" points="306.71,-138.5 304.21,-138.5"/>
</g>
<!-- LLE8511 -->
<g id="node8" class="node">
<title>LLE8511</title>
<polygon fill="#8dd3c7" stroke="#8dd3c7" points="128.88,-483.62 24.38,-483.62 24.38,-412.38 128.88,-412.38 128.88,-483.62"/>
<text text-anchor="middle" x="76.62" y="-466.32" font-family="Arial" font-size="14.00">LLE8511</text>
<text text-anchor="middle" x="76.62" y="-434.57" font-family="Arial" font-size="14.00">Língua Italiana</text>
<text text-anchor="middle" x="76.62" y="-418.82" font-family="Arial" font-size="14.00">I</text>
</g>
<!-- LLE8511&#45;&gt;LLE8512 -->
<g id="edge6" class="edge">
<title>LLE8511&#45;&gt;LLE8512</title>
<path fill="none" stroke="#8dd3c7" stroke-width="2" d="M129.08,-470.31C129.08,-470.31 162.5,-470.31 162.5,-470.31"/>
<polygon fill="#8dd3c7" stroke="#8dd3c7" stroke-width="2" points="164,-467.81 164,-472.81 163,-472.81 163,-467.81 164,-467.81"/>
<polyline fill="none" stroke="#8dd3c7" stroke-width="2" points="164.5,-470.31 162,-470.31"/>
</g>
<!-- LLE8511&#45;&gt;LLE8592 -->
<g id="edge9" class="edge">
<title>LLE8511&#45;&gt;LLE8592</title>
<path fill="none" stroke="#8dd3c7" stroke-width="2" d="M76.75,-412.03C76.75,-406.96 76.75,-403.44 76.75,-403.44 76.75,-403.44 162.59,-403.44 162.59,-403.44"/>
<polygon fill="#8dd3c7" stroke="#8dd3c7" stroke-width="2" points="164.09,-400.94 164.09,-405.94 163.09,-405.94 163.09,-400.94 164.09,-400.94"/>
<polyline fill="none" stroke="#8dd3c7" stroke-width="2" points="164.59,-403.44 162.09,-403.44"/>
</g>
<!-- LLE8591 -->
<g id="node9" class="node">
<title>LLE8591</title>
<polygon fill="#8dd3c7" stroke="#8dd3c7" points="128.88,-394.5 24.38,-394.5 24.38,-307.5 128.88,-307.5 128.88,-394.5"/>
<text text-anchor="middle" x="76.62" y="-377.2" font-family="Arial" font-size="14.00">LLE8591</text>
<text text-anchor="middle" x="76.62" y="-345.45" font-family="Arial" font-size="14.00">Língua Italiana</text>
<text text-anchor="middle" x="76.62" y="-329.7" font-family="Arial" font-size="14.00">Oral e Escrita</text>
<text text-anchor="middle" x="76.62" y="-313.95" font-family="Arial" font-size="14.00">I</text>
</g>
<!-- LLE8591&#45;&gt;LLE8512 -->
<g id="edge7" class="edge">
<title>LLE8591&#45;&gt;LLE8512</title>
<path fill="none" stroke="#8dd3c7" stroke-width="2" d="M129.18,-377.25C137.68,-377.25 143.75,-377.25 143.75,-377.25 143.75,-377.25 143.75,-457 143.75,-457 143.75,-457 162.58,-457 162.58,-457"/>
<polygon fill="#8dd3c7" stroke="#8dd3c7" stroke-width="2" points="164.08,-454.5 164.08,-459.5 163.08,-459.5 163.08,-454.5 164.08,-454.5"/>
<polyline fill="none" stroke="#8dd3c7" stroke-width="2" points="164.58,-457 162.08,-457"/>
</g>
<!-- LLE8591&#45;&gt;LLE8592 -->
<g id="edge8" class="edge">
<title>LLE8591&#45;&gt;LLE8592</title>
<path fill="none" stroke="#8dd3c7" stroke-width="2" d="M129.08,-360C129.08,-360 162.5,-360 162.5,-360"/>
<polygon fill="#8dd3c7" stroke="#8dd3c7" stroke-width="2" points="164,-357.5 164,-362.5 163,-362.5 163,-357.5 164,-357.5"/>
<polyline fill="none" stroke="#8dd3c7" stroke-width="2" points="164.5,-360 162,-360"/>
</g>
<!-- LLE8022 -->
<g id="node15" class="node">
<title>LLE8022</title>
<polygon fill="#8dd3c7" stroke="#8dd3c7" points="408.4,-273.62 307.6,-273.62 307.6,-202.38 408.4,-202.38 408.4,-273.62"/>
<text text-anchor="middle" x="358" y="-256.32" font-family="Arial" font-size="14.00">LLE8022</text>
<text text-anchor="middle" x="358" y="-224.57" font-family="Arial" font-size="14.00">Estudos</text>
<text text-anchor="middle" x="358" y="-208.82" font-family="Arial" font-size="14.00">Literários III</text>
</g>
<!-- LLE8021&#45;&gt;LLE8022 -->
<g id="edge10" class="edge">
<title>LLE8021&#45;&gt;LLE8022</title>
<path fill="none" stroke="#8dd3c7" stroke-width="2" d="M268.22,-210.5C268.22,-210.5 304.85,-210.5 304.85,-210.5"/>
<polygon fill="#8dd3c7" stroke="#8dd3c7" stroke-width="2" points="306.35,-208 306.35,-213 305.35,-213 305.35,-208 306.35,-208"/>
<polyline fill="none" stroke="#8dd3c7" stroke-width="2" points="306.85,-210.5 304.35,-210.5"/>
</g>
<!-- LLE8023 -->
<g id="node21" class="node">
<title>LLE8023</title>
<polygon fill="#8dd3c7" stroke="#8dd3c7" points="548.9,-501.62 448.1,-501.62 448.1,-430.38 548.9,-430.38 548.9,-501.62"/>
<text text-anchor="middle" x="498.5" y="-484.32" font-family="Arial" font-size="14.00">LLE8023</text>
<text text-anchor="middle" x="498.5" y="-452.57" font-family="Arial" font-size="14.00">Estudos</text>
<text text-anchor="middle" x="498.5" y="-436.82" font-family="Arial" font-size="14.00">Literários IV</text>
</g>
<!-- LLE8021&#45;&gt;LLE8023 -->
<g id="edge19" class="edge">
<title>LLE8021&#45;&gt;LLE8023</title>
<path fill="none" stroke="#8dd3c7" stroke-width="2" d="M268.3,-188.18C326.74,-188.18 414.75,-188.18 414.75,-188.18 414.75,-188.18 414.75,-442.75 414.75,-442.75 414.75,-442.75 445.35,-442.75 445.35,-442.75"/>
<polygon fill="#8dd3c7" stroke="#8dd3c7" stroke-width="2" points="446.85,-440.25 446.85,-445.25 445.85,-445.25 445.85,-440.25 446.85,-440.25"/>
<polyline fill="none" stroke="#8dd3c7" stroke-width="2" points="447.35,-442.75 444.85,-442.75"/>
</g>
<!-- LLE8010 -->
<g id="node20" class="node">
<title>LLE8010</title>
<polygon fill="#8dd3c7" stroke="#8dd3c7" points="548.9,-412.5 448.1,-412.5 448.1,-325.5 548.9,-325.5 548.9,-412.5"/>
<text text-anchor="middle" x="498.5" y="-395.2" font-family="Arial" font-size="14.00">LLE8010</text>
<text text-anchor="middle" x="498.5" y="-363.45" font-family="Arial" font-size="14.00">Pesquisa em</text>
<text text-anchor="middle" x="498.5" y="-347.7" font-family="Arial" font-size="14.00">Letras</text>
<text text-anchor="middle" x="498.5" y="-331.95" font-family="Arial" font-size="14.00">Estrangeiras</text>
</g>
<!-- LLE8041&#45;&gt;LLE8010 -->
<g id="edge17" class="edge">
<title>LLE8041&#45;&gt;LLE8010</title>
<path fill="none" stroke="#8dd3c7" stroke-width="2" d="M268.2,-100.06C329.56,-100.06 424.75,-100.06 424.75,-100.06 424.75,-100.06 424.75,-344.06 424.75,-344.06 424.75,-344.06 445.18,-344.06 445.18,-344.06"/>
<polygon fill="#8dd3c7" stroke="#8dd3c7" stroke-width="2" points="446.68,-341.56 446.68,-346.56 445.68,-346.56 445.68,-341.56 446.68,-341.56"/>
<polyline fill="none" stroke="#8dd3c7" stroke-width="2" points="447.18,-344.06 444.68,-344.06"/>
</g>
<!-- LLE8513 -->
<g id="node18" class="node">
<title>LLE8513</title>
<polygon fill="#8dd3c7" stroke="#8dd3c7" points="410.25,-362.62 305.75,-362.62 305.75,-291.38 410.25,-291.38 410.25,-362.62"/>
<text text-anchor="middle" x="358" y="-345.32" font-family="Arial" font-size="14.00">LLE8513</text>
<text text-anchor="middle" x="358" y="-313.57" font-family="Arial" font-size="14.00">Língua Italiana</text>
<text text-anchor="middle" x="358" y="-297.82" font-family="Arial" font-size="14.00">III</text>
</g>
<!-- LLE8512&#45;&gt;LLE8513 -->
<g id="edge13" class="edge">
<title>LLE8512&#45;&gt;LLE8513</title>
<path fill="none" stroke="#8dd3c7" stroke-width="2" d="M269.88,-442.75C285.6,-442.75 298.75,-442.75 298.75,-442.75 298.75,-442.75 298.75,-357.32 298.75,-357.32 298.75,-357.32 303.05,-357.32 303.05,-357.32"/>
<polygon fill="#8dd3c7" stroke="#8dd3c7" stroke-width="2" points="304.55,-354.82 304.55,-359.82 303.55,-359.82 303.55,-354.82 304.55,-354.82"/>
<polyline fill="none" stroke="#8dd3c7" stroke-width="2" points="305.05,-357.32 302.55,-357.32"/>
</g>
<!-- LLE8593 -->
<g id="node19" class="node">
<title>LLE8593</title>
<polygon fill="#8dd3c7" stroke="#8dd3c7" points="410.25,-467.5 305.75,-467.5 305.75,-380.5 410.25,-380.5 410.25,-467.5"/>
<text text-anchor="middle" x="358" y="-450.2" font-family="Arial" font-size="14.00">LLE8593</text>
<text text-anchor="middle" x="358" y="-418.45" font-family="Arial" font-size="14.00">Língua Italiana</text>
<text text-anchor="middle" x="358" y="-402.7" font-family="Arial" font-size="14.00">Oral e Escrita</text>
<text text-anchor="middle" x="358" y="-386.95" font-family="Arial" font-size="14.00">III</text>
</g>
<!-- LLE8512&#45;&gt;LLE8593 -->
<g id="edge16" class="edge">
<title>LLE8512&#45;&gt;LLE8593</title>
<path fill="none" stroke="#8dd3c7" stroke-width="2" d="M270.22,-455.12C270.22,-455.12 302.96,-455.12 302.96,-455.12"/>
<polygon fill="#8dd3c7" stroke="#8dd3c7" stroke-width="2" points="304.45,-452.63 304.46,-457.63 303.46,-457.63 303.45,-452.63 304.45,-452.63"/>
<polyline fill="none" stroke="#8dd3c7" stroke-width="2" points="304.96,-455.13 302.46,-455.13"/>
</g>
<!-- LLE8592&#45;&gt;LLE8022 -->
<!-- LLE8592&#45;&gt;LLE8031 -->
<!-- LLE8592&#45;&gt;LLE8042 -->
<!-- LLE8592&#45;&gt;LLE8513 -->
<g id="edge14" class="edge">
<title>LLE8592&#45;&gt;LLE8513</title>
<path fill="none" stroke="#8dd3c7" stroke-width="2" d="M270.22,-346.71C270.22,-346.71 302.96,-346.71 302.96,-346.71"/>
<polygon fill="#8dd3c7" stroke="#8dd3c7" stroke-width="2" points="304.45,-344.21 304.46,-349.21 303.46,-349.21 303.45,-344.21 304.45,-344.21"/>
<polyline fill="none" stroke="#8dd3c7" stroke-width="2" points="304.96,-346.71 302.46,-346.71"/>
</g>
<!-- LLE8592&#45;&gt;LLE8513 -->
<!-- LLE8592&#45;&gt;LLE8593 -->
<g id="edge15" class="edge">
<title>LLE8592&#45;&gt;LLE8593</title>
<path fill="none" stroke="#8dd3c7" stroke-width="2" d="M270.22,-391.17C270.22,-391.17 302.96,-391.17 302.96,-391.17"/>
<polygon fill="#8dd3c7" stroke="#8dd3c7" stroke-width="2" points="304.45,-388.67 304.46,-393.67 303.46,-393.67 303.45,-388.67 304.45,-388.67"/>
<polyline fill="none" stroke="#8dd3c7" stroke-width="2" points="304.96,-391.17 302.46,-391.17"/>
</g>
<!-- LLE8592&#45;&gt;LLE8593 -->
<!-- LLE8032 -->
<g id="node22" class="node">
<title>LLE8032</title>
<polygon fill="#8dd3c7" stroke="#8dd3c7" points="548.9,-113.62 448.1,-113.62 448.1,-42.38 548.9,-42.38 548.9,-113.62"/>
<text text-anchor="middle" x="498.5" y="-96.33" font-family="Arial" font-size="14.00">LLE8032</text>
<text text-anchor="middle" x="498.5" y="-64.58" font-family="Arial" font-size="14.00">Prática de</text>
<text text-anchor="middle" x="498.5" y="-48.83" font-family="Arial" font-size="14.00">Tradução</text>
</g>
<!-- LLE8031&#45;&gt;LLE8032 -->
<g id="edge20" class="edge">
<title>LLE8031&#45;&gt;LLE8032</title>
<path fill="none" stroke="#8dd3c7" stroke-width="2" d="M408.72,-69C408.72,-69 445.35,-69 445.35,-69"/>
<polygon fill="#8dd3c7" stroke="#8dd3c7" stroke-width="2" points="446.85,-66.5 446.85,-71.5 445.85,-71.5 445.85,-66.5 446.85,-66.5"/>
<polyline fill="none" stroke="#8dd3c7" stroke-width="2" points="447.35,-69 444.85,-69"/>
</g>
<!-- LLE8514 -->
<g id="node23" class="node">
<title>LLE8514</title>
<polygon fill="#8dd3c7" stroke="#8dd3c7" points="550.75,-202.62 446.25,-202.62 446.25,-131.38 550.75,-131.38 550.75,-202.62"/>
<text text-anchor="middle" x="498.5" y="-185.32" font-family="Arial" font-size="14.00">LLE8514</text>
<text text-anchor="middle" x="498.5" y="-153.57" font-family="Arial" font-size="14.00">Língua Italiana</text>
<text text-anchor="middle" x="498.5" y="-137.82" font-family="Arial" font-size="14.00">IV</text>
</g>
<!-- LLE8513&#45;&gt;LLE8514 -->
<g id="edge22" class="edge">
<title>LLE8513&#45;&gt;LLE8514</title>
<path fill="none" stroke="#8dd3c7" stroke-width="2" d="M410.53,-294.6C420.95,-294.6 428.75,-294.6 428.75,-294.6 428.75,-294.6 428.75,-191.72 428.75,-191.72 428.75,-191.72 443.49,-191.72 443.49,-191.72"/>
<polygon fill="#8dd3c7" stroke="#8dd3c7" stroke-width="2" points="444.99,-189.23 444.99,-194.23 443.99,-194.23 443.99,-189.23 444.99,-189.23"/>
<polyline fill="none" stroke="#8dd3c7" stroke-width="2" points="445.49,-191.73 442.99,-191.73"/>
</g>
<!-- LLE8594 -->
<g id="node24" class="node">
<title>LLE8594</title>
<polygon fill="#8dd3c7" stroke="#8dd3c7" points="550.75,-307.5 446.25,-307.5 446.25,-220.5 550.75,-220.5 550.75,-307.5"/>
<text text-anchor="middle" x="498.5" y="-290.2" font-family="Arial" font-size="14.00">LLE8594</text>
<text text-anchor="middle" x="498.5" y="-258.45" font-family="Arial" font-size="14.00">Língua Italiana</text>
<text text-anchor="middle" x="498.5" y="-242.7" font-family="Arial" font-size="14.00">Oral e Escrita</text>
<text text-anchor="middle" x="498.5" y="-226.95" font-family="Arial" font-size="14.00">IV</text>
</g>
<!-- LLE8513&#45;&gt;LLE8594 -->
<g id="edge24" class="edge">
<title>LLE8513&#45;&gt;LLE8594</title>
<path fill="none" stroke="#8dd3c7" stroke-width="2" d="M410.72,-297.82C410.72,-297.82 443.46,-297.82 443.46,-297.82"/>
<polygon fill="#8dd3c7" stroke="#8dd3c7" stroke-width="2" points="444.95,-295.33 444.96,-300.33 443.96,-300.33 443.95,-295.33 444.95,-295.33"/>
<polyline fill="none" stroke="#8dd3c7" stroke-width="2" points="445.46,-297.83 442.96,-297.83"/>
</g>
<!-- LLE8593&#45;&gt;LLE8010 -->
<g id="edge18" class="edge">
<title>LLE8593&#45;&gt;LLE8010</title>
<path fill="none" stroke="#8dd3c7" stroke-width="2" d="M410.72,-405.39C410.72,-405.39 445.32,-405.39 445.32,-405.39"/>
<polygon fill="#8dd3c7" stroke="#8dd3c7" stroke-width="2" points="446.82,-402.89 446.82,-407.89 445.82,-407.89 445.82,-402.89 446.82,-402.89"/>
<polyline fill="none" stroke="#8dd3c7" stroke-width="2" points="447.32,-405.39 444.82,-405.39"/>
</g>
<!-- LLE8593&#45;&gt;LLE8010 -->
<!-- LLE8593&#45;&gt;LLE8023 -->
<!-- LLE8593&#45;&gt;LLE8032 -->
<g id="edge21" class="edge">
<title>LLE8593&#45;&gt;LLE8032</title>
<path fill="none" stroke="#8dd3c7" stroke-width="2" d="M410.42,-384.06C414.89,-384.06 417.75,-384.06 417.75,-384.06 417.75,-384.06 417.75,-104.5 417.75,-104.5 417.75,-104.5 445.32,-104.5 445.32,-104.5"/>
<polygon fill="#8dd3c7" stroke="#8dd3c7" stroke-width="2" points="446.82,-102 446.82,-107 445.82,-107 445.82,-102 446.82,-102"/>
<polyline fill="none" stroke="#8dd3c7" stroke-width="2" points="447.32,-104.5 444.82,-104.5"/>
</g>
<!-- LLE8593&#45;&gt;LLE8032 -->
<!-- LLE8593&#45;&gt;LLE8514 -->
<g id="edge23" class="edge">
<title>LLE8593&#45;&gt;LLE8514</title>
<path fill="none" stroke="#8dd3c7" stroke-width="2" d="M410.73,-391.17C423.1,-391.17 432.75,-391.17 432.75,-391.17 432.75,-391.17 432.75,-195.28 432.75,-195.28 432.75,-195.28 443.56,-195.28 443.56,-195.28"/>
<polygon fill="#8dd3c7" stroke="#8dd3c7" stroke-width="2" points="445.06,-192.78 445.06,-197.78 444.06,-197.78 444.06,-192.78 445.06,-192.78"/>
<polyline fill="none" stroke="#8dd3c7" stroke-width="2" points="445.56,-195.28 443.06,-195.28"/>
</g>
<!-- LLE8593&#45;&gt;LLE8514 -->
<!-- LLE8593&#45;&gt;LLE8594 -->
<g id="edge25" class="edge">
<title>LLE8593&#45;&gt;LLE8594</title>
<path fill="none" stroke="#8dd3c7" stroke-width="2" d="M410.7,-398.28C426.52,-398.28 439.75,-398.28 439.75,-398.28 439.75,-398.28 439.75,-301.05 439.75,-301.05 439.75,-301.05 443.54,-301.05 443.54,-301.05"/>
<polygon fill="#8dd3c7" stroke="#8dd3c7" stroke-width="2" points="445.04,-298.55 445.04,-303.55 444.04,-303.55 444.04,-298.55 445.04,-298.55"/>
<polyline fill="none" stroke="#8dd3c7" stroke-width="2" points="445.54,-301.05 443.04,-301.05"/>
</g>
<!-- LLE8593&#45;&gt;LLE8594 -->
</g>
</svg>
