<?xml version="1.0" encoding="UTF-8" standalone="no"?>
<!DOCTYPE svg PUBLIC "-//W3C//DTD SVG 1.1//EN"
 "http://www.w3.org/Graphics/SVG/1.1/DTD/svg11.dtd">
<!-- Generated by graphviz version 9.0.0 (0)
 -->
<!-- Title: grafo_materias Pages: 1 -->
<svg width="965pt" height="1109pt"
 viewBox="0.00 0.00 965.05 1109.00" xmlns="http://www.w3.org/2000/svg" xmlns:xlink="http://www.w3.org/1999/xlink">
<g id="graph0" class="graph" transform="scale(1 1) rotate(0) translate(4 1105)">
<title>grafo_materias</title>
<polygon fill="none" stroke="none" points="-4,4 -4,-1105 961.05,-1105 961.05,4 -4,4"/>
<g id="clust1" class="cluster">
<title>cluster_everything</title>
<polygon fill="none" stroke="none" points="8,-8 8,-1093 949.05,-1093 949.05,-8 8,-8"/>
</g>
<g id="clust2" class="cluster">
<title>cluster_header</title>
<polygon fill="none" stroke="none" points="16,-1033 16,-1085 798.25,-1085 798.25,-1033 16,-1033"/>
</g>
<g id="clust3" class="cluster">
<title>cluster_0</title>
<polygon fill="none" stroke="none" points="23.88,-178 23.88,-743 147.38,-743 147.38,-178 23.88,-178"/>
</g>
<g id="clust4" class="cluster">
<title>cluster_1</title>
<polygon fill="none" stroke="none" points="182,-182 182,-674 307.75,-674 307.75,-182 182,-182"/>
</g>
<g id="clust5" class="cluster">
<title>cluster_2</title>
<polygon fill="none" stroke="none" points="345.73,-229 345.73,-553 462.52,-553 462.52,-229 345.73,-229"/>
</g>
<g id="clust6" class="cluster">
<title>cluster_3</title>
<polygon fill="none" stroke="none" points="500.87,-214 500.87,-658 625.88,-658 625.88,-214 500.87,-214"/>
</g>
<g id="clust7" class="cluster">
<title>cluster_4</title>
<polygon fill="none" stroke="none" points="653,-88 653,-1025 941.05,-1025 941.05,-88 653,-88"/>
</g>
<!-- 1ª Fase Sugestão -->
<g id="node1" class="node">
<title>1ª Fase Sugestão</title>
<polygon fill="lightgrey" stroke="black" points="147.25,-1077 24,-1077 24,-1041 147.25,-1041 147.25,-1077"/>
<text text-anchor="middle" x="85.62" y="-1053.58" font-family="Arial" font-size="14.00">1ª Fase Sugestão</text>
</g>
<!-- 2ª Fase Sugestão -->
<g id="node2" class="node">
<title>2ª Fase Sugestão</title>
<polygon fill="lightgrey" stroke="black" points="306.5,-1077 183.25,-1077 183.25,-1041 306.5,-1041 306.5,-1077"/>
<text text-anchor="middle" x="244.88" y="-1053.58" font-family="Arial" font-size="14.00">2ª Fase Sugestão</text>
</g>
<!-- 1ª Fase Sugestão&#45;&gt;2ª Fase Sugestão -->
<!-- 3ª Fase Sugestão -->
<g id="node3" class="node">
<title>3ª Fase Sugestão</title>
<polygon fill="lightgrey" stroke="black" points="465.75,-1077 342.5,-1077 342.5,-1041 465.75,-1041 465.75,-1077"/>
<text text-anchor="middle" x="404.12" y="-1053.58" font-family="Arial" font-size="14.00">3ª Fase Sugestão</text>
</g>
<!-- 2ª Fase Sugestão&#45;&gt;3ª Fase Sugestão -->
<!-- 4ª Fase Sugestão -->
<g id="node4" class="node">
<title>4ª Fase Sugestão</title>
<polygon fill="lightgrey" stroke="black" points="625,-1077 501.75,-1077 501.75,-1041 625,-1041 625,-1077"/>
<text text-anchor="middle" x="563.38" y="-1053.58" font-family="Arial" font-size="14.00">4ª Fase Sugestão</text>
</g>
<!-- 3ª Fase Sugestão&#45;&gt;4ª Fase Sugestão -->
<!-- 5ª Fase Sugestão -->
<g id="node5" class="node">
<title>5ª Fase Sugestão</title>
<polygon fill="lightgrey" stroke="black" points="790.25,-1077 667,-1077 667,-1041 790.25,-1041 790.25,-1077"/>
<text text-anchor="middle" x="728.62" y="-1053.58" font-family="Arial" font-size="14.00">5ª Fase Sugestão</text>
</g>
<!-- 4ª Fase Sugestão&#45;&gt;5ª Fase Sugestão -->
<!-- EMB5001 -->
<g id="node6" class="node">
<title>EMB5001</title>
<g id="a_node6"><a xlink:title="Noções sobre funções de uma variável real. Limite e continuidade. Derivada. Aplicações de Derivada. Integral definida e indefinida &#45; Método da substituição e Integração por partes.">
<polygon fill="#8dd3c7" stroke="#8dd3c7" points="136.03,-467.5 35.23,-467.5 35.23,-380.5 136.03,-380.5 136.03,-467.5"/>
<text text-anchor="middle" x="85.62" y="-450.2" font-family="Arial" font-size="14.00">EMB5001</text>
<text text-anchor="middle" x="85.62" y="-418.45" font-family="Arial" font-size="14.00">Cálculo</text>
<text text-anchor="middle" x="85.62" y="-402.7" font-family="Arial" font-size="14.00">Diferencial e</text>
<text text-anchor="middle" x="85.62" y="-386.95" font-family="Arial" font-size="14.00">Integral I</text>
</a>
</g>
</g>
<!-- EMB5012 -->
<g id="node12" class="node">
<title>EMB5012</title>
<g id="a_node12"><a xlink:title="Sistemas CAD, metodologia para modelamento de produtos tridimensionais. Práticas com software CAD. Técnicas de modelamento sólido. Modelamento de produtos, geração de desenho de engenharia, normas de desenho técnico, desenho de conjunto, montagem, lista de materiais.">
<polygon fill="#8dd3c7" stroke="#8dd3c7" points="295.27,-665.5 194.47,-665.5 194.47,-578.5 295.27,-578.5 295.27,-665.5"/>
<text text-anchor="middle" x="244.88" y="-648.2" font-family="Arial" font-size="14.00">EMB5012</text>
<text text-anchor="middle" x="244.88" y="-616.45" font-family="Arial" font-size="14.00">Desenho e</text>
<text text-anchor="middle" x="244.88" y="-600.7" font-family="Arial" font-size="14.00">Modelagem</text>
<text text-anchor="middle" x="244.88" y="-584.95" font-family="Arial" font-size="14.00">Geométrica</text>
</a>
</g>
</g>
<!-- EMB5001&#45;&gt;EMB5012 -->
<!-- EMB5022 -->
<g id="node13" class="node">
<title>EMB5022</title>
<g id="a_node13"><a xlink:title="Introdução a Ciência e Engenharia dos Materiais – materiais aplicados na engenharia. Tipos, classificação e aplicações dos diversos materiais. Estrutura atômica e ligações inter&#45;atômicas. Materiais cristalinos e não cristalinos. Imperfeições nos sólidos. Difusão. Processos metalográficos. Diagramas de equilíbrio. Comportamento mecânico e dinâmico dos materiais. Falhas, fratura, fadiga e fluência. Estrutura e propriedades dos materiais metálicos, cerâmicos e poliméricos. Introdução a compósitos.">
<polygon fill="#8dd3c7" stroke="#8dd3c7" points="295.27,-560.62 194.47,-560.62 194.47,-489.38 295.27,-489.38 295.27,-560.62"/>
<text text-anchor="middle" x="244.88" y="-543.33" font-family="Arial" font-size="14.00">EMB5022</text>
<text text-anchor="middle" x="244.88" y="-511.57" font-family="Arial" font-size="14.00">Ciência dos</text>
<text text-anchor="middle" x="244.88" y="-495.82" font-family="Arial" font-size="14.00">Materiais</text>
</a>
</g>
</g>
<!-- EMB5001&#45;&gt;EMB5022 -->
<g id="edge6" class="edge">
<title>EMB5001&#45;&gt;EMB5022</title>
<path fill="none" stroke="#8dd3c7" stroke-width="2" d="M136.39,-450.1C157,-450.1 176.05,-450.1 176.05,-450.1 176.05,-450.1 176.05,-523 176.05,-523 176.05,-523 191.63,-523 191.63,-523"/>
<polygon fill="#8dd3c7" stroke="#8dd3c7" stroke-width="2" points="193.13,-520.5 193.13,-525.5 192.13,-525.5 192.13,-520.5 193.13,-520.5"/>
<polyline fill="none" stroke="#8dd3c7" stroke-width="2" points="193.63,-523 191.13,-523"/>
</g>
<!-- EMB5001&#45;&gt;EMB5022 -->
<!-- EMB5029 -->
<g id="node14" class="node">
<title>EMB5029</title>
<g id="a_node14"><a xlink:title="Métodos de integração. Aplicações da integral definida. Integrais impróprias. Funções de várias variáveis. Derivadas parciais. Aplicações das derivadas parciais. Integração múltipla.">
<polygon fill="#8dd3c7" stroke="#8dd3c7" points="295.27,-277.5 194.47,-277.5 194.47,-190.5 295.27,-190.5 295.27,-277.5"/>
<text text-anchor="middle" x="244.88" y="-260.2" font-family="Arial" font-size="14.00">EMB5029</text>
<text text-anchor="middle" x="244.88" y="-228.45" font-family="Arial" font-size="14.00">Cálculo</text>
<text text-anchor="middle" x="244.88" y="-212.7" font-family="Arial" font-size="14.00">Diferencial e</text>
<text text-anchor="middle" x="244.88" y="-196.95" font-family="Arial" font-size="14.00">Integral II</text>
</a>
</g>
</g>
<!-- EMB5001&#45;&gt;EMB5029 -->
<g id="edge8" class="edge">
<title>EMB5001&#45;&gt;EMB5029</title>
<path fill="none" stroke="#8dd3c7" stroke-width="2" d="M136.43,-389.2C147.54,-389.2 156.05,-389.2 156.05,-389.2 156.05,-389.2 156.05,-265.58 156.05,-265.58 156.05,-265.58 191.48,-265.58 191.48,-265.58"/>
<polygon fill="#8dd3c7" stroke="#8dd3c7" stroke-width="2" points="192.98,-263.08 192.98,-268.08 191.98,-268.08 191.98,-263.08 192.98,-263.08"/>
<polyline fill="none" stroke="#8dd3c7" stroke-width="2" points="193.48,-265.58 190.98,-265.58"/>
</g>
<!-- EMB5001&#45;&gt;EMB5029 -->
<!-- EMB5048 -->
<g id="node15" class="node">
<title>EMB5048</title>
<g id="a_node15"><a xlink:title="Unidades de medidas e vetores. Cinemática. Leis de Newton e aplicações. Trabalho e energia potencial. Conservação da energia. Conservação do momento linear e angular. Rotação de corpos rígidos e rolamento. Atividades Laboratoriais.">
<polygon fill="#8dd3c7" stroke="#8dd3c7" points="295.27,-350.75 194.47,-350.75 194.47,-295.25 295.27,-295.25 295.27,-350.75"/>
<text text-anchor="middle" x="244.88" y="-333.45" font-family="Arial" font-size="14.00">EMB5048</text>
<text text-anchor="middle" x="244.88" y="-301.7" font-family="Arial" font-size="14.00">Física I</text>
</a>
</g>
</g>
<!-- EMB5001&#45;&gt;EMB5048 -->
<!-- EMB5070 -->
<g id="node16" class="node">
<title>EMB5070</title>
<g id="a_node16"><a xlink:title="O autoconhecimento e a inteligência emocional nas intervenções com forças de caráter. Ética, moral, valores e as relações com a sociedade. Desenho universal. Riscos e impactos tecnológicos na construção dos papeis sociais. Sensibilidade e expressão cultural. Aprender a aprender.">
<polygon fill="#8dd3c7" stroke="#8dd3c7" points="299.75,-471.38 190,-471.38 190,-368.62 299.75,-368.62 299.75,-471.38"/>
<text text-anchor="middle" x="244.88" y="-454.07" font-family="Arial" font-size="14.00">EMB5070</text>
<text text-anchor="middle" x="244.88" y="-422.32" font-family="Arial" font-size="14.00">Projeto</text>
<text text-anchor="middle" x="244.88" y="-406.57" font-family="Arial" font-size="14.00">Relacionar e</text>
<text text-anchor="middle" x="244.88" y="-390.82" font-family="Arial" font-size="14.00">Promover (EXT</text>
<text text-anchor="middle" x="244.88" y="-375.07" font-family="Arial" font-size="14.00">54h&#45;a)</text>
</a>
</g>
</g>
<!-- EMB5001&#45;&gt;EMB5070 -->
<!-- EMB5039 -->
<g id="node17" class="node">
<title>EMB5039</title>
<g id="a_node17"><a xlink:title="Gravitação. Estática e dinâmica de fluidos. Oscilações. Ondas mecânicas e acústicas. Temperatura. Calor. Teoria cinética dos gases. Leis da termodinâmica. Máquinas térmicas. Refrigeradores. Entropia. Atividades Laboratoriais.">
<polygon fill="#8dd3c7" stroke="#8dd3c7" points="454.52,-292.75 353.73,-292.75 353.73,-237.25 454.52,-237.25 454.52,-292.75"/>
<text text-anchor="middle" x="404.12" y="-275.45" font-family="Arial" font-size="14.00">EMB5039</text>
<text text-anchor="middle" x="404.12" y="-243.7" font-family="Arial" font-size="14.00">Física II</text>
</a>
</g>
</g>
<!-- EMB5001&#45;&gt;EMB5039 -->
<g id="edge9" class="edge">
<title>EMB5001&#45;&gt;EMB5039</title>
<path fill="none" stroke="#8dd3c7" stroke-width="2" d="M136.18,-406.6C151.35,-406.6 164.05,-406.6 164.05,-406.6 164.05,-406.6 164.05,-282.58 164.05,-282.58 164.05,-282.58 351,-282.58 351,-282.58"/>
<polygon fill="#8dd3c7" stroke="#8dd3c7" stroke-width="2" points="352.5,-280.08 352.5,-285.08 351.5,-285.08 351.5,-280.08 352.5,-280.08"/>
<polyline fill="none" stroke="#8dd3c7" stroke-width="2" points="353,-282.58 350.5,-282.58"/>
</g>
<!-- EMB5057 -->
<g id="node19" class="node">
<title>EMB5057</title>
<g id="a_node19"><a xlink:title="Estatística descritiva e análise exploratória de dados. Teoria da probabilidade. Variáveis aleatórias discretas e contínuas, e suas principais distribuições de probabilidade. Estimação de parâmetros. Teste de hipóteses para parâmetros: média, proporção e variância. Comparação entre dois tratamentos.">
<polygon fill="#8dd3c7" stroke="#8dd3c7" points="454.52,-366.75 353.73,-366.75 353.73,-311.25 454.52,-311.25 454.52,-366.75"/>
<text text-anchor="middle" x="404.12" y="-349.45" font-family="Arial" font-size="14.00">EMB5057</text>
<text text-anchor="middle" x="404.12" y="-317.7" font-family="Arial" font-size="14.00">Estatística I</text>
</a>
</g>
</g>
<!-- EMB5001&#45;&gt;EMB5057 -->
<g id="edge11" class="edge">
<title>EMB5001&#45;&gt;EMB5057</title>
<path fill="none" stroke="#8dd3c7" stroke-width="2" d="M136.4,-424C155.21,-424 172.05,-424 172.05,-424 172.05,-424 172.05,-356.56 172.05,-356.56 172.05,-356.56 350.98,-356.56 350.98,-356.56"/>
<polygon fill="#8dd3c7" stroke="#8dd3c7" stroke-width="2" points="352.48,-354.06 352.48,-359.06 351.48,-359.06 351.48,-354.06 352.48,-354.06"/>
<polyline fill="none" stroke="#8dd3c7" stroke-width="2" points="352.98,-356.56 350.48,-356.56"/>
</g>
<!-- EMB5005 -->
<g id="node7" class="node">
<title>EMB5005</title>
<g id="a_node7"><a xlink:title="Matrizes. Determinantes. Sistemas lineares. Álgebra vetorial. Estudo da reta e do plano. Curvas planas. Superfícies.">
<polygon fill="#8dd3c7" stroke="#8dd3c7" points="136.03,-734.62 35.23,-734.62 35.23,-663.38 136.03,-663.38 136.03,-734.62"/>
<text text-anchor="middle" x="85.62" y="-717.33" font-family="Arial" font-size="14.00">EMB5005</text>
<text text-anchor="middle" x="85.62" y="-685.58" font-family="Arial" font-size="14.00">Geometria</text>
<text text-anchor="middle" x="85.62" y="-669.83" font-family="Arial" font-size="14.00">Analítica</text>
</a>
</g>
</g>
<!-- EMB5974 -->
<g id="node30" class="node">
<title>EMB5974</title>
<g id="a_node30"><a xlink:title="Introdução: histórico, objetivos, restrições e modelos. Formulação de modelos de programação linear. Solução gráfica. Solução algébrica. Método simplex. Dualidade. Análise de sensibilidade. Problemas lineares especiais: Problema de transportes; Problema de atribuição; Problema de caminho mínimo; Problema de fluxo máximo. Ferramentas computacionais para solução de problemas.">
<polygon fill="#8dd3c7" stroke="#8dd3c7" points="779.02,-1016.62 678.23,-1016.62 678.23,-945.38 779.02,-945.38 779.02,-1016.62"/>
<text text-anchor="middle" x="728.62" y="-999.33" font-family="Arial" font-size="14.00">EMB5974</text>
<text text-anchor="middle" x="728.62" y="-967.58" font-family="Arial" font-size="14.00">Pesquisa</text>
<text text-anchor="middle" x="728.62" y="-951.83" font-family="Arial" font-size="14.00">Operacional I</text>
</a>
</g>
</g>
<!-- EMB5005&#45;&gt;EMB5974 -->
<g id="edge18" class="edge">
<title>EMB5005&#45;&gt;EMB5974</title>
<path fill="none" stroke="#8dd3c7" stroke-width="2" d="M86.05,-735.03C86.05,-813.51 86.05,-992.88 86.05,-992.88 86.05,-992.88 675.43,-992.88 675.43,-992.88"/>
<polygon fill="#8dd3c7" stroke="#8dd3c7" stroke-width="2" points="676.93,-990.38 676.94,-995.38 675.94,-995.38 675.93,-990.38 676.93,-990.38"/>
<polyline fill="none" stroke="#8dd3c7" stroke-width="2" points="677.43,-992.88 674.93,-992.88"/>
</g>
<!-- EMB5036 -->
<g id="node8" class="node">
<title>EMB5036</title>
<g id="a_node8"><a xlink:title="Sistema internacional de unidades. Átomos e moléculas. Ligações químicas e estrutura molecular. Equações químicas. Estequiometria. Soluções aquosas. Termoquímica. Eletroquímica: oxidaçãoredução, células eletroquímicas, equação de Nernst, eletrólise. Siderurgia: Obtenção do ferro gusa e do aço. Aços especiais. Polímeros: estrutura química, propriedades, aplicações. Cerâmicas: cerâmicas tradicionais e avançadas, propriedades, aplicações. Compósitos. Corrosão metálica: tipos e formas, meios corrosivos, mecanismos de proteção, monitoramento. Combustíveis e combustão. Química Ambiental. Atividades Laboratoriais.">
<polygon fill="#8dd3c7" stroke="#8dd3c7" points="136.03,-556.62 35.23,-556.62 35.23,-485.38 136.03,-485.38 136.03,-556.62"/>
<text text-anchor="middle" x="85.62" y="-539.33" font-family="Arial" font-size="14.00">EMB5036</text>
<text text-anchor="middle" x="85.62" y="-507.57" font-family="Arial" font-size="14.00">Química para</text>
<text text-anchor="middle" x="85.62" y="-491.82" font-family="Arial" font-size="14.00">engenharia</text>
</a>
</g>
</g>
<!-- EMB5036&#45;&gt;EMB5022 -->
<g id="edge7" class="edge">
<title>EMB5036&#45;&gt;EMB5022</title>
<path fill="none" stroke="#8dd3c7" stroke-width="2" d="M136.45,-539.81C136.45,-539.81 191.49,-539.81 191.49,-539.81"/>
<polygon fill="#8dd3c7" stroke="#8dd3c7" stroke-width="2" points="192.99,-537.31 192.99,-542.31 191.99,-542.31 191.99,-537.31 192.99,-537.31"/>
<polyline fill="none" stroke="#8dd3c7" stroke-width="2" points="193.49,-539.81 190.99,-539.81"/>
</g>
<!-- EMB5055 -->
<g id="node9" class="node">
<title>EMB5055</title>
<g id="a_node9"><a xlink:title="Noções fundamentais para elaboração e interpretação de esboços e desenhos técnicos. Fundamentos de Desenho Geométrico. Desenho Projetivo. Normas para desenho (ABNT). Cotagem. Escalas. Desenho de objetos no 1º e 3º diedros. Perspectiva Isométrica. Aplicação das projeções nos desenhos de engenharia por meio manual e computacional.">
<polygon fill="#8dd3c7" stroke="#8dd3c7" points="139.38,-645.62 31.88,-645.62 31.88,-574.38 139.38,-574.38 139.38,-645.62"/>
<text text-anchor="middle" x="85.62" y="-628.33" font-family="Arial" font-size="14.00">EMB5055</text>
<text text-anchor="middle" x="85.62" y="-596.58" font-family="Arial" font-size="14.00">Representação</text>
<text text-anchor="middle" x="85.62" y="-580.83" font-family="Arial" font-size="14.00">Gráfica</text>
</a>
</g>
</g>
<!-- EMB5055&#45;&gt;EMB5012 -->
<g id="edge5" class="edge">
<title>EMB5055&#45;&gt;EMB5012</title>
<path fill="none" stroke="#8dd3c7" stroke-width="2" d="M139.54,-623.25C139.54,-623.25 191.74,-623.25 191.74,-623.25"/>
<polygon fill="#8dd3c7" stroke="#8dd3c7" stroke-width="2" points="193.24,-620.75 193.24,-625.75 192.24,-625.75 192.24,-620.75 193.24,-620.75"/>
<polyline fill="none" stroke="#8dd3c7" stroke-width="2" points="193.74,-623.25 191.24,-623.25"/>
</g>
<!-- EMB5060 -->
<g id="node10" class="node">
<title>EMB5060</title>
<g id="a_node10"><a xlink:title="Contextualização à vida acadêmica: a universidade, o curso, o currículo, os serviços de apoio, os laboratórios, prevenção e combate a incêndios e desastres. Métodos científicos na resolução de problemas envolvendo a ciência, tecnologia e sociedade. Valorizar a cidadania, meio ambiente e o desenvolvimento da autoestima. Introdução à atividade profissional: especificação, projeto, construção de protótipos e testes. Redação de relatórios técnicos, exposição oral e interface acadêmica com o sistema de ensino fundamental e médio.">
<polygon fill="#8dd3c7" stroke="#8dd3c7" points="136.03,-362.38 35.23,-362.38 35.23,-259.62 136.03,-259.62 136.03,-362.38"/>
<text text-anchor="middle" x="85.62" y="-345.07" font-family="Arial" font-size="14.00">EMB5060</text>
<text text-anchor="middle" x="85.62" y="-313.32" font-family="Arial" font-size="14.00">Projeto</text>
<text text-anchor="middle" x="85.62" y="-297.57" font-family="Arial" font-size="14.00">Conhecer e</text>
<text text-anchor="middle" x="85.62" y="-281.82" font-family="Arial" font-size="14.00">Integrar (EXT</text>
<text text-anchor="middle" x="85.62" y="-266.07" font-family="Arial" font-size="14.00">72h&#45;a)</text>
</a>
</g>
</g>
<!-- EMB5648 -->
<g id="node11" class="node">
<title>EMB5648</title>
<g id="a_node11"><a xlink:title="Introdução a arquitetura de computadores. Lógica de programação: formalização de problemas com representação em pseudocódigo (algoritmos) e fluxograma, tipos de dados, estruturas de seleção e repetição, fluxo de execução, modularização (funções e procedimentos), estruturas de dados homogêneas (vetores e matrizes). Introdução a apontadores. Arquivos. Implementação prática de algoritmos em uma linguagem de alto nível.">
<polygon fill="#8dd3c7" stroke="#8dd3c7" points="138.25,-241.75 33,-241.75 33,-186.25 138.25,-186.25 138.25,-241.75"/>
<text text-anchor="middle" x="85.62" y="-224.45" font-family="Arial" font-size="14.00">EMB5648</text>
<text text-anchor="middle" x="85.62" y="-192.7" font-family="Arial" font-size="14.00">Programação I</text>
</a>
</g>
</g>
<!-- EMB5102 -->
<g id="node20" class="node">
<title>EMB5102</title>
<g id="a_node20"><a xlink:title="Classificação e descrição sumária dos diversos processos de fabricação. Fundamento dos processos de fundição contínua e em moldes: principais parâmetros, ferramentas, máquinas e equipamentos, campo de aplicações. Fundamento dos processos de conformação de materiais metálicos (laminação, forjamento, trefilação, extrusão e estampagem): principais parâmetros, ferramentas, máquinas e equipamentos, campo de aplicações. Fundamentos de metalurgia do pó: sinterização. Fundamentos dos processos de usinagem: torneamento, furação, fresamento, retificação, eletroerosão. Principais parâmetros dos processos de usinagem. Ferramentas de corte: materiais, revestimentos e geometrias, desgaste. Qualidade de superfícies após processo específico de fabricação, erros dimensionais. Máquinas e equipamentos. Introdução ao Comando Numérico Computadorizado (CNC). Introdução a programação e simulação da usinagem CNC e integração entre sistemas CADCAMCNC.">
<polygon fill="#8dd3c7" stroke="#8dd3c7" points="454.52,-544.62 353.73,-544.62 353.73,-473.38 454.52,-473.38 454.52,-544.62"/>
<text text-anchor="middle" x="404.12" y="-527.33" font-family="Arial" font-size="14.00">EMB5102</text>
<text text-anchor="middle" x="404.12" y="-495.57" font-family="Arial" font-size="14.00">Processo de</text>
<text text-anchor="middle" x="404.12" y="-479.82" font-family="Arial" font-size="14.00">Fabricação</text>
</a>
</g>
</g>
<!-- EMB5022&#45;&gt;EMB5102 -->
<g id="edge12" class="edge">
<title>EMB5022&#45;&gt;EMB5102</title>
<path fill="none" stroke="#8dd3c7" stroke-width="2" d="M295.7,-517C295.7,-517 350.74,-517 350.74,-517"/>
<polygon fill="#8dd3c7" stroke="#8dd3c7" stroke-width="2" points="352.24,-514.5 352.24,-519.5 351.24,-519.5 351.24,-514.5 352.24,-514.5"/>
<polyline fill="none" stroke="#8dd3c7" stroke-width="2" points="352.74,-517 350.24,-517"/>
</g>
<!-- EMB5048&#45;&gt;EMB5039 -->
<g id="edge10" class="edge">
<title>EMB5048&#45;&gt;EMB5039</title>
<path fill="none" stroke="#8dd3c7" stroke-width="2" d="M295.56,-305.92C342.48,-305.92 405.05,-305.92 405.05,-305.92 405.05,-305.92 405.05,-295.47 405.05,-295.47"/>
<polygon fill="#8dd3c7" stroke="#8dd3c7" stroke-width="2" points="402.55,-293.97 407.55,-293.97 407.55,-294.97 402.55,-294.97 402.55,-293.97"/>
<polyline fill="none" stroke="#8dd3c7" stroke-width="2" points="405.05,-293.47 405.05,-295.97"/>
</g>
<!-- EMB5070&#45;&gt;EMB5039 -->
<!-- EMB5056 -->
<g id="node18" class="node">
<title>EMB5056</title>
<g id="a_node18"><a xlink:title="Conceitos básicos. Fisiologia do trabalho. Antropometria e Biomecânica. Processos Cognitivos. Dispositivos de informação. Percepção e processamento da informação. Manejo e controles. Metodologias de análise ergonômica. Ergonomia do produto. Variáveis ambientais: iluminação, ruído, vibrações, temperatura. Análise ergonômica do trabalho. Segurança do trabalho.">
<polygon fill="#8dd3c7" stroke="#8dd3c7" points="454.52,-455.62 353.73,-455.62 353.73,-384.38 454.52,-384.38 454.52,-455.62"/>
<text text-anchor="middle" x="404.12" y="-438.32" font-family="Arial" font-size="14.00">EMB5056</text>
<text text-anchor="middle" x="404.12" y="-406.57" font-family="Arial" font-size="14.00">Ergonomia e</text>
<text text-anchor="middle" x="404.12" y="-390.82" font-family="Arial" font-size="14.00">Segurança</text>
</a>
</g>
</g>
<!-- EMB5070&#45;&gt;EMB5056 -->
<!-- EMB5070&#45;&gt;EMB5057 -->
<!-- EMB5070&#45;&gt;EMB5102 -->
<!-- EMB5049 -->
<g id="node21" class="node">
<title>EMB5049</title>
<g id="a_node21"><a xlink:title="Realização e análise de experimentos compreendendo os seguintes tópicos: Mecânica, ondas, oscilações, termodinâmica, eletricidade e magnetismo.">
<polygon fill="#8dd3c7" stroke="#8dd3c7" points="613.77,-293.62 512.98,-293.62 512.98,-222.38 613.77,-222.38 613.77,-293.62"/>
<text text-anchor="middle" x="563.38" y="-276.32" font-family="Arial" font-size="14.00">EMB5049</text>
<text text-anchor="middle" x="563.38" y="-244.57" font-family="Arial" font-size="14.00">Física</text>
<text text-anchor="middle" x="563.38" y="-228.82" font-family="Arial" font-size="14.00">Experimental</text>
</a>
</g>
</g>
<!-- EMB5039&#45;&gt;EMB5049 -->
<g id="edge13" class="edge">
<title>EMB5039&#45;&gt;EMB5049</title>
<path fill="none" stroke="#8dd3c7" stroke-width="2" d="M454.95,-255.75C454.95,-255.75 509.99,-255.75 509.99,-255.75"/>
<polygon fill="#8dd3c7" stroke="#8dd3c7" stroke-width="2" points="511.49,-253.25 511.49,-258.25 510.49,-258.25 510.49,-253.25 511.49,-253.25"/>
<polyline fill="none" stroke="#8dd3c7" stroke-width="2" points="511.99,-255.75 509.49,-255.75"/>
</g>
<!-- EMB5058 -->
<g id="node22" class="node">
<title>EMB5058</title>
<g id="a_node22"><a xlink:title="Estimação de parâmetros pelo método da máxima verossimilhança. Regressão linear simples e múltipla: estimação de parâmetros e teste de hipóteses, predição para novas observações, analise da adequação do modelo, correlação. Introdução a Modelos Lineares Generalizados (MLG): família exponencial de distribuições, elementos básicos, principais MLGs para dados discretos, Estimação de parâmetros e teste de hipóteses, avaliação do ajuste do modelo. Aplicações com uso de ferramentas computacionais.">
<polygon fill="#8dd3c7" stroke="#8dd3c7" points="613.77,-366.75 512.98,-366.75 512.98,-311.25 613.77,-311.25 613.77,-366.75"/>
<text text-anchor="middle" x="563.38" y="-349.45" font-family="Arial" font-size="14.00">EMB5058</text>
<text text-anchor="middle" x="563.38" y="-317.7" font-family="Arial" font-size="14.00">Estatística II</text>
</a>
</g>
</g>
<!-- EMB5057&#45;&gt;EMB5058 -->
<g id="edge14" class="edge">
<title>EMB5057&#45;&gt;EMB5058</title>
<path fill="none" stroke="#8dd3c7" stroke-width="2" d="M454.95,-320.5C454.95,-320.5 509.99,-320.5 509.99,-320.5"/>
<polygon fill="#8dd3c7" stroke="#8dd3c7" stroke-width="2" points="511.49,-318 511.49,-323 510.49,-323 510.49,-318 511.49,-318"/>
<polyline fill="none" stroke="#8dd3c7" stroke-width="2" points="511.99,-320.5 509.49,-320.5"/>
</g>
<!-- EMB5961 -->
<g id="node29" class="node">
<title>EMB5961</title>
<g id="a_node29"><a xlink:title="Fundamentos de economia. Princípios básicos de Engenharia Econômica. Matemática financeira. Investimento e modalidades de financiamento. Bases para comparação de alternativas de investimento. Impostos e depreciação. Análise da relação: custo x volume x lucro (ACVL). Análise de sensibilidade. Análise de substituição de equipamentos. Análise de alternativas sob condições de risco e incerteza. Tópicos de Finanças e investimentos. Utilização de simulação na Engenharia Econômica em estudo de caso.">
<polygon fill="#8dd3c7" stroke="#8dd3c7" points="779.02,-927.62 678.23,-927.62 678.23,-856.38 779.02,-856.38 779.02,-927.62"/>
<text text-anchor="middle" x="728.62" y="-910.33" font-family="Arial" font-size="14.00">EMB5961</text>
<text text-anchor="middle" x="728.62" y="-878.58" font-family="Arial" font-size="14.00">Engenharia</text>
<text text-anchor="middle" x="728.62" y="-862.83" font-family="Arial" font-size="14.00">Econômica</text>
</a>
</g>
</g>
<!-- EMB5057&#45;&gt;EMB5961 -->
<g id="edge17" class="edge">
<title>EMB5057&#45;&gt;EMB5961</title>
<path fill="none" stroke="#8dd3c7" stroke-width="2" d="M454.66,-329.75C467.65,-329.75 478.05,-329.75 478.05,-329.75 478.05,-329.75 478.05,-903.88 478.05,-903.88 478.05,-903.88 675.42,-903.88 675.42,-903.88"/>
<polygon fill="#8dd3c7" stroke="#8dd3c7" stroke-width="2" points="676.92,-901.38 676.92,-906.38 675.92,-906.38 675.92,-901.38 676.92,-901.38"/>
<polyline fill="none" stroke="#8dd3c7" stroke-width="2" points="677.42,-903.88 674.92,-903.88"/>
</g>
<!-- EMB5350 -->
<g id="node34" class="node">
<title>EMB5350</title>
<g id="a_node34"><a xlink:title="Fundamentos e métodos estatísticos aplicáveis ao controle da qualidade e à melhoria continua. Controle estatístico do processo e análise da capacidade: compreensão da variação, gráficos de controle para variáveis e para atributos, índices de capacidade, gráficos de controle para aplicações específicas. Análise dos sistemas de medição: impacto da variação do sistema de medição na inspeção do produto e no controle do processo, medidas de posição e de variação, avaliação gráfica. Planos de amostragem na inspeção por atributo. Planejamento de experimentos: diretrizes gerais, planejamento fatorial, análise estatística; análise dos resíduos.">
<polygon fill="#8dd3c7" stroke="#8dd3c7" points="779.02,-838.5 678.23,-838.5 678.23,-751.5 779.02,-751.5 779.02,-838.5"/>
<text text-anchor="middle" x="728.62" y="-821.2" font-family="Arial" font-size="14.00">EMB5350</text>
<text text-anchor="middle" x="728.62" y="-789.45" font-family="Arial" font-size="14.00">Controle</text>
<text text-anchor="middle" x="728.62" y="-773.7" font-family="Arial" font-size="14.00">Estatístico da</text>
<text text-anchor="middle" x="728.62" y="-757.95" font-family="Arial" font-size="14.00">Qualidade</text>
</a>
</g>
</g>
<!-- EMB5057&#45;&gt;EMB5350 -->
<g id="edge21" class="edge">
<title>EMB5057&#45;&gt;EMB5350</title>
<path fill="none" stroke="#8dd3c7" stroke-width="2" d="M454.78,-339C456.22,-339 457.05,-339 457.05,-339 457.05,-339 457.05,-809.5 457.05,-809.5 457.05,-809.5 675.36,-809.5 675.36,-809.5"/>
<polygon fill="#8dd3c7" stroke="#8dd3c7" stroke-width="2" points="676.86,-807 676.86,-812 675.86,-812 675.86,-807 676.86,-807"/>
<polyline fill="none" stroke="#8dd3c7" stroke-width="2" points="677.36,-809.5 674.86,-809.5"/>
</g>
<!-- EMB5984 -->
<g id="node36" class="node">
<title>EMB5984</title>
<g id="a_node36"><a xlink:title="Processos Estocásticos: definição, cadeias de Markov e matriz de transição. Teoria de Filas: sistemas M/M/1, M/M/c e M/M/c/k. Simulação: geração de números pseudoaleatórios; formulação de modelos de simulação; validação de modelos; ferramentas de simulação. Ferramentas computacionais para solução de problemas.">
<polygon fill="#8dd3c7" stroke="#8dd3c7" points="933.05,-240.62 832.25,-240.62 832.25,-169.38 933.05,-169.38 933.05,-240.62"/>
<text text-anchor="middle" x="882.65" y="-223.32" font-family="Arial" font-size="14.00">EMB5984</text>
<text text-anchor="middle" x="882.65" y="-191.57" font-family="Arial" font-size="14.00">Processos</text>
<text text-anchor="middle" x="882.65" y="-175.82" font-family="Arial" font-size="14.00">Estocásticos</text>
</a>
</g>
</g>
<!-- EMB5057&#45;&gt;EMB5984 -->
<g id="edge24" class="edge">
<title>EMB5057&#45;&gt;EMB5984</title>
<path fill="none" stroke="#8dd3c7" stroke-width="2" d="M454.6,-348.25C473.31,-348.25 490.05,-348.25 490.05,-348.25 490.05,-348.25 490.05,-160.56 490.05,-160.56 490.05,-160.56 883.05,-160.56 883.05,-160.56 883.05,-160.56 883.05,-166.63 883.05,-166.63"/>
<polygon fill="#8dd3c7" stroke="#8dd3c7" stroke-width="2" points="885.55,-168.13 880.55,-168.13 880.55,-167.13 885.55,-167.13 885.55,-168.13"/>
<polyline fill="none" stroke="#8dd3c7" stroke-width="2" points="883.05,-168.63 883.05,-166.13"/>
</g>
<!-- EMB5102&#45;&gt;EMB5049 -->
<!-- EMB5102&#45;&gt;EMB5058 -->
<!-- EMB5059 -->
<g id="node23" class="node">
<title>EMB5059</title>
<g id="a_node23"><a xlink:title="Introdução: contexto e importância do projeto de produtos. Modelos do processo e planejamento do projeto de produtos/serviços. Métodos e ferramentas para a especificação de problemas de projeto e de concepção de produtos/serviços. Projeto preliminar: modelagem, análise e simulação de soluções de projeto. Projeto detalhado. Técnicas de prototipagem. Desenvolvimento de projetos com a Comunidade. Técnicas e conceitos de Desenho Universal em projetos de engenharia.">
<polygon fill="#8dd3c7" stroke="#8dd3c7" points="617.88,-649.5 508.88,-649.5 508.88,-562.5 617.88,-562.5 617.88,-649.5"/>
<text text-anchor="middle" x="563.38" y="-632.2" font-family="Arial" font-size="14.00">EMB5059</text>
<text text-anchor="middle" x="563.38" y="-600.45" font-family="Arial" font-size="14.00">Metodologia de</text>
<text text-anchor="middle" x="563.38" y="-584.7" font-family="Arial" font-size="14.00">Projeto (EXT</text>
<text text-anchor="middle" x="563.38" y="-568.95" font-family="Arial" font-size="14.00">18h&#45;a)</text>
</a>
</g>
</g>
<!-- EMB5102&#45;&gt;EMB5059 -->
<!-- EMB5113 -->
<g id="node24" class="node">
<title>EMB5113</title>
<g id="a_node24"><a xlink:title="Introdução à engenharia de sistemas. Formalismos de modelagem de sistemas discretos. Formalismos de modelagem de software (UML).">
<polygon fill="#8dd3c7" stroke="#8dd3c7" points="616.75,-544.62 510,-544.62 510,-473.38 616.75,-473.38 616.75,-544.62"/>
<text text-anchor="middle" x="563.38" y="-527.33" font-family="Arial" font-size="14.00">EMB5113</text>
<text text-anchor="middle" x="563.38" y="-495.57" font-family="Arial" font-size="14.00">Modelagem de</text>
<text text-anchor="middle" x="563.38" y="-479.82" font-family="Arial" font-size="14.00">Sistemas</text>
</a>
</g>
</g>
<!-- EMB5102&#45;&gt;EMB5113 -->
<!-- EMB5120 -->
<g id="node25" class="node">
<title>EMB5120</title>
<g id="a_node25"><a xlink:title="Histórico da teoria geral da administração. Abordagens básicas e evolução do pensamento administrativo. Conceito de Administração e funções administrativas. Gestão da Produção e Operações. Estratégia de Produção e Operações. Noções de Planejamento e Controle da Produção. Just in Time e Operações Enxutas. Gestão da Qualidade. Gestão de Pessoas. Noções de Empreendedorismo.">
<polygon fill="#8dd3c7" stroke="#8dd3c7" points="613.77,-455.62 512.98,-455.62 512.98,-384.38 613.77,-384.38 613.77,-455.62"/>
<text text-anchor="middle" x="563.38" y="-438.32" font-family="Arial" font-size="14.00">EMB5120</text>
<text text-anchor="middle" x="563.38" y="-406.57" font-family="Arial" font-size="14.00">Gestão e</text>
<text text-anchor="middle" x="563.38" y="-390.82" font-family="Arial" font-size="14.00">Organização</text>
</a>
</g>
</g>
<!-- EMB5102&#45;&gt;EMB5120 -->
<!-- EMB5978 -->
<g id="node35" class="node">
<title>EMB5978</title>
<g id="a_node35"><a xlink:title="Gestão de materiais. Previsão de Demanda. Introdução ao Planejamento de Vendas e operações. Planejamento e controle da produção. Noções de Teoria das restrições. Dimensionamento e controle de estoques. Custos relacionados aos Estoques. Desenvolvimento e avaliação de fornecedores.">
<polygon fill="#8dd3c7" stroke="#8dd3c7" points="933.05,-151.75 832.25,-151.75 832.25,-96.25 933.05,-96.25 933.05,-151.75"/>
<text text-anchor="middle" x="882.65" y="-134.45" font-family="Arial" font-size="14.00">EMB5978</text>
<text text-anchor="middle" x="882.65" y="-102.7" font-family="Arial" font-size="14.00">Logística II</text>
</a>
</g>
</g>
<!-- EMB5058&#45;&gt;EMB5978 -->
<g id="edge22" class="edge">
<title>EMB5058&#45;&gt;EMB5978</title>
<path fill="none" stroke="#8dd3c7" stroke-width="2" d="M614,-322.69C687.5,-322.69 815.05,-322.69 815.05,-322.69 815.05,-322.69 815.05,-137.88 815.05,-137.88 815.05,-137.88 829.26,-137.88 829.26,-137.88"/>
<polygon fill="#8dd3c7" stroke="#8dd3c7" stroke-width="2" points="830.76,-135.38 830.76,-140.38 829.76,-140.38 829.76,-135.38 830.76,-135.38"/>
<polyline fill="none" stroke="#8dd3c7" stroke-width="2" points="831.26,-137.88 828.76,-137.88"/>
</g>
<!-- EMB5054 -->
<g id="node26" class="node">
<title>EMB5054</title>
<g id="a_node26"><a xlink:title="Formação da personalidade e dos papéis organizacionais. A importância do autoconhecimento na dinâmica cognitiva e emocional das relações interpessoais. Inteligência emocional. Historicidade, contemporaneidade e características sociais na construção do eu. As atividades laborais e os papéis sociais. A importância da comunicação na constituição dos indivíduos e dentro das organizações. Relações interpessoais e dinâmica organizacional. Ética e Moralidade. Líderes e Liderança.">
<polygon fill="#8dd3c7" stroke="#8dd3c7" points="779.02,-434.38 678.23,-434.38 678.23,-331.62 779.02,-331.62 779.02,-434.38"/>
<text text-anchor="middle" x="728.62" y="-417.07" font-family="Arial" font-size="14.00">EMB5054</text>
<text text-anchor="middle" x="728.62" y="-385.32" font-family="Arial" font-size="14.00">Relações</text>
<text text-anchor="middle" x="728.62" y="-369.57" font-family="Arial" font-size="14.00">Interpessoais</text>
<text text-anchor="middle" x="728.62" y="-353.82" font-family="Arial" font-size="14.00">nas</text>
<text text-anchor="middle" x="728.62" y="-338.07" font-family="Arial" font-size="14.00">Organizações</text>
</a>
</g>
</g>
<!-- EMB5120&#45;&gt;EMB5054 -->
<g id="edge15" class="edge">
<title>EMB5120&#45;&gt;EMB5054</title>
<path fill="none" stroke="#8dd3c7" stroke-width="2" d="M613.85,-417.71C613.85,-417.71 675.39,-417.71 675.39,-417.71"/>
<polygon fill="#8dd3c7" stroke="#8dd3c7" stroke-width="2" points="676.89,-415.21 676.89,-420.21 675.89,-420.21 675.89,-415.21 676.89,-415.21"/>
<polyline fill="none" stroke="#8dd3c7" stroke-width="2" points="677.39,-417.71 674.89,-417.71"/>
</g>
<!-- EMB5120&#45;&gt;EMB5054 -->
<!-- EMB5061 -->
<g id="node27" class="node">
<title>EMB5061</title>
<g id="a_node27"><a xlink:title="Conceitos fundamentais da metrologia científica e industrial; Sistema Internacional de Unidades; Medições diretas e Indiretas; Erros de medição; Características dos sistemas de medição; Calibração e rastreabilidade metrológica;Estimativa de incerteza de medição; Comprovação metrológica;Práticas em laboratório (grandezas mecânicas e elétricas).">
<polygon fill="#8dd3c7" stroke="#8dd3c7" points="779.02,-313.75 678.23,-313.75 678.23,-258.25 779.02,-258.25 779.02,-313.75"/>
<text text-anchor="middle" x="728.62" y="-296.45" font-family="Arial" font-size="14.00">EMB5061</text>
<text text-anchor="middle" x="728.62" y="-264.7" font-family="Arial" font-size="14.00">Metrologia</text>
</a>
</g>
</g>
<!-- EMB5120&#45;&gt;EMB5061 -->
<!-- EMB5067 -->
<g id="node28" class="node">
<title>EMB5067</title>
<g id="a_node28"><a xlink:title="A Evolução do conceito e as dimensões da qualidade; Fundamentos e princípios da gestão da qualidade; Abordagem de risco no planejamento estratégico e operacional; Normas de Sistemas de Gestão da Qualidade e o processo de certificação; Auditorias de sistema, de processo e de produto; Manutenção e Melhoria Contínua na gestão da qualidade; Normas setoriais de sistemas de gestão da qualidade.">
<polygon fill="#8dd3c7" stroke="#8dd3c7" points="779.02,-240.62 678.23,-240.62 678.23,-169.38 779.02,-169.38 779.02,-240.62"/>
<text text-anchor="middle" x="728.62" y="-223.32" font-family="Arial" font-size="14.00">EMB5067</text>
<text text-anchor="middle" x="728.62" y="-191.57" font-family="Arial" font-size="14.00">Gestão da</text>
<text text-anchor="middle" x="728.62" y="-175.82" font-family="Arial" font-size="14.00">Qualidade</text>
</a>
</g>
</g>
<!-- EMB5120&#45;&gt;EMB5067 -->
<g id="edge16" class="edge">
<title>EMB5120&#45;&gt;EMB5067</title>
<path fill="none" stroke="#8dd3c7" stroke-width="2" d="M614.21,-406.6C642.5,-406.6 672.05,-406.6 672.05,-406.6 672.05,-406.6 672.05,-228.46 672.05,-228.46 672.05,-228.46 675.6,-228.46 675.6,-228.46"/>
<polygon fill="#8dd3c7" stroke="#8dd3c7" stroke-width="2" points="677.1,-225.96 677.1,-230.96 676.1,-230.96 676.1,-225.96 677.1,-225.96"/>
<polyline fill="none" stroke="#8dd3c7" stroke-width="2" points="677.6,-228.46 675.1,-228.46"/>
</g>
<!-- EMB5120&#45;&gt;EMB5067 -->
<!-- EMB5120&#45;&gt;EMB5961 -->
<!-- EMB5120&#45;&gt;EMB5974 -->
<!-- EMB5977 -->
<g id="node31" class="node">
<title>EMB5977</title>
<g id="a_node31"><a xlink:title="Conceitos: Logística, Logística de Suprimentos, Logística de Distribuição e Logística Integrada. Logística reversa. Cadeia de Suprimentos. Processos da Cadeia de Suprimentos. Gestão da Cadeia de Suprimentos. Nível de Serviço Logístico. Indicadores de Desempenho. Tecnologias e Processos da Cadeia de Suprimentos.">
<polygon fill="#8dd3c7" stroke="#8dd3c7" points="779.02,-151.75 678.23,-151.75 678.23,-96.25 779.02,-96.25 779.02,-151.75"/>
<text text-anchor="middle" x="728.62" y="-134.45" font-family="Arial" font-size="14.00">EMB5977</text>
<text text-anchor="middle" x="728.62" y="-102.7" font-family="Arial" font-size="14.00">Logística I</text>
</a>
</g>
</g>
<!-- EMB5120&#45;&gt;EMB5977 -->
<g id="edge19" class="edge">
<title>EMB5120&#45;&gt;EMB5977</title>
<path fill="none" stroke="#8dd3c7" stroke-width="2" d="M614.2,-395.49C632.65,-395.49 649.05,-395.49 649.05,-395.49 649.05,-395.49 649.05,-114.75 649.05,-114.75 649.05,-114.75 675.28,-114.75 675.28,-114.75"/>
<polygon fill="#8dd3c7" stroke="#8dd3c7" stroke-width="2" points="676.78,-112.25 676.78,-117.25 675.78,-117.25 675.78,-112.25 676.78,-112.25"/>
<polyline fill="none" stroke="#8dd3c7" stroke-width="2" points="677.28,-114.75 674.78,-114.75"/>
</g>
<!-- EMB5120&#45;&gt;EMB5977 -->
<!-- EMB5080 -->
<g id="node32" class="node">
<title>EMB5080</title>
<g id="a_node32"><a xlink:title="Experiência universitária e a transição para o mercado profissional. A representação da criatividade e suas funções sociais para ciência, tecnologia e sociedade. Riscos e Impactos tecnológicos e ambientais. Vivência em produtos e/ou processos com demanda real para propositiva de soluções. Entender a formação interdisciplinar aplicada à atividade de final de curso.">
<polygon fill="#8dd3c7" stroke="#8dd3c7" points="779.02,-555.38 678.23,-555.38 678.23,-452.62 779.02,-452.62 779.02,-555.38"/>
<text text-anchor="middle" x="728.62" y="-538.08" font-family="Arial" font-size="14.00">EMB5080</text>
<text text-anchor="middle" x="728.62" y="-506.32" font-family="Arial" font-size="14.00">Projeto</text>
<text text-anchor="middle" x="728.62" y="-490.57" font-family="Arial" font-size="14.00">Comunicar e</text>
<text text-anchor="middle" x="728.62" y="-474.82" font-family="Arial" font-size="14.00">Gerar</text>
<text text-anchor="middle" x="728.62" y="-459.07" font-family="Arial" font-size="14.00">(EXT72h&#45;a)</text>
</a>
</g>
</g>
<!-- EMB5120&#45;&gt;EMB5080 -->
<!-- EMB5320 -->
<g id="node33" class="node">
<title>EMB5320</title>
<g id="a_node33"><a xlink:title="Conceito de inovação. Tipos de inovação. Estratégias de Inovação. A inovação como um processo organizacional. Mecanismos de fomento e cooperação em pesquisa e desenvolvimento. Empreendedorismo. Características, tipos e habilidades do empreendedor. Plano de Negócios: etapas, processos e elaboração.">
<polygon fill="#8dd3c7" stroke="#8dd3c7" points="796.25,-733.62 661,-733.62 661,-662.38 796.25,-662.38 796.25,-733.62"/>
<text text-anchor="middle" x="728.62" y="-716.33" font-family="Arial" font-size="14.00">EMB5320</text>
<text text-anchor="middle" x="728.62" y="-684.58" font-family="Arial" font-size="14.00">Empreendedorismo</text>
<text text-anchor="middle" x="728.62" y="-668.83" font-family="Arial" font-size="14.00">e Inovação</text>
</a>
</g>
</g>
<!-- EMB5120&#45;&gt;EMB5320 -->
<g id="edge20" class="edge">
<title>EMB5120&#45;&gt;EMB5320</title>
<path fill="none" stroke="#8dd3c7" stroke-width="2" d="M614.21,-442.49C639.63,-442.49 665.05,-442.49 665.05,-442.49 665.05,-442.49 665.05,-659.43 665.05,-659.43"/>
<polygon fill="#8dd3c7" stroke="#8dd3c7" stroke-width="2" points="667.55,-660.93 662.55,-660.93 662.55,-659.93 667.55,-659.93 667.55,-660.93"/>
<polyline fill="none" stroke="#8dd3c7" stroke-width="2" points="665.05,-661.43 665.05,-658.93"/>
</g>
<!-- EMB5120&#45;&gt;EMB5320 -->
<!-- EMB5120&#45;&gt;EMB5350 -->
<!-- EMB5120&#45;&gt;EMB5978 -->
<!-- EMB5120&#45;&gt;EMB5984 -->
<!-- EMB5992 -->
<g id="node37" class="node">
<title>EMB5992</title>
<g id="a_node37"><a xlink:title="Contextualização e definição de Estratégia. Teorias de Estratégia. Planejamento Estratégico, Tático e Operacional. Modelos para a formulação, implementação e avaliação do Planejamento Estratégico.">
<polygon fill="#8dd3c7" stroke="#8dd3c7" points="779.02,-644.62 678.23,-644.62 678.23,-573.38 779.02,-573.38 779.02,-644.62"/>
<text text-anchor="middle" x="728.62" y="-627.33" font-family="Arial" font-size="14.00">EMB5992</text>
<text text-anchor="middle" x="728.62" y="-595.58" font-family="Arial" font-size="14.00">Planejamento</text>
<text text-anchor="middle" x="728.62" y="-579.83" font-family="Arial" font-size="14.00">Estratégico</text>
</a>
</g>
</g>
<!-- EMB5120&#45;&gt;EMB5992 -->
<g id="edge26" class="edge">
<title>EMB5120&#45;&gt;EMB5992</title>
<path fill="none" stroke="#8dd3c7" stroke-width="2" d="M613.98,-450.6C617.71,-450.6 620.05,-450.6 620.05,-450.6 620.05,-450.6 620.05,-620.88 620.05,-620.88 620.05,-620.88 675.33,-620.88 675.33,-620.88"/>
<polygon fill="#8dd3c7" stroke="#8dd3c7" stroke-width="2" points="676.83,-618.38 676.83,-623.38 675.83,-623.38 675.83,-618.38 676.83,-618.38"/>
<polyline fill="none" stroke="#8dd3c7" stroke-width="2" points="677.33,-620.88 674.83,-620.88"/>
</g>
<!-- EMB5120&#45;&gt;EMB5992 -->
<!-- EMB5974&#45;&gt;EMB5984 -->
<g id="edge25" class="edge">
<title>EMB5974&#45;&gt;EMB5984</title>
<path fill="none" stroke="#8dd3c7" stroke-width="2" d="M779.13,-981C829.7,-981 900.05,-981 900.05,-981 900.05,-981 900.05,-243.37 900.05,-243.37"/>
<polygon fill="#8dd3c7" stroke="#8dd3c7" stroke-width="2" points="897.55,-241.87 902.55,-241.87 902.55,-242.87 897.55,-242.87 897.55,-241.87"/>
<polyline fill="none" stroke="#8dd3c7" stroke-width="2" points="900.05,-241.37 900.05,-243.87"/>
</g>
<!-- EMB5977&#45;&gt;EMB5978 -->
<g id="edge23" class="edge">
<title>EMB5977&#45;&gt;EMB5978</title>
<path fill="none" stroke="#8dd3c7" stroke-width="2" d="M779.49,-110.12C779.49,-110.12 829.34,-110.12 829.34,-110.12"/>
<polygon fill="#8dd3c7" stroke="#8dd3c7" stroke-width="2" points="830.84,-107.63 830.84,-112.63 829.84,-112.63 829.84,-107.63 830.84,-107.63"/>
<polyline fill="none" stroke="#8dd3c7" stroke-width="2" points="831.34,-110.13 828.84,-110.13"/>
</g>
</g>
</svg>
