<?xml version="1.0" encoding="UTF-8" standalone="no"?>
<!DOCTYPE svg PUBLIC "-//W3C//DTD SVG 1.1//EN"
 "http://www.w3.org/Graphics/SVG/1.1/DTD/svg11.dtd">
<!-- Generated by graphviz version 9.0.0 (0)
 -->
<!-- Title: grafo_materias Pages: 1 -->
<svg width="946pt" height="772pt"
 viewBox="0.00 0.00 946.30 772.00" xmlns="http://www.w3.org/2000/svg" xmlns:xlink="http://www.w3.org/1999/xlink">
<g id="graph0" class="graph" transform="scale(1 1) rotate(0) translate(4 768)">
<title>grafo_materias</title>
<polygon fill="none" stroke="none" points="-4,4 -4,-768 942.3,-768 942.3,4 -4,4"/>
<g id="clust1" class="cluster">
<title>cluster_everything</title>
<polygon fill="none" stroke="none" points="8,-8 8,-756 930.3,-756 930.3,-8 8,-8"/>
</g>
<g id="clust2" class="cluster">
<title>cluster_header</title>
<polygon fill="none" stroke="none" points="27.6,-696 27.6,-748 922.3,-748 922.3,-696 27.6,-696"/>
</g>
<g id="clust3" class="cluster">
<title>cluster_0</title>
<polygon fill="none" stroke="none" points="16,-16 16,-613 156,-613 156,-16 16,-16"/>
</g>
<g id="clust4" class="cluster">
<title>cluster_1</title>
<polygon fill="none" stroke="none" points="176,-64 176,-613 313,-613 313,-64 176,-64"/>
</g>
<g id="clust5" class="cluster">
<title>cluster_2</title>
<polygon fill="none" stroke="none" points="333,-44 333,-609 461.75,-609 461.75,-44 333,-44"/>
</g>
<g id="clust6" class="cluster">
<title>cluster_3</title>
<polygon fill="none" stroke="none" points="481.75,-141 481.75,-674 614.25,-674 614.25,-141 481.75,-141"/>
</g>
<g id="clust7" class="cluster">
<title>cluster_4</title>
<polygon fill="none" stroke="none" points="634.25,-16 634.25,-654 785.5,-654 785.5,-16 634.25,-16"/>
</g>
<g id="clust8" class="cluster">
<title>cluster_5</title>
<polygon fill="none" stroke="none" points="805.5,-405 805.5,-598 922.3,-598 922.3,-405 805.5,-405"/>
</g>
<!-- 1ª Fase -->
<g id="node1" class="node">
<title>1ª Fase</title>
<polygon fill="lightgrey" stroke="black" points="136.4,-740 35.6,-740 35.6,-704 136.4,-704 136.4,-740"/>
<text text-anchor="middle" x="86" y="-716.58" font-family="Arial" font-size="14.00">1ª Fase</text>
</g>
<!-- 2ª Fase -->
<g id="node2" class="node">
<title>2ª Fase</title>
<polygon fill="lightgrey" stroke="black" points="294.9,-740 194.1,-740 194.1,-704 294.9,-704 294.9,-740"/>
<text text-anchor="middle" x="244.5" y="-716.58" font-family="Arial" font-size="14.00">2ª Fase</text>
</g>
<!-- 1ª Fase&#45;&gt;2ª Fase -->
<!-- 3ª Fase -->
<g id="node3" class="node">
<title>3ª Fase</title>
<polygon fill="lightgrey" stroke="black" points="447.77,-740 346.98,-740 346.98,-704 447.77,-704 447.77,-740"/>
<text text-anchor="middle" x="397.38" y="-716.58" font-family="Arial" font-size="14.00">3ª Fase</text>
</g>
<!-- 2ª Fase&#45;&gt;3ª Fase -->
<!-- 4ª Fase -->
<g id="node4" class="node">
<title>4ª Fase</title>
<polygon fill="lightgrey" stroke="black" points="598.4,-740 497.6,-740 497.6,-704 598.4,-704 598.4,-740"/>
<text text-anchor="middle" x="548" y="-716.58" font-family="Arial" font-size="14.00">4ª Fase</text>
</g>
<!-- 3ª Fase&#45;&gt;4ª Fase -->
<!-- 5ª Fase -->
<g id="node5" class="node">
<title>5ª Fase</title>
<polygon fill="lightgrey" stroke="black" points="760.27,-740 659.48,-740 659.48,-704 760.27,-704 760.27,-740"/>
<text text-anchor="middle" x="709.88" y="-716.58" font-family="Arial" font-size="14.00">5ª Fase</text>
</g>
<!-- 4ª Fase&#45;&gt;5ª Fase -->
<!-- 6ª Fase -->
<g id="node6" class="node">
<title>6ª Fase</title>
<polygon fill="lightgrey" stroke="black" points="914.3,-740 813.5,-740 813.5,-704 914.3,-704 914.3,-740"/>
<text text-anchor="middle" x="863.9" y="-716.58" font-family="Arial" font-size="14.00">6ª Fase</text>
</g>
<!-- 5ª Fase&#45;&gt;6ª Fase -->
<!-- ARA7120 -->
<g id="node7" class="node">
<title>ARA7120</title>
<g id="a_node7"><a xlink:title="Perfil do profissional da computação. Campo de atuação. Ética profissional. Regulamentação profissional. Estrutura e objetivos do curso. Histórico e evolução dos computadores. Introdução à computação. Características básicas dos computadores: hardware e software. Componentes básicos dos computadores: memória, unidade central de processamento, entrada e saída. Modelo de von Neumann. Software básico e programas aplicativos. Sistemas de numeração: representação numérica e conversão de base.">
<polygon fill="#8dd3c7" stroke="#8dd3c7" points="136.4,-410.62 35.6,-410.62 35.6,-339.38 136.4,-339.38 136.4,-410.62"/>
<text text-anchor="middle" x="86" y="-393.32" font-family="Arial" font-size="14.00">ARA7120</text>
<text text-anchor="middle" x="86" y="-361.57" font-family="Arial" font-size="14.00">Introdução à</text>
<text text-anchor="middle" x="86" y="-345.82" font-family="Arial" font-size="14.00">Computação</text>
</a>
</g>
</g>
<!-- ARA7123 -->
<g id="node13" class="node">
<title>ARA7123</title>
<g id="a_node13"><a xlink:title="Aritmética binária: ponto fixo e flutuante. Unidades lógicas e aritméticas. Barramento de dados e de controle. Hierarquia de memória: cache, interna e externa. Memória virtual. Entrada e saída. Relógio. Ciclo de máquina. Ciclo de instrução. Microprogramas. Instruções que implementam operações, desvio do fluxo de controle e transferência de dados. Conjuntos de instruções: CISC x RISC. Pipeline. Controle de acesso aos dispositivos e resolução de conflitos. Interrupções. Polling. Acesso direto à memória. Evolução da arquitetura dos computadores.">
<polygon fill="#8dd3c7" stroke="#8dd3c7" points="300.88,-604.5 188.12,-604.5 188.12,-517.5 300.88,-517.5 300.88,-604.5"/>
<text text-anchor="middle" x="244.5" y="-587.2" font-family="Arial" font-size="14.00">ARA7123</text>
<text text-anchor="middle" x="244.5" y="-555.45" font-family="Arial" font-size="14.00">Organização e</text>
<text text-anchor="middle" x="244.5" y="-539.7" font-family="Arial" font-size="14.00">Arquitetura de</text>
<text text-anchor="middle" x="244.5" y="-523.95" font-family="Arial" font-size="14.00">Computadores I</text>
</a>
</g>
</g>
<!-- ARA7120&#45;&gt;ARA7123 -->
<g id="edge6" class="edge">
<title>ARA7120&#45;&gt;ARA7123</title>
<path fill="none" stroke="#8dd3c7" stroke-width="2" d="M136.79,-401.72C149.85,-401.72 160.3,-401.72 160.3,-401.72 160.3,-401.72 160.3,-575.5 160.3,-575.5 160.3,-575.5 185.37,-575.5 185.37,-575.5"/>
<polygon fill="#8dd3c7" stroke="#8dd3c7" stroke-width="2" points="186.87,-573 186.87,-578 185.87,-578 185.87,-573 186.87,-573"/>
<polyline fill="none" stroke="#8dd3c7" stroke-width="2" points="187.37,-575.5 184.87,-575.5"/>
</g>
<!-- ARA7120&#45;&gt;ARA7123 -->
<!-- ARA7141 -->
<g id="node14" class="node">
<title>ARA7141</title>
<g id="a_node14"><a xlink:title="Ponteiros. Alocação dinâmica. Tipo abstrato de dado. Implementação de estruturas de dados alocadas dinamicamente. Recursividade. Manipulação de arquivos. Fundamentos de algoritmos de ordenação e pesquisa de dados. Uso de uma linguagem de programação em laboratório.">
<polygon fill="#8dd3c7" stroke="#8dd3c7" points="305,-499.62 184,-499.62 184,-428.38 305,-428.38 305,-499.62"/>
<text text-anchor="middle" x="244.5" y="-482.32" font-family="Arial" font-size="14.00">ARA7141</text>
<text text-anchor="middle" x="244.5" y="-450.57" font-family="Arial" font-size="14.00">Programação em</text>
<text text-anchor="middle" x="244.5" y="-434.82" font-family="Arial" font-size="14.00">Computadores II</text>
</a>
</g>
</g>
<!-- ARA7120&#45;&gt;ARA7141 -->
<!-- ARA7203 -->
<g id="node15" class="node">
<title>ARA7203</title>
<g id="a_node15"><a xlink:title="História da Informática na Educação. Conceitos das teorias de aprendizagem. Uso de tecnologias de Informação e Comunicação aplicadas as teorias de aprendizagem. Exemplos de softwares educacionais. Avaliação de Software Educacional. Redes sociais na educação. Recursos multimídia como recurso didático. Informática na Educação Especial.">
<polygon fill="#8dd3c7" stroke="#8dd3c7" points="295.62,-232.62 193.38,-232.62 193.38,-161.38 295.62,-161.38 295.62,-232.62"/>
<text text-anchor="middle" x="244.5" y="-215.32" font-family="Arial" font-size="14.00">ARA7203</text>
<text text-anchor="middle" x="244.5" y="-183.57" font-family="Arial" font-size="14.00">Informática na</text>
<text text-anchor="middle" x="244.5" y="-167.82" font-family="Arial" font-size="14.00">Educação I</text>
</a>
</g>
</g>
<!-- ARA7120&#45;&gt;ARA7203 -->
<!-- ARA7204 -->
<g id="node16" class="node">
<title>ARA7204</title>
<g id="a_node16"><a xlink:title="Organização como sistema social. Processo de gestão estratégica. Estrutura organizacional. Estilo de gestão, poder, autoridade, delegação e tomada de decisão. Planejamento estratégico e ambiente externo. Controle estratégico. Administração de Recursos Digitais.">
<polygon fill="#8dd3c7" stroke="#8dd3c7" points="295.62,-143.62 193.38,-143.62 193.38,-72.38 295.62,-72.38 295.62,-143.62"/>
<text text-anchor="middle" x="244.5" y="-126.33" font-family="Arial" font-size="14.00">ARA7204</text>
<text text-anchor="middle" x="244.5" y="-94.58" font-family="Arial" font-size="14.00">Introdução à</text>
<text text-anchor="middle" x="244.5" y="-78.83" font-family="Arial" font-size="14.00">Administração</text>
</a>
</g>
</g>
<!-- ARA7120&#45;&gt;ARA7204 -->
<!-- ARA7205 -->
<g id="node17" class="node">
<title>ARA7205</title>
<g id="a_node17"><a xlink:title="Conceitos e abordagens históricas e evolutivas do Marketing. O ambiente de Marketing. O mercado e sua visão de segmentação e posicionamento. Marketing voltado para o valor. Comportamento do consumidor, influência na compra e o processo de decisão de compra. Mix de marketing: produto, preço, praça e promoção. Marketing aplicado aos negócios digitais.">
<polygon fill="#8dd3c7" stroke="#8dd3c7" points="294.9,-321.62 194.1,-321.62 194.1,-250.38 294.9,-250.38 294.9,-321.62"/>
<text text-anchor="middle" x="244.5" y="-304.32" font-family="Arial" font-size="14.00">ARA7205</text>
<text text-anchor="middle" x="244.5" y="-272.57" font-family="Arial" font-size="14.00">Princípios de</text>
<text text-anchor="middle" x="244.5" y="-256.82" font-family="Arial" font-size="14.00">Marketing</text>
</a>
</g>
</g>
<!-- ARA7120&#45;&gt;ARA7205 -->
<!-- ARA7206 -->
<g id="node18" class="node">
<title>ARA7206</title>
<g id="a_node18"><a xlink:title="Introdução à multimídia, conceitos e aplicações de hipertexto e hipermídia. Ferramentas de desenvolvimento para multimídia. Conceitos básicos de imagem, textos, gráficos vetoriais, animação por computador, vídeo e áudio. Exemplos de aplicações multimídia.">
<polygon fill="#8dd3c7" stroke="#8dd3c7" points="294.9,-410.62 194.1,-410.62 194.1,-339.38 294.9,-339.38 294.9,-410.62"/>
<text text-anchor="middle" x="244.5" y="-393.32" font-family="Arial" font-size="14.00">ARA7206</text>
<text text-anchor="middle" x="244.5" y="-361.57" font-family="Arial" font-size="14.00">Sistemas</text>
<text text-anchor="middle" x="244.5" y="-345.82" font-family="Arial" font-size="14.00">Multimídia I</text>
</a>
</g>
</g>
<!-- ARA7120&#45;&gt;ARA7206 -->
<!-- ARA7121 -->
<g id="node8" class="node">
<title>ARA7121</title>
<g id="a_node8"><a xlink:title="Lógica matemática. Indução finita. Conjuntos. Relações e funções. Contagem. Álgebra booleana. Recursão. Fundamentos de grafos.">
<polygon fill="#8dd3c7" stroke="#8dd3c7" points="148,-321.5 24,-321.5 24,-234.5 148,-234.5 148,-321.5"/>
<text text-anchor="middle" x="86" y="-304.2" font-family="Arial" font-size="14.00">ARA7121</text>
<text text-anchor="middle" x="86" y="-272.45" font-family="Arial" font-size="14.00">Fundamentos</text>
<text text-anchor="middle" x="86" y="-256.7" font-family="Arial" font-size="14.00">Matemáticos</text>
<text text-anchor="middle" x="86" y="-240.95" font-family="Arial" font-size="14.00">para Computação</text>
</a>
</g>
</g>
<!-- ARA7126 -->
<g id="node21" class="node">
<title>ARA7126</title>
<g id="a_node21"><a xlink:title="Redes de computadores e a Internet. Camada de aplicação. Camada de transporte. Camada de rede. A camada de enlace e redes locais.">
<polygon fill="#8dd3c7" stroke="#8dd3c7" points="453.75,-123.62 341,-123.62 341,-52.38 453.75,-52.38 453.75,-123.62"/>
<text text-anchor="middle" x="397.38" y="-106.33" font-family="Arial" font-size="14.00">ARA7126</text>
<text text-anchor="middle" x="397.38" y="-74.58" font-family="Arial" font-size="14.00">Redes de</text>
<text text-anchor="middle" x="397.38" y="-58.83" font-family="Arial" font-size="14.00">Computadores I</text>
</a>
</g>
</g>
<!-- ARA7121&#45;&gt;ARA7126 -->
<g id="edge10" class="edge">
<title>ARA7121&#45;&gt;ARA7126</title>
<path fill="none" stroke="#8dd3c7" stroke-width="2" d="M145.3,-234.11C145.3,-171.06 145.3,-62.38 145.3,-62.38 145.3,-62.38 338.3,-62.38 338.3,-62.38"/>
<polygon fill="#8dd3c7" stroke="#8dd3c7" stroke-width="2" points="339.8,-59.88 339.8,-64.88 338.8,-64.88 338.8,-59.88 339.8,-59.88"/>
<polyline fill="none" stroke="#8dd3c7" stroke-width="2" points="340.3,-62.38 337.8,-62.38"/>
</g>
<!-- ARA7133 -->
<g id="node32" class="node">
<title>ARA7133</title>
<g id="a_node32"><a xlink:title="Introdução e histórico. Teoria de problemas e sua resolução. Paradigmas da IA. Modelagem de Agentes Inteligentes. Métodos de busca. Representação e aquisição de Conhecimento. Métodos de raciocínio. Tratamento de incertezas. Sistemas especialistas. Fundamentos de: lógica nebulosa, redes neurais artificiais e algoritmos genéticos.">
<polygon fill="#8dd3c7" stroke="#8dd3c7" points="760.27,-95.62 659.48,-95.62 659.48,-24.38 760.27,-24.38 760.27,-95.62"/>
<text text-anchor="middle" x="709.88" y="-78.33" font-family="Arial" font-size="14.00">ARA7133</text>
<text text-anchor="middle" x="709.88" y="-46.58" font-family="Arial" font-size="14.00">Inteligência</text>
<text text-anchor="middle" x="709.88" y="-30.82" font-family="Arial" font-size="14.00">Artificial</text>
</a>
</g>
</g>
<!-- ARA7121&#45;&gt;ARA7133 -->
<g id="edge21" class="edge">
<title>ARA7121&#45;&gt;ARA7133</title>
<path fill="none" stroke="#8dd3c7" stroke-width="2" d="M142.3,-234.05C142.3,-164.87 142.3,-38.38 142.3,-38.38 142.3,-38.38 656.51,-38.38 656.51,-38.38"/>
<polygon fill="#8dd3c7" stroke="#8dd3c7" stroke-width="2" points="658.01,-35.88 658.01,-40.88 657.01,-40.88 657.01,-35.88 658.01,-35.88"/>
<polyline fill="none" stroke="#8dd3c7" stroke-width="2" points="658.51,-38.38 656.01,-38.38"/>
</g>
<!-- ARA7122 -->
<g id="node9" class="node">
<title>ARA7122</title>
<g id="a_node9"><a xlink:title="Normas da ABNT para trabalhos acadêmicos: citações e referências bibliográficas. Fontes de pesquisa. Produção de relatório, resumo e resenha. Técnicas de leitura, produção e apresentação de trabalhos científicos.">
<polygon fill="#8dd3c7" stroke="#8dd3c7" points="137.5,-604.5 34.5,-604.5 34.5,-517.5 137.5,-517.5 137.5,-604.5"/>
<text text-anchor="middle" x="86" y="-587.2" font-family="Arial" font-size="14.00">ARA7122</text>
<text text-anchor="middle" x="86" y="-555.45" font-family="Arial" font-size="14.00">Elaboração de</text>
<text text-anchor="middle" x="86" y="-539.7" font-family="Arial" font-size="14.00">Trabalhos</text>
<text text-anchor="middle" x="86" y="-523.95" font-family="Arial" font-size="14.00">Acadêmicos</text>
</a>
</g>
</g>
<!-- ARA7230 -->
<g id="node39" class="node">
<title>ARA7230</title>
<g id="a_node39"><a xlink:title="Esta disciplina propõe a elaboração de um projeto científico e revisão bibliográfica de um tema definido com o professor orientador.">
<polygon fill="#fb8072" stroke="#fb8072" points="914.3,-589.5 813.5,-589.5 813.5,-502.5 914.3,-502.5 914.3,-589.5"/>
<text text-anchor="middle" x="863.9" y="-572.2" font-family="Arial" font-size="14.00">ARA7230</text>
<text text-anchor="middle" x="863.9" y="-540.45" font-family="Arial" font-size="14.00">Trabalho de</text>
<text text-anchor="middle" x="863.9" y="-524.7" font-family="Arial" font-size="14.00">Conclusão de</text>
<text text-anchor="middle" x="863.9" y="-508.95" font-family="Arial" font-size="14.00">Curso</text>
</a>
</g>
</g>
<!-- ARA7122&#45;&gt;ARA7230 -->
<g id="edge26" class="edge">
<title>ARA7122&#45;&gt;ARA7230</title>
<path fill="none" stroke="#fb8072" stroke-width="2" d="M86.3,-604.65C86.3,-640.3 86.3,-684.81 86.3,-684.81 86.3,-684.81 864.3,-684.81 864.3,-684.81 864.3,-684.81 864.3,-592.42 864.3,-592.42"/>
<polygon fill="#fb8072" stroke="#fb8072" stroke-width="2" points="861.8,-590.92 866.8,-590.92 866.8,-591.92 861.8,-591.92 861.8,-590.92"/>
<polyline fill="none" stroke="#fb8072" stroke-width="2" points="864.3,-590.42 864.3,-592.92"/>
</g>
<!-- ARA7140 -->
<g id="node10" class="node">
<title>ARA7140</title>
<g id="a_node10"><a xlink:title="Conceito de algoritmo. Pseudo&#45;código e fluxograma. Estrutura de um algoritmo. identificadores, palavras reservadas, variáveis, constantes, declaração de variáveis, comandos de entrada e saída, estruturas de controle de fluxo, estruturas de dados homogêneas (vetores e matrizes) e heterogêneas (registros). Tipos definidos pelo usuário. Modularização. Introdução à uma Linguagem de Programação de alto nível estruturada. Atividades em laboratório com a linguagem selecionada.">
<polygon fill="#8dd3c7" stroke="#8dd3c7" points="146.5,-499.62 25.5,-499.62 25.5,-428.38 146.5,-428.38 146.5,-499.62"/>
<text text-anchor="middle" x="86" y="-482.32" font-family="Arial" font-size="14.00">ARA7140</text>
<text text-anchor="middle" x="86" y="-450.57" font-family="Arial" font-size="14.00">Programação em</text>
<text text-anchor="middle" x="86" y="-434.82" font-family="Arial" font-size="14.00">Computadores I</text>
</a>
</g>
</g>
<!-- ARA7140&#45;&gt;ARA7141 -->
<g id="edge7" class="edge">
<title>ARA7140&#45;&gt;ARA7141</title>
<path fill="none" stroke="#8dd3c7" stroke-width="2" d="M146.83,-464C146.83,-464 181.07,-464 181.07,-464"/>
<polygon fill="#8dd3c7" stroke="#8dd3c7" stroke-width="2" points="182.57,-461.5 182.57,-466.5 181.57,-466.5 181.57,-461.5 182.57,-461.5"/>
<polyline fill="none" stroke="#8dd3c7" stroke-width="2" points="183.07,-464 180.57,-464"/>
</g>
<!-- ARA7201 -->
<g id="node11" class="node">
<title>ARA7201</title>
<g id="a_node11"><a xlink:title="Origens Econômica e Sociológica do Processo de Inovação (Pensamento de Schumpeter). Visões da Inovação e da Evolução Tecnológica. Métodos e estratégias de Gestão de Inovação. Conceito em criatividade, o papel da criatividade nas modernas organizações, bloqueios, técnicas do desenvolvimento da criatividade.">
<polygon fill="#8dd3c7" stroke="#8dd3c7" points="139,-216.38 33,-216.38 33,-113.62 139,-113.62 139,-216.38"/>
<text text-anchor="middle" x="86" y="-199.07" font-family="Arial" font-size="14.00">ARA7201</text>
<text text-anchor="middle" x="86" y="-167.32" font-family="Arial" font-size="14.00">Inovação e</text>
<text text-anchor="middle" x="86" y="-151.57" font-family="Arial" font-size="14.00">Criatividade na</text>
<text text-anchor="middle" x="86" y="-135.82" font-family="Arial" font-size="14.00">Era do</text>
<text text-anchor="middle" x="86" y="-120.08" font-family="Arial" font-size="14.00">Conhecimento</text>
</a>
</g>
</g>
<!-- ARA7202 -->
<g id="node12" class="node">
<title>ARA7202</title>
<g id="a_node12"><a xlink:title="Conceito de Economia. Problema Econômico Fundamental. Necessidades, Bens e suas Classificações. Organização Econômica: Elementos dos sistemas econômicos; agentes econômicos; fatores de produção; economia de mercado e economia planificada. Estruturas de Mercado. A decisão de Investir. Fundamentos de matemática financeira Juros; Taxa de Juros; Fluxo de Caixa; Série Uniforme; Valor Futuro; Valor Presente. Indicadores financeiros para análise de projetos de investimentos: Taxa de Mínima Atratividade; Método do Valor Presente Líquido; Índice Benefício/Custo; Retorno Adicional sobre o Investimento; Taxa Interna de Retorno e Período de recuperação do investimento..">
<polygon fill="#8dd3c7" stroke="#8dd3c7" points="136.4,-95.62 35.6,-95.62 35.6,-24.38 136.4,-24.38 136.4,-95.62"/>
<text text-anchor="middle" x="86" y="-78.33" font-family="Arial" font-size="14.00">ARA7202</text>
<text text-anchor="middle" x="86" y="-46.58" font-family="Arial" font-size="14.00">Introdução a</text>
<text text-anchor="middle" x="86" y="-30.82" font-family="Arial" font-size="14.00">Economia</text>
</a>
</g>
</g>
<!-- ARA7131 -->
<g id="node28" class="node">
<title>ARA7131</title>
<g id="a_node28"><a xlink:title="Histórico e evolução dos sistemas operacionais. Arquitetura de sistemas operacionais. Gerenciamento de processos. Gerenciamento de memória. Gerenciamento de dispositivos de entrada e saída. Sistemas de arquivos. Segurança em sistemas operacionais. Estudos de caso.">
<polygon fill="#8dd3c7" stroke="#8dd3c7" points="598.4,-665.62 497.6,-665.62 497.6,-594.38 598.4,-594.38 598.4,-665.62"/>
<text text-anchor="middle" x="548" y="-648.33" font-family="Arial" font-size="14.00">ARA7131</text>
<text text-anchor="middle" x="548" y="-616.58" font-family="Arial" font-size="14.00">Sistemas</text>
<text text-anchor="middle" x="548" y="-600.83" font-family="Arial" font-size="14.00">Operacionais</text>
</a>
</g>
</g>
<!-- ARA7123&#45;&gt;ARA7131 -->
<g id="edge16" class="edge">
<title>ARA7123&#45;&gt;ARA7131</title>
<path fill="none" stroke="#8dd3c7" stroke-width="2" d="M245.3,-604.89C245.3,-627.48 245.3,-650.34 245.3,-650.34 245.3,-650.34 494.83,-650.34 494.83,-650.34"/>
<polygon fill="#8dd3c7" stroke="#8dd3c7" stroke-width="2" points="496.33,-647.84 496.33,-652.84 495.33,-652.84 495.33,-647.84 496.33,-647.84"/>
<polyline fill="none" stroke="#8dd3c7" stroke-width="2" points="496.83,-650.34 494.33,-650.34"/>
</g>
<!-- ARA7124 -->
<g id="node19" class="node">
<title>ARA7124</title>
<g id="a_node19"><a xlink:title="Análise de requisitos: requisitos funcionais e requisitos não&#45;funcionais; técnicas para levantamento e representação de requisitos, incluindo casos de uso. Modelagem orientada a objetos. Projeto orientado a objetos: técnicas para projeto; padrões de projeto, componentes e frameworks; projeto de arquitetura. Linguagem de especificação orientada a objetos. Métodos de análise e projeto orientados a objetos.">
<polygon fill="#8dd3c7" stroke="#8dd3c7" points="449.25,-301.62 345.5,-301.62 345.5,-230.38 449.25,-230.38 449.25,-301.62"/>
<text text-anchor="middle" x="397.38" y="-284.32" font-family="Arial" font-size="14.00">ARA7124</text>
<text text-anchor="middle" x="397.38" y="-252.57" font-family="Arial" font-size="14.00">Engenharia de</text>
<text text-anchor="middle" x="397.38" y="-236.82" font-family="Arial" font-size="14.00">Software I</text>
</a>
</g>
</g>
<!-- ARA7141&#45;&gt;ARA7124 -->
<g id="edge8" class="edge">
<title>ARA7141&#45;&gt;ARA7124</title>
<path fill="none" stroke="#8dd3c7" stroke-width="2" d="M301.3,-427.95C301.3,-371.21 301.3,-267.46 301.3,-267.46 301.3,-267.46 342.62,-267.46 342.62,-267.46"/>
<polygon fill="#8dd3c7" stroke="#8dd3c7" stroke-width="2" points="344.12,-264.96 344.12,-269.96 343.12,-269.96 343.12,-264.96 344.12,-264.96"/>
<polyline fill="none" stroke="#8dd3c7" stroke-width="2" points="344.62,-267.46 342.12,-267.46"/>
</g>
<!-- ARA7125 -->
<g id="node20" class="node">
<title>ARA7125</title>
<g id="a_node20"><a xlink:title="Listas lineares e suas generalizações: listas ordenadas, listas encadeadas, pilhas e filas. Aplicações de listas. Algoritmos de inserção, remoção e consulta. Tabelas de Espalhamento Árvores binária. Métodos de pesquisa. Técnicas de implementação iterativa e recursiva de estruturas de dados.">
<polygon fill="#8dd3c7" stroke="#8dd3c7" points="447.77,-495.62 346.98,-495.62 346.98,-424.38 447.77,-424.38 447.77,-495.62"/>
<text text-anchor="middle" x="397.38" y="-478.32" font-family="Arial" font-size="14.00">ARA7125</text>
<text text-anchor="middle" x="397.38" y="-446.57" font-family="Arial" font-size="14.00">Estruturas de</text>
<text text-anchor="middle" x="397.38" y="-430.82" font-family="Arial" font-size="14.00">Dados I</text>
</a>
</g>
</g>
<!-- ARA7141&#45;&gt;ARA7125 -->
<g id="edge9" class="edge">
<title>ARA7141&#45;&gt;ARA7125</title>
<path fill="none" stroke="#8dd3c7" stroke-width="2" d="M305.36,-478.81C305.36,-478.81 344.06,-478.81 344.06,-478.81"/>
<polygon fill="#8dd3c7" stroke="#8dd3c7" stroke-width="2" points="345.56,-476.31 345.56,-481.31 344.56,-481.31 344.56,-476.31 345.56,-476.31"/>
<polyline fill="none" stroke="#8dd3c7" stroke-width="2" points="346.06,-478.81 343.56,-478.81"/>
</g>
<!-- ARA7127 -->
<g id="node22" class="node">
<title>ARA7127</title>
<g id="a_node22"><a xlink:title="Conceitos de classes, atributos, métodos e objetos. Encapsulamento. Herança. Polimorfismo. Mensagens. Tratamento de exceções. Reusabilidade. Criação e utilização de bibliotecas de classes. Persistência de Objetos. Desenvolvimento de programas utilizando uma linguagem orientada a objetos.&quot;.">
<polygon fill="#8dd3c7" stroke="#8dd3c7" points="447.77,-600.5 346.98,-600.5 346.98,-513.5 447.77,-513.5 447.77,-600.5"/>
<text text-anchor="middle" x="397.38" y="-583.2" font-family="Arial" font-size="14.00">ARA7127</text>
<text text-anchor="middle" x="397.38" y="-551.45" font-family="Arial" font-size="14.00">Programação</text>
<text text-anchor="middle" x="397.38" y="-535.7" font-family="Arial" font-size="14.00">Orientada a</text>
<text text-anchor="middle" x="397.38" y="-519.95" font-family="Arial" font-size="14.00">Objetos</text>
</a>
</g>
</g>
<!-- ARA7141&#45;&gt;ARA7127 -->
<g id="edge11" class="edge">
<title>ARA7141&#45;&gt;ARA7127</title>
<path fill="none" stroke="#8dd3c7" stroke-width="2" d="M305.42,-462C315.8,-462 323.3,-462 323.3,-462 323.3,-462 323.3,-572.83 323.3,-572.83 323.3,-572.83 344.24,-572.83 344.24,-572.83"/>
<polygon fill="#8dd3c7" stroke="#8dd3c7" stroke-width="2" points="345.74,-570.33 345.74,-575.33 344.74,-575.33 344.74,-570.33 345.74,-570.33"/>
<polyline fill="none" stroke="#8dd3c7" stroke-width="2" points="346.24,-572.83 343.74,-572.83"/>
</g>
<!-- ARA7207 -->
<g id="node23" class="node">
<title>ARA7207</title>
<g id="a_node23"><a xlink:title="Conceituação de Educação a Distância (EaD). Histórico da EaD no Brasil. Características, regulamentações, políticas institucionais da EAD. Modelos de cursos. A Mediação pedagógica na modalidade EaD. A Importância da elaboração do material didático na EAD. Papel do Professor na EaD. Procedimentos de Tutoria em EaD. Exemplo de projetos desenvolvidos para EaD. TV Digital e a Educação.">
<polygon fill="#8dd3c7" stroke="#8dd3c7" points="447.77,-212.62 346.98,-212.62 346.98,-141.38 447.77,-141.38 447.77,-212.62"/>
<text text-anchor="middle" x="397.38" y="-195.32" font-family="Arial" font-size="14.00">ARA7207</text>
<text text-anchor="middle" x="397.38" y="-163.57" font-family="Arial" font-size="14.00">Educação a</text>
<text text-anchor="middle" x="397.38" y="-147.82" font-family="Arial" font-size="14.00">Distância I</text>
</a>
</g>
</g>
<!-- ARA7203&#45;&gt;ARA7207 -->
<g id="edge12" class="edge">
<title>ARA7203&#45;&gt;ARA7207</title>
<path fill="none" stroke="#8dd3c7" stroke-width="2" d="M295.83,-178.46C295.83,-178.46 344.2,-178.46 344.2,-178.46"/>
<polygon fill="#8dd3c7" stroke="#8dd3c7" stroke-width="2" points="345.7,-175.96 345.7,-180.96 344.7,-180.96 344.7,-175.96 345.7,-175.96"/>
<polyline fill="none" stroke="#8dd3c7" stroke-width="2" points="346.2,-178.46 343.7,-178.46"/>
</g>
<!-- ARA7206&#45;&gt;ARA7124 -->
<!-- ARA7206&#45;&gt;ARA7125 -->
<!-- ARA7206&#45;&gt;ARA7126 -->
<!-- ARA7206&#45;&gt;ARA7127 -->
<!-- ARA7206&#45;&gt;ARA7207 -->
<!-- ARA7208 -->
<g id="node24" class="node">
<title>ARA7208</title>
<g id="a_node24"><a xlink:title="Conceitos básicos de Qualidade. Formação histórica dos conceitos de Qualidade. Abordagens da Qualidade. Fundamentos e Critérios da Excelência da Gestão pela Qualidade. Qualidade em Serviços. Gestão de Processos. Ciclo PDCA. Ferramentas da Qualidade. Sistemas Certificáveis da Gestão da Qualidade. Gestão da Qualidade com a Tecnologia da Informação.">
<polygon fill="#8dd3c7" stroke="#8dd3c7" points="453.38,-406.5 341.38,-406.5 341.38,-319.5 453.38,-319.5 453.38,-406.5"/>
<text text-anchor="middle" x="397.38" y="-389.2" font-family="Arial" font-size="14.00">ARA7208</text>
<text text-anchor="middle" x="397.38" y="-357.45" font-family="Arial" font-size="14.00">Princípios e</text>
<text text-anchor="middle" x="397.38" y="-341.7" font-family="Arial" font-size="14.00">Ferramentas da</text>
<text text-anchor="middle" x="397.38" y="-325.95" font-family="Arial" font-size="14.00">Qualidade</text>
</a>
</g>
</g>
<!-- ARA7206&#45;&gt;ARA7208 -->
<!-- ARA7209 -->
<g id="node29" class="node">
<title>ARA7209</title>
<g id="a_node29"><a xlink:title="Tecnologias, aplicações e plataforma multimídia. Hardware e software para multimídia. Ferramentas de autoria. Representação de dados multimídia: imagem, gráficos vetoriais, texto, áudio, animação por computador e vídeo. Padrões de codificação de dados multimídia. Conceitos de compressão de imagem, áudio e vídeo. Projeto e modelagem de aplicações multimídia.&quot;.">
<polygon fill="#8dd3c7" stroke="#8dd3c7" points="598.4,-576.62 497.6,-576.62 497.6,-505.38 598.4,-505.38 598.4,-576.62"/>
<text text-anchor="middle" x="548" y="-559.33" font-family="Arial" font-size="14.00">ARA7209</text>
<text text-anchor="middle" x="548" y="-527.58" font-family="Arial" font-size="14.00">Sistemas</text>
<text text-anchor="middle" x="548" y="-511.82" font-family="Arial" font-size="14.00">Multimídia II</text>
</a>
</g>
</g>
<!-- ARA7206&#45;&gt;ARA7209 -->
<g id="edge18" class="edge">
<title>ARA7206&#45;&gt;ARA7209</title>
<path fill="none" stroke="#8dd3c7" stroke-width="2" d="M295.32,-389.72C314.74,-389.72 332.3,-389.72 332.3,-389.72 332.3,-389.72 332.3,-510.79 332.3,-510.79 332.3,-510.79 494.66,-510.79 494.66,-510.79"/>
<polygon fill="#8dd3c7" stroke="#8dd3c7" stroke-width="2" points="496.16,-508.29 496.16,-513.29 495.16,-513.29 495.16,-508.29 496.16,-508.29"/>
<polyline fill="none" stroke="#8dd3c7" stroke-width="2" points="496.66,-510.79 494.16,-510.79"/>
</g>
<!-- ARA7130 -->
<g id="node27" class="node">
<title>ARA7130</title>
<g id="a_node27"><a xlink:title="Evolução da prática de desenvolvimento de software; Critérios de qualidade de artefatos de software; modelos de ciclo de vida; metodologias de desenvolvimento de software; manutenção de software; engenharia reversa; modelagem formal de sistemas; abordagens voltadas ao reuso de software; teste de software; gerenciamento do processo de produção de software e técnicas de apoio ao gerenciamento do processo de produção de software; apoio automatizado ao desenvolvimento de software.">
<polygon fill="#8dd3c7" stroke="#8dd3c7" points="599.88,-398.62 496.12,-398.62 496.12,-327.38 599.88,-327.38 599.88,-398.62"/>
<text text-anchor="middle" x="548" y="-381.32" font-family="Arial" font-size="14.00">ARA7130</text>
<text text-anchor="middle" x="548" y="-349.57" font-family="Arial" font-size="14.00">Engenharia de</text>
<text text-anchor="middle" x="548" y="-333.82" font-family="Arial" font-size="14.00">Software II</text>
</a>
</g>
</g>
<!-- ARA7124&#45;&gt;ARA7130 -->
<g id="edge15" class="edge">
<title>ARA7124&#45;&gt;ARA7130</title>
<path fill="none" stroke="#8dd3c7" stroke-width="2" d="M449.54,-270C468.47,-270 485.3,-270 485.3,-270 485.3,-270 485.3,-363 485.3,-363 485.3,-363 493.15,-363 493.15,-363"/>
<polygon fill="#8dd3c7" stroke="#8dd3c7" stroke-width="2" points="494.65,-360.5 494.65,-365.5 493.65,-365.5 493.65,-360.5 494.65,-360.5"/>
<polyline fill="none" stroke="#8dd3c7" stroke-width="2" points="495.15,-363 492.65,-363"/>
</g>
<!-- ARA7213 -->
<g id="node36" class="node">
<title>ARA7213</title>
<g id="a_node36"><a xlink:title="Princípios de Ergonomia Interfaces humano&#45;computador (IHC). Recomendações ergonômicas para IHC. Padrões de projetos em IHC. Ciclo de engenharia de usabilidade. Técnicas de análise contextual, concepção e avaliação. Experiência do usuário. Acessibilidade na Web. Prática didática com as ferramentas de usabilidade e acessibilidade na web.">
<polygon fill="#8dd3c7" stroke="#8dd3c7" points="760.27,-305.5 659.48,-305.5 659.48,-218.5 760.27,-218.5 760.27,-305.5"/>
<text text-anchor="middle" x="709.88" y="-288.2" font-family="Arial" font-size="14.00">ARA7213</text>
<text text-anchor="middle" x="709.88" y="-256.45" font-family="Arial" font-size="14.00">Interface</text>
<text text-anchor="middle" x="709.88" y="-240.7" font-family="Arial" font-size="14.00">Humano &#45;</text>
<text text-anchor="middle" x="709.88" y="-224.95" font-family="Arial" font-size="14.00">Computador</text>
</a>
</g>
</g>
<!-- ARA7124&#45;&gt;ARA7213 -->
<g id="edge25" class="edge">
<title>ARA7124&#45;&gt;ARA7213</title>
<path fill="none" stroke="#8dd3c7" stroke-width="2" d="M449.68,-234.38C449.68,-234.38 656.71,-234.38 656.71,-234.38"/>
<polygon fill="#8dd3c7" stroke="#8dd3c7" stroke-width="2" points="658.21,-231.88 658.21,-236.88 657.21,-236.88 657.21,-231.88 658.21,-231.88"/>
<polyline fill="none" stroke="#8dd3c7" stroke-width="2" points="658.71,-234.38 656.21,-234.38"/>
</g>
<!-- ARA7129 -->
<g id="node26" class="node">
<title>ARA7129</title>
<g id="a_node26"><a xlink:title="Introdução aos sistemas de gerência de bancos de dados. Projeto de banco de dados: conceitual, lógico e físico. Projeto conceitual de dados: entidades, relacionamentos, atributos, generalização e especialização. Projeto lógico para o modelo de dados relacional. Dependências funcionais e normalização. Linguagens de definição e de manipulação de dados. Restrições de integridade e visões. Desenvolvimento de aplicação de banco de dados.">
<polygon fill="#8dd3c7" stroke="#8dd3c7" points="605.88,-487.62 490.12,-487.62 490.12,-416.38 605.88,-416.38 605.88,-487.62"/>
<text text-anchor="middle" x="548" y="-470.32" font-family="Arial" font-size="14.00">ARA7129</text>
<text text-anchor="middle" x="548" y="-438.57" font-family="Arial" font-size="14.00">Banco de Dados</text>
<text text-anchor="middle" x="548" y="-422.82" font-family="Arial" font-size="14.00">I</text>
</a>
</g>
</g>
<!-- ARA7125&#45;&gt;ARA7129 -->
<g id="edge14" class="edge">
<title>ARA7125&#45;&gt;ARA7129</title>
<path fill="none" stroke="#8dd3c7" stroke-width="2" d="M447.95,-466.54C447.95,-466.54 487.26,-466.54 487.26,-466.54"/>
<polygon fill="#8dd3c7" stroke="#8dd3c7" stroke-width="2" points="488.76,-464.04 488.76,-469.04 487.76,-469.04 487.76,-464.04 488.76,-464.04"/>
<polyline fill="none" stroke="#8dd3c7" stroke-width="2" points="489.26,-466.54 486.76,-466.54"/>
</g>
<!-- ARA7125&#45;&gt;ARA7131 -->
<g id="edge17" class="edge">
<title>ARA7125&#45;&gt;ARA7131</title>
<path fill="none" stroke="#8dd3c7" stroke-width="2" d="M448.11,-491.62C460.01,-491.62 469.3,-491.62 469.3,-491.62 469.3,-491.62 469.3,-635.06 469.3,-635.06 469.3,-635.06 494.77,-635.06 494.77,-635.06"/>
<polygon fill="#8dd3c7" stroke="#8dd3c7" stroke-width="2" points="496.27,-632.56 496.27,-637.56 495.27,-637.56 495.27,-632.56 496.27,-632.56"/>
<polyline fill="none" stroke="#8dd3c7" stroke-width="2" points="496.77,-635.06 494.27,-635.06"/>
</g>
<!-- ARA7125&#45;&gt;ARA7133 -->
<g id="edge22" class="edge">
<title>ARA7125&#45;&gt;ARA7133</title>
<path fill="none" stroke="#8dd3c7" stroke-width="2" d="M448.23,-445.46C454.8,-445.46 459.3,-445.46 459.3,-445.46 459.3,-445.46 459.3,-66.79 459.3,-66.79 459.3,-66.79 656.67,-66.79 656.67,-66.79"/>
<polygon fill="#8dd3c7" stroke="#8dd3c7" stroke-width="2" points="658.17,-64.29 658.17,-69.29 657.17,-69.29 657.17,-64.29 658.17,-64.29"/>
<polyline fill="none" stroke="#8dd3c7" stroke-width="2" points="658.67,-66.79 656.17,-66.79"/>
</g>
<!-- ARA7128 -->
<g id="node25" class="node">
<title>ARA7128</title>
<g id="a_node25"><a xlink:title="Introdução. Redes sem fio e redes móveis. Roteamento. Administração de Redes de Computadores. Segurança. Aplicações.">
<polygon fill="#8dd3c7" stroke="#8dd3c7" points="606.25,-309.62 489.75,-309.62 489.75,-238.38 606.25,-238.38 606.25,-309.62"/>
<text text-anchor="middle" x="548" y="-292.32" font-family="Arial" font-size="14.00">ARA7128</text>
<text text-anchor="middle" x="548" y="-260.57" font-family="Arial" font-size="14.00">Redes de</text>
<text text-anchor="middle" x="548" y="-244.82" font-family="Arial" font-size="14.00">Computadores II</text>
</a>
</g>
</g>
<!-- ARA7126&#45;&gt;ARA7128 -->
<g id="edge13" class="edge">
<title>ARA7126&#45;&gt;ARA7128</title>
<path fill="none" stroke="#8dd3c7" stroke-width="2" d="M454.04,-118.56C475.25,-118.56 494.3,-118.56 494.3,-118.56 494.3,-118.56 494.3,-235.45 494.3,-235.45"/>
<polygon fill="#8dd3c7" stroke="#8dd3c7" stroke-width="2" points="496.8,-236.95 491.8,-236.95 491.8,-235.95 496.8,-235.95 496.8,-236.95"/>
<polyline fill="none" stroke="#8dd3c7" stroke-width="2" points="494.3,-237.45 494.3,-234.95"/>
</g>
<!-- ARA7211 -->
<g id="node34" class="node">
<title>ARA7211</title>
<g id="a_node34"><a xlink:title="Introdução aos Ambientes Virtuais de Aprendizagem (AVA). Processo de ensino e aprendizagem em um AVA em diferentes contextos. Tecnologia em AVAs. Análise e prática das ferramentas de um AVA. Avaliação de usabilidade de um AVA. Tendências em e&#45;learning e e&#45;training corporativos. Análise, modelagem e desenvolvimento de protótipo de um curso no AVA.&quot;.">
<polygon fill="#8dd3c7" stroke="#8dd3c7" points="761.75,-200.5 658,-200.5 658,-113.5 761.75,-113.5 761.75,-200.5"/>
<text text-anchor="middle" x="709.88" y="-183.2" font-family="Arial" font-size="14.00">ARA7211</text>
<text text-anchor="middle" x="709.88" y="-151.45" font-family="Arial" font-size="14.00">Ambientes</text>
<text text-anchor="middle" x="709.88" y="-135.7" font-family="Arial" font-size="14.00">Virtuais de</text>
<text text-anchor="middle" x="709.88" y="-119.95" font-family="Arial" font-size="14.00">Aprendizagem</text>
</a>
</g>
</g>
<!-- ARA7207&#45;&gt;ARA7211 -->
<g id="edge24" class="edge">
<title>ARA7207&#45;&gt;ARA7211</title>
<path fill="none" stroke="#8dd3c7" stroke-width="2" d="M447.93,-145.38C447.93,-145.38 655.07,-145.38 655.07,-145.38"/>
<polygon fill="#8dd3c7" stroke="#8dd3c7" stroke-width="2" points="656.57,-142.88 656.57,-147.88 655.57,-147.88 655.57,-142.88 656.57,-142.88"/>
<polyline fill="none" stroke="#8dd3c7" stroke-width="2" points="657.07,-145.38 654.57,-145.38"/>
</g>
<!-- ARA7208&#45;&gt;ARA7128 -->
<!-- ARA7208&#45;&gt;ARA7129 -->
<!-- ARA7208&#45;&gt;ARA7130 -->
<!-- ARA7208&#45;&gt;ARA7131 -->
<!-- ARA7208&#45;&gt;ARA7209 -->
<!-- ARA7210 -->
<g id="node30" class="node">
<title>ARA7210</title>
<g id="a_node30"><a xlink:title="Conceitos básicos de projetos. Fases e gerenciamento de projetos. Aplicação de metodologias. Escopo, objetivos, justificativas, produtos e entregas do projeto. Qualidade, estudo de viabilidade, riscos e custos de projetos. Produção de propostas. Estratégias e ferramentas de apoio a decisão.">
<polygon fill="#8dd3c7" stroke="#8dd3c7" points="598.4,-220.62 497.6,-220.62 497.6,-149.38 598.4,-149.38 598.4,-220.62"/>
<text text-anchor="middle" x="548" y="-203.32" font-family="Arial" font-size="14.00">ARA7210</text>
<text text-anchor="middle" x="548" y="-171.57" font-family="Arial" font-size="14.00">Gestão de</text>
<text text-anchor="middle" x="548" y="-155.82" font-family="Arial" font-size="14.00">Projetos</text>
</a>
</g>
</g>
<!-- ARA7208&#45;&gt;ARA7210 -->
<!-- ARA7132 -->
<g id="node31" class="node">
<title>ARA7132</title>
<g id="a_node31"><a xlink:title="Arquitetura de Sistemas Distribuídos. Paradigmas de Computação Distribuída: Troca de Mensagens, Cliente/Servidor, Comunicação em Grupo, Objetos Distribuídos. Comunicação entre Processos. Suporte de SO para Computação Distribuída. Sincronização em Sistemas Distribuídos. Consistência e Replicação de Dados em Sistemas Distribuídos. Sistemas de Arquivo distribuídos. Computação em GRID.">
<polygon fill="#8dd3c7" stroke="#8dd3c7" points="760.27,-645.62 659.48,-645.62 659.48,-574.38 760.27,-574.38 760.27,-645.62"/>
<text text-anchor="middle" x="709.88" y="-628.33" font-family="Arial" font-size="14.00">ARA7132</text>
<text text-anchor="middle" x="709.88" y="-596.58" font-family="Arial" font-size="14.00">Computação</text>
<text text-anchor="middle" x="709.88" y="-580.83" font-family="Arial" font-size="14.00">Distribuída</text>
</a>
</g>
</g>
<!-- ARA7128&#45;&gt;ARA7132 -->
<g id="edge19" class="edge">
<title>ARA7128&#45;&gt;ARA7132</title>
<path fill="none" stroke="#8dd3c7" stroke-width="2" d="M606.69,-271.94C611.35,-271.94 614.3,-271.94 614.3,-271.94 614.3,-271.94 614.3,-588.46 614.3,-588.46 614.3,-588.46 656.51,-588.46 656.51,-588.46"/>
<polygon fill="#8dd3c7" stroke="#8dd3c7" stroke-width="2" points="658.01,-585.96 658.01,-590.96 657.01,-590.96 657.01,-585.96 658.01,-585.96"/>
<polyline fill="none" stroke="#8dd3c7" stroke-width="2" points="658.51,-588.46 656.01,-588.46"/>
</g>
<!-- ARA7134 -->
<g id="node33" class="node">
<title>ARA7134</title>
<g id="a_node33"><a xlink:title="SQL embutida. Instruções estáticas e dinâmicas, cursores. Organização física de bancos de dados. Processamento de consultas: Otimização algébrica; plano de execução. Transações: definição, propriedades, estados. Recuperação de falhas: categorias de falhas, gerência de buffer, técnicas de recuperação. Controle de concorrência. Noções básicas de bancos de dados distribuídos. Tópicos avançados em Banco de Dados.">
<polygon fill="#8dd3c7" stroke="#8dd3c7" points="767.75,-556.62 652,-556.62 652,-485.38 767.75,-485.38 767.75,-556.62"/>
<text text-anchor="middle" x="709.88" y="-539.33" font-family="Arial" font-size="14.00">ARA7134</text>
<text text-anchor="middle" x="709.88" y="-507.57" font-family="Arial" font-size="14.00">Banco de Dados</text>
<text text-anchor="middle" x="709.88" y="-491.82" font-family="Arial" font-size="14.00">II</text>
</a>
</g>
</g>
<!-- ARA7129&#45;&gt;ARA7134 -->
<g id="edge23" class="edge">
<title>ARA7129&#45;&gt;ARA7134</title>
<path fill="none" stroke="#8dd3c7" stroke-width="2" d="M602.3,-487.84C602.3,-491.34 602.3,-493.62 602.3,-493.62 602.3,-493.62 649.18,-493.62 649.18,-493.62"/>
<polygon fill="#8dd3c7" stroke="#8dd3c7" stroke-width="2" points="650.68,-491.13 650.68,-496.13 649.68,-496.13 649.68,-491.13 650.68,-491.13"/>
<polyline fill="none" stroke="#8dd3c7" stroke-width="2" points="651.18,-493.63 648.68,-493.63"/>
</g>
<!-- ARA7131&#45;&gt;ARA7132 -->
<g id="edge20" class="edge">
<title>ARA7131&#45;&gt;ARA7132</title>
<path fill="none" stroke="#8dd3c7" stroke-width="2" d="M598.77,-620C598.77,-620 656.5,-620 656.5,-620"/>
<polygon fill="#8dd3c7" stroke="#8dd3c7" stroke-width="2" points="658,-617.5 658,-622.5 657,-622.5 657,-617.5 658,-617.5"/>
<polyline fill="none" stroke="#8dd3c7" stroke-width="2" points="658.5,-620 656,-620"/>
</g>
<!-- ARA7210&#45;&gt;ARA7132 -->
<!-- ARA7210&#45;&gt;ARA7133 -->
<!-- ARA7210&#45;&gt;ARA7134 -->
<!-- ARA7210&#45;&gt;ARA7211 -->
<!-- ARA7212 -->
<g id="node35" class="node">
<title>ARA7212</title>
<g id="a_node35"><a xlink:title="Empreendedorismo: fundamentos e conceitos. Perfil do empreendedor. Processo empreendedor. Ambientes da inovação: pré&#45;incubadoras, incubadoras e parques tecnológicos. Geração de ideias e análise de oportunidades. Fundamentos e componentes do Plano de Negócios. Mecanismos e procedimentos para criação de empresas. Planejamento de um empreendimento a partir do Modelo Canvas.&quot;.">
<polygon fill="#8dd3c7" stroke="#8dd3c7" points="777.5,-467.75 642.25,-467.75 642.25,-412.25 777.5,-412.25 777.5,-467.75"/>
<text text-anchor="middle" x="709.88" y="-450.45" font-family="Arial" font-size="14.00">ARA7212</text>
<text text-anchor="middle" x="709.88" y="-418.7" font-family="Arial" font-size="14.00">Empreendedorismo</text>
</a>
</g>
</g>
<!-- ARA7210&#45;&gt;ARA7212 -->
<!-- ARA7210&#45;&gt;ARA7213 -->
<!-- ARA7214 -->
<g id="node37" class="node">
<title>ARA7214</title>
<g id="a_node37"><a xlink:title="O estágio obrigatório deverá ser realizado nas áreas afins do Curso de Graduação. As atividades de estágio obrigatório estão regulamentadas pela UFSC em">
<polygon fill="#8dd3c7" stroke="#8dd3c7" points="760.27,-394.62 659.48,-394.62 659.48,-323.38 760.27,-323.38 760.27,-394.62"/>
<text text-anchor="middle" x="709.88" y="-377.32" font-family="Arial" font-size="14.00">ARA7214</text>
<text text-anchor="middle" x="709.88" y="-345.57" font-family="Arial" font-size="14.00">Estágio</text>
<text text-anchor="middle" x="709.88" y="-329.82" font-family="Arial" font-size="14.00">Obrigatório I</text>
</a>
</g>
</g>
<!-- ARA7210&#45;&gt;ARA7214 -->
<!-- ARA7210&#45;&gt;ARA7230 -->
<g id="edge27" class="edge">
<title>ARA7210&#45;&gt;ARA7230</title>
<path fill="none" stroke="#fb8072" stroke-width="2" d="M598.85,-203.5C673.06,-203.5 802.3,-203.5 802.3,-203.5 802.3,-203.5 802.3,-520.54 802.3,-520.54 802.3,-520.54 810.53,-520.54 810.53,-520.54"/>
<polygon fill="#fb8072" stroke="#fb8072" stroke-width="2" points="812.03,-518.04 812.03,-523.04 811.03,-523.04 811.03,-518.04 812.03,-518.04"/>
<polyline fill="none" stroke="#fb8072" stroke-width="2" points="812.53,-520.54 810.03,-520.54"/>
</g>
<!-- ARA7215 -->
<g id="node38" class="node">
<title>ARA7215</title>
<g id="a_node38"><a xlink:title="O estágio obrigatório deverá ser realizado nas áreas afins do Curso de Graduação. As atividades de estágio obrigatório estão regulamentadas pela UFSC em">
<polygon fill="#8dd3c7" stroke="#8dd3c7" points="914.3,-484.62 813.5,-484.62 813.5,-413.38 914.3,-413.38 914.3,-484.62"/>
<text text-anchor="middle" x="863.9" y="-467.32" font-family="Arial" font-size="14.00">ARA7215</text>
<text text-anchor="middle" x="863.9" y="-435.57" font-family="Arial" font-size="14.00">Estágio</text>
<text text-anchor="middle" x="863.9" y="-419.82" font-family="Arial" font-size="14.00">Obrigatório II</text>
</a>
</g>
</g>
<!-- ARA7214&#45;&gt;ARA7215 -->
<!-- ARA7214&#45;&gt;ARA7230 -->
</g>
</svg>
