<?xml version="1.0" encoding="UTF-8" standalone="no"?>
<!DOCTYPE svg PUBLIC "-//W3C//DTD SVG 1.1//EN"
 "http://www.w3.org/Graphics/SVG/1.1/DTD/svg11.dtd">
<!-- Generated by graphviz version 9.0.0 (0)
 -->
<!-- Title: grafo_materias Pages: 1 -->
<svg width="1375pt" height="745pt"
 viewBox="0.00 0.00 1374.50 745.00" xmlns="http://www.w3.org/2000/svg" xmlns:xlink="http://www.w3.org/1999/xlink">
<g id="graph0" class="graph" transform="scale(1 1) rotate(0) translate(4 741)">
<title>grafo_materias</title>
<polygon fill="none" stroke="none" points="-4,4 -4,-741 1370.5,-741 1370.5,4 -4,4"/>
<g id="clust1" class="cluster">
<title>cluster_everything</title>
<polygon fill="none" stroke="none" points="8,-8 8,-729 1358.5,-729 1358.5,-8 8,-8"/>
</g>
<g id="clust2" class="cluster">
<title>cluster_header</title>
<polygon fill="none" stroke="none" points="26.1,-669 26.1,-721 1349.78,-721 1349.78,-669 26.1,-669"/>
</g>
<g id="clust3" class="cluster">
<title>cluster_0</title>
<polygon fill="none" stroke="none" points="16,-16 16,-565 153,-565 153,-16 16,-16"/>
</g>
<g id="clust4" class="cluster">
<title>cluster_1</title>
<polygon fill="none" stroke="none" points="173,-185 173,-661 302.5,-661 302.5,-185 173,-185"/>
</g>
<g id="clust5" class="cluster">
<title>cluster_2</title>
<polygon fill="none" stroke="none" points="322.5,-92 322.5,-657 454.25,-657 454.25,-92 322.5,-92"/>
</g>
<g id="clust6" class="cluster">
<title>cluster_3</title>
<polygon fill="none" stroke="none" points="474.25,-25 474.25,-653 610.5,-653 610.5,-25 474.25,-25"/>
</g>
<g id="clust7" class="cluster">
<title>cluster_4</title>
<polygon fill="none" stroke="none" points="630.5,-38 630.5,-587 766.75,-587 766.75,-38 630.5,-38"/>
</g>
<g id="clust8" class="cluster">
<title>cluster_5</title>
<polygon fill="none" stroke="none" points="786.75,-36 786.75,-617 924.5,-617 924.5,-36 786.75,-36"/>
</g>
<g id="clust9" class="cluster">
<title>cluster_6</title>
<polygon fill="none" stroke="none" points="944.5,-24 944.5,-605 1062.75,-605 1062.75,-24 944.5,-24"/>
</g>
<g id="clust10" class="cluster">
<title>cluster_7</title>
<polygon fill="none" stroke="none" points="1082.75,-16 1082.75,-661 1212.25,-661 1212.25,-16 1082.75,-16"/>
</g>
<g id="clust11" class="cluster">
<title>cluster_8</title>
<polygon fill="none" stroke="none" points="1232.25,-24 1232.25,-170 1350.5,-170 1350.5,-24 1232.25,-24"/>
</g>
<!-- 1ª. Fase -->
<g id="node1" class="node">
<title>1ª. Fase</title>
<polygon fill="lightgrey" stroke="black" points="134.9,-713 34.1,-713 34.1,-677 134.9,-677 134.9,-713"/>
<text text-anchor="middle" x="84.5" y="-689.58" font-family="Arial" font-size="14.00">1ª. Fase</text>
</g>
<!-- 2ª. Fase -->
<g id="node2" class="node">
<title>2ª. Fase</title>
<polygon fill="lightgrey" stroke="black" points="288.15,-713 187.35,-713 187.35,-677 288.15,-677 288.15,-713"/>
<text text-anchor="middle" x="237.75" y="-689.58" font-family="Arial" font-size="14.00">2ª. Fase</text>
</g>
<!-- 1ª. Fase&#45;&gt;2ª. Fase -->
<!-- 3ª. Fase -->
<g id="node3" class="node">
<title>3ª. Fase</title>
<polygon fill="lightgrey" stroke="black" points="438.77,-713 337.98,-713 337.98,-677 438.77,-677 438.77,-713"/>
<text text-anchor="middle" x="388.38" y="-689.58" font-family="Arial" font-size="14.00">3ª. Fase</text>
</g>
<!-- 2ª. Fase&#45;&gt;3ª. Fase -->
<!-- 4ª. Fase -->
<g id="node4" class="node">
<title>4ª. Fase</title>
<polygon fill="lightgrey" stroke="black" points="592.77,-713 491.98,-713 491.98,-677 592.77,-677 592.77,-713"/>
<text text-anchor="middle" x="542.38" y="-689.58" font-family="Arial" font-size="14.00">4ª. Fase</text>
</g>
<!-- 3ª. Fase&#45;&gt;4ª. Fase -->
<!-- 5ª. Fase -->
<g id="node5" class="node">
<title>5ª. Fase</title>
<polygon fill="lightgrey" stroke="black" points="749.02,-713 648.23,-713 648.23,-677 749.02,-677 749.02,-713"/>
<text text-anchor="middle" x="698.62" y="-689.58" font-family="Arial" font-size="14.00">5ª. Fase</text>
</g>
<!-- 4ª. Fase&#45;&gt;5ª. Fase -->
<!-- 6ª. Fase -->
<g id="node6" class="node">
<title>6ª. Fase</title>
<polygon fill="lightgrey" stroke="black" points="906.02,-713 805.23,-713 805.23,-677 906.02,-677 906.02,-713"/>
<text text-anchor="middle" x="855.62" y="-689.58" font-family="Arial" font-size="14.00">6ª. Fase</text>
</g>
<!-- 5ª. Fase&#45;&gt;6ª. Fase -->
<!-- 7ª. Fase -->
<g id="node7" class="node">
<title>7ª. Fase</title>
<polygon fill="lightgrey" stroke="black" points="1054.03,-713 953.23,-713 953.23,-677 1054.03,-677 1054.03,-713"/>
<text text-anchor="middle" x="1003.62" y="-689.58" font-family="Arial" font-size="14.00">7ª. Fase</text>
</g>
<!-- 6ª. Fase&#45;&gt;7ª. Fase -->
<!-- 8ª. Fase -->
<g id="node8" class="node">
<title>8ª. Fase</title>
<polygon fill="lightgrey" stroke="black" points="1197.9,-713 1097.1,-713 1097.1,-677 1197.9,-677 1197.9,-713"/>
<text text-anchor="middle" x="1147.5" y="-689.58" font-family="Arial" font-size="14.00">8ª. Fase</text>
</g>
<!-- 7ª. Fase&#45;&gt;8ª. Fase -->
<!-- 9ª. Fase -->
<g id="node9" class="node">
<title>9ª. Fase</title>
<polygon fill="lightgrey" stroke="black" points="1341.78,-713 1240.97,-713 1240.97,-677 1341.78,-677 1341.78,-713"/>
<text text-anchor="middle" x="1291.38" y="-689.58" font-family="Arial" font-size="14.00">9ª. Fase</text>
</g>
<!-- 8ª. Fase&#45;&gt;9ª. Fase -->
<!-- CNM9100 -->
<g id="node10" class="node">
<title>CNM9100</title>
<polygon fill="#8dd3c7" stroke="#8dd3c7" points="134.9,-556.5 34.1,-556.5 34.1,-469.5 134.9,-469.5 134.9,-556.5"/>
<text text-anchor="middle" x="84.5" y="-539.2" font-family="Arial" font-size="14.00">CNM9100</text>
<text text-anchor="middle" x="84.5" y="-507.45" font-family="Arial" font-size="14.00">Introdução à</text>
<text text-anchor="middle" x="84.5" y="-491.7" font-family="Arial" font-size="14.00">Educação a</text>
<text text-anchor="middle" x="84.5" y="-475.95" font-family="Arial" font-size="14.00">Distância</text>
</g>
<!-- CCN9189 -->
<g id="node16" class="node">
<title>CCN9189</title>
<polygon fill="#ffffb3" stroke="#ffffb3" points="292.62,-652.5 182.88,-652.5 182.88,-565.5 292.62,-565.5 292.62,-652.5"/>
<text text-anchor="middle" x="237.75" y="-635.2" font-family="Arial" font-size="14.00">CCN9189</text>
<text text-anchor="middle" x="237.75" y="-603.45" font-family="Arial" font-size="14.00">Contabilidade e</text>
<text text-anchor="middle" x="237.75" y="-587.7" font-family="Arial" font-size="14.00">Análise de</text>
<text text-anchor="middle" x="237.75" y="-571.95" font-family="Arial" font-size="14.00">Balanços</text>
</g>
<!-- CNM9100&#45;&gt;CCN9189 -->
<!-- CNM9107 -->
<g id="node17" class="node">
<title>CNM9107</title>
<polygon fill="#8dd3c7" stroke="#8dd3c7" points="294.5,-547.5 181,-547.5 181,-460.5 294.5,-460.5 294.5,-547.5"/>
<text text-anchor="middle" x="237.75" y="-530.2" font-family="Arial" font-size="14.00">CNM9107</text>
<text text-anchor="middle" x="237.75" y="-498.45" font-family="Arial" font-size="14.00">Introdução à</text>
<text text-anchor="middle" x="237.75" y="-482.7" font-family="Arial" font-size="14.00">Micro e à</text>
<text text-anchor="middle" x="237.75" y="-466.95" font-family="Arial" font-size="14.00">Macroeconomia</text>
</g>
<!-- CNM9100&#45;&gt;CNM9107 -->
<!-- CNM9126 -->
<g id="node18" class="node">
<title>CNM9126</title>
<polygon fill="#8dd3c7" stroke="#8dd3c7" points="288.15,-442.62 187.35,-442.62 187.35,-371.38 288.15,-371.38 288.15,-442.62"/>
<text text-anchor="middle" x="237.75" y="-425.32" font-family="Arial" font-size="14.00">CNM9126</text>
<text text-anchor="middle" x="237.75" y="-393.57" font-family="Arial" font-size="14.00">Economia</text>
<text text-anchor="middle" x="237.75" y="-377.82" font-family="Arial" font-size="14.00">Clássica</text>
</g>
<!-- CNM9100&#45;&gt;CNM9126 -->
<!-- CNM9148 -->
<g id="node19" class="node">
<title>CNM9148</title>
<polygon fill="#8dd3c7" stroke="#8dd3c7" points="288.15,-353.62 187.35,-353.62 187.35,-282.38 288.15,-282.38 288.15,-353.62"/>
<text text-anchor="middle" x="237.75" y="-336.32" font-family="Arial" font-size="14.00">CNM9148</text>
<text text-anchor="middle" x="237.75" y="-304.57" font-family="Arial" font-size="14.00">Contabilidade</text>
<text text-anchor="middle" x="237.75" y="-288.82" font-family="Arial" font-size="14.00">Social</text>
</g>
<!-- CNM9100&#45;&gt;CNM9148 -->
<!-- CNM9419 -->
<g id="node20" class="node">
<title>CNM9419</title>
<polygon fill="#8dd3c7" stroke="#8dd3c7" points="288.15,-264.62 187.35,-264.62 187.35,-193.38 288.15,-193.38 288.15,-264.62"/>
<text text-anchor="middle" x="237.75" y="-247.32" font-family="Arial" font-size="14.00">CNM9419</text>
<text text-anchor="middle" x="237.75" y="-215.57" font-family="Arial" font-size="14.00">Economia</text>
<text text-anchor="middle" x="237.75" y="-199.82" font-family="Arial" font-size="14.00">Matemática II</text>
</g>
<!-- CNM9100&#45;&gt;CNM9419 -->
<!-- CNM9103 -->
<g id="node11" class="node">
<title>CNM9103</title>
<g id="a_node11"><a xlink:title="Conceitos fundamentais de economia. Valor. Mensuração da atividade econômica. Repartição da renda. Introdução à teoria monetária. Noções de Comércio Internacional. Funções do setor público. Evolução do Pensamento Econômico.">
<polygon fill="#8dd3c7" stroke="#8dd3c7" points="134.9,-451.62 34.1,-451.62 34.1,-380.38 134.9,-380.38 134.9,-451.62"/>
<text text-anchor="middle" x="84.5" y="-434.32" font-family="Arial" font-size="14.00">CNM9103</text>
<text text-anchor="middle" x="84.5" y="-402.57" font-family="Arial" font-size="14.00">Introdução à</text>
<text text-anchor="middle" x="84.5" y="-386.82" font-family="Arial" font-size="14.00">Economia</text>
</a>
</g>
</g>
<!-- CNM9167 -->
<g id="node12" class="node">
<title>CNM9167</title>
<polygon fill="#8dd3c7" stroke="#8dd3c7" points="134.9,-362.62 34.1,-362.62 34.1,-291.38 134.9,-291.38 134.9,-362.62"/>
<text text-anchor="middle" x="84.5" y="-345.32" font-family="Arial" font-size="14.00">CNM9167</text>
<text text-anchor="middle" x="84.5" y="-313.57" font-family="Arial" font-size="14.00">Técnicas de</text>
<text text-anchor="middle" x="84.5" y="-297.82" font-family="Arial" font-size="14.00">Estudo</text>
</g>
<!-- CNM9418 -->
<g id="node13" class="node">
<title>CNM9418</title>
<polygon fill="#8dd3c7" stroke="#8dd3c7" points="134.9,-273.62 34.1,-273.62 34.1,-202.38 134.9,-202.38 134.9,-273.62"/>
<text text-anchor="middle" x="84.5" y="-256.32" font-family="Arial" font-size="14.00">CNM9418</text>
<text text-anchor="middle" x="84.5" y="-224.57" font-family="Arial" font-size="14.00">Economia</text>
<text text-anchor="middle" x="84.5" y="-208.82" font-family="Arial" font-size="14.00">Matemática I</text>
</g>
<!-- DIR9952 -->
<g id="node14" class="node">
<title>DIR9952</title>
<polygon fill="#80b1d3" stroke="#80b1d3" points="136,-184.62 33,-184.62 33,-113.38 136,-113.38 136,-184.62"/>
<text text-anchor="middle" x="84.5" y="-167.32" font-family="Arial" font-size="14.00">DIR9952</text>
<text text-anchor="middle" x="84.5" y="-135.57" font-family="Arial" font-size="14.00">Instituições do</text>
<text text-anchor="middle" x="84.5" y="-119.83" font-family="Arial" font-size="14.00">Direito Público</text>
</g>
<!-- HST9148 -->
<g id="node15" class="node">
<title>HST9148</title>
<polygon fill="#fdb462" stroke="#fdb462" points="145,-95.62 24,-95.62 24,-24.38 145,-24.38 145,-95.62"/>
<text text-anchor="middle" x="84.5" y="-78.33" font-family="Arial" font-size="14.00">HST9148</text>
<text text-anchor="middle" x="84.5" y="-46.58" font-family="Arial" font-size="14.00">História</text>
<text text-anchor="middle" x="84.5" y="-30.82" font-family="Arial" font-size="14.00">Econômica Geral</text>
</g>
<!-- CNM9160 -->
<g id="node21" class="node">
<title>CNM9160</title>
<polygon fill="#8dd3c7" stroke="#8dd3c7" points="446.25,-648.5 330.5,-648.5 330.5,-561.5 446.25,-561.5 446.25,-648.5"/>
<text text-anchor="middle" x="388.38" y="-631.2" font-family="Arial" font-size="14.00">CNM9160</text>
<text text-anchor="middle" x="388.38" y="-599.45" font-family="Arial" font-size="14.00">Teoria</text>
<text text-anchor="middle" x="388.38" y="-583.7" font-family="Arial" font-size="14.00">Microeconômica</text>
<text text-anchor="middle" x="388.38" y="-567.95" font-family="Arial" font-size="14.00">I</text>
</g>
<!-- CNM9419&#45;&gt;CNM9160 -->
<!-- CNM9417 -->
<g id="node22" class="node">
<title>CNM9417</title>
<polygon fill="#8dd3c7" stroke="#8dd3c7" points="438.77,-543.62 337.98,-543.62 337.98,-472.38 438.77,-472.38 438.77,-543.62"/>
<text text-anchor="middle" x="388.38" y="-526.33" font-family="Arial" font-size="14.00">CNM9417</text>
<text text-anchor="middle" x="388.38" y="-494.57" font-family="Arial" font-size="14.00">Economia</text>
<text text-anchor="middle" x="388.38" y="-478.82" font-family="Arial" font-size="14.00">Marxista I</text>
</g>
<!-- CNM9419&#45;&gt;CNM9417 -->
<!-- DIR9953 -->
<g id="node23" class="node">
<title>DIR9953</title>
<polygon fill="#80b1d3" stroke="#80b1d3" points="440.62,-454.62 336.12,-454.62 336.12,-383.38 440.62,-383.38 440.62,-454.62"/>
<text text-anchor="middle" x="388.38" y="-437.32" font-family="Arial" font-size="14.00">DIR9953</text>
<text text-anchor="middle" x="388.38" y="-405.57" font-family="Arial" font-size="14.00">Instituições de</text>
<text text-anchor="middle" x="388.38" y="-389.82" font-family="Arial" font-size="14.00">Direito Privado</text>
</g>
<!-- CNM9419&#45;&gt;DIR9953 -->
<!-- INE9116 -->
<g id="node24" class="node">
<title>INE9116</title>
<polygon fill="#fb8072" stroke="#fb8072" points="438.77,-365.62 337.98,-365.62 337.98,-294.38 438.77,-294.38 438.77,-365.62"/>
<text text-anchor="middle" x="388.38" y="-348.32" font-family="Arial" font-size="14.00">INE9116</text>
<text text-anchor="middle" x="388.38" y="-316.57" font-family="Arial" font-size="14.00">Introdução a</text>
<text text-anchor="middle" x="388.38" y="-300.82" font-family="Arial" font-size="14.00">Estatística</text>
</g>
<!-- CNM9419&#45;&gt;INE9116 -->
<!-- SPO9110 -->
<g id="node25" class="node">
<title>SPO9110</title>
<polygon fill="#8dd3c7" stroke="#8dd3c7" points="438.77,-276.5 337.98,-276.5 337.98,-189.5 438.77,-189.5 438.77,-276.5"/>
<text text-anchor="middle" x="388.38" y="-259.2" font-family="Arial" font-size="14.00">SPO9110</text>
<text text-anchor="middle" x="388.38" y="-227.45" font-family="Arial" font-size="14.00">Introdução às</text>
<text text-anchor="middle" x="388.38" y="-211.7" font-family="Arial" font-size="14.00">Ciências</text>
<text text-anchor="middle" x="388.38" y="-195.95" font-family="Arial" font-size="14.00">Sociais</text>
</g>
<!-- CNM9419&#45;&gt;SPO9110 -->
<!-- SPO9233 -->
<g id="node26" class="node">
<title>SPO9233</title>
<polygon fill="#8dd3c7" stroke="#8dd3c7" points="438.77,-171.62 337.98,-171.62 337.98,-100.38 438.77,-100.38 438.77,-171.62"/>
<text text-anchor="middle" x="388.38" y="-154.32" font-family="Arial" font-size="14.00">SPO9233</text>
<text text-anchor="middle" x="388.38" y="-122.58" font-family="Arial" font-size="14.00">Ciência</text>
<text text-anchor="middle" x="388.38" y="-106.83" font-family="Arial" font-size="14.00">Política</text>
</g>
<!-- CNM9419&#45;&gt;SPO9233 -->
<!-- CNM9121 -->
<g id="node27" class="node">
<title>CNM9121</title>
<polygon fill="#8dd3c7" stroke="#8dd3c7" points="592.77,-644.5 491.98,-644.5 491.98,-557.5 592.77,-557.5 592.77,-644.5"/>
<text text-anchor="middle" x="542.38" y="-627.2" font-family="Arial" font-size="14.00">CNM9121</text>
<text text-anchor="middle" x="542.38" y="-595.45" font-family="Arial" font-size="14.00">Seminário de</text>
<text text-anchor="middle" x="542.38" y="-579.7" font-family="Arial" font-size="14.00">Economia</text>
<text text-anchor="middle" x="542.38" y="-563.95" font-family="Arial" font-size="14.00">Aplicada I</text>
</g>
<!-- SPO9233&#45;&gt;CNM9121 -->
<!-- CNM9149 -->
<g id="node28" class="node">
<title>CNM9149</title>
<polygon fill="#8dd3c7" stroke="#8dd3c7" points="602.5,-539.5 482.25,-539.5 482.25,-452.5 602.5,-452.5 602.5,-539.5"/>
<text text-anchor="middle" x="542.38" y="-522.2" font-family="Arial" font-size="14.00">CNM9149</text>
<text text-anchor="middle" x="542.38" y="-490.45" font-family="Arial" font-size="14.00">Teoria</text>
<text text-anchor="middle" x="542.38" y="-474.7" font-family="Arial" font-size="14.00">Macroeconômica</text>
<text text-anchor="middle" x="542.38" y="-458.95" font-family="Arial" font-size="14.00">I</text>
</g>
<!-- SPO9233&#45;&gt;CNM9149 -->
<!-- CNM9161 -->
<g id="node29" class="node">
<title>CNM9161</title>
<polygon fill="#8dd3c7" stroke="#8dd3c7" points="600.25,-434.5 484.5,-434.5 484.5,-347.5 600.25,-347.5 600.25,-434.5"/>
<text text-anchor="middle" x="542.38" y="-417.2" font-family="Arial" font-size="14.00">CNM9161</text>
<text text-anchor="middle" x="542.38" y="-385.45" font-family="Arial" font-size="14.00">Teoria</text>
<text text-anchor="middle" x="542.38" y="-369.7" font-family="Arial" font-size="14.00">Microeconômica</text>
<text text-anchor="middle" x="542.38" y="-353.95" font-family="Arial" font-size="14.00">II</text>
</g>
<!-- SPO9233&#45;&gt;CNM9161 -->
<!-- CNM9206 -->
<g id="node30" class="node">
<title>CNM9206</title>
<polygon fill="#8dd3c7" stroke="#8dd3c7" points="592.77,-329.5 491.98,-329.5 491.98,-242.5 592.77,-242.5 592.77,-329.5"/>
<text text-anchor="middle" x="542.38" y="-312.2" font-family="Arial" font-size="14.00">CNM9206</text>
<text text-anchor="middle" x="542.38" y="-280.45" font-family="Arial" font-size="14.00">Economia</text>
<text text-anchor="middle" x="542.38" y="-264.7" font-family="Arial" font-size="14.00">Regional e</text>
<text text-anchor="middle" x="542.38" y="-248.95" font-family="Arial" font-size="14.00">Urbana</text>
</g>
<!-- SPO9233&#45;&gt;CNM9206 -->
<!-- CNM9312 -->
<g id="node31" class="node">
<title>CNM9312</title>
<polygon fill="#8dd3c7" stroke="#8dd3c7" points="592.77,-224.62 491.98,-224.62 491.98,-153.38 592.77,-153.38 592.77,-224.62"/>
<text text-anchor="middle" x="542.38" y="-207.32" font-family="Arial" font-size="14.00">CNM9312</text>
<text text-anchor="middle" x="542.38" y="-175.57" font-family="Arial" font-size="14.00">Análise de</text>
<text text-anchor="middle" x="542.38" y="-159.82" font-family="Arial" font-size="14.00">Investimentos</text>
</g>
<!-- SPO9233&#45;&gt;CNM9312 -->
<!-- CNM9331 -->
<g id="node32" class="node">
<title>CNM9331</title>
<polygon fill="#8dd3c7" stroke="#8dd3c7" points="592.77,-135.38 491.98,-135.38 491.98,-32.63 592.77,-32.63 592.77,-135.38"/>
<text text-anchor="middle" x="542.38" y="-118.08" font-family="Arial" font-size="14.00">CNM9331</text>
<text text-anchor="middle" x="542.38" y="-86.33" font-family="Arial" font-size="14.00">Estatística</text>
<text text-anchor="middle" x="542.38" y="-70.58" font-family="Arial" font-size="14.00">Econômica e</text>
<text text-anchor="middle" x="542.38" y="-54.83" font-family="Arial" font-size="14.00">Introdução a</text>
<text text-anchor="middle" x="542.38" y="-39.08" font-family="Arial" font-size="14.00">Econometria</text>
</g>
<!-- SPO9233&#45;&gt;CNM9331 -->
<!-- CNM9110 -->
<g id="node33" class="node">
<title>CNM9110</title>
<polygon fill="#8dd3c7" stroke="#8dd3c7" points="749.02,-578.75 648.23,-578.75 648.23,-523.25 749.02,-523.25 749.02,-578.75"/>
<text text-anchor="middle" x="698.62" y="-561.45" font-family="Arial" font-size="14.00">CNM9110</text>
<text text-anchor="middle" x="698.62" y="-529.7" font-family="Arial" font-size="14.00">Econometria</text>
</g>
<!-- CNM9331&#45;&gt;CNM9110 -->
<!-- CNM9122 -->
<g id="node34" class="node">
<title>CNM9122</title>
<polygon fill="#8dd3c7" stroke="#8dd3c7" points="749.02,-505.5 648.23,-505.5 648.23,-418.5 749.02,-418.5 749.02,-505.5"/>
<text text-anchor="middle" x="698.62" y="-488.2" font-family="Arial" font-size="14.00">CNM9122</text>
<text text-anchor="middle" x="698.62" y="-456.45" font-family="Arial" font-size="14.00">Seminário de</text>
<text text-anchor="middle" x="698.62" y="-440.7" font-family="Arial" font-size="14.00">Economia</text>
<text text-anchor="middle" x="698.62" y="-424.95" font-family="Arial" font-size="14.00">Aplicada II</text>
</g>
<!-- CNM9331&#45;&gt;CNM9122 -->
<!-- CNM9150 -->
<g id="node35" class="node">
<title>CNM9150</title>
<polygon fill="#8dd3c7" stroke="#8dd3c7" points="758.75,-400.5 638.5,-400.5 638.5,-313.5 758.75,-313.5 758.75,-400.5"/>
<text text-anchor="middle" x="698.62" y="-383.2" font-family="Arial" font-size="14.00">CNM9150</text>
<text text-anchor="middle" x="698.62" y="-351.45" font-family="Arial" font-size="14.00">Teoria</text>
<text text-anchor="middle" x="698.62" y="-335.7" font-family="Arial" font-size="14.00">Macroeconômica</text>
<text text-anchor="middle" x="698.62" y="-319.95" font-family="Arial" font-size="14.00">II</text>
</g>
<!-- CNM9331&#45;&gt;CNM9150 -->
<!-- CNM9162 -->
<g id="node36" class="node">
<title>CNM9162</title>
<polygon fill="#8dd3c7" stroke="#8dd3c7" points="749.02,-295.62 648.23,-295.62 648.23,-224.38 749.02,-224.38 749.02,-295.62"/>
<text text-anchor="middle" x="698.62" y="-278.32" font-family="Arial" font-size="14.00">CNM9162</text>
<text text-anchor="middle" x="698.62" y="-246.57" font-family="Arial" font-size="14.00">Economia</text>
<text text-anchor="middle" x="698.62" y="-230.82" font-family="Arial" font-size="14.00">Industrial</text>
</g>
<!-- CNM9331&#45;&gt;CNM9162 -->
<!-- CNM9208 -->
<g id="node37" class="node">
<title>CNM9208</title>
<polygon fill="#8dd3c7" stroke="#8dd3c7" points="749.02,-206.62 648.23,-206.62 648.23,-135.38 749.02,-135.38 749.02,-206.62"/>
<text text-anchor="middle" x="698.62" y="-189.32" font-family="Arial" font-size="14.00">CNM9208</text>
<text text-anchor="middle" x="698.62" y="-157.57" font-family="Arial" font-size="14.00">Economia do</text>
<text text-anchor="middle" x="698.62" y="-141.82" font-family="Arial" font-size="14.00">Setor Público</text>
</g>
<!-- CNM9331&#45;&gt;CNM9208 -->
<!-- CNM9220 -->
<g id="node38" class="node">
<title>CNM9220</title>
<polygon fill="#8dd3c7" stroke="#8dd3c7" points="749.02,-117.62 648.23,-117.62 648.23,-46.38 749.02,-46.38 749.02,-117.62"/>
<text text-anchor="middle" x="698.62" y="-100.33" font-family="Arial" font-size="14.00">CNM9220</text>
<text text-anchor="middle" x="698.62" y="-68.58" font-family="Arial" font-size="14.00">Economia de</text>
<text text-anchor="middle" x="698.62" y="-52.83" font-family="Arial" font-size="14.00">Empresas I</text>
</g>
<!-- CNM9331&#45;&gt;CNM9220 -->
<!-- CNM9119 -->
<g id="node39" class="node">
<title>CNM9119</title>
<polygon fill="#8dd3c7" stroke="#8dd3c7" points="906.75,-608.5 804.5,-608.5 804.5,-521.5 906.75,-521.5 906.75,-608.5"/>
<text text-anchor="middle" x="855.62" y="-591.2" font-family="Arial" font-size="14.00">CNM9119</text>
<text text-anchor="middle" x="855.62" y="-559.45" font-family="Arial" font-size="14.00">Formação</text>
<text text-anchor="middle" x="855.62" y="-543.7" font-family="Arial" font-size="14.00">Econômica do</text>
<text text-anchor="middle" x="855.62" y="-527.95" font-family="Arial" font-size="14.00">Brasil I</text>
</g>
<!-- CNM9220&#45;&gt;CNM9119 -->
<!-- CNM9123 -->
<g id="node40" class="node">
<title>CNM9123</title>
<polygon fill="#8dd3c7" stroke="#8dd3c7" points="906.02,-503.5 805.23,-503.5 805.23,-416.5 906.02,-416.5 906.02,-503.5"/>
<text text-anchor="middle" x="855.62" y="-486.2" font-family="Arial" font-size="14.00">CNM9123</text>
<text text-anchor="middle" x="855.62" y="-454.45" font-family="Arial" font-size="14.00">Seminário de</text>
<text text-anchor="middle" x="855.62" y="-438.7" font-family="Arial" font-size="14.00">Economia</text>
<text text-anchor="middle" x="855.62" y="-422.95" font-family="Arial" font-size="14.00">Aplicada III</text>
</g>
<!-- CNM9220&#45;&gt;CNM9123 -->
<!-- CNM9154 -->
<g id="node41" class="node">
<title>CNM9154</title>
<polygon fill="#8dd3c7" stroke="#8dd3c7" points="915.75,-398.5 795.5,-398.5 795.5,-311.5 915.75,-311.5 915.75,-398.5"/>
<text text-anchor="middle" x="855.62" y="-381.2" font-family="Arial" font-size="14.00">CNM9154</text>
<text text-anchor="middle" x="855.62" y="-349.45" font-family="Arial" font-size="14.00">Teoria</text>
<text text-anchor="middle" x="855.62" y="-333.7" font-family="Arial" font-size="14.00">Macroeconômica</text>
<text text-anchor="middle" x="855.62" y="-317.95" font-family="Arial" font-size="14.00">III</text>
</g>
<!-- CNM9220&#45;&gt;CNM9154 -->
<!-- CNM9219 -->
<g id="node42" class="node">
<title>CNM9219</title>
<polygon fill="#8dd3c7" stroke="#8dd3c7" points="906.02,-293.62 805.23,-293.62 805.23,-222.38 906.02,-222.38 906.02,-293.62"/>
<text text-anchor="middle" x="855.62" y="-276.32" font-family="Arial" font-size="14.00">CNM9219</text>
<text text-anchor="middle" x="855.62" y="-244.57" font-family="Arial" font-size="14.00">Economia de</text>
<text text-anchor="middle" x="855.62" y="-228.82" font-family="Arial" font-size="14.00">Empresas II</text>
</g>
<!-- CNM9220&#45;&gt;CNM9219 -->
<!-- CNM9266 -->
<g id="node43" class="node">
<title>CNM9266</title>
<polygon fill="#8dd3c7" stroke="#8dd3c7" points="906.02,-204.62 805.23,-204.62 805.23,-133.38 906.02,-133.38 906.02,-204.62"/>
<text text-anchor="middle" x="855.62" y="-187.32" font-family="Arial" font-size="14.00">CNM9266</text>
<text text-anchor="middle" x="855.62" y="-155.57" font-family="Arial" font-size="14.00">Economia</text>
<text text-anchor="middle" x="855.62" y="-139.82" font-family="Arial" font-size="14.00">Monetária</text>
</g>
<!-- CNM9220&#45;&gt;CNM9266 -->
<!-- CNM9338 -->
<g id="node44" class="node">
<title>CNM9338</title>
<polygon fill="#8dd3c7" stroke="#8dd3c7" points="916.5,-115.62 794.75,-115.62 794.75,-44.38 916.5,-44.38 916.5,-115.62"/>
<text text-anchor="middle" x="855.62" y="-98.33" font-family="Arial" font-size="14.00">CNM9338</text>
<text text-anchor="middle" x="855.62" y="-66.58" font-family="Arial" font-size="14.00">Desenvolvimento</text>
<text text-anchor="middle" x="855.62" y="-50.83" font-family="Arial" font-size="14.00">Sócio&#45;Econômico</text>
</g>
<!-- CNM9220&#45;&gt;CNM9338 -->
<!-- CNM9120 -->
<g id="node45" class="node">
<title>CNM9120</title>
<polygon fill="#8dd3c7" stroke="#8dd3c7" points="1054.75,-596.5 952.5,-596.5 952.5,-509.5 1054.75,-509.5 1054.75,-596.5"/>
<text text-anchor="middle" x="1003.62" y="-579.2" font-family="Arial" font-size="14.00">CNM9120</text>
<text text-anchor="middle" x="1003.62" y="-547.45" font-family="Arial" font-size="14.00">Formação</text>
<text text-anchor="middle" x="1003.62" y="-531.7" font-family="Arial" font-size="14.00">Econômica do</text>
<text text-anchor="middle" x="1003.62" y="-515.95" font-family="Arial" font-size="14.00">Brasil II</text>
</g>
<!-- CNM9338&#45;&gt;CNM9120 -->
<!-- CNM9163 -->
<g id="node46" class="node">
<title>CNM9163</title>
<polygon fill="#8dd3c7" stroke="#8dd3c7" points="1054.03,-491.62 953.23,-491.62 953.23,-420.38 1054.03,-420.38 1054.03,-491.62"/>
<text text-anchor="middle" x="1003.62" y="-474.32" font-family="Arial" font-size="14.00">CNM9163</text>
<text text-anchor="middle" x="1003.62" y="-442.57" font-family="Arial" font-size="14.00">Custo</text>
<text text-anchor="middle" x="1003.62" y="-426.82" font-family="Arial" font-size="14.00">Industrial</text>
</g>
<!-- CNM9338&#45;&gt;CNM9163 -->
<!-- CNM9203 -->
<g id="node47" class="node">
<title>CNM9203</title>
<polygon fill="#8dd3c7" stroke="#8dd3c7" points="1054.03,-402.62 953.23,-402.62 953.23,-331.38 1054.03,-331.38 1054.03,-402.62"/>
<text text-anchor="middle" x="1003.62" y="-385.32" font-family="Arial" font-size="14.00">CNM9203</text>
<text text-anchor="middle" x="1003.62" y="-353.57" font-family="Arial" font-size="14.00">Economia</text>
<text text-anchor="middle" x="1003.62" y="-337.82" font-family="Arial" font-size="14.00">Agrícola</text>
</g>
<!-- CNM9338&#45;&gt;CNM9203 -->
<!-- CNM9223 -->
<g id="node48" class="node">
<title>CNM9223</title>
<polygon fill="#8dd3c7" stroke="#8dd3c7" points="1054.03,-313.62 953.23,-313.62 953.23,-242.38 1054.03,-242.38 1054.03,-313.62"/>
<text text-anchor="middle" x="1003.62" y="-296.32" font-family="Arial" font-size="14.00">CNM9223</text>
<text text-anchor="middle" x="1003.62" y="-264.57" font-family="Arial" font-size="14.00">Economia</text>
<text text-anchor="middle" x="1003.62" y="-248.82" font-family="Arial" font-size="14.00">Internacional</text>
</g>
<!-- CNM9338&#45;&gt;CNM9223 -->
<!-- CNM9383 -->
<g id="node49" class="node">
<title>CNM9383</title>
<polygon fill="#8dd3c7" stroke="#8dd3c7" points="1054.03,-224.5 953.23,-224.5 953.23,-137.5 1054.03,-137.5 1054.03,-224.5"/>
<text text-anchor="middle" x="1003.62" y="-207.2" font-family="Arial" font-size="14.00">CNM9383</text>
<text text-anchor="middle" x="1003.62" y="-175.45" font-family="Arial" font-size="14.00">Política e</text>
<text text-anchor="middle" x="1003.62" y="-159.7" font-family="Arial" font-size="14.00">Planejamento</text>
<text text-anchor="middle" x="1003.62" y="-143.95" font-family="Arial" font-size="14.00">Econômico</text>
</g>
<!-- CNM9338&#45;&gt;CNM9383 -->
<!-- CNM9413 -->
<g id="node50" class="node">
<title>CNM9413</title>
<polygon fill="#8dd3c7" stroke="#8dd3c7" points="1054.03,-119.5 953.23,-119.5 953.23,-32.5 1054.03,-32.5 1054.03,-119.5"/>
<text text-anchor="middle" x="1003.62" y="-102.2" font-family="Arial" font-size="14.00">CNM9413</text>
<text text-anchor="middle" x="1003.62" y="-70.45" font-family="Arial" font-size="14.00">Elaboração e</text>
<text text-anchor="middle" x="1003.62" y="-54.7" font-family="Arial" font-size="14.00">Análise de</text>
<text text-anchor="middle" x="1003.62" y="-38.95" font-family="Arial" font-size="14.00">Projetos</text>
</g>
<!-- CNM9338&#45;&gt;CNM9413 -->
<!-- CNM9109 -->
<g id="node51" class="node">
<title>CNM9109</title>
<polygon fill="#8dd3c7" stroke="#8dd3c7" points="1197.9,-652.5 1097.1,-652.5 1097.1,-565.5 1197.9,-565.5 1197.9,-652.5"/>
<text text-anchor="middle" x="1147.5" y="-635.2" font-family="Arial" font-size="14.00">CNM9109</text>
<text text-anchor="middle" x="1147.5" y="-603.45" font-family="Arial" font-size="14.00">Evolução do</text>
<text text-anchor="middle" x="1147.5" y="-587.7" font-family="Arial" font-size="14.00">Pensamento</text>
<text text-anchor="middle" x="1147.5" y="-571.95" font-family="Arial" font-size="14.00">Econômico</text>
</g>
<!-- CNM9413&#45;&gt;CNM9109 -->
<!-- CNM9124 -->
<g id="node52" class="node">
<title>CNM9124</title>
<polygon fill="#8dd3c7" stroke="#8dd3c7" points="1197.9,-547.5 1097.1,-547.5 1097.1,-460.5 1197.9,-460.5 1197.9,-547.5"/>
<text text-anchor="middle" x="1147.5" y="-530.2" font-family="Arial" font-size="14.00">CNM9124</text>
<text text-anchor="middle" x="1147.5" y="-498.45" font-family="Arial" font-size="14.00">Seminário de</text>
<text text-anchor="middle" x="1147.5" y="-482.7" font-family="Arial" font-size="14.00">Economia</text>
<text text-anchor="middle" x="1147.5" y="-466.95" font-family="Arial" font-size="14.00">Aplicada IV</text>
</g>
<!-- CNM9413&#45;&gt;CNM9124 -->
<!-- CNM9136 -->
<g id="node53" class="node">
<title>CNM9136</title>
<polygon fill="#8dd3c7" stroke="#8dd3c7" points="1204.25,-442.38 1090.75,-442.38 1090.75,-339.62 1204.25,-339.62 1204.25,-442.38"/>
<text text-anchor="middle" x="1147.5" y="-425.07" font-family="Arial" font-size="14.00">CNM9136</text>
<text text-anchor="middle" x="1147.5" y="-393.32" font-family="Arial" font-size="14.00">Evolução</text>
<text text-anchor="middle" x="1147.5" y="-377.57" font-family="Arial" font-size="14.00">Econômica do</text>
<text text-anchor="middle" x="1147.5" y="-361.82" font-family="Arial" font-size="14.00">Capitalismo</text>
<text text-anchor="middle" x="1147.5" y="-346.07" font-family="Arial" font-size="14.00">Contemporâneo</text>
</g>
<!-- CNM9413&#45;&gt;CNM9136 -->
<!-- CNM9307 -->
<g id="node54" class="node">
<title>CNM9307</title>
<polygon fill="#8dd3c7" stroke="#8dd3c7" points="1197.9,-321.5 1097.1,-321.5 1097.1,-234.5 1197.9,-234.5 1197.9,-321.5"/>
<text text-anchor="middle" x="1147.5" y="-304.2" font-family="Arial" font-size="14.00">CNM9307</text>
<text text-anchor="middle" x="1147.5" y="-272.45" font-family="Arial" font-size="14.00">Introdução ao</text>
<text text-anchor="middle" x="1147.5" y="-256.7" font-family="Arial" font-size="14.00">Mercado de</text>
<text text-anchor="middle" x="1147.5" y="-240.95" font-family="Arial" font-size="14.00">Capitais</text>
</g>
<!-- CNM9413&#45;&gt;CNM9307 -->
<!-- CNM9353 -->
<g id="node55" class="node">
<title>CNM9353</title>
<polygon fill="#8dd3c7" stroke="#8dd3c7" points="1204.25,-216.5 1090.75,-216.5 1090.75,-129.5 1204.25,-129.5 1204.25,-216.5"/>
<text text-anchor="middle" x="1147.5" y="-199.2" font-family="Arial" font-size="14.00">CNM9353</text>
<text text-anchor="middle" x="1147.5" y="-167.45" font-family="Arial" font-size="14.00">Economia</text>
<text text-anchor="middle" x="1147.5" y="-151.7" font-family="Arial" font-size="14.00">Brasileira</text>
<text text-anchor="middle" x="1147.5" y="-135.95" font-family="Arial" font-size="14.00">Contemporânea</text>
</g>
<!-- CNM9413&#45;&gt;CNM9353 -->
<!-- CNM9367 -->
<g id="node56" class="node">
<title>CNM9367</title>
<polygon fill="#8dd3c7" stroke="#8dd3c7" points="1197.9,-111.5 1097.1,-111.5 1097.1,-24.5 1197.9,-24.5 1197.9,-111.5"/>
<text text-anchor="middle" x="1147.5" y="-94.2" font-family="Arial" font-size="14.00">CNM9367</text>
<text text-anchor="middle" x="1147.5" y="-62.45" font-family="Arial" font-size="14.00">Técnicas de</text>
<text text-anchor="middle" x="1147.5" y="-46.7" font-family="Arial" font-size="14.00">Pesquisa em</text>
<text text-anchor="middle" x="1147.5" y="-30.95" font-family="Arial" font-size="14.00">Economia</text>
</g>
<!-- CNM9413&#45;&gt;CNM9367 -->
<!-- CAD9145 -->
<g id="node57" class="node">
<title>CAD9145</title>
<polygon fill="#80b1d3" stroke="#80b1d3" points="1342.5,-161.75 1240.25,-161.75 1240.25,-106.25 1342.5,-106.25 1342.5,-161.75"/>
<text text-anchor="middle" x="1291.38" y="-144.45" font-family="Arial" font-size="14.00">CAD9145</text>
<text text-anchor="middle" x="1291.38" y="-112.7" font-family="Arial" font-size="14.00">Administração</text>
</g>
<!-- CNM9367&#45;&gt;CAD9145 -->
<!-- CNM9125 -->
<g id="node58" class="node">
<title>CNM9125</title>
<polygon fill="#8dd3c7" stroke="#8dd3c7" points="1341.78,-87.75 1240.97,-87.75 1240.97,-32.25 1341.78,-32.25 1341.78,-87.75"/>
<text text-anchor="middle" x="1291.38" y="-70.45" font-family="Arial" font-size="14.00">CNM9125</text>
<text text-anchor="middle" x="1291.38" y="-38.7" font-family="Arial" font-size="14.00">Monografia</text>
</g>
<!-- CNM9367&#45;&gt;CNM9125 -->
</g>
</svg>
