<?xml version="1.0" encoding="UTF-8" standalone="no"?>
<!DOCTYPE svg PUBLIC "-//W3C//DTD SVG 1.1//EN"
 "http://www.w3.org/Graphics/SVG/1.1/DTD/svg11.dtd">
<!-- Generated by graphviz version 9.0.0 (0)
 -->
<!-- Title: grafo_materias Pages: 1 -->
<svg width="180pt" height="458pt"
 viewBox="0.00 0.00 180.00 458.00" xmlns="http://www.w3.org/2000/svg" xmlns:xlink="http://www.w3.org/1999/xlink">
<g id="graph0" class="graph" transform="scale(1 1) rotate(0) translate(4 454)">
<title>grafo_materias</title>
<polygon fill="none" stroke="none" points="-4,4 -4,-454 176,-454 176,4 -4,4"/>
<g id="clust1" class="cluster">
<title>cluster_everything</title>
<polygon fill="none" stroke="none" points="8,-8 8,-442 164,-442 164,-8 8,-8"/>
</g>
<g id="clust3" class="cluster">
<title>cluster_0</title>
<polygon fill="none" stroke="none" points="16,-16 16,-434 156,-434 156,-16 16,-16"/>
</g>
<!-- CEE4001 -->
<g id="node1" class="node">
<title>CEE4001</title>
<polygon fill="#8dd3c7" stroke="#8dd3c7" points="148,-426.38 24,-426.38 24,-323.62 148,-323.62 148,-426.38"/>
<text text-anchor="middle" x="86" y="-409.07" font-family="Arial" font-size="14.00">CEE4001</text>
<text text-anchor="middle" x="86" y="-377.32" font-family="Arial" font-size="14.00">Introdução à</text>
<text text-anchor="middle" x="86" y="-361.57" font-family="Arial" font-size="14.00">Educação</text>
<text text-anchor="middle" x="86" y="-345.82" font-family="Arial" font-size="14.00">Matemática (PCC</text>
<text text-anchor="middle" x="86" y="-330.07" font-family="Arial" font-size="14.00">18h&#45;a)</text>
</g>
<!-- MAT4101 -->
<g id="node2" class="node">
<title>MAT4101</title>
<polygon fill="#80b1d3" stroke="#80b1d3" points="136.4,-305.38 35.6,-305.38 35.6,-202.62 136.4,-202.62 136.4,-305.38"/>
<text text-anchor="middle" x="86" y="-288.07" font-family="Arial" font-size="14.00">MAT4101</text>
<text text-anchor="middle" x="86" y="-256.32" font-family="Arial" font-size="14.00">Elementos de</text>
<text text-anchor="middle" x="86" y="-240.57" font-family="Arial" font-size="14.00">Aritmética e</text>
<text text-anchor="middle" x="86" y="-224.82" font-family="Arial" font-size="14.00">Álgebra (PCC</text>
<text text-anchor="middle" x="86" y="-209.07" font-family="Arial" font-size="14.00">36h&#45;a)</text>
</g>
<!-- MAT4111 -->
<g id="node3" class="node">
<title>MAT4111</title>
<polygon fill="#80b1d3" stroke="#80b1d3" points="145.38,-184.62 26.62,-184.62 26.62,-113.38 145.38,-113.38 145.38,-184.62"/>
<text text-anchor="middle" x="86" y="-167.32" font-family="Arial" font-size="14.00">MAT4111</text>
<text text-anchor="middle" x="86" y="-135.57" font-family="Arial" font-size="14.00">Geometria Plana</text>
<text text-anchor="middle" x="86" y="-119.83" font-family="Arial" font-size="14.00">(PCC 18h&#45;a)</text>
</g>
<!-- MAT4121 -->
<g id="node4" class="node">
<title>MAT4121</title>
<polygon fill="#80b1d3" stroke="#80b1d3" points="145,-95.62 27,-95.62 27,-24.38 145,-24.38 145,-95.62"/>
<text text-anchor="middle" x="86" y="-78.33" font-family="Arial" font-size="14.00">MAT4121</text>
<text text-anchor="middle" x="86" y="-46.58" font-family="Arial" font-size="14.00">Fundamentos de</text>
<text text-anchor="middle" x="86" y="-30.82" font-family="Arial" font-size="14.00">Matemática</text>
</g>
</g>
</svg>
