<?xml version="1.0" encoding="UTF-8" standalone="no"?>
<!DOCTYPE svg PUBLIC "-//W3C//DTD SVG 1.1//EN"
 "http://www.w3.org/Graphics/SVG/1.1/DTD/svg11.dtd">
<!-- Generated by graphviz version 9.0.0 (0)
 -->
<!-- Title: grafo_materias Pages: 1 -->
<svg width="342pt" height="665pt"
 viewBox="0.00 0.00 341.50 665.00" xmlns="http://www.w3.org/2000/svg" xmlns:xlink="http://www.w3.org/1999/xlink">
<g id="graph0" class="graph" transform="scale(1 1) rotate(0) translate(4 661)">
<title>grafo_materias</title>
<polygon fill="none" stroke="none" points="-4,4 -4,-661 337.5,-661 337.5,4 -4,4"/>
<g id="clust1" class="cluster">
<title>cluster_everything</title>
<polygon fill="none" stroke="none" points="8,-8 8,-649 325.5,-649 325.5,-8 8,-8"/>
</g>
<g id="clust2" class="cluster">
<title>cluster_header</title>
<polygon fill="none" stroke="none" points="21.98,-589 21.98,-641 299.52,-641 299.52,-589 21.98,-589"/>
</g>
<g id="clust3" class="cluster">
<title>cluster_0</title>
<polygon fill="none" stroke="none" points="16,-16 16,-581 144.75,-581 144.75,-16 16,-16"/>
</g>
<g id="clust4" class="cluster">
<title>cluster_1</title>
<polygon fill="none" stroke="none" points="164.75,-26 164.75,-581 317.5,-581 317.5,-26 164.75,-26"/>
</g>
<!-- 1º Fase -->
<g id="node1" class="node">
<title>1º Fase</title>
<polygon fill="lightgrey" stroke="black" points="130.78,-633 29.98,-633 29.98,-597 130.78,-597 130.78,-633"/>
<text text-anchor="middle" x="80.38" y="-609.58" font-family="Arial" font-size="14.00">1º Fase</text>
</g>
<!-- 2º Fase -->
<g id="node2" class="node">
<title>2º Fase</title>
<polygon fill="lightgrey" stroke="black" points="291.52,-633 190.72,-633 190.72,-597 291.52,-597 291.52,-633"/>
<text text-anchor="middle" x="241.12" y="-609.58" font-family="Arial" font-size="14.00">2º Fase</text>
</g>
<!-- 1º Fase&#45;&gt;2º Fase -->
<!-- CEE7101 -->
<g id="node3" class="node">
<title>CEE7101</title>
<g id="a_node3"><a xlink:title="Estrutura atômica. Tabela e propriedades periódicas. Ligações químicas. Forças intermoleculares. Reações químicas e estequiometria. Teorias ácido&#45;base. Soluções.">
<polygon fill="#8dd3c7" stroke="#8dd3c7" points="136.75,-572.75 24,-572.75 24,-517.25 136.75,-517.25 136.75,-572.75"/>
<text text-anchor="middle" x="80.38" y="-555.45" font-family="Arial" font-size="14.00">CEE7101</text>
<text text-anchor="middle" x="80.38" y="-523.7" font-family="Arial" font-size="14.00">Química Geral I</text>
</a>
</g>
</g>
<!-- CEE5201 -->
<g id="node9" class="node">
<title>CEE5201</title>
<g id="a_node9"><a xlink:title="Química dos elementos e suas aplicações. Introdução à Química de coordenação: histórico, definições e nomenclatura. Teorias de ligação aplicadas a complexos.">
<polygon fill="#8dd3c7" stroke="#8dd3c7" points="291.52,-573.38 190.72,-573.38 190.72,-470.62 291.52,-470.62 291.52,-573.38"/>
<text text-anchor="middle" x="241.12" y="-556.08" font-family="Arial" font-size="14.00">CEE5201</text>
<text text-anchor="middle" x="241.12" y="-524.33" font-family="Arial" font-size="14.00">Química</text>
<text text-anchor="middle" x="241.12" y="-508.57" font-family="Arial" font-size="14.00">Inorgânica I</text>
<text text-anchor="middle" x="241.12" y="-492.82" font-family="Arial" font-size="14.00">(PCC 18</text>
<text text-anchor="middle" x="241.12" y="-477.07" font-family="Arial" font-size="14.00">horas/aula)</text>
</a>
</g>
</g>
<!-- CEE7101&#45;&gt;CEE5201 -->
<g id="edge2" class="edge">
<title>CEE7101&#45;&gt;CEE5201</title>
<path fill="none" stroke="#8dd3c7" stroke-width="2" d="M137.05,-556.89C137.05,-556.89 187.82,-556.89 187.82,-556.89"/>
<polygon fill="#8dd3c7" stroke="#8dd3c7" stroke-width="2" points="189.32,-554.39 189.32,-559.39 188.32,-559.39 188.32,-554.39 189.32,-554.39"/>
<polyline fill="none" stroke="#8dd3c7" stroke-width="2" points="189.82,-556.89 187.32,-556.89"/>
</g>
<!-- CEE7101&#45;&gt;CEE5201 -->
<!-- CEE7207 -->
<g id="node10" class="node">
<title>CEE7207</title>
<polygon fill="#8dd3c7" stroke="#8dd3c7" points="309.5,-452.38 172.75,-452.38 172.75,-349.62 309.5,-349.62 309.5,-452.38"/>
<text text-anchor="middle" x="241.12" y="-435.07" font-family="Arial" font-size="14.00">CEE7207</text>
<text text-anchor="middle" x="241.12" y="-403.32" font-family="Arial" font-size="14.00">Fundamentos</text>
<text text-anchor="middle" x="241.12" y="-387.57" font-family="Arial" font-size="14.00">Histórico&#45;Filosóficos</text>
<text text-anchor="middle" x="241.12" y="-371.82" font-family="Arial" font-size="14.00">da Educação</text>
<text text-anchor="middle" x="241.12" y="-356.07" font-family="Arial" font-size="14.00">(PCC 18h&#45;a)</text>
</g>
<!-- CEE7101&#45;&gt;CEE7207 -->
<!-- CEE7208 -->
<g id="node11" class="node">
<title>CEE7208</title>
<polygon fill="#8dd3c7" stroke="#8dd3c7" points="301.25,-331.12 181,-331.12 181,-196.88 301.25,-196.88 301.25,-331.12"/>
<text text-anchor="middle" x="241.12" y="-313.82" font-family="Arial" font-size="14.00">CEE7208</text>
<text text-anchor="middle" x="241.12" y="-282.07" font-family="Arial" font-size="14.00">Psicologia</text>
<text text-anchor="middle" x="241.12" y="-266.32" font-family="Arial" font-size="14.00">Educacional:</text>
<text text-anchor="middle" x="241.12" y="-250.57" font-family="Arial" font-size="14.00">Desenvolvimento</text>
<text text-anchor="middle" x="241.12" y="-234.82" font-family="Arial" font-size="14.00">e Aprendizagem</text>
<text text-anchor="middle" x="241.12" y="-219.07" font-family="Arial" font-size="14.00">(PCC 18h&#45;a e</text>
<text text-anchor="middle" x="241.12" y="-203.32" font-family="Arial" font-size="14.00">EXT 18h&#45;a)</text>
</g>
<!-- CEE7101&#45;&gt;CEE7208 -->
<!-- CEE7924 -->
<g id="node12" class="node">
<title>CEE7924</title>
<polygon fill="#8dd3c7" stroke="#8dd3c7" points="291.52,-178.62 190.72,-178.62 190.72,-107.38 291.52,-107.38 291.52,-178.62"/>
<text text-anchor="middle" x="241.12" y="-161.32" font-family="Arial" font-size="14.00">CEE7924</text>
<text text-anchor="middle" x="241.12" y="-129.57" font-family="Arial" font-size="14.00">Libras (PCC</text>
<text text-anchor="middle" x="241.12" y="-113.83" font-family="Arial" font-size="14.00">36h&#45;a)</text>
</g>
<!-- CEE7101&#45;&gt;CEE7924 -->
<!-- MAT2201 -->
<g id="node13" class="node">
<title>MAT2201</title>
<g id="a_node13"><a xlink:title="Cálculo de funções de uma variável real: limites; continuidade; derivada; aplicações da derivada (taxas de variação, retas tangentes e normais, problemas de otimização e máximos e mínimos, esboço de gráficos, aproximações lineares e quadráticas); integral definida e indefinida; áreas entre curvas; técnicas de integração (substituição, por partes, substituição trigonométrica, frações parciais). Integral imprópria">
<polygon fill="#80b1d3" stroke="#80b1d3" points="291.52,-89.75 190.72,-89.75 190.72,-34.25 291.52,-34.25 291.52,-89.75"/>
<text text-anchor="middle" x="241.12" y="-72.45" font-family="Arial" font-size="14.00">MAT2201</text>
<text text-anchor="middle" x="241.12" y="-40.7" font-family="Arial" font-size="14.00">Cálculo 1</text>
</a>
</g>
</g>
<!-- CEE7101&#45;&gt;MAT2201 -->
<!-- CEE7104 -->
<g id="node4" class="node">
<title>CEE7104</title>
<polygon fill="#8dd3c7" stroke="#8dd3c7" points="130.78,-499.38 29.98,-499.38 29.98,-396.62 130.78,-396.62 130.78,-499.38"/>
<text text-anchor="middle" x="80.38" y="-482.07" font-family="Arial" font-size="14.00">CEE7104</text>
<text text-anchor="middle" x="80.38" y="-450.32" font-family="Arial" font-size="14.00">Introdução à</text>
<text text-anchor="middle" x="80.38" y="-434.57" font-family="Arial" font-size="14.00">Organização</text>
<text text-anchor="middle" x="80.38" y="-418.82" font-family="Arial" font-size="14.00">Escolar (PCC</text>
<text text-anchor="middle" x="80.38" y="-403.07" font-family="Arial" font-size="14.00">18h&#45;a)</text>
</g>
<!-- CEE7107 -->
<g id="node5" class="node">
<title>CEE7107</title>
<g id="a_node5"><a xlink:title="O ambiente laboratorial. Normas de segurança no laboratório. Equipamentos básicos de laboratório. Calibração de instrumentos de medidas. Preparo de soluções. Técnicas básicas em laboratório de química. Medidas e tratamento de dados. Elaboração de relatório científico. Procedimentos de descarte e tratamentos dos resíduos de laboratórios de química.">
<polygon fill="#8dd3c7" stroke="#8dd3c7" points="133,-378.62 27.75,-378.62 27.75,-307.38 133,-307.38 133,-378.62"/>
<text text-anchor="middle" x="80.38" y="-361.32" font-family="Arial" font-size="14.00">CEE7107</text>
<text text-anchor="middle" x="80.38" y="-329.57" font-family="Arial" font-size="14.00">Química Geral</text>
<text text-anchor="middle" x="80.38" y="-313.82" font-family="Arial" font-size="14.00">Experimental</text>
</a>
</g>
</g>
<!-- CEE7108 -->
<g id="node6" class="node">
<title>CEE7108</title>
<polygon fill="#8dd3c7" stroke="#8dd3c7" points="132.62,-289.38 28.12,-289.38 28.12,-186.62 132.62,-186.62 132.62,-289.38"/>
<text text-anchor="middle" x="80.38" y="-272.07" font-family="Arial" font-size="14.00">CEE7108</text>
<text text-anchor="middle" x="80.38" y="-240.32" font-family="Arial" font-size="14.00">Introdução ao</text>
<text text-anchor="middle" x="80.38" y="-224.57" font-family="Arial" font-size="14.00">Ensino de</text>
<text text-anchor="middle" x="80.38" y="-208.82" font-family="Arial" font-size="14.00">Química (PCC</text>
<text text-anchor="middle" x="80.38" y="-193.07" font-family="Arial" font-size="14.00">36h&#45;a)</text>
</g>
<!-- MAT2101 -->
<g id="node7" class="node">
<title>MAT2101</title>
<g id="a_node7"><a xlink:title="Conjuntos e aritmética básica. Cálculo com expressões algébricas. Equações. Inequações. Funções.">
<polygon fill="#80b1d3" stroke="#80b1d3" points="130.78,-168.75 29.98,-168.75 29.98,-113.25 130.78,-113.25 130.78,-168.75"/>
<text text-anchor="middle" x="80.38" y="-151.45" font-family="Arial" font-size="14.00">MAT2101</text>
<text text-anchor="middle" x="80.38" y="-119.7" font-family="Arial" font-size="14.00">Pré&#45;Cálculo</text>
</a>
</g>
</g>
<!-- MAT2101&#45;&gt;MAT2201 -->
<g id="edge3" class="edge">
<title>MAT2101&#45;&gt;MAT2201</title>
<path fill="none" stroke="#80b1d3" stroke-width="2" d="M131.21,-141C139,-141 144.5,-141 144.5,-141 144.5,-141 144.5,-52.75 144.5,-52.75 144.5,-52.75 187.77,-52.75 187.77,-52.75"/>
<polygon fill="#80b1d3" stroke="#80b1d3" stroke-width="2" points="189.27,-50.25 189.27,-55.25 188.27,-55.25 188.27,-50.25 189.27,-50.25"/>
<polyline fill="none" stroke="#80b1d3" stroke-width="2" points="189.77,-52.75 187.27,-52.75"/>
</g>
<!-- MAT2111 -->
<g id="node8" class="node">
<title>MAT2111</title>
<g id="a_node8"><a xlink:title="Matrizes. Determinantes. Sistemas lineares. Álgebra vetorial. Estudo da reta e do plano. Curvas planas. Superfícies.">
<polygon fill="#80b1d3" stroke="#80b1d3" points="130.78,-95.62 29.98,-95.62 29.98,-24.38 130.78,-24.38 130.78,-95.62"/>
<text text-anchor="middle" x="80.38" y="-78.33" font-family="Arial" font-size="14.00">MAT2111</text>
<text text-anchor="middle" x="80.38" y="-46.58" font-family="Arial" font-size="14.00">Geometria</text>
<text text-anchor="middle" x="80.38" y="-30.82" font-family="Arial" font-size="14.00">Analítica</text>
</a>
</g>
</g>
</g>
</svg>
