<?xml version="1.0" encoding="UTF-8" standalone="no"?>
<!DOCTYPE svg PUBLIC "-//W3C//DTD SVG 1.1//EN"
 "http://www.w3.org/Graphics/SVG/1.1/DTD/svg11.dtd">
<!-- Generated by graphviz version 9.0.0 (0)
 -->
<!-- Title: grafo_materias Pages: 1 -->
<svg width="485pt" height="813pt"
 viewBox="0.00 0.00 485.00 813.00" xmlns="http://www.w3.org/2000/svg" xmlns:xlink="http://www.w3.org/1999/xlink">
<g id="graph0" class="graph" transform="scale(1 1) rotate(0) translate(4 809)">
<title>grafo_materias</title>
<polygon fill="none" stroke="none" points="-4,4 -4,-809 481,-809 481,4 -4,4"/>
<g id="clust1" class="cluster">
<title>cluster_everything</title>
<polygon fill="none" stroke="none" points="8,-8 8,-797 469,-797 469,-8 8,-8"/>
</g>
<g id="clust2" class="cluster">
<title>cluster_header</title>
<polygon fill="none" stroke="none" points="26.1,-737 26.1,-789 452.4,-789 452.4,-737 26.1,-737"/>
</g>
<g id="clust3" class="cluster">
<title>cluster_0</title>
<polygon fill="none" stroke="none" points="16,-53 16,-675 153,-675 153,-53 16,-53"/>
</g>
<g id="clust4" class="cluster">
<title>cluster_1</title>
<polygon fill="none" stroke="none" points="173,-31 173,-622 307,-622 307,-31 173,-31"/>
</g>
<g id="clust5" class="cluster">
<title>cluster_2</title>
<polygon fill="none" stroke="none" points="327,-16 327,-729 461,-729 461,-16 327,-16"/>
</g>
<!-- 1ª Fase -->
<g id="node1" class="node">
<title>1ª Fase</title>
<polygon fill="lightgrey" stroke="black" points="134.9,-781 34.1,-781 34.1,-745 134.9,-745 134.9,-781"/>
<text text-anchor="middle" x="84.5" y="-757.58" font-family="Arial" font-size="14.00">1ª Fase</text>
</g>
<!-- 2ª Fase -->
<g id="node2" class="node">
<title>2ª Fase</title>
<polygon fill="lightgrey" stroke="black" points="290.4,-781 189.6,-781 189.6,-745 290.4,-745 290.4,-781"/>
<text text-anchor="middle" x="240" y="-757.58" font-family="Arial" font-size="14.00">2ª Fase</text>
</g>
<!-- 1ª Fase&#45;&gt;2ª Fase -->
<!-- 3ª Fase -->
<g id="node3" class="node">
<title>3ª Fase</title>
<polygon fill="lightgrey" stroke="black" points="444.4,-781 343.6,-781 343.6,-745 444.4,-745 444.4,-781"/>
<text text-anchor="middle" x="394" y="-757.58" font-family="Arial" font-size="14.00">3ª Fase</text>
</g>
<!-- 2ª Fase&#45;&gt;3ª Fase -->
<!-- CAC2505 -->
<g id="node4" class="node">
<title>CAC2505</title>
<g id="a_node4"><a xlink:title="A natureza do conhecimento científico e outras formas de conhecimento. Tipos de pesquisa. Métodos, técnicas e instrumentos de pesquisa. Elementos e etapas da pesquisa científica e tecnológica. Modalidades de trabalhos acadêmicos e científicos e sua normalização (ABNT). Análise e elaboração de trabalhos acadêmicos e científicos.">
<polygon fill="#8dd3c7" stroke="#8dd3c7" points="134.9,-310.62 34.1,-310.62 34.1,-239.38 134.9,-239.38 134.9,-310.62"/>
<text text-anchor="middle" x="84.5" y="-293.32" font-family="Arial" font-size="14.00">CAC2505</text>
<text text-anchor="middle" x="84.5" y="-261.57" font-family="Arial" font-size="14.00">Metodologia</text>
<text text-anchor="middle" x="84.5" y="-245.82" font-family="Arial" font-size="14.00">Científica</text>
</a>
</g>
</g>
<!-- CEE1101 -->
<g id="node11" class="node">
<title>CEE1101</title>
<g id="a_node11"><a xlink:title="Conceitos fundamentais e manuseio de aparelhagem; Estequiometria; Soluções e titulação ácido e base; Operações com misturas; Termoquímica; Eletroquímica; Cinética; Equilíbrio químico.">
<polygon fill="#80b1d3" stroke="#80b1d3" points="290.4,-613.62 189.6,-613.62 189.6,-542.38 290.4,-542.38 290.4,-613.62"/>
<text text-anchor="middle" x="240" y="-596.33" font-family="Arial" font-size="14.00">CEE1101</text>
<text text-anchor="middle" x="240" y="-564.58" font-family="Arial" font-size="14.00">Química</text>
<text text-anchor="middle" x="240" y="-548.83" font-family="Arial" font-size="14.00">Experimental</text>
</a>
</g>
</g>
<!-- CAC2505&#45;&gt;CEE1101 -->
<!-- CEE2400 -->
<g id="node12" class="node">
<title>CEE2400</title>
<g id="a_node12"><a xlink:title="Introdução ao estudo da química orgânica. Ligações químicas e estrutura molecular. Forças intermoleculares. Ácidos e bases em Química Orgânica. Análise conformacional e estereoquímica. Introdução às reações orgânicas. Reações de adição à ligação dupla C=C. Reações de substituição nucleofílica ao carbono saturado. Reações de eliminação. Aromaticidade. Reações de substituição eletrofílica. Reações de adição, condensação e substituição de compostos carbonílicos. Radicais livres.">
<polygon fill="#80b1d3" stroke="#80b1d3" points="290.4,-524.62 189.6,-524.62 189.6,-453.38 290.4,-453.38 290.4,-524.62"/>
<text text-anchor="middle" x="240" y="-507.32" font-family="Arial" font-size="14.00">CEE2400</text>
<text text-anchor="middle" x="240" y="-475.57" font-family="Arial" font-size="14.00">Química</text>
<text text-anchor="middle" x="240" y="-459.82" font-family="Arial" font-size="14.00">Orgânica</text>
</a>
</g>
</g>
<!-- CAC2505&#45;&gt;CEE2400 -->
<!-- CEE6106 -->
<g id="node13" class="node">
<title>CEE6106</title>
<g id="a_node13"><a xlink:title="Grandezas físicas, sistemas de unidades e representação vetorial. Movimento em uma dimensão. Movimento em duas dimensões. Leis de Newton. Aplicações das Leis de Newton. Trabalho e energia. Quantidade de movimento, impulso e colisões. Cinemática da rotação. Dinâmica da rotação.">
<polygon fill="#80b1d3" stroke="#80b1d3" points="290.4,-273.75 189.6,-273.75 189.6,-218.25 290.4,-218.25 290.4,-273.75"/>
<text text-anchor="middle" x="240" y="-256.45" font-family="Arial" font-size="14.00">CEE6106</text>
<text text-anchor="middle" x="240" y="-224.7" font-family="Arial" font-size="14.00">Física I</text>
</a>
</g>
</g>
<!-- CAC2505&#45;&gt;CEE6106 -->
<!-- CEE6206 -->
<g id="node14" class="node">
<title>CEE6206</title>
<g id="a_node14"><a xlink:title="Algarismos Significativos. Erros. Gráficos. Força e movimento. Momento. Trabalho e Energia.">
<polygon fill="#80b1d3" stroke="#80b1d3" points="291.5,-362.62 188.5,-362.62 188.5,-291.38 291.5,-291.38 291.5,-362.62"/>
<text text-anchor="middle" x="240" y="-345.32" font-family="Arial" font-size="14.00">CEE6206</text>
<text text-anchor="middle" x="240" y="-313.57" font-family="Arial" font-size="14.00">Física</text>
<text text-anchor="middle" x="240" y="-297.82" font-family="Arial" font-size="14.00">Experimental I</text>
</a>
</g>
</g>
<!-- CAC2505&#45;&gt;CEE6206 -->
<!-- EMT2206 -->
<g id="node15" class="node">
<title>EMT2206</title>
<g id="a_node15"><a xlink:title="Diagrama de fase de um componente; Equilíbrio de fases com dois componentes; Diagrama eutético, peritético; Diagramas envolvendo transformações no estado sólido; Eutetóide; Princípios de Solidificação: Nucleação homogênea, heterogênea, precipitação; Crescimento de fases; Cinética e microestrutura das transformações estruturais; Natureza das transformações de fase; Força motriz para transformação">
<polygon fill="#fdb462" stroke="#fdb462" points="299,-126.5 181,-126.5 181,-39.5 299,-39.5 299,-126.5"/>
<text text-anchor="middle" x="240" y="-109.2" font-family="Arial" font-size="14.00">EMT2206</text>
<text text-anchor="middle" x="240" y="-77.45" font-family="Arial" font-size="14.00">Fundamentos de</text>
<text text-anchor="middle" x="240" y="-61.7" font-family="Arial" font-size="14.00">Engenharia de</text>
<text text-anchor="middle" x="240" y="-45.95" font-family="Arial" font-size="14.00">Materiais I</text>
</a>
</g>
</g>
<!-- CAC2505&#45;&gt;EMT2206 -->
<!-- MAT2201 -->
<g id="node16" class="node">
<title>MAT2201</title>
<g id="a_node16"><a xlink:title="Cálculo de funções de uma variável real: limites; continuidade; derivada; aplicações da derivada (taxas de variação, retas tangentes e normais, problemas de otimização e máximos e mínimos, esboço de gráficos, aproximações lineares e quadráticas); integral definida e indefinida; áreas entre curvas; técnicas de integração (substituição, por partes, substituição trigonométrica, frações parciais). Integral imprópria">
<polygon fill="#ffffb3" stroke="#ffffb3" points="290.4,-199.75 189.6,-199.75 189.6,-144.25 290.4,-144.25 290.4,-199.75"/>
<text text-anchor="middle" x="240" y="-182.45" font-family="Arial" font-size="14.00">MAT2201</text>
<text text-anchor="middle" x="240" y="-150.7" font-family="Arial" font-size="14.00">Cálculo 1</text>
</a>
</g>
</g>
<!-- CAC2505&#45;&gt;MAT2201 -->
<!-- MAT2211 -->
<g id="node17" class="node">
<title>MAT2211</title>
<g id="a_node17"><a xlink:title="Espaço vetorial. Transformações lineares. Mudança de base. Produto interno. Transformações ortogonais. Autovalores e autovetores de um operador. Diagonalização.">
<polygon fill="#ffffb3" stroke="#ffffb3" points="291.88,-435.75 188.12,-435.75 188.12,-380.25 291.88,-380.25 291.88,-435.75"/>
<text text-anchor="middle" x="240" y="-418.45" font-family="Arial" font-size="14.00">MAT2211</text>
<text text-anchor="middle" x="240" y="-386.7" font-family="Arial" font-size="14.00">Álgebra Linear</text>
</a>
</g>
</g>
<!-- CAC2505&#45;&gt;MAT2211 -->
<!-- CAC6000 -->
<g id="node5" class="node">
<title>CAC6000</title>
<g id="a_node5"><a xlink:title="Introdução aos computadores e sistemas operacionais; uso do computador (manipulação de arquivos e textos, execução de programas, pesquisa na internet); noções de algoritmos, programas e linguagens de programação; tipos de dados e variáveis; expressões lógicas, estruturas de controle; vetores e matrizes; modularização.">
<polygon fill="#8dd3c7" stroke="#8dd3c7" points="134.9,-593.5 34.1,-593.5 34.1,-506.5 134.9,-506.5 134.9,-593.5"/>
<text text-anchor="middle" x="84.5" y="-576.2" font-family="Arial" font-size="14.00">CAC6000</text>
<text text-anchor="middle" x="84.5" y="-544.45" font-family="Arial" font-size="14.00">Introdução a</text>
<text text-anchor="middle" x="84.5" y="-528.7" font-family="Arial" font-size="14.00">Ciência da</text>
<text text-anchor="middle" x="84.5" y="-512.95" font-family="Arial" font-size="14.00">Computação</text>
</a>
</g>
</g>
<!-- CAC6002 -->
<g id="node6" class="node">
<title>CAC6002</title>
<g id="a_node6"><a xlink:title="Introdução ao Desenho Técnico. Normas fundamentais para o Desenho Técnico. Sistemas de representação nos diedros. Projeções ortogonais de peças simples. Sistema de cotagem e proporções. Perspectivas. Introdução a software para expressão gráfica">
<polygon fill="#8dd3c7" stroke="#8dd3c7" points="145,-488.62 24,-488.62 24,-417.38 145,-417.38 145,-488.62"/>
<text text-anchor="middle" x="84.5" y="-471.32" font-family="Arial" font-size="14.00">CAC6002</text>
<text text-anchor="middle" x="84.5" y="-439.57" font-family="Arial" font-size="14.00">Desenho Técnico</text>
<text text-anchor="middle" x="84.5" y="-423.82" font-family="Arial" font-size="14.00">para Engenharia</text>
</a>
</g>
</g>
<!-- CEE7101 -->
<g id="node7" class="node">
<title>CEE7101</title>
<g id="a_node7"><a xlink:title="Estrutura atômica. Tabela e propriedades periódicas. Ligações químicas. Forças intermoleculares. Reações químicas e estequiometria. Teorias ácido&#45;base. Soluções.">
<polygon fill="#80b1d3" stroke="#80b1d3" points="140.88,-666.75 28.12,-666.75 28.12,-611.25 140.88,-611.25 140.88,-666.75"/>
<text text-anchor="middle" x="84.5" y="-649.45" font-family="Arial" font-size="14.00">CEE7101</text>
<text text-anchor="middle" x="84.5" y="-617.7" font-family="Arial" font-size="14.00">Química Geral I</text>
</a>
</g>
</g>
<!-- CEE7101&#45;&gt;CEE1101 -->
<g id="edge3" class="edge">
<title>CEE7101&#45;&gt;CEE1101</title>
<path fill="none" stroke="#80b1d3" stroke-width="2" d="M141.08,-627.5C185.54,-627.5 240,-627.5 240,-627.5 240,-627.5 240,-616.47 240,-616.47"/>
<polygon fill="#80b1d3" stroke="#80b1d3" stroke-width="2" points="237.5,-614.97 242.5,-614.97 242.5,-615.97 237.5,-615.97 237.5,-614.97"/>
<polyline fill="none" stroke="#80b1d3" stroke-width="2" points="240,-614.47 240,-616.97"/>
</g>
<!-- CEE7101&#45;&gt;CEE2400 -->
<g id="edge4" class="edge">
<title>CEE7101&#45;&gt;CEE2400</title>
<path fill="none" stroke="#80b1d3" stroke-width="2" d="M141.23,-621.5C163.12,-621.5 183,-621.5 183,-621.5 183,-621.5 183,-515.56 183,-515.56 183,-515.56 187.04,-515.56 187.04,-515.56"/>
<polygon fill="#80b1d3" stroke="#80b1d3" stroke-width="2" points="188.54,-513.06 188.54,-518.06 187.54,-518.06 187.54,-513.06 188.54,-513.06"/>
<polyline fill="none" stroke="#80b1d3" stroke-width="2" points="189.04,-515.56 186.54,-515.56"/>
</g>
<!-- EMT2502 -->
<g id="node23" class="node">
<title>EMT2502</title>
<g id="a_node23"><a xlink:title="Transformações químicas; Gases, líquidos e pressão de vapor. Propriedades coligativas; Cinética e mecanismos de reações; Equilíbrio químico, Reações de oxi&#45;reduções, eletroquímica, pilhas e corrosão.">
<polygon fill="#fdb462" stroke="#fdb462" points="444.4,-720.5 343.6,-720.5 343.6,-633.5 444.4,-633.5 444.4,-720.5"/>
<text text-anchor="middle" x="394" y="-703.2" font-family="Arial" font-size="14.00">EMT2502</text>
<text text-anchor="middle" x="394" y="-671.45" font-family="Arial" font-size="14.00">Química</text>
<text text-anchor="middle" x="394" y="-655.7" font-family="Arial" font-size="14.00">Aplicada aos</text>
<text text-anchor="middle" x="394" y="-639.95" font-family="Arial" font-size="14.00">Materiais</text>
</a>
</g>
</g>
<!-- CEE7101&#45;&gt;EMT2502 -->
<g id="edge18" class="edge">
<title>CEE7101&#45;&gt;EMT2502</title>
<path fill="none" stroke="#fdb462" stroke-width="2" d="M141.27,-655.67C141.27,-655.67 340.73,-655.67 340.73,-655.67"/>
<polygon fill="#fdb462" stroke="#fdb462" stroke-width="2" points="342.23,-653.17 342.23,-658.17 341.23,-658.17 341.23,-653.17 342.23,-653.17"/>
<polyline fill="none" stroke="#fdb462" stroke-width="2" points="342.73,-655.67 340.23,-655.67"/>
</g>
<!-- EMT2102 -->
<g id="node8" class="node">
<title>EMT2102</title>
<g id="a_node8"><a xlink:title="Curso Engenharia de Materiais UFSC/BNU, Origens da Engenharia, Profissão Engenheiro Materiais, Classes de Materiais, Metais, Polímeros, Cerâmicos, Compósitos, Questões Ambientais, Questões Econômicas e Sociais de Materiais.">
<polygon fill="#fdb462" stroke="#fdb462" points="136.38,-148.5 32.62,-148.5 32.62,-61.5 136.38,-61.5 136.38,-148.5"/>
<text text-anchor="middle" x="84.5" y="-131.2" font-family="Arial" font-size="14.00">EMT2102</text>
<text text-anchor="middle" x="84.5" y="-99.45" font-family="Arial" font-size="14.00">Introdução à</text>
<text text-anchor="middle" x="84.5" y="-83.7" font-family="Arial" font-size="14.00">Engenharia de</text>
<text text-anchor="middle" x="84.5" y="-67.95" font-family="Arial" font-size="14.00">Materiais</text>
</a>
</g>
</g>
<!-- EMT2102&#45;&gt;EMT2206 -->
<g id="edge7" class="edge">
<title>EMT2102&#45;&gt;EMT2206</title>
<path fill="none" stroke="#fdb462" stroke-width="2" d="M136.71,-94C136.71,-94 178.19,-94 178.19,-94"/>
<polygon fill="#fdb462" stroke="#fdb462" stroke-width="2" points="179.69,-91.5 179.69,-96.5 178.69,-96.5 178.69,-91.5 179.69,-91.5"/>
<polyline fill="none" stroke="#fdb462" stroke-width="2" points="180.19,-94 177.69,-94"/>
</g>
<!-- MAT2101 -->
<g id="node9" class="node">
<title>MAT2101</title>
<g id="a_node9"><a xlink:title="Conjuntos e aritmética básica. Cálculo com expressões algébricas. Equações. Inequações. Funções.">
<polygon fill="#ffffb3" stroke="#ffffb3" points="134.9,-221.75 34.1,-221.75 34.1,-166.25 134.9,-166.25 134.9,-221.75"/>
<text text-anchor="middle" x="84.5" y="-204.45" font-family="Arial" font-size="14.00">MAT2101</text>
<text text-anchor="middle" x="84.5" y="-172.7" font-family="Arial" font-size="14.00">Pré&#45;Cálculo</text>
</a>
</g>
</g>
<!-- MAT2101&#45;&gt;CEE6106 -->
<g id="edge5" class="edge">
<title>MAT2101&#45;&gt;CEE6106</title>
<path fill="none" stroke="#80b1d3" stroke-width="2" d="M135.32,-210.75C186.21,-210.75 257,-210.75 257,-210.75 257,-210.75 257,-215.38 257,-215.38"/>
<polygon fill="#80b1d3" stroke="#80b1d3" stroke-width="2" points="259.5,-216.88 254.5,-216.88 254.5,-215.88 259.5,-215.88 259.5,-216.88"/>
<polyline fill="none" stroke="#80b1d3" stroke-width="2" points="257,-217.38 257,-214.88"/>
</g>
<!-- MAT2101&#45;&gt;CEE6206 -->
<g id="edge6" class="edge">
<title>MAT2101&#45;&gt;CEE6206</title>
<path fill="none" stroke="#80b1d3" stroke-width="2" d="M135.38,-214.5C138.84,-214.5 141,-214.5 141,-214.5 141,-214.5 141,-294.58 141,-294.58 141,-294.58 185.68,-294.58 185.68,-294.58"/>
<polygon fill="#80b1d3" stroke="#80b1d3" stroke-width="2" points="187.18,-292.08 187.18,-297.08 186.18,-297.08 186.18,-292.08 187.18,-292.08"/>
<polyline fill="none" stroke="#80b1d3" stroke-width="2" points="187.68,-294.58 185.18,-294.58"/>
</g>
<!-- MAT2101&#45;&gt;EMT2206 -->
<g id="edge8" class="edge">
<title>MAT2101&#45;&gt;EMT2206</title>
<path fill="none" stroke="#fdb462" stroke-width="2" d="M135.34,-174.62C160.27,-174.62 185,-174.62 185,-174.62 185,-174.62 185,-129.43 185,-129.43"/>
<polygon fill="#fdb462" stroke="#fdb462" stroke-width="2" points="182.5,-127.93 187.5,-127.93 187.5,-128.93 182.5,-128.93 182.5,-127.93"/>
<polyline fill="none" stroke="#fdb462" stroke-width="2" points="185,-127.43 185,-129.93"/>
</g>
<!-- MAT2101&#45;&gt;MAT2201 -->
<g id="edge9" class="edge">
<title>MAT2101&#45;&gt;MAT2201</title>
<path fill="none" stroke="#ffffb3" stroke-width="2" d="M134.99,-183C134.99,-183 186.73,-183 186.73,-183"/>
<polygon fill="#ffffb3" stroke="#ffffb3" stroke-width="2" points="188.23,-180.5 188.23,-185.5 187.23,-185.5 187.23,-180.5 188.23,-180.5"/>
<polyline fill="none" stroke="#ffffb3" stroke-width="2" points="188.73,-183 186.23,-183"/>
</g>
<!-- MAT2111 -->
<g id="node10" class="node">
<title>MAT2111</title>
<g id="a_node10"><a xlink:title="Matrizes. Determinantes. Sistemas lineares. Álgebra vetorial. Estudo da reta e do plano. Curvas planas. Superfícies.">
<polygon fill="#ffffb3" stroke="#ffffb3" points="134.9,-399.62 34.1,-399.62 34.1,-328.38 134.9,-328.38 134.9,-399.62"/>
<text text-anchor="middle" x="84.5" y="-382.32" font-family="Arial" font-size="14.00">MAT2111</text>
<text text-anchor="middle" x="84.5" y="-350.57" font-family="Arial" font-size="14.00">Geometria</text>
<text text-anchor="middle" x="84.5" y="-334.82" font-family="Arial" font-size="14.00">Analítica</text>
</a>
</g>
</g>
<!-- MAT2111&#45;&gt;MAT2211 -->
<g id="edge10" class="edge">
<title>MAT2111&#45;&gt;MAT2211</title>
<path fill="none" stroke="#ffffb3" stroke-width="2" d="M134.99,-393.17C134.99,-393.17 185.13,-393.17 185.13,-393.17"/>
<polygon fill="#ffffb3" stroke="#ffffb3" stroke-width="2" points="186.63,-390.67 186.63,-395.67 185.63,-395.67 185.63,-390.67 186.63,-390.67"/>
<polyline fill="none" stroke="#ffffb3" stroke-width="2" points="187.13,-393.17 184.63,-393.17"/>
</g>
<!-- EMT2506 -->
<g id="node24" class="node">
<title>EMT2506</title>
<g id="a_node24"><a xlink:title="Introdução a polímeros. Polimerização em etapas. Polimerização em cadeia radicalar. Polimerização em cadeia iônica. Copolimerização. Polimerização por abertura de anel. Estereoquímica da polimerização. Técnicas de polimerização. Reações químicas em polímeros.">
<polygon fill="#fdb462" stroke="#fdb462" points="444.4,-615.5 343.6,-615.5 343.6,-528.5 444.4,-528.5 444.4,-615.5"/>
<text text-anchor="middle" x="394" y="-598.2" font-family="Arial" font-size="14.00">EMT2506</text>
<text text-anchor="middle" x="394" y="-566.45" font-family="Arial" font-size="14.00">Síntese e</text>
<text text-anchor="middle" x="394" y="-550.7" font-family="Arial" font-size="14.00">Química de</text>
<text text-anchor="middle" x="394" y="-534.95" font-family="Arial" font-size="14.00">Polímeros</text>
</a>
</g>
</g>
<!-- CEE2400&#45;&gt;EMT2506 -->
<g id="edge19" class="edge">
<title>CEE2400&#45;&gt;EMT2506</title>
<path fill="none" stroke="#fdb462" stroke-width="2" d="M240,-524.94C240,-532.25 240,-537.75 240,-537.75 240,-537.75 340.65,-537.75 340.65,-537.75"/>
<polygon fill="#fdb462" stroke="#fdb462" stroke-width="2" points="342.15,-535.25 342.15,-540.25 341.15,-540.25 341.15,-535.25 342.15,-535.25"/>
<polyline fill="none" stroke="#fdb462" stroke-width="2" points="342.65,-537.75 340.15,-537.75"/>
</g>
<!-- CEE6109 -->
<g id="node19" class="node">
<title>CEE6109</title>
<g id="a_node19"><a xlink:title="Estática de fluidos; Dinâmica de fluídos; Oscilações mecânicas; Ondas; Som; Temperatura; Calor e primeira lei da termodinâmica; Gás ideal; Entropia e segunda lei da termodinâmica.">
<polygon fill="#80b1d3" stroke="#80b1d3" points="444.4,-184.75 343.6,-184.75 343.6,-129.25 444.4,-129.25 444.4,-184.75"/>
<text text-anchor="middle" x="394" y="-167.45" font-family="Arial" font-size="14.00">CEE6109</text>
<text text-anchor="middle" x="394" y="-135.7" font-family="Arial" font-size="14.00">Física II</text>
</a>
</g>
</g>
<!-- CEE6106&#45;&gt;CEE6109 -->
<g id="edge12" class="edge">
<title>CEE6106&#45;&gt;CEE6109</title>
<path fill="none" stroke="#80b1d3" stroke-width="2" d="M290.46,-231.75C294.46,-231.75 297,-231.75 297,-231.75 297,-231.75 297,-168.55 297,-168.55 297,-168.55 340.73,-168.55 340.73,-168.55"/>
<polygon fill="#80b1d3" stroke="#80b1d3" stroke-width="2" points="342.23,-166.05 342.23,-171.05 341.23,-171.05 341.23,-166.05 342.23,-166.05"/>
<polyline fill="none" stroke="#80b1d3" stroke-width="2" points="342.73,-168.55 340.23,-168.55"/>
</g>
<!-- CEE6209 -->
<g id="node20" class="node">
<title>CEE6209</title>
<g id="a_node20"><a xlink:title="Fluídos. Oscilações. Ondas e Som. Termodinâmica.">
<polygon fill="#80b1d3" stroke="#80b1d3" points="447.38,-421.62 340.62,-421.62 340.62,-350.38 447.38,-350.38 447.38,-421.62"/>
<text text-anchor="middle" x="394" y="-404.32" font-family="Arial" font-size="14.00">CEE6209</text>
<text text-anchor="middle" x="394" y="-372.57" font-family="Arial" font-size="14.00">Física</text>
<text text-anchor="middle" x="394" y="-356.82" font-family="Arial" font-size="14.00">Experimental II</text>
</a>
</g>
</g>
<!-- CEE6106&#45;&gt;CEE6209 -->
<g id="edge14" class="edge">
<title>CEE6106&#45;&gt;CEE6209</title>
<path fill="none" stroke="#80b1d3" stroke-width="2" d="M290.68,-266.25C293.38,-266.25 295,-266.25 295,-266.25 295,-266.25 295,-354.46 295,-354.46 295,-354.46 337.65,-354.46 337.65,-354.46"/>
<polygon fill="#80b1d3" stroke="#80b1d3" stroke-width="2" points="339.15,-351.96 339.15,-356.96 338.15,-356.96 338.15,-351.96 339.15,-351.96"/>
<polyline fill="none" stroke="#80b1d3" stroke-width="2" points="339.65,-354.46 337.15,-354.46"/>
</g>
<!-- CEE6206&#45;&gt;CEE6209 -->
<g id="edge15" class="edge">
<title>CEE6206&#45;&gt;CEE6209</title>
<path fill="none" stroke="#80b1d3" stroke-width="2" d="M291.71,-358.54C291.71,-358.54 337.82,-358.54 337.82,-358.54"/>
<polygon fill="#80b1d3" stroke="#80b1d3" stroke-width="2" points="339.32,-356.04 339.32,-361.04 338.32,-361.04 338.32,-356.04 339.32,-356.04"/>
<polyline fill="none" stroke="#80b1d3" stroke-width="2" points="339.82,-358.54 337.32,-358.54"/>
</g>
<!-- EMT2207 -->
<g id="node21" class="node">
<title>EMT2207</title>
<g id="a_node21"><a xlink:title="Diagrama de fase de um componente; Equilíbrio de fases com dois componentes; Diagrama eutético, peritético; Diagramas envolvendo transformações no estado sólido; Eutetóide; Princípios de Solidificação: Nucleação homogênea, heterogênea, precipitação; Crescimento de fases; Cinética e microestrutura das transformações estruturais; Natureza das transformações de fase; Força motriz para transformação.">
<polygon fill="#fdb462" stroke="#fdb462" points="453,-111.5 335,-111.5 335,-24.5 453,-24.5 453,-111.5"/>
<text text-anchor="middle" x="394" y="-94.2" font-family="Arial" font-size="14.00">EMT2207</text>
<text text-anchor="middle" x="394" y="-62.45" font-family="Arial" font-size="14.00">Fundamentos de</text>
<text text-anchor="middle" x="394" y="-46.7" font-family="Arial" font-size="14.00">Engenharia de</text>
<text text-anchor="middle" x="394" y="-30.95" font-family="Arial" font-size="14.00">Materiais II</text>
</a>
</g>
</g>
<!-- EMT2206&#45;&gt;EMT2207 -->
<g id="edge16" class="edge">
<title>EMT2206&#45;&gt;EMT2207</title>
<path fill="none" stroke="#fdb462" stroke-width="2" d="M299.1,-57.5C299.1,-57.5 332.05,-57.5 332.05,-57.5"/>
<polygon fill="#fdb462" stroke="#fdb462" stroke-width="2" points="333.55,-55 333.55,-60 332.55,-60 332.55,-55 333.55,-55"/>
<polyline fill="none" stroke="#fdb462" stroke-width="2" points="334.05,-57.5 331.55,-57.5"/>
</g>
<!-- CAC6013 -->
<g id="node18" class="node">
<title>CAC6013</title>
<g id="a_node18"><a xlink:title="Estatística Descritiva. Axiomas de Probabilidade. Probabilidade Condicional. Independência. Teorema de Bayes. Variáveis aleatórias Discretas e Contínuas. Modelos de Probabilidade para variáveis aleatórias Discretas: Bernoulli, Binomial e Poisson. Modelos de Probabilidade para Variáveis Contínuas: Uniforme, Normal, Exponencial e Gamma. Inferência Estatística: Distribuições Amostrais, Intervalos de Confiança e Testes de Hipóteses.">
<polygon fill="#8dd3c7" stroke="#8dd3c7" points="444.4,-258.75 343.6,-258.75 343.6,-203.25 444.4,-203.25 444.4,-258.75"/>
<text text-anchor="middle" x="394" y="-241.45" font-family="Arial" font-size="14.00">CAC6013</text>
<text text-anchor="middle" x="394" y="-209.7" font-family="Arial" font-size="14.00">Estatística</text>
</a>
</g>
</g>
<!-- MAT2201&#45;&gt;CAC6013 -->
<g id="edge11" class="edge">
<title>MAT2201&#45;&gt;CAC6013</title>
<path fill="none" stroke="#8dd3c7" stroke-width="2" d="M224,-199.92C224,-204.08 224,-207 224,-207 224,-207 340.95,-207 340.95,-207"/>
<polygon fill="#8dd3c7" stroke="#8dd3c7" stroke-width="2" points="342.45,-204.5 342.45,-209.5 341.45,-209.5 341.45,-204.5 342.45,-204.5"/>
<polyline fill="none" stroke="#8dd3c7" stroke-width="2" points="342.95,-207 340.45,-207"/>
</g>
<!-- MAT2201&#45;&gt;CEE6109 -->
<g id="edge13" class="edge">
<title>MAT2201&#45;&gt;CEE6109</title>
<path fill="none" stroke="#80b1d3" stroke-width="2" d="M290.85,-160.45C290.85,-160.45 340.7,-160.45 340.7,-160.45"/>
<polygon fill="#80b1d3" stroke="#80b1d3" stroke-width="2" points="342.2,-157.95 342.2,-162.95 341.2,-162.95 341.2,-157.95 342.2,-157.95"/>
<polyline fill="none" stroke="#80b1d3" stroke-width="2" points="342.7,-160.45 340.2,-160.45"/>
</g>
<!-- MAT2201&#45;&gt;EMT2207 -->
<g id="edge17" class="edge">
<title>MAT2201&#45;&gt;EMT2207</title>
<path fill="none" stroke="#fdb462" stroke-width="2" d="M290.78,-152.35C300.13,-152.35 307,-152.35 307,-152.35 307,-152.35 307,-75.5 307,-75.5 307,-75.5 332.03,-75.5 332.03,-75.5"/>
<polygon fill="#fdb462" stroke="#fdb462" stroke-width="2" points="333.53,-73 333.53,-78 332.53,-78 332.53,-73 333.53,-73"/>
<polyline fill="none" stroke="#fdb462" stroke-width="2" points="334.03,-75.5 331.53,-75.5"/>
</g>
<!-- MAT2301 -->
<g id="node25" class="node">
<title>MAT2301</title>
<g id="a_node25"><a xlink:title="Funções de várias variáveis. Derivadas parciais. Máximos e mínimos de funções de duas variáveis. Equações diferenciais ordinárias de primeira ordem. Equações diferenciais ordinárias lineares homogêneas de ordem n. Equações diferenciais ordinárias lineares não homogêneas de ordem 2. Noções gerais de Transformada de Laplace.">
<polygon fill="#ffffb3" stroke="#ffffb3" points="444.4,-332.75 343.6,-332.75 343.6,-277.25 444.4,-277.25 444.4,-332.75"/>
<text text-anchor="middle" x="394" y="-315.45" font-family="Arial" font-size="14.00">MAT2301</text>
<text text-anchor="middle" x="394" y="-283.7" font-family="Arial" font-size="14.00">Cálculo 2</text>
</a>
</g>
</g>
<!-- MAT2201&#45;&gt;MAT2301 -->
<g id="edge20" class="edge">
<title>MAT2201&#45;&gt;MAT2301</title>
<path fill="none" stroke="#ffffb3" stroke-width="2" d="M290.83,-192.25C294.03,-192.25 296,-192.25 296,-192.25 296,-192.25 296,-284.31 296,-284.31 296,-284.31 340.78,-284.31 340.78,-284.31"/>
<polygon fill="#ffffb3" stroke="#ffffb3" stroke-width="2" points="342.28,-281.81 342.28,-286.81 341.28,-286.81 341.28,-281.81 342.28,-281.81"/>
<polyline fill="none" stroke="#ffffb3" stroke-width="2" points="342.78,-284.31 340.28,-284.31"/>
</g>
<!-- MAT2211&#45;&gt;CAC6013 -->
<!-- MAT2211&#45;&gt;CEE6109 -->
<!-- MAT2211&#45;&gt;CEE6209 -->
<!-- MAT2211&#45;&gt;EMT2207 -->
<!-- EMT2208 -->
<g id="node22" class="node">
<title>EMT2208</title>
<g id="a_node22"><a xlink:title="Introdução à Análise Microestrutural, Técnicas de Preparação Microestrutural, Teoria de Microscopia Óptica, Análise de Imagens. Prática em Preparação e Análise Microscópica de Amostras.">
<polygon fill="#fdb462" stroke="#fdb462" points="447.38,-510.62 340.62,-510.62 340.62,-439.38 447.38,-439.38 447.38,-510.62"/>
<text text-anchor="middle" x="394" y="-493.32" font-family="Arial" font-size="14.00">EMT2208</text>
<text text-anchor="middle" x="394" y="-461.57" font-family="Arial" font-size="14.00">Caracterização</text>
<text text-anchor="middle" x="394" y="-445.82" font-family="Arial" font-size="14.00">de Materiais I</text>
</a>
</g>
</g>
<!-- MAT2211&#45;&gt;EMT2208 -->
<!-- MAT2211&#45;&gt;EMT2502 -->
<!-- MAT2211&#45;&gt;EMT2506 -->
<!-- MAT2211&#45;&gt;MAT2301 -->
</g>
</svg>
