<?xml version="1.0" encoding="UTF-8" standalone="no"?>
<!DOCTYPE svg PUBLIC "-//W3C//DTD SVG 1.1//EN"
 "http://www.w3.org/Graphics/SVG/1.1/DTD/svg11.dtd">
<!-- Generated by graphviz version 9.0.0 (0)
 -->
<!-- Title: grafo_materias Pages: 1 -->
<svg width="340pt" height="639pt"
 viewBox="0.00 0.00 340.00 639.00" xmlns="http://www.w3.org/2000/svg" xmlns:xlink="http://www.w3.org/1999/xlink">
<g id="graph0" class="graph" transform="scale(1 1) rotate(0) translate(4 635)">
<title>grafo_materias</title>
<polygon fill="none" stroke="none" points="-4,4 -4,-635 336,-635 336,4 -4,4"/>
<g id="clust1" class="cluster">
<title>cluster_everything</title>
<polygon fill="none" stroke="none" points="8,-8 8,-623 324,-623 324,-8 8,-8"/>
</g>
<g id="clust2" class="cluster">
<title>cluster_header</title>
<polygon fill="none" stroke="none" points="16,-563 16,-615 316,-615 316,-563 16,-563"/>
</g>
<g id="clust3" class="cluster">
<title>cluster_0</title>
<polygon fill="none" stroke="none" points="16,-16 16,-434 156,-434 156,-16 16,-16"/>
</g>
<g id="clust4" class="cluster">
<title>cluster_1</title>
<polygon fill="none" stroke="none" points="176.38,-16 176.38,-555 315.62,-555 315.62,-16 176.38,-16"/>
</g>
<!-- 1º Fase&#45;Sugestão -->
<g id="node1" class="node">
<title>1º Fase&#45;Sugestão</title>
<polygon fill="lightgrey" stroke="black" points="148,-607 24,-607 24,-571 148,-571 148,-607"/>
<text text-anchor="middle" x="86" y="-583.58" font-family="Arial" font-size="14.00">1º Fase&#45;Sugestão</text>
</g>
<!-- 2º Fase&#45;Sugestão -->
<g id="node2" class="node">
<title>2º Fase&#45;Sugestão</title>
<polygon fill="lightgrey" stroke="black" points="308,-607 184,-607 184,-571 308,-571 308,-607"/>
<text text-anchor="middle" x="246" y="-583.58" font-family="Arial" font-size="14.00">2º Fase&#45;Sugestão</text>
</g>
<!-- 1º Fase&#45;Sugestão&#45;&gt;2º Fase&#45;Sugestão -->
<!-- CEE4001 -->
<g id="node3" class="node">
<title>CEE4001</title>
<polygon fill="#8dd3c7" stroke="#8dd3c7" points="148,-426.38 24,-426.38 24,-323.62 148,-323.62 148,-426.38"/>
<text text-anchor="middle" x="86" y="-409.07" font-family="Arial" font-size="14.00">CEE4001</text>
<text text-anchor="middle" x="86" y="-377.32" font-family="Arial" font-size="14.00">Introdução à</text>
<text text-anchor="middle" x="86" y="-361.57" font-family="Arial" font-size="14.00">Educação</text>
<text text-anchor="middle" x="86" y="-345.82" font-family="Arial" font-size="14.00">Matemática (PCC</text>
<text text-anchor="middle" x="86" y="-330.07" font-family="Arial" font-size="14.00">18h&#45;a)</text>
</g>
<!-- CEE4002 -->
<g id="node7" class="node">
<title>CEE4002</title>
<polygon fill="#8dd3c7" stroke="#8dd3c7" points="307.62,-547.38 184.38,-547.38 184.38,-444.62 307.62,-444.62 307.62,-547.38"/>
<text text-anchor="middle" x="246" y="-530.08" font-family="Arial" font-size="14.00">CEE4002</text>
<text text-anchor="middle" x="246" y="-498.32" font-family="Arial" font-size="14.00">Metodologia do</text>
<text text-anchor="middle" x="246" y="-482.57" font-family="Arial" font-size="14.00">Ensino da</text>
<text text-anchor="middle" x="246" y="-466.82" font-family="Arial" font-size="14.00">Matemática (PPC</text>
<text text-anchor="middle" x="246" y="-451.07" font-family="Arial" font-size="14.00">18h&#45;a)</text>
</g>
<!-- CEE4001&#45;&gt;CEE4002 -->
<g id="edge2" class="edge">
<title>CEE4001&#45;&gt;CEE4002</title>
<path fill="none" stroke="#8dd3c7" stroke-width="2" d="M148.24,-404.66C169.02,-404.66 187,-404.66 187,-404.66 187,-404.66 187,-441.69 187,-441.69"/>
<polygon fill="#8dd3c7" stroke="#8dd3c7" stroke-width="2" points="189.5,-443.19 184.5,-443.19 184.5,-442.19 189.5,-442.19 189.5,-443.19"/>
<polyline fill="none" stroke="#8dd3c7" stroke-width="2" points="187,-443.69 187,-441.19"/>
</g>
<!-- CEE4001&#45;&gt;CEE4002 -->
<!-- CEE7307 -->
<g id="node8" class="node">
<title>CEE7307</title>
<polygon fill="#8dd3c7" stroke="#8dd3c7" points="300.5,-426.5 191.5,-426.5 191.5,-339.5 300.5,-339.5 300.5,-426.5"/>
<text text-anchor="middle" x="246" y="-409.2" font-family="Arial" font-size="14.00">CEE7307</text>
<text text-anchor="middle" x="246" y="-377.45" font-family="Arial" font-size="14.00">Organização e</text>
<text text-anchor="middle" x="246" y="-361.7" font-family="Arial" font-size="14.00">Gestão Escolar</text>
<text text-anchor="middle" x="246" y="-345.95" font-family="Arial" font-size="14.00">(PCC 18h&#45;a)</text>
</g>
<!-- CEE4001&#45;&gt;CEE7307 -->
<!-- MAT4201 -->
<g id="node9" class="node">
<title>MAT4201</title>
<polygon fill="#80b1d3" stroke="#80b1d3" points="296.4,-216.5 195.6,-216.5 195.6,-129.5 296.4,-129.5 296.4,-216.5"/>
<text text-anchor="middle" x="246" y="-199.2" font-family="Arial" font-size="14.00">MAT4201</text>
<text text-anchor="middle" x="246" y="-167.45" font-family="Arial" font-size="14.00">Introdução ao</text>
<text text-anchor="middle" x="246" y="-151.7" font-family="Arial" font-size="14.00">Cálculo (PCC</text>
<text text-anchor="middle" x="246" y="-135.95" font-family="Arial" font-size="14.00">36h&#45;a)</text>
</g>
<!-- CEE4001&#45;&gt;MAT4201 -->
<!-- MAT4211 -->
<g id="node10" class="node">
<title>MAT4211</title>
<polygon fill="#80b1d3" stroke="#80b1d3" points="296.4,-111.5 195.6,-111.5 195.6,-24.5 296.4,-24.5 296.4,-111.5"/>
<text text-anchor="middle" x="246" y="-94.2" font-family="Arial" font-size="14.00">MAT4211</text>
<text text-anchor="middle" x="246" y="-62.45" font-family="Arial" font-size="14.00">Construções</text>
<text text-anchor="middle" x="246" y="-46.7" font-family="Arial" font-size="14.00">Geométricas</text>
<text text-anchor="middle" x="246" y="-30.95" font-family="Arial" font-size="14.00">(PCC 36h&#45;a)</text>
</g>
<!-- CEE4001&#45;&gt;MAT4211 -->
<!-- MAT4231 -->
<g id="node11" class="node">
<title>MAT4231</title>
<polygon fill="#80b1d3" stroke="#80b1d3" points="296.4,-321.5 195.6,-321.5 195.6,-234.5 296.4,-234.5 296.4,-321.5"/>
<text text-anchor="middle" x="246" y="-304.2" font-family="Arial" font-size="14.00">MAT4231</text>
<text text-anchor="middle" x="246" y="-272.45" font-family="Arial" font-size="14.00">Análise</text>
<text text-anchor="middle" x="246" y="-256.7" font-family="Arial" font-size="14.00">Combinatória</text>
<text text-anchor="middle" x="246" y="-240.95" font-family="Arial" font-size="14.00">(PCC 18h&#45;a)</text>
</g>
<!-- CEE4001&#45;&gt;MAT4231 -->
<!-- MAT4101 -->
<g id="node4" class="node">
<title>MAT4101</title>
<polygon fill="#80b1d3" stroke="#80b1d3" points="136.4,-305.38 35.6,-305.38 35.6,-202.62 136.4,-202.62 136.4,-305.38"/>
<text text-anchor="middle" x="86" y="-288.07" font-family="Arial" font-size="14.00">MAT4101</text>
<text text-anchor="middle" x="86" y="-256.32" font-family="Arial" font-size="14.00">Elementos de</text>
<text text-anchor="middle" x="86" y="-240.57" font-family="Arial" font-size="14.00">Aritmética e</text>
<text text-anchor="middle" x="86" y="-224.82" font-family="Arial" font-size="14.00">Álgebra (PCC</text>
<text text-anchor="middle" x="86" y="-209.07" font-family="Arial" font-size="14.00">36h&#45;a)</text>
</g>
<!-- MAT4101&#45;&gt;MAT4201 -->
<g id="edge3" class="edge">
<title>MAT4101&#45;&gt;MAT4201</title>
<path fill="none" stroke="#80b1d3" stroke-width="2" d="M136.62,-207.25C136.62,-207.25 192.66,-207.25 192.66,-207.25"/>
<polygon fill="#80b1d3" stroke="#80b1d3" stroke-width="2" points="194.16,-204.75 194.16,-209.75 193.16,-209.75 193.16,-204.75 194.16,-204.75"/>
<polyline fill="none" stroke="#80b1d3" stroke-width="2" points="194.66,-207.25 192.16,-207.25"/>
</g>
<!-- MAT4111 -->
<g id="node5" class="node">
<title>MAT4111</title>
<polygon fill="#80b1d3" stroke="#80b1d3" points="145.38,-184.62 26.62,-184.62 26.62,-113.38 145.38,-113.38 145.38,-184.62"/>
<text text-anchor="middle" x="86" y="-167.32" font-family="Arial" font-size="14.00">MAT4111</text>
<text text-anchor="middle" x="86" y="-135.57" font-family="Arial" font-size="14.00">Geometria Plana</text>
<text text-anchor="middle" x="86" y="-119.83" font-family="Arial" font-size="14.00">(PCC 18h&#45;a)</text>
</g>
<!-- MAT4111&#45;&gt;MAT4211 -->
<g id="edge4" class="edge">
<title>MAT4111&#45;&gt;MAT4211</title>
<path fill="none" stroke="#80b1d3" stroke-width="2" d="M145.58,-121.44C191.07,-121.44 246,-121.44 246,-121.44 246,-121.44 246,-114.14 246,-114.14"/>
<polygon fill="#80b1d3" stroke="#80b1d3" stroke-width="2" points="243.5,-112.64 248.5,-112.64 248.5,-113.64 243.5,-113.64 243.5,-112.64"/>
<polyline fill="none" stroke="#80b1d3" stroke-width="2" points="246,-112.14 246,-114.64"/>
</g>
<!-- MAT4121 -->
<g id="node6" class="node">
<title>MAT4121</title>
<polygon fill="#80b1d3" stroke="#80b1d3" points="145,-95.62 27,-95.62 27,-24.38 145,-24.38 145,-95.62"/>
<text text-anchor="middle" x="86" y="-78.33" font-family="Arial" font-size="14.00">MAT4121</text>
<text text-anchor="middle" x="86" y="-46.58" font-family="Arial" font-size="14.00">Fundamentos de</text>
<text text-anchor="middle" x="86" y="-30.82" font-family="Arial" font-size="14.00">Matemática</text>
</g>
</g>
</svg>
