<?xml version="1.0" encoding="UTF-8" standalone="no"?>
<!DOCTYPE svg PUBLIC "-//W3C//DTD SVG 1.1//EN"
 "http://www.w3.org/Graphics/SVG/1.1/DTD/svg11.dtd">
<!-- Generated by graphviz version 9.0.0 (0)
 -->
<!-- Title: grafo_materias Pages: 1 -->
<svg width="1052pt" height="681pt"
 viewBox="0.00 0.00 1051.50 681.00" xmlns="http://www.w3.org/2000/svg" xmlns:xlink="http://www.w3.org/1999/xlink">
<g id="graph0" class="graph" transform="scale(1 1) rotate(0) translate(4 677)">
<title>grafo_materias</title>
<polygon fill="none" stroke="none" points="-4,4 -4,-677 1047.5,-677 1047.5,4 -4,4"/>
<g id="clust1" class="cluster">
<title>cluster_everything</title>
<polygon fill="none" stroke="none" points="8,-8 8,-665 1035.5,-665 1035.5,-8 8,-8"/>
</g>
<g id="clust2" class="cluster">
<title>cluster_header</title>
<polygon fill="none" stroke="none" points="24.6,-605 24.6,-657 1022.27,-657 1022.27,-605 24.6,-605"/>
</g>
<g id="clust3" class="cluster">
<title>cluster_0</title>
<polygon fill="none" stroke="none" points="16,-16 16,-533 150,-533 150,-16 16,-16"/>
</g>
<g id="clust4" class="cluster">
<title>cluster_1</title>
<polygon fill="none" stroke="none" points="170,-64 170,-597 290.5,-597 290.5,-64 170,-64"/>
</g>
<g id="clust5" class="cluster">
<title>cluster_2</title>
<polygon fill="none" stroke="none" points="310.5,-56 310.5,-573 436.25,-573 436.25,-56 310.5,-56"/>
</g>
<g id="clust6" class="cluster">
<title>cluster_3</title>
<polygon fill="none" stroke="none" points="456.25,-24 456.25,-589 588,-589 588,-24 456.25,-24"/>
</g>
<g id="clust7" class="cluster">
<title>cluster_4</title>
<polygon fill="none" stroke="none" points="608,-16 608,-597 736.75,-597 736.75,-16 608,-16"/>
</g>
<g id="clust8" class="cluster">
<title>cluster_5</title>
<polygon fill="none" stroke="none" points="756.75,-16 756.75,-581 880.25,-581 880.25,-16 756.75,-16"/>
</g>
<g id="clust9" class="cluster">
<title>cluster_6</title>
<polygon fill="none" stroke="none" points="900.25,-16 900.25,-581 1027.5,-581 1027.5,-16 900.25,-16"/>
</g>
<!-- Fase 02 -->
<g id="node1" class="node">
<title>Fase 02</title>
<polygon fill="lightgrey" stroke="black" points="133.4,-649 32.6,-649 32.6,-613 133.4,-613 133.4,-649"/>
<text text-anchor="middle" x="83" y="-625.58" font-family="Arial" font-size="14.00">Fase 02</text>
</g>
<!-- Fase 03 -->
<g id="node2" class="node">
<title>Fase 03</title>
<polygon fill="lightgrey" stroke="black" points="280.65,-649 179.85,-649 179.85,-613 280.65,-613 280.65,-649"/>
<text text-anchor="middle" x="230.25" y="-625.58" font-family="Arial" font-size="14.00">Fase 03</text>
</g>
<!-- Fase 02&#45;&gt;Fase 03 -->
<!-- Fase 04 -->
<g id="node3" class="node">
<title>Fase 04</title>
<polygon fill="lightgrey" stroke="black" points="423.77,-649 322.98,-649 322.98,-613 423.77,-613 423.77,-649"/>
<text text-anchor="middle" x="373.38" y="-625.58" font-family="Arial" font-size="14.00">Fase 04</text>
</g>
<!-- Fase 03&#45;&gt;Fase 04 -->
<!-- Fase 05 -->
<g id="node4" class="node">
<title>Fase 05</title>
<polygon fill="lightgrey" stroke="black" points="572.52,-649 471.73,-649 471.73,-613 572.52,-613 572.52,-649"/>
<text text-anchor="middle" x="522.12" y="-625.58" font-family="Arial" font-size="14.00">Fase 05</text>
</g>
<!-- Fase 04&#45;&gt;Fase 05 -->
<!-- Fase 06 -->
<g id="node5" class="node">
<title>Fase 06</title>
<polygon fill="lightgrey" stroke="black" points="722.77,-649 621.98,-649 621.98,-613 722.77,-613 722.77,-649"/>
<text text-anchor="middle" x="672.38" y="-625.58" font-family="Arial" font-size="14.00">Fase 06</text>
</g>
<!-- Fase 05&#45;&gt;Fase 06 -->
<!-- Fase 07 -->
<g id="node6" class="node">
<title>Fase 07</title>
<polygon fill="lightgrey" stroke="black" points="868.9,-649 768.1,-649 768.1,-613 868.9,-613 868.9,-649"/>
<text text-anchor="middle" x="818.5" y="-625.58" font-family="Arial" font-size="14.00">Fase 07</text>
</g>
<!-- Fase 06&#45;&gt;Fase 07 -->
<!-- Fase 08 -->
<g id="node7" class="node">
<title>Fase 08</title>
<polygon fill="lightgrey" stroke="black" points="1014.27,-649 913.48,-649 913.48,-613 1014.27,-613 1014.27,-649"/>
<text text-anchor="middle" x="963.88" y="-625.58" font-family="Arial" font-size="14.00">Fase 08</text>
</g>
<!-- Fase 07&#45;&gt;Fase 08 -->
<!-- CEM5104 -->
<g id="node8" class="node">
<title>CEM5104</title>
<polygon fill="#8dd3c7" stroke="#8dd3c7" points="133.4,-524.75 32.6,-524.75 32.6,-469.25 133.4,-469.25 133.4,-524.75"/>
<text text-anchor="middle" x="83" y="-507.45" font-family="Arial" font-size="14.00">CEM5104</text>
<text text-anchor="middle" x="83" y="-475.7" font-family="Arial" font-size="14.00">Portugues II</text>
</g>
<!-- CEM5200 -->
<g id="node14" class="node">
<title>CEM5200</title>
<polygon fill="#8dd3c7" stroke="#8dd3c7" points="280.65,-588.5 179.85,-588.5 179.85,-501.5 280.65,-501.5 280.65,-588.5"/>
<text text-anchor="middle" x="230.25" y="-571.2" font-family="Arial" font-size="14.00">CEM5200</text>
<text text-anchor="middle" x="230.25" y="-539.45" font-family="Arial" font-size="14.00">Fisica para</text>
<text text-anchor="middle" x="230.25" y="-523.7" font-family="Arial" font-size="14.00">Ensino de</text>
<text text-anchor="middle" x="230.25" y="-507.95" font-family="Arial" font-size="14.00">Ciencias I</text>
</g>
<!-- CEM5104&#45;&gt;CEM5200 -->
<!-- CEM5306 -->
<g id="node15" class="node">
<title>CEM5306</title>
<polygon fill="#8dd3c7" stroke="#8dd3c7" points="280.65,-483.62 179.85,-483.62 179.85,-412.38 280.65,-412.38 280.65,-483.62"/>
<text text-anchor="middle" x="230.25" y="-466.32" font-family="Arial" font-size="14.00">CEM5306</text>
<text text-anchor="middle" x="230.25" y="-434.57" font-family="Arial" font-size="14.00">Matematica</text>
<text text-anchor="middle" x="230.25" y="-418.82" font-family="Arial" font-size="14.00">Elementar III</text>
</g>
<!-- CEM5104&#45;&gt;CEM5306 -->
<!-- CEM5315 -->
<g id="node16" class="node">
<title>CEM5315</title>
<polygon fill="#8dd3c7" stroke="#8dd3c7" points="280.65,-394.62 179.85,-394.62 179.85,-323.38 280.65,-323.38 280.65,-394.62"/>
<text text-anchor="middle" x="230.25" y="-377.32" font-family="Arial" font-size="14.00">CEM5315</text>
<text text-anchor="middle" x="230.25" y="-345.57" font-family="Arial" font-size="14.00">Geometria</text>
<text text-anchor="middle" x="230.25" y="-329.82" font-family="Arial" font-size="14.00">Analitica</text>
</g>
<!-- CEM5104&#45;&gt;CEM5315 -->
<!-- CEM5321 -->
<g id="node17" class="node">
<title>CEM5321</title>
<polygon fill="#8dd3c7" stroke="#8dd3c7" points="281.38,-305.62 179.12,-305.62 179.12,-234.38 281.38,-234.38 281.38,-305.62"/>
<text text-anchor="middle" x="230.25" y="-288.32" font-family="Arial" font-size="14.00">CEM5321</text>
<text text-anchor="middle" x="230.25" y="-256.57" font-family="Arial" font-size="14.00">Informatica na</text>
<text text-anchor="middle" x="230.25" y="-240.82" font-family="Arial" font-size="14.00">Educacao</text>
</g>
<!-- CEM5104&#45;&gt;CEM5321 -->
<!-- CEM5401 -->
<g id="node18" class="node">
<title>CEM5401</title>
<polygon fill="#8dd3c7" stroke="#8dd3c7" points="282.5,-216.75 178,-216.75 178,-161.25 282.5,-161.25 282.5,-216.75"/>
<text text-anchor="middle" x="230.25" y="-199.45" font-family="Arial" font-size="14.00">CEM5401</text>
<text text-anchor="middle" x="230.25" y="-167.7" font-family="Arial" font-size="14.00">Quimica Geral</text>
</g>
<!-- CEM5104&#45;&gt;CEM5401 -->
<!-- CEM5701 -->
<g id="node19" class="node">
<title>CEM5701</title>
<polygon fill="#8dd3c7" stroke="#8dd3c7" points="280.65,-143.62 179.85,-143.62 179.85,-72.38 280.65,-72.38 280.65,-143.62"/>
<text text-anchor="middle" x="230.25" y="-126.33" font-family="Arial" font-size="14.00">CEM5701</text>
<text text-anchor="middle" x="230.25" y="-94.58" font-family="Arial" font-size="14.00">Elementos de</text>
<text text-anchor="middle" x="230.25" y="-78.83" font-family="Arial" font-size="14.00">Geologia</text>
</g>
<!-- CEM5104&#45;&gt;CEM5701 -->
<!-- CEM5302 -->
<g id="node9" class="node">
<title>CEM5302</title>
<polygon fill="#8dd3c7" stroke="#8dd3c7" points="133.4,-451.62 32.6,-451.62 32.6,-380.38 133.4,-380.38 133.4,-451.62"/>
<text text-anchor="middle" x="83" y="-434.32" font-family="Arial" font-size="14.00">CEM5302</text>
<text text-anchor="middle" x="83" y="-402.57" font-family="Arial" font-size="14.00">Matematica</text>
<text text-anchor="middle" x="83" y="-386.82" font-family="Arial" font-size="14.00">Elementar II</text>
</g>
<!-- CEM5309 -->
<g id="node10" class="node">
<title>CEM5309</title>
<polygon fill="#8dd3c7" stroke="#8dd3c7" points="142,-362.62 24,-362.62 24,-291.38 142,-291.38 142,-362.62"/>
<text text-anchor="middle" x="83" y="-345.32" font-family="Arial" font-size="14.00">CEM5309</text>
<text text-anchor="middle" x="83" y="-313.57" font-family="Arial" font-size="14.00">Fundamentos de</text>
<text text-anchor="middle" x="83" y="-297.82" font-family="Arial" font-size="14.00">Matematica II</text>
</g>
<!-- CEM5606 -->
<g id="node11" class="node">
<title>CEM5606</title>
<polygon fill="#8dd3c7" stroke="#8dd3c7" points="134.88,-273.62 31.12,-273.62 31.12,-202.38 134.88,-202.38 134.88,-273.62"/>
<text text-anchor="middle" x="83" y="-256.32" font-family="Arial" font-size="14.00">CEM5606</text>
<text text-anchor="middle" x="83" y="-224.57" font-family="Arial" font-size="14.00">Psicologia da</text>
<text text-anchor="middle" x="83" y="-208.82" font-family="Arial" font-size="14.00">Aprendizagem</text>
</g>
<!-- CEM5801 -->
<g id="node12" class="node">
<title>CEM5801</title>
<polygon fill="#8dd3c7" stroke="#8dd3c7" points="137.88,-184.5 28.13,-184.5 28.13,-97.5 137.88,-97.5 137.88,-184.5"/>
<text text-anchor="middle" x="83" y="-167.2" font-family="Arial" font-size="14.00">CEM5801</text>
<text text-anchor="middle" x="83" y="-135.45" font-family="Arial" font-size="14.00">Zoologia para o</text>
<text text-anchor="middle" x="83" y="-119.7" font-family="Arial" font-size="14.00">Ensino de</text>
<text text-anchor="middle" x="83" y="-103.95" font-family="Arial" font-size="14.00">Ciencia I</text>
</g>
<!-- CEM5811 -->
<g id="node13" class="node">
<title>CEM5811</title>
<polygon fill="#8dd3c7" stroke="#8dd3c7" points="133.4,-79.75 32.6,-79.75 32.6,-24.25 133.4,-24.25 133.4,-79.75"/>
<text text-anchor="middle" x="83" y="-62.45" font-family="Arial" font-size="14.00">CEM5811</text>
<text text-anchor="middle" x="83" y="-30.7" font-family="Arial" font-size="14.00">Botanica I</text>
</g>
<!-- CEM5307 -->
<g id="node20" class="node">
<title>CEM5307</title>
<polygon fill="#8dd3c7" stroke="#8dd3c7" points="423.77,-564.62 322.98,-564.62 322.98,-493.38 423.77,-493.38 423.77,-564.62"/>
<text text-anchor="middle" x="373.38" y="-547.33" font-family="Arial" font-size="14.00">CEM5307</text>
<text text-anchor="middle" x="373.38" y="-515.58" font-family="Arial" font-size="14.00">Matematica</text>
<text text-anchor="middle" x="373.38" y="-499.82" font-family="Arial" font-size="14.00">Elementar IV</text>
</g>
<!-- CEM5701&#45;&gt;CEM5307 -->
<!-- CEM5311 -->
<g id="node21" class="node">
<title>CEM5311</title>
<polygon fill="#8dd3c7" stroke="#8dd3c7" points="423.77,-475.62 322.98,-475.62 322.98,-404.38 423.77,-404.38 423.77,-475.62"/>
<text text-anchor="middle" x="373.38" y="-458.32" font-family="Arial" font-size="14.00">CEM5311</text>
<text text-anchor="middle" x="373.38" y="-426.57" font-family="Arial" font-size="14.00">Topicos de</text>
<text text-anchor="middle" x="373.38" y="-410.82" font-family="Arial" font-size="14.00">Algebra</text>
</g>
<!-- CEM5701&#45;&gt;CEM5311 -->
<!-- CEM5320 -->
<g id="node22" class="node">
<title>CEM5320</title>
<polygon fill="#8dd3c7" stroke="#8dd3c7" points="423.77,-386.62 322.98,-386.62 322.98,-315.38 423.77,-315.38 423.77,-386.62"/>
<text text-anchor="middle" x="373.38" y="-369.32" font-family="Arial" font-size="14.00">CEM5320</text>
<text text-anchor="middle" x="373.38" y="-337.57" font-family="Arial" font-size="14.00">Matematica</text>
<text text-anchor="middle" x="373.38" y="-321.82" font-family="Arial" font-size="14.00">Estatistica</text>
</g>
<!-- CEM5701&#45;&gt;CEM5320 -->
<!-- CEM5506 -->
<g id="node23" class="node">
<title>CEM5506</title>
<polygon fill="#8dd3c7" stroke="#8dd3c7" points="423.77,-297.75 322.98,-297.75 322.98,-242.25 423.77,-242.25 423.77,-297.75"/>
<text text-anchor="middle" x="373.38" y="-280.45" font-family="Arial" font-size="14.00">CEM5506</text>
<text text-anchor="middle" x="373.38" y="-248.7" font-family="Arial" font-size="14.00">Didática</text>
</g>
<!-- CEM5701&#45;&gt;CEM5506 -->
<!-- CEM5803 -->
<g id="node24" class="node">
<title>CEM5803</title>
<polygon fill="#8dd3c7" stroke="#8dd3c7" points="428.25,-224.5 318.5,-224.5 318.5,-137.5 428.25,-137.5 428.25,-224.5"/>
<text text-anchor="middle" x="373.38" y="-207.2" font-family="Arial" font-size="14.00">CEM5803</text>
<text text-anchor="middle" x="373.38" y="-175.45" font-family="Arial" font-size="14.00">Zoologia para o</text>
<text text-anchor="middle" x="373.38" y="-159.7" font-family="Arial" font-size="14.00">Ensino de</text>
<text text-anchor="middle" x="373.38" y="-143.95" font-family="Arial" font-size="14.00">Ciencias II</text>
</g>
<!-- CEM5701&#45;&gt;CEM5803 -->
<!-- CEM5812 -->
<g id="node25" class="node">
<title>CEM5812</title>
<polygon fill="#8dd3c7" stroke="#8dd3c7" points="423.77,-119.75 322.98,-119.75 322.98,-64.25 423.77,-64.25 423.77,-119.75"/>
<text text-anchor="middle" x="373.38" y="-102.45" font-family="Arial" font-size="14.00">CEM5812</text>
<text text-anchor="middle" x="373.38" y="-70.7" font-family="Arial" font-size="14.00">Botanica II</text>
</g>
<!-- CEM5701&#45;&gt;CEM5812 -->
<!-- CEM5202 -->
<g id="node26" class="node">
<title>CEM5202</title>
<polygon fill="#8dd3c7" stroke="#8dd3c7" points="572.52,-580.5 471.73,-580.5 471.73,-493.5 572.52,-493.5 572.52,-580.5"/>
<text text-anchor="middle" x="522.12" y="-563.2" font-family="Arial" font-size="14.00">CEM5202</text>
<text text-anchor="middle" x="522.12" y="-531.45" font-family="Arial" font-size="14.00">Fisica p/o</text>
<text text-anchor="middle" x="522.12" y="-515.7" font-family="Arial" font-size="14.00">Ensino de</text>
<text text-anchor="middle" x="522.12" y="-499.95" font-family="Arial" font-size="14.00">Ciencias II</text>
</g>
<!-- CEM5812&#45;&gt;CEM5202 -->
<!-- CEM5313 -->
<g id="node27" class="node">
<title>CEM5313</title>
<polygon fill="#8dd3c7" stroke="#8dd3c7" points="574,-475.75 470.25,-475.75 470.25,-420.25 574,-420.25 574,-475.75"/>
<text text-anchor="middle" x="522.12" y="-458.45" font-family="Arial" font-size="14.00">CEM5313</text>
<text text-anchor="middle" x="522.12" y="-426.7" font-family="Arial" font-size="14.00">Algebra Linear</text>
</g>
<!-- CEM5812&#45;&gt;CEM5313 -->
<!-- CEM5405 -->
<g id="node28" class="node">
<title>CEM5405</title>
<polygon fill="#8dd3c7" stroke="#8dd3c7" points="580,-402.62 464.25,-402.62 464.25,-331.38 580,-331.38 580,-402.62"/>
<text text-anchor="middle" x="522.12" y="-385.32" font-family="Arial" font-size="14.00">CEM5405</text>
<text text-anchor="middle" x="522.12" y="-353.57" font-family="Arial" font-size="14.00">Quimica Geral e</text>
<text text-anchor="middle" x="522.12" y="-337.82" font-family="Arial" font-size="14.00">Inorganica</text>
</g>
<!-- CEM5812&#45;&gt;CEM5405 -->
<!-- CEM5410 -->
<g id="node29" class="node">
<title>CEM5410</title>
<polygon fill="#8dd3c7" stroke="#8dd3c7" points="580,-313.62 464.25,-313.62 464.25,-242.38 580,-242.38 580,-313.62"/>
<text text-anchor="middle" x="522.12" y="-296.32" font-family="Arial" font-size="14.00">CEM5410</text>
<text text-anchor="middle" x="522.12" y="-264.57" font-family="Arial" font-size="14.00">Quimica</text>
<text text-anchor="middle" x="522.12" y="-248.82" font-family="Arial" font-size="14.00">Organica Basica</text>
</g>
<!-- CEM5812&#45;&gt;CEM5410 -->
<!-- CEM5516 -->
<g id="node30" class="node">
<title>CEM5516</title>
<polygon fill="#8dd3c7" stroke="#8dd3c7" points="573.62,-224.5 470.62,-224.5 470.62,-137.5 573.62,-137.5 573.62,-224.5"/>
<text text-anchor="middle" x="522.12" y="-207.2" font-family="Arial" font-size="14.00">CEM5516</text>
<text text-anchor="middle" x="522.12" y="-175.45" font-family="Arial" font-size="14.00">Metod. Ensino</text>
<text text-anchor="middle" x="522.12" y="-159.7" font-family="Arial" font-size="14.00">de Ciencias e</text>
<text text-anchor="middle" x="522.12" y="-143.95" font-family="Arial" font-size="14.00">Mat.</text>
</g>
<!-- CEM5812&#45;&gt;CEM5516 -->
<!-- CEM5804 -->
<g id="node31" class="node">
<title>CEM5804</title>
<polygon fill="#8dd3c7" stroke="#8dd3c7" points="578.5,-119.5 465.75,-119.5 465.75,-32.5 578.5,-32.5 578.5,-119.5"/>
<text text-anchor="middle" x="522.12" y="-102.2" font-family="Arial" font-size="14.00">CEM5804</text>
<text text-anchor="middle" x="522.12" y="-70.45" font-family="Arial" font-size="14.00">Zoologia para o</text>
<text text-anchor="middle" x="522.12" y="-54.7" font-family="Arial" font-size="14.00">Ensino Ciencias</text>
<text text-anchor="middle" x="522.12" y="-38.95" font-family="Arial" font-size="14.00">III</text>
</g>
<!-- CEM5812&#45;&gt;CEM5804 -->
<!-- CEM5203 -->
<g id="node32" class="node">
<title>CEM5203</title>
<polygon fill="#8dd3c7" stroke="#8dd3c7" points="728.75,-588.5 616,-588.5 616,-501.5 728.75,-501.5 728.75,-588.5"/>
<text text-anchor="middle" x="672.38" y="-571.2" font-family="Arial" font-size="14.00">CEM5203</text>
<text text-anchor="middle" x="672.38" y="-539.45" font-family="Arial" font-size="14.00">Fisica p/ O</text>
<text text-anchor="middle" x="672.38" y="-523.7" font-family="Arial" font-size="14.00">Ensino Ciencias</text>
<text text-anchor="middle" x="672.38" y="-507.95" font-family="Arial" font-size="14.00">III</text>
</g>
<!-- CEM5804&#45;&gt;CEM5203 -->
<!-- CEM5325 -->
<g id="node33" class="node">
<title>CEM5325</title>
<polygon fill="#8dd3c7" stroke="#8dd3c7" points="722.77,-483.5 621.98,-483.5 621.98,-396.5 722.77,-396.5 722.77,-483.5"/>
<text text-anchor="middle" x="672.38" y="-466.2" font-family="Arial" font-size="14.00">CEM5325</text>
<text text-anchor="middle" x="672.38" y="-434.45" font-family="Arial" font-size="14.00">Calculos</text>
<text text-anchor="middle" x="672.38" y="-418.7" font-family="Arial" font-size="14.00">Diferencial e</text>
<text text-anchor="middle" x="672.38" y="-402.95" font-family="Arial" font-size="14.00">Integral</text>
</g>
<!-- CEM5804&#45;&gt;CEM5325 -->
<!-- CEM5402 -->
<g id="node34" class="node">
<title>CEM5402</title>
<polygon fill="#8dd3c7" stroke="#8dd3c7" points="722.77,-378.62 621.98,-378.62 621.98,-307.38 722.77,-307.38 722.77,-378.62"/>
<text text-anchor="middle" x="672.38" y="-361.32" font-family="Arial" font-size="14.00">CEM5402</text>
<text text-anchor="middle" x="672.38" y="-329.57" font-family="Arial" font-size="14.00">Quimica</text>
<text text-anchor="middle" x="672.38" y="-313.82" font-family="Arial" font-size="14.00">Biologica</text>
</g>
<!-- CEM5804&#45;&gt;CEM5402 -->
<!-- CEM5504 -->
<g id="node35" class="node">
<title>CEM5504</title>
<polygon fill="#8dd3c7" stroke="#8dd3c7" points="725.75,-289.5 619,-289.5 619,-202.5 725.75,-202.5 725.75,-289.5"/>
<text text-anchor="middle" x="672.38" y="-272.2" font-family="Arial" font-size="14.00">CEM5504</text>
<text text-anchor="middle" x="672.38" y="-240.45" font-family="Arial" font-size="14.00">Instrument p/</text>
<text text-anchor="middle" x="672.38" y="-224.7" font-family="Arial" font-size="14.00">Ensino Cienc e</text>
<text text-anchor="middle" x="672.38" y="-208.95" font-family="Arial" font-size="14.00">Mat</text>
</g>
<!-- CEM5804&#45;&gt;CEM5504 -->
<!-- CEM5603 -->
<g id="node36" class="node">
<title>CEM5603</title>
<polygon fill="#8dd3c7" stroke="#8dd3c7" points="722.77,-184.62 621.98,-184.62 621.98,-113.38 722.77,-113.38 722.77,-184.62"/>
<text text-anchor="middle" x="672.38" y="-167.32" font-family="Arial" font-size="14.00">CEM5603</text>
<text text-anchor="middle" x="672.38" y="-135.57" font-family="Arial" font-size="14.00">Filosofia da</text>
<text text-anchor="middle" x="672.38" y="-119.83" font-family="Arial" font-size="14.00">Educacao</text>
</g>
<!-- CEM5804&#45;&gt;CEM5603 -->
<!-- CEM5821 -->
<g id="node37" class="node">
<title>CEM5821</title>
<polygon fill="#8dd3c7" stroke="#8dd3c7" points="722.77,-95.62 621.98,-95.62 621.98,-24.38 722.77,-24.38 722.77,-95.62"/>
<text text-anchor="middle" x="672.38" y="-78.33" font-family="Arial" font-size="14.00">CEM5821</text>
<text text-anchor="middle" x="672.38" y="-46.58" font-family="Arial" font-size="14.00">Genetica e</text>
<text text-anchor="middle" x="672.38" y="-30.82" font-family="Arial" font-size="14.00">Evolucao I</text>
</g>
<!-- CEM5804&#45;&gt;CEM5821 -->
<!-- CEM5502 -->
<g id="node38" class="node">
<title>CEM5502</title>
<polygon fill="#8dd3c7" stroke="#8dd3c7" points="871.5,-572.5 765.5,-572.5 765.5,-485.5 871.5,-485.5 871.5,-572.5"/>
<text text-anchor="middle" x="818.5" y="-555.2" font-family="Arial" font-size="14.00">CEM5502</text>
<text text-anchor="middle" x="818.5" y="-523.45" font-family="Arial" font-size="14.00">Instr II</text>
<text text-anchor="middle" x="818.5" y="-507.7" font-family="Arial" font-size="14.00">p/ensino</text>
<text text-anchor="middle" x="818.5" y="-491.95" font-family="Arial" font-size="14.00">Ciencias e Mat</text>
</g>
<!-- CEM5821&#45;&gt;CEM5502 -->
<!-- CEM5523 -->
<g id="node39" class="node">
<title>CEM5523</title>
<polygon fill="#8dd3c7" stroke="#8dd3c7" points="872.25,-467.5 764.75,-467.5 764.75,-380.5 872.25,-380.5 872.25,-467.5"/>
<text text-anchor="middle" x="818.5" y="-450.2" font-family="Arial" font-size="14.00">CEM5523</text>
<text text-anchor="middle" x="818.5" y="-418.45" font-family="Arial" font-size="14.00">Pratica Ensino</text>
<text text-anchor="middle" x="818.5" y="-402.7" font-family="Arial" font-size="14.00">de Cienc e Mat</text>
<text text-anchor="middle" x="818.5" y="-386.95" font-family="Arial" font-size="14.00">I</text>
</g>
<!-- CEM5821&#45;&gt;CEM5523 -->
<!-- CEM5808 -->
<g id="node40" class="node">
<title>CEM5808</title>
<polygon fill="#8dd3c7" stroke="#8dd3c7" points="868.9,-362.75 768.1,-362.75 768.1,-307.25 868.9,-307.25 868.9,-362.75"/>
<text text-anchor="middle" x="818.5" y="-345.45" font-family="Arial" font-size="14.00">CEM5808</text>
<text text-anchor="middle" x="818.5" y="-313.7" font-family="Arial" font-size="14.00">Ecologia II</text>
</g>
<!-- CEM5821&#45;&gt;CEM5808 -->
<!-- CEM5815 -->
<g id="node41" class="node">
<title>CEM5815</title>
<polygon fill="#8dd3c7" stroke="#8dd3c7" points="871.88,-289.62 765.12,-289.62 765.12,-218.38 871.88,-218.38 871.88,-289.62"/>
<text text-anchor="middle" x="818.5" y="-272.32" font-family="Arial" font-size="14.00">CEM5815</text>
<text text-anchor="middle" x="818.5" y="-240.57" font-family="Arial" font-size="14.00">Programa para</text>
<text text-anchor="middle" x="818.5" y="-224.82" font-family="Arial" font-size="14.00">Saude</text>
</g>
<!-- CEM5821&#45;&gt;CEM5815 -->
<!-- CEM5822 -->
<g id="node42" class="node">
<title>CEM5822</title>
<polygon fill="#8dd3c7" stroke="#8dd3c7" points="868.9,-200.62 768.1,-200.62 768.1,-129.38 868.9,-129.38 868.9,-200.62"/>
<text text-anchor="middle" x="818.5" y="-183.32" font-family="Arial" font-size="14.00">CEM5822</text>
<text text-anchor="middle" x="818.5" y="-151.57" font-family="Arial" font-size="14.00">Genetica e</text>
<text text-anchor="middle" x="818.5" y="-135.82" font-family="Arial" font-size="14.00">Evolucao II</text>
</g>
<!-- CEM5821&#45;&gt;CEM5822 -->
<!-- CEM5905 -->
<g id="node43" class="node">
<title>CEM5905</title>
<polygon fill="#8dd3c7" stroke="#8dd3c7" points="868.9,-111.5 768.1,-111.5 768.1,-24.5 868.9,-24.5 868.9,-111.5"/>
<text text-anchor="middle" x="818.5" y="-94.2" font-family="Arial" font-size="14.00">CEM5905</text>
<text text-anchor="middle" x="818.5" y="-62.45" font-family="Arial" font-size="14.00">Laboratorios</text>
<text text-anchor="middle" x="818.5" y="-46.7" font-family="Arial" font-size="14.00">Integrado e</text>
<text text-anchor="middle" x="818.5" y="-30.95" font-family="Arial" font-size="14.00">Eventos</text>
</g>
<!-- CEM5821&#45;&gt;CEM5905 -->
<!-- CEM5524 -->
<g id="node44" class="node">
<title>CEM5524</title>
<polygon fill="#8dd3c7" stroke="#8dd3c7" points="1017.62,-572.5 910.12,-572.5 910.12,-485.5 1017.62,-485.5 1017.62,-572.5"/>
<text text-anchor="middle" x="963.88" y="-555.2" font-family="Arial" font-size="14.00">CEM5524</text>
<text text-anchor="middle" x="963.88" y="-523.45" font-family="Arial" font-size="14.00">Pratica Ensino</text>
<text text-anchor="middle" x="963.88" y="-507.7" font-family="Arial" font-size="14.00">de Cienc e Mat</text>
<text text-anchor="middle" x="963.88" y="-491.95" font-family="Arial" font-size="14.00">II</text>
</g>
<!-- CEM5905&#45;&gt;CEM5524 -->
<!-- CEM5610 -->
<g id="node45" class="node">
<title>CEM5610</title>
<polygon fill="#8dd3c7" stroke="#8dd3c7" points="1014.27,-467.62 913.48,-467.62 913.48,-396.38 1014.27,-396.38 1014.27,-467.62"/>
<text text-anchor="middle" x="963.88" y="-450.32" font-family="Arial" font-size="14.00">CEM5610</text>
<text text-anchor="middle" x="963.88" y="-418.57" font-family="Arial" font-size="14.00">Sociologia da</text>
<text text-anchor="middle" x="963.88" y="-402.82" font-family="Arial" font-size="14.00">Educacao</text>
</g>
<!-- CEM5905&#45;&gt;CEM5610 -->
<!-- CEM5620 -->
<g id="node46" class="node">
<title>CEM5620</title>
<polygon fill="#8dd3c7" stroke="#8dd3c7" points="1017.25,-378.5 910.5,-378.5 910.5,-291.5 1017.25,-291.5 1017.25,-378.5"/>
<text text-anchor="middle" x="963.88" y="-361.2" font-family="Arial" font-size="14.00">CEM5620</text>
<text text-anchor="middle" x="963.88" y="-329.45" font-family="Arial" font-size="14.00">Evolucao e</text>
<text text-anchor="middle" x="963.88" y="-313.7" font-family="Arial" font-size="14.00">Hist.da Ciencia</text>
<text text-anchor="middle" x="963.88" y="-297.95" font-family="Arial" font-size="14.00">e Tec</text>
</g>
<!-- CEM5905&#45;&gt;CEM5620 -->
<!-- CEM5621 -->
<g id="node47" class="node">
<title>CEM5621</title>
<polygon fill="#8dd3c7" stroke="#8dd3c7" points="1019.5,-273.5 908.25,-273.5 908.25,-186.5 1019.5,-186.5 1019.5,-273.5"/>
<text text-anchor="middle" x="963.88" y="-256.2" font-family="Arial" font-size="14.00">CEM5621</text>
<text text-anchor="middle" x="963.88" y="-224.45" font-family="Arial" font-size="14.00">Topicos</text>
<text text-anchor="middle" x="963.88" y="-208.7" font-family="Arial" font-size="14.00">Modernos</text>
<text text-anchor="middle" x="963.88" y="-192.95" font-family="Arial" font-size="14.00">Ciencias e Tecn</text>
</g>
<!-- CEM5905&#45;&gt;CEM5621 -->
<!-- CEM5903 -->
<g id="node48" class="node">
<title>CEM5903</title>
<polygon fill="#8dd3c7" stroke="#8dd3c7" points="1014.27,-168.62 913.48,-168.62 913.48,-97.38 1014.27,-97.38 1014.27,-168.62"/>
<text text-anchor="middle" x="963.88" y="-151.32" font-family="Arial" font-size="14.00">CEM5903</text>
<text text-anchor="middle" x="963.88" y="-119.58" font-family="Arial" font-size="14.00">Projetos e</text>
<text text-anchor="middle" x="963.88" y="-103.83" font-family="Arial" font-size="14.00">Seminarios</text>
</g>
<!-- CEM5905&#45;&gt;CEM5903 -->
<!-- CEM5911 -->
<g id="node49" class="node">
<title>CEM5911</title>
<polygon fill="#8dd3c7" stroke="#8dd3c7" points="1014.27,-79.75 913.48,-79.75 913.48,-24.25 1014.27,-24.25 1014.27,-79.75"/>
<text text-anchor="middle" x="963.88" y="-62.45" font-family="Arial" font-size="14.00">CEM5911</text>
<text text-anchor="middle" x="963.88" y="-30.7" font-family="Arial" font-size="14.00">Monografia</text>
</g>
<!-- CEM5905&#45;&gt;CEM5911 -->
</g>
</svg>
