<?xml version="1.0" encoding="UTF-8" standalone="no"?>
<!DOCTYPE svg PUBLIC "-//W3C//DTD SVG 1.1//EN"
 "http://www.w3.org/Graphics/SVG/1.1/DTD/svg11.dtd">
<!-- Generated by graphviz version 9.0.0 (0)
 -->
<!-- Title: grafo_materias Pages: 1 -->
<svg width="1058pt" height="770pt"
 viewBox="0.00 0.00 1057.50 770.00" xmlns="http://www.w3.org/2000/svg" xmlns:xlink="http://www.w3.org/1999/xlink">
<g id="graph0" class="graph" transform="scale(1 1) rotate(0) translate(4 766)">
<title>grafo_materias</title>
<polygon fill="none" stroke="none" points="-4,4 -4,-766 1053.5,-766 1053.5,4 -4,4"/>
<g id="clust1" class="cluster">
<title>cluster_everything</title>
<polygon fill="none" stroke="none" points="8,-8 8,-754 1041.5,-754 1041.5,-8 8,-8"/>
</g>
<g id="clust2" class="cluster">
<title>cluster_header</title>
<polygon fill="none" stroke="none" points="24.6,-694 24.6,-746 1028.28,-746 1028.28,-694 24.6,-694"/>
</g>
<g id="clust3" class="cluster">
<title>cluster_0</title>
<polygon fill="none" stroke="none" points="16,-16 16,-533 150,-533 150,-16 16,-16"/>
</g>
<g id="clust4" class="cluster">
<title>cluster_1</title>
<polygon fill="none" stroke="none" points="170,-153 170,-686 290.5,-686 290.5,-153 170,-153"/>
</g>
<g id="clust5" class="cluster">
<title>cluster_2</title>
<polygon fill="none" stroke="none" points="310.5,-149 310.5,-666 436.25,-666 436.25,-149 310.5,-149"/>
</g>
<g id="clust6" class="cluster">
<title>cluster_3</title>
<polygon fill="none" stroke="none" points="456.25,-109 456.25,-674 588,-674 588,-109 456.25,-109"/>
</g>
<g id="clust7" class="cluster">
<title>cluster_4</title>
<polygon fill="none" stroke="none" points="608,-105 608,-686 736.75,-686 736.75,-105 608,-105"/>
</g>
<g id="clust8" class="cluster">
<title>cluster_5</title>
<polygon fill="none" stroke="none" points="756.75,-16 756.75,-686 886.25,-686 886.25,-16 756.75,-16"/>
</g>
<g id="clust9" class="cluster">
<title>cluster_6</title>
<polygon fill="none" stroke="none" points="906.25,-16 906.25,-581 1033.5,-581 1033.5,-16 906.25,-16"/>
</g>
<!-- Fase 02 -->
<g id="node1" class="node">
<title>Fase 02</title>
<polygon fill="lightgrey" stroke="black" points="133.4,-738 32.6,-738 32.6,-702 133.4,-702 133.4,-738"/>
<text text-anchor="middle" x="83" y="-714.58" font-family="Arial" font-size="14.00">Fase 02</text>
</g>
<!-- Fase 03 -->
<g id="node2" class="node">
<title>Fase 03</title>
<polygon fill="lightgrey" stroke="black" points="280.65,-738 179.85,-738 179.85,-702 280.65,-702 280.65,-738"/>
<text text-anchor="middle" x="230.25" y="-714.58" font-family="Arial" font-size="14.00">Fase 03</text>
</g>
<!-- Fase 02&#45;&gt;Fase 03 -->
<!-- Fase 04 -->
<g id="node3" class="node">
<title>Fase 04</title>
<polygon fill="lightgrey" stroke="black" points="423.77,-738 322.98,-738 322.98,-702 423.77,-702 423.77,-738"/>
<text text-anchor="middle" x="373.38" y="-714.58" font-family="Arial" font-size="14.00">Fase 04</text>
</g>
<!-- Fase 03&#45;&gt;Fase 04 -->
<!-- Fase 05 -->
<g id="node4" class="node">
<title>Fase 05</title>
<polygon fill="lightgrey" stroke="black" points="572.52,-738 471.73,-738 471.73,-702 572.52,-702 572.52,-738"/>
<text text-anchor="middle" x="522.12" y="-714.58" font-family="Arial" font-size="14.00">Fase 05</text>
</g>
<!-- Fase 04&#45;&gt;Fase 05 -->
<!-- Fase 06 -->
<g id="node5" class="node">
<title>Fase 06</title>
<polygon fill="lightgrey" stroke="black" points="722.77,-738 621.98,-738 621.98,-702 722.77,-702 722.77,-738"/>
<text text-anchor="middle" x="672.38" y="-714.58" font-family="Arial" font-size="14.00">Fase 06</text>
</g>
<!-- Fase 05&#45;&gt;Fase 06 -->
<!-- Fase 07 -->
<g id="node6" class="node">
<title>Fase 07</title>
<polygon fill="lightgrey" stroke="black" points="871.9,-738 771.1,-738 771.1,-702 871.9,-702 871.9,-738"/>
<text text-anchor="middle" x="821.5" y="-714.58" font-family="Arial" font-size="14.00">Fase 07</text>
</g>
<!-- Fase 06&#45;&gt;Fase 07 -->
<!-- Fase 08 -->
<g id="node7" class="node">
<title>Fase 08</title>
<polygon fill="lightgrey" stroke="black" points="1020.27,-738 919.48,-738 919.48,-702 1020.27,-702 1020.27,-738"/>
<text text-anchor="middle" x="969.88" y="-714.58" font-family="Arial" font-size="14.00">Fase 08</text>
</g>
<!-- Fase 07&#45;&gt;Fase 08 -->
<!-- CEM5104 -->
<g id="node8" class="node">
<title>CEM5104</title>
<polygon fill="#8dd3c7" stroke="#8dd3c7" points="133.4,-524.75 32.6,-524.75 32.6,-469.25 133.4,-469.25 133.4,-524.75"/>
<text text-anchor="middle" x="83" y="-507.45" font-family="Arial" font-size="14.00">CEM5104</text>
<text text-anchor="middle" x="83" y="-475.7" font-family="Arial" font-size="14.00">Portugues II</text>
</g>
<!-- CEM5200 -->
<g id="node14" class="node">
<title>CEM5200</title>
<polygon fill="#8dd3c7" stroke="#8dd3c7" points="280.65,-677.5 179.85,-677.5 179.85,-590.5 280.65,-590.5 280.65,-677.5"/>
<text text-anchor="middle" x="230.25" y="-660.2" font-family="Arial" font-size="14.00">CEM5200</text>
<text text-anchor="middle" x="230.25" y="-628.45" font-family="Arial" font-size="14.00">Fisica para</text>
<text text-anchor="middle" x="230.25" y="-612.7" font-family="Arial" font-size="14.00">Ensino de</text>
<text text-anchor="middle" x="230.25" y="-596.95" font-family="Arial" font-size="14.00">Ciencias I</text>
</g>
<!-- CEM5104&#45;&gt;CEM5200 -->
<!-- CEM5306 -->
<g id="node15" class="node">
<title>CEM5306</title>
<polygon fill="#8dd3c7" stroke="#8dd3c7" points="280.65,-572.62 179.85,-572.62 179.85,-501.38 280.65,-501.38 280.65,-572.62"/>
<text text-anchor="middle" x="230.25" y="-555.33" font-family="Arial" font-size="14.00">CEM5306</text>
<text text-anchor="middle" x="230.25" y="-523.58" font-family="Arial" font-size="14.00">Matematica</text>
<text text-anchor="middle" x="230.25" y="-507.82" font-family="Arial" font-size="14.00">Elementar III</text>
</g>
<!-- CEM5104&#45;&gt;CEM5306 -->
<!-- CEM5315 -->
<g id="node16" class="node">
<title>CEM5315</title>
<polygon fill="#8dd3c7" stroke="#8dd3c7" points="280.65,-483.62 179.85,-483.62 179.85,-412.38 280.65,-412.38 280.65,-483.62"/>
<text text-anchor="middle" x="230.25" y="-466.32" font-family="Arial" font-size="14.00">CEM5315</text>
<text text-anchor="middle" x="230.25" y="-434.57" font-family="Arial" font-size="14.00">Geometria</text>
<text text-anchor="middle" x="230.25" y="-418.82" font-family="Arial" font-size="14.00">Analitica</text>
</g>
<!-- CEM5104&#45;&gt;CEM5315 -->
<!-- CEM5321 -->
<g id="node17" class="node">
<title>CEM5321</title>
<polygon fill="#8dd3c7" stroke="#8dd3c7" points="281.38,-394.62 179.12,-394.62 179.12,-323.38 281.38,-323.38 281.38,-394.62"/>
<text text-anchor="middle" x="230.25" y="-377.32" font-family="Arial" font-size="14.00">CEM5321</text>
<text text-anchor="middle" x="230.25" y="-345.57" font-family="Arial" font-size="14.00">Informatica na</text>
<text text-anchor="middle" x="230.25" y="-329.82" font-family="Arial" font-size="14.00">Educacao</text>
</g>
<!-- CEM5104&#45;&gt;CEM5321 -->
<!-- CEM5401 -->
<g id="node18" class="node">
<title>CEM5401</title>
<polygon fill="#8dd3c7" stroke="#8dd3c7" points="282.5,-305.75 178,-305.75 178,-250.25 282.5,-250.25 282.5,-305.75"/>
<text text-anchor="middle" x="230.25" y="-288.45" font-family="Arial" font-size="14.00">CEM5401</text>
<text text-anchor="middle" x="230.25" y="-256.7" font-family="Arial" font-size="14.00">Quimica Geral</text>
</g>
<!-- CEM5104&#45;&gt;CEM5401 -->
<!-- CEM5701 -->
<g id="node19" class="node">
<title>CEM5701</title>
<polygon fill="#8dd3c7" stroke="#8dd3c7" points="280.65,-232.62 179.85,-232.62 179.85,-161.38 280.65,-161.38 280.65,-232.62"/>
<text text-anchor="middle" x="230.25" y="-215.32" font-family="Arial" font-size="14.00">CEM5701</text>
<text text-anchor="middle" x="230.25" y="-183.57" font-family="Arial" font-size="14.00">Elementos de</text>
<text text-anchor="middle" x="230.25" y="-167.82" font-family="Arial" font-size="14.00">Geologia</text>
</g>
<!-- CEM5104&#45;&gt;CEM5701 -->
<!-- CEM5302 -->
<g id="node9" class="node">
<title>CEM5302</title>
<polygon fill="#8dd3c7" stroke="#8dd3c7" points="133.4,-451.62 32.6,-451.62 32.6,-380.38 133.4,-380.38 133.4,-451.62"/>
<text text-anchor="middle" x="83" y="-434.32" font-family="Arial" font-size="14.00">CEM5302</text>
<text text-anchor="middle" x="83" y="-402.57" font-family="Arial" font-size="14.00">Matematica</text>
<text text-anchor="middle" x="83" y="-386.82" font-family="Arial" font-size="14.00">Elementar II</text>
</g>
<!-- CEM5309 -->
<g id="node10" class="node">
<title>CEM5309</title>
<polygon fill="#8dd3c7" stroke="#8dd3c7" points="142,-362.62 24,-362.62 24,-291.38 142,-291.38 142,-362.62"/>
<text text-anchor="middle" x="83" y="-345.32" font-family="Arial" font-size="14.00">CEM5309</text>
<text text-anchor="middle" x="83" y="-313.57" font-family="Arial" font-size="14.00">Fundamentos de</text>
<text text-anchor="middle" x="83" y="-297.82" font-family="Arial" font-size="14.00">Matematica II</text>
</g>
<!-- CEM5606 -->
<g id="node11" class="node">
<title>CEM5606</title>
<polygon fill="#8dd3c7" stroke="#8dd3c7" points="134.88,-273.62 31.12,-273.62 31.12,-202.38 134.88,-202.38 134.88,-273.62"/>
<text text-anchor="middle" x="83" y="-256.32" font-family="Arial" font-size="14.00">CEM5606</text>
<text text-anchor="middle" x="83" y="-224.57" font-family="Arial" font-size="14.00">Psicologia da</text>
<text text-anchor="middle" x="83" y="-208.82" font-family="Arial" font-size="14.00">Aprendizagem</text>
</g>
<!-- CEM5801 -->
<g id="node12" class="node">
<title>CEM5801</title>
<polygon fill="#8dd3c7" stroke="#8dd3c7" points="137.88,-184.5 28.13,-184.5 28.13,-97.5 137.88,-97.5 137.88,-184.5"/>
<text text-anchor="middle" x="83" y="-167.2" font-family="Arial" font-size="14.00">CEM5801</text>
<text text-anchor="middle" x="83" y="-135.45" font-family="Arial" font-size="14.00">Zoologia para o</text>
<text text-anchor="middle" x="83" y="-119.7" font-family="Arial" font-size="14.00">Ensino de</text>
<text text-anchor="middle" x="83" y="-103.95" font-family="Arial" font-size="14.00">Ciencia I</text>
</g>
<!-- CEM5811 -->
<g id="node13" class="node">
<title>CEM5811</title>
<polygon fill="#8dd3c7" stroke="#8dd3c7" points="133.4,-79.75 32.6,-79.75 32.6,-24.25 133.4,-24.25 133.4,-79.75"/>
<text text-anchor="middle" x="83" y="-62.45" font-family="Arial" font-size="14.00">CEM5811</text>
<text text-anchor="middle" x="83" y="-30.7" font-family="Arial" font-size="14.00">Botanica I</text>
</g>
<!-- CEM5307 -->
<g id="node20" class="node">
<title>CEM5307</title>
<polygon fill="#8dd3c7" stroke="#8dd3c7" points="423.77,-657.62 322.98,-657.62 322.98,-586.38 423.77,-586.38 423.77,-657.62"/>
<text text-anchor="middle" x="373.38" y="-640.33" font-family="Arial" font-size="14.00">CEM5307</text>
<text text-anchor="middle" x="373.38" y="-608.58" font-family="Arial" font-size="14.00">Matematica</text>
<text text-anchor="middle" x="373.38" y="-592.83" font-family="Arial" font-size="14.00">Elementar IV</text>
</g>
<!-- CEM5701&#45;&gt;CEM5307 -->
<!-- CEM5311 -->
<g id="node21" class="node">
<title>CEM5311</title>
<polygon fill="#8dd3c7" stroke="#8dd3c7" points="423.77,-568.62 322.98,-568.62 322.98,-497.38 423.77,-497.38 423.77,-568.62"/>
<text text-anchor="middle" x="373.38" y="-551.33" font-family="Arial" font-size="14.00">CEM5311</text>
<text text-anchor="middle" x="373.38" y="-519.58" font-family="Arial" font-size="14.00">Topicos de</text>
<text text-anchor="middle" x="373.38" y="-503.82" font-family="Arial" font-size="14.00">Algebra</text>
</g>
<!-- CEM5701&#45;&gt;CEM5311 -->
<!-- CEM5320 -->
<g id="node22" class="node">
<title>CEM5320</title>
<polygon fill="#8dd3c7" stroke="#8dd3c7" points="423.77,-479.62 322.98,-479.62 322.98,-408.38 423.77,-408.38 423.77,-479.62"/>
<text text-anchor="middle" x="373.38" y="-462.32" font-family="Arial" font-size="14.00">CEM5320</text>
<text text-anchor="middle" x="373.38" y="-430.57" font-family="Arial" font-size="14.00">Matematica</text>
<text text-anchor="middle" x="373.38" y="-414.82" font-family="Arial" font-size="14.00">Estatistica</text>
</g>
<!-- CEM5701&#45;&gt;CEM5320 -->
<!-- CEM5506 -->
<g id="node23" class="node">
<title>CEM5506</title>
<polygon fill="#8dd3c7" stroke="#8dd3c7" points="423.77,-390.75 322.98,-390.75 322.98,-335.25 423.77,-335.25 423.77,-390.75"/>
<text text-anchor="middle" x="373.38" y="-373.45" font-family="Arial" font-size="14.00">CEM5506</text>
<text text-anchor="middle" x="373.38" y="-341.7" font-family="Arial" font-size="14.00">Didática</text>
</g>
<!-- CEM5701&#45;&gt;CEM5506 -->
<!-- CEM5803 -->
<g id="node24" class="node">
<title>CEM5803</title>
<polygon fill="#8dd3c7" stroke="#8dd3c7" points="428.25,-317.5 318.5,-317.5 318.5,-230.5 428.25,-230.5 428.25,-317.5"/>
<text text-anchor="middle" x="373.38" y="-300.2" font-family="Arial" font-size="14.00">CEM5803</text>
<text text-anchor="middle" x="373.38" y="-268.45" font-family="Arial" font-size="14.00">Zoologia para o</text>
<text text-anchor="middle" x="373.38" y="-252.7" font-family="Arial" font-size="14.00">Ensino de</text>
<text text-anchor="middle" x="373.38" y="-236.95" font-family="Arial" font-size="14.00">Ciencias II</text>
</g>
<!-- CEM5701&#45;&gt;CEM5803 -->
<!-- CEM5812 -->
<g id="node25" class="node">
<title>CEM5812</title>
<polygon fill="#8dd3c7" stroke="#8dd3c7" points="423.77,-212.75 322.98,-212.75 322.98,-157.25 423.77,-157.25 423.77,-212.75"/>
<text text-anchor="middle" x="373.38" y="-195.45" font-family="Arial" font-size="14.00">CEM5812</text>
<text text-anchor="middle" x="373.38" y="-163.7" font-family="Arial" font-size="14.00">Botanica II</text>
</g>
<!-- CEM5701&#45;&gt;CEM5812 -->
<!-- CEM5202 -->
<g id="node26" class="node">
<title>CEM5202</title>
<polygon fill="#8dd3c7" stroke="#8dd3c7" points="572.52,-665.5 471.73,-665.5 471.73,-578.5 572.52,-578.5 572.52,-665.5"/>
<text text-anchor="middle" x="522.12" y="-648.2" font-family="Arial" font-size="14.00">CEM5202</text>
<text text-anchor="middle" x="522.12" y="-616.45" font-family="Arial" font-size="14.00">Fisica p/o</text>
<text text-anchor="middle" x="522.12" y="-600.7" font-family="Arial" font-size="14.00">Ensino de</text>
<text text-anchor="middle" x="522.12" y="-584.95" font-family="Arial" font-size="14.00">Ciencias II</text>
</g>
<!-- CEM5812&#45;&gt;CEM5202 -->
<!-- CEM5313 -->
<g id="node27" class="node">
<title>CEM5313</title>
<polygon fill="#8dd3c7" stroke="#8dd3c7" points="574,-560.75 470.25,-560.75 470.25,-505.25 574,-505.25 574,-560.75"/>
<text text-anchor="middle" x="522.12" y="-543.45" font-family="Arial" font-size="14.00">CEM5313</text>
<text text-anchor="middle" x="522.12" y="-511.7" font-family="Arial" font-size="14.00">Algebra Linear</text>
</g>
<!-- CEM5812&#45;&gt;CEM5313 -->
<!-- CEM5405 -->
<g id="node28" class="node">
<title>CEM5405</title>
<polygon fill="#8dd3c7" stroke="#8dd3c7" points="580,-487.62 464.25,-487.62 464.25,-416.38 580,-416.38 580,-487.62"/>
<text text-anchor="middle" x="522.12" y="-470.32" font-family="Arial" font-size="14.00">CEM5405</text>
<text text-anchor="middle" x="522.12" y="-438.57" font-family="Arial" font-size="14.00">Quimica Geral e</text>
<text text-anchor="middle" x="522.12" y="-422.82" font-family="Arial" font-size="14.00">Inorganica</text>
</g>
<!-- CEM5812&#45;&gt;CEM5405 -->
<!-- CEM5410 -->
<g id="node29" class="node">
<title>CEM5410</title>
<polygon fill="#8dd3c7" stroke="#8dd3c7" points="580,-398.62 464.25,-398.62 464.25,-327.38 580,-327.38 580,-398.62"/>
<text text-anchor="middle" x="522.12" y="-381.32" font-family="Arial" font-size="14.00">CEM5410</text>
<text text-anchor="middle" x="522.12" y="-349.57" font-family="Arial" font-size="14.00">Quimica</text>
<text text-anchor="middle" x="522.12" y="-333.82" font-family="Arial" font-size="14.00">Organica Basica</text>
</g>
<!-- CEM5812&#45;&gt;CEM5410 -->
<!-- CEM5516 -->
<g id="node30" class="node">
<title>CEM5516</title>
<polygon fill="#8dd3c7" stroke="#8dd3c7" points="573.62,-309.5 470.62,-309.5 470.62,-222.5 573.62,-222.5 573.62,-309.5"/>
<text text-anchor="middle" x="522.12" y="-292.2" font-family="Arial" font-size="14.00">CEM5516</text>
<text text-anchor="middle" x="522.12" y="-260.45" font-family="Arial" font-size="14.00">Metod. Ensino</text>
<text text-anchor="middle" x="522.12" y="-244.7" font-family="Arial" font-size="14.00">de Ciencias e</text>
<text text-anchor="middle" x="522.12" y="-228.95" font-family="Arial" font-size="14.00">Mat.</text>
</g>
<!-- CEM5812&#45;&gt;CEM5516 -->
<!-- CEM5804 -->
<g id="node31" class="node">
<title>CEM5804</title>
<polygon fill="#8dd3c7" stroke="#8dd3c7" points="578.5,-204.5 465.75,-204.5 465.75,-117.5 578.5,-117.5 578.5,-204.5"/>
<text text-anchor="middle" x="522.12" y="-187.2" font-family="Arial" font-size="14.00">CEM5804</text>
<text text-anchor="middle" x="522.12" y="-155.45" font-family="Arial" font-size="14.00">Zoologia para o</text>
<text text-anchor="middle" x="522.12" y="-139.7" font-family="Arial" font-size="14.00">Ensino Ciencias</text>
<text text-anchor="middle" x="522.12" y="-123.95" font-family="Arial" font-size="14.00">III</text>
</g>
<!-- CEM5812&#45;&gt;CEM5804 -->
<!-- CEM5203 -->
<g id="node32" class="node">
<title>CEM5203</title>
<polygon fill="#8dd3c7" stroke="#8dd3c7" points="728.75,-677.5 616,-677.5 616,-590.5 728.75,-590.5 728.75,-677.5"/>
<text text-anchor="middle" x="672.38" y="-660.2" font-family="Arial" font-size="14.00">CEM5203</text>
<text text-anchor="middle" x="672.38" y="-628.45" font-family="Arial" font-size="14.00">Fisica p/ O</text>
<text text-anchor="middle" x="672.38" y="-612.7" font-family="Arial" font-size="14.00">Ensino Ciencias</text>
<text text-anchor="middle" x="672.38" y="-596.95" font-family="Arial" font-size="14.00">III</text>
</g>
<!-- CEM5804&#45;&gt;CEM5203 -->
<!-- CEM5325 -->
<g id="node33" class="node">
<title>CEM5325</title>
<polygon fill="#8dd3c7" stroke="#8dd3c7" points="722.77,-572.5 621.98,-572.5 621.98,-485.5 722.77,-485.5 722.77,-572.5"/>
<text text-anchor="middle" x="672.38" y="-555.2" font-family="Arial" font-size="14.00">CEM5325</text>
<text text-anchor="middle" x="672.38" y="-523.45" font-family="Arial" font-size="14.00">Calculos</text>
<text text-anchor="middle" x="672.38" y="-507.7" font-family="Arial" font-size="14.00">Diferencial e</text>
<text text-anchor="middle" x="672.38" y="-491.95" font-family="Arial" font-size="14.00">Integral</text>
</g>
<!-- CEM5804&#45;&gt;CEM5325 -->
<!-- CEM5402 -->
<g id="node34" class="node">
<title>CEM5402</title>
<polygon fill="#8dd3c7" stroke="#8dd3c7" points="722.77,-467.62 621.98,-467.62 621.98,-396.38 722.77,-396.38 722.77,-467.62"/>
<text text-anchor="middle" x="672.38" y="-450.32" font-family="Arial" font-size="14.00">CEM5402</text>
<text text-anchor="middle" x="672.38" y="-418.57" font-family="Arial" font-size="14.00">Quimica</text>
<text text-anchor="middle" x="672.38" y="-402.82" font-family="Arial" font-size="14.00">Biologica</text>
</g>
<!-- CEM5804&#45;&gt;CEM5402 -->
<!-- CEM5504 -->
<g id="node35" class="node">
<title>CEM5504</title>
<polygon fill="#8dd3c7" stroke="#8dd3c7" points="725.75,-378.5 619,-378.5 619,-291.5 725.75,-291.5 725.75,-378.5"/>
<text text-anchor="middle" x="672.38" y="-361.2" font-family="Arial" font-size="14.00">CEM5504</text>
<text text-anchor="middle" x="672.38" y="-329.45" font-family="Arial" font-size="14.00">Instrument p/</text>
<text text-anchor="middle" x="672.38" y="-313.7" font-family="Arial" font-size="14.00">Ensino Cienc e</text>
<text text-anchor="middle" x="672.38" y="-297.95" font-family="Arial" font-size="14.00">Mat</text>
</g>
<!-- CEM5804&#45;&gt;CEM5504 -->
<!-- CEM5603 -->
<g id="node36" class="node">
<title>CEM5603</title>
<polygon fill="#8dd3c7" stroke="#8dd3c7" points="722.77,-273.62 621.98,-273.62 621.98,-202.38 722.77,-202.38 722.77,-273.62"/>
<text text-anchor="middle" x="672.38" y="-256.32" font-family="Arial" font-size="14.00">CEM5603</text>
<text text-anchor="middle" x="672.38" y="-224.57" font-family="Arial" font-size="14.00">Filosofia da</text>
<text text-anchor="middle" x="672.38" y="-208.82" font-family="Arial" font-size="14.00">Educacao</text>
</g>
<!-- CEM5804&#45;&gt;CEM5603 -->
<!-- CEM5821 -->
<g id="node37" class="node">
<title>CEM5821</title>
<polygon fill="#8dd3c7" stroke="#8dd3c7" points="722.77,-184.62 621.98,-184.62 621.98,-113.38 722.77,-113.38 722.77,-184.62"/>
<text text-anchor="middle" x="672.38" y="-167.32" font-family="Arial" font-size="14.00">CEM5821</text>
<text text-anchor="middle" x="672.38" y="-135.57" font-family="Arial" font-size="14.00">Genetica e</text>
<text text-anchor="middle" x="672.38" y="-119.83" font-family="Arial" font-size="14.00">Evolucao I</text>
</g>
<!-- CEM5804&#45;&gt;CEM5821 -->
<!-- CEM5502 -->
<g id="node38" class="node">
<title>CEM5502</title>
<polygon fill="#8dd3c7" stroke="#8dd3c7" points="874.5,-677.5 768.5,-677.5 768.5,-590.5 874.5,-590.5 874.5,-677.5"/>
<text text-anchor="middle" x="821.5" y="-660.2" font-family="Arial" font-size="14.00">CEM5502</text>
<text text-anchor="middle" x="821.5" y="-628.45" font-family="Arial" font-size="14.00">Instr II</text>
<text text-anchor="middle" x="821.5" y="-612.7" font-family="Arial" font-size="14.00">p/ensino</text>
<text text-anchor="middle" x="821.5" y="-596.95" font-family="Arial" font-size="14.00">Ciencias e Mat</text>
</g>
<!-- CEM5821&#45;&gt;CEM5502 -->
<!-- CEM5520 -->
<g id="node39" class="node">
<title>CEM5520</title>
<polygon fill="#8dd3c7" stroke="#8dd3c7" points="878.25,-572.5 764.75,-572.5 764.75,-485.5 878.25,-485.5 878.25,-572.5"/>
<text text-anchor="middle" x="821.5" y="-555.2" font-family="Arial" font-size="14.00">CEM5520</text>
<text text-anchor="middle" x="821.5" y="-523.45" font-family="Arial" font-size="14.00">Estrutura e</text>
<text text-anchor="middle" x="821.5" y="-507.7" font-family="Arial" font-size="14.00">Func. Ensino de</text>
<text text-anchor="middle" x="821.5" y="-491.95" font-family="Arial" font-size="14.00">1.gr</text>
</g>
<!-- CEM5821&#45;&gt;CEM5520 -->
<!-- CEM5523 -->
<g id="node40" class="node">
<title>CEM5523</title>
<polygon fill="#8dd3c7" stroke="#8dd3c7" points="875.25,-467.5 767.75,-467.5 767.75,-380.5 875.25,-380.5 875.25,-467.5"/>
<text text-anchor="middle" x="821.5" y="-450.2" font-family="Arial" font-size="14.00">CEM5523</text>
<text text-anchor="middle" x="821.5" y="-418.45" font-family="Arial" font-size="14.00">Pratica Ensino</text>
<text text-anchor="middle" x="821.5" y="-402.7" font-family="Arial" font-size="14.00">de Cienc e Mat</text>
<text text-anchor="middle" x="821.5" y="-386.95" font-family="Arial" font-size="14.00">I</text>
</g>
<!-- CEM5821&#45;&gt;CEM5523 -->
<!-- CEM5808 -->
<g id="node41" class="node">
<title>CEM5808</title>
<polygon fill="#8dd3c7" stroke="#8dd3c7" points="871.9,-362.75 771.1,-362.75 771.1,-307.25 871.9,-307.25 871.9,-362.75"/>
<text text-anchor="middle" x="821.5" y="-345.45" font-family="Arial" font-size="14.00">CEM5808</text>
<text text-anchor="middle" x="821.5" y="-313.7" font-family="Arial" font-size="14.00">Ecologia II</text>
</g>
<!-- CEM5821&#45;&gt;CEM5808 -->
<!-- CEM5815 -->
<g id="node42" class="node">
<title>CEM5815</title>
<polygon fill="#8dd3c7" stroke="#8dd3c7" points="874.88,-289.62 768.12,-289.62 768.12,-218.38 874.88,-218.38 874.88,-289.62"/>
<text text-anchor="middle" x="821.5" y="-272.32" font-family="Arial" font-size="14.00">CEM5815</text>
<text text-anchor="middle" x="821.5" y="-240.57" font-family="Arial" font-size="14.00">Programa para</text>
<text text-anchor="middle" x="821.5" y="-224.82" font-family="Arial" font-size="14.00">Saude</text>
</g>
<!-- CEM5821&#45;&gt;CEM5815 -->
<!-- CEM5822 -->
<g id="node43" class="node">
<title>CEM5822</title>
<polygon fill="#8dd3c7" stroke="#8dd3c7" points="871.9,-200.62 771.1,-200.62 771.1,-129.38 871.9,-129.38 871.9,-200.62"/>
<text text-anchor="middle" x="821.5" y="-183.32" font-family="Arial" font-size="14.00">CEM5822</text>
<text text-anchor="middle" x="821.5" y="-151.57" font-family="Arial" font-size="14.00">Genetica e</text>
<text text-anchor="middle" x="821.5" y="-135.82" font-family="Arial" font-size="14.00">Evolucao II</text>
</g>
<!-- CEM5821&#45;&gt;CEM5822 -->
<!-- CEM5905 -->
<g id="node44" class="node">
<title>CEM5905</title>
<polygon fill="#8dd3c7" stroke="#8dd3c7" points="871.9,-111.5 771.1,-111.5 771.1,-24.5 871.9,-24.5 871.9,-111.5"/>
<text text-anchor="middle" x="821.5" y="-94.2" font-family="Arial" font-size="14.00">CEM5905</text>
<text text-anchor="middle" x="821.5" y="-62.45" font-family="Arial" font-size="14.00">Laboratorios</text>
<text text-anchor="middle" x="821.5" y="-46.7" font-family="Arial" font-size="14.00">Integrado e</text>
<text text-anchor="middle" x="821.5" y="-30.95" font-family="Arial" font-size="14.00">Eventos</text>
</g>
<!-- CEM5821&#45;&gt;CEM5905 -->
<!-- CEM5524 -->
<g id="node45" class="node">
<title>CEM5524</title>
<polygon fill="#8dd3c7" stroke="#8dd3c7" points="1023.62,-572.5 916.12,-572.5 916.12,-485.5 1023.62,-485.5 1023.62,-572.5"/>
<text text-anchor="middle" x="969.88" y="-555.2" font-family="Arial" font-size="14.00">CEM5524</text>
<text text-anchor="middle" x="969.88" y="-523.45" font-family="Arial" font-size="14.00">Pratica Ensino</text>
<text text-anchor="middle" x="969.88" y="-507.7" font-family="Arial" font-size="14.00">de Cienc e Mat</text>
<text text-anchor="middle" x="969.88" y="-491.95" font-family="Arial" font-size="14.00">II</text>
</g>
<!-- CEM5905&#45;&gt;CEM5524 -->
<!-- CEM5610 -->
<g id="node46" class="node">
<title>CEM5610</title>
<polygon fill="#8dd3c7" stroke="#8dd3c7" points="1020.27,-467.62 919.48,-467.62 919.48,-396.38 1020.27,-396.38 1020.27,-467.62"/>
<text text-anchor="middle" x="969.88" y="-450.32" font-family="Arial" font-size="14.00">CEM5610</text>
<text text-anchor="middle" x="969.88" y="-418.57" font-family="Arial" font-size="14.00">Sociologia da</text>
<text text-anchor="middle" x="969.88" y="-402.82" font-family="Arial" font-size="14.00">Educacao</text>
</g>
<!-- CEM5905&#45;&gt;CEM5610 -->
<!-- CEM5620 -->
<g id="node47" class="node">
<title>CEM5620</title>
<polygon fill="#8dd3c7" stroke="#8dd3c7" points="1023.25,-378.5 916.5,-378.5 916.5,-291.5 1023.25,-291.5 1023.25,-378.5"/>
<text text-anchor="middle" x="969.88" y="-361.2" font-family="Arial" font-size="14.00">CEM5620</text>
<text text-anchor="middle" x="969.88" y="-329.45" font-family="Arial" font-size="14.00">Evolucao e</text>
<text text-anchor="middle" x="969.88" y="-313.7" font-family="Arial" font-size="14.00">Hist.da Ciencia</text>
<text text-anchor="middle" x="969.88" y="-297.95" font-family="Arial" font-size="14.00">e Tec</text>
</g>
<!-- CEM5905&#45;&gt;CEM5620 -->
<!-- CEM5621 -->
<g id="node48" class="node">
<title>CEM5621</title>
<polygon fill="#8dd3c7" stroke="#8dd3c7" points="1025.5,-273.5 914.25,-273.5 914.25,-186.5 1025.5,-186.5 1025.5,-273.5"/>
<text text-anchor="middle" x="969.88" y="-256.2" font-family="Arial" font-size="14.00">CEM5621</text>
<text text-anchor="middle" x="969.88" y="-224.45" font-family="Arial" font-size="14.00">Topicos</text>
<text text-anchor="middle" x="969.88" y="-208.7" font-family="Arial" font-size="14.00">Modernos</text>
<text text-anchor="middle" x="969.88" y="-192.95" font-family="Arial" font-size="14.00">Ciencias e Tecn</text>
</g>
<!-- CEM5905&#45;&gt;CEM5621 -->
<!-- CEM5903 -->
<g id="node49" class="node">
<title>CEM5903</title>
<polygon fill="#8dd3c7" stroke="#8dd3c7" points="1020.27,-168.62 919.48,-168.62 919.48,-97.38 1020.27,-97.38 1020.27,-168.62"/>
<text text-anchor="middle" x="969.88" y="-151.32" font-family="Arial" font-size="14.00">CEM5903</text>
<text text-anchor="middle" x="969.88" y="-119.58" font-family="Arial" font-size="14.00">Projetos e</text>
<text text-anchor="middle" x="969.88" y="-103.83" font-family="Arial" font-size="14.00">Seminarios</text>
</g>
<!-- CEM5905&#45;&gt;CEM5903 -->
<!-- CEM5911 -->
<g id="node50" class="node">
<title>CEM5911</title>
<polygon fill="#8dd3c7" stroke="#8dd3c7" points="1020.27,-79.75 919.48,-79.75 919.48,-24.25 1020.27,-24.25 1020.27,-79.75"/>
<text text-anchor="middle" x="969.88" y="-62.45" font-family="Arial" font-size="14.00">CEM5911</text>
<text text-anchor="middle" x="969.88" y="-30.7" font-family="Arial" font-size="14.00">Monografia</text>
</g>
<!-- CEM5905&#45;&gt;CEM5911 -->
</g>
</svg>
