<?xml version="1.0" encoding="UTF-8" standalone="no"?>
<!DOCTYPE svg PUBLIC "-//W3C//DTD SVG 1.1//EN"
 "http://www.w3.org/Graphics/SVG/1.1/DTD/svg11.dtd">
<!-- Generated by graphviz version 9.0.0 (0)
 -->
<!-- Title: grafo_materias Pages: 1 -->
<svg width="917pt" height="875pt"
 viewBox="0.00 0.00 917.00 875.00" xmlns="http://www.w3.org/2000/svg" xmlns:xlink="http://www.w3.org/1999/xlink">
<g id="graph0" class="graph" transform="scale(1 1) rotate(0) translate(4 871)">
<title>grafo_materias</title>
<polygon fill="none" stroke="none" points="-4,4 -4,-871 913,-871 913,4 -4,4"/>
<g id="clust1" class="cluster">
<title>cluster_everything</title>
<polygon fill="none" stroke="none" points="8,-8 8,-859 901,-859 901,-8 8,-8"/>
</g>
<g id="clust2" class="cluster">
<title>cluster_header</title>
<polygon fill="none" stroke="none" points="23.48,-799 23.48,-851 890.02,-851 890.02,-799 23.48,-799"/>
</g>
<g id="clust3" class="cluster">
<title>cluster_0</title>
<polygon fill="none" stroke="none" points="16,-16 16,-743 147.75,-743 147.75,-16 16,-16"/>
</g>
<g id="clust4" class="cluster">
<title>cluster_1</title>
<polygon fill="none" stroke="none" points="167.75,-185 167.75,-791 299.5,-791 299.5,-185 167.75,-185"/>
</g>
<g id="clust5" class="cluster">
<title>cluster_2</title>
<polygon fill="none" stroke="none" points="319.5,-64 319.5,-791 453.5,-791 453.5,-64 319.5,-64"/>
</g>
<g id="clust6" class="cluster">
<title>cluster_3</title>
<polygon fill="none" stroke="none" points="473.5,-16 473.5,-791 600.75,-791 600.75,-16 473.5,-16"/>
</g>
<g id="clust7" class="cluster">
<title>cluster_4</title>
<polygon fill="none" stroke="none" points="620.75,-16 620.75,-775 750.25,-775 750.25,-16 620.75,-16"/>
</g>
<g id="clust8" class="cluster">
<title>cluster_5</title>
<polygon fill="none" stroke="none" points="770.25,-16 770.25,-120 893,-120 893,-16 770.25,-16"/>
</g>
<!-- Fase 02 -->
<g id="node1" class="node">
<title>Fase 02</title>
<polygon fill="lightgrey" stroke="black" points="132.28,-843 31.48,-843 31.48,-807 132.28,-807 132.28,-843"/>
<text text-anchor="middle" x="81.88" y="-819.58" font-family="Arial" font-size="14.00">Fase 02</text>
</g>
<!-- Fase 03 -->
<g id="node2" class="node">
<title>Fase 03</title>
<polygon fill="lightgrey" stroke="black" points="284.02,-843 183.22,-843 183.22,-807 284.02,-807 284.02,-843"/>
<text text-anchor="middle" x="233.62" y="-819.58" font-family="Arial" font-size="14.00">Fase 03</text>
</g>
<!-- Fase 02&#45;&gt;Fase 03 -->
<!-- Fase 04 -->
<g id="node3" class="node">
<title>Fase 04</title>
<polygon fill="lightgrey" stroke="black" points="436.9,-843 336.1,-843 336.1,-807 436.9,-807 436.9,-843"/>
<text text-anchor="middle" x="386.5" y="-819.58" font-family="Arial" font-size="14.00">Fase 04</text>
</g>
<!-- Fase 03&#45;&gt;Fase 04 -->
<!-- Fase 05 -->
<g id="node4" class="node">
<title>Fase 05</title>
<polygon fill="lightgrey" stroke="black" points="587.52,-843 486.73,-843 486.73,-807 587.52,-807 587.52,-843"/>
<text text-anchor="middle" x="537.12" y="-819.58" font-family="Arial" font-size="14.00">Fase 05</text>
</g>
<!-- Fase 04&#45;&gt;Fase 05 -->
<!-- Fase 06 -->
<g id="node5" class="node">
<title>Fase 06</title>
<polygon fill="lightgrey" stroke="black" points="735.9,-843 635.1,-843 635.1,-807 735.9,-807 735.9,-843"/>
<text text-anchor="middle" x="685.5" y="-819.58" font-family="Arial" font-size="14.00">Fase 06</text>
</g>
<!-- Fase 05&#45;&gt;Fase 06 -->
<!-- Fase 08 -->
<g id="node6" class="node">
<title>Fase 08</title>
<polygon fill="lightgrey" stroke="black" points="882.02,-843 781.23,-843 781.23,-807 882.02,-807 882.02,-843"/>
<text text-anchor="middle" x="831.62" y="-819.58" font-family="Arial" font-size="14.00">Fase 08</text>
</g>
<!-- Fase 06&#45;&gt;Fase 08 -->
<!-- CEM5102 -->
<g id="node7" class="node">
<title>CEM5102</title>
<polygon fill="#8dd3c7" stroke="#8dd3c7" points="132.28,-734.62 31.48,-734.62 31.48,-663.38 132.28,-663.38 132.28,-734.62"/>
<text text-anchor="middle" x="81.88" y="-717.33" font-family="Arial" font-size="14.00">CEM5102</text>
<text text-anchor="middle" x="81.88" y="-685.58" font-family="Arial" font-size="14.00">Portugues&#45;</text>
<text text-anchor="middle" x="81.88" y="-669.83" font-family="Arial" font-size="14.00">Redacao II</text>
</g>
<!-- CEM5303 -->
<g id="node15" class="node">
<title>CEM5303</title>
<polygon fill="#8dd3c7" stroke="#8dd3c7" points="284.02,-782.62 183.22,-782.62 183.22,-711.38 284.02,-711.38 284.02,-782.62"/>
<text text-anchor="middle" x="233.62" y="-765.33" font-family="Arial" font-size="14.00">CEM5303</text>
<text text-anchor="middle" x="233.62" y="-733.58" font-family="Arial" font-size="14.00">Matematica</text>
<text text-anchor="middle" x="233.62" y="-717.83" font-family="Arial" font-size="14.00">Elementar III</text>
</g>
<!-- CEM5102&#45;&gt;CEM5303 -->
<!-- CEM5315 -->
<g id="node16" class="node">
<title>CEM5315</title>
<polygon fill="#8dd3c7" stroke="#8dd3c7" points="284.02,-693.62 183.22,-693.62 183.22,-622.38 284.02,-622.38 284.02,-693.62"/>
<text text-anchor="middle" x="233.62" y="-676.33" font-family="Arial" font-size="14.00">CEM5315</text>
<text text-anchor="middle" x="233.62" y="-644.58" font-family="Arial" font-size="14.00">Geometria</text>
<text text-anchor="middle" x="233.62" y="-628.83" font-family="Arial" font-size="14.00">Analitica</text>
</g>
<!-- CEM5102&#45;&gt;CEM5315 -->
<!-- CEM5410 -->
<g id="node17" class="node">
<title>CEM5410</title>
<polygon fill="#8dd3c7" stroke="#8dd3c7" points="291.5,-604.62 175.75,-604.62 175.75,-533.38 291.5,-533.38 291.5,-604.62"/>
<text text-anchor="middle" x="233.62" y="-587.33" font-family="Arial" font-size="14.00">CEM5410</text>
<text text-anchor="middle" x="233.62" y="-555.58" font-family="Arial" font-size="14.00">Quimica</text>
<text text-anchor="middle" x="233.62" y="-539.83" font-family="Arial" font-size="14.00">Organica Basica</text>
</g>
<!-- CEM5102&#45;&gt;CEM5410 -->
<!-- CEM5506 -->
<g id="node18" class="node">
<title>CEM5506</title>
<polygon fill="#8dd3c7" stroke="#8dd3c7" points="284.02,-515.75 183.22,-515.75 183.22,-460.25 284.02,-460.25 284.02,-515.75"/>
<text text-anchor="middle" x="233.62" y="-498.45" font-family="Arial" font-size="14.00">CEM5506</text>
<text text-anchor="middle" x="233.62" y="-466.7" font-family="Arial" font-size="14.00">Didática</text>
</g>
<!-- CEM5102&#45;&gt;CEM5506 -->
<!-- CEM5607 -->
<g id="node19" class="node">
<title>CEM5607</title>
<polygon fill="#8dd3c7" stroke="#8dd3c7" points="284.02,-442.62 183.22,-442.62 183.22,-371.38 284.02,-371.38 284.02,-442.62"/>
<text text-anchor="middle" x="233.62" y="-425.32" font-family="Arial" font-size="14.00">CEM5607</text>
<text text-anchor="middle" x="233.62" y="-393.57" font-family="Arial" font-size="14.00">Psicologia da</text>
<text text-anchor="middle" x="233.62" y="-377.82" font-family="Arial" font-size="14.00">Educacao</text>
</g>
<!-- CEM5102&#45;&gt;CEM5607 -->
<!-- CEM5802 -->
<g id="node20" class="node">
<title>CEM5802</title>
<polygon fill="#8dd3c7" stroke="#8dd3c7" points="290,-353.5 177.25,-353.5 177.25,-266.5 290,-266.5 290,-353.5"/>
<text text-anchor="middle" x="233.62" y="-336.2" font-family="Arial" font-size="14.00">CEM5802</text>
<text text-anchor="middle" x="233.62" y="-304.45" font-family="Arial" font-size="14.00">Zoologia para o</text>
<text text-anchor="middle" x="233.62" y="-288.7" font-family="Arial" font-size="14.00">Ensino Ciencias</text>
<text text-anchor="middle" x="233.62" y="-272.95" font-family="Arial" font-size="14.00">II</text>
</g>
<!-- CEM5102&#45;&gt;CEM5802 -->
<!-- CEM5812 -->
<g id="node21" class="node">
<title>CEM5812</title>
<polygon fill="#8dd3c7" stroke="#8dd3c7" points="284.02,-248.75 183.22,-248.75 183.22,-193.25 284.02,-193.25 284.02,-248.75"/>
<text text-anchor="middle" x="233.62" y="-231.45" font-family="Arial" font-size="14.00">CEM5812</text>
<text text-anchor="middle" x="233.62" y="-199.7" font-family="Arial" font-size="14.00">Botanica II</text>
</g>
<!-- CEM5102&#45;&gt;CEM5812 -->
<!-- CEM5202 -->
<g id="node8" class="node">
<title>CEM5202</title>
<polygon fill="#8dd3c7" stroke="#8dd3c7" points="132.28,-645.5 31.48,-645.5 31.48,-558.5 132.28,-558.5 132.28,-645.5"/>
<text text-anchor="middle" x="81.88" y="-628.2" font-family="Arial" font-size="14.00">CEM5202</text>
<text text-anchor="middle" x="81.88" y="-596.45" font-family="Arial" font-size="14.00">Fisica p/o</text>
<text text-anchor="middle" x="81.88" y="-580.7" font-family="Arial" font-size="14.00">Ensino de</text>
<text text-anchor="middle" x="81.88" y="-564.95" font-family="Arial" font-size="14.00">Ciencias II</text>
</g>
<!-- CEM5302 -->
<g id="node9" class="node">
<title>CEM5302</title>
<polygon fill="#8dd3c7" stroke="#8dd3c7" points="132.28,-540.62 31.48,-540.62 31.48,-469.38 132.28,-469.38 132.28,-540.62"/>
<text text-anchor="middle" x="81.88" y="-523.33" font-family="Arial" font-size="14.00">CEM5302</text>
<text text-anchor="middle" x="81.88" y="-491.57" font-family="Arial" font-size="14.00">Matematica</text>
<text text-anchor="middle" x="81.88" y="-475.82" font-family="Arial" font-size="14.00">Elementar II</text>
</g>
<!-- CEM5311 -->
<g id="node10" class="node">
<title>CEM5311</title>
<polygon fill="#8dd3c7" stroke="#8dd3c7" points="132.28,-451.62 31.48,-451.62 31.48,-380.38 132.28,-380.38 132.28,-451.62"/>
<text text-anchor="middle" x="81.88" y="-434.32" font-family="Arial" font-size="14.00">CEM5311</text>
<text text-anchor="middle" x="81.88" y="-402.57" font-family="Arial" font-size="14.00">Topicos de</text>
<text text-anchor="middle" x="81.88" y="-386.82" font-family="Arial" font-size="14.00">Algebra</text>
</g>
<!-- CEM5405 -->
<g id="node11" class="node">
<title>CEM5405</title>
<polygon fill="#8dd3c7" stroke="#8dd3c7" points="139.75,-362.62 24,-362.62 24,-291.38 139.75,-291.38 139.75,-362.62"/>
<text text-anchor="middle" x="81.88" y="-345.32" font-family="Arial" font-size="14.00">CEM5405</text>
<text text-anchor="middle" x="81.88" y="-313.57" font-family="Arial" font-size="14.00">Quimica Geral e</text>
<text text-anchor="middle" x="81.88" y="-297.82" font-family="Arial" font-size="14.00">Inorganica</text>
</g>
<!-- CEM5605 -->
<g id="node12" class="node">
<title>CEM5605</title>
<polygon fill="#8dd3c7" stroke="#8dd3c7" points="132.28,-273.62 31.48,-273.62 31.48,-202.38 132.28,-202.38 132.28,-273.62"/>
<text text-anchor="middle" x="81.88" y="-256.32" font-family="Arial" font-size="14.00">CEM5605</text>
<text text-anchor="middle" x="81.88" y="-224.57" font-family="Arial" font-size="14.00">Psicologia</text>
<text text-anchor="middle" x="81.88" y="-208.82" font-family="Arial" font-size="14.00">Geral</text>
</g>
<!-- CEM5801 -->
<g id="node13" class="node">
<title>CEM5801</title>
<polygon fill="#8dd3c7" stroke="#8dd3c7" points="136.75,-184.5 27,-184.5 27,-97.5 136.75,-97.5 136.75,-184.5"/>
<text text-anchor="middle" x="81.88" y="-167.2" font-family="Arial" font-size="14.00">CEM5801</text>
<text text-anchor="middle" x="81.88" y="-135.45" font-family="Arial" font-size="14.00">Zoologia para o</text>
<text text-anchor="middle" x="81.88" y="-119.7" font-family="Arial" font-size="14.00">Ensino de</text>
<text text-anchor="middle" x="81.88" y="-103.95" font-family="Arial" font-size="14.00">Ciencia I</text>
</g>
<!-- CEM5811 -->
<g id="node14" class="node">
<title>CEM5811</title>
<polygon fill="#8dd3c7" stroke="#8dd3c7" points="132.28,-79.75 31.48,-79.75 31.48,-24.25 132.28,-24.25 132.28,-79.75"/>
<text text-anchor="middle" x="81.88" y="-62.45" font-family="Arial" font-size="14.00">CEM5811</text>
<text text-anchor="middle" x="81.88" y="-30.7" font-family="Arial" font-size="14.00">Botanica I</text>
</g>
<!-- CEM5203 -->
<g id="node22" class="node">
<title>CEM5203</title>
<polygon fill="#8dd3c7" stroke="#8dd3c7" points="442.88,-782.5 330.12,-782.5 330.12,-695.5 442.88,-695.5 442.88,-782.5"/>
<text text-anchor="middle" x="386.5" y="-765.2" font-family="Arial" font-size="14.00">CEM5203</text>
<text text-anchor="middle" x="386.5" y="-733.45" font-family="Arial" font-size="14.00">Fisica p/ O</text>
<text text-anchor="middle" x="386.5" y="-717.7" font-family="Arial" font-size="14.00">Ensino Ciencias</text>
<text text-anchor="middle" x="386.5" y="-701.95" font-family="Arial" font-size="14.00">III</text>
</g>
<!-- CEM5812&#45;&gt;CEM5203 -->
<!-- CEM5312 -->
<g id="node23" class="node">
<title>CEM5312</title>
<polygon fill="#8dd3c7" stroke="#8dd3c7" points="438.38,-677.75 334.62,-677.75 334.62,-622.25 438.38,-622.25 438.38,-677.75"/>
<text text-anchor="middle" x="386.5" y="-660.45" font-family="Arial" font-size="14.00">CEM5312</text>
<text text-anchor="middle" x="386.5" y="-628.7" font-family="Arial" font-size="14.00">Algebra Linear</text>
</g>
<!-- CEM5812&#45;&gt;CEM5312 -->
<!-- CEM5501 -->
<g id="node24" class="node">
<title>CEM5501</title>
<polygon fill="#8dd3c7" stroke="#8dd3c7" points="443.62,-604.5 329.38,-604.5 329.38,-517.5 443.62,-517.5 443.62,-604.5"/>
<text text-anchor="middle" x="386.5" y="-587.2" font-family="Arial" font-size="14.00">CEM5501</text>
<text text-anchor="middle" x="386.5" y="-555.45" font-family="Arial" font-size="14.00">Instr I p/</text>
<text text-anchor="middle" x="386.5" y="-539.7" font-family="Arial" font-size="14.00">Ensino de Cienc</text>
<text text-anchor="middle" x="386.5" y="-523.95" font-family="Arial" font-size="14.00">e Mat</text>
</g>
<!-- CEM5812&#45;&gt;CEM5501 -->
<!-- CEM5510 -->
<g id="node25" class="node">
<title>CEM5510</title>
<polygon fill="#8dd3c7" stroke="#8dd3c7" points="436.9,-499.62 336.1,-499.62 336.1,-428.38 436.9,-428.38 436.9,-499.62"/>
<text text-anchor="middle" x="386.5" y="-482.32" font-family="Arial" font-size="14.00">CEM5510</text>
<text text-anchor="middle" x="386.5" y="-450.57" font-family="Arial" font-size="14.00">Teoria da</text>
<text text-anchor="middle" x="386.5" y="-434.82" font-family="Arial" font-size="14.00">Educacao</text>
</g>
<!-- CEM5812&#45;&gt;CEM5510 -->
<!-- CEM5515 -->
<g id="node26" class="node">
<title>CEM5515</title>
<polygon fill="#8dd3c7" stroke="#8dd3c7" points="445.5,-410.5 327.5,-410.5 327.5,-323.5 445.5,-323.5 445.5,-410.5"/>
<text text-anchor="middle" x="386.5" y="-393.2" font-family="Arial" font-size="14.00">CEM5515</text>
<text text-anchor="middle" x="386.5" y="-361.45" font-family="Arial" font-size="14.00">Metod Ensino de</text>
<text text-anchor="middle" x="386.5" y="-345.7" font-family="Arial" font-size="14.00">Cienc e Mat</text>
<text text-anchor="middle" x="386.5" y="-329.95" font-family="Arial" font-size="14.00">1.gr</text>
</g>
<!-- CEM5812&#45;&gt;CEM5515 -->
<!-- CEM5806 -->
<g id="node27" class="node">
<title>CEM5806</title>
<polygon fill="#8dd3c7" stroke="#8dd3c7" points="436.9,-305.75 336.1,-305.75 336.1,-250.25 436.9,-250.25 436.9,-305.75"/>
<text text-anchor="middle" x="386.5" y="-288.45" font-family="Arial" font-size="14.00">CEM5806</text>
<text text-anchor="middle" x="386.5" y="-256.7" font-family="Arial" font-size="14.00">Ecologia II</text>
</g>
<!-- CEM5812&#45;&gt;CEM5806 -->
<!-- CEM5821 -->
<g id="node28" class="node">
<title>CEM5821</title>
<polygon fill="#8dd3c7" stroke="#8dd3c7" points="436.9,-232.62 336.1,-232.62 336.1,-161.38 436.9,-161.38 436.9,-232.62"/>
<text text-anchor="middle" x="386.5" y="-215.32" font-family="Arial" font-size="14.00">CEM5821</text>
<text text-anchor="middle" x="386.5" y="-183.57" font-family="Arial" font-size="14.00">Genetica e</text>
<text text-anchor="middle" x="386.5" y="-167.82" font-family="Arial" font-size="14.00">Evolucao I</text>
</g>
<!-- CEM5812&#45;&gt;CEM5821 -->
<!-- CEM5901 -->
<g id="node29" class="node">
<title>CEM5901</title>
<polygon fill="#8dd3c7" stroke="#8dd3c7" points="436.9,-143.62 336.1,-143.62 336.1,-72.38 436.9,-72.38 436.9,-143.62"/>
<text text-anchor="middle" x="386.5" y="-126.33" font-family="Arial" font-size="14.00">CEM5901</text>
<text text-anchor="middle" x="386.5" y="-94.58" font-family="Arial" font-size="14.00">Projetos e</text>
<text text-anchor="middle" x="386.5" y="-78.83" font-family="Arial" font-size="14.00">Seminarios I</text>
</g>
<!-- CEM5812&#45;&gt;CEM5901 -->
<!-- CEM5320 -->
<g id="node30" class="node">
<title>CEM5320</title>
<polygon fill="#8dd3c7" stroke="#8dd3c7" points="587.52,-782.62 486.73,-782.62 486.73,-711.38 587.52,-711.38 587.52,-782.62"/>
<text text-anchor="middle" x="537.12" y="-765.33" font-family="Arial" font-size="14.00">CEM5320</text>
<text text-anchor="middle" x="537.12" y="-733.58" font-family="Arial" font-size="14.00">Matematica</text>
<text text-anchor="middle" x="537.12" y="-717.83" font-family="Arial" font-size="14.00">Estatistica</text>
</g>
<!-- CEM5901&#45;&gt;CEM5320 -->
<!-- CEM5325 -->
<g id="node31" class="node">
<title>CEM5325</title>
<polygon fill="#8dd3c7" stroke="#8dd3c7" points="587.52,-693.5 486.73,-693.5 486.73,-606.5 587.52,-606.5 587.52,-693.5"/>
<text text-anchor="middle" x="537.12" y="-676.2" font-family="Arial" font-size="14.00">CEM5325</text>
<text text-anchor="middle" x="537.12" y="-644.45" font-family="Arial" font-size="14.00">Calculos</text>
<text text-anchor="middle" x="537.12" y="-628.7" font-family="Arial" font-size="14.00">Diferencial e</text>
<text text-anchor="middle" x="537.12" y="-612.95" font-family="Arial" font-size="14.00">Integral</text>
</g>
<!-- CEM5901&#45;&gt;CEM5325 -->
<!-- CEM5502 -->
<g id="node32" class="node">
<title>CEM5502</title>
<polygon fill="#8dd3c7" stroke="#8dd3c7" points="590.12,-588.5 484.12,-588.5 484.12,-501.5 590.12,-501.5 590.12,-588.5"/>
<text text-anchor="middle" x="537.12" y="-571.2" font-family="Arial" font-size="14.00">CEM5502</text>
<text text-anchor="middle" x="537.12" y="-539.45" font-family="Arial" font-size="14.00">Instr II</text>
<text text-anchor="middle" x="537.12" y="-523.7" font-family="Arial" font-size="14.00">p/ensino</text>
<text text-anchor="middle" x="537.12" y="-507.95" font-family="Arial" font-size="14.00">Ciencias e Mat</text>
</g>
<!-- CEM5901&#45;&gt;CEM5502 -->
<!-- CEM5521 -->
<g id="node33" class="node">
<title>CEM5521</title>
<polygon fill="#8dd3c7" stroke="#8dd3c7" points="592.38,-483.5 481.88,-483.5 481.88,-396.5 592.38,-396.5 592.38,-483.5"/>
<text text-anchor="middle" x="537.12" y="-466.2" font-family="Arial" font-size="14.00">CEM5521</text>
<text text-anchor="middle" x="537.12" y="-434.45" font-family="Arial" font-size="14.00">Prat.</text>
<text text-anchor="middle" x="537.12" y="-418.7" font-family="Arial" font-size="14.00">Ensino&#45;ciencias</text>
<text text-anchor="middle" x="537.12" y="-402.95" font-family="Arial" font-size="14.00">e Mat.1.gr</text>
</g>
<!-- CEM5901&#45;&gt;CEM5521 -->
<!-- CEM5602 -->
<g id="node34" class="node">
<title>CEM5602</title>
<polygon fill="#8dd3c7" stroke="#8dd3c7" points="587.52,-378.62 486.73,-378.62 486.73,-307.38 587.52,-307.38 587.52,-378.62"/>
<text text-anchor="middle" x="537.12" y="-361.32" font-family="Arial" font-size="14.00">CEM5602</text>
<text text-anchor="middle" x="537.12" y="-329.57" font-family="Arial" font-size="14.00">Filosofia da</text>
<text text-anchor="middle" x="537.12" y="-313.82" font-family="Arial" font-size="14.00">Ciencia</text>
</g>
<!-- CEM5901&#45;&gt;CEM5602 -->
<!-- CEM5621 -->
<g id="node35" class="node">
<title>CEM5621</title>
<polygon fill="#8dd3c7" stroke="#8dd3c7" points="592.75,-289.5 481.5,-289.5 481.5,-202.5 592.75,-202.5 592.75,-289.5"/>
<text text-anchor="middle" x="537.12" y="-272.2" font-family="Arial" font-size="14.00">CEM5621</text>
<text text-anchor="middle" x="537.12" y="-240.45" font-family="Arial" font-size="14.00">Topicos</text>
<text text-anchor="middle" x="537.12" y="-224.7" font-family="Arial" font-size="14.00">Modernos</text>
<text text-anchor="middle" x="537.12" y="-208.95" font-family="Arial" font-size="14.00">Ciencias e Tecn</text>
</g>
<!-- CEM5901&#45;&gt;CEM5621 -->
<!-- CEM5822 -->
<g id="node36" class="node">
<title>CEM5822</title>
<polygon fill="#8dd3c7" stroke="#8dd3c7" points="587.52,-184.62 486.73,-184.62 486.73,-113.38 587.52,-113.38 587.52,-184.62"/>
<text text-anchor="middle" x="537.12" y="-167.32" font-family="Arial" font-size="14.00">CEM5822</text>
<text text-anchor="middle" x="537.12" y="-135.57" font-family="Arial" font-size="14.00">Genetica e</text>
<text text-anchor="middle" x="537.12" y="-119.83" font-family="Arial" font-size="14.00">Evolucao II</text>
</g>
<!-- CEM5901&#45;&gt;CEM5822 -->
<!-- CEM5902 -->
<g id="node37" class="node">
<title>CEM5902</title>
<polygon fill="#8dd3c7" stroke="#8dd3c7" points="587.52,-95.62 486.73,-95.62 486.73,-24.38 587.52,-24.38 587.52,-95.62"/>
<text text-anchor="middle" x="537.12" y="-78.33" font-family="Arial" font-size="14.00">CEM5902</text>
<text text-anchor="middle" x="537.12" y="-46.58" font-family="Arial" font-size="14.00">Projetos e</text>
<text text-anchor="middle" x="537.12" y="-30.82" font-family="Arial" font-size="14.00">Seminarios II</text>
</g>
<!-- CEM5901&#45;&gt;CEM5902 -->
<!-- CEM5304 -->
<g id="node38" class="node">
<title>CEM5304</title>
<polygon fill="#8dd3c7" stroke="#8dd3c7" points="735.9,-766.62 635.1,-766.62 635.1,-695.38 735.9,-695.38 735.9,-766.62"/>
<text text-anchor="middle" x="685.5" y="-749.33" font-family="Arial" font-size="14.00">CEM5304</text>
<text text-anchor="middle" x="685.5" y="-717.58" font-family="Arial" font-size="14.00">Matematica</text>
<text text-anchor="middle" x="685.5" y="-701.83" font-family="Arial" font-size="14.00">Elementar IV</text>
</g>
<!-- CEM5902&#45;&gt;CEM5304 -->
<!-- CEM5321 -->
<g id="node39" class="node">
<title>CEM5321</title>
<polygon fill="#8dd3c7" stroke="#8dd3c7" points="736.62,-677.62 634.38,-677.62 634.38,-606.38 736.62,-606.38 736.62,-677.62"/>
<text text-anchor="middle" x="685.5" y="-660.33" font-family="Arial" font-size="14.00">CEM5321</text>
<text text-anchor="middle" x="685.5" y="-628.58" font-family="Arial" font-size="14.00">Informatica na</text>
<text text-anchor="middle" x="685.5" y="-612.83" font-family="Arial" font-size="14.00">Educacao</text>
</g>
<!-- CEM5902&#45;&gt;CEM5321 -->
<!-- CEM5503 -->
<g id="node40" class="node">
<title>CEM5503</title>
<polygon fill="#8dd3c7" stroke="#8dd3c7" points="740.75,-588.5 630.25,-588.5 630.25,-501.5 740.75,-501.5 740.75,-588.5"/>
<text text-anchor="middle" x="685.5" y="-571.2" font-family="Arial" font-size="14.00">CEM5503</text>
<text text-anchor="middle" x="685.5" y="-539.45" font-family="Arial" font-size="14.00">Instr III p/</text>
<text text-anchor="middle" x="685.5" y="-523.7" font-family="Arial" font-size="14.00">Ensino Cienc. e</text>
<text text-anchor="middle" x="685.5" y="-507.95" font-family="Arial" font-size="14.00">Mat</text>
</g>
<!-- CEM5902&#45;&gt;CEM5503 -->
<!-- CEM5520 -->
<g id="node41" class="node">
<title>CEM5520</title>
<polygon fill="#8dd3c7" stroke="#8dd3c7" points="742.25,-483.5 628.75,-483.5 628.75,-396.5 742.25,-396.5 742.25,-483.5"/>
<text text-anchor="middle" x="685.5" y="-466.2" font-family="Arial" font-size="14.00">CEM5520</text>
<text text-anchor="middle" x="685.5" y="-434.45" font-family="Arial" font-size="14.00">Estrutura e</text>
<text text-anchor="middle" x="685.5" y="-418.7" font-family="Arial" font-size="14.00">Func. Ensino de</text>
<text text-anchor="middle" x="685.5" y="-402.95" font-family="Arial" font-size="14.00">1.gr</text>
</g>
<!-- CEM5902&#45;&gt;CEM5520 -->
<!-- CEM5522 -->
<g id="node42" class="node">
<title>CEM5522</title>
<polygon fill="#8dd3c7" stroke="#8dd3c7" points="737.75,-378.5 633.25,-378.5 633.25,-291.5 737.75,-291.5 737.75,-378.5"/>
<text text-anchor="middle" x="685.5" y="-361.2" font-family="Arial" font-size="14.00">CEM5522</text>
<text text-anchor="middle" x="685.5" y="-329.45" font-family="Arial" font-size="14.00">Pratica de</text>
<text text-anchor="middle" x="685.5" y="-313.7" font-family="Arial" font-size="14.00">Ensino II&#45;cienc</text>
<text text-anchor="middle" x="685.5" y="-297.95" font-family="Arial" font-size="14.00">e Mat</text>
</g>
<!-- CEM5902&#45;&gt;CEM5522 -->
<!-- CEM5610 -->
<g id="node43" class="node">
<title>CEM5610</title>
<polygon fill="#8dd3c7" stroke="#8dd3c7" points="735.9,-273.62 635.1,-273.62 635.1,-202.38 735.9,-202.38 735.9,-273.62"/>
<text text-anchor="middle" x="685.5" y="-256.32" font-family="Arial" font-size="14.00">CEM5610</text>
<text text-anchor="middle" x="685.5" y="-224.57" font-family="Arial" font-size="14.00">Sociologia da</text>
<text text-anchor="middle" x="685.5" y="-208.82" font-family="Arial" font-size="14.00">Educacao</text>
</g>
<!-- CEM5902&#45;&gt;CEM5610 -->
<!-- CEM5905 -->
<g id="node44" class="node">
<title>CEM5905</title>
<polygon fill="#8dd3c7" stroke="#8dd3c7" points="735.9,-184.5 635.1,-184.5 635.1,-97.5 735.9,-97.5 735.9,-184.5"/>
<text text-anchor="middle" x="685.5" y="-167.2" font-family="Arial" font-size="14.00">CEM5905</text>
<text text-anchor="middle" x="685.5" y="-135.45" font-family="Arial" font-size="14.00">Laboratorios</text>
<text text-anchor="middle" x="685.5" y="-119.7" font-family="Arial" font-size="14.00">Integrado e</text>
<text text-anchor="middle" x="685.5" y="-103.95" font-family="Arial" font-size="14.00">Eventos</text>
</g>
<!-- CEM5902&#45;&gt;CEM5905 -->
<!-- CEM5910 -->
<g id="node45" class="node">
<title>CEM5910</title>
<polygon fill="#8dd3c7" stroke="#8dd3c7" points="735.9,-79.75 635.1,-79.75 635.1,-24.25 735.9,-24.25 735.9,-79.75"/>
<text text-anchor="middle" x="685.5" y="-62.45" font-family="Arial" font-size="14.00">CEM5910</text>
<text text-anchor="middle" x="685.5" y="-30.7" font-family="Arial" font-size="14.00">Monografia</text>
</g>
<!-- CEM5902&#45;&gt;CEM5910 -->
<!-- CEM5620 -->
<g id="node46" class="node">
<title>CEM5620</title>
<polygon fill="#8dd3c7" stroke="#8dd3c7" points="885,-111.5 778.25,-111.5 778.25,-24.5 885,-24.5 885,-111.5"/>
<text text-anchor="middle" x="831.62" y="-94.2" font-family="Arial" font-size="14.00">CEM5620</text>
<text text-anchor="middle" x="831.62" y="-62.45" font-family="Arial" font-size="14.00">Evolucao e</text>
<text text-anchor="middle" x="831.62" y="-46.7" font-family="Arial" font-size="14.00">Hist.da Ciencia</text>
<text text-anchor="middle" x="831.62" y="-30.95" font-family="Arial" font-size="14.00">e Tec</text>
</g>
<!-- CEM5910&#45;&gt;CEM5620 -->
</g>
</svg>
