<?xml version="1.0" encoding="UTF-8" standalone="no"?>
<!DOCTYPE svg PUBLIC "-//W3C//DTD SVG 1.1//EN"
 "http://www.w3.org/Graphics/SVG/1.1/DTD/svg11.dtd">
<!-- Generated by graphviz version 9.0.0 (0)
 -->
<!-- Title: grafo_materias Pages: 1 -->
<svg width="986pt" height="471pt"
 viewBox="0.00 0.00 986.40 471.00" xmlns="http://www.w3.org/2000/svg" xmlns:xlink="http://www.w3.org/1999/xlink">
<g id="graph0" class="graph" transform="scale(1 1) rotate(0) translate(4 467)">
<title>grafo_materias</title>
<polygon fill="none" stroke="none" points="-4,4 -4,-467 982.4,-467 982.4,4 -4,4"/>
<g id="clust1" class="cluster">
<title>cluster_everything</title>
<polygon fill="none" stroke="none" points="8,-8 8,-455 970.4,-455 970.4,-8 8,-8"/>
</g>
<g id="clust2" class="cluster">
<title>cluster_header</title>
<polygon fill="none" stroke="none" points="16,-395 16,-447 961.3,-447 961.3,-395 16,-395"/>
</g>
<g id="clust3" class="cluster">
<title>cluster_0</title>
<polygon fill="none" stroke="none" points="16,-32 16,-298 132.8,-298 132.8,-32 16,-32"/>
</g>
<g id="clust4" class="cluster">
<title>cluster_1</title>
<polygon fill="none" stroke="none" points="152.8,-121 152.8,-387 269.6,-387 269.6,-121 152.8,-121"/>
</g>
<g id="clust5" class="cluster">
<title>cluster_2</title>
<polygon fill="none" stroke="none" points="289.6,-121 289.6,-371 407.1,-371 407.1,-121 289.6,-121"/>
</g>
<g id="clust6" class="cluster">
<title>cluster_3</title>
<polygon fill="none" stroke="none" points="427.1,-16 427.1,-387 543.9,-387 543.9,-16 427.1,-16"/>
</g>
<g id="clust7" class="cluster">
<title>cluster_4</title>
<polygon fill="none" stroke="none" points="563.9,-24 563.9,-363 682.15,-363 682.15,-24 563.9,-24"/>
</g>
<g id="clust8" class="cluster">
<title>cluster_5</title>
<polygon fill="none" stroke="none" points="702.15,-16 702.15,-282 823.4,-282 823.4,-16 702.15,-16"/>
</g>
<g id="clust9" class="cluster">
<title>cluster_6</title>
<polygon fill="none" stroke="none" points="843.4,-16 843.4,-298 962.4,-298 962.4,-16 843.4,-16"/>
</g>
<!-- Fase 02 -->
<g id="node1" class="node">
<title>Fase 02</title>
<polygon fill="lightgrey" stroke="black" points="124.8,-439 24,-439 24,-403 124.8,-403 124.8,-439"/>
<text text-anchor="middle" x="74.4" y="-415.57" font-family="Arial" font-size="14.00">Fase 02</text>
</g>
<!-- Fase 03 -->
<g id="node2" class="node">
<title>Fase 03</title>
<polygon fill="lightgrey" stroke="black" points="261.6,-439 160.8,-439 160.8,-403 261.6,-403 261.6,-439"/>
<text text-anchor="middle" x="211.2" y="-415.57" font-family="Arial" font-size="14.00">Fase 03</text>
</g>
<!-- Fase 02&#45;&gt;Fase 03 -->
<!-- Fase 04 -->
<g id="node3" class="node">
<title>Fase 04</title>
<polygon fill="lightgrey" stroke="black" points="398.75,-439 297.95,-439 297.95,-403 398.75,-403 398.75,-439"/>
<text text-anchor="middle" x="348.35" y="-415.57" font-family="Arial" font-size="14.00">Fase 04</text>
</g>
<!-- Fase 03&#45;&gt;Fase 04 -->
<!-- Fase 05 -->
<g id="node4" class="node">
<title>Fase 05</title>
<polygon fill="lightgrey" stroke="black" points="535.9,-439 435.1,-439 435.1,-403 535.9,-403 535.9,-439"/>
<text text-anchor="middle" x="485.5" y="-415.57" font-family="Arial" font-size="14.00">Fase 05</text>
</g>
<!-- Fase 04&#45;&gt;Fase 05 -->
<!-- Fase 06 -->
<g id="node5" class="node">
<title>Fase 06</title>
<polygon fill="lightgrey" stroke="black" points="673.42,-439 572.62,-439 572.62,-403 673.42,-403 673.42,-439"/>
<text text-anchor="middle" x="623.02" y="-415.57" font-family="Arial" font-size="14.00">Fase 06</text>
</g>
<!-- Fase 05&#45;&gt;Fase 06 -->
<!-- Fase 07 -->
<g id="node6" class="node">
<title>Fase 07</title>
<polygon fill="lightgrey" stroke="black" points="813.17,-439 712.38,-439 712.38,-403 813.17,-403 813.17,-439"/>
<text text-anchor="middle" x="762.77" y="-415.57" font-family="Arial" font-size="14.00">Fase 07</text>
</g>
<!-- Fase 06&#45;&gt;Fase 07 -->
<!-- Fase 08 -->
<g id="node7" class="node">
<title>Fase 08</title>
<polygon fill="lightgrey" stroke="black" points="953.3,-439 852.5,-439 852.5,-403 953.3,-403 953.3,-439"/>
<text text-anchor="middle" x="902.9" y="-415.57" font-family="Arial" font-size="14.00">Fase 08</text>
</g>
<!-- Fase 07&#45;&gt;Fase 08 -->
<!-- CEM5112 -->
<g id="node8" class="node">
<title>CEM5112</title>
<polygon fill="#8dd3c7" stroke="#8dd3c7" points="124.8,-289.62 24,-289.62 24,-218.38 124.8,-218.38 124.8,-289.62"/>
<text text-anchor="middle" x="74.4" y="-272.32" font-family="Arial" font-size="14.00">CEM5112</text>
<text text-anchor="middle" x="74.4" y="-240.57" font-family="Arial" font-size="14.00">Lingua</text>
<text text-anchor="middle" x="74.4" y="-224.82" font-family="Arial" font-size="14.00">Estrangeira II</text>
</g>
<!-- CEM5113 -->
<g id="node11" class="node">
<title>CEM5113</title>
<polygon fill="#8dd3c7" stroke="#8dd3c7" points="261.6,-378.62 160.8,-378.62 160.8,-307.38 261.6,-307.38 261.6,-378.62"/>
<text text-anchor="middle" x="211.2" y="-361.32" font-family="Arial" font-size="14.00">CEM5113</text>
<text text-anchor="middle" x="211.2" y="-329.57" font-family="Arial" font-size="14.00">Lingua</text>
<text text-anchor="middle" x="211.2" y="-313.82" font-family="Arial" font-size="14.00">Estrangeira III</text>
</g>
<!-- CEM5112&#45;&gt;CEM5113 -->
<!-- CEM5143 -->
<g id="node12" class="node">
<title>CEM5143</title>
<polygon fill="#8dd3c7" stroke="#8dd3c7" points="261.6,-289.62 160.8,-289.62 160.8,-218.38 261.6,-218.38 261.6,-289.62"/>
<text text-anchor="middle" x="211.2" y="-272.32" font-family="Arial" font-size="14.00">CEM5143</text>
<text text-anchor="middle" x="211.2" y="-240.57" font-family="Arial" font-size="14.00">Lingua</text>
<text text-anchor="middle" x="211.2" y="-224.82" font-family="Arial" font-size="14.00">Portuguesa III</text>
</g>
<!-- CEM5112&#45;&gt;CEM5143 -->
<!-- CEM5153 -->
<g id="node13" class="node">
<title>CEM5153</title>
<polygon fill="#8dd3c7" stroke="#8dd3c7" points="261.6,-200.62 160.8,-200.62 160.8,-129.38 261.6,-129.38 261.6,-200.62"/>
<text text-anchor="middle" x="211.2" y="-183.32" font-family="Arial" font-size="14.00">CEM5153</text>
<text text-anchor="middle" x="211.2" y="-151.57" font-family="Arial" font-size="14.00">Literatura</text>
<text text-anchor="middle" x="211.2" y="-135.82" font-family="Arial" font-size="14.00">Brasileira</text>
</g>
<!-- CEM5112&#45;&gt;CEM5153 -->
<!-- CEM5142 -->
<g id="node9" class="node">
<title>CEM5142</title>
<polygon fill="#8dd3c7" stroke="#8dd3c7" points="124.8,-200.62 24,-200.62 24,-129.38 124.8,-129.38 124.8,-200.62"/>
<text text-anchor="middle" x="74.4" y="-183.32" font-family="Arial" font-size="14.00">CEM5142</text>
<text text-anchor="middle" x="74.4" y="-151.57" font-family="Arial" font-size="14.00">Lingua</text>
<text text-anchor="middle" x="74.4" y="-135.82" font-family="Arial" font-size="14.00">Portuguesa II</text>
</g>
<!-- CEM5150 -->
<g id="node10" class="node">
<title>CEM5150</title>
<polygon fill="#8dd3c7" stroke="#8dd3c7" points="124.8,-111.62 24,-111.62 24,-40.38 124.8,-40.38 124.8,-111.62"/>
<text text-anchor="middle" x="74.4" y="-94.33" font-family="Arial" font-size="14.00">CEM5150</text>
<text text-anchor="middle" x="74.4" y="-62.58" font-family="Arial" font-size="14.00">Linguistica</text>
<text text-anchor="middle" x="74.4" y="-46.83" font-family="Arial" font-size="14.00">Geral</text>
</g>
<!-- CEM5114 -->
<g id="node14" class="node">
<title>CEM5114</title>
<polygon fill="#8dd3c7" stroke="#8dd3c7" points="399.1,-362.62 297.6,-362.62 297.6,-291.38 399.1,-291.38 399.1,-362.62"/>
<text text-anchor="middle" x="348.35" y="-345.32" font-family="Arial" font-size="14.00">CEM5114</text>
<text text-anchor="middle" x="348.35" y="-313.57" font-family="Arial" font-size="14.00">Lingua</text>
<text text-anchor="middle" x="348.35" y="-297.82" font-family="Arial" font-size="14.00">Estrangeira IV</text>
</g>
<!-- CEM5153&#45;&gt;CEM5114 -->
<!-- CEM5154 -->
<g id="node15" class="node">
<title>CEM5154</title>
<polygon fill="#8dd3c7" stroke="#8dd3c7" points="398.75,-273.62 297.95,-273.62 297.95,-202.38 398.75,-202.38 398.75,-273.62"/>
<text text-anchor="middle" x="348.35" y="-256.32" font-family="Arial" font-size="14.00">CEM5154</text>
<text text-anchor="middle" x="348.35" y="-224.57" font-family="Arial" font-size="14.00">Literatura</text>
<text text-anchor="middle" x="348.35" y="-208.82" font-family="Arial" font-size="14.00">Portuguesa</text>
</g>
<!-- CEM5153&#45;&gt;CEM5154 -->
<!-- CEM5155 -->
<g id="node16" class="node">
<title>CEM5155</title>
<polygon fill="#8dd3c7" stroke="#8dd3c7" points="398.75,-184.75 297.95,-184.75 297.95,-129.25 398.75,-129.25 398.75,-184.75"/>
<text text-anchor="middle" x="348.35" y="-167.45" font-family="Arial" font-size="14.00">CEM5155</text>
<text text-anchor="middle" x="348.35" y="-135.7" font-family="Arial" font-size="14.00">Lingua Latina</text>
</g>
<!-- CEM5153&#45;&gt;CEM5155 -->
<!-- CEM5115 -->
<g id="node17" class="node">
<title>CEM5115</title>
<polygon fill="#8dd3c7" stroke="#8dd3c7" points="535.9,-378.62 435.1,-378.62 435.1,-307.38 535.9,-307.38 535.9,-378.62"/>
<text text-anchor="middle" x="485.5" y="-361.32" font-family="Arial" font-size="14.00">CEM5115</text>
<text text-anchor="middle" x="485.5" y="-329.57" font-family="Arial" font-size="14.00">Lingua</text>
<text text-anchor="middle" x="485.5" y="-313.82" font-family="Arial" font-size="14.00">Estrangeira V</text>
</g>
<!-- CEM5155&#45;&gt;CEM5115 -->
<!-- CEM5129 -->
<g id="node18" class="node">
<title>CEM5129</title>
<polygon fill="#8dd3c7" stroke="#8dd3c7" points="535.9,-289.62 435.1,-289.62 435.1,-218.38 535.9,-218.38 535.9,-289.62"/>
<text text-anchor="middle" x="485.5" y="-272.32" font-family="Arial" font-size="14.00">CEM5129</text>
<text text-anchor="middle" x="485.5" y="-240.57" font-family="Arial" font-size="14.00">Literatura</text>
<text text-anchor="middle" x="485.5" y="-224.82" font-family="Arial" font-size="14.00">Estrangeira I</text>
</g>
<!-- CEM5155&#45;&gt;CEM5129 -->
<!-- CEM5519 -->
<g id="node19" class="node">
<title>CEM5519</title>
<polygon fill="#8dd3c7" stroke="#8dd3c7" points="535.9,-200.5 435.1,-200.5 435.1,-113.5 535.9,-113.5 535.9,-200.5"/>
<text text-anchor="middle" x="485.5" y="-183.2" font-family="Arial" font-size="14.00">CEM5519</text>
<text text-anchor="middle" x="485.5" y="-151.45" font-family="Arial" font-size="14.00">Estrutura e</text>
<text text-anchor="middle" x="485.5" y="-135.7" font-family="Arial" font-size="14.00">Func. 1. e 2.</text>
<text text-anchor="middle" x="485.5" y="-119.95" font-family="Arial" font-size="14.00">Grau</text>
</g>
<!-- CEM5155&#45;&gt;CEM5519 -->
<!-- CEM5608 -->
<g id="node20" class="node">
<title>CEM5608</title>
<polygon fill="#8dd3c7" stroke="#8dd3c7" points="535.9,-95.62 435.1,-95.62 435.1,-24.38 535.9,-24.38 535.9,-95.62"/>
<text text-anchor="middle" x="485.5" y="-78.33" font-family="Arial" font-size="14.00">CEM5608</text>
<text text-anchor="middle" x="485.5" y="-46.58" font-family="Arial" font-size="14.00">Psicologia da</text>
<text text-anchor="middle" x="485.5" y="-30.82" font-family="Arial" font-size="14.00">Educacao</text>
</g>
<!-- CEM5155&#45;&gt;CEM5608 -->
<!-- CEM5116 -->
<g id="node21" class="node">
<title>CEM5116</title>
<polygon fill="#8dd3c7" stroke="#8dd3c7" points="673.77,-354.62 572.27,-354.62 572.27,-283.38 673.77,-283.38 673.77,-354.62"/>
<text text-anchor="middle" x="623.02" y="-337.32" font-family="Arial" font-size="14.00">CEM5116</text>
<text text-anchor="middle" x="623.02" y="-305.57" font-family="Arial" font-size="14.00">Lingua</text>
<text text-anchor="middle" x="623.02" y="-289.82" font-family="Arial" font-size="14.00">Estrangeira VI</text>
</g>
<!-- CEM5608&#45;&gt;CEM5116 -->
<!-- CEM5130 -->
<g id="node22" class="node">
<title>CEM5130</title>
<polygon fill="#8dd3c7" stroke="#8dd3c7" points="673.42,-265.62 572.62,-265.62 572.62,-194.38 673.42,-194.38 673.42,-265.62"/>
<text text-anchor="middle" x="623.02" y="-248.32" font-family="Arial" font-size="14.00">CEM5130</text>
<text text-anchor="middle" x="623.02" y="-216.57" font-family="Arial" font-size="14.00">Literatura</text>
<text text-anchor="middle" x="623.02" y="-200.82" font-family="Arial" font-size="14.00">Estrangeira II</text>
</g>
<!-- CEM5608&#45;&gt;CEM5130 -->
<!-- CEM5152 -->
<g id="node23" class="node">
<title>CEM5152</title>
<polygon fill="#8dd3c7" stroke="#8dd3c7" points="673.42,-176.62 572.62,-176.62 572.62,-105.38 673.42,-105.38 673.42,-176.62"/>
<text text-anchor="middle" x="623.02" y="-159.32" font-family="Arial" font-size="14.00">CEM5152</text>
<text text-anchor="middle" x="623.02" y="-127.58" font-family="Arial" font-size="14.00">Linguistica</text>
<text text-anchor="middle" x="623.02" y="-111.83" font-family="Arial" font-size="14.00">Aplicada L.e..</text>
</g>
<!-- CEM5608&#45;&gt;CEM5152 -->
<!-- CEM5509 -->
<g id="node24" class="node">
<title>CEM5509</title>
<polygon fill="#8dd3c7" stroke="#8dd3c7" points="674.15,-87.75 571.9,-87.75 571.9,-32.25 674.15,-32.25 674.15,-87.75"/>
<text text-anchor="middle" x="623.02" y="-70.45" font-family="Arial" font-size="14.00">CEM5509</text>
<text text-anchor="middle" x="623.02" y="-38.7" font-family="Arial" font-size="14.00">Didática Geral</text>
</g>
<!-- CEM5608&#45;&gt;CEM5509 -->
<!-- CEM5117 -->
<g id="node25" class="node">
<title>CEM5117</title>
<polygon fill="#8dd3c7" stroke="#8dd3c7" points="815.4,-273.62 710.15,-273.62 710.15,-202.38 815.4,-202.38 815.4,-273.62"/>
<text text-anchor="middle" x="762.77" y="-256.32" font-family="Arial" font-size="14.00">CEM5117</text>
<text text-anchor="middle" x="762.77" y="-224.57" font-family="Arial" font-size="14.00">Lingua</text>
<text text-anchor="middle" x="762.77" y="-208.82" font-family="Arial" font-size="14.00">Estrangeira VII</text>
</g>
<!-- CEM5509&#45;&gt;CEM5117 -->
<!-- CEM5131 -->
<g id="node26" class="node">
<title>CEM5131</title>
<polygon fill="#8dd3c7" stroke="#8dd3c7" points="813.17,-184.62 712.38,-184.62 712.38,-113.38 813.17,-113.38 813.17,-184.62"/>
<text text-anchor="middle" x="762.77" y="-167.32" font-family="Arial" font-size="14.00">CEM5131</text>
<text text-anchor="middle" x="762.77" y="-135.57" font-family="Arial" font-size="14.00">Literatura</text>
<text text-anchor="middle" x="762.77" y="-119.83" font-family="Arial" font-size="14.00">Estrangeira III</text>
</g>
<!-- CEM5509&#45;&gt;CEM5131 -->
<!-- CEM5514 -->
<g id="node27" class="node">
<title>CEM5514</title>
<polygon fill="#8dd3c7" stroke="#8dd3c7" points="813.17,-95.62 712.38,-95.62 712.38,-24.38 813.17,-24.38 813.17,-95.62"/>
<text text-anchor="middle" x="762.77" y="-78.33" font-family="Arial" font-size="14.00">CEM5514</text>
<text text-anchor="middle" x="762.77" y="-46.58" font-family="Arial" font-size="14.00">Metodologia</text>
<text text-anchor="middle" x="762.77" y="-30.82" font-family="Arial" font-size="14.00">Ensino L.e.</text>
</g>
<!-- CEM5509&#45;&gt;CEM5514 -->
<!-- CEM5118 -->
<g id="node28" class="node">
<title>CEM5118</title>
<polygon fill="#8dd3c7" stroke="#8dd3c7" points="953.3,-289.5 852.5,-289.5 852.5,-202.5 953.3,-202.5 953.3,-289.5"/>
<text text-anchor="middle" x="902.9" y="-272.2" font-family="Arial" font-size="14.00">CEM5118</text>
<text text-anchor="middle" x="902.9" y="-240.45" font-family="Arial" font-size="14.00">Lingua</text>
<text text-anchor="middle" x="902.9" y="-224.7" font-family="Arial" font-size="14.00">Estrangeira</text>
<text text-anchor="middle" x="902.9" y="-208.95" font-family="Arial" font-size="14.00">VIII</text>
</g>
<!-- CEM5514&#45;&gt;CEM5118 -->
<!-- CEM5133 -->
<g id="node29" class="node">
<title>CEM5133</title>
<polygon fill="#8dd3c7" stroke="#8dd3c7" points="953.65,-184.62 852.15,-184.62 852.15,-113.38 953.65,-113.38 953.65,-184.62"/>
<text text-anchor="middle" x="902.9" y="-167.32" font-family="Arial" font-size="14.00">CEM5133</text>
<text text-anchor="middle" x="902.9" y="-135.57" font-family="Arial" font-size="14.00">Literatura</text>
<text text-anchor="middle" x="902.9" y="-119.83" font-family="Arial" font-size="14.00">Estrangeira IV</text>
</g>
<!-- CEM5514&#45;&gt;CEM5133 -->
<!-- CEM5526 -->
<g id="node30" class="node">
<title>CEM5526</title>
<polygon fill="#8dd3c7" stroke="#8dd3c7" points="954.4,-95.62 851.4,-95.62 851.4,-24.38 954.4,-24.38 954.4,-95.62"/>
<text text-anchor="middle" x="902.9" y="-78.33" font-family="Arial" font-size="14.00">CEM5526</text>
<text text-anchor="middle" x="902.9" y="-46.58" font-family="Arial" font-size="14.00">Pratica Ensino</text>
<text text-anchor="middle" x="902.9" y="-30.82" font-family="Arial" font-size="14.00">L. E.</text>
</g>
<!-- CEM5514&#45;&gt;CEM5526 -->
</g>
</svg>
